%TF.GenerationSoftware,KiCad,Pcbnew,(5.1.7)-1*%
%TF.CreationDate,2021-03-23T21:38:01+01:00*%
%TF.ProjectId,kbic65-bottom,6b626963-3635-42d6-926f-74746f6d2e6b,rev?*%
%TF.SameCoordinates,Original*%
%TF.FileFunction,Legend,Bot*%
%TF.FilePolarity,Positive*%
%FSLAX46Y46*%
G04 Gerber Fmt 4.6, Leading zero omitted, Abs format (unit mm)*
G04 Created by KiCad (PCBNEW (5.1.7)-1) date 2021-03-23 21:38:01*
%MOMM*%
%LPD*%
G01*
G04 APERTURE LIST*
%ADD10C,0.150000*%
G04 APERTURE END LIST*
D10*
X320531547Y16422619D02*
X320531547Y15708333D01*
X320579166Y15565476D01*
X320674404Y15470238D01*
X320817261Y15422619D01*
X320912500Y15422619D01*
X319579166Y15422619D02*
X320055357Y15422619D01*
X320055357Y16422619D01*
X318674404Y15517857D02*
X318722023Y15470238D01*
X318864880Y15422619D01*
X318960119Y15422619D01*
X319102976Y15470238D01*
X319198214Y15565476D01*
X319245833Y15660714D01*
X319293452Y15851190D01*
X319293452Y15994047D01*
X319245833Y16184523D01*
X319198214Y16279761D01*
X319102976Y16375000D01*
X318960119Y16422619D01*
X318864880Y16422619D01*
X318722023Y16375000D01*
X318674404Y16327380D01*
X317960119Y16422619D02*
X317960119Y15708333D01*
X318007738Y15565476D01*
X318102976Y15470238D01*
X318245833Y15422619D01*
X318341071Y15422619D01*
X317007738Y15422619D02*
X317483928Y15422619D01*
X317483928Y16422619D01*
X316102976Y15517857D02*
X316150595Y15470238D01*
X316293452Y15422619D01*
X316388690Y15422619D01*
X316531547Y15470238D01*
X316626785Y15565476D01*
X316674404Y15660714D01*
X316722023Y15851190D01*
X316722023Y15994047D01*
X316674404Y16184523D01*
X316626785Y16279761D01*
X316531547Y16375000D01*
X316388690Y16422619D01*
X316293452Y16422619D01*
X316150595Y16375000D01*
X316102976Y16327380D01*
X315388690Y16422619D02*
X315388690Y15708333D01*
X315436309Y15565476D01*
X315531547Y15470238D01*
X315674404Y15422619D01*
X315769642Y15422619D01*
X314436309Y15422619D02*
X314912500Y15422619D01*
X314912500Y16422619D01*
X313531547Y15517857D02*
X313579166Y15470238D01*
X313722023Y15422619D01*
X313817261Y15422619D01*
X313960119Y15470238D01*
X314055357Y15565476D01*
X314102976Y15660714D01*
X314150595Y15851190D01*
X314150595Y15994047D01*
X314102976Y16184523D01*
X314055357Y16279761D01*
X313960119Y16375000D01*
X313817261Y16422619D01*
X313722023Y16422619D01*
X313579166Y16375000D01*
X313531547Y16327380D01*
X312817261Y16422619D02*
X312817261Y15708333D01*
X312864880Y15565476D01*
X312960119Y15470238D01*
X313102976Y15422619D01*
X313198214Y15422619D01*
X311864880Y15422619D02*
X312341071Y15422619D01*
X312341071Y16422619D01*
X310960119Y15517857D02*
X311007738Y15470238D01*
X311150595Y15422619D01*
X311245833Y15422619D01*
X311388690Y15470238D01*
X311483928Y15565476D01*
X311531547Y15660714D01*
X311579166Y15851190D01*
X311579166Y15994047D01*
X311531547Y16184523D01*
X311483928Y16279761D01*
X311388690Y16375000D01*
X311245833Y16422619D01*
X311150595Y16422619D01*
X311007738Y16375000D01*
X310960119Y16327380D01*
M02*
