%TF.GenerationSoftware,KiCad,Pcbnew,(5.1.7)-1*%
%TF.CreationDate,2021-02-21T21:24:22+01:00*%
%TF.ProjectId,kbic65-bottom,6b626963-3635-42d6-926f-74746f6d2e6b,rev?*%
%TF.SameCoordinates,Original*%
%TF.FileFunction,Legend,Bot*%
%TF.FilePolarity,Positive*%
%FSLAX46Y46*%
G04 Gerber Fmt 4.6, Leading zero omitted, Abs format (unit mm)*
G04 Created by KiCad (PCBNEW (5.1.7)-1) date 2021-02-21 21:24:22*
%MOMM*%
%LPD*%
G01*
G04 APERTURE LIST*
%ADD10C,0.100000*%
%ADD11C,0.300000*%
%ADD12C,0.200000*%
%ADD13C,2.000000*%
G04 APERTURE END LIST*
D10*
G36*
X178000000Y105200000D02*
G01*
X183100000Y104800000D01*
X191959812Y103901579D01*
X191275261Y99873982D01*
X187500000Y100400000D01*
X181300000Y101200000D01*
X176000000Y101700000D01*
X173700000Y101800000D01*
X171544045Y101859569D01*
X168000000Y101700000D01*
X164100000Y101400000D01*
X161100000Y101100000D01*
X155500000Y100400000D01*
X151715352Y99873982D01*
X151030800Y103901579D01*
X159500000Y104700000D01*
X163300000Y105000000D01*
X167600000Y105300000D01*
X170600000Y105400000D01*
X173500000Y105400000D01*
X178000000Y105200000D01*
G37*
X178000000Y105200000D02*
X183100000Y104800000D01*
X191959812Y103901579D01*
X191275261Y99873982D01*
X187500000Y100400000D01*
X181300000Y101200000D01*
X176000000Y101700000D01*
X173700000Y101800000D01*
X171544045Y101859569D01*
X168000000Y101700000D01*
X164100000Y101400000D01*
X161100000Y101100000D01*
X155500000Y100400000D01*
X151715352Y99873982D01*
X151030800Y103901579D01*
X159500000Y104700000D01*
X163300000Y105000000D01*
X167600000Y105300000D01*
X170600000Y105400000D01*
X173500000Y105400000D01*
X178000000Y105200000D01*
G36*
X89993410Y130099979D02*
G01*
X98093410Y129899979D01*
X106593410Y129599979D01*
X114893410Y129099979D01*
X118893410Y128799979D01*
X122993410Y128399979D01*
X126993410Y127799979D01*
X131493410Y127099979D01*
X134593410Y126499979D01*
X138293410Y125699979D01*
X140593410Y125099979D01*
X141993410Y124699979D01*
X145093410Y123599979D01*
X147293410Y122599979D01*
X149893410Y121199979D01*
X151393410Y120199979D01*
X152893410Y119099979D01*
X153793410Y118299979D01*
X154693410Y117399979D01*
X155793410Y116199979D01*
X156293410Y115399979D01*
X156893410Y114399979D01*
X157393410Y113299979D01*
X157793410Y112199979D01*
X158184329Y110821378D01*
X158393410Y109799979D01*
X158493410Y107199979D01*
X158193410Y103499979D01*
X157750021Y100773127D01*
X152551015Y100595746D01*
X152393410Y101999979D01*
X152093410Y103999979D01*
X151693410Y106099979D01*
X151293410Y107899979D01*
X150993410Y109199979D01*
X150693410Y110199979D01*
X150493410Y110899979D01*
X150028859Y112024060D01*
X149693410Y112599979D01*
X149093410Y113299979D01*
X147693410Y114499979D01*
X146393410Y115599979D01*
X145093410Y116599979D01*
X143693410Y117499979D01*
X141993410Y118399979D01*
X140193410Y119199979D01*
X138293410Y119799979D01*
X135793410Y120399979D01*
X131793410Y121099979D01*
X127193410Y121699979D01*
X122693410Y122199979D01*
X116193410Y122699979D01*
X111893410Y122999979D01*
X106293410Y123499979D01*
X101193410Y123799979D01*
X99093410Y123899979D01*
X94793410Y124099979D01*
X92193410Y124199979D01*
X87593410Y124099979D01*
X84493410Y124099979D01*
X80793410Y123899979D01*
X73193410Y123599979D01*
X70693410Y123499979D01*
X68093410Y123399979D01*
X65093410Y123299979D01*
X61393410Y122999979D01*
X58593410Y122699979D01*
X55793410Y122299979D01*
X53693410Y121899979D01*
X51593410Y121399979D01*
X49693410Y120799979D01*
X48293410Y120299979D01*
X46993410Y119799979D01*
X46293410Y119399979D01*
X45193410Y118699979D01*
X44493410Y118099979D01*
X43493410Y117099979D01*
X42693410Y115999979D01*
X41893410Y114599979D01*
X41593410Y113899979D01*
X41293410Y112399979D01*
X41093410Y110399979D01*
X41051427Y106068340D01*
X27092574Y104170727D01*
X25145635Y121558480D01*
X26693410Y122199979D01*
X31993410Y124199979D01*
X36293410Y125599979D01*
X39493410Y126499979D01*
X43193410Y127399979D01*
X47293410Y128099979D01*
X51993410Y128699979D01*
X55693410Y129099979D01*
X60693410Y129599979D01*
X63493410Y129799979D01*
X68593410Y130099979D01*
X74593410Y130199979D01*
X85393410Y130199979D01*
X89993410Y130099979D01*
G37*
X89993410Y130099979D02*
X98093410Y129899979D01*
X106593410Y129599979D01*
X114893410Y129099979D01*
X118893410Y128799979D01*
X122993410Y128399979D01*
X126993410Y127799979D01*
X131493410Y127099979D01*
X134593410Y126499979D01*
X138293410Y125699979D01*
X140593410Y125099979D01*
X141993410Y124699979D01*
X145093410Y123599979D01*
X147293410Y122599979D01*
X149893410Y121199979D01*
X151393410Y120199979D01*
X152893410Y119099979D01*
X153793410Y118299979D01*
X154693410Y117399979D01*
X155793410Y116199979D01*
X156293410Y115399979D01*
X156893410Y114399979D01*
X157393410Y113299979D01*
X157793410Y112199979D01*
X158184329Y110821378D01*
X158393410Y109799979D01*
X158493410Y107199979D01*
X158193410Y103499979D01*
X157750021Y100773127D01*
X152551015Y100595746D01*
X152393410Y101999979D01*
X152093410Y103999979D01*
X151693410Y106099979D01*
X151293410Y107899979D01*
X150993410Y109199979D01*
X150693410Y110199979D01*
X150493410Y110899979D01*
X150028859Y112024060D01*
X149693410Y112599979D01*
X149093410Y113299979D01*
X147693410Y114499979D01*
X146393410Y115599979D01*
X145093410Y116599979D01*
X143693410Y117499979D01*
X141993410Y118399979D01*
X140193410Y119199979D01*
X138293410Y119799979D01*
X135793410Y120399979D01*
X131793410Y121099979D01*
X127193410Y121699979D01*
X122693410Y122199979D01*
X116193410Y122699979D01*
X111893410Y122999979D01*
X106293410Y123499979D01*
X101193410Y123799979D01*
X99093410Y123899979D01*
X94793410Y124099979D01*
X92193410Y124199979D01*
X87593410Y124099979D01*
X84493410Y124099979D01*
X80793410Y123899979D01*
X73193410Y123599979D01*
X70693410Y123499979D01*
X68093410Y123399979D01*
X65093410Y123299979D01*
X61393410Y122999979D01*
X58593410Y122699979D01*
X55793410Y122299979D01*
X53693410Y121899979D01*
X51593410Y121399979D01*
X49693410Y120799979D01*
X48293410Y120299979D01*
X46993410Y119799979D01*
X46293410Y119399979D01*
X45193410Y118699979D01*
X44493410Y118099979D01*
X43493410Y117099979D01*
X42693410Y115999979D01*
X41893410Y114599979D01*
X41593410Y113899979D01*
X41293410Y112399979D01*
X41093410Y110399979D01*
X41051427Y106068340D01*
X27092574Y104170727D01*
X25145635Y121558480D01*
X26693410Y122199979D01*
X31993410Y124199979D01*
X36293410Y125599979D01*
X39493410Y126499979D01*
X43193410Y127399979D01*
X47293410Y128099979D01*
X51993410Y128699979D01*
X55693410Y129099979D01*
X60693410Y129599979D01*
X63493410Y129799979D01*
X68593410Y130099979D01*
X74593410Y130199979D01*
X85393410Y130199979D01*
X89993410Y130099979D01*
G36*
X274300000Y130100000D02*
G01*
X279400000Y129800000D01*
X282200000Y129600000D01*
X287200000Y129100000D01*
X290900000Y128700000D01*
X295600000Y128100000D01*
X299700000Y127400000D01*
X303400000Y126500000D01*
X306600000Y125600000D01*
X310900000Y124200000D01*
X316200000Y122200000D01*
X317747775Y121558501D01*
X315800836Y104170748D01*
X301841983Y106068361D01*
X301800000Y110400000D01*
X301600000Y112400000D01*
X301300000Y113900000D01*
X301000000Y114600000D01*
X300200000Y116000000D01*
X299400000Y117100000D01*
X298400000Y118100000D01*
X297700000Y118700000D01*
X296600000Y119400000D01*
X295900000Y119800000D01*
X294600000Y120300000D01*
X293200000Y120800000D01*
X291300000Y121400000D01*
X289200000Y121900000D01*
X287100000Y122300000D01*
X284300000Y122700000D01*
X281500000Y123000000D01*
X277800000Y123300000D01*
X274800000Y123400000D01*
X272200000Y123500000D01*
X269700000Y123600000D01*
X262100000Y123900000D01*
X258400000Y124100000D01*
X255300000Y124100000D01*
X250700000Y124200000D01*
X248100000Y124100000D01*
X243800000Y123900000D01*
X241700000Y123800000D01*
X236600000Y123500000D01*
X231000000Y123000000D01*
X226700000Y122700000D01*
X220200000Y122200000D01*
X215700000Y121700000D01*
X211100000Y121100000D01*
X207100000Y120400000D01*
X204600000Y119800000D01*
X202700000Y119200000D01*
X200900000Y118400000D01*
X199200000Y117500000D01*
X197800000Y116600000D01*
X196500000Y115600000D01*
X195200000Y114500000D01*
X193800000Y113300000D01*
X193200000Y112600000D01*
X192864551Y112024081D01*
X192400000Y110900000D01*
X192200000Y110200000D01*
X191900000Y109200000D01*
X191600000Y107900000D01*
X191200000Y106100000D01*
X190800000Y104000000D01*
X190500000Y102000000D01*
X190342395Y100595767D01*
X185143389Y100773148D01*
X184700000Y103500000D01*
X184400000Y107200000D01*
X184500000Y109800000D01*
X184709081Y110821399D01*
X185100000Y112200000D01*
X185500000Y113300000D01*
X186000000Y114400000D01*
X186600000Y115400000D01*
X187100000Y116200000D01*
X188200000Y117400000D01*
X189100000Y118300000D01*
X190000000Y119100000D01*
X191500000Y120200000D01*
X193000000Y121200000D01*
X195600000Y122600000D01*
X197800000Y123600000D01*
X200900000Y124700000D01*
X202300000Y125100000D01*
X204600000Y125700000D01*
X208300000Y126500000D01*
X211400000Y127100000D01*
X215900000Y127800000D01*
X219900000Y128400000D01*
X224000000Y128800000D01*
X228000000Y129100000D01*
X236300000Y129600000D01*
X244800000Y129900000D01*
X252900000Y130100000D01*
X257500000Y130200000D01*
X268300000Y130200000D01*
X274300000Y130100000D01*
G37*
X274300000Y130100000D02*
X279400000Y129800000D01*
X282200000Y129600000D01*
X287200000Y129100000D01*
X290900000Y128700000D01*
X295600000Y128100000D01*
X299700000Y127400000D01*
X303400000Y126500000D01*
X306600000Y125600000D01*
X310900000Y124200000D01*
X316200000Y122200000D01*
X317747775Y121558501D01*
X315800836Y104170748D01*
X301841983Y106068361D01*
X301800000Y110400000D01*
X301600000Y112400000D01*
X301300000Y113900000D01*
X301000000Y114600000D01*
X300200000Y116000000D01*
X299400000Y117100000D01*
X298400000Y118100000D01*
X297700000Y118700000D01*
X296600000Y119400000D01*
X295900000Y119800000D01*
X294600000Y120300000D01*
X293200000Y120800000D01*
X291300000Y121400000D01*
X289200000Y121900000D01*
X287100000Y122300000D01*
X284300000Y122700000D01*
X281500000Y123000000D01*
X277800000Y123300000D01*
X274800000Y123400000D01*
X272200000Y123500000D01*
X269700000Y123600000D01*
X262100000Y123900000D01*
X258400000Y124100000D01*
X255300000Y124100000D01*
X250700000Y124200000D01*
X248100000Y124100000D01*
X243800000Y123900000D01*
X241700000Y123800000D01*
X236600000Y123500000D01*
X231000000Y123000000D01*
X226700000Y122700000D01*
X220200000Y122200000D01*
X215700000Y121700000D01*
X211100000Y121100000D01*
X207100000Y120400000D01*
X204600000Y119800000D01*
X202700000Y119200000D01*
X200900000Y118400000D01*
X199200000Y117500000D01*
X197800000Y116600000D01*
X196500000Y115600000D01*
X195200000Y114500000D01*
X193800000Y113300000D01*
X193200000Y112600000D01*
X192864551Y112024081D01*
X192400000Y110900000D01*
X192200000Y110200000D01*
X191900000Y109200000D01*
X191600000Y107900000D01*
X191200000Y106100000D01*
X190800000Y104000000D01*
X190500000Y102000000D01*
X190342395Y100595767D01*
X185143389Y100773148D01*
X184700000Y103500000D01*
X184400000Y107200000D01*
X184500000Y109800000D01*
X184709081Y110821399D01*
X185100000Y112200000D01*
X185500000Y113300000D01*
X186000000Y114400000D01*
X186600000Y115400000D01*
X187100000Y116200000D01*
X188200000Y117400000D01*
X189100000Y118300000D01*
X190000000Y119100000D01*
X191500000Y120200000D01*
X193000000Y121200000D01*
X195600000Y122600000D01*
X197800000Y123600000D01*
X200900000Y124700000D01*
X202300000Y125100000D01*
X204600000Y125700000D01*
X208300000Y126500000D01*
X211400000Y127100000D01*
X215900000Y127800000D01*
X219900000Y128400000D01*
X224000000Y128800000D01*
X228000000Y129100000D01*
X236300000Y129600000D01*
X244800000Y129900000D01*
X252900000Y130100000D01*
X257500000Y130200000D01*
X268300000Y130200000D01*
X274300000Y130100000D01*
D11*
X33210119Y25971726D02*
X33210119Y29971726D01*
X30924404Y25971726D02*
X32638690Y28257440D01*
X30924404Y29971726D02*
X33210119Y27686011D01*
X27876785Y28066964D02*
X27305357Y27876488D01*
X27114880Y27686011D01*
X26924404Y27305059D01*
X26924404Y26733630D01*
X27114880Y26352678D01*
X27305357Y26162202D01*
X27686309Y25971726D01*
X29210119Y25971726D01*
X29210119Y29971726D01*
X27876785Y29971726D01*
X27495833Y29781250D01*
X27305357Y29590773D01*
X27114880Y29209821D01*
X27114880Y28828869D01*
X27305357Y28447916D01*
X27495833Y28257440D01*
X27876785Y28066964D01*
X29210119Y28066964D01*
D12*
X151030869Y103901579D02*
X151030869Y103901579D01*
X191275261Y99873982D02*
X191959812Y103901579D01*
X171214454Y105431822D02*
X170540545Y105418550D01*
X170540545Y105418550D02*
X169833967Y105398001D01*
X169833967Y105398001D02*
X169098266Y105370678D01*
X169098266Y105370678D02*
X168336988Y105337086D01*
X168336988Y105337086D02*
X167553677Y105297731D01*
X167553677Y105297731D02*
X166751878Y105253117D01*
X166751878Y105253117D02*
X165935138Y105203750D01*
X165935138Y105203750D02*
X165107002Y105150134D01*
X165107002Y105150134D02*
X164271014Y105092774D01*
X164271014Y105092774D02*
X163430721Y105032176D01*
X163430721Y105032176D02*
X162589668Y104968843D01*
X162589668Y104968843D02*
X161751401Y104903282D01*
X161751401Y104903282D02*
X160919464Y104835996D01*
X160919464Y104835996D02*
X160097403Y104767491D01*
X160097403Y104767491D02*
X159288763Y104698273D01*
X159288763Y104698273D02*
X158497091Y104628845D01*
X158497091Y104628845D02*
X157725930Y104559713D01*
X157725930Y104559713D02*
X156978828Y104491381D01*
X156978828Y104491381D02*
X156259328Y104424355D01*
X156259328Y104424355D02*
X155570977Y104359140D01*
X155570977Y104359140D02*
X154917319Y104296240D01*
X154917319Y104296240D02*
X154301901Y104236161D01*
X154301901Y104236161D02*
X153728268Y104179407D01*
X153728268Y104179407D02*
X153199965Y104126483D01*
X153199965Y104126483D02*
X152720537Y104077895D01*
X152720537Y104077895D02*
X152293530Y104034147D01*
X152293530Y104034147D02*
X151922489Y103995744D01*
X151922489Y103995744D02*
X151610960Y103963191D01*
X151610960Y103963191D02*
X151362488Y103936993D01*
X151362488Y103936993D02*
X151068897Y103905682D01*
X151068897Y103905682D02*
X151030869Y103901579D01*
X191959812Y103901579D02*
X191612666Y103942110D01*
X191612666Y103942110D02*
X191352768Y103971974D01*
X191352768Y103971974D02*
X191027092Y104008977D01*
X191027092Y104008977D02*
X190639429Y104052497D01*
X190639429Y104052497D02*
X190193566Y104101912D01*
X190193566Y104101912D02*
X189693292Y104156597D01*
X189693292Y104156597D02*
X189142397Y104215932D01*
X189142397Y104215932D02*
X188544669Y104279293D01*
X188544669Y104279293D02*
X187903896Y104346058D01*
X187903896Y104346058D02*
X187223869Y104415604D01*
X187223869Y104415604D02*
X186508374Y104487309D01*
X186508374Y104487309D02*
X185761202Y104560549D01*
X185761202Y104560549D02*
X184986142Y104634704D01*
X184986142Y104634704D02*
X184186981Y104709149D01*
X184186981Y104709149D02*
X183367508Y104783262D01*
X183367508Y104783262D02*
X182531513Y104856422D01*
X182531513Y104856422D02*
X181682785Y104928005D01*
X181682785Y104928005D02*
X180825111Y104997388D01*
X180825111Y104997388D02*
X179962282Y105063949D01*
X179962282Y105063949D02*
X179098085Y105127066D01*
X179098085Y105127066D02*
X178236310Y105186116D01*
X178236310Y105186116D02*
X177380745Y105240476D01*
X177380745Y105240476D02*
X176535179Y105289524D01*
X176535179Y105289524D02*
X175703401Y105332637D01*
X175703401Y105332637D02*
X174889200Y105369193D01*
X174889200Y105369193D02*
X174096364Y105398569D01*
X174096364Y105398569D02*
X173328683Y105420142D01*
X173328683Y105420142D02*
X172589945Y105433290D01*
X172589945Y105433290D02*
X171883939Y105437391D01*
X171883939Y105437391D02*
X171214454Y105431822D01*
X151030800Y103901579D02*
X151715352Y99873982D01*
X171544045Y101859569D02*
X172185086Y101853873D01*
X172185086Y101853873D02*
X172860319Y101837269D01*
X172860319Y101837269D02*
X173566166Y101810486D01*
X173566166Y101810486D02*
X174299052Y101774250D01*
X174299052Y101774250D02*
X175055399Y101729289D01*
X175055399Y101729289D02*
X175831629Y101676328D01*
X175831629Y101676328D02*
X176624168Y101616097D01*
X176624168Y101616097D02*
X177429436Y101549321D01*
X177429436Y101549321D02*
X178243859Y101476727D01*
X178243859Y101476727D02*
X179063858Y101399044D01*
X179063858Y101399044D02*
X179885858Y101316998D01*
X179885858Y101316998D02*
X180706280Y101231316D01*
X180706280Y101231316D02*
X181521549Y101142726D01*
X181521549Y101142726D02*
X182328088Y101051954D01*
X182328088Y101051954D02*
X183122319Y100959728D01*
X183122319Y100959728D02*
X183900665Y100866775D01*
X183900665Y100866775D02*
X184659551Y100773822D01*
X184659551Y100773822D02*
X185395399Y100681596D01*
X185395399Y100681596D02*
X186104632Y100590824D01*
X186104632Y100590824D02*
X186783674Y100502234D01*
X186783674Y100502234D02*
X187428947Y100416552D01*
X187428947Y100416552D02*
X188036875Y100334506D01*
X188036875Y100334506D02*
X188603881Y100256823D01*
X188603881Y100256823D02*
X189126388Y100184229D01*
X189126388Y100184229D02*
X189600819Y100117453D01*
X189600819Y100117453D02*
X190023598Y100057222D01*
X190023598Y100057222D02*
X190391147Y100004261D01*
X190391147Y100004261D02*
X190699889Y99959300D01*
X190699889Y99959300D02*
X190946249Y99923064D01*
X190946249Y99923064D02*
X191237511Y99879677D01*
X191237511Y99879677D02*
X191275261Y99873982D01*
X151715352Y99873982D02*
X152046771Y99923064D01*
X152046771Y99923064D02*
X152294908Y99959300D01*
X152294908Y99959300D02*
X152605857Y100004261D01*
X152605857Y100004261D02*
X152976004Y100057222D01*
X152976004Y100057222D02*
X153401738Y100117453D01*
X153401738Y100117453D02*
X153879445Y100184229D01*
X153879445Y100184229D02*
X154405514Y100256823D01*
X154405514Y100256823D02*
X154976331Y100334506D01*
X154976331Y100334506D02*
X155588285Y100416552D01*
X155588285Y100416552D02*
X156237763Y100502234D01*
X156237763Y100502234D02*
X156921151Y100590824D01*
X156921151Y100590824D02*
X157634839Y100681596D01*
X157634839Y100681596D02*
X158375212Y100773822D01*
X158375212Y100773822D02*
X159138660Y100866775D01*
X159138660Y100866775D02*
X159921568Y100959728D01*
X159921568Y100959728D02*
X160720326Y101051954D01*
X160720326Y101051954D02*
X161531319Y101142726D01*
X161531319Y101142726D02*
X162350937Y101231316D01*
X162350937Y101231316D02*
X163175565Y101316998D01*
X163175565Y101316998D02*
X164001592Y101399044D01*
X164001592Y101399044D02*
X164825406Y101476727D01*
X164825406Y101476727D02*
X165643393Y101549321D01*
X165643393Y101549321D02*
X166451941Y101616097D01*
X166451941Y101616097D02*
X167247439Y101676328D01*
X167247439Y101676328D02*
X168026272Y101729289D01*
X168026272Y101729289D02*
X168784829Y101774250D01*
X168784829Y101774250D02*
X169519497Y101810486D01*
X169519497Y101810486D02*
X170226664Y101837269D01*
X170226664Y101837269D02*
X170902718Y101853873D01*
X170902718Y101853873D02*
X171544045Y101859569D01*
X317747775Y121558501D02*
X317747775Y121558501D01*
D13*
X200416540Y59329569D02*
X199107140Y62116432D01*
X199107140Y62116432D02*
X197875409Y65158912D01*
X197875409Y65158912D02*
X196720587Y68404552D01*
X196720587Y68404552D02*
X195641915Y71800897D01*
X195641915Y71800897D02*
X194638634Y75295493D01*
X194638634Y75295493D02*
X193709984Y78835884D01*
X193709984Y78835884D02*
X192855206Y82369616D01*
X192855206Y82369616D02*
X192073542Y85844234D01*
X192073542Y85844234D02*
X191364231Y89207281D01*
X191364231Y89207281D02*
X190726515Y92406304D01*
X190726515Y92406304D02*
X190159635Y95388848D01*
X190159635Y95388848D02*
X189662830Y98102457D01*
X189662830Y98102457D02*
X189235343Y100494677D01*
X189235343Y100494677D02*
X188876414Y102513052D01*
X188876414Y102513052D02*
X188464906Y104724911D01*
X188464906Y104724911D02*
X188361194Y105218449D01*
X216521149Y39697629D02*
X214661151Y41190258D01*
X214661151Y41190258D02*
X212866667Y42772439D01*
X212866667Y42772439D02*
X211140098Y44438086D01*
X211140098Y44438086D02*
X209483846Y46181113D01*
X209483846Y46181113D02*
X207900315Y47995437D01*
X207900315Y47995437D02*
X206391906Y49874971D01*
X206391906Y49874971D02*
X204961022Y51813632D01*
X204961022Y51813632D02*
X203610065Y53805332D01*
X203610065Y53805332D02*
X202341438Y55843989D01*
X202341438Y55843989D02*
X201157543Y57923516D01*
X201157543Y57923516D02*
X200416540Y59329569D01*
X246231167Y32712455D02*
X244047632Y32748808D01*
X244047632Y32748808D02*
X241793314Y32888053D01*
X241793314Y32888053D02*
X239005165Y33139482D01*
X239005165Y33139482D02*
X236920257Y33379166D01*
X236920257Y33379166D02*
X234703737Y33683323D01*
X234703737Y33683323D02*
X232397864Y34057795D01*
X232397864Y34057795D02*
X230044896Y34508429D01*
X230044896Y34508429D02*
X227687092Y35041068D01*
X227687092Y35041068D02*
X225366710Y35661558D01*
X225366710Y35661558D02*
X223126008Y36375744D01*
X223126008Y36375744D02*
X221007247Y37189469D01*
X221007247Y37189469D02*
X219052683Y38108580D01*
X219052683Y38108580D02*
X217304575Y39138921D01*
X217304575Y39138921D02*
X216521149Y39697629D01*
X280814118Y37096816D02*
X278683779Y36286369D01*
X278683779Y36286369D02*
X276363917Y35586484D01*
X276363917Y35586484D02*
X273894254Y34988795D01*
X273894254Y34988795D02*
X271314516Y34484937D01*
X271314516Y34484937D02*
X268664425Y34066544D01*
X268664425Y34066544D02*
X265983706Y33725252D01*
X265983706Y33725252D02*
X263312081Y33452694D01*
X263312081Y33452694D02*
X260689276Y33240505D01*
X260689276Y33240505D02*
X258155013Y33080320D01*
X258155013Y33080320D02*
X255749017Y32963775D01*
X255749017Y32963775D02*
X253511011Y32882502D01*
X253511011Y32882502D02*
X251480719Y32828138D01*
X251480719Y32828138D02*
X248911640Y32778745D01*
X248911640Y32778745D02*
X246583957Y32728989D01*
X246583957Y32728989D02*
X246231167Y32712455D01*
X300479567Y55524765D02*
X299258108Y53215925D01*
X299258108Y53215925D02*
X297745169Y50957498D01*
X297745169Y50957498D02*
X295997087Y48773659D01*
X295997087Y48773659D02*
X294070200Y46688583D01*
X294070200Y46688583D02*
X292020846Y44726446D01*
X292020846Y44726446D02*
X289905364Y42911423D01*
X289905364Y42911423D02*
X287780092Y41267688D01*
X287780092Y41267688D02*
X285701367Y39819417D01*
X285701367Y39819417D02*
X283725529Y38590786D01*
X283725529Y38590786D02*
X281908915Y37605969D01*
X281908915Y37605969D02*
X280814118Y37096816D01*
X306292739Y88792965D02*
X306347120Y86579789D01*
X306347120Y86579789D02*
X306350368Y84376263D01*
X306350368Y84376263D02*
X306301504Y82184145D01*
X306301504Y82184145D02*
X306199552Y80005193D01*
X306199552Y80005193D02*
X306043535Y77841166D01*
X306043535Y77841166D02*
X305832475Y75693822D01*
X305832475Y75693822D02*
X305565395Y73564918D01*
X305565395Y73564918D02*
X305241318Y71456215D01*
X305241318Y71456215D02*
X304859268Y69369469D01*
X304859268Y69369469D02*
X304418266Y67306439D01*
X304418266Y67306439D02*
X303917336Y65268884D01*
X303917336Y65268884D02*
X303355501Y63258561D01*
X303355501Y63258561D02*
X302731784Y61277229D01*
X302731784Y61277229D02*
X302045207Y59326647D01*
X302045207Y59326647D02*
X301294794Y57408573D01*
X301294794Y57408573D02*
X300479567Y55524765D01*
X305332575Y113028505D02*
X305419012Y110928156D01*
X305419012Y110928156D02*
X305530025Y108213578D01*
X305530025Y108213578D02*
X305632974Y105680626D01*
X305632974Y105680626D02*
X305746852Y102859876D01*
X305746852Y102859876D02*
X305866303Y99875722D01*
X305866303Y99875722D02*
X305946389Y97856936D01*
X305946389Y97856936D02*
X306024985Y95857670D01*
X306024985Y95857670D02*
X306136615Y92975998D01*
X306136615Y92975998D02*
X306235968Y90345571D01*
X306235968Y90345571D02*
X306292739Y88792965D01*
X142476871Y59329569D02*
X143786270Y62116432D01*
X143786270Y62116432D02*
X145018001Y65158912D01*
X145018001Y65158912D02*
X146172822Y68404552D01*
X146172822Y68404552D02*
X147251494Y71800897D01*
X147251494Y71800897D02*
X148254776Y75295493D01*
X148254776Y75295493D02*
X149183426Y78835884D01*
X149183426Y78835884D02*
X150038203Y82369616D01*
X150038203Y82369616D02*
X150819868Y85844234D01*
X150819868Y85844234D02*
X151529178Y89207281D01*
X151529178Y89207281D02*
X152166894Y92406304D01*
X152166894Y92406304D02*
X152733775Y95388848D01*
X152733775Y95388848D02*
X153230579Y98102457D01*
X153230579Y98102457D02*
X153658066Y100494677D01*
X153658066Y100494677D02*
X154016995Y102513052D01*
X154016995Y102513052D02*
X154428503Y104724911D01*
X154428503Y104724911D02*
X154532216Y105218449D01*
X126372262Y39697629D02*
X128232258Y41190258D01*
X128232258Y41190258D02*
X130026742Y42772439D01*
X130026742Y42772439D02*
X131753311Y44438086D01*
X131753311Y44438086D02*
X133409563Y46181113D01*
X133409563Y46181113D02*
X134993094Y47995437D01*
X134993094Y47995437D02*
X136501503Y49874971D01*
X136501503Y49874971D02*
X137932388Y51813632D01*
X137932388Y51813632D02*
X139283345Y53805332D01*
X139283345Y53805332D02*
X140551972Y55843989D01*
X140551972Y55843989D02*
X141735867Y57923516D01*
X141735867Y57923516D02*
X142476871Y59329569D01*
X96662243Y32712455D02*
X98845777Y32748808D01*
X98845777Y32748808D02*
X101100095Y32888053D01*
X101100095Y32888053D02*
X103888244Y33139482D01*
X103888244Y33139482D02*
X105973152Y33379166D01*
X105973152Y33379166D02*
X108189672Y33683323D01*
X108189672Y33683323D02*
X110495545Y34057795D01*
X110495545Y34057795D02*
X112848513Y34508429D01*
X112848513Y34508429D02*
X115206318Y35041068D01*
X115206318Y35041068D02*
X117526700Y35661558D01*
X117526700Y35661558D02*
X119767401Y36375744D01*
X119767401Y36375744D02*
X121886163Y37189469D01*
X121886163Y37189469D02*
X123840727Y38108580D01*
X123840727Y38108580D02*
X125588835Y39138921D01*
X125588835Y39138921D02*
X126372262Y39697629D01*
X62079293Y37096816D02*
X64209631Y36286369D01*
X64209631Y36286369D02*
X66529493Y35586484D01*
X66529493Y35586484D02*
X68999155Y34988795D01*
X68999155Y34988795D02*
X71578893Y34484937D01*
X71578893Y34484937D02*
X74228984Y34066544D01*
X74228984Y34066544D02*
X76909704Y33725252D01*
X76909704Y33725252D02*
X79581328Y33452694D01*
X79581328Y33452694D02*
X82204133Y33240505D01*
X82204133Y33240505D02*
X84738396Y33080320D01*
X84738396Y33080320D02*
X87144392Y32963775D01*
X87144392Y32963775D02*
X89382398Y32882502D01*
X89382398Y32882502D02*
X91412690Y32828138D01*
X91412690Y32828138D02*
X93981769Y32778745D01*
X93981769Y32778745D02*
X96309452Y32728989D01*
X96309452Y32728989D02*
X96662243Y32712455D01*
X42413844Y55524765D02*
X43635302Y53215925D01*
X43635302Y53215925D02*
X45148241Y50957498D01*
X45148241Y50957498D02*
X46896323Y48773659D01*
X46896323Y48773659D02*
X48823210Y46688583D01*
X48823210Y46688583D02*
X50872563Y44726446D01*
X50872563Y44726446D02*
X52988045Y42911423D01*
X52988045Y42911423D02*
X55113318Y41267688D01*
X55113318Y41267688D02*
X57192042Y39819417D01*
X57192042Y39819417D02*
X59167881Y38590786D01*
X59167881Y38590786D02*
X60984495Y37605969D01*
X60984495Y37605969D02*
X62079293Y37096816D01*
X36600671Y88792965D02*
X36546289Y86579789D01*
X36546289Y86579789D02*
X36543041Y84376263D01*
X36543041Y84376263D02*
X36591905Y82184145D01*
X36591905Y82184145D02*
X36693857Y80005193D01*
X36693857Y80005193D02*
X36849875Y77841166D01*
X36849875Y77841166D02*
X37060935Y75693822D01*
X37060935Y75693822D02*
X37328015Y73564918D01*
X37328015Y73564918D02*
X37652092Y71456215D01*
X37652092Y71456215D02*
X38034142Y69369469D01*
X38034142Y69369469D02*
X38475144Y67306439D01*
X38475144Y67306439D02*
X38976073Y65268884D01*
X38976073Y65268884D02*
X39537909Y63258561D01*
X39537909Y63258561D02*
X40161626Y61277229D01*
X40161626Y61277229D02*
X40848203Y59326647D01*
X40848203Y59326647D02*
X41598616Y57408573D01*
X41598616Y57408573D02*
X42413844Y55524765D01*
X37560835Y113028505D02*
X37474397Y110928156D01*
X37474397Y110928156D02*
X37363385Y108213578D01*
X37363385Y108213578D02*
X37260435Y105680626D01*
X37260435Y105680626D02*
X37146557Y102859876D01*
X37146557Y102859876D02*
X37027106Y99875722D01*
X37027106Y99875722D02*
X36947021Y97856936D01*
X36947021Y97856936D02*
X36868425Y95857670D01*
X36868425Y95857670D02*
X36756795Y92975998D01*
X36756795Y92975998D02*
X36657441Y90345571D01*
X36657441Y90345571D02*
X36600671Y88792965D01*
D12*
X190342395Y100595767D02*
X185143389Y100773148D01*
X300549194Y127212531D02*
X301165371Y127062821D01*
X301165371Y127062821D02*
X301777894Y126910331D01*
X301777894Y126910331D02*
X302386621Y126755166D01*
X302386621Y126755166D02*
X302991407Y126597429D01*
X302991407Y126597429D02*
X303592112Y126437225D01*
X303592112Y126437225D02*
X304188593Y126274656D01*
X304188593Y126274656D02*
X304780707Y126109827D01*
X304780707Y126109827D02*
X305368311Y125942842D01*
X305368311Y125942842D02*
X305951264Y125773804D01*
X305951264Y125773804D02*
X306529423Y125602818D01*
X306529423Y125602818D02*
X307102646Y125429988D01*
X307102646Y125429988D02*
X307670790Y125255417D01*
X307670790Y125255417D02*
X308233712Y125079210D01*
X308233712Y125079210D02*
X308791271Y124901469D01*
X308791271Y124901469D02*
X309343324Y124722300D01*
X309343324Y124722300D02*
X309889728Y124541806D01*
X309889728Y124541806D02*
X310430341Y124360091D01*
X310430341Y124360091D02*
X310965021Y124177259D01*
X310965021Y124177259D02*
X311493625Y123993413D01*
X311493625Y123993413D02*
X312016011Y123808659D01*
X312016011Y123808659D02*
X312532036Y123623099D01*
X312532036Y123623099D02*
X313041558Y123436837D01*
X313041558Y123436837D02*
X313544434Y123249978D01*
X313544434Y123249978D02*
X314040523Y123062625D01*
X314040523Y123062625D02*
X314529681Y122874883D01*
X314529681Y122874883D02*
X315011767Y122686854D01*
X315011767Y122686854D02*
X315486637Y122498644D01*
X315486637Y122498644D02*
X315954149Y122310356D01*
X315954149Y122310356D02*
X316414162Y122122093D01*
X316414162Y122122093D02*
X316866532Y121933961D01*
X316866532Y121933961D02*
X317311117Y121746062D01*
X317311117Y121746062D02*
X317747775Y121558501D01*
X275370313Y130035820D02*
X275974734Y130015622D01*
X275974734Y130015622D02*
X276619282Y129988386D01*
X276619282Y129988386D02*
X277301120Y129954378D01*
X277301120Y129954378D02*
X278017413Y129913862D01*
X278017413Y129913862D02*
X278765325Y129867102D01*
X278765325Y129867102D02*
X279542020Y129814365D01*
X279542020Y129814365D02*
X280344662Y129755914D01*
X280344662Y129755914D02*
X281170417Y129692014D01*
X281170417Y129692014D02*
X282016447Y129622931D01*
X282016447Y129622931D02*
X282879918Y129548929D01*
X282879918Y129548929D02*
X283757993Y129470273D01*
X283757993Y129470273D02*
X284647837Y129387228D01*
X284647837Y129387228D02*
X285546615Y129300059D01*
X285546615Y129300059D02*
X286451490Y129209031D01*
X286451490Y129209031D02*
X287359626Y129114408D01*
X287359626Y129114408D02*
X288268189Y129016456D01*
X288268189Y129016456D02*
X289174342Y128915439D01*
X289174342Y128915439D02*
X290075250Y128811622D01*
X290075250Y128811622D02*
X290968077Y128705271D01*
X290968077Y128705271D02*
X291849986Y128596649D01*
X291849986Y128596649D02*
X292718144Y128486022D01*
X292718144Y128486022D02*
X293569713Y128373654D01*
X293569713Y128373654D02*
X294401858Y128259811D01*
X294401858Y128259811D02*
X295211743Y128144758D01*
X295211743Y128144758D02*
X295996534Y128028758D01*
X295996534Y128028758D02*
X296753393Y127912078D01*
X296753393Y127912078D02*
X297479485Y127794982D01*
X297479485Y127794982D02*
X298171974Y127677734D01*
X298171974Y127677734D02*
X298828026Y127560601D01*
X298828026Y127560601D02*
X299444803Y127443846D01*
X299444803Y127443846D02*
X300019471Y127327734D01*
X300019471Y127327734D02*
X300549194Y127212531D01*
X243466145Y129887911D02*
X244489656Y129919722D01*
X244489656Y129919722D02*
X245508031Y129950126D01*
X245508031Y129950126D02*
X246521613Y129979088D01*
X246521613Y129979088D02*
X247530743Y130006574D01*
X247530743Y130006574D02*
X248535765Y130032548D01*
X248535765Y130032548D02*
X249537021Y130056976D01*
X249537021Y130056976D02*
X250534854Y130079823D01*
X250534854Y130079823D02*
X251529607Y130101055D01*
X251529607Y130101055D02*
X252521621Y130120637D01*
X252521621Y130120637D02*
X253511240Y130138535D01*
X253511240Y130138535D02*
X254498807Y130154712D01*
X254498807Y130154712D02*
X255484663Y130169136D01*
X255484663Y130169136D02*
X256469152Y130181770D01*
X256469152Y130181770D02*
X257452616Y130192582D01*
X257452616Y130192582D02*
X258435398Y130201535D01*
X258435398Y130201535D02*
X259417840Y130208595D01*
X259417840Y130208595D02*
X260400285Y130213727D01*
X260400285Y130213727D02*
X261383076Y130216898D01*
X261383076Y130216898D02*
X262366555Y130218071D01*
X262366555Y130218071D02*
X263351066Y130217213D01*
X263351066Y130217213D02*
X264336949Y130214288D01*
X264336949Y130214288D02*
X265324549Y130209262D01*
X265324549Y130209262D02*
X266314208Y130202101D01*
X266314208Y130202101D02*
X267306268Y130192769D01*
X267306268Y130192769D02*
X268301072Y130181232D01*
X268301072Y130181232D02*
X269298962Y130167456D01*
X269298962Y130167456D02*
X270300282Y130151405D01*
X270300282Y130151405D02*
X271305374Y130133045D01*
X271305374Y130133045D02*
X272314580Y130112341D01*
X272314580Y130112341D02*
X273328244Y130089259D01*
X273328244Y130089259D02*
X274346707Y130063763D01*
X274346707Y130063763D02*
X275370313Y130035820D01*
X207702843Y126394955D02*
X208781710Y126605127D01*
X208781710Y126605127D02*
X209857027Y126806668D01*
X209857027Y126806668D02*
X210929399Y126999789D01*
X210929399Y126999789D02*
X211999430Y127184702D01*
X211999430Y127184702D02*
X213067726Y127361617D01*
X213067726Y127361617D02*
X214134892Y127530746D01*
X214134892Y127530746D02*
X215201531Y127692301D01*
X215201531Y127692301D02*
X216268250Y127846493D01*
X216268250Y127846493D02*
X217335654Y127993534D01*
X217335654Y127993534D02*
X218404346Y128133634D01*
X218404346Y128133634D02*
X219474933Y128267005D01*
X219474933Y128267005D02*
X220548019Y128393860D01*
X220548019Y128393860D02*
X221624208Y128514408D01*
X221624208Y128514408D02*
X222704107Y128628862D01*
X222704107Y128628862D02*
X223788319Y128737433D01*
X223788319Y128737433D02*
X224877451Y128840333D01*
X224877451Y128840333D02*
X225972106Y128937772D01*
X225972106Y128937772D02*
X227072890Y129029963D01*
X227072890Y129029963D02*
X228180407Y129117116D01*
X228180407Y129117116D02*
X229295264Y129199443D01*
X229295264Y129199443D02*
X230418063Y129277156D01*
X230418063Y129277156D02*
X231549411Y129350466D01*
X231549411Y129350466D02*
X232689913Y129419584D01*
X232689913Y129419584D02*
X233840173Y129484722D01*
X233840173Y129484722D02*
X235000796Y129546092D01*
X235000796Y129546092D02*
X236172387Y129603903D01*
X236172387Y129603903D02*
X237355552Y129658369D01*
X237355552Y129658369D02*
X238550894Y129709701D01*
X238550894Y129709701D02*
X239759020Y129758109D01*
X239759020Y129758109D02*
X240980534Y129803806D01*
X240980534Y129803806D02*
X242216040Y129847003D01*
X242216040Y129847003D02*
X243466145Y129887911D01*
X189602073Y118742394D02*
X190107662Y119156419D01*
X190107662Y119156419D02*
X190616068Y119554962D01*
X190616068Y119554962D02*
X191127396Y119938441D01*
X191127396Y119938441D02*
X191641752Y120307276D01*
X191641752Y120307276D02*
X192159242Y120661889D01*
X192159242Y120661889D02*
X192679972Y121002698D01*
X192679972Y121002698D02*
X193204047Y121330124D01*
X193204047Y121330124D02*
X193731573Y121644587D01*
X193731573Y121644587D02*
X194262657Y121946508D01*
X194262657Y121946508D02*
X194797404Y122236305D01*
X194797404Y122236305D02*
X195335919Y122514399D01*
X195335919Y122514399D02*
X195878310Y122781211D01*
X195878310Y122781211D02*
X196424681Y123037160D01*
X196424681Y123037160D02*
X196975138Y123282666D01*
X196975138Y123282666D02*
X197529788Y123518149D01*
X197529788Y123518149D02*
X198088737Y123744031D01*
X198088737Y123744031D02*
X198652089Y123960729D01*
X198652089Y123960729D02*
X199219951Y124168665D01*
X199219951Y124168665D02*
X199792429Y124368259D01*
X199792429Y124368259D02*
X200369628Y124559931D01*
X200369628Y124559931D02*
X200951656Y124744100D01*
X200951656Y124744100D02*
X201538616Y124921187D01*
X201538616Y124921187D02*
X202130616Y125091612D01*
X202130616Y125091612D02*
X202727760Y125255795D01*
X202727760Y125255795D02*
X203330156Y125414156D01*
X203330156Y125414156D02*
X203937908Y125567116D01*
X203937908Y125567116D02*
X204551123Y125715093D01*
X204551123Y125715093D02*
X205169907Y125858509D01*
X205169907Y125858509D02*
X205794364Y125997782D01*
X205794364Y125997782D02*
X206424603Y126133335D01*
X206424603Y126133335D02*
X207060727Y126265585D01*
X207060727Y126265585D02*
X207702843Y126394955D01*
X184709081Y110821399D02*
X184782990Y111100724D01*
X184782990Y111100724D02*
X184858163Y111375912D01*
X184858163Y111375912D02*
X184934983Y111647172D01*
X184934983Y111647172D02*
X185013834Y111914711D01*
X185013834Y111914711D02*
X185095097Y112178739D01*
X185095097Y112178739D02*
X185179157Y112439463D01*
X185179157Y112439463D02*
X185266397Y112697094D01*
X185266397Y112697094D02*
X185357201Y112951838D01*
X185357201Y112951838D02*
X185451951Y113203906D01*
X185451951Y113203906D02*
X185551031Y113453504D01*
X185551031Y113453504D02*
X185654824Y113700843D01*
X185654824Y113700843D02*
X185763714Y113946131D01*
X185763714Y113946131D02*
X185878083Y114189576D01*
X185878083Y114189576D02*
X185998316Y114431388D01*
X185998316Y114431388D02*
X186124795Y114671773D01*
X186124795Y114671773D02*
X186257904Y114910942D01*
X186257904Y114910942D02*
X186398026Y115149103D01*
X186398026Y115149103D02*
X186545545Y115386464D01*
X186545545Y115386464D02*
X186700843Y115623234D01*
X186700843Y115623234D02*
X186864304Y115859622D01*
X186864304Y115859622D02*
X187036311Y116095836D01*
X187036311Y116095836D02*
X187217248Y116332086D01*
X187217248Y116332086D02*
X187407498Y116568578D01*
X187407498Y116568578D02*
X187607444Y116805523D01*
X187607444Y116805523D02*
X187817469Y117043129D01*
X187817469Y117043129D02*
X188037958Y117281604D01*
X188037958Y117281604D02*
X188269292Y117521157D01*
X188269292Y117521157D02*
X188511856Y117761996D01*
X188511856Y117761996D02*
X188766033Y118004331D01*
X188766033Y118004331D02*
X189032206Y118248370D01*
X189032206Y118248370D02*
X189310758Y118494321D01*
X189310758Y118494321D02*
X189602073Y118742394D01*
X185143389Y100773148D02*
X185090022Y101071843D01*
X185090022Y101071843D02*
X185030800Y101422441D01*
X185030800Y101422441D02*
X184995237Y101641410D01*
X184995237Y101641410D02*
X184956539Y101886963D01*
X184956539Y101886963D02*
X184915329Y102157202D01*
X184915329Y102157202D02*
X184872231Y102450229D01*
X184872231Y102450229D02*
X184827869Y102764147D01*
X184827869Y102764147D02*
X184782867Y103097057D01*
X184782867Y103097057D02*
X184737848Y103447063D01*
X184737848Y103447063D02*
X184693437Y103812267D01*
X184693437Y103812267D02*
X184650256Y104190770D01*
X184650256Y104190770D02*
X184608931Y104580676D01*
X184608931Y104580676D02*
X184570085Y104980087D01*
X184570085Y104980087D02*
X184534342Y105387104D01*
X184534342Y105387104D02*
X184502325Y105799831D01*
X184502325Y105799831D02*
X184474659Y106216370D01*
X184474659Y106216370D02*
X184451967Y106634822D01*
X184451967Y106634822D02*
X184434873Y107053291D01*
X184434873Y107053291D02*
X184424001Y107469879D01*
X184424001Y107469879D02*
X184419975Y107882688D01*
X184419975Y107882688D02*
X184423419Y108289820D01*
X184423419Y108289820D02*
X184434956Y108689378D01*
X184434956Y108689378D02*
X184455211Y109079464D01*
X184455211Y109079464D02*
X184484807Y109458181D01*
X184484807Y109458181D02*
X184524368Y109823630D01*
X184524368Y109823630D02*
X184574518Y110173915D01*
X184574518Y110173915D02*
X184635881Y110507137D01*
X184635881Y110507137D02*
X184709081Y110821399D01*
X315800836Y104170748D02*
X301841983Y106068361D01*
X317747775Y121558501D02*
X315800836Y104170748D01*
X192864551Y112024081D02*
X192712143Y111673224D01*
X192712143Y111673224D02*
X192564310Y111299970D01*
X192564310Y111299970D02*
X192421069Y110906516D01*
X192421069Y110906516D02*
X192282439Y110495064D01*
X192282439Y110495064D02*
X192148435Y110067812D01*
X192148435Y110067812D02*
X192019076Y109626958D01*
X192019076Y109626958D02*
X191894378Y109174703D01*
X191894378Y109174703D02*
X191774359Y108713246D01*
X191774359Y108713246D02*
X191659036Y108244787D01*
X191659036Y108244787D02*
X191548427Y107771523D01*
X191548427Y107771523D02*
X191442547Y107295655D01*
X191442547Y107295655D02*
X191341416Y106819382D01*
X191341416Y106819382D02*
X191245050Y106344904D01*
X191245050Y106344904D02*
X191153465Y105874418D01*
X191153465Y105874418D02*
X191066681Y105410126D01*
X191066681Y105410126D02*
X190984713Y104954226D01*
X190984713Y104954226D02*
X190907579Y104508917D01*
X190907579Y104508917D02*
X190835297Y104076399D01*
X190835297Y104076399D02*
X190767883Y103658870D01*
X190767883Y103658870D02*
X190705355Y103258531D01*
X190705355Y103258531D02*
X190647730Y102877581D01*
X190647730Y102877581D02*
X190595026Y102518218D01*
X190595026Y102518218D02*
X190547259Y102182643D01*
X190547259Y102182643D02*
X190504447Y101873054D01*
X190504447Y101873054D02*
X190466607Y101591651D01*
X190466607Y101591651D02*
X190433756Y101340632D01*
X190433756Y101340632D02*
X190405912Y101122198D01*
X190405912Y101122198D02*
X190365312Y100791880D01*
X190365312Y100791880D02*
X190342395Y100595767D01*
X195286264Y114571240D02*
X195133372Y114436838D01*
X195133372Y114436838D02*
X194972853Y114298580D01*
X194972853Y114298580D02*
X194806383Y114156585D01*
X194806383Y114156585D02*
X194635643Y114010970D01*
X194635643Y114010970D02*
X194462310Y113861852D01*
X194462310Y113861852D02*
X194288062Y113709350D01*
X194288062Y113709350D02*
X194114579Y113553581D01*
X194114579Y113553581D02*
X193943538Y113394664D01*
X193943538Y113394664D02*
X193776617Y113232714D01*
X193776617Y113232714D02*
X193615497Y113067851D01*
X193615497Y113067851D02*
X193461853Y112900193D01*
X193461853Y112900193D02*
X193317367Y112729856D01*
X193317367Y112729856D02*
X193183715Y112556958D01*
X193183715Y112556958D02*
X193062576Y112381618D01*
X193062576Y112381618D02*
X192955628Y112203953D01*
X192955628Y112203953D02*
X192864551Y112024081D01*
X204110154Y119638082D02*
X203782544Y119535755D01*
X203782544Y119535755D02*
X203460430Y119430645D01*
X203460430Y119430645D02*
X203143597Y119322667D01*
X203143597Y119322667D02*
X202831830Y119211739D01*
X202831830Y119211739D02*
X202524913Y119097778D01*
X202524913Y119097778D02*
X202222633Y118980701D01*
X202222633Y118980701D02*
X201924773Y118860425D01*
X201924773Y118860425D02*
X201631120Y118736867D01*
X201631120Y118736867D02*
X201341457Y118609944D01*
X201341457Y118609944D02*
X201055570Y118479573D01*
X201055570Y118479573D02*
X200773245Y118345671D01*
X200773245Y118345671D02*
X200494265Y118208156D01*
X200494265Y118208156D02*
X200218416Y118066944D01*
X200218416Y118066944D02*
X199945484Y117921953D01*
X199945484Y117921953D02*
X199675252Y117773099D01*
X199675252Y117773099D02*
X199407507Y117620299D01*
X199407507Y117620299D02*
X199142032Y117463471D01*
X199142032Y117463471D02*
X198878614Y117302532D01*
X198878614Y117302532D02*
X198617037Y117137398D01*
X198617037Y117137398D02*
X198357086Y116967987D01*
X198357086Y116967987D02*
X198098546Y116794216D01*
X198098546Y116794216D02*
X197841203Y116616002D01*
X197841203Y116616002D02*
X197584841Y116433261D01*
X197584841Y116433261D02*
X197329245Y116245912D01*
X197329245Y116245912D02*
X197074200Y116053871D01*
X197074200Y116053871D02*
X196819491Y115857055D01*
X196819491Y115857055D02*
X196564904Y115655380D01*
X196564904Y115655380D02*
X196310223Y115448766D01*
X196310223Y115448766D02*
X196055234Y115237127D01*
X196055234Y115237127D02*
X195799721Y115020382D01*
X195799721Y115020382D02*
X195543469Y114798447D01*
X195543469Y114798447D02*
X195286264Y114571240D01*
X233398274Y123229885D02*
X232689908Y123174431D01*
X232689908Y123174431D02*
X231939753Y123117150D01*
X231939753Y123117150D02*
X231150653Y123057859D01*
X231150653Y123057859D02*
X230325451Y122996372D01*
X230325451Y122996372D02*
X229466993Y122932507D01*
X229466993Y122932507D02*
X228578122Y122866080D01*
X228578122Y122866080D02*
X227661682Y122796907D01*
X227661682Y122796907D02*
X226720518Y122724805D01*
X226720518Y122724805D02*
X225757474Y122649590D01*
X225757474Y122649590D02*
X224775394Y122571078D01*
X224775394Y122571078D02*
X223777122Y122489087D01*
X223777122Y122489087D02*
X222765502Y122403431D01*
X222765502Y122403431D02*
X221743379Y122313927D01*
X221743379Y122313927D02*
X220713597Y122220393D01*
X220713597Y122220393D02*
X219678999Y122122643D01*
X219678999Y122122643D02*
X218642431Y122020495D01*
X218642431Y122020495D02*
X217606736Y121913765D01*
X217606736Y121913765D02*
X216574758Y121802270D01*
X216574758Y121802270D02*
X215549343Y121685824D01*
X215549343Y121685824D02*
X214533333Y121564246D01*
X214533333Y121564246D02*
X213529573Y121437351D01*
X213529573Y121437351D02*
X212540907Y121304956D01*
X212540907Y121304956D02*
X211570180Y121166876D01*
X211570180Y121166876D02*
X210620235Y121022929D01*
X210620235Y121022929D02*
X209693917Y120872931D01*
X209693917Y120872931D02*
X208794070Y120716698D01*
X208794070Y120716698D02*
X207923538Y120554046D01*
X207923538Y120554046D02*
X207085166Y120384792D01*
X207085166Y120384792D02*
X206281797Y120208752D01*
X206281797Y120208752D02*
X205516276Y120025743D01*
X205516276Y120025743D02*
X204791447Y119835581D01*
X204791447Y119835581D02*
X204110154Y119638082D01*
X264494147Y123831367D02*
X263303210Y123884704D01*
X263303210Y123884704D02*
X262152051Y123933372D01*
X262152051Y123933372D02*
X261038105Y123977373D01*
X261038105Y123977373D02*
X259958808Y124016708D01*
X259958808Y124016708D02*
X258911598Y124051378D01*
X258911598Y124051378D02*
X257893911Y124081386D01*
X257893911Y124081386D02*
X256903183Y124106732D01*
X256903183Y124106732D02*
X255936851Y124127418D01*
X255936851Y124127418D02*
X254992350Y124143446D01*
X254992350Y124143446D02*
X254067118Y124154816D01*
X254067118Y124154816D02*
X253158591Y124161532D01*
X253158591Y124161532D02*
X252264205Y124163594D01*
X252264205Y124163594D02*
X251381397Y124161003D01*
X251381397Y124161003D02*
X250507604Y124153762D01*
X250507604Y124153762D02*
X249640260Y124141872D01*
X249640260Y124141872D02*
X248776804Y124125334D01*
X248776804Y124125334D02*
X247914671Y124104150D01*
X247914671Y124104150D02*
X247051299Y124078321D01*
X247051299Y124078321D02*
X246184122Y124047849D01*
X246184122Y124047849D02*
X245310579Y124012735D01*
X245310579Y124012735D02*
X244428104Y123972982D01*
X244428104Y123972982D02*
X243534135Y123928590D01*
X243534135Y123928590D02*
X242626109Y123879560D01*
X242626109Y123879560D02*
X241701460Y123825896D01*
X241701460Y123825896D02*
X240757627Y123767597D01*
X240757627Y123767597D02*
X239792045Y123704666D01*
X239792045Y123704666D02*
X238802151Y123637104D01*
X238802151Y123637104D02*
X237785382Y123564913D01*
X237785382Y123564913D02*
X236739172Y123488094D01*
X236739172Y123488094D02*
X235660960Y123406648D01*
X235660960Y123406648D02*
X234548182Y123320578D01*
X234548182Y123320578D02*
X233398274Y123229885D01*
X295427397Y119982115D02*
X294558559Y120330864D01*
X294558559Y120330864D02*
X293668419Y120654742D01*
X293668419Y120654742D02*
X292758475Y120954762D01*
X292758475Y120954762D02*
X291830226Y121231936D01*
X291830226Y121231936D02*
X290885172Y121487279D01*
X290885172Y121487279D02*
X289924812Y121721803D01*
X289924812Y121721803D02*
X288950645Y121936521D01*
X288950645Y121936521D02*
X287964169Y122132447D01*
X287964169Y122132447D02*
X286966885Y122310594D01*
X286966885Y122310594D02*
X285960291Y122471975D01*
X285960291Y122471975D02*
X284945887Y122617603D01*
X284945887Y122617603D02*
X283925172Y122748492D01*
X283925172Y122748492D02*
X282899644Y122865655D01*
X282899644Y122865655D02*
X281870803Y122970105D01*
X281870803Y122970105D02*
X280840148Y123062856D01*
X280840148Y123062856D02*
X279809178Y123144919D01*
X279809178Y123144919D02*
X278779392Y123217310D01*
X278779392Y123217310D02*
X277752290Y123281040D01*
X277752290Y123281040D02*
X276729371Y123337124D01*
X276729371Y123337124D02*
X275712133Y123386574D01*
X275712133Y123386574D02*
X274702076Y123430403D01*
X274702076Y123430403D02*
X273700700Y123469626D01*
X273700700Y123469626D02*
X272709502Y123505254D01*
X272709502Y123505254D02*
X271729983Y123538302D01*
X271729983Y123538302D02*
X270763641Y123569783D01*
X270763641Y123569783D02*
X269811976Y123600709D01*
X269811976Y123600709D02*
X268876487Y123632094D01*
X268876487Y123632094D02*
X267958672Y123664951D01*
X267958672Y123664951D02*
X267060032Y123700294D01*
X267060032Y123700294D02*
X266182065Y123739135D01*
X266182065Y123739135D02*
X265326270Y123782488D01*
X265326270Y123782488D02*
X264494147Y123831367D01*
X301047200Y114484023D02*
X300911485Y114740450D01*
X300911485Y114740450D02*
X300774872Y114990295D01*
X300774872Y114990295D02*
X300637192Y115233669D01*
X300637192Y115233669D02*
X300498278Y115470685D01*
X300498278Y115470685D02*
X300357963Y115701455D01*
X300357963Y115701455D02*
X300216078Y115926091D01*
X300216078Y115926091D02*
X300072456Y116144707D01*
X300072456Y116144707D02*
X299926930Y116357414D01*
X299926930Y116357414D02*
X299779332Y116564326D01*
X299779332Y116564326D02*
X299629495Y116765553D01*
X299629495Y116765553D02*
X299477251Y116961209D01*
X299477251Y116961209D02*
X299322432Y117151407D01*
X299322432Y117151407D02*
X299164872Y117336258D01*
X299164872Y117336258D02*
X299004401Y117515874D01*
X299004401Y117515874D02*
X298840854Y117690370D01*
X298840854Y117690370D02*
X298674062Y117859856D01*
X298674062Y117859856D02*
X298503857Y118024445D01*
X298503857Y118024445D02*
X298330073Y118184250D01*
X298330073Y118184250D02*
X298152542Y118339383D01*
X298152542Y118339383D02*
X297971095Y118489957D01*
X297971095Y118489957D02*
X297785567Y118636083D01*
X297785567Y118636083D02*
X297595788Y118777875D01*
X297595788Y118777875D02*
X297401592Y118915444D01*
X297401592Y118915444D02*
X297202811Y119048904D01*
X297202811Y119048904D02*
X296999277Y119178366D01*
X296999277Y119178366D02*
X296790824Y119303943D01*
X296790824Y119303943D02*
X296577282Y119425747D01*
X296577282Y119425747D02*
X296358486Y119543891D01*
X296358486Y119543891D02*
X296134266Y119658488D01*
X296134266Y119658488D02*
X295904457Y119769649D01*
X295904457Y119769649D02*
X295668889Y119877487D01*
X295668889Y119877487D02*
X295427397Y119982115D01*
X301841983Y106068361D02*
X301849365Y106350264D01*
X301849365Y106350264D02*
X301855411Y106678470D01*
X301855411Y106678470D02*
X301858095Y106882337D01*
X301858095Y106882337D02*
X301860198Y107110026D01*
X301860198Y107110026D02*
X301861457Y107359524D01*
X301861457Y107359524D02*
X301861605Y107628816D01*
X301861605Y107628816D02*
X301860377Y107915888D01*
X301860377Y107915888D02*
X301857509Y108218726D01*
X301857509Y108218726D02*
X301852735Y108535314D01*
X301852735Y108535314D02*
X301845790Y108863639D01*
X301845790Y108863639D02*
X301836409Y109201686D01*
X301836409Y109201686D02*
X301824326Y109547441D01*
X301824326Y109547441D02*
X301809276Y109898889D01*
X301809276Y109898889D02*
X301790995Y110254016D01*
X301790995Y110254016D02*
X301769216Y110610808D01*
X301769216Y110610808D02*
X301743675Y110967250D01*
X301743675Y110967250D02*
X301714107Y111321327D01*
X301714107Y111321327D02*
X301680246Y111671026D01*
X301680246Y111671026D02*
X301641828Y112014332D01*
X301641828Y112014332D02*
X301598586Y112349231D01*
X301598586Y112349231D02*
X301550256Y112673708D01*
X301550256Y112673708D02*
X301496573Y112985748D01*
X301496573Y112985748D02*
X301437271Y113283338D01*
X301437271Y113283338D02*
X301372085Y113564462D01*
X301372085Y113564462D02*
X301300750Y113827108D01*
X301300750Y113827108D02*
X301223001Y114069259D01*
X301223001Y114069259D02*
X301138572Y114288902D01*
X301138572Y114288902D02*
X301047200Y114484023D01*
X25145635Y121558480D02*
X25145635Y121558480D01*
X152551015Y100595747D02*
X157750022Y100773127D01*
X42344217Y127212510D02*
X41728039Y127062800D01*
X41728039Y127062800D02*
X41115515Y126910311D01*
X41115515Y126910311D02*
X40506789Y126755146D01*
X40506789Y126755146D02*
X39902002Y126597409D01*
X39902002Y126597409D02*
X39301297Y126437204D01*
X39301297Y126437204D02*
X38704817Y126274635D01*
X38704817Y126274635D02*
X38112703Y126109807D01*
X38112703Y126109807D02*
X37525098Y125942822D01*
X37525098Y125942822D02*
X36942145Y125773784D01*
X36942145Y125773784D02*
X36363986Y125602799D01*
X36363986Y125602799D02*
X35790763Y125429969D01*
X35790763Y125429969D02*
X35222620Y125255398D01*
X35222620Y125255398D02*
X34659697Y125079191D01*
X34659697Y125079191D02*
X34102138Y124901451D01*
X34102138Y124901451D02*
X33550086Y124722282D01*
X33550086Y124722282D02*
X33003681Y124541788D01*
X33003681Y124541788D02*
X32463068Y124360073D01*
X32463068Y124360073D02*
X31928388Y124177241D01*
X31928388Y124177241D02*
X31399784Y123993395D01*
X31399784Y123993395D02*
X30877399Y123808641D01*
X30877399Y123808641D02*
X30361374Y123623081D01*
X30361374Y123623081D02*
X29851852Y123436819D01*
X29851852Y123436819D02*
X29348975Y123249960D01*
X29348975Y123249960D02*
X28852886Y123062607D01*
X28852886Y123062607D02*
X28363728Y122874865D01*
X28363728Y122874865D02*
X27881643Y122686836D01*
X27881643Y122686836D02*
X27406773Y122498625D01*
X27406773Y122498625D02*
X26939260Y122310337D01*
X26939260Y122310337D02*
X26479248Y122122074D01*
X26479248Y122122074D02*
X26026877Y121933941D01*
X26026877Y121933941D02*
X25582292Y121746041D01*
X25582292Y121746041D02*
X25145635Y121558480D01*
X67523097Y130035799D02*
X66918675Y130015601D01*
X66918675Y130015601D02*
X66274127Y129988365D01*
X66274127Y129988365D02*
X65592289Y129954357D01*
X65592289Y129954357D02*
X64875996Y129913841D01*
X64875996Y129913841D02*
X64128084Y129867081D01*
X64128084Y129867081D02*
X63351390Y129814344D01*
X63351390Y129814344D02*
X62548747Y129755893D01*
X62548747Y129755893D02*
X61722993Y129691993D01*
X61722993Y129691993D02*
X60876963Y129622910D01*
X60876963Y129622910D02*
X60013492Y129548908D01*
X60013492Y129548908D02*
X59135417Y129470252D01*
X59135417Y129470252D02*
X58245572Y129387207D01*
X58245572Y129387207D02*
X57346795Y129300038D01*
X57346795Y129300038D02*
X56441920Y129209010D01*
X56441920Y129209010D02*
X55533783Y129114387D01*
X55533783Y129114387D02*
X54625221Y129016435D01*
X54625221Y129016435D02*
X53719067Y128915418D01*
X53719067Y128915418D02*
X52818160Y128811601D01*
X52818160Y128811601D02*
X51925333Y128705250D01*
X51925333Y128705250D02*
X51043423Y128596628D01*
X51043423Y128596628D02*
X50175266Y128486001D01*
X50175266Y128486001D02*
X49323697Y128373633D01*
X49323697Y128373633D02*
X48491552Y128259790D01*
X48491552Y128259790D02*
X47681666Y128144737D01*
X47681666Y128144737D02*
X46896876Y128028737D01*
X46896876Y128028737D02*
X46140017Y127912057D01*
X46140017Y127912057D02*
X45413925Y127794961D01*
X45413925Y127794961D02*
X44721435Y127677713D01*
X44721435Y127677713D02*
X44065384Y127560580D01*
X44065384Y127560580D02*
X43448607Y127443825D01*
X43448607Y127443825D02*
X42873939Y127327713D01*
X42873939Y127327713D02*
X42344217Y127212510D01*
X99427266Y129887890D02*
X98403754Y129919701D01*
X98403754Y129919701D02*
X97385379Y129950105D01*
X97385379Y129950105D02*
X96371797Y129979067D01*
X96371797Y129979067D02*
X95362666Y130006553D01*
X95362666Y130006553D02*
X94357644Y130032527D01*
X94357644Y130032527D02*
X93356388Y130056955D01*
X93356388Y130056955D02*
X92358555Y130079803D01*
X92358555Y130079803D02*
X91363803Y130101035D01*
X91363803Y130101035D02*
X90371788Y130120617D01*
X90371788Y130120617D02*
X89382169Y130138514D01*
X89382169Y130138514D02*
X88394602Y130154691D01*
X88394602Y130154691D02*
X87408746Y130169115D01*
X87408746Y130169115D02*
X86424257Y130181750D01*
X86424257Y130181750D02*
X85440793Y130192561D01*
X85440793Y130192561D02*
X84458011Y130201514D01*
X84458011Y130201514D02*
X83475569Y130208574D01*
X83475569Y130208574D02*
X82493123Y130213706D01*
X82493123Y130213706D02*
X81510332Y130216876D01*
X81510332Y130216876D02*
X80526853Y130218050D01*
X80526853Y130218050D02*
X79542343Y130217191D01*
X79542343Y130217191D02*
X78556459Y130214267D01*
X78556459Y130214267D02*
X77568860Y130209241D01*
X77568860Y130209241D02*
X76579201Y130202080D01*
X76579201Y130202080D02*
X75587141Y130192748D01*
X75587141Y130192748D02*
X74592337Y130181211D01*
X74592337Y130181211D02*
X73594446Y130167435D01*
X73594446Y130167435D02*
X72593127Y130151384D01*
X72593127Y130151384D02*
X71588035Y130133024D01*
X71588035Y130133024D02*
X70578829Y130112320D01*
X70578829Y130112320D02*
X69565165Y130089237D01*
X69565165Y130089237D02*
X68546702Y130063742D01*
X68546702Y130063742D02*
X67523097Y130035799D01*
X135190568Y126394935D02*
X134111700Y126605107D01*
X134111700Y126605107D02*
X133036383Y126806648D01*
X133036383Y126806648D02*
X131964011Y126999769D01*
X131964011Y126999769D02*
X130893980Y127184681D01*
X130893980Y127184681D02*
X129825684Y127361597D01*
X129825684Y127361597D02*
X128758518Y127530726D01*
X128758518Y127530726D02*
X127691879Y127692281D01*
X127691879Y127692281D02*
X126625159Y127846473D01*
X126625159Y127846473D02*
X125557756Y127993513D01*
X125557756Y127993513D02*
X124489064Y128133613D01*
X124489064Y128133613D02*
X123418477Y128266985D01*
X123418477Y128266985D02*
X122345391Y128393839D01*
X122345391Y128393839D02*
X121269201Y128514388D01*
X121269201Y128514388D02*
X120189303Y128628842D01*
X120189303Y128628842D02*
X119105090Y128737413D01*
X119105090Y128737413D02*
X118015959Y128840312D01*
X118015959Y128840312D02*
X116921304Y128937752D01*
X116921304Y128937752D02*
X115820520Y129029942D01*
X115820520Y129029942D02*
X114713002Y129117095D01*
X114713002Y129117095D02*
X113598146Y129199423D01*
X113598146Y129199423D02*
X112475346Y129277136D01*
X112475346Y129277136D02*
X111343998Y129350445D01*
X111343998Y129350445D02*
X110203497Y129419564D01*
X110203497Y129419564D02*
X109053237Y129484702D01*
X109053237Y129484702D02*
X107892614Y129546071D01*
X107892614Y129546071D02*
X106721022Y129603883D01*
X106721022Y129603883D02*
X105537858Y129658349D01*
X105537858Y129658349D02*
X104342515Y129709680D01*
X104342515Y129709680D02*
X103134390Y129758089D01*
X103134390Y129758089D02*
X101912876Y129803785D01*
X101912876Y129803785D02*
X100677370Y129846982D01*
X100677370Y129846982D02*
X99427266Y129887890D01*
X153291337Y118742373D02*
X152785747Y119156398D01*
X152785747Y119156398D02*
X152277341Y119554941D01*
X152277341Y119554941D02*
X151766013Y119938420D01*
X151766013Y119938420D02*
X151251657Y120307255D01*
X151251657Y120307255D02*
X150734167Y120661868D01*
X150734167Y120661868D02*
X150213437Y121002677D01*
X150213437Y121002677D02*
X149689362Y121330103D01*
X149689362Y121330103D02*
X149161836Y121644566D01*
X149161836Y121644566D02*
X148630752Y121946487D01*
X148630752Y121946487D02*
X148096005Y122236284D01*
X148096005Y122236284D02*
X147557490Y122514378D01*
X147557490Y122514378D02*
X147015099Y122781190D01*
X147015099Y122781190D02*
X146468728Y123037139D01*
X146468728Y123037139D02*
X145918271Y123282645D01*
X145918271Y123282645D02*
X145363621Y123518129D01*
X145363621Y123518129D02*
X144804673Y123744010D01*
X144804673Y123744010D02*
X144241320Y123960708D01*
X144241320Y123960708D02*
X143673458Y124168644D01*
X143673458Y124168644D02*
X143100980Y124368238D01*
X143100980Y124368238D02*
X142523781Y124559910D01*
X142523781Y124559910D02*
X141941754Y124744079D01*
X141941754Y124744079D02*
X141354793Y124921166D01*
X141354793Y124921166D02*
X140762794Y125091592D01*
X140762794Y125091592D02*
X140165649Y125255775D01*
X140165649Y125255775D02*
X139563254Y125414136D01*
X139563254Y125414136D02*
X138955501Y125567095D01*
X138955501Y125567095D02*
X138342286Y125715073D01*
X138342286Y125715073D02*
X137723503Y125858488D01*
X137723503Y125858488D02*
X137099045Y125997762D01*
X137099045Y125997762D02*
X136468807Y126133315D01*
X136468807Y126133315D02*
X135832683Y126265565D01*
X135832683Y126265565D02*
X135190568Y126394935D01*
X158184329Y110821379D02*
X158110419Y111100704D01*
X158110419Y111100704D02*
X158035246Y111375892D01*
X158035246Y111375892D02*
X157958426Y111647152D01*
X157958426Y111647152D02*
X157879576Y111914691D01*
X157879576Y111914691D02*
X157798312Y112178718D01*
X157798312Y112178718D02*
X157714252Y112439443D01*
X157714252Y112439443D02*
X157627012Y112697073D01*
X157627012Y112697073D02*
X157536209Y112951818D01*
X157536209Y112951818D02*
X157441459Y113203885D01*
X157441459Y113203885D02*
X157342379Y113453484D01*
X157342379Y113453484D02*
X157238585Y113700823D01*
X157238585Y113700823D02*
X157129696Y113946111D01*
X157129696Y113946111D02*
X157015326Y114189556D01*
X157015326Y114189556D02*
X156895093Y114431367D01*
X156895093Y114431367D02*
X156768614Y114671752D01*
X156768614Y114671752D02*
X156635505Y114910921D01*
X156635505Y114910921D02*
X156495383Y115149082D01*
X156495383Y115149082D02*
X156347865Y115386443D01*
X156347865Y115386443D02*
X156192567Y115623213D01*
X156192567Y115623213D02*
X156029106Y115859601D01*
X156029106Y115859601D02*
X155857098Y116095815D01*
X155857098Y116095815D02*
X155676161Y116332065D01*
X155676161Y116332065D02*
X155485911Y116568557D01*
X155485911Y116568557D02*
X155285965Y116805502D01*
X155285965Y116805502D02*
X155075940Y117043108D01*
X155075940Y117043108D02*
X154855451Y117281583D01*
X154855451Y117281583D02*
X154624117Y117521136D01*
X154624117Y117521136D02*
X154381553Y117761975D01*
X154381553Y117761975D02*
X154127376Y118004310D01*
X154127376Y118004310D02*
X153861203Y118248349D01*
X153861203Y118248349D02*
X153582651Y118494300D01*
X153582651Y118494300D02*
X153291337Y118742373D01*
X157750022Y100773127D02*
X157803388Y101071822D01*
X157803388Y101071822D02*
X157862610Y101422420D01*
X157862610Y101422420D02*
X157898173Y101641389D01*
X157898173Y101641389D02*
X157936871Y101886942D01*
X157936871Y101886942D02*
X157978081Y102157181D01*
X157978081Y102157181D02*
X158021178Y102450208D01*
X158021178Y102450208D02*
X158065540Y102764126D01*
X158065540Y102764126D02*
X158110543Y103097037D01*
X158110543Y103097037D02*
X158155562Y103447043D01*
X158155562Y103447043D02*
X158199973Y103812246D01*
X158199973Y103812246D02*
X158243153Y104190750D01*
X158243153Y104190750D02*
X158284478Y104580656D01*
X158284478Y104580656D02*
X158323324Y104980066D01*
X158323324Y104980066D02*
X158359068Y105387084D01*
X158359068Y105387084D02*
X158391085Y105799811D01*
X158391085Y105799811D02*
X158418751Y106216349D01*
X158418751Y106216349D02*
X158441443Y106634802D01*
X158441443Y106634802D02*
X158458537Y107053271D01*
X158458537Y107053271D02*
X158469408Y107469859D01*
X158469408Y107469859D02*
X158473434Y107882668D01*
X158473434Y107882668D02*
X158469990Y108289800D01*
X158469990Y108289800D02*
X158458453Y108689358D01*
X158458453Y108689358D02*
X158438198Y109079444D01*
X158438198Y109079444D02*
X158408602Y109458161D01*
X158408602Y109458161D02*
X158369041Y109823610D01*
X158369041Y109823610D02*
X158318891Y110173895D01*
X158318891Y110173895D02*
X158257528Y110507117D01*
X158257528Y110507117D02*
X158184329Y110821379D01*
X27092574Y104170727D02*
X41051428Y106068340D01*
X25145635Y121558480D02*
X27092574Y104170727D01*
X150028860Y112024061D02*
X150181261Y111673204D01*
X150181261Y111673204D02*
X150329089Y111299950D01*
X150329089Y111299950D02*
X150472324Y110906496D01*
X150472324Y110906496D02*
X150610951Y110495044D01*
X150610951Y110495044D02*
X150744951Y110067792D01*
X150744951Y110067792D02*
X150874308Y109626938D01*
X150874308Y109626938D02*
X150999003Y109174683D01*
X150999003Y109174683D02*
X151119021Y108713226D01*
X151119021Y108713226D02*
X151234343Y108244767D01*
X151234343Y108244767D02*
X151344952Y107771503D01*
X151344952Y107771503D02*
X151450831Y107295635D01*
X151450831Y107295635D02*
X151551963Y106819362D01*
X151551963Y106819362D02*
X151648330Y106344884D01*
X151648330Y106344884D02*
X151739915Y105874398D01*
X151739915Y105874398D02*
X151826701Y105410106D01*
X151826701Y105410106D02*
X151908670Y104954206D01*
X151908670Y104954206D02*
X151985806Y104508897D01*
X151985806Y104508897D02*
X152058090Y104076379D01*
X152058090Y104076379D02*
X152125506Y103658850D01*
X152125506Y103658850D02*
X152188036Y103258511D01*
X152188036Y103258511D02*
X152245663Y102877561D01*
X152245663Y102877561D02*
X152298369Y102518198D01*
X152298369Y102518198D02*
X152346138Y102182623D01*
X152346138Y102182623D02*
X152388953Y101873034D01*
X152388953Y101873034D02*
X152426795Y101591631D01*
X152426795Y101591631D02*
X152459647Y101340612D01*
X152459647Y101340612D02*
X152487493Y101122178D01*
X152487493Y101122178D02*
X152528095Y100791860D01*
X152528095Y100791860D02*
X152551015Y100595747D01*
X147607147Y114571226D02*
X147760038Y114436822D01*
X147760038Y114436822D02*
X147920557Y114298564D01*
X147920557Y114298564D02*
X148087026Y114156568D01*
X148087026Y114156568D02*
X148257767Y114010953D01*
X148257767Y114010953D02*
X148431100Y113861835D01*
X148431100Y113861835D02*
X148605347Y113709333D01*
X148605347Y113709333D02*
X148778831Y113553564D01*
X148778831Y113553564D02*
X148949872Y113394646D01*
X148949872Y113394646D02*
X149116792Y113232697D01*
X149116792Y113232697D02*
X149277913Y113067834D01*
X149277913Y113067834D02*
X149431556Y112900175D01*
X149431556Y112900175D02*
X149576043Y112729838D01*
X149576043Y112729838D02*
X149709695Y112556940D01*
X149709695Y112556940D02*
X149830834Y112381600D01*
X149830834Y112381600D02*
X149937782Y112203934D01*
X149937782Y112203934D02*
X150028860Y112024061D01*
X138783257Y119638068D02*
X139110866Y119535741D01*
X139110866Y119535741D02*
X139432980Y119430630D01*
X139432980Y119430630D02*
X139749813Y119322651D01*
X139749813Y119322651D02*
X140061580Y119211723D01*
X140061580Y119211723D02*
X140368496Y119097761D01*
X140368496Y119097761D02*
X140670777Y118980684D01*
X140670777Y118980684D02*
X140968636Y118860407D01*
X140968636Y118860407D02*
X141262290Y118736849D01*
X141262290Y118736849D02*
X141551953Y118609926D01*
X141551953Y118609926D02*
X141837839Y118479554D01*
X141837839Y118479554D02*
X142120165Y118345653D01*
X142120165Y118345653D02*
X142399145Y118208137D01*
X142399145Y118208137D02*
X142674993Y118066925D01*
X142674993Y118066925D02*
X142947926Y117921933D01*
X142947926Y117921933D02*
X143218158Y117773079D01*
X143218158Y117773079D02*
X143485903Y117620280D01*
X143485903Y117620280D02*
X143751377Y117463452D01*
X143751377Y117463452D02*
X144014796Y117302512D01*
X144014796Y117302512D02*
X144276373Y117137379D01*
X144276373Y117137379D02*
X144536324Y116967968D01*
X144536324Y116967968D02*
X144794863Y116794197D01*
X144794863Y116794197D02*
X145052207Y116615983D01*
X145052207Y116615983D02*
X145308569Y116433243D01*
X145308569Y116433243D02*
X145564165Y116245894D01*
X145564165Y116245894D02*
X145819210Y116053853D01*
X145819210Y116053853D02*
X146073919Y115857037D01*
X146073919Y115857037D02*
X146328506Y115655364D01*
X146328506Y115655364D02*
X146583187Y115448749D01*
X146583187Y115448749D02*
X146838176Y115237111D01*
X146838176Y115237111D02*
X147093689Y115020367D01*
X147093689Y115020367D02*
X147349941Y114798432D01*
X147349941Y114798432D02*
X147607147Y114571226D01*
X109495137Y123229864D02*
X110203502Y123174410D01*
X110203502Y123174410D02*
X110953657Y123117130D01*
X110953657Y123117130D02*
X111742757Y123057838D01*
X111742757Y123057838D02*
X112567959Y122996351D01*
X112567959Y122996351D02*
X113426417Y122932486D01*
X113426417Y122932486D02*
X114315288Y122866059D01*
X114315288Y122866059D02*
X115231728Y122796886D01*
X115231728Y122796886D02*
X116172892Y122724784D01*
X116172892Y122724784D02*
X117135936Y122649569D01*
X117135936Y122649569D02*
X118118016Y122571058D01*
X118118016Y122571058D02*
X119116288Y122489066D01*
X119116288Y122489066D02*
X120127908Y122403410D01*
X120127908Y122403410D02*
X121150031Y122313907D01*
X121150031Y122313907D02*
X122179813Y122220373D01*
X122179813Y122220373D02*
X123214410Y122122623D01*
X123214410Y122122623D02*
X124250979Y122020476D01*
X124250979Y122020476D02*
X125286674Y121913746D01*
X125286674Y121913746D02*
X126318651Y121802250D01*
X126318651Y121802250D02*
X127344067Y121685805D01*
X127344067Y121685805D02*
X128360077Y121564227D01*
X128360077Y121564227D02*
X129363837Y121437332D01*
X129363837Y121437332D02*
X130352503Y121304937D01*
X130352503Y121304937D02*
X131323230Y121166858D01*
X131323230Y121166858D02*
X132273175Y121022912D01*
X132273175Y121022912D02*
X133199493Y120872914D01*
X133199493Y120872914D02*
X134099339Y120716681D01*
X134099339Y120716681D02*
X134969871Y120554030D01*
X134969871Y120554030D02*
X135808244Y120384776D01*
X135808244Y120384776D02*
X136611613Y120208737D01*
X136611613Y120208737D02*
X137377134Y120025728D01*
X137377134Y120025728D02*
X138101963Y119835566D01*
X138101963Y119835566D02*
X138783257Y119638068D01*
X78399263Y123831346D02*
X79590199Y123884683D01*
X79590199Y123884683D02*
X80741358Y123933351D01*
X80741358Y123933351D02*
X81855304Y123977352D01*
X81855304Y123977352D02*
X82934601Y124016687D01*
X82934601Y124016687D02*
X83981811Y124051357D01*
X83981811Y124051357D02*
X84999498Y124081365D01*
X84999498Y124081365D02*
X85990226Y124106711D01*
X85990226Y124106711D02*
X86956558Y124127397D01*
X86956558Y124127397D02*
X87901059Y124143425D01*
X87901059Y124143425D02*
X88826291Y124154795D01*
X88826291Y124154795D02*
X89734818Y124161511D01*
X89734818Y124161511D02*
X90629204Y124163573D01*
X90629204Y124163573D02*
X91512012Y124160982D01*
X91512012Y124160982D02*
X92385806Y124153741D01*
X92385806Y124153741D02*
X93253149Y124141851D01*
X93253149Y124141851D02*
X94116605Y124125313D01*
X94116605Y124125313D02*
X94978738Y124104129D01*
X94978738Y124104129D02*
X95842111Y124078300D01*
X95842111Y124078300D02*
X96709287Y124047828D01*
X96709287Y124047828D02*
X97582831Y124012714D01*
X97582831Y124012714D02*
X98465306Y123972961D01*
X98465306Y123972961D02*
X99359274Y123928569D01*
X99359274Y123928569D02*
X100267301Y123879539D01*
X100267301Y123879539D02*
X101191949Y123825875D01*
X101191949Y123825875D02*
X102135783Y123767576D01*
X102135783Y123767576D02*
X103101365Y123704645D01*
X103101365Y123704645D02*
X104091259Y123637083D01*
X104091259Y123637083D02*
X105108028Y123564892D01*
X105108028Y123564892D02*
X106154238Y123488073D01*
X106154238Y123488073D02*
X107232450Y123406627D01*
X107232450Y123406627D02*
X108345228Y123320557D01*
X108345228Y123320557D02*
X109495137Y123229864D01*
X47466013Y119982094D02*
X48334850Y120330844D01*
X48334850Y120330844D02*
X49224991Y120654722D01*
X49224991Y120654722D02*
X50134935Y120954743D01*
X50134935Y120954743D02*
X51063183Y121231918D01*
X51063183Y121231918D02*
X52008237Y121487261D01*
X52008237Y121487261D02*
X52968597Y121721785D01*
X52968597Y121721785D02*
X53942765Y121936504D01*
X53942765Y121936504D02*
X54929240Y122132430D01*
X54929240Y122132430D02*
X55926524Y122310577D01*
X55926524Y122310577D02*
X56933118Y122471959D01*
X56933118Y122471959D02*
X57947522Y122617587D01*
X57947522Y122617587D02*
X58968238Y122748477D01*
X58968238Y122748477D02*
X59993766Y122865640D01*
X59993766Y122865640D02*
X61022607Y122970090D01*
X61022607Y122970090D02*
X62053262Y123062840D01*
X62053262Y123062840D02*
X63084232Y123144904D01*
X63084232Y123144904D02*
X64114017Y123217294D01*
X64114017Y123217294D02*
X65141119Y123281025D01*
X65141119Y123281025D02*
X66164038Y123337108D01*
X66164038Y123337108D02*
X67181276Y123386558D01*
X67181276Y123386558D02*
X68191333Y123430388D01*
X68191333Y123430388D02*
X69192709Y123469610D01*
X69192709Y123469610D02*
X70183907Y123505238D01*
X70183907Y123505238D02*
X71163426Y123538286D01*
X71163426Y123538286D02*
X72129768Y123569766D01*
X72129768Y123569766D02*
X73081433Y123600691D01*
X73081433Y123600691D02*
X74016922Y123632076D01*
X74016922Y123632076D02*
X74934737Y123664933D01*
X74934737Y123664933D02*
X75833377Y123700275D01*
X75833377Y123700275D02*
X76711344Y123739115D01*
X76711344Y123739115D02*
X77567139Y123782468D01*
X77567139Y123782468D02*
X78399263Y123831346D01*
X41846211Y114484010D02*
X41981925Y114740436D01*
X41981925Y114740436D02*
X42118538Y114990280D01*
X42118538Y114990280D02*
X42256218Y115233654D01*
X42256218Y115233654D02*
X42395132Y115470669D01*
X42395132Y115470669D02*
X42535447Y115701438D01*
X42535447Y115701438D02*
X42677332Y115926075D01*
X42677332Y115926075D02*
X42820954Y116144690D01*
X42820954Y116144690D02*
X42966480Y116357397D01*
X42966480Y116357397D02*
X43114077Y116564308D01*
X43114077Y116564308D02*
X43263915Y116765535D01*
X43263915Y116765535D02*
X43416159Y116961191D01*
X43416159Y116961191D02*
X43570978Y117151388D01*
X43570978Y117151388D02*
X43728538Y117336238D01*
X43728538Y117336238D02*
X43889009Y117515855D01*
X43889009Y117515855D02*
X44052556Y117690350D01*
X44052556Y117690350D02*
X44219348Y117859836D01*
X44219348Y117859836D02*
X44389553Y118024425D01*
X44389553Y118024425D02*
X44563337Y118184230D01*
X44563337Y118184230D02*
X44740868Y118339363D01*
X44740868Y118339363D02*
X44922314Y118489936D01*
X44922314Y118489936D02*
X45107843Y118636062D01*
X45107843Y118636062D02*
X45297621Y118777854D01*
X45297621Y118777854D02*
X45491817Y118915423D01*
X45491817Y118915423D02*
X45690598Y119048883D01*
X45690598Y119048883D02*
X45894132Y119178345D01*
X45894132Y119178345D02*
X46102586Y119303922D01*
X46102586Y119303922D02*
X46316127Y119425726D01*
X46316127Y119425726D02*
X46534924Y119543870D01*
X46534924Y119543870D02*
X46759143Y119658467D01*
X46759143Y119658467D02*
X46988952Y119769628D01*
X46988952Y119769628D02*
X47224520Y119877466D01*
X47224520Y119877466D02*
X47466013Y119982094D01*
X41051428Y106068340D02*
X41044045Y106350243D01*
X41044045Y106350243D02*
X41037999Y106678449D01*
X41037999Y106678449D02*
X41035315Y106882316D01*
X41035315Y106882316D02*
X41033212Y107110005D01*
X41033212Y107110005D02*
X41031953Y107359504D01*
X41031953Y107359504D02*
X41031805Y107628796D01*
X41031805Y107628796D02*
X41033033Y107915868D01*
X41033033Y107915868D02*
X41035901Y108218705D01*
X41035901Y108218705D02*
X41040675Y108535294D01*
X41040675Y108535294D02*
X41047620Y108863619D01*
X41047620Y108863619D02*
X41057001Y109201666D01*
X41057001Y109201666D02*
X41069084Y109547421D01*
X41069084Y109547421D02*
X41084134Y109898870D01*
X41084134Y109898870D02*
X41102415Y110253997D01*
X41102415Y110253997D02*
X41124194Y110610789D01*
X41124194Y110610789D02*
X41149735Y110967231D01*
X41149735Y110967231D02*
X41179303Y111321309D01*
X41179303Y111321309D02*
X41213164Y111671008D01*
X41213164Y111671008D02*
X41251582Y112014315D01*
X41251582Y112014315D02*
X41294824Y112349214D01*
X41294824Y112349214D02*
X41343154Y112673691D01*
X41343154Y112673691D02*
X41396837Y112985732D01*
X41396837Y112985732D02*
X41456139Y113283322D01*
X41456139Y113283322D02*
X41521325Y113564447D01*
X41521325Y113564447D02*
X41592660Y113827093D01*
X41592660Y113827093D02*
X41670409Y114069245D01*
X41670409Y114069245D02*
X41754838Y114288888D01*
X41754838Y114288888D02*
X41846211Y114484010D01*
M02*
