%TF.GenerationSoftware,KiCad,Pcbnew,(5.1.7)-1*%
%TF.CreationDate,2021-02-21T21:24:22+01:00*%
%TF.ProjectId,kbic65-bottom,6b626963-3635-42d6-926f-74746f6d2e6b,rev?*%
%TF.SameCoordinates,Original*%
%TF.FileFunction,Legend,Top*%
%TF.FilePolarity,Positive*%
%FSLAX46Y46*%
G04 Gerber Fmt 4.6, Leading zero omitted, Abs format (unit mm)*
G04 Created by KiCad (PCBNEW (5.1.7)-1) date 2021-02-21 21:24:22*
%MOMM*%
%LPD*%
G01*
G04 APERTURE LIST*
%ADD10C,0.150000*%
G04 APERTURE END LIST*
D10*
X36354166Y28328869D02*
X36354166Y27614583D01*
X36306547Y27471726D01*
X36211309Y27376488D01*
X36068452Y27328869D01*
X35973214Y27328869D01*
X37306547Y27328869D02*
X36830357Y27328869D01*
X36830357Y28328869D01*
X38211309Y27424107D02*
X38163690Y27376488D01*
X38020833Y27328869D01*
X37925595Y27328869D01*
X37782738Y27376488D01*
X37687500Y27471726D01*
X37639880Y27566964D01*
X37592261Y27757440D01*
X37592261Y27900297D01*
X37639880Y28090773D01*
X37687500Y28186011D01*
X37782738Y28281250D01*
X37925595Y28328869D01*
X38020833Y28328869D01*
X38163690Y28281250D01*
X38211309Y28233630D01*
X38925595Y28328869D02*
X38925595Y27614583D01*
X38877976Y27471726D01*
X38782738Y27376488D01*
X38639880Y27328869D01*
X38544642Y27328869D01*
X39877976Y27328869D02*
X39401785Y27328869D01*
X39401785Y28328869D01*
X40782738Y27424107D02*
X40735119Y27376488D01*
X40592261Y27328869D01*
X40497023Y27328869D01*
X40354166Y27376488D01*
X40258928Y27471726D01*
X40211309Y27566964D01*
X40163690Y27757440D01*
X40163690Y27900297D01*
X40211309Y28090773D01*
X40258928Y28186011D01*
X40354166Y28281250D01*
X40497023Y28328869D01*
X40592261Y28328869D01*
X40735119Y28281250D01*
X40782738Y28233630D01*
X41497023Y28328869D02*
X41497023Y27614583D01*
X41449404Y27471726D01*
X41354166Y27376488D01*
X41211309Y27328869D01*
X41116071Y27328869D01*
X42449404Y27328869D02*
X41973214Y27328869D01*
X41973214Y28328869D01*
X43354166Y27424107D02*
X43306547Y27376488D01*
X43163690Y27328869D01*
X43068452Y27328869D01*
X42925595Y27376488D01*
X42830357Y27471726D01*
X42782738Y27566964D01*
X42735119Y27757440D01*
X42735119Y27900297D01*
X42782738Y28090773D01*
X42830357Y28186011D01*
X42925595Y28281250D01*
X43068452Y28328869D01*
X43163690Y28328869D01*
X43306547Y28281250D01*
X43354166Y28233630D01*
M02*
