%TF.GenerationSoftware,KiCad,Pcbnew,(5.1.7)-1*%
%TF.CreationDate,2021-03-23T21:38:01+01:00*%
%TF.ProjectId,kbic65-bottom,6b626963-3635-42d6-926f-74746f6d2e6b,rev?*%
%TF.SameCoordinates,Original*%
%TF.FileFunction,Profile,NP*%
%FSLAX46Y46*%
G04 Gerber Fmt 4.6, Leading zero omitted, Abs format (unit mm)*
G04 Created by KiCad (PCBNEW (5.1.7)-1) date 2021-03-23 21:38:01*
%MOMM*%
%LPD*%
G01*
G04 APERTURE LIST*
%TA.AperFunction,Profile*%
%ADD10C,0.200000*%
%TD*%
G04 APERTURE END LIST*
D10*
X324643750Y150812494D02*
X18256250Y150812494D01*
X328612500Y15874995D02*
X328612500Y146843744D01*
X328612500Y146843744D02*
X328607335Y147047975D01*
X328607335Y147047975D02*
X328592009Y147249525D01*
X328592009Y147249525D02*
X328566771Y147448145D01*
X328566771Y147448145D02*
X328487553Y147835596D01*
X328487553Y147835596D02*
X328371678Y148208332D01*
X328371678Y148208332D02*
X328221139Y148564360D01*
X328221139Y148564360D02*
X328037932Y148901684D01*
X328037932Y148901684D02*
X327824052Y149218309D01*
X327824052Y149218309D02*
X327581493Y149512241D01*
X327581493Y149512241D02*
X327312251Y149781484D01*
X327312251Y149781484D02*
X327018319Y150024043D01*
X327018319Y150024043D02*
X326701694Y150237924D01*
X326701694Y150237924D02*
X326364370Y150421131D01*
X326364370Y150421131D02*
X326008342Y150571671D01*
X326008342Y150571671D02*
X325635605Y150687547D01*
X325635605Y150687547D02*
X325248153Y150766765D01*
X325248153Y150766765D02*
X325049532Y150792003D01*
X325049532Y150792003D02*
X324847982Y150807329D01*
X324847982Y150807329D02*
X324643750Y150812494D01*
X18256250Y11906245D02*
X324643750Y11906245D01*
X324643750Y11906245D02*
X324847982Y11911409D01*
X324847982Y11911409D02*
X325049532Y11926735D01*
X325049532Y11926735D02*
X325248153Y11951973D01*
X325248153Y11951973D02*
X325635605Y12031191D01*
X325635605Y12031191D02*
X326008342Y12147067D01*
X326008342Y12147067D02*
X326364370Y12297606D01*
X326364370Y12297606D02*
X326701694Y12480814D01*
X326701694Y12480814D02*
X327018319Y12694695D01*
X327018319Y12694695D02*
X327312251Y12937254D01*
X327312251Y12937254D02*
X327581493Y13206497D01*
X327581493Y13206497D02*
X327824052Y13500428D01*
X327824052Y13500428D02*
X328037932Y13817053D01*
X328037932Y13817053D02*
X328221139Y14154377D01*
X328221139Y14154377D02*
X328371678Y14510405D01*
X328371678Y14510405D02*
X328487553Y14883142D01*
X328487553Y14883142D02*
X328566771Y15270593D01*
X328566771Y15270593D02*
X328592009Y15469213D01*
X328592009Y15469213D02*
X328607335Y15670763D01*
X328607335Y15670763D02*
X328612500Y15874995D01*
X14287500Y146843744D02*
X14287500Y15874995D01*
X14287500Y15874995D02*
X14292664Y15670763D01*
X14292664Y15670763D02*
X14307990Y15469213D01*
X14307990Y15469213D02*
X14333228Y15270593D01*
X14333228Y15270593D02*
X14412446Y14883142D01*
X14412446Y14883142D02*
X14528321Y14510405D01*
X14528321Y14510405D02*
X14678860Y14154377D01*
X14678860Y14154377D02*
X14862067Y13817053D01*
X14862067Y13817053D02*
X15075947Y13500428D01*
X15075947Y13500428D02*
X15318506Y13206497D01*
X15318506Y13206497D02*
X15587748Y12937254D01*
X15587748Y12937254D02*
X15881680Y12694695D01*
X15881680Y12694695D02*
X16198305Y12480814D01*
X16198305Y12480814D02*
X16535629Y12297606D01*
X16535629Y12297606D02*
X16891657Y12147067D01*
X16891657Y12147067D02*
X17264394Y12031191D01*
X17264394Y12031191D02*
X17651846Y11951973D01*
X17651846Y11951973D02*
X17850467Y11926735D01*
X17850467Y11926735D02*
X18052017Y11911409D01*
X18052017Y11911409D02*
X18256250Y11906245D01*
X18256250Y150812494D02*
X18052017Y150807329D01*
X18052017Y150807329D02*
X17850467Y150792003D01*
X17850467Y150792003D02*
X17651846Y150766765D01*
X17651846Y150766765D02*
X17264394Y150687547D01*
X17264394Y150687547D02*
X16891657Y150571671D01*
X16891657Y150571671D02*
X16535629Y150421131D01*
X16535629Y150421131D02*
X16198305Y150237924D01*
X16198305Y150237924D02*
X15881680Y150024043D01*
X15881680Y150024043D02*
X15587748Y149781484D01*
X15587748Y149781484D02*
X15318506Y149512241D01*
X15318506Y149512241D02*
X15075947Y149218309D01*
X15075947Y149218309D02*
X14862067Y148901684D01*
X14862067Y148901684D02*
X14678860Y148564360D01*
X14678860Y148564360D02*
X14528321Y148208332D01*
X14528321Y148208332D02*
X14412446Y147835596D01*
X14412446Y147835596D02*
X14333228Y147448145D01*
X14333228Y147448145D02*
X14307990Y147249525D01*
X14307990Y147249525D02*
X14292664Y147047975D01*
X14292664Y147047975D02*
X14287500Y146843744D01*
M02*
