%TF.GenerationSoftware,KiCad,Pcbnew,(5.1.7)-1*%
%TF.CreationDate,2021-03-23T21:38:01+01:00*%
%TF.ProjectId,kbic65-bottom,6b626963-3635-42d6-926f-74746f6d2e6b,rev?*%
%TF.SameCoordinates,Original*%
%TF.FileFunction,Copper,L2,Bot*%
%TF.FilePolarity,Positive*%
%FSLAX46Y46*%
G04 Gerber Fmt 4.6, Leading zero omitted, Abs format (unit mm)*
G04 Created by KiCad (PCBNEW (5.1.7)-1) date 2021-03-23 21:38:01*
%MOMM*%
%LPD*%
G01*
G04 APERTURE LIST*
%TA.AperFunction,NonConductor*%
%ADD10C,0.400000*%
%TD*%
%TA.AperFunction,NonConductor*%
%ADD11C,0.100000*%
%TD*%
%TA.AperFunction,NonConductor*%
%ADD12C,3.000000*%
%TD*%
%TA.AperFunction,ComponentPad*%
%ADD13C,4.400000*%
%TD*%
G04 APERTURE END LIST*
D10*
X33210119Y25971726D02*
X33210119Y29971726D01*
X30924404Y25971726D02*
X32638690Y28257440D01*
X30924404Y29971726D02*
X33210119Y27686011D01*
X27876785Y28066964D02*
X27305357Y27876488D01*
X27114880Y27686011D01*
X26924404Y27305059D01*
X26924404Y26733630D01*
X27114880Y26352678D01*
X27305357Y26162202D01*
X27686309Y25971726D01*
X29210119Y25971726D01*
X29210119Y29971726D01*
X27876785Y29971726D01*
X27495833Y29781250D01*
X27305357Y29590773D01*
X27114880Y29209821D01*
X27114880Y28828869D01*
X27305357Y28447916D01*
X27495833Y28257440D01*
X27876785Y28066964D01*
X29210119Y28066964D01*
D11*
G36*
X274300000Y130100000D02*
G01*
X279400000Y129800000D01*
X282200000Y129600000D01*
X287200000Y129100000D01*
X290900000Y128700000D01*
X295600000Y128100000D01*
X299700000Y127400000D01*
X303400000Y126500000D01*
X306600000Y125600000D01*
X310900000Y124200000D01*
X316200000Y122200000D01*
X317747775Y121558501D01*
X315800836Y104170748D01*
X301841983Y106068361D01*
X301800000Y110400000D01*
X301600000Y112400000D01*
X301300000Y113900000D01*
X301000000Y114600000D01*
X300200000Y116000000D01*
X299400000Y117100000D01*
X298400000Y118100000D01*
X297700000Y118700000D01*
X296600000Y119400000D01*
X295900000Y119800000D01*
X294600000Y120300000D01*
X293200000Y120800000D01*
X291300000Y121400000D01*
X289200000Y121900000D01*
X287100000Y122300000D01*
X284300000Y122700000D01*
X281500000Y123000000D01*
X277800000Y123300000D01*
X274800000Y123400000D01*
X272200000Y123500000D01*
X269700000Y123600000D01*
X262100000Y123900000D01*
X258400000Y124100000D01*
X255300000Y124100000D01*
X250700000Y124200000D01*
X248100000Y124100000D01*
X243800000Y123900000D01*
X241700000Y123800000D01*
X236600000Y123500000D01*
X231000000Y123000000D01*
X226700000Y122700000D01*
X220200000Y122200000D01*
X215700000Y121700000D01*
X211100000Y121100000D01*
X207100000Y120400000D01*
X204600000Y119800000D01*
X202700000Y119200000D01*
X200900000Y118400000D01*
X199200000Y117500000D01*
X197800000Y116600000D01*
X196500000Y115600000D01*
X195200000Y114500000D01*
X193800000Y113300000D01*
X193200000Y112600000D01*
X192864551Y112024081D01*
X192400000Y110900000D01*
X192200000Y110200000D01*
X191900000Y109200000D01*
X191600000Y107900000D01*
X191200000Y106100000D01*
X190800000Y104000000D01*
X190500000Y102000000D01*
X190342395Y100595767D01*
X185143389Y100773148D01*
X184700000Y103500000D01*
X184400000Y107200000D01*
X184500000Y109800000D01*
X184709081Y110821399D01*
X185100000Y112200000D01*
X185500000Y113300000D01*
X186000000Y114400000D01*
X186600000Y115400000D01*
X187100000Y116200000D01*
X188200000Y117400000D01*
X189100000Y118300000D01*
X190000000Y119100000D01*
X191500000Y120200000D01*
X193000000Y121200000D01*
X195600000Y122600000D01*
X197800000Y123600000D01*
X200900000Y124700000D01*
X202300000Y125100000D01*
X204600000Y125700000D01*
X208300000Y126500000D01*
X211400000Y127100000D01*
X215900000Y127800000D01*
X219900000Y128400000D01*
X224000000Y128800000D01*
X228000000Y129100000D01*
X236300000Y129600000D01*
X244800000Y129900000D01*
X252900000Y130100000D01*
X257500000Y130200000D01*
X268300000Y130200000D01*
X274300000Y130100000D01*
G37*
X274300000Y130100000D02*
X279400000Y129800000D01*
X282200000Y129600000D01*
X287200000Y129100000D01*
X290900000Y128700000D01*
X295600000Y128100000D01*
X299700000Y127400000D01*
X303400000Y126500000D01*
X306600000Y125600000D01*
X310900000Y124200000D01*
X316200000Y122200000D01*
X317747775Y121558501D01*
X315800836Y104170748D01*
X301841983Y106068361D01*
X301800000Y110400000D01*
X301600000Y112400000D01*
X301300000Y113900000D01*
X301000000Y114600000D01*
X300200000Y116000000D01*
X299400000Y117100000D01*
X298400000Y118100000D01*
X297700000Y118700000D01*
X296600000Y119400000D01*
X295900000Y119800000D01*
X294600000Y120300000D01*
X293200000Y120800000D01*
X291300000Y121400000D01*
X289200000Y121900000D01*
X287100000Y122300000D01*
X284300000Y122700000D01*
X281500000Y123000000D01*
X277800000Y123300000D01*
X274800000Y123400000D01*
X272200000Y123500000D01*
X269700000Y123600000D01*
X262100000Y123900000D01*
X258400000Y124100000D01*
X255300000Y124100000D01*
X250700000Y124200000D01*
X248100000Y124100000D01*
X243800000Y123900000D01*
X241700000Y123800000D01*
X236600000Y123500000D01*
X231000000Y123000000D01*
X226700000Y122700000D01*
X220200000Y122200000D01*
X215700000Y121700000D01*
X211100000Y121100000D01*
X207100000Y120400000D01*
X204600000Y119800000D01*
X202700000Y119200000D01*
X200900000Y118400000D01*
X199200000Y117500000D01*
X197800000Y116600000D01*
X196500000Y115600000D01*
X195200000Y114500000D01*
X193800000Y113300000D01*
X193200000Y112600000D01*
X192864551Y112024081D01*
X192400000Y110900000D01*
X192200000Y110200000D01*
X191900000Y109200000D01*
X191600000Y107900000D01*
X191200000Y106100000D01*
X190800000Y104000000D01*
X190500000Y102000000D01*
X190342395Y100595767D01*
X185143389Y100773148D01*
X184700000Y103500000D01*
X184400000Y107200000D01*
X184500000Y109800000D01*
X184709081Y110821399D01*
X185100000Y112200000D01*
X185500000Y113300000D01*
X186000000Y114400000D01*
X186600000Y115400000D01*
X187100000Y116200000D01*
X188200000Y117400000D01*
X189100000Y118300000D01*
X190000000Y119100000D01*
X191500000Y120200000D01*
X193000000Y121200000D01*
X195600000Y122600000D01*
X197800000Y123600000D01*
X200900000Y124700000D01*
X202300000Y125100000D01*
X204600000Y125700000D01*
X208300000Y126500000D01*
X211400000Y127100000D01*
X215900000Y127800000D01*
X219900000Y128400000D01*
X224000000Y128800000D01*
X228000000Y129100000D01*
X236300000Y129600000D01*
X244800000Y129900000D01*
X252900000Y130100000D01*
X257500000Y130200000D01*
X268300000Y130200000D01*
X274300000Y130100000D01*
G36*
X178000000Y105200000D02*
G01*
X183100000Y104800000D01*
X191959812Y103901579D01*
X191275261Y99873982D01*
X187500000Y100400000D01*
X181300000Y101200000D01*
X176000000Y101700000D01*
X173700000Y101800000D01*
X171544045Y101859569D01*
X168000000Y101700000D01*
X164100000Y101400000D01*
X161100000Y101100000D01*
X155500000Y100400000D01*
X151715352Y99873982D01*
X151030800Y103901579D01*
X159500000Y104700000D01*
X163300000Y105000000D01*
X167600000Y105300000D01*
X170600000Y105400000D01*
X173500000Y105400000D01*
X178000000Y105200000D01*
G37*
X178000000Y105200000D02*
X183100000Y104800000D01*
X191959812Y103901579D01*
X191275261Y99873982D01*
X187500000Y100400000D01*
X181300000Y101200000D01*
X176000000Y101700000D01*
X173700000Y101800000D01*
X171544045Y101859569D01*
X168000000Y101700000D01*
X164100000Y101400000D01*
X161100000Y101100000D01*
X155500000Y100400000D01*
X151715352Y99873982D01*
X151030800Y103901579D01*
X159500000Y104700000D01*
X163300000Y105000000D01*
X167600000Y105300000D01*
X170600000Y105400000D01*
X173500000Y105400000D01*
X178000000Y105200000D01*
G36*
X89993410Y130099979D02*
G01*
X98093410Y129899979D01*
X106593410Y129599979D01*
X114893410Y129099979D01*
X118893410Y128799979D01*
X122993410Y128399979D01*
X126993410Y127799979D01*
X131493410Y127099979D01*
X134593410Y126499979D01*
X138293410Y125699979D01*
X140593410Y125099979D01*
X141993410Y124699979D01*
X145093410Y123599979D01*
X147293410Y122599979D01*
X149893410Y121199979D01*
X151393410Y120199979D01*
X152893410Y119099979D01*
X153793410Y118299979D01*
X154693410Y117399979D01*
X155793410Y116199979D01*
X156293410Y115399979D01*
X156893410Y114399979D01*
X157393410Y113299979D01*
X157793410Y112199979D01*
X158184329Y110821378D01*
X158393410Y109799979D01*
X158493410Y107199979D01*
X158193410Y103499979D01*
X157750021Y100773127D01*
X152551015Y100595746D01*
X152393410Y101999979D01*
X152093410Y103999979D01*
X151693410Y106099979D01*
X151293410Y107899979D01*
X150993410Y109199979D01*
X150693410Y110199979D01*
X150493410Y110899979D01*
X150028859Y112024060D01*
X149693410Y112599979D01*
X149093410Y113299979D01*
X147693410Y114499979D01*
X146393410Y115599979D01*
X145093410Y116599979D01*
X143693410Y117499979D01*
X141993410Y118399979D01*
X140193410Y119199979D01*
X138293410Y119799979D01*
X135793410Y120399979D01*
X131793410Y121099979D01*
X127193410Y121699979D01*
X122693410Y122199979D01*
X116193410Y122699979D01*
X111893410Y122999979D01*
X106293410Y123499979D01*
X101193410Y123799979D01*
X99093410Y123899979D01*
X94793410Y124099979D01*
X92193410Y124199979D01*
X87593410Y124099979D01*
X84493410Y124099979D01*
X80793410Y123899979D01*
X73193410Y123599979D01*
X70693410Y123499979D01*
X68093410Y123399979D01*
X65093410Y123299979D01*
X61393410Y122999979D01*
X58593410Y122699979D01*
X55793410Y122299979D01*
X53693410Y121899979D01*
X51593410Y121399979D01*
X49693410Y120799979D01*
X48293410Y120299979D01*
X46993410Y119799979D01*
X46293410Y119399979D01*
X45193410Y118699979D01*
X44493410Y118099979D01*
X43493410Y117099979D01*
X42693410Y115999979D01*
X41893410Y114599979D01*
X41593410Y113899979D01*
X41293410Y112399979D01*
X41093410Y110399979D01*
X41051427Y106068340D01*
X27092574Y104170727D01*
X25145635Y121558480D01*
X26693410Y122199979D01*
X31993410Y124199979D01*
X36293410Y125599979D01*
X39493410Y126499979D01*
X43193410Y127399979D01*
X47293410Y128099979D01*
X51993410Y128699979D01*
X55693410Y129099979D01*
X60693410Y129599979D01*
X63493410Y129799979D01*
X68593410Y130099979D01*
X74593410Y130199979D01*
X85393410Y130199979D01*
X89993410Y130099979D01*
G37*
X89993410Y130099979D02*
X98093410Y129899979D01*
X106593410Y129599979D01*
X114893410Y129099979D01*
X118893410Y128799979D01*
X122993410Y128399979D01*
X126993410Y127799979D01*
X131493410Y127099979D01*
X134593410Y126499979D01*
X138293410Y125699979D01*
X140593410Y125099979D01*
X141993410Y124699979D01*
X145093410Y123599979D01*
X147293410Y122599979D01*
X149893410Y121199979D01*
X151393410Y120199979D01*
X152893410Y119099979D01*
X153793410Y118299979D01*
X154693410Y117399979D01*
X155793410Y116199979D01*
X156293410Y115399979D01*
X156893410Y114399979D01*
X157393410Y113299979D01*
X157793410Y112199979D01*
X158184329Y110821378D01*
X158393410Y109799979D01*
X158493410Y107199979D01*
X158193410Y103499979D01*
X157750021Y100773127D01*
X152551015Y100595746D01*
X152393410Y101999979D01*
X152093410Y103999979D01*
X151693410Y106099979D01*
X151293410Y107899979D01*
X150993410Y109199979D01*
X150693410Y110199979D01*
X150493410Y110899979D01*
X150028859Y112024060D01*
X149693410Y112599979D01*
X149093410Y113299979D01*
X147693410Y114499979D01*
X146393410Y115599979D01*
X145093410Y116599979D01*
X143693410Y117499979D01*
X141993410Y118399979D01*
X140193410Y119199979D01*
X138293410Y119799979D01*
X135793410Y120399979D01*
X131793410Y121099979D01*
X127193410Y121699979D01*
X122693410Y122199979D01*
X116193410Y122699979D01*
X111893410Y122999979D01*
X106293410Y123499979D01*
X101193410Y123799979D01*
X99093410Y123899979D01*
X94793410Y124099979D01*
X92193410Y124199979D01*
X87593410Y124099979D01*
X84493410Y124099979D01*
X80793410Y123899979D01*
X73193410Y123599979D01*
X70693410Y123499979D01*
X68093410Y123399979D01*
X65093410Y123299979D01*
X61393410Y122999979D01*
X58593410Y122699979D01*
X55793410Y122299979D01*
X53693410Y121899979D01*
X51593410Y121399979D01*
X49693410Y120799979D01*
X48293410Y120299979D01*
X46993410Y119799979D01*
X46293410Y119399979D01*
X45193410Y118699979D01*
X44493410Y118099979D01*
X43493410Y117099979D01*
X42693410Y115999979D01*
X41893410Y114599979D01*
X41593410Y113899979D01*
X41293410Y112399979D01*
X41093410Y110399979D01*
X41051427Y106068340D01*
X27092574Y104170727D01*
X25145635Y121558480D01*
X26693410Y122199979D01*
X31993410Y124199979D01*
X36293410Y125599979D01*
X39493410Y126499979D01*
X43193410Y127399979D01*
X47293410Y128099979D01*
X51993410Y128699979D01*
X55693410Y129099979D01*
X60693410Y129599979D01*
X63493410Y129799979D01*
X68593410Y130099979D01*
X74593410Y130199979D01*
X85393410Y130199979D01*
X89993410Y130099979D01*
D12*
X191275261Y99873982D02*
X191959812Y103901579D01*
X171214454Y105431822D02*
X167553677Y105297731D01*
X167553677Y105297731D02*
X164271014Y105092774D01*
X164271014Y105092774D02*
X160919464Y104835996D01*
X160919464Y104835996D02*
X157725930Y104559713D01*
X157725930Y104559713D02*
X154301901Y104236161D01*
X154301901Y104236161D02*
X151180619Y103917655D01*
X151180619Y103917655D02*
X151030869Y103901579D01*
X191959812Y103901579D02*
X188544669Y104279293D01*
X188544669Y104279293D02*
X184986142Y104634704D01*
X184986142Y104634704D02*
X181682785Y104928005D01*
X181682785Y104928005D02*
X178236310Y105186116D01*
X178236310Y105186116D02*
X174889200Y105369193D01*
X174889200Y105369193D02*
X171883939Y105437391D01*
X171883939Y105437391D02*
X171214454Y105431822D01*
X151030800Y103901579D02*
X151715352Y99873982D01*
X171544045Y101859569D02*
X175055399Y101729289D01*
X175055399Y101729289D02*
X178243859Y101476727D01*
X178243859Y101476727D02*
X181521549Y101142726D01*
X181521549Y101142726D02*
X184659551Y100773822D01*
X184659551Y100773822D02*
X188036875Y100334506D01*
X188036875Y100334506D02*
X191126649Y99896281D01*
X191126649Y99896281D02*
X191275261Y99873982D01*
X151715352Y99873982D02*
X154976331Y100334506D01*
X154976331Y100334506D02*
X158375212Y100773822D01*
X158375212Y100773822D02*
X161531319Y101142726D01*
X161531319Y101142726D02*
X164825406Y101476727D01*
X164825406Y101476727D02*
X168026272Y101729289D01*
X168026272Y101729289D02*
X171544045Y101859569D01*
X200416540Y59329569D02*
X199107140Y62116432D01*
X199107140Y62116432D02*
X197875409Y65158912D01*
X197875409Y65158912D02*
X196720587Y68404552D01*
X196720587Y68404552D02*
X195641915Y71800897D01*
X195641915Y71800897D02*
X194638634Y75295493D01*
X194638634Y75295493D02*
X193709984Y78835884D01*
X193709984Y78835884D02*
X192855206Y82369616D01*
X192855206Y82369616D02*
X192073542Y85844234D01*
X192073542Y85844234D02*
X191364231Y89207281D01*
X191364231Y89207281D02*
X190726515Y92406304D01*
X190726515Y92406304D02*
X190159635Y95388848D01*
X190159635Y95388848D02*
X189440470Y99342019D01*
X189440470Y99342019D02*
X188876414Y102513052D01*
X188876414Y102513052D02*
X188361194Y105218449D01*
X216521149Y39697629D02*
X214055592Y41708002D01*
X214055592Y41708002D02*
X211707927Y43873972D01*
X211707927Y43873972D02*
X209483846Y46181113D01*
X209483846Y46181113D02*
X207389047Y48615003D01*
X207389047Y48615003D02*
X205429221Y51161218D01*
X205429221Y51161218D02*
X203610065Y53805332D01*
X203610065Y53805332D02*
X201937273Y56532924D01*
X201937273Y56532924D02*
X200416540Y59329569D01*
X246231167Y32712455D02*
X242611111Y32830147D01*
X242611111Y32830147D02*
X239005165Y33139482D01*
X239005165Y33139482D02*
X235825808Y33522820D01*
X235825808Y33522820D02*
X232397864Y34057795D01*
X232397864Y34057795D02*
X228863957Y34764132D01*
X228863957Y34764132D02*
X225366710Y35661558D01*
X225366710Y35661558D02*
X222048744Y36769799D01*
X222048744Y36769799D02*
X219052683Y38108580D01*
X219052683Y38108580D02*
X216521149Y39697629D01*
X280814118Y37096816D02*
X277545056Y35923129D01*
X277545056Y35923129D02*
X273894254Y34988795D01*
X273894254Y34988795D02*
X269995782Y34265581D01*
X269995782Y34265581D02*
X265983706Y33725252D01*
X265983706Y33725252D02*
X261992093Y33339576D01*
X261992093Y33339576D02*
X258155013Y33080320D01*
X258155013Y33080320D02*
X254606532Y32919252D01*
X254606532Y32919252D02*
X251480719Y32828138D01*
X251480719Y32828138D02*
X248202172Y32766672D01*
X248202172Y32766672D02*
X246231167Y32712455D01*
X300479567Y55524765D02*
X298783400Y52456321D01*
X298783400Y52456321D02*
X296602431Y49491826D01*
X296602431Y49491826D02*
X294070200Y46688583D01*
X294070200Y46688583D02*
X291320251Y44103899D01*
X291320251Y44103899D02*
X288486126Y41795075D01*
X288486126Y41795075D02*
X285701367Y39819417D01*
X285701367Y39819417D02*
X283099517Y38234229D01*
X283099517Y38234229D02*
X280814118Y37096816D01*
X306292739Y88792965D02*
X306355197Y85476710D01*
X306355197Y85476710D02*
X306301504Y82184145D01*
X306301504Y82184145D02*
X306128363Y78921204D01*
X306128363Y78921204D02*
X305832475Y75693822D01*
X305832475Y75693822D02*
X305410542Y72507932D01*
X305410542Y72507932D02*
X304859268Y69369469D01*
X304859268Y69369469D02*
X304175353Y66284367D01*
X304175353Y66284367D02*
X303355501Y63258561D01*
X303355501Y63258561D02*
X302396414Y60297985D01*
X302396414Y60297985D02*
X301294794Y57408573D01*
X301294794Y57408573D02*
X300479567Y55524765D01*
X305332575Y113028505D02*
X305470107Y109680894D01*
X305470107Y109680894D02*
X305597179Y106563064D01*
X305597179Y106563064D02*
X305746852Y102859876D01*
X305746852Y102859876D02*
X305906433Y98866193D01*
X305906433Y98866193D02*
X306024985Y95857670D01*
X306024985Y95857670D02*
X306171361Y92065130D01*
X306171361Y92065130D02*
X306292739Y88792965D01*
X142476871Y59329569D02*
X143786270Y62116432D01*
X143786270Y62116432D02*
X145018001Y65158912D01*
X145018001Y65158912D02*
X146172822Y68404552D01*
X146172822Y68404552D02*
X147251494Y71800897D01*
X147251494Y71800897D02*
X148254776Y75295493D01*
X148254776Y75295493D02*
X149183426Y78835884D01*
X149183426Y78835884D02*
X150038203Y82369616D01*
X150038203Y82369616D02*
X150819868Y85844234D01*
X150819868Y85844234D02*
X151529178Y89207281D01*
X151529178Y89207281D02*
X152166894Y92406304D01*
X152166894Y92406304D02*
X152733775Y95388848D01*
X152733775Y95388848D02*
X153452939Y99342019D01*
X153452939Y99342019D02*
X154016995Y102513052D01*
X154016995Y102513052D02*
X154532216Y105218449D01*
X126372262Y39697629D02*
X128837817Y41708002D01*
X128837817Y41708002D02*
X131185483Y43873972D01*
X131185483Y43873972D02*
X133409563Y46181113D01*
X133409563Y46181113D02*
X135504363Y48615003D01*
X135504363Y48615003D02*
X137464188Y51161218D01*
X137464188Y51161218D02*
X139283345Y53805332D01*
X139283345Y53805332D02*
X140956137Y56532924D01*
X140956137Y56532924D02*
X142476871Y59329569D01*
X96662243Y32712455D02*
X100282298Y32830147D01*
X100282298Y32830147D02*
X103888244Y33139482D01*
X103888244Y33139482D02*
X107067601Y33522820D01*
X107067601Y33522820D02*
X110495545Y34057795D01*
X110495545Y34057795D02*
X114029452Y34764132D01*
X114029452Y34764132D02*
X117526700Y35661558D01*
X117526700Y35661558D02*
X120844666Y36769799D01*
X120844666Y36769799D02*
X123840727Y38108580D01*
X123840727Y38108580D02*
X126372262Y39697629D01*
X62079293Y37096816D02*
X65348354Y35923129D01*
X65348354Y35923129D02*
X68999155Y34988795D01*
X68999155Y34988795D02*
X72897628Y34265581D01*
X72897628Y34265581D02*
X76909704Y33725252D01*
X76909704Y33725252D02*
X80901316Y33339576D01*
X80901316Y33339576D02*
X84738396Y33080320D01*
X84738396Y33080320D02*
X88286877Y32919252D01*
X88286877Y32919252D02*
X91412690Y32828138D01*
X91412690Y32828138D02*
X94691237Y32766672D01*
X94691237Y32766672D02*
X96662243Y32712455D01*
X42413844Y55524765D02*
X44110010Y52456321D01*
X44110010Y52456321D02*
X46290979Y49491826D01*
X46290979Y49491826D02*
X48823210Y46688583D01*
X48823210Y46688583D02*
X51573158Y44103899D01*
X51573158Y44103899D02*
X54407283Y41795075D01*
X54407283Y41795075D02*
X57192042Y39819417D01*
X57192042Y39819417D02*
X59793893Y38234229D01*
X59793893Y38234229D02*
X62079293Y37096816D01*
X36600671Y88792965D02*
X36538212Y85476710D01*
X36538212Y85476710D02*
X36591905Y82184145D01*
X36591905Y82184145D02*
X36765047Y78921204D01*
X36765047Y78921204D02*
X37060935Y75693822D01*
X37060935Y75693822D02*
X37482867Y72507932D01*
X37482867Y72507932D02*
X38034142Y69369469D01*
X38034142Y69369469D02*
X38718057Y66284367D01*
X38718057Y66284367D02*
X39537909Y63258561D01*
X39537909Y63258561D02*
X40496996Y60297985D01*
X40496996Y60297985D02*
X41598616Y57408573D01*
X41598616Y57408573D02*
X42413844Y55524765D01*
X37560835Y113028505D02*
X37423302Y109680894D01*
X37423302Y109680894D02*
X37296230Y106563064D01*
X37296230Y106563064D02*
X37146557Y102859876D01*
X37146557Y102859876D02*
X36986976Y98866193D01*
X36986976Y98866193D02*
X36868425Y95857670D01*
X36868425Y95857670D02*
X36722048Y92065130D01*
X36722048Y92065130D02*
X36600671Y88792965D01*
X190342395Y100595767D02*
X185143389Y100773148D01*
X300549194Y127212531D02*
X303592112Y126437225D01*
X303592112Y126437225D02*
X306529423Y125602818D01*
X306529423Y125602818D02*
X309889728Y124541806D01*
X309889728Y124541806D02*
X313041558Y123436837D01*
X313041558Y123436837D02*
X315954149Y122310356D01*
X315954149Y122310356D02*
X317747775Y121558501D01*
X275370313Y130035820D02*
X278765325Y129867102D01*
X278765325Y129867102D02*
X282016447Y129622931D01*
X282016447Y129622931D02*
X285546615Y129300059D01*
X285546615Y129300059D02*
X289174342Y128915439D01*
X289174342Y128915439D02*
X292718144Y128486022D01*
X292718144Y128486022D02*
X295996534Y128028758D01*
X295996534Y128028758D02*
X299444803Y127443846D01*
X299444803Y127443846D02*
X300549194Y127212531D01*
X243466145Y129887911D02*
X246521613Y129979088D01*
X246521613Y129979088D02*
X249537021Y130056976D01*
X249537021Y130056976D02*
X253511240Y130138535D01*
X253511240Y130138535D02*
X257452616Y130192582D01*
X257452616Y130192582D02*
X261383076Y130216898D01*
X261383076Y130216898D02*
X265324549Y130209262D01*
X265324549Y130209262D02*
X269298962Y130167456D01*
X269298962Y130167456D02*
X272314580Y130112341D01*
X272314580Y130112341D02*
X275370313Y130035820D01*
X207702843Y126394955D02*
X210929399Y126999789D01*
X210929399Y126999789D02*
X214134892Y127530746D01*
X214134892Y127530746D02*
X217335654Y127993534D01*
X217335654Y127993534D02*
X220548019Y128393860D01*
X220548019Y128393860D02*
X223788319Y128737433D01*
X223788319Y128737433D02*
X227072890Y129029963D01*
X227072890Y129029963D02*
X230418063Y129277156D01*
X230418063Y129277156D02*
X233840173Y129484722D01*
X233840173Y129484722D02*
X237355552Y129658369D01*
X237355552Y129658369D02*
X240980534Y129803806D01*
X240980534Y129803806D02*
X243466145Y129887911D01*
X189602073Y118742394D02*
X192159242Y120661889D01*
X192159242Y120661889D02*
X194797404Y122236305D01*
X194797404Y122236305D02*
X197529788Y123518149D01*
X197529788Y123518149D02*
X200369628Y124559931D01*
X200369628Y124559931D02*
X203330156Y125414156D01*
X203330156Y125414156D02*
X206424603Y126133335D01*
X206424603Y126133335D02*
X207702843Y126394955D01*
X184709081Y110821399D02*
X185654824Y113700843D01*
X185654824Y113700843D02*
X187217248Y116332086D01*
X187217248Y116332086D02*
X189310758Y118494321D01*
X189310758Y118494321D02*
X189602073Y118742394D01*
X185143389Y100773148D02*
X184693437Y103812267D01*
X184693437Y103812267D02*
X184434873Y107053291D01*
X184434873Y107053291D02*
X184574518Y110173915D01*
X184574518Y110173915D02*
X184709081Y110821399D01*
X315800836Y104170748D02*
X301841983Y106068361D01*
X317747775Y121558501D02*
X315800836Y104170748D01*
X192864551Y112024081D02*
X191894378Y109174703D01*
X191894378Y109174703D02*
X191153465Y105874418D01*
X191153465Y105874418D02*
X190647730Y102877581D01*
X190647730Y102877581D02*
X190342395Y100595767D01*
X195286264Y114571240D02*
X193121476Y112469586D01*
X193121476Y112469586D02*
X192864551Y112024081D01*
X204110154Y119638082D02*
X201055570Y118479573D01*
X201055570Y118479573D02*
X198357086Y116967987D01*
X198357086Y116967987D02*
X195799721Y115020382D01*
X195799721Y115020382D02*
X195286264Y114571240D01*
X233398274Y123229885D02*
X230325451Y122996372D01*
X230325451Y122996372D02*
X226720518Y122724805D01*
X226720518Y122724805D02*
X222765502Y122403431D01*
X222765502Y122403431D02*
X219678999Y122122643D01*
X219678999Y122122643D02*
X216574758Y121802270D01*
X216574758Y121802270D02*
X213529573Y121437351D01*
X213529573Y121437351D02*
X209693917Y120872931D01*
X209693917Y120872931D02*
X206281797Y120208752D01*
X206281797Y120208752D02*
X204110154Y119638082D01*
X264494147Y123831367D02*
X261038105Y123977373D01*
X261038105Y123977373D02*
X257893911Y124081386D01*
X257893911Y124081386D02*
X254067118Y124154816D01*
X254067118Y124154816D02*
X250507604Y124153762D01*
X250507604Y124153762D02*
X247051299Y124078321D01*
X247051299Y124078321D02*
X243534135Y123928590D01*
X243534135Y123928590D02*
X239792045Y123704666D01*
X239792045Y123704666D02*
X236739172Y123488094D01*
X236739172Y123488094D02*
X233398274Y123229885D01*
X295427397Y119982115D02*
X291830226Y121231936D01*
X291830226Y121231936D02*
X287964169Y122132447D01*
X287964169Y122132447D02*
X284945887Y122617603D01*
X284945887Y122617603D02*
X281870803Y122970105D01*
X281870803Y122970105D02*
X278779392Y123217310D01*
X278779392Y123217310D02*
X275712133Y123386574D01*
X275712133Y123386574D02*
X272709502Y123505254D01*
X272709502Y123505254D02*
X268876487Y123632094D01*
X268876487Y123632094D02*
X265326270Y123782488D01*
X265326270Y123782488D02*
X264494147Y123831367D01*
X301047200Y114484023D02*
X299322432Y117151407D01*
X299322432Y117151407D02*
X296999277Y119178366D01*
X296999277Y119178366D02*
X295427397Y119982115D01*
X301841983Y106068361D02*
X301836409Y109201686D01*
X301836409Y109201686D02*
X301598586Y112349231D01*
X301598586Y112349231D02*
X301047200Y114484023D01*
X152551015Y100595747D02*
X157750022Y100773127D01*
X42344217Y127212510D02*
X39301297Y126437204D01*
X39301297Y126437204D02*
X36363986Y125602799D01*
X36363986Y125602799D02*
X33003681Y124541788D01*
X33003681Y124541788D02*
X29851852Y123436819D01*
X29851852Y123436819D02*
X26939260Y122310337D01*
X26939260Y122310337D02*
X25145635Y121558480D01*
X67523097Y130035799D02*
X64128084Y129867081D01*
X64128084Y129867081D02*
X60876963Y129622910D01*
X60876963Y129622910D02*
X57346795Y129300038D01*
X57346795Y129300038D02*
X53719067Y128915418D01*
X53719067Y128915418D02*
X50175266Y128486001D01*
X50175266Y128486001D02*
X46896876Y128028737D01*
X46896876Y128028737D02*
X43448607Y127443825D01*
X43448607Y127443825D02*
X42344217Y127212510D01*
X99427266Y129887890D02*
X96371797Y129979067D01*
X96371797Y129979067D02*
X93356388Y130056955D01*
X93356388Y130056955D02*
X89382169Y130138514D01*
X89382169Y130138514D02*
X85440793Y130192561D01*
X85440793Y130192561D02*
X81510332Y130216876D01*
X81510332Y130216876D02*
X77568860Y130209241D01*
X77568860Y130209241D02*
X73594446Y130167435D01*
X73594446Y130167435D02*
X70578829Y130112320D01*
X70578829Y130112320D02*
X67523097Y130035799D01*
X135190568Y126394935D02*
X131964011Y126999769D01*
X131964011Y126999769D02*
X128758518Y127530726D01*
X128758518Y127530726D02*
X125557756Y127993513D01*
X125557756Y127993513D02*
X122345391Y128393839D01*
X122345391Y128393839D02*
X119105090Y128737413D01*
X119105090Y128737413D02*
X115820520Y129029942D01*
X115820520Y129029942D02*
X112475346Y129277136D01*
X112475346Y129277136D02*
X109053237Y129484702D01*
X109053237Y129484702D02*
X105537858Y129658349D01*
X105537858Y129658349D02*
X101912876Y129803785D01*
X101912876Y129803785D02*
X99427266Y129887890D01*
X153291337Y118742373D02*
X150734167Y120661868D01*
X150734167Y120661868D02*
X148096005Y122236284D01*
X148096005Y122236284D02*
X145363621Y123518129D01*
X145363621Y123518129D02*
X142523781Y124559910D01*
X142523781Y124559910D02*
X139563254Y125414136D01*
X139563254Y125414136D02*
X136468807Y126133315D01*
X136468807Y126133315D02*
X135190568Y126394935D01*
X158184329Y110821379D02*
X157238585Y113700823D01*
X157238585Y113700823D02*
X155676161Y116332065D01*
X155676161Y116332065D02*
X153582651Y118494300D01*
X153582651Y118494300D02*
X153291337Y118742373D01*
X157750022Y100773127D02*
X158199973Y103812246D01*
X158199973Y103812246D02*
X158458537Y107053271D01*
X158458537Y107053271D02*
X158318891Y110173895D01*
X158318891Y110173895D02*
X158184329Y110821379D01*
X27092574Y104170727D02*
X41051428Y106068340D01*
X25145635Y121558480D02*
X27092574Y104170727D01*
X150028860Y112024061D02*
X150999003Y109174683D01*
X150999003Y109174683D02*
X151739915Y105874398D01*
X151739915Y105874398D02*
X152245663Y102877561D01*
X152245663Y102877561D02*
X152551015Y100595747D01*
X147607147Y114571226D02*
X149771934Y112469568D01*
X149771934Y112469568D02*
X150028860Y112024061D01*
X138783257Y119638068D02*
X141837839Y118479554D01*
X141837839Y118479554D02*
X144536324Y116967968D01*
X144536324Y116967968D02*
X147093689Y115020367D01*
X147093689Y115020367D02*
X147607147Y114571226D01*
X109495137Y123229864D02*
X112567959Y122996351D01*
X112567959Y122996351D02*
X116172892Y122724784D01*
X116172892Y122724784D02*
X120127908Y122403410D01*
X120127908Y122403410D02*
X123214410Y122122623D01*
X123214410Y122122623D02*
X126318651Y121802250D01*
X126318651Y121802250D02*
X129363837Y121437332D01*
X129363837Y121437332D02*
X133199493Y120872914D01*
X133199493Y120872914D02*
X136611613Y120208737D01*
X136611613Y120208737D02*
X138783257Y119638068D01*
X78399263Y123831346D02*
X81855304Y123977352D01*
X81855304Y123977352D02*
X84999498Y124081365D01*
X84999498Y124081365D02*
X88826291Y124154795D01*
X88826291Y124154795D02*
X92385806Y124153741D01*
X92385806Y124153741D02*
X95842111Y124078300D01*
X95842111Y124078300D02*
X99359274Y123928569D01*
X99359274Y123928569D02*
X103101365Y123704645D01*
X103101365Y123704645D02*
X106154238Y123488073D01*
X106154238Y123488073D02*
X109495137Y123229864D01*
X47466013Y119982094D02*
X51063183Y121231918D01*
X51063183Y121231918D02*
X54929240Y122132430D01*
X54929240Y122132430D02*
X57947522Y122617587D01*
X57947522Y122617587D02*
X61022607Y122970090D01*
X61022607Y122970090D02*
X64114017Y123217294D01*
X64114017Y123217294D02*
X67181276Y123386558D01*
X67181276Y123386558D02*
X70183907Y123505238D01*
X70183907Y123505238D02*
X74016922Y123632076D01*
X74016922Y123632076D02*
X77567139Y123782468D01*
X77567139Y123782468D02*
X78399263Y123831346D01*
X41846211Y114484010D02*
X43570978Y117151388D01*
X43570978Y117151388D02*
X45894132Y119178345D01*
X45894132Y119178345D02*
X47466013Y119982094D01*
X41051428Y106068340D02*
X41057001Y109201666D01*
X41057001Y109201666D02*
X41294824Y112349214D01*
X41294824Y112349214D02*
X41846211Y114484010D01*
D13*
%TO.P,REF\u002A\u002A,1*%
%TO.N,N/C*%
X223043750Y146843750D03*
%TD*%
%TO.P,REF\u002A\u002A,1*%
%TO.N,N/C*%
X223043750Y116681250D03*
%TD*%
%TO.P,REF\u002A\u002A,1*%
%TO.N,N/C*%
X119856250Y116681250D03*
%TD*%
%TO.P,REF\u002A\u002A,1*%
%TO.N,N/C*%
X119856250Y146843750D03*
%TD*%
%TO.P,REF\u002A\u002A,1*%
%TO.N,N/C*%
X18256250Y146843750D03*
%TD*%
%TO.P,REF\u002A\u002A,1*%
%TO.N,N/C*%
X18256250Y116681250D03*
%TD*%
%TO.P,REF\u002A\u002A,1*%
%TO.N,N/C*%
X18256250Y15875000D03*
%TD*%
%TO.P,REF\u002A\u002A,1*%
%TO.N,N/C*%
X119856250Y15875000D03*
%TD*%
%TO.P,REF\u002A\u002A,1*%
%TO.N,N/C*%
X223043750Y15875000D03*
%TD*%
%TO.P,REF\u002A\u002A,1*%
%TO.N,N/C*%
X324643750Y15875000D03*
%TD*%
%TO.P,REF\u002A\u002A,1*%
%TO.N,N/C*%
X324643750Y116681250D03*
%TD*%
%TO.P,REF\u002A\u002A,1*%
%TO.N,N/C*%
X324643750Y146843750D03*
%TD*%
M02*
