%TF.GenerationSoftware,KiCad,Pcbnew,(5.1.7)-1*%
%TF.CreationDate,2021-03-23T21:38:01+01:00*%
%TF.ProjectId,kbic65-bottom,6b626963-3635-42d6-926f-74746f6d2e6b,rev?*%
%TF.SameCoordinates,Original*%
%TF.FileFunction,Soldermask,Bot*%
%TF.FilePolarity,Negative*%
%FSLAX46Y46*%
G04 Gerber Fmt 4.6, Leading zero omitted, Abs format (unit mm)*
G04 Created by KiCad (PCBNEW (5.1.7)-1) date 2021-03-23 21:38:01*
%MOMM*%
%LPD*%
G01*
G04 APERTURE LIST*
%ADD10C,0.100000*%
%ADD11C,2.000000*%
%ADD12C,0.300000*%
%ADD13C,4.400000*%
G04 APERTURE END LIST*
D10*
G36*
X178000000Y105200000D02*
G01*
X183100000Y104800000D01*
X191959812Y103901579D01*
X191275261Y99873982D01*
X187500000Y100400000D01*
X181300000Y101200000D01*
X176000000Y101700000D01*
X173700000Y101800000D01*
X171544045Y101859569D01*
X168000000Y101700000D01*
X164100000Y101400000D01*
X161100000Y101100000D01*
X155500000Y100400000D01*
X151715352Y99873982D01*
X151030800Y103901579D01*
X159500000Y104700000D01*
X163300000Y105000000D01*
X167600000Y105300000D01*
X170600000Y105400000D01*
X173500000Y105400000D01*
X178000000Y105200000D01*
G37*
X178000000Y105200000D02*
X183100000Y104800000D01*
X191959812Y103901579D01*
X191275261Y99873982D01*
X187500000Y100400000D01*
X181300000Y101200000D01*
X176000000Y101700000D01*
X173700000Y101800000D01*
X171544045Y101859569D01*
X168000000Y101700000D01*
X164100000Y101400000D01*
X161100000Y101100000D01*
X155500000Y100400000D01*
X151715352Y99873982D01*
X151030800Y103901579D01*
X159500000Y104700000D01*
X163300000Y105000000D01*
X167600000Y105300000D01*
X170600000Y105400000D01*
X173500000Y105400000D01*
X178000000Y105200000D01*
G36*
X274300000Y130100000D02*
G01*
X279400000Y129800000D01*
X282200000Y129600000D01*
X287200000Y129100000D01*
X290900000Y128700000D01*
X295600000Y128100000D01*
X299700000Y127400000D01*
X303400000Y126500000D01*
X306600000Y125600000D01*
X310900000Y124200000D01*
X316200000Y122200000D01*
X317747775Y121558501D01*
X315800836Y104170748D01*
X301841983Y106068361D01*
X301800000Y110400000D01*
X301600000Y112400000D01*
X301300000Y113900000D01*
X301000000Y114600000D01*
X300200000Y116000000D01*
X299400000Y117100000D01*
X298400000Y118100000D01*
X297700000Y118700000D01*
X296600000Y119400000D01*
X295900000Y119800000D01*
X294600000Y120300000D01*
X293200000Y120800000D01*
X291300000Y121400000D01*
X289200000Y121900000D01*
X287100000Y122300000D01*
X284300000Y122700000D01*
X281500000Y123000000D01*
X277800000Y123300000D01*
X274800000Y123400000D01*
X272200000Y123500000D01*
X269700000Y123600000D01*
X262100000Y123900000D01*
X258400000Y124100000D01*
X255300000Y124100000D01*
X250700000Y124200000D01*
X248100000Y124100000D01*
X243800000Y123900000D01*
X241700000Y123800000D01*
X236600000Y123500000D01*
X231000000Y123000000D01*
X226700000Y122700000D01*
X220200000Y122200000D01*
X215700000Y121700000D01*
X211100000Y121100000D01*
X207100000Y120400000D01*
X204600000Y119800000D01*
X202700000Y119200000D01*
X200900000Y118400000D01*
X199200000Y117500000D01*
X197800000Y116600000D01*
X196500000Y115600000D01*
X195200000Y114500000D01*
X193800000Y113300000D01*
X193200000Y112600000D01*
X192864551Y112024081D01*
X192400000Y110900000D01*
X192200000Y110200000D01*
X191900000Y109200000D01*
X191600000Y107900000D01*
X191200000Y106100000D01*
X190800000Y104000000D01*
X190500000Y102000000D01*
X190342395Y100595767D01*
X185143389Y100773148D01*
X184700000Y103500000D01*
X184400000Y107200000D01*
X184500000Y109800000D01*
X184709081Y110821399D01*
X185100000Y112200000D01*
X185500000Y113300000D01*
X186000000Y114400000D01*
X186600000Y115400000D01*
X187100000Y116200000D01*
X188200000Y117400000D01*
X189100000Y118300000D01*
X190000000Y119100000D01*
X191500000Y120200000D01*
X193000000Y121200000D01*
X195600000Y122600000D01*
X197800000Y123600000D01*
X200900000Y124700000D01*
X202300000Y125100000D01*
X204600000Y125700000D01*
X208300000Y126500000D01*
X211400000Y127100000D01*
X215900000Y127800000D01*
X219900000Y128400000D01*
X224000000Y128800000D01*
X228000000Y129100000D01*
X236300000Y129600000D01*
X244800000Y129900000D01*
X252900000Y130100000D01*
X257500000Y130200000D01*
X268300000Y130200000D01*
X274300000Y130100000D01*
G37*
X274300000Y130100000D02*
X279400000Y129800000D01*
X282200000Y129600000D01*
X287200000Y129100000D01*
X290900000Y128700000D01*
X295600000Y128100000D01*
X299700000Y127400000D01*
X303400000Y126500000D01*
X306600000Y125600000D01*
X310900000Y124200000D01*
X316200000Y122200000D01*
X317747775Y121558501D01*
X315800836Y104170748D01*
X301841983Y106068361D01*
X301800000Y110400000D01*
X301600000Y112400000D01*
X301300000Y113900000D01*
X301000000Y114600000D01*
X300200000Y116000000D01*
X299400000Y117100000D01*
X298400000Y118100000D01*
X297700000Y118700000D01*
X296600000Y119400000D01*
X295900000Y119800000D01*
X294600000Y120300000D01*
X293200000Y120800000D01*
X291300000Y121400000D01*
X289200000Y121900000D01*
X287100000Y122300000D01*
X284300000Y122700000D01*
X281500000Y123000000D01*
X277800000Y123300000D01*
X274800000Y123400000D01*
X272200000Y123500000D01*
X269700000Y123600000D01*
X262100000Y123900000D01*
X258400000Y124100000D01*
X255300000Y124100000D01*
X250700000Y124200000D01*
X248100000Y124100000D01*
X243800000Y123900000D01*
X241700000Y123800000D01*
X236600000Y123500000D01*
X231000000Y123000000D01*
X226700000Y122700000D01*
X220200000Y122200000D01*
X215700000Y121700000D01*
X211100000Y121100000D01*
X207100000Y120400000D01*
X204600000Y119800000D01*
X202700000Y119200000D01*
X200900000Y118400000D01*
X199200000Y117500000D01*
X197800000Y116600000D01*
X196500000Y115600000D01*
X195200000Y114500000D01*
X193800000Y113300000D01*
X193200000Y112600000D01*
X192864551Y112024081D01*
X192400000Y110900000D01*
X192200000Y110200000D01*
X191900000Y109200000D01*
X191600000Y107900000D01*
X191200000Y106100000D01*
X190800000Y104000000D01*
X190500000Y102000000D01*
X190342395Y100595767D01*
X185143389Y100773148D01*
X184700000Y103500000D01*
X184400000Y107200000D01*
X184500000Y109800000D01*
X184709081Y110821399D01*
X185100000Y112200000D01*
X185500000Y113300000D01*
X186000000Y114400000D01*
X186600000Y115400000D01*
X187100000Y116200000D01*
X188200000Y117400000D01*
X189100000Y118300000D01*
X190000000Y119100000D01*
X191500000Y120200000D01*
X193000000Y121200000D01*
X195600000Y122600000D01*
X197800000Y123600000D01*
X200900000Y124700000D01*
X202300000Y125100000D01*
X204600000Y125700000D01*
X208300000Y126500000D01*
X211400000Y127100000D01*
X215900000Y127800000D01*
X219900000Y128400000D01*
X224000000Y128800000D01*
X228000000Y129100000D01*
X236300000Y129600000D01*
X244800000Y129900000D01*
X252900000Y130100000D01*
X257500000Y130200000D01*
X268300000Y130200000D01*
X274300000Y130100000D01*
G36*
X89993410Y130099979D02*
G01*
X98093410Y129899979D01*
X106593410Y129599979D01*
X114893410Y129099979D01*
X118893410Y128799979D01*
X122993410Y128399979D01*
X126993410Y127799979D01*
X131493410Y127099979D01*
X134593410Y126499979D01*
X138293410Y125699979D01*
X140593410Y125099979D01*
X141993410Y124699979D01*
X145093410Y123599979D01*
X147293410Y122599979D01*
X149893410Y121199979D01*
X151393410Y120199979D01*
X152893410Y119099979D01*
X153793410Y118299979D01*
X154693410Y117399979D01*
X155793410Y116199979D01*
X156293410Y115399979D01*
X156893410Y114399979D01*
X157393410Y113299979D01*
X157793410Y112199979D01*
X158184329Y110821378D01*
X158393410Y109799979D01*
X158493410Y107199979D01*
X158193410Y103499979D01*
X157750021Y100773127D01*
X152551015Y100595746D01*
X152393410Y101999979D01*
X152093410Y103999979D01*
X151693410Y106099979D01*
X151293410Y107899979D01*
X150993410Y109199979D01*
X150693410Y110199979D01*
X150493410Y110899979D01*
X150028859Y112024060D01*
X149693410Y112599979D01*
X149093410Y113299979D01*
X147693410Y114499979D01*
X146393410Y115599979D01*
X145093410Y116599979D01*
X143693410Y117499979D01*
X141993410Y118399979D01*
X140193410Y119199979D01*
X138293410Y119799979D01*
X135793410Y120399979D01*
X131793410Y121099979D01*
X127193410Y121699979D01*
X122693410Y122199979D01*
X116193410Y122699979D01*
X111893410Y122999979D01*
X106293410Y123499979D01*
X101193410Y123799979D01*
X99093410Y123899979D01*
X94793410Y124099979D01*
X92193410Y124199979D01*
X87593410Y124099979D01*
X84493410Y124099979D01*
X80793410Y123899979D01*
X73193410Y123599979D01*
X70693410Y123499979D01*
X68093410Y123399979D01*
X65093410Y123299979D01*
X61393410Y122999979D01*
X58593410Y122699979D01*
X55793410Y122299979D01*
X53693410Y121899979D01*
X51593410Y121399979D01*
X49693410Y120799979D01*
X48293410Y120299979D01*
X46993410Y119799979D01*
X46293410Y119399979D01*
X45193410Y118699979D01*
X44493410Y118099979D01*
X43493410Y117099979D01*
X42693410Y115999979D01*
X41893410Y114599979D01*
X41593410Y113899979D01*
X41293410Y112399979D01*
X41093410Y110399979D01*
X41051427Y106068340D01*
X27092574Y104170727D01*
X25145635Y121558480D01*
X26693410Y122199979D01*
X31993410Y124199979D01*
X36293410Y125599979D01*
X39493410Y126499979D01*
X43193410Y127399979D01*
X47293410Y128099979D01*
X51993410Y128699979D01*
X55693410Y129099979D01*
X60693410Y129599979D01*
X63493410Y129799979D01*
X68593410Y130099979D01*
X74593410Y130199979D01*
X85393410Y130199979D01*
X89993410Y130099979D01*
G37*
X89993410Y130099979D02*
X98093410Y129899979D01*
X106593410Y129599979D01*
X114893410Y129099979D01*
X118893410Y128799979D01*
X122993410Y128399979D01*
X126993410Y127799979D01*
X131493410Y127099979D01*
X134593410Y126499979D01*
X138293410Y125699979D01*
X140593410Y125099979D01*
X141993410Y124699979D01*
X145093410Y123599979D01*
X147293410Y122599979D01*
X149893410Y121199979D01*
X151393410Y120199979D01*
X152893410Y119099979D01*
X153793410Y118299979D01*
X154693410Y117399979D01*
X155793410Y116199979D01*
X156293410Y115399979D01*
X156893410Y114399979D01*
X157393410Y113299979D01*
X157793410Y112199979D01*
X158184329Y110821378D01*
X158393410Y109799979D01*
X158493410Y107199979D01*
X158193410Y103499979D01*
X157750021Y100773127D01*
X152551015Y100595746D01*
X152393410Y101999979D01*
X152093410Y103999979D01*
X151693410Y106099979D01*
X151293410Y107899979D01*
X150993410Y109199979D01*
X150693410Y110199979D01*
X150493410Y110899979D01*
X150028859Y112024060D01*
X149693410Y112599979D01*
X149093410Y113299979D01*
X147693410Y114499979D01*
X146393410Y115599979D01*
X145093410Y116599979D01*
X143693410Y117499979D01*
X141993410Y118399979D01*
X140193410Y119199979D01*
X138293410Y119799979D01*
X135793410Y120399979D01*
X131793410Y121099979D01*
X127193410Y121699979D01*
X122693410Y122199979D01*
X116193410Y122699979D01*
X111893410Y122999979D01*
X106293410Y123499979D01*
X101193410Y123799979D01*
X99093410Y123899979D01*
X94793410Y124099979D01*
X92193410Y124199979D01*
X87593410Y124099979D01*
X84493410Y124099979D01*
X80793410Y123899979D01*
X73193410Y123599979D01*
X70693410Y123499979D01*
X68093410Y123399979D01*
X65093410Y123299979D01*
X61393410Y122999979D01*
X58593410Y122699979D01*
X55793410Y122299979D01*
X53693410Y121899979D01*
X51593410Y121399979D01*
X49693410Y120799979D01*
X48293410Y120299979D01*
X46993410Y119799979D01*
X46293410Y119399979D01*
X45193410Y118699979D01*
X44493410Y118099979D01*
X43493410Y117099979D01*
X42693410Y115999979D01*
X41893410Y114599979D01*
X41593410Y113899979D01*
X41293410Y112399979D01*
X41093410Y110399979D01*
X41051427Y106068340D01*
X27092574Y104170727D01*
X25145635Y121558480D01*
X26693410Y122199979D01*
X31993410Y124199979D01*
X36293410Y125599979D01*
X39493410Y126499979D01*
X43193410Y127399979D01*
X47293410Y128099979D01*
X51993410Y128699979D01*
X55693410Y129099979D01*
X60693410Y129599979D01*
X63493410Y129799979D01*
X68593410Y130099979D01*
X74593410Y130199979D01*
X85393410Y130199979D01*
X89993410Y130099979D01*
D11*
X151030869Y103901579D02*
X151030869Y103901579D01*
X191275261Y99873982D02*
X191959812Y103901579D01*
X171214454Y105431822D02*
X169098266Y105370678D01*
X169098266Y105370678D02*
X166751878Y105253117D01*
X166751878Y105253117D02*
X164271014Y105092774D01*
X164271014Y105092774D02*
X161751401Y104903282D01*
X161751401Y104903282D02*
X159288763Y104698273D01*
X159288763Y104698273D02*
X156978828Y104491381D01*
X156978828Y104491381D02*
X154917319Y104296240D01*
X154917319Y104296240D02*
X152720537Y104077895D01*
X152720537Y104077895D02*
X151030869Y103901579D01*
X191959812Y103901579D02*
X189693292Y104156597D01*
X189693292Y104156597D02*
X187223869Y104415604D01*
X187223869Y104415604D02*
X184986142Y104634704D01*
X184986142Y104634704D02*
X182531513Y104856422D01*
X182531513Y104856422D02*
X179962282Y105063949D01*
X179962282Y105063949D02*
X177380745Y105240476D01*
X177380745Y105240476D02*
X174889200Y105369193D01*
X174889200Y105369193D02*
X172589945Y105433290D01*
X172589945Y105433290D02*
X171214454Y105431822D01*
X151030800Y103901579D02*
X151715352Y99873982D01*
X171544045Y101859569D02*
X173566166Y101810486D01*
X173566166Y101810486D02*
X175831629Y101676328D01*
X175831629Y101676328D02*
X178243859Y101476727D01*
X178243859Y101476727D02*
X180706280Y101231316D01*
X180706280Y101231316D02*
X183122319Y100959728D01*
X183122319Y100959728D02*
X185395399Y100681596D01*
X185395399Y100681596D02*
X187428947Y100416552D01*
X187428947Y100416552D02*
X189600819Y100117453D01*
X189600819Y100117453D02*
X191275261Y99873982D01*
X151715352Y99873982D02*
X153879445Y100184229D01*
X153879445Y100184229D02*
X156237763Y100502234D01*
X156237763Y100502234D02*
X158375212Y100773822D01*
X158375212Y100773822D02*
X160720326Y101051954D01*
X160720326Y101051954D02*
X163175565Y101316998D01*
X163175565Y101316998D02*
X165643393Y101549321D01*
X165643393Y101549321D02*
X168026272Y101729289D01*
X168026272Y101729289D02*
X170226664Y101837269D01*
X170226664Y101837269D02*
X171544045Y101859569D01*
X317747775Y121558501D02*
X317747775Y121558501D01*
X200416540Y59329569D02*
X199107140Y62116432D01*
X199107140Y62116432D02*
X197875409Y65158912D01*
X197875409Y65158912D02*
X196720587Y68404552D01*
X196720587Y68404552D02*
X195641915Y71800897D01*
X195641915Y71800897D02*
X194638634Y75295493D01*
X194638634Y75295493D02*
X193709984Y78835884D01*
X193709984Y78835884D02*
X192855206Y82369616D01*
X192855206Y82369616D02*
X192073542Y85844234D01*
X192073542Y85844234D02*
X191364231Y89207281D01*
X191364231Y89207281D02*
X190726515Y92406304D01*
X190726515Y92406304D02*
X190159635Y95388848D01*
X190159635Y95388848D02*
X189662830Y98102457D01*
X189662830Y98102457D02*
X189235343Y100494677D01*
X189235343Y100494677D02*
X188876414Y102513052D01*
X188876414Y102513052D02*
X188464906Y104724911D01*
X188464906Y104724911D02*
X188361194Y105218449D01*
X216521149Y39697629D02*
X214661151Y41190258D01*
X214661151Y41190258D02*
X212866667Y42772439D01*
X212866667Y42772439D02*
X211140098Y44438086D01*
X211140098Y44438086D02*
X209483846Y46181113D01*
X209483846Y46181113D02*
X207900315Y47995437D01*
X207900315Y47995437D02*
X206391906Y49874971D01*
X206391906Y49874971D02*
X204961022Y51813632D01*
X204961022Y51813632D02*
X203610065Y53805332D01*
X203610065Y53805332D02*
X202341438Y55843989D01*
X202341438Y55843989D02*
X201157543Y57923516D01*
X201157543Y57923516D02*
X200416540Y59329569D01*
X246231167Y32712455D02*
X244047632Y32748808D01*
X244047632Y32748808D02*
X241793314Y32888053D01*
X241793314Y32888053D02*
X239005165Y33139482D01*
X239005165Y33139482D02*
X236920257Y33379166D01*
X236920257Y33379166D02*
X234703737Y33683323D01*
X234703737Y33683323D02*
X232397864Y34057795D01*
X232397864Y34057795D02*
X230044896Y34508429D01*
X230044896Y34508429D02*
X227687092Y35041068D01*
X227687092Y35041068D02*
X225366710Y35661558D01*
X225366710Y35661558D02*
X223126008Y36375744D01*
X223126008Y36375744D02*
X221007247Y37189469D01*
X221007247Y37189469D02*
X219052683Y38108580D01*
X219052683Y38108580D02*
X217304575Y39138921D01*
X217304575Y39138921D02*
X216521149Y39697629D01*
X280814118Y37096816D02*
X278683779Y36286369D01*
X278683779Y36286369D02*
X276363917Y35586484D01*
X276363917Y35586484D02*
X273894254Y34988795D01*
X273894254Y34988795D02*
X271314516Y34484937D01*
X271314516Y34484937D02*
X268664425Y34066544D01*
X268664425Y34066544D02*
X265983706Y33725252D01*
X265983706Y33725252D02*
X263312081Y33452694D01*
X263312081Y33452694D02*
X260689276Y33240505D01*
X260689276Y33240505D02*
X258155013Y33080320D01*
X258155013Y33080320D02*
X255749017Y32963775D01*
X255749017Y32963775D02*
X253511011Y32882502D01*
X253511011Y32882502D02*
X251480719Y32828138D01*
X251480719Y32828138D02*
X248911640Y32778745D01*
X248911640Y32778745D02*
X246583957Y32728989D01*
X246583957Y32728989D02*
X246231167Y32712455D01*
X300479567Y55524765D02*
X299258108Y53215925D01*
X299258108Y53215925D02*
X297745169Y50957498D01*
X297745169Y50957498D02*
X295997087Y48773659D01*
X295997087Y48773659D02*
X294070200Y46688583D01*
X294070200Y46688583D02*
X292020846Y44726446D01*
X292020846Y44726446D02*
X289905364Y42911423D01*
X289905364Y42911423D02*
X287780092Y41267688D01*
X287780092Y41267688D02*
X285701367Y39819417D01*
X285701367Y39819417D02*
X283725529Y38590786D01*
X283725529Y38590786D02*
X281908915Y37605969D01*
X281908915Y37605969D02*
X280814118Y37096816D01*
X306292739Y88792965D02*
X306347120Y86579789D01*
X306347120Y86579789D02*
X306350368Y84376263D01*
X306350368Y84376263D02*
X306301504Y82184145D01*
X306301504Y82184145D02*
X306199552Y80005193D01*
X306199552Y80005193D02*
X306043535Y77841166D01*
X306043535Y77841166D02*
X305832475Y75693822D01*
X305832475Y75693822D02*
X305565395Y73564918D01*
X305565395Y73564918D02*
X305241318Y71456215D01*
X305241318Y71456215D02*
X304859268Y69369469D01*
X304859268Y69369469D02*
X304418266Y67306439D01*
X304418266Y67306439D02*
X303917336Y65268884D01*
X303917336Y65268884D02*
X303355501Y63258561D01*
X303355501Y63258561D02*
X302731784Y61277229D01*
X302731784Y61277229D02*
X302045207Y59326647D01*
X302045207Y59326647D02*
X301294794Y57408573D01*
X301294794Y57408573D02*
X300479567Y55524765D01*
X305332575Y113028505D02*
X305419012Y110928156D01*
X305419012Y110928156D02*
X305530025Y108213578D01*
X305530025Y108213578D02*
X305632974Y105680626D01*
X305632974Y105680626D02*
X305746852Y102859876D01*
X305746852Y102859876D02*
X305866303Y99875722D01*
X305866303Y99875722D02*
X305946389Y97856936D01*
X305946389Y97856936D02*
X306024985Y95857670D01*
X306024985Y95857670D02*
X306136615Y92975998D01*
X306136615Y92975998D02*
X306235968Y90345571D01*
X306235968Y90345571D02*
X306292739Y88792965D01*
X142476871Y59329569D02*
X143786270Y62116432D01*
X143786270Y62116432D02*
X145018001Y65158912D01*
X145018001Y65158912D02*
X146172822Y68404552D01*
X146172822Y68404552D02*
X147251494Y71800897D01*
X147251494Y71800897D02*
X148254776Y75295493D01*
X148254776Y75295493D02*
X149183426Y78835884D01*
X149183426Y78835884D02*
X150038203Y82369616D01*
X150038203Y82369616D02*
X150819868Y85844234D01*
X150819868Y85844234D02*
X151529178Y89207281D01*
X151529178Y89207281D02*
X152166894Y92406304D01*
X152166894Y92406304D02*
X152733775Y95388848D01*
X152733775Y95388848D02*
X153230579Y98102457D01*
X153230579Y98102457D02*
X153658066Y100494677D01*
X153658066Y100494677D02*
X154016995Y102513052D01*
X154016995Y102513052D02*
X154428503Y104724911D01*
X154428503Y104724911D02*
X154532216Y105218449D01*
X126372262Y39697629D02*
X128232258Y41190258D01*
X128232258Y41190258D02*
X130026742Y42772439D01*
X130026742Y42772439D02*
X131753311Y44438086D01*
X131753311Y44438086D02*
X133409563Y46181113D01*
X133409563Y46181113D02*
X134993094Y47995437D01*
X134993094Y47995437D02*
X136501503Y49874971D01*
X136501503Y49874971D02*
X137932388Y51813632D01*
X137932388Y51813632D02*
X139283345Y53805332D01*
X139283345Y53805332D02*
X140551972Y55843989D01*
X140551972Y55843989D02*
X141735867Y57923516D01*
X141735867Y57923516D02*
X142476871Y59329569D01*
X96662243Y32712455D02*
X98845777Y32748808D01*
X98845777Y32748808D02*
X101100095Y32888053D01*
X101100095Y32888053D02*
X103888244Y33139482D01*
X103888244Y33139482D02*
X105973152Y33379166D01*
X105973152Y33379166D02*
X108189672Y33683323D01*
X108189672Y33683323D02*
X110495545Y34057795D01*
X110495545Y34057795D02*
X112848513Y34508429D01*
X112848513Y34508429D02*
X115206318Y35041068D01*
X115206318Y35041068D02*
X117526700Y35661558D01*
X117526700Y35661558D02*
X119767401Y36375744D01*
X119767401Y36375744D02*
X121886163Y37189469D01*
X121886163Y37189469D02*
X123840727Y38108580D01*
X123840727Y38108580D02*
X125588835Y39138921D01*
X125588835Y39138921D02*
X126372262Y39697629D01*
X62079293Y37096816D02*
X64209631Y36286369D01*
X64209631Y36286369D02*
X66529493Y35586484D01*
X66529493Y35586484D02*
X68999155Y34988795D01*
X68999155Y34988795D02*
X71578893Y34484937D01*
X71578893Y34484937D02*
X74228984Y34066544D01*
X74228984Y34066544D02*
X76909704Y33725252D01*
X76909704Y33725252D02*
X79581328Y33452694D01*
X79581328Y33452694D02*
X82204133Y33240505D01*
X82204133Y33240505D02*
X84738396Y33080320D01*
X84738396Y33080320D02*
X87144392Y32963775D01*
X87144392Y32963775D02*
X89382398Y32882502D01*
X89382398Y32882502D02*
X91412690Y32828138D01*
X91412690Y32828138D02*
X93981769Y32778745D01*
X93981769Y32778745D02*
X96309452Y32728989D01*
X96309452Y32728989D02*
X96662243Y32712455D01*
X42413844Y55524765D02*
X43635302Y53215925D01*
X43635302Y53215925D02*
X45148241Y50957498D01*
X45148241Y50957498D02*
X46896323Y48773659D01*
X46896323Y48773659D02*
X48823210Y46688583D01*
X48823210Y46688583D02*
X50872563Y44726446D01*
X50872563Y44726446D02*
X52988045Y42911423D01*
X52988045Y42911423D02*
X55113318Y41267688D01*
X55113318Y41267688D02*
X57192042Y39819417D01*
X57192042Y39819417D02*
X59167881Y38590786D01*
X59167881Y38590786D02*
X60984495Y37605969D01*
X60984495Y37605969D02*
X62079293Y37096816D01*
X36600671Y88792965D02*
X36546289Y86579789D01*
X36546289Y86579789D02*
X36543041Y84376263D01*
X36543041Y84376263D02*
X36591905Y82184145D01*
X36591905Y82184145D02*
X36693857Y80005193D01*
X36693857Y80005193D02*
X36849875Y77841166D01*
X36849875Y77841166D02*
X37060935Y75693822D01*
X37060935Y75693822D02*
X37328015Y73564918D01*
X37328015Y73564918D02*
X37652092Y71456215D01*
X37652092Y71456215D02*
X38034142Y69369469D01*
X38034142Y69369469D02*
X38475144Y67306439D01*
X38475144Y67306439D02*
X38976073Y65268884D01*
X38976073Y65268884D02*
X39537909Y63258561D01*
X39537909Y63258561D02*
X40161626Y61277229D01*
X40161626Y61277229D02*
X40848203Y59326647D01*
X40848203Y59326647D02*
X41598616Y57408573D01*
X41598616Y57408573D02*
X42413844Y55524765D01*
X37560835Y113028505D02*
X37474397Y110928156D01*
X37474397Y110928156D02*
X37363385Y108213578D01*
X37363385Y108213578D02*
X37260435Y105680626D01*
X37260435Y105680626D02*
X37146557Y102859876D01*
X37146557Y102859876D02*
X37027106Y99875722D01*
X37027106Y99875722D02*
X36947021Y97856936D01*
X36947021Y97856936D02*
X36868425Y95857670D01*
X36868425Y95857670D02*
X36756795Y92975998D01*
X36756795Y92975998D02*
X36657441Y90345571D01*
X36657441Y90345571D02*
X36600671Y88792965D01*
X190342395Y100595767D02*
X185143389Y100773148D01*
X300549194Y127212531D02*
X302991407Y126597429D01*
X302991407Y126597429D02*
X305368311Y125942842D01*
X305368311Y125942842D02*
X307670790Y125255417D01*
X307670790Y125255417D02*
X309889728Y124541806D01*
X309889728Y124541806D02*
X312016011Y123808659D01*
X312016011Y123808659D02*
X314040523Y123062625D01*
X314040523Y123062625D02*
X315954149Y122310356D01*
X315954149Y122310356D02*
X317747775Y121558501D01*
X275370313Y130035820D02*
X278017413Y129913862D01*
X278017413Y129913862D02*
X280344662Y129755914D01*
X280344662Y129755914D02*
X282879918Y129548929D01*
X282879918Y129548929D02*
X285546615Y129300059D01*
X285546615Y129300059D02*
X288268189Y129016456D01*
X288268189Y129016456D02*
X290968077Y128705271D01*
X290968077Y128705271D02*
X293569713Y128373654D01*
X293569713Y128373654D02*
X295996534Y128028758D01*
X295996534Y128028758D02*
X298171974Y127677734D01*
X298171974Y127677734D02*
X300549194Y127212531D01*
X243466145Y129887911D02*
X245508031Y129950126D01*
X245508031Y129950126D02*
X247530743Y130006574D01*
X247530743Y130006574D02*
X249537021Y130056976D01*
X249537021Y130056976D02*
X252521621Y130120637D01*
X252521621Y130120637D02*
X255484663Y130169136D01*
X255484663Y130169136D02*
X258435398Y130201535D01*
X258435398Y130201535D02*
X261383076Y130216898D01*
X261383076Y130216898D02*
X264336949Y130214288D01*
X264336949Y130214288D02*
X267306268Y130192769D01*
X267306268Y130192769D02*
X270300282Y130151405D01*
X270300282Y130151405D02*
X272314580Y130112341D01*
X272314580Y130112341D02*
X274346707Y130063763D01*
X274346707Y130063763D02*
X275370313Y130035820D01*
X207702843Y126394955D02*
X209857027Y126806668D01*
X209857027Y126806668D02*
X211999430Y127184702D01*
X211999430Y127184702D02*
X214134892Y127530746D01*
X214134892Y127530746D02*
X216268250Y127846493D01*
X216268250Y127846493D02*
X218404346Y128133634D01*
X218404346Y128133634D02*
X220548019Y128393860D01*
X220548019Y128393860D02*
X222704107Y128628862D01*
X222704107Y128628862D02*
X224877451Y128840333D01*
X224877451Y128840333D02*
X227072890Y129029963D01*
X227072890Y129029963D02*
X229295264Y129199443D01*
X229295264Y129199443D02*
X231549411Y129350466D01*
X231549411Y129350466D02*
X233840173Y129484722D01*
X233840173Y129484722D02*
X236172387Y129603903D01*
X236172387Y129603903D02*
X238550894Y129709701D01*
X238550894Y129709701D02*
X240980534Y129803806D01*
X240980534Y129803806D02*
X243466145Y129887911D01*
X189602073Y118742394D02*
X191641752Y120307276D01*
X191641752Y120307276D02*
X193731573Y121644587D01*
X193731573Y121644587D02*
X195878310Y122781211D01*
X195878310Y122781211D02*
X198088737Y123744031D01*
X198088737Y123744031D02*
X200369628Y124559931D01*
X200369628Y124559931D02*
X202727760Y125255795D01*
X202727760Y125255795D02*
X205169907Y125858509D01*
X205169907Y125858509D02*
X207702843Y126394955D01*
X184709081Y110821399D02*
X185357201Y112951838D01*
X185357201Y112951838D02*
X186257904Y114910942D01*
X186257904Y114910942D02*
X187407498Y116568578D01*
X187407498Y116568578D02*
X189032206Y118248370D01*
X189032206Y118248370D02*
X189602073Y118742394D01*
X185143389Y100773148D02*
X184827869Y102764147D01*
X184827869Y102764147D02*
X184570085Y104980087D01*
X184570085Y104980087D02*
X184434873Y107053291D01*
X184434873Y107053291D02*
X184455211Y109079464D01*
X184455211Y109079464D02*
X184709081Y110821399D01*
X315800836Y104170748D02*
X301841983Y106068361D01*
X317747775Y121558501D02*
X315800836Y104170748D01*
X192864551Y112024081D02*
X192148435Y110067812D01*
X192148435Y110067812D02*
X191548427Y107771523D01*
X191548427Y107771523D02*
X191066681Y105410126D01*
X191066681Y105410126D02*
X190705355Y103258531D01*
X190705355Y103258531D02*
X190405912Y101122198D01*
X190405912Y101122198D02*
X190342395Y100595767D01*
X195286264Y114571240D02*
X193776617Y113232714D01*
X193776617Y113232714D02*
X192864551Y112024081D01*
X204110154Y119638082D02*
X201924773Y118860425D01*
X201924773Y118860425D02*
X199945484Y117921953D01*
X199945484Y117921953D02*
X198098546Y116794216D01*
X198098546Y116794216D02*
X196310223Y115448766D01*
X196310223Y115448766D02*
X195286264Y114571240D01*
X233398274Y123229885D02*
X231150653Y123057859D01*
X231150653Y123057859D02*
X228578122Y122866080D01*
X228578122Y122866080D02*
X225757474Y122649590D01*
X225757474Y122649590D02*
X222765502Y122403431D01*
X222765502Y122403431D02*
X220713597Y122220393D01*
X220713597Y122220393D02*
X218642431Y122020495D01*
X218642431Y122020495D02*
X216574758Y121802270D01*
X216574758Y121802270D02*
X214533333Y121564246D01*
X214533333Y121564246D02*
X212540907Y121304956D01*
X212540907Y121304956D02*
X209693917Y120872931D01*
X209693917Y120872931D02*
X207085166Y120384792D01*
X207085166Y120384792D02*
X204791447Y119835581D01*
X204791447Y119835581D02*
X204110154Y119638082D01*
X264494147Y123831367D02*
X262152051Y123933372D01*
X262152051Y123933372D02*
X259958808Y124016708D01*
X259958808Y124016708D02*
X257893911Y124081386D01*
X257893911Y124081386D02*
X254992350Y124143446D01*
X254992350Y124143446D02*
X252264205Y124163594D01*
X252264205Y124163594D02*
X249640260Y124141872D01*
X249640260Y124141872D02*
X247051299Y124078321D01*
X247051299Y124078321D02*
X244428104Y123972982D01*
X244428104Y123972982D02*
X241701460Y123825896D01*
X241701460Y123825896D02*
X238802151Y123637104D01*
X238802151Y123637104D02*
X236739172Y123488094D01*
X236739172Y123488094D02*
X234548182Y123320578D01*
X234548182Y123320578D02*
X233398274Y123229885D01*
X295427397Y119982115D02*
X292758475Y120954762D01*
X292758475Y120954762D02*
X289924812Y121721803D01*
X289924812Y121721803D02*
X287964169Y122132447D01*
X287964169Y122132447D02*
X285960291Y122471975D01*
X285960291Y122471975D02*
X283925172Y122748492D01*
X283925172Y122748492D02*
X281870803Y122970105D01*
X281870803Y122970105D02*
X279809178Y123144919D01*
X279809178Y123144919D02*
X277752290Y123281040D01*
X277752290Y123281040D02*
X275712133Y123386574D01*
X275712133Y123386574D02*
X273700700Y123469626D01*
X273700700Y123469626D02*
X270763641Y123569783D01*
X270763641Y123569783D02*
X267958672Y123664951D01*
X267958672Y123664951D02*
X265326270Y123782488D01*
X265326270Y123782488D02*
X264494147Y123831367D01*
X301047200Y114484023D02*
X299926930Y116357414D01*
X299926930Y116357414D02*
X298503857Y118024445D01*
X298503857Y118024445D02*
X296790824Y119303943D01*
X296790824Y119303943D02*
X295427397Y119982115D01*
X301841983Y106068361D02*
X301857509Y108218726D01*
X301857509Y108218726D02*
X301790995Y110254016D01*
X301790995Y110254016D02*
X301598586Y112349231D01*
X301598586Y112349231D02*
X301047200Y114484023D01*
X25145635Y121558480D02*
X25145635Y121558480D01*
X152551015Y100595747D02*
X157750022Y100773127D01*
X42344217Y127212510D02*
X39902002Y126597409D01*
X39902002Y126597409D02*
X37525098Y125942822D01*
X37525098Y125942822D02*
X35222620Y125255398D01*
X35222620Y125255398D02*
X33003681Y124541788D01*
X33003681Y124541788D02*
X30877399Y123808641D01*
X30877399Y123808641D02*
X28852886Y123062607D01*
X28852886Y123062607D02*
X26939260Y122310337D01*
X26939260Y122310337D02*
X25145635Y121558480D01*
X67523097Y130035799D02*
X64875996Y129913841D01*
X64875996Y129913841D02*
X62548747Y129755893D01*
X62548747Y129755893D02*
X60013492Y129548908D01*
X60013492Y129548908D02*
X57346795Y129300038D01*
X57346795Y129300038D02*
X54625221Y129016435D01*
X54625221Y129016435D02*
X51925333Y128705250D01*
X51925333Y128705250D02*
X49323697Y128373633D01*
X49323697Y128373633D02*
X46896876Y128028737D01*
X46896876Y128028737D02*
X44721435Y127677713D01*
X44721435Y127677713D02*
X42344217Y127212510D01*
X99427266Y129887890D02*
X97385379Y129950105D01*
X97385379Y129950105D02*
X95362666Y130006553D01*
X95362666Y130006553D02*
X93356388Y130056955D01*
X93356388Y130056955D02*
X90371788Y130120617D01*
X90371788Y130120617D02*
X87408746Y130169115D01*
X87408746Y130169115D02*
X84458011Y130201514D01*
X84458011Y130201514D02*
X81510332Y130216876D01*
X81510332Y130216876D02*
X78556459Y130214267D01*
X78556459Y130214267D02*
X75587141Y130192748D01*
X75587141Y130192748D02*
X72593127Y130151384D01*
X72593127Y130151384D02*
X70578829Y130112320D01*
X70578829Y130112320D02*
X68546702Y130063742D01*
X68546702Y130063742D02*
X67523097Y130035799D01*
X135190568Y126394935D02*
X133036383Y126806648D01*
X133036383Y126806648D02*
X130893980Y127184681D01*
X130893980Y127184681D02*
X128758518Y127530726D01*
X128758518Y127530726D02*
X126625159Y127846473D01*
X126625159Y127846473D02*
X124489064Y128133613D01*
X124489064Y128133613D02*
X122345391Y128393839D01*
X122345391Y128393839D02*
X120189303Y128628842D01*
X120189303Y128628842D02*
X118015959Y128840312D01*
X118015959Y128840312D02*
X115820520Y129029942D01*
X115820520Y129029942D02*
X113598146Y129199423D01*
X113598146Y129199423D02*
X111343998Y129350445D01*
X111343998Y129350445D02*
X109053237Y129484702D01*
X109053237Y129484702D02*
X106721022Y129603883D01*
X106721022Y129603883D02*
X104342515Y129709680D01*
X104342515Y129709680D02*
X101912876Y129803785D01*
X101912876Y129803785D02*
X99427266Y129887890D01*
X153291337Y118742373D02*
X151251657Y120307255D01*
X151251657Y120307255D02*
X149161836Y121644566D01*
X149161836Y121644566D02*
X147015099Y122781190D01*
X147015099Y122781190D02*
X144804673Y123744010D01*
X144804673Y123744010D02*
X142523781Y124559910D01*
X142523781Y124559910D02*
X140165649Y125255775D01*
X140165649Y125255775D02*
X137723503Y125858488D01*
X137723503Y125858488D02*
X135190568Y126394935D01*
X158184329Y110821379D02*
X157536209Y112951818D01*
X157536209Y112951818D02*
X156635505Y114910921D01*
X156635505Y114910921D02*
X155485911Y116568557D01*
X155485911Y116568557D02*
X153861203Y118248349D01*
X153861203Y118248349D02*
X153291337Y118742373D01*
X157750022Y100773127D02*
X158065540Y102764126D01*
X158065540Y102764126D02*
X158323324Y104980066D01*
X158323324Y104980066D02*
X158458537Y107053271D01*
X158458537Y107053271D02*
X158438198Y109079444D01*
X158438198Y109079444D02*
X158184329Y110821379D01*
X27092574Y104170727D02*
X41051428Y106068340D01*
X25145635Y121558480D02*
X27092574Y104170727D01*
X150028860Y112024061D02*
X150744951Y110067792D01*
X150744951Y110067792D02*
X151344952Y107771503D01*
X151344952Y107771503D02*
X151826701Y105410106D01*
X151826701Y105410106D02*
X152188036Y103258511D01*
X152188036Y103258511D02*
X152487493Y101122178D01*
X152487493Y101122178D02*
X152551015Y100595747D01*
X147607147Y114571226D02*
X149116792Y113232697D01*
X149116792Y113232697D02*
X150028860Y112024061D01*
X138783257Y119638068D02*
X140968636Y118860407D01*
X140968636Y118860407D02*
X142947926Y117921933D01*
X142947926Y117921933D02*
X144794863Y116794197D01*
X144794863Y116794197D02*
X146583187Y115448749D01*
X146583187Y115448749D02*
X147607147Y114571226D01*
X109495137Y123229864D02*
X111742757Y123057838D01*
X111742757Y123057838D02*
X114315288Y122866059D01*
X114315288Y122866059D02*
X117135936Y122649569D01*
X117135936Y122649569D02*
X120127908Y122403410D01*
X120127908Y122403410D02*
X122179813Y122220373D01*
X122179813Y122220373D02*
X124250979Y122020476D01*
X124250979Y122020476D02*
X126318651Y121802250D01*
X126318651Y121802250D02*
X128360077Y121564227D01*
X128360077Y121564227D02*
X130352503Y121304937D01*
X130352503Y121304937D02*
X133199493Y120872914D01*
X133199493Y120872914D02*
X135808244Y120384776D01*
X135808244Y120384776D02*
X138101963Y119835566D01*
X138101963Y119835566D02*
X138783257Y119638068D01*
X78399263Y123831346D02*
X80741358Y123933351D01*
X80741358Y123933351D02*
X82934601Y124016687D01*
X82934601Y124016687D02*
X84999498Y124081365D01*
X84999498Y124081365D02*
X87901059Y124143425D01*
X87901059Y124143425D02*
X90629204Y124163573D01*
X90629204Y124163573D02*
X93253149Y124141851D01*
X93253149Y124141851D02*
X95842111Y124078300D01*
X95842111Y124078300D02*
X98465306Y123972961D01*
X98465306Y123972961D02*
X101191949Y123825875D01*
X101191949Y123825875D02*
X104091259Y123637083D01*
X104091259Y123637083D02*
X106154238Y123488073D01*
X106154238Y123488073D02*
X108345228Y123320557D01*
X108345228Y123320557D02*
X109495137Y123229864D01*
X47466013Y119982094D02*
X50134935Y120954743D01*
X50134935Y120954743D02*
X52968597Y121721785D01*
X52968597Y121721785D02*
X54929240Y122132430D01*
X54929240Y122132430D02*
X56933118Y122471959D01*
X56933118Y122471959D02*
X58968238Y122748477D01*
X58968238Y122748477D02*
X61022607Y122970090D01*
X61022607Y122970090D02*
X63084232Y123144904D01*
X63084232Y123144904D02*
X65141119Y123281025D01*
X65141119Y123281025D02*
X67181276Y123386558D01*
X67181276Y123386558D02*
X69192709Y123469610D01*
X69192709Y123469610D02*
X72129768Y123569766D01*
X72129768Y123569766D02*
X74934737Y123664933D01*
X74934737Y123664933D02*
X77567139Y123782468D01*
X77567139Y123782468D02*
X78399263Y123831346D01*
X41846211Y114484010D02*
X42966480Y116357397D01*
X42966480Y116357397D02*
X44389553Y118024425D01*
X44389553Y118024425D02*
X46102586Y119303922D01*
X46102586Y119303922D02*
X47466013Y119982094D01*
X41051428Y106068340D02*
X41035901Y108218705D01*
X41035901Y108218705D02*
X41102415Y110253997D01*
X41102415Y110253997D02*
X41294824Y112349214D01*
X41294824Y112349214D02*
X41846211Y114484010D01*
D12*
X33210119Y25971726D02*
X33210119Y29971726D01*
X30924404Y25971726D02*
X32638690Y28257440D01*
X30924404Y29971726D02*
X33210119Y27686011D01*
X27876785Y28066964D02*
X27305357Y27876488D01*
X27114880Y27686011D01*
X26924404Y27305059D01*
X26924404Y26733630D01*
X27114880Y26352678D01*
X27305357Y26162202D01*
X27686309Y25971726D01*
X29210119Y25971726D01*
X29210119Y29971726D01*
X27876785Y29971726D01*
X27495833Y29781250D01*
X27305357Y29590773D01*
X27114880Y29209821D01*
X27114880Y28828869D01*
X27305357Y28447916D01*
X27495833Y28257440D01*
X27876785Y28066964D01*
X29210119Y28066964D01*
D13*
%TO.C,REF\u002A\u002A*%
X223043750Y146843750D03*
%TD*%
%TO.C,REF\u002A\u002A*%
X223043750Y116681250D03*
%TD*%
%TO.C,REF\u002A\u002A*%
X119856250Y116681250D03*
%TD*%
%TO.C,REF\u002A\u002A*%
X119856250Y146843750D03*
%TD*%
%TO.C,REF\u002A\u002A*%
X18256250Y146843750D03*
%TD*%
%TO.C,REF\u002A\u002A*%
X18256250Y116681250D03*
%TD*%
%TO.C,REF\u002A\u002A*%
X18256250Y15875000D03*
%TD*%
%TO.C,REF\u002A\u002A*%
X119856250Y15875000D03*
%TD*%
%TO.C,REF\u002A\u002A*%
X223043750Y15875000D03*
%TD*%
%TO.C,REF\u002A\u002A*%
X324643750Y15875000D03*
%TD*%
%TO.C,REF\u002A\u002A*%
X324643750Y116681250D03*
%TD*%
%TO.C,REF\u002A\u002A*%
X324643750Y146843750D03*
%TD*%
M02*
