%TF.GenerationSoftware,KiCad,Pcbnew,(5.1.7)-1*%
%TF.CreationDate,2021-03-23T21:38:01+01:00*%
%TF.ProjectId,kbic65-bottom,6b626963-3635-42d6-926f-74746f6d2e6b,rev?*%
%TF.SameCoordinates,Original*%
%TF.FileFunction,Copper,L1,Top*%
%TF.FilePolarity,Positive*%
%FSLAX46Y46*%
G04 Gerber Fmt 4.6, Leading zero omitted, Abs format (unit mm)*
G04 Created by KiCad (PCBNEW (5.1.7)-1) date 2021-03-23 21:38:01*
%MOMM*%
%LPD*%
G01*
G04 APERTURE LIST*
%TA.AperFunction,ComponentPad*%
%ADD10C,4.400000*%
%TD*%
%TA.AperFunction,NonConductor*%
%ADD11C,0.254000*%
%TD*%
%TA.AperFunction,NonConductor*%
%ADD12C,0.100000*%
%TD*%
G04 APERTURE END LIST*
D10*
%TO.P,REF\u002A\u002A,1*%
%TO.N,N/C*%
X223043750Y146843750D03*
%TD*%
%TO.P,REF\u002A\u002A,1*%
%TO.N,N/C*%
X223043750Y116681250D03*
%TD*%
%TO.P,REF\u002A\u002A,1*%
%TO.N,N/C*%
X119856250Y116681250D03*
%TD*%
%TO.P,REF\u002A\u002A,1*%
%TO.N,N/C*%
X119856250Y146843750D03*
%TD*%
%TO.P,REF\u002A\u002A,1*%
%TO.N,N/C*%
X18256250Y146843750D03*
%TD*%
%TO.P,REF\u002A\u002A,1*%
%TO.N,N/C*%
X18256250Y116681250D03*
%TD*%
%TO.P,REF\u002A\u002A,1*%
%TO.N,N/C*%
X18256250Y15875000D03*
%TD*%
%TO.P,REF\u002A\u002A,1*%
%TO.N,N/C*%
X119856250Y15875000D03*
%TD*%
%TO.P,REF\u002A\u002A,1*%
%TO.N,N/C*%
X223043750Y15875000D03*
%TD*%
%TO.P,REF\u002A\u002A,1*%
%TO.N,N/C*%
X324643750Y15875000D03*
%TD*%
%TO.P,REF\u002A\u002A,1*%
%TO.N,N/C*%
X324643750Y116681250D03*
%TD*%
%TO.P,REF\u002A\u002A,1*%
%TO.N,N/C*%
X324643750Y146843750D03*
%TD*%
D11*
X173790466Y125592820D02*
X175348951Y125511496D01*
X176904865Y125389575D01*
X178457007Y125227149D01*
X180004440Y125024317D01*
X181546030Y124781226D01*
X183080779Y124498035D01*
X184607632Y124174938D01*
X186125504Y123812163D01*
X187633453Y123409939D01*
X189130388Y122968553D01*
X190615274Y122488314D01*
X192087185Y121969520D01*
X193545090Y121412531D01*
X194987917Y120817761D01*
X196414824Y120185556D01*
X197824703Y119516405D01*
X199216693Y118810720D01*
X200589819Y118068993D01*
X201943149Y117291728D01*
X203275766Y116479451D01*
X204586740Y115632730D01*
X205875208Y114752120D01*
X207140938Y113837758D01*
X323753878Y27261483D01*
X324293887Y26836343D01*
X324807677Y26382482D01*
X325294928Y25900316D01*
X325754151Y25391320D01*
X326183836Y24857163D01*
X326582597Y24299573D01*
X326949183Y23720301D01*
X327282414Y23121204D01*
X327581203Y22504240D01*
X327844612Y21871349D01*
X327877500Y21777718D01*
X327877500Y15884285D01*
X327873040Y15707939D01*
X327860532Y15543448D01*
X327841125Y15390712D01*
X327774797Y15066309D01*
X327680578Y14763233D01*
X327558135Y14473651D01*
X327408995Y14199053D01*
X327329732Y14081713D01*
X327198824Y13922489D01*
X326866218Y13580968D01*
X326506098Y13268570D01*
X326197774Y13043534D01*
X326045087Y12960607D01*
X325755512Y12838166D01*
X325452439Y12743947D01*
X325128037Y12677620D01*
X324975297Y12658212D01*
X324810806Y12645704D01*
X324634465Y12641245D01*
X18265534Y12641245D01*
X18089194Y12645704D01*
X17924702Y12658212D01*
X17771965Y12677620D01*
X17456832Y12742051D01*
X17054100Y12982027D01*
X16662211Y13261830D01*
X16294775Y13573033D01*
X15954283Y13913525D01*
X15643080Y14280961D01*
X15363277Y14672850D01*
X15123308Y15075571D01*
X15058874Y15390712D01*
X15039467Y15543448D01*
X15026959Y15707939D01*
X15022500Y15884280D01*
X15022500Y16154223D01*
X15421250Y16154223D01*
X15421250Y15595777D01*
X15530198Y15048061D01*
X15743906Y14532124D01*
X16054162Y14067793D01*
X16449043Y13672912D01*
X16913374Y13362656D01*
X17429311Y13148948D01*
X17977027Y13040000D01*
X18535473Y13040000D01*
X19083189Y13148948D01*
X19599126Y13362656D01*
X20063457Y13672912D01*
X20458338Y14067793D01*
X20768594Y14532124D01*
X20982302Y15048061D01*
X21091250Y15595777D01*
X21091250Y16154223D01*
X117021250Y16154223D01*
X117021250Y15595777D01*
X117130198Y15048061D01*
X117343906Y14532124D01*
X117654162Y14067793D01*
X118049043Y13672912D01*
X118513374Y13362656D01*
X119029311Y13148948D01*
X119577027Y13040000D01*
X120135473Y13040000D01*
X120683189Y13148948D01*
X121199126Y13362656D01*
X121663457Y13672912D01*
X122058338Y14067793D01*
X122368594Y14532124D01*
X122582302Y15048061D01*
X122691250Y15595777D01*
X122691250Y16154223D01*
X220208750Y16154223D01*
X220208750Y15595777D01*
X220317698Y15048061D01*
X220531406Y14532124D01*
X220841662Y14067793D01*
X221236543Y13672912D01*
X221700874Y13362656D01*
X222216811Y13148948D01*
X222764527Y13040000D01*
X223322973Y13040000D01*
X223870689Y13148948D01*
X224386626Y13362656D01*
X224850957Y13672912D01*
X225245838Y14067793D01*
X225556094Y14532124D01*
X225769802Y15048061D01*
X225878750Y15595777D01*
X225878750Y16154223D01*
X321808750Y16154223D01*
X321808750Y15595777D01*
X321917698Y15048061D01*
X322131406Y14532124D01*
X322441662Y14067793D01*
X322836543Y13672912D01*
X323300874Y13362656D01*
X323816811Y13148948D01*
X324364527Y13040000D01*
X324922973Y13040000D01*
X325470689Y13148948D01*
X325986626Y13362656D01*
X326450957Y13672912D01*
X326845838Y14067793D01*
X327156094Y14532124D01*
X327369802Y15048061D01*
X327478750Y15595777D01*
X327478750Y16154223D01*
X327369802Y16701939D01*
X327156094Y17217876D01*
X326845838Y17682207D01*
X326450957Y18077088D01*
X325986626Y18387344D01*
X325470689Y18601052D01*
X324922973Y18710000D01*
X324364527Y18710000D01*
X323816811Y18601052D01*
X323300874Y18387344D01*
X322836543Y18077088D01*
X322441662Y17682207D01*
X322131406Y17217876D01*
X321917698Y16701939D01*
X321808750Y16154223D01*
X225878750Y16154223D01*
X225769802Y16701939D01*
X225556094Y17217876D01*
X225245838Y17682207D01*
X224850957Y18077088D01*
X224386626Y18387344D01*
X223870689Y18601052D01*
X223322973Y18710000D01*
X222764527Y18710000D01*
X222216811Y18601052D01*
X221700874Y18387344D01*
X221236543Y18077088D01*
X220841662Y17682207D01*
X220531406Y17217876D01*
X220317698Y16701939D01*
X220208750Y16154223D01*
X122691250Y16154223D01*
X122582302Y16701939D01*
X122368594Y17217876D01*
X122058338Y17682207D01*
X121663457Y18077088D01*
X121199126Y18387344D01*
X120683189Y18601052D01*
X120135473Y18710000D01*
X119577027Y18710000D01*
X119029311Y18601052D01*
X118513374Y18387344D01*
X118049043Y18077088D01*
X117654162Y17682207D01*
X117343906Y17217876D01*
X117130198Y16701939D01*
X117021250Y16154223D01*
X21091250Y16154223D01*
X20982302Y16701939D01*
X20768594Y17217876D01*
X20458338Y17682207D01*
X20063457Y18077088D01*
X19599126Y18387344D01*
X19083189Y18601052D01*
X18535473Y18710000D01*
X17977027Y18710000D01*
X17429311Y18601052D01*
X16913374Y18387344D01*
X16449043Y18077088D01*
X16054162Y17682207D01*
X15743906Y17217876D01*
X15530198Y16701939D01*
X15421250Y16154223D01*
X15022500Y16154223D01*
X15022500Y21567376D01*
X15122565Y21868897D01*
X15374683Y22502527D01*
X15663280Y23120427D01*
X15987353Y23720449D01*
X16345834Y24300619D01*
X16737465Y24858898D01*
X17160947Y25393434D01*
X17614841Y25902414D01*
X18097593Y26384093D01*
X18607583Y26836855D01*
X19144501Y27260280D01*
X135759062Y113837758D01*
X137024792Y114752120D01*
X138313260Y115632730D01*
X139624234Y116479451D01*
X140956851Y117291728D01*
X142310181Y118068993D01*
X143683307Y118810720D01*
X145075297Y119516405D01*
X146485176Y120185556D01*
X147912083Y120817761D01*
X149354910Y121412531D01*
X150812815Y121969520D01*
X152284726Y122488314D01*
X153769612Y122968553D01*
X155266547Y123409939D01*
X156774496Y123812163D01*
X158292368Y124174938D01*
X159819221Y124498035D01*
X161353970Y124781226D01*
X162895560Y125024317D01*
X164442993Y125227149D01*
X165995135Y125389575D01*
X167551049Y125511496D01*
X169109534Y125592820D01*
X170669681Y125633497D01*
X172230319Y125633497D01*
X173790466Y125592820D01*
%TA.AperFunction,NonConductor*%
D12*
G36*
X173790466Y125592820D02*
G01*
X175348951Y125511496D01*
X176904865Y125389575D01*
X178457007Y125227149D01*
X180004440Y125024317D01*
X181546030Y124781226D01*
X183080779Y124498035D01*
X184607632Y124174938D01*
X186125504Y123812163D01*
X187633453Y123409939D01*
X189130388Y122968553D01*
X190615274Y122488314D01*
X192087185Y121969520D01*
X193545090Y121412531D01*
X194987917Y120817761D01*
X196414824Y120185556D01*
X197824703Y119516405D01*
X199216693Y118810720D01*
X200589819Y118068993D01*
X201943149Y117291728D01*
X203275766Y116479451D01*
X204586740Y115632730D01*
X205875208Y114752120D01*
X207140938Y113837758D01*
X323753878Y27261483D01*
X324293887Y26836343D01*
X324807677Y26382482D01*
X325294928Y25900316D01*
X325754151Y25391320D01*
X326183836Y24857163D01*
X326582597Y24299573D01*
X326949183Y23720301D01*
X327282414Y23121204D01*
X327581203Y22504240D01*
X327844612Y21871349D01*
X327877500Y21777718D01*
X327877500Y15884285D01*
X327873040Y15707939D01*
X327860532Y15543448D01*
X327841125Y15390712D01*
X327774797Y15066309D01*
X327680578Y14763233D01*
X327558135Y14473651D01*
X327408995Y14199053D01*
X327329732Y14081713D01*
X327198824Y13922489D01*
X326866218Y13580968D01*
X326506098Y13268570D01*
X326197774Y13043534D01*
X326045087Y12960607D01*
X325755512Y12838166D01*
X325452439Y12743947D01*
X325128037Y12677620D01*
X324975297Y12658212D01*
X324810806Y12645704D01*
X324634465Y12641245D01*
X18265534Y12641245D01*
X18089194Y12645704D01*
X17924702Y12658212D01*
X17771965Y12677620D01*
X17456832Y12742051D01*
X17054100Y12982027D01*
X16662211Y13261830D01*
X16294775Y13573033D01*
X15954283Y13913525D01*
X15643080Y14280961D01*
X15363277Y14672850D01*
X15123308Y15075571D01*
X15058874Y15390712D01*
X15039467Y15543448D01*
X15026959Y15707939D01*
X15022500Y15884280D01*
X15022500Y16154223D01*
X15421250Y16154223D01*
X15421250Y15595777D01*
X15530198Y15048061D01*
X15743906Y14532124D01*
X16054162Y14067793D01*
X16449043Y13672912D01*
X16913374Y13362656D01*
X17429311Y13148948D01*
X17977027Y13040000D01*
X18535473Y13040000D01*
X19083189Y13148948D01*
X19599126Y13362656D01*
X20063457Y13672912D01*
X20458338Y14067793D01*
X20768594Y14532124D01*
X20982302Y15048061D01*
X21091250Y15595777D01*
X21091250Y16154223D01*
X117021250Y16154223D01*
X117021250Y15595777D01*
X117130198Y15048061D01*
X117343906Y14532124D01*
X117654162Y14067793D01*
X118049043Y13672912D01*
X118513374Y13362656D01*
X119029311Y13148948D01*
X119577027Y13040000D01*
X120135473Y13040000D01*
X120683189Y13148948D01*
X121199126Y13362656D01*
X121663457Y13672912D01*
X122058338Y14067793D01*
X122368594Y14532124D01*
X122582302Y15048061D01*
X122691250Y15595777D01*
X122691250Y16154223D01*
X220208750Y16154223D01*
X220208750Y15595777D01*
X220317698Y15048061D01*
X220531406Y14532124D01*
X220841662Y14067793D01*
X221236543Y13672912D01*
X221700874Y13362656D01*
X222216811Y13148948D01*
X222764527Y13040000D01*
X223322973Y13040000D01*
X223870689Y13148948D01*
X224386626Y13362656D01*
X224850957Y13672912D01*
X225245838Y14067793D01*
X225556094Y14532124D01*
X225769802Y15048061D01*
X225878750Y15595777D01*
X225878750Y16154223D01*
X321808750Y16154223D01*
X321808750Y15595777D01*
X321917698Y15048061D01*
X322131406Y14532124D01*
X322441662Y14067793D01*
X322836543Y13672912D01*
X323300874Y13362656D01*
X323816811Y13148948D01*
X324364527Y13040000D01*
X324922973Y13040000D01*
X325470689Y13148948D01*
X325986626Y13362656D01*
X326450957Y13672912D01*
X326845838Y14067793D01*
X327156094Y14532124D01*
X327369802Y15048061D01*
X327478750Y15595777D01*
X327478750Y16154223D01*
X327369802Y16701939D01*
X327156094Y17217876D01*
X326845838Y17682207D01*
X326450957Y18077088D01*
X325986626Y18387344D01*
X325470689Y18601052D01*
X324922973Y18710000D01*
X324364527Y18710000D01*
X323816811Y18601052D01*
X323300874Y18387344D01*
X322836543Y18077088D01*
X322441662Y17682207D01*
X322131406Y17217876D01*
X321917698Y16701939D01*
X321808750Y16154223D01*
X225878750Y16154223D01*
X225769802Y16701939D01*
X225556094Y17217876D01*
X225245838Y17682207D01*
X224850957Y18077088D01*
X224386626Y18387344D01*
X223870689Y18601052D01*
X223322973Y18710000D01*
X222764527Y18710000D01*
X222216811Y18601052D01*
X221700874Y18387344D01*
X221236543Y18077088D01*
X220841662Y17682207D01*
X220531406Y17217876D01*
X220317698Y16701939D01*
X220208750Y16154223D01*
X122691250Y16154223D01*
X122582302Y16701939D01*
X122368594Y17217876D01*
X122058338Y17682207D01*
X121663457Y18077088D01*
X121199126Y18387344D01*
X120683189Y18601052D01*
X120135473Y18710000D01*
X119577027Y18710000D01*
X119029311Y18601052D01*
X118513374Y18387344D01*
X118049043Y18077088D01*
X117654162Y17682207D01*
X117343906Y17217876D01*
X117130198Y16701939D01*
X117021250Y16154223D01*
X21091250Y16154223D01*
X20982302Y16701939D01*
X20768594Y17217876D01*
X20458338Y17682207D01*
X20063457Y18077088D01*
X19599126Y18387344D01*
X19083189Y18601052D01*
X18535473Y18710000D01*
X17977027Y18710000D01*
X17429311Y18601052D01*
X16913374Y18387344D01*
X16449043Y18077088D01*
X16054162Y17682207D01*
X15743906Y17217876D01*
X15530198Y16701939D01*
X15421250Y16154223D01*
X15022500Y16154223D01*
X15022500Y21567376D01*
X15122565Y21868897D01*
X15374683Y22502527D01*
X15663280Y23120427D01*
X15987353Y23720449D01*
X16345834Y24300619D01*
X16737465Y24858898D01*
X17160947Y25393434D01*
X17614841Y25902414D01*
X18097593Y26384093D01*
X18607583Y26836855D01*
X19144501Y27260280D01*
X135759062Y113837758D01*
X137024792Y114752120D01*
X138313260Y115632730D01*
X139624234Y116479451D01*
X140956851Y117291728D01*
X142310181Y118068993D01*
X143683307Y118810720D01*
X145075297Y119516405D01*
X146485176Y120185556D01*
X147912083Y120817761D01*
X149354910Y121412531D01*
X150812815Y121969520D01*
X152284726Y122488314D01*
X153769612Y122968553D01*
X155266547Y123409939D01*
X156774496Y123812163D01*
X158292368Y124174938D01*
X159819221Y124498035D01*
X161353970Y124781226D01*
X162895560Y125024317D01*
X164442993Y125227149D01*
X165995135Y125389575D01*
X167551049Y125511496D01*
X169109534Y125592820D01*
X170669681Y125633497D01*
X172230319Y125633497D01*
X173790466Y125592820D01*
G37*
%TD.AperFunction*%
M02*
