  0
SECTION
  2
HEADER
  9
$ACADVER
  1
AC1014
  9
$HANDSEED
  5
FFFF
  9
$MEASUREMENT
 70
     1
  0
ENDSEC
  0
SECTION
  2
TABLES
  0
TABLE
  2
VPORT
  5
8
330
0
100
AcDbSymbolTable
 70
     4
  0
VPORT
  5
2E
330
8
100
AcDbSymbolTableRecord
100
AcDbViewportTableRecord
  2
*ACTIVE
 70
     0
 10
0.0
 20
0.0
 11
1.0
 21
1.0
 12
210.0
 22
148.5
 13
0.0
 23
0.0
 14
10.0
 24
10.0
 15
10.0
 25
10.0
 16
0.0
 26
0.0
 36
1.0
 17
0.0
 27
0.0
 37
0.0
 40
341.0
 41
1.24
 42
50.0
 43
0.0
 44
0.0
 50
0.0
 51
0.0
 71
     0
 72
   100
 73
     1
 74
     3
 75
     0
 76
     0
 77
     0
 78
     0
  0
ENDTAB
  0
TABLE
  2
LTYPE
  5
5
330
0
100
AcDbSymbolTable
 70
     1
  0
LTYPE
  5
14
330
5
100
AcDbSymbolTableRecord
100
AcDbLinetypeTableRecord
  2
BYBLOCK
 70
     0
  3

 72
    65
 73
     0
 40
0.0
  0
LTYPE
  5
15
330
5
100
AcDbSymbolTableRecord
100
AcDbLinetypeTableRecord
  2
BYLAYER
 70
     0
  3

 72
    65
 73
     0
 40
0.0
  0
LTYPE
  5
16
330
5
100
AcDbSymbolTableRecord
100
AcDbLinetypeTableRecord
  2
CONTINUOUS
 70
     0
  3
Solid line
 72
    65
 73
     0
 40
0.0
  0
ENDTAB
  0
TABLE
  2
LAYER
  5
2
100
AcDbSymbolTable
 70
2
  0
LAYER
  5
50
100
AcDbSymbolTableRecord
100
AcDbLayerTableRecord
  2
0
 70
0
  6
CONTINUOUS
  0
LAYER
  5
51
100
AcDbSymbolTableRecord
100
AcDbLayerTableRecord
  2
BottomGlasses
 70
0
  6
CONTINUOUS
  0
ENDTAB
  0
TABLE
  2
STYLE
  5
3
330
0
100
AcDbSymbolTable
 70
     1
  0
STYLE
  5
11
330
3
100
AcDbSymbolTableRecord
100
AcDbTextStyleTableRecord
  2
STANDARD
 70
     0
 40
0.0
 41
1.0
 50
0.0
 71
     0
 42
2.5
  3
txt
  4

  0
ENDTAB
  0
TABLE
  2
VIEW
  5
6
330
0
100
AcDbSymbolTable
 70
     0
  0
ENDTAB
  0
TABLE
  2
UCS
  5
7
330
0
100
AcDbSymbolTable
 70
     0
  0
ENDTAB
  0
TABLE
  2
APPID
  5
9
330
0
100
AcDbSymbolTable
 70
     2
  0
APPID
  5
12
330
9
100
AcDbSymbolTableRecord
100
AcDbRegAppTableRecord
  2
ACAD
 70
     0
  0
ENDTAB
  0
TABLE
  2
DIMSTYLE
  5
A
330
0
100
AcDbSymbolTable
 70
     1
  0
DIMSTYLE
105
27
330
A
100
AcDbSymbolTableRecord
100
AcDbDimStyleTableRecord
  2
ISO-25
 70
     0
  3

  4

  5

  6

  7

 40
1.0
 41
2.5
 42
0.625
 43
3.75
 44
1.25
 45
0.0
 46
0.0
 47
0.0
 48
0.0
140
2.5
141
2.5
142
0.0
143
0.03937007874016
144
1.0
145
0.0
146
1.0
147
0.625
 71
     0
 72
     0
 73
     0
 74
     0
 75
     0
 76
     0
 77
     1
 78
     8
170
     0
171
     3
172
     1
173
     0
174
     0
175
     0
176
     0
177
     0
178
     0
270
     2
271
     2
272
     2
273
     2
274
     3
340
11
275
     0
280
     0
281
     0
282
     0
283
     0
284
     8
285
     0
286
     0
287
     3
288
     0
  0
ENDTAB
  0
TABLE
  2
BLOCK_RECORD
  5
1
330
0
100
AcDbSymbolTable
 70
     1
  0
BLOCK_RECORD
  5
1F
330
1
100
AcDbSymbolTableRecord
100
AcDbBlockTableRecord
  2
*MODEL_SPACE
  0
BLOCK_RECORD
  5
1B
330
1
100
AcDbSymbolTableRecord
100
AcDbBlockTableRecord
  2
*PAPER_SPACE
  0
ENDTAB
  0
ENDSEC
  0
SECTION
  2
BLOCKS
  0
BLOCK
  5
20
330
1F
100
AcDbEntity
  8
0
100
AcDbBlockBegin
  2
*MODEL_SPACE
 70
     0
 10
0.0
 20
0.0
 30
0.0
  3
*MODEL_SPACE
  1

  0
ENDBLK
  5
21
330
1F
100
AcDbEntity
  8
0
100
AcDbBlockEnd
  0
BLOCK
  5
1C
330
1B
100
AcDbEntity
 67
     1
  8
0
100
AcDbBlockBegin
  2
*PAPER_SPACE
  1

  0
ENDBLK
  5
1D
330
1B
100
AcDbEntity
 67
     1
  8
0
100
AcDbBlockEnd
  0
ENDSEC
  0
SECTION
  2
ENTITIES
  0
SPLINE
  5
100
100
AcDbEntity
  8
BottomGlasses
 62
7
100
AcDbSpline
 70
8
 71
3
 72
8
 73
4
 74
0
 40
0
 40
0
 40
0
 40
0
 40
1
 40
1
 40
1
 40
1
 10
44.098644
 20
103.832843
 30
0.0
 10
44.098644
 20
103.832843
 30
0.0
 10
43.885903
 20
110.156826
 30
0.0
 10
44.874814
 20
112.055626
 30
0.0
  0
SPLINE
  5
101
100
AcDbEntity
  8
BottomGlasses
 62
7
100
AcDbSpline
 70
8
 71
3
 72
8
 73
4
 74
0
 40
0
 40
0
 40
0
 40
0
 40
1
 40
1
 40
1
 40
1
 10
44.874814
 20
112.055626
 30
0.0
 10
46.284427
 20
114.762851
 30
0.0
 10
47.815964
 20
116.353587
 30
0.0
 10
50.363003
 20
117.427695
 30
0.0
  0
SPLINE
  5
102
100
AcDbEntity
  8
BottomGlasses
 62
7
100
AcDbSpline
 70
8
 71
3
 72
8
 73
4
 74
0
 40
0
 40
0
 40
0
 40
0
 40
1
 40
1
 40
1
 40
1
 10
50.363003
 20
117.427695
 30
0.0
 10
59.297402
 20
121.195565
 30
0.0
 10
72.032196
 20
120.647000
 30
0.0
 10
80.571811
 20
121.188723
 30
0.0
  0
SPLINE
  5
103
100
AcDbEntity
  8
BottomGlasses
 62
7
100
AcDbSpline
 70
8
 71
3
 72
8
 73
4
 74
0
 40
0
 40
0
 40
0
 40
0
 40
1
 40
1
 40
1
 40
1
 10
80.571811
 20
121.188723
 30
0.0
 10
93.193705
 20
121.768951
 30
0.0
 10
98.758710
 20
121.570339
 30
0.0
 10
110.939435
 20
120.601027
 30
0.0
  0
SPLINE
  5
104
100
AcDbEntity
  8
BottomGlasses
 62
7
100
AcDbSpline
 70
8
 71
3
 72
8
 73
4
 74
0
 40
0
 40
0
 40
0
 40
0
 40
1
 40
1
 40
1
 40
1
 10
110.939435
 20
120.601027
 30
0.0
 10
118.090845
 20
120.031967
 30
0.0
 10
132.681337
 20
119.188793
 30
0.0
 10
139.541642
 20
117.091555
 30
0.0
  0
SPLINE
  5
105
100
AcDbEntity
  8
BottomGlasses
 62
7
100
AcDbSpline
 70
8
 71
3
 72
8
 73
4
 74
0
 40
0
 40
0
 40
0
 40
0
 40
1
 40
1
 40
1
 40
1
 10
139.541642
 20
117.091555
 30
0.0
 10
142.983676
 20
116.039306
 30
0.0
 10
145.473895
 20
114.536600
 30
0.0
 10
148.158880
 20
112.140844
 30
0.0
  0
SPLINE
  5
106
100
AcDbEntity
  8
BottomGlasses
 62
7
100
AcDbSpline
 70
8
 71
3
 72
8
 73
4
 74
0
 40
0
 40
0
 40
0
 40
0
 40
1
 40
1
 40
1
 40
1
 10
148.158880
 20
112.140844
 30
0.0
 10
148.932424
 20
111.450706
 30
0.0
 10
150.093750
 20
110.594944
 30
0.0
 10
150.523878
 20
109.652059
 30
0.0
  0
SPLINE
  5
107
100
AcDbEntity
  8
BottomGlasses
 62
7
100
AcDbSpline
 70
8
 71
3
 72
8
 73
4
 74
0
 40
0
 40
0
 40
0
 40
0
 40
1
 40
1
 40
1
 40
1
 10
150.523878
 20
109.652059
 30
0.0
 10
152.135192
 20
106.119725
 30
0.0
 10
152.986966
 20
98.485681
 30
0.0
 10
152.986966
 20
98.485681
 30
0.0
  0
LWPOLYLINE
  5
108
100
AcDbEntity
  8
BottomGlasses
 62
7
100
AcDbPolyline
 90
3
 70
0
 10
28.565357
 20
118.967951
 30
0.0
 10
30.466700
 20
101.978724
 30
0.0
 10
44.098644
 20
103.832843
 30
0.0
  0
SPLINE
  5
109
100
AcDbEntity
  8
BottomGlasses
 62
7
100
AcDbSpline
 70
8
 71
3
 72
8
 73
4
 74
0
 40
0
 40
0
 40
0
 40
0
 40
1
 40
1
 40
1
 40
1
 10
158.064214
 20
98.658996
 30
0.0
 10
158.064214
 20
98.658996
 30
0.0
 10
159.314676
 20
105.307043
 30
0.0
 10
158.488351
 20
108.476943
 30
0.0
  0
SPLINE
  5
10a
100
AcDbEntity
  8
BottomGlasses
 62
7
100
AcDbSpline
 70
8
 71
3
 72
8
 73
4
 74
0
 40
0
 40
0
 40
0
 40
0
 40
1
 40
1
 40
1
 40
1
 10
158.488351
 20
108.476943
 30
0.0
 10
157.723693
 20
111.410412
 30
0.0
 10
156.812339
 20
113.619154
 30
0.0
 10
153.709950
 20
116.216388
 30
0.0
  0
SPLINE
  5
10b
100
AcDbEntity
  8
BottomGlasses
 62
7
100
AcDbSpline
 70
8
 71
3
 72
8
 73
4
 74
0
 40
0
 40
0
 40
0
 40
0
 40
1
 40
1
 40
1
 40
1
 10
153.709950
 20
116.216388
 30
0.0
 10
148.457593
 20
120.613588
 30
0.0
 10
142.753498
 20
122.358800
 30
0.0
 10
136.033092
 20
123.693554
 30
0.0
  0
SPLINE
  5
10c
100
AcDbEntity
  8
BottomGlasses
 62
7
100
AcDbSpline
 70
8
 71
3
 72
8
 73
4
 74
0
 40
0
 40
0
 40
0
 40
0
 40
1
 40
1
 40
1
 40
1
 10
136.033092
 20
123.693554
 30
0.0
 10
124.774089
 20
125.929727
 30
0.0
 10
114.207641
 20
126.691296
 30
0.0
 10
101.107349
 20
127.106451
 30
0.0
  0
SPLINE
  5
10d
100
AcDbEntity
  8
BottomGlasses
 62
7
100
AcDbSpline
 70
8
 71
3
 72
8
 73
4
 74
0
 40
0
 40
0
 40
0
 40
0
 40
1
 40
1
 40
1
 40
1
 10
101.107349
 20
127.106451
 30
0.0
 10
90.417632
 20
127.445209
 30
0.0
 10
80.641087
 20
127.555079
 30
0.0
 10
69.950360
 20
127.250970
 30
0.0
  0
SPLINE
  5
10e
100
AcDbEntity
  8
BottomGlasses
 62
7
100
AcDbSpline
 70
8
 71
3
 72
8
 73
4
 74
0
 40
0
 40
0
 40
0
 40
0
 40
1
 40
1
 40
1
 40
1
 10
69.950360
 20
127.250970
 30
0.0
 10
63.873025
 20
127.078059
 30
0.0
 10
50.635258
 20
125.687409
 30
0.0
 10
45.361157
 20
124.492390
 30
0.0
  0
SPLINE
  5
10f
100
AcDbEntity
  8
BottomGlasses
 62
7
100
AcDbSpline
 70
8
 71
3
 72
8
 73
4
 74
0
 40
0
 40
0
 40
0
 40
0
 40
1
 40
1
 40
1
 40
1
 10
45.361157
 20
124.492390
 30
0.0
 10
38.923979
 20
122.946934
 30
0.0
 10
33.072176
 20
120.920637
 30
0.0
 10
28.565357
 20
118.967951
 30
0.0
  0
LWPOLYLINE
  5
110
100
AcDbEntity
  8
BottomGlasses
 62
7
100
AcDbPolyline
 90
2
 70
0
 10
152.986966
 20
98.485681
 30
0.0
 10
158.064214
 20
98.658996
 30
0.0
  0
LWPOLYLINE
  5
111
100
AcDbEntity
  8
BottomGlasses
 62
7
100
AcDbPolyline
 90
1
 70
1
 10
28.565357
 20
118.967951
 30
0.0
  0
SPLINE
  5
112
100
AcDbEntity
  8
BottomGlasses
 62
7
100
AcDbSpline
 70
8
 71
3
 72
8
 73
4
 74
0
 40
0
 40
0
 40
0
 40
0
 40
1
 40
1
 40
1
 40
1
 10
298.781612
 20
103.832863
 30
0.0
 10
298.781612
 20
103.832863
 30
0.0
 10
298.994354
 20
110.156846
 30
0.0
 10
298.005443
 20
112.055640
 30
0.0
  0
SPLINE
  5
113
100
AcDbEntity
  8
BottomGlasses
 62
7
100
AcDbSpline
 70
8
 71
3
 72
8
 73
4
 74
0
 40
0
 40
0
 40
0
 40
0
 40
1
 40
1
 40
1
 40
1
 10
298.005443
 20
112.055640
 30
0.0
 10
296.595829
 20
114.762871
 30
0.0
 10
295.064293
 20
116.353607
 30
0.0
 10
292.517253
 20
117.427716
 30
0.0
  0
SPLINE
  5
114
100
AcDbEntity
  8
BottomGlasses
 62
7
100
AcDbSpline
 70
8
 71
3
 72
8
 73
4
 74
0
 40
0
 40
0
 40
0
 40
0
 40
1
 40
1
 40
1
 40
1
 10
292.517253
 20
117.427716
 30
0.0
 10
283.582855
 20
121.195579
 30
0.0
 10
270.848060
 20
120.647013
 30
0.0
 10
262.308445
 20
121.188743
 30
0.0
  0
SPLINE
  5
115
100
AcDbEntity
  8
BottomGlasses
 62
7
100
AcDbSpline
 70
8
 71
3
 72
8
 73
4
 74
0
 40
0
 40
0
 40
0
 40
0
 40
1
 40
1
 40
1
 40
1
 10
262.308445
 20
121.188743
 30
0.0
 10
249.686551
 20
121.768971
 30
0.0
 10
244.121546
 20
121.570359
 30
0.0
 10
231.940821
 20
120.601047
 30
0.0
  0
SPLINE
  5
116
100
AcDbEntity
  8
BottomGlasses
 62
7
100
AcDbSpline
 70
8
 71
3
 72
8
 73
4
 74
0
 40
0
 40
0
 40
0
 40
0
 40
1
 40
1
 40
1
 40
1
 10
231.940821
 20
120.601047
 30
0.0
 10
224.789411
 20
120.031987
 30
0.0
 10
210.198919
 20
119.188813
 30
0.0
 10
203.338615
 20
117.091568
 30
0.0
  0
SPLINE
  5
117
100
AcDbEntity
  8
BottomGlasses
 62
7
100
AcDbSpline
 70
8
 71
3
 72
8
 73
4
 74
0
 40
0
 40
0
 40
0
 40
0
 40
1
 40
1
 40
1
 40
1
 10
203.338615
 20
117.091568
 30
0.0
 10
199.896580
 20
116.039326
 30
0.0
 10
197.406361
 20
114.536620
 30
0.0
 10
194.721376
 20
112.140857
 30
0.0
  0
SPLINE
  5
118
100
AcDbEntity
  8
BottomGlasses
 62
7
100
AcDbSpline
 70
8
 71
3
 72
8
 73
4
 74
0
 40
0
 40
0
 40
0
 40
0
 40
1
 40
1
 40
1
 40
1
 10
194.721376
 20
112.140857
 30
0.0
 10
193.947832
 20
111.450726
 30
0.0
 10
192.786506
 20
110.594957
 30
0.0
 10
192.356378
 20
109.652080
 30
0.0
  0
SPLINE
  5
119
100
AcDbEntity
  8
BottomGlasses
 62
7
100
AcDbSpline
 70
8
 71
3
 72
8
 73
4
 74
0
 40
0
 40
0
 40
0
 40
0
 40
1
 40
1
 40
1
 40
1
 10
192.356378
 20
109.652080
 30
0.0
 10
190.744997
 20
106.119745
 30
0.0
 10
189.893291
 20
98.485702
 30
0.0
 10
189.893291
 20
98.485702
 30
0.0
  0
LWPOLYLINE
  5
11a
100
AcDbEntity
  8
BottomGlasses
 62
7
100
AcDbPolyline
 90
3
 70
0
 10
314.314899
 20
118.967971
 30
0.0
 10
312.413556
 20
101.978744
 30
0.0
 10
298.781612
 20
103.832863
 30
0.0
  0
SPLINE
  5
11b
100
AcDbEntity
  8
BottomGlasses
 62
7
100
AcDbSpline
 70
8
 71
3
 72
8
 73
4
 74
0
 40
0
 40
0
 40
0
 40
0
 40
1
 40
1
 40
1
 40
1
 10
184.816042
 20
98.659016
 30
0.0
 10
184.816042
 20
98.659016
 30
0.0
 10
183.565580
 20
105.307063
 30
0.0
 10
184.391906
 20
108.476963
 30
0.0
  0
SPLINE
  5
11c
100
AcDbEntity
  8
BottomGlasses
 62
7
100
AcDbSpline
 70
8
 71
3
 72
8
 73
4
 74
0
 40
0
 40
0
 40
0
 40
0
 40
1
 40
1
 40
1
 40
1
 10
184.391906
 20
108.476963
 30
0.0
 10
185.156563
 20
111.410432
 30
0.0
 10
186.067917
 20
113.619174
 30
0.0
 10
189.170306
 20
116.216409
 30
0.0
  0
SPLINE
  5
11d
100
AcDbEntity
  8
BottomGlasses
 62
7
100
AcDbSpline
 70
8
 71
3
 72
8
 73
4
 74
0
 40
0
 40
0
 40
0
 40
0
 40
1
 40
1
 40
1
 40
1
 10
189.170306
 20
116.216409
 30
0.0
 10
194.422663
 20
120.613608
 30
0.0
 10
200.126758
 20
122.358821
 30
0.0
 10
206.847165
 20
123.693574
 30
0.0
  0
SPLINE
  5
11e
100
AcDbEntity
  8
BottomGlasses
 62
7
100
AcDbSpline
 70
8
 71
3
 72
8
 73
4
 74
0
 40
0
 40
0
 40
0
 40
0
 40
1
 40
1
 40
1
 40
1
 10
206.847165
 20
123.693574
 30
0.0
 10
218.106167
 20
125.929747
 30
0.0
 10
228.672615
 20
126.691317
 30
0.0
 10
241.772908
 20
127.106472
 30
0.0
  0
SPLINE
  5
11f
100
AcDbEntity
  8
BottomGlasses
 62
7
100
AcDbSpline
 70
8
 71
3
 72
8
 73
4
 74
0
 40
0
 40
0
 40
0
 40
0
 40
1
 40
1
 40
1
 40
1
 10
241.772908
 20
127.106472
 30
0.0
 10
252.462625
 20
127.445230
 30
0.0
 10
262.239169
 20
127.555099
 30
0.0
 10
272.929896
 20
127.250990
 30
0.0
  0
SPLINE
  5
120
100
AcDbEntity
  8
BottomGlasses
 62
7
100
AcDbSpline
 70
8
 71
3
 72
8
 73
4
 74
0
 40
0
 40
0
 40
0
 40
0
 40
1
 40
1
 40
1
 40
1
 10
272.929896
 20
127.250990
 30
0.0
 10
279.007231
 20
127.078079
 30
0.0
 10
292.244998
 20
125.687429
 30
0.0
 10
297.519100
 20
124.492411
 30
0.0
  0
SPLINE
  5
121
100
AcDbEntity
  8
BottomGlasses
 62
7
100
AcDbSpline
 70
8
 71
3
 72
8
 73
4
 74
0
 40
0
 40
0
 40
0
 40
0
 40
1
 40
1
 40
1
 40
1
 10
297.519100
 20
124.492411
 30
0.0
 10
303.956278
 20
122.946954
 30
0.0
 10
309.808080
 20
120.920650
 30
0.0
 10
314.314899
 20
118.967971
 30
0.0
  0
LWPOLYLINE
  5
122
100
AcDbEntity
  8
BottomGlasses
 62
7
100
AcDbPolyline
 90
2
 70
0
 10
189.893291
 20
98.485702
 30
0.0
 10
184.816042
 20
98.659016
 30
0.0
  0
SPLINE
  5
123
100
AcDbEntity
  8
BottomGlasses
 62
7
100
AcDbSpline
 70
8
 71
3
 72
8
 73
4
 74
0
 40
0
 40
0
 40
0
 40
0
 40
1
 40
1
 40
1
 40
1
 10
40.689800
 20
110.633482
 30
0.0
 10
40.689800
 20
110.633482
 30
0.0
 10
40.024646
 20
94.545176
 30
0.0
 10
39.752122
 20
86.953418
 30
0.0
  0
SPLINE
  5
124
100
AcDbEntity
  8
BottomGlasses
 62
7
100
AcDbSpline
 70
8
 71
3
 72
8
 73
4
 74
0
 40
0
 40
0
 40
0
 40
0
 40
1
 40
1
 40
1
 40
1
 10
39.752122
 20
86.953418
 30
0.0
 10
39.337411
 20
75.398265
 30
0.0
 10
41.012615
 20
64.172088
 30
0.0
 10
45.429153
 20
54.447723
 30
0.0
  0
SPLINE
  5
125
100
AcDbEntity
  8
BottomGlasses
 62
7
100
AcDbSpline
 70
8
 71
3
 72
8
 73
4
 74
0
 40
0
 40
0
 40
0
 40
0
 40
1
 40
1
 40
1
 40
1
 10
45.429153
 20
54.447723
 30
0.0
 10
49.099144
 20
46.367097
 30
0.0
 10
59.210353
 20
38.772607
 30
0.0
 10
64.634047
 20
36.442141
 30
0.0
  0
SPLINE
  5
126
100
AcDbEntity
  8
BottomGlasses
 62
7
100
AcDbSpline
 70
8
 71
3
 72
8
 73
4
 74
0
 40
0
 40
0
 40
0
 40
0
 40
1
 40
1
 40
1
 40
1
 10
64.634047
 20
36.442141
 30
0.0
 10
75.167237
 20
31.916227
 30
0.0
 10
95.252584
 20
32.348215
 30
0.0
 10
98.407081
 20
32.158269
 30
0.0
  0
SPLINE
  5
127
100
AcDbEntity
  8
BottomGlasses
 62
7
100
AcDbSpline
 70
8
 71
3
 72
8
 73
4
 74
0
 40
0
 40
0
 40
0
 40
0
 40
1
 40
1
 40
1
 40
1
 10
98.407081
 20
32.158269
 30
0.0
 10
100.540285
 20
32.029830
 30
0.0
 10
119.602655
 20
33.005325
 30
0.0
 10
127.421306
 20
38.983344
 30
0.0
  0
SPLINE
  5
128
100
AcDbEntity
  8
BottomGlasses
 62
7
100
AcDbSpline
 70
8
 71
3
 72
8
 73
4
 74
0
 40
0
 40
0
 40
0
 40
0
 40
1
 40
1
 40
1
 40
1
 10
127.421306
 20
38.983344
 30
0.0
 10
133.990707
 20
44.006233
 30
0.0
 10
139.391376
 20
50.801099
 30
0.0
 10
143.148753
 20
58.165321
 30
0.0
  0
SPLINE
  5
129
100
AcDbEntity
  8
BottomGlasses
 62
7
100
AcDbSpline
 70
8
 71
3
 72
8
 73
4
 74
0
 40
0
 40
0
 40
0
 40
0
 40
1
 40
1
 40
1
 40
1
 10
143.148753
 20
58.165321
 30
0.0
 10
150.172249
 20
71.930797
 30
0.0
 10
153.927875
 20
98.539344
 30
0.0
 10
154.921768
 20
103.002432
 30
0.0
  0
SPLINE
  5
12a
100
AcDbEntity
  8
BottomGlasses
 62
7
100
AcDbSpline
 70
8
 71
3
 72
8
 73
4
 74
0
 40
0
 40
0
 40
0
 40
0
 40
1
 40
1
 40
1
 40
1
 10
302.190457
 20
110.633482
 30
0.0
 10
302.190457
 20
110.633482
 30
0.0
 10
302.855610
 20
94.545176
 30
0.0
 10
303.128134
 20
86.953418
 30
0.0
  0
SPLINE
  5
12b
100
AcDbEntity
  8
BottomGlasses
 62
7
100
AcDbSpline
 70
8
 71
3
 72
8
 73
4
 74
0
 40
0
 40
0
 40
0
 40
0
 40
1
 40
1
 40
1
 40
1
 10
303.128134
 20
86.953418
 30
0.0
 10
303.542846
 20
75.398265
 30
0.0
 10
301.867642
 20
64.172088
 30
0.0
 10
297.451103
 20
54.447723
 30
0.0
  0
SPLINE
  5
12c
100
AcDbEntity
  8
BottomGlasses
 62
7
100
AcDbSpline
 70
8
 71
3
 72
8
 73
4
 74
0
 40
0
 40
0
 40
0
 40
0
 40
1
 40
1
 40
1
 40
1
 10
297.451103
 20
54.447723
 30
0.0
 10
293.781112
 20
46.367097
 30
0.0
 10
283.669904
 20
38.772607
 30
0.0
 10
278.246210
 20
36.442141
 30
0.0
  0
SPLINE
  5
12d
100
AcDbEntity
  8
BottomGlasses
 62
7
100
AcDbSpline
 70
8
 71
3
 72
8
 73
4
 74
0
 40
0
 40
0
 40
0
 40
0
 40
1
 40
1
 40
1
 40
1
 10
278.246210
 20
36.442141
 30
0.0
 10
267.713019
 20
31.916227
 30
0.0
 10
247.627672
 20
32.348215
 30
0.0
 10
244.473175
 20
32.158269
 30
0.0
  0
SPLINE
  5
12e
100
AcDbEntity
  8
BottomGlasses
 62
7
100
AcDbSpline
 70
8
 71
3
 72
8
 73
4
 74
0
 40
0
 40
0
 40
0
 40
0
 40
1
 40
1
 40
1
 40
1
 10
244.473175
 20
32.158269
 30
0.0
 10
242.339971
 20
32.029830
 30
0.0
 10
223.277601
 20
33.005325
 30
0.0
 10
215.458950
 20
38.983344
 30
0.0
  0
SPLINE
  5
12f
100
AcDbEntity
  8
BottomGlasses
 62
7
100
AcDbSpline
 70
8
 71
3
 72
8
 73
4
 74
0
 40
0
 40
0
 40
0
 40
0
 40
1
 40
1
 40
1
 40
1
 10
215.458950
 20
38.983344
 30
0.0
 10
208.889550
 20
44.006233
 30
0.0
 10
203.488880
 20
50.801099
 30
0.0
 10
199.731503
 20
58.165321
 30
0.0
  0
SPLINE
  5
130
100
AcDbEntity
  8
BottomGlasses
 62
7
100
AcDbSpline
 70
8
 71
3
 72
8
 73
4
 74
0
 40
0
 40
0
 40
0
 40
0
 40
1
 40
1
 40
1
 40
1
 10
199.731503
 20
58.165321
 30
0.0
 10
192.708007
 20
71.930797
 30
0.0
 10
188.952381
 20
98.539344
 30
0.0
 10
187.958488
 20
103.002432
 30
0.0
  0
LWPOLYLINE
  5
131
100
AcDbEntity
  8
BottomGlasses
 62
7
100
AcDbPolyline
 90
1
 70
1
 10
314.314899
 20
118.967971
 30
0.0
  0
SPLINE
  5
132
100
AcDbEntity
  8
BottomGlasses
 62
7
100
AcDbSpline
 70
8
 71
3
 72
8
 73
4
 74
0
 40
0
 40
0
 40
0
 40
0
 40
1
 40
1
 40
1
 40
1
 10
152.170873
 20
97.780459
 30
0.0
 10
152.170873
 20
97.780459
 30
0.0
 10
165.047989
 20
99.720537
 30
0.0
 10
171.535189
 20
99.720537
 30
0.0
  0
SPLINE
  5
133
100
AcDbEntity
  8
BottomGlasses
 62
7
100
AcDbSpline
 70
8
 71
3
 72
8
 73
4
 74
0
 40
0
 40
0
 40
0
 40
0
 40
1
 40
1
 40
1
 40
1
 10
171.535189
 20
99.720537
 30
0.0
 10
178.022320
 20
99.720537
 30
0.0
 10
190.804309
 20
97.780459
 30
0.0
 10
190.804309
 20
97.780459
 30
0.0
  0
LWPOLYLINE
  5
134
100
AcDbEntity
  8
BottomGlasses
 62
7
100
AcDbPolyline
 90
2
 70
0
 10
151.502354
 20
101.715744
 30
0.0
 10
152.170873
 20
97.780459
 30
0.0
  0
SPLINE
  5
135
100
AcDbEntity
  8
BottomGlasses
 62
7
100
AcDbSpline
 70
8
 71
3
 72
8
 73
4
 74
0
 40
0
 40
0
 40
0
 40
0
 40
1
 40
1
 40
1
 40
1
 10
191.472828
 20
101.715744
 30
0.0
 10
191.472828
 20
101.715744
 30
0.0
 10
177.983879
 20
103.321517
 30
0.0
 10
171.213316
 20
103.210914
 30
0.0
  0
SPLINE
  5
136
100
AcDbEntity
  8
BottomGlasses
 62
7
100
AcDbSpline
 70
8
 71
3
 72
8
 73
4
 74
0
 40
0
 40
0
 40
0
 40
0
 40
1
 40
1
 40
1
 40
1
 10
171.213316
 20
103.210914
 30
0.0
 10
164.375767
 20
103.112281
 30
0.0
 10
151.502421
 20
101.715744
 30
0.0
 10
151.502421
 20
101.715744
 30
0.0
  0
LWPOLYLINE
  5
137
100
AcDbEntity
  8
BottomGlasses
 62
7
100
AcDbPolyline
 90
2
 70
0
 10
190.804309
 20
97.780459
 30
0.0
 10
191.472828
 20
101.715744
 30
0.0
  0
LWPOLYLINE
  5
138
100
AcDbEntity
  8
BottomGlasses
 62
7
100
AcDbPolyline
 90
1
 70
1
 10
151.502421
 20
101.715744
 30
0.0
  0
ENDSEC
  0
SECTION
  2
OBJECTS
  0
DICTIONARY
  5
C
330
0
100
AcDbDictionary
  3
ACAD_GROUP
350
D
  3
ACAD_MLINESTYLE
350
17
  0
DICTIONARY
  5
D
330
C
100
AcDbDictionary
  0
DICTIONARY
  5
1A
330
C
100
AcDbDictionary
  0
DICTIONARY
  5
17
330
C
100
AcDbDictionary
  3
STANDARD
350
18
  0
DICTIONARY
  5
19
330
C
100
AcDbDictionary
  0
ENDSEC
  0
EOF
