  0
SECTION
  2
HEADER
  9
$ACADVER
  1
AC1014
  9
$HANDSEED
  5
FFFF
  9
$MEASUREMENT
 70
     1
  0
ENDSEC
  0
SECTION
  2
TABLES
  0
TABLE
  2
VPORT
  5
8
330
0
100
AcDbSymbolTable
 70
     4
  0
VPORT
  5
2E
330
8
100
AcDbSymbolTableRecord
100
AcDbViewportTableRecord
  2
*ACTIVE
 70
     0
 10
0.0
 20
0.0
 11
1.0
 21
1.0
 12
210.0
 22
148.5
 13
0.0
 23
0.0
 14
10.0
 24
10.0
 15
10.0
 25
10.0
 16
0.0
 26
0.0
 36
1.0
 17
0.0
 27
0.0
 37
0.0
 40
341.0
 41
1.24
 42
50.0
 43
0.0
 44
0.0
 50
0.0
 51
0.0
 71
     0
 72
   100
 73
     1
 74
     3
 75
     0
 76
     0
 77
     0
 78
     0
  0
ENDTAB
  0
TABLE
  2
LTYPE
  5
5
330
0
100
AcDbSymbolTable
 70
     1
  0
LTYPE
  5
14
330
5
100
AcDbSymbolTableRecord
100
AcDbLinetypeTableRecord
  2
BYBLOCK
 70
     0
  3

 72
    65
 73
     0
 40
0.0
  0
LTYPE
  5
15
330
5
100
AcDbSymbolTableRecord
100
AcDbLinetypeTableRecord
  2
BYLAYER
 70
     0
  3

 72
    65
 73
     0
 40
0.0
  0
LTYPE
  5
16
330
5
100
AcDbSymbolTableRecord
100
AcDbLinetypeTableRecord
  2
CONTINUOUS
 70
     0
  3
Solid line
 72
    65
 73
     0
 40
0.0
  0
ENDTAB
  0
TABLE
  2
LAYER
  5
2
100
AcDbSymbolTable
 70
2
  0
LAYER
  5
50
100
AcDbSymbolTableRecord
100
AcDbLayerTableRecord
  2
0
 70
0
  6
CONTINUOUS
  0
LAYER
  5
51
100
AcDbSymbolTableRecord
100
AcDbLayerTableRecord
  2
BottomGlasses
 70
0
  6
CONTINUOUS
  0
ENDTAB
  0
TABLE
  2
STYLE
  5
3
330
0
100
AcDbSymbolTable
 70
     1
  0
STYLE
  5
11
330
3
100
AcDbSymbolTableRecord
100
AcDbTextStyleTableRecord
  2
STANDARD
 70
     0
 40
0.0
 41
1.0
 50
0.0
 71
     0
 42
2.5
  3
txt
  4

  0
ENDTAB
  0
TABLE
  2
VIEW
  5
6
330
0
100
AcDbSymbolTable
 70
     0
  0
ENDTAB
  0
TABLE
  2
UCS
  5
7
330
0
100
AcDbSymbolTable
 70
     0
  0
ENDTAB
  0
TABLE
  2
APPID
  5
9
330
0
100
AcDbSymbolTable
 70
     2
  0
APPID
  5
12
330
9
100
AcDbSymbolTableRecord
100
AcDbRegAppTableRecord
  2
ACAD
 70
     0
  0
ENDTAB
  0
TABLE
  2
DIMSTYLE
  5
A
330
0
100
AcDbSymbolTable
 70
     1
  0
DIMSTYLE
105
27
330
A
100
AcDbSymbolTableRecord
100
AcDbDimStyleTableRecord
  2
ISO-25
 70
     0
  3

  4

  5

  6

  7

 40
1.0
 41
2.5
 42
0.625
 43
3.75
 44
1.25
 45
0.0
 46
0.0
 47
0.0
 48
0.0
140
2.5
141
2.5
142
0.0
143
0.03937007874016
144
1.0
145
0.0
146
1.0
147
0.625
 71
     0
 72
     0
 73
     0
 74
     0
 75
     0
 76
     0
 77
     1
 78
     8
170
     0
171
     3
172
     1
173
     0
174
     0
175
     0
176
     0
177
     0
178
     0
270
     2
271
     2
272
     2
273
     2
274
     3
340
11
275
     0
280
     0
281
     0
282
     0
283
     0
284
     8
285
     0
286
     0
287
     3
288
     0
  0
ENDTAB
  0
TABLE
  2
BLOCK_RECORD
  5
1
330
0
100
AcDbSymbolTable
 70
     1
  0
BLOCK_RECORD
  5
1F
330
1
100
AcDbSymbolTableRecord
100
AcDbBlockTableRecord
  2
*MODEL_SPACE
  0
BLOCK_RECORD
  5
1B
330
1
100
AcDbSymbolTableRecord
100
AcDbBlockTableRecord
  2
*PAPER_SPACE
  0
ENDTAB
  0
ENDSEC
  0
SECTION
  2
BLOCKS
  0
BLOCK
  5
20
330
1F
100
AcDbEntity
  8
0
100
AcDbBlockBegin
  2
*MODEL_SPACE
 70
     0
 10
0.0
 20
0.0
 30
0.0
  3
*MODEL_SPACE
  1

  0
ENDBLK
  5
21
330
1F
100
AcDbEntity
  8
0
100
AcDbBlockEnd
  0
BLOCK
  5
1C
330
1B
100
AcDbEntity
 67
     1
  8
0
100
AcDbBlockBegin
  2
*PAPER_SPACE
  1

  0
ENDBLK
  5
1D
330
1B
100
AcDbEntity
 67
     1
  8
0
100
AcDbBlockEnd
  0
ENDSEC
  0
SECTION
  2
ENTITIES
  0
SPLINE
  5
100
100
AcDbEntity
  8
BottomGlasses
 62
7
100
AcDbSpline
 70
8
 71
3
 72
8
 73
4
 74
0
 40
0
 40
0
 40
0
 40
0
 40
1
 40
1
 40
1
 40
1
 10
41.051428
 20
106.068340
 30
0.0
 10
41.051428
 20
106.068340
 30
0.0
 10
40.833585
 20
112.540668
 30
0.0
 10
41.846211
 20
114.484010
 30
0.0
  0
SPLINE
  5
101
100
AcDbEntity
  8
BottomGlasses
 62
7
100
AcDbSpline
 70
8
 71
3
 72
8
 73
4
 74
0
 40
0
 40
0
 40
0
 40
0
 40
1
 40
1
 40
1
 40
1
 10
41.846211
 20
114.484010
 30
0.0
 10
43.289629
 20
117.254739
 30
0.0
 10
44.857893
 20
118.882790
 30
0.0
 10
47.466013
 20
119.982094
 30
0.0
  0
SPLINE
  5
102
100
AcDbEntity
  8
BottomGlasses
 62
7
100
AcDbSpline
 70
8
 71
3
 72
8
 73
4
 74
0
 40
0
 40
0
 40
0
 40
0
 40
1
 40
1
 40
1
 40
1
 10
47.466013
 20
119.982094
 30
0.0
 10
56.614669
 20
123.838349
 30
0.0
 10
69.654858
 20
123.276916
 30
0.0
 10
78.399263
 20
123.831346
 30
0.0
  0
SPLINE
  5
103
100
AcDbEntity
  8
BottomGlasses
 62
7
100
AcDbSpline
 70
8
 71
3
 72
8
 73
4
 74
0
 40
0
 40
0
 40
0
 40
0
 40
1
 40
1
 40
1
 40
1
 10
78.399263
 20
123.831346
 30
0.0
 10
91.323844
 20
124.425185
 30
0.0
 10
97.022305
 20
124.221914
 30
0.0
 10
109.495137
 20
123.229864
 30
0.0
  0
SPLINE
  5
104
100
AcDbEntity
  8
BottomGlasses
 62
7
100
AcDbSpline
 70
8
 71
3
 72
8
 73
4
 74
0
 40
0
 40
0
 40
0
 40
0
 40
1
 40
1
 40
1
 40
1
 10
109.495137
 20
123.229864
 30
0.0
 10
116.818046
 20
122.647456
 30
0.0
 10
131.758434
 20
121.784503
 30
0.0
 10
138.783257
 20
119.638068
 30
0.0
  0
SPLINE
  5
105
100
AcDbEntity
  8
BottomGlasses
 62
7
100
AcDbSpline
 70
8
 71
3
 72
8
 73
4
 74
0
 40
0
 40
0
 40
0
 40
0
 40
1
 40
1
 40
1
 40
1
 10
138.783257
 20
119.638068
 30
0.0
 10
142.307835
 20
118.561136
 30
0.0
 10
144.857773
 20
117.023180
 30
0.0
 10
147.607147
 20
114.571226
 30
0.0
  0
SPLINE
  5
106
100
AcDbEntity
  8
BottomGlasses
 62
7
100
AcDbSpline
 70
8
 71
3
 72
8
 73
4
 74
0
 40
0
 40
0
 40
0
 40
0
 40
1
 40
1
 40
1
 40
1
 10
147.607147
 20
114.571226
 30
0.0
 10
148.399241
 20
113.864899
 30
0.0
 10
149.588417
 20
112.989063
 30
0.0
 10
150.028860
 20
112.024061
 30
0.0
  0
SPLINE
  5
107
100
AcDbEntity
  8
BottomGlasses
 62
7
100
AcDbSpline
 70
8
 71
3
 72
8
 73
4
 74
0
 40
0
 40
0
 40
0
 40
0
 40
1
 40
1
 40
1
 40
1
 10
150.028860
 20
112.024061
 30
0.0
 10
151.678815
 20
108.408867
 30
0.0
 10
152.551015
 20
100.595747
 30
0.0
 10
152.551015
 20
100.595747
 30
0.0
  0
LWPOLYLINE
  5
108
100
AcDbEntity
  8
BottomGlasses
 62
7
100
AcDbPolyline
 90
3
 70
0
 10
25.145635
 20
121.558480
 30
0.0
 10
27.092574
 20
104.170727
 30
0.0
 10
41.051428
 20
106.068340
 30
0.0
  0
SPLINE
  5
109
100
AcDbEntity
  8
BottomGlasses
 62
7
100
AcDbSpline
 70
8
 71
3
 72
8
 73
4
 74
0
 40
0
 40
0
 40
0
 40
0
 40
1
 40
1
 40
1
 40
1
 10
157.750022
 20
100.773127
 30
0.0
 10
157.750022
 20
100.773127
 30
0.0
 10
159.030471
 20
107.577121
 30
0.0
 10
158.184329
 20
110.821379
 30
0.0
  0
SPLINE
  5
10a
100
AcDbEntity
  8
BottomGlasses
 62
7
100
AcDbSpline
 70
8
 71
3
 72
8
 73
4
 74
0
 40
0
 40
0
 40
0
 40
0
 40
1
 40
1
 40
1
 40
1
 10
158.184329
 20
110.821379
 30
0.0
 10
157.401335
 20
113.823660
 30
0.0
 10
156.468125
 20
116.084214
 30
0.0
 10
153.291337
 20
118.742373
 30
0.0
  0
SPLINE
  5
10b
100
AcDbEntity
  8
BottomGlasses
 62
7
100
AcDbSpline
 70
8
 71
3
 72
8
 73
4
 74
0
 40
0
 40
0
 40
0
 40
0
 40
1
 40
1
 40
1
 40
1
 10
153.291337
 20
118.742373
 30
0.0
 10
147.913023
 20
123.242720
 30
0.0
 10
142.072137
 20
125.028871
 30
0.0
 10
135.190568
 20
126.394935
 30
0.0
  0
SPLINE
  5
10c
100
AcDbEntity
  8
BottomGlasses
 62
7
100
AcDbSpline
 70
8
 71
3
 72
8
 73
4
 74
0
 40
0
 40
0
 40
0
 40
0
 40
1
 40
1
 40
1
 40
1
 10
135.190568
 20
126.394935
 30
0.0
 10
123.661562
 20
128.683563
 30
0.0
 10
112.841718
 20
129.462997
 30
0.0
 10
99.427266
 20
129.887890
 30
0.0
  0
SPLINE
  5
10d
100
AcDbEntity
  8
BottomGlasses
 62
7
100
AcDbSpline
 70
8
 71
3
 72
8
 73
4
 74
0
 40
0
 40
0
 40
0
 40
0
 40
1
 40
1
 40
1
 40
1
 10
99.427266
 20
129.887890
 30
0.0
 10
88.481197
 20
130.234595
 30
0.0
 10
78.470200
 20
130.347041
 30
0.0
 10
67.523097
 20
130.035799
 30
0.0
  0
SPLINE
  5
10e
100
AcDbEntity
  8
BottomGlasses
 62
7
100
AcDbSpline
 70
8
 71
3
 72
8
 73
4
 74
0
 40
0
 40
0
 40
0
 40
0
 40
1
 40
1
 40
1
 40
1
 10
67.523097
 20
130.035799
 30
0.0
 10
61.300021
 20
129.858832
 30
0.0
 10
47.744797
 20
128.435560
 30
0.0
 10
42.344217
 20
127.212510
 30
0.0
  0
SPLINE
  5
10f
100
AcDbEntity
  8
BottomGlasses
 62
7
100
AcDbSpline
 70
8
 71
3
 72
8
 73
4
 74
0
 40
0
 40
0
 40
0
 40
0
 40
1
 40
1
 40
1
 40
1
 10
42.344217
 20
127.212510
 30
0.0
 10
35.752668
 20
125.630801
 30
0.0
 10
29.760533
 20
123.556971
 30
0.0
 10
25.145635
 20
121.558480
 30
0.0
  0
LWPOLYLINE
  5
110
100
AcDbEntity
  8
BottomGlasses
 62
7
100
AcDbPolyline
 90
2
 70
0
 10
152.551015
 20
100.595747
 30
0.0
 10
157.750022
 20
100.773127
 30
0.0
  0
LWPOLYLINE
  5
111
100
AcDbEntity
  8
BottomGlasses
 62
7
100
AcDbPolyline
 90
1
 70
1
 10
25.145635
 20
121.558480
 30
0.0
  0
SPLINE
  5
112
100
AcDbEntity
  8
BottomGlasses
 62
7
100
AcDbSpline
 70
8
 71
3
 72
8
 73
4
 74
0
 40
0
 40
0
 40
0
 40
0
 40
1
 40
1
 40
1
 40
1
 10
301.841983
 20
106.068361
 30
0.0
 10
301.841983
 20
106.068361
 30
0.0
 10
302.059826
 20
112.540688
 30
0.0
 10
301.047200
 20
114.484023
 30
0.0
  0
SPLINE
  5
113
100
AcDbEntity
  8
BottomGlasses
 62
7
100
AcDbSpline
 70
8
 71
3
 72
8
 73
4
 74
0
 40
0
 40
0
 40
0
 40
0
 40
1
 40
1
 40
1
 40
1
 10
301.047200
 20
114.484023
 30
0.0
 10
299.603782
 20
117.254760
 30
0.0
 10
298.035518
 20
118.882811
 30
0.0
 10
295.427397
 20
119.982115
 30
0.0
  0
SPLINE
  5
114
100
AcDbEntity
  8
BottomGlasses
 62
7
100
AcDbSpline
 70
8
 71
3
 72
8
 73
4
 74
0
 40
0
 40
0
 40
0
 40
0
 40
1
 40
1
 40
1
 40
1
 10
295.427397
 20
119.982115
 30
0.0
 10
286.278742
 20
123.838363
 30
0.0
 10
273.238552
 20
123.276929
 30
0.0
 10
264.494147
 20
123.831367
 30
0.0
  0
SPLINE
  5
115
100
AcDbEntity
  8
BottomGlasses
 62
7
100
AcDbSpline
 70
8
 71
3
 72
8
 73
4
 74
0
 40
0
 40
0
 40
0
 40
0
 40
1
 40
1
 40
1
 40
1
 10
264.494147
 20
123.831367
 30
0.0
 10
251.569566
 20
124.425206
 30
0.0
 10
245.871106
 20
124.221935
 30
0.0
 10
233.398274
 20
123.229885
 30
0.0
  0
SPLINE
  5
116
100
AcDbEntity
  8
BottomGlasses
 62
7
100
AcDbSpline
 70
8
 71
3
 72
8
 73
4
 74
0
 40
0
 40
0
 40
0
 40
0
 40
1
 40
1
 40
1
 40
1
 10
233.398274
 20
123.229885
 30
0.0
 10
226.075365
 20
122.647477
 30
0.0
 10
211.134976
 20
121.784523
 30
0.0
 10
204.110154
 20
119.638082
 30
0.0
  0
SPLINE
  5
117
100
AcDbEntity
  8
BottomGlasses
 62
7
100
AcDbSpline
 70
8
 71
3
 72
8
 73
4
 74
0
 40
0
 40
0
 40
0
 40
0
 40
1
 40
1
 40
1
 40
1
 10
204.110154
 20
119.638082
 30
0.0
 10
200.585575
 20
118.561157
 30
0.0
 10
198.035638
 20
117.023201
 30
0.0
 10
195.286264
 20
114.571240
 30
0.0
  0
SPLINE
  5
118
100
AcDbEntity
  8
BottomGlasses
 62
7
100
AcDbSpline
 70
8
 71
3
 72
8
 73
4
 74
0
 40
0
 40
0
 40
0
 40
0
 40
1
 40
1
 40
1
 40
1
 10
195.286264
 20
114.571240
 30
0.0
 10
194.494169
 20
113.864920
 30
0.0
 10
193.304994
 20
112.989077
 30
0.0
 10
192.864551
 20
112.024081
 30
0.0
  0
SPLINE
  5
119
100
AcDbEntity
  8
BottomGlasses
 62
7
100
AcDbSpline
 70
8
 71
3
 72
8
 73
4
 74
0
 40
0
 40
0
 40
0
 40
0
 40
1
 40
1
 40
1
 40
1
 10
192.864551
 20
112.024081
 30
0.0
 10
191.214526
 20
108.408887
 30
0.0
 10
190.342395
 20
100.595767
 30
0.0
 10
190.342395
 20
100.595767
 30
0.0
  0
LWPOLYLINE
  5
11a
100
AcDbEntity
  8
BottomGlasses
 62
7
100
AcDbPolyline
 90
3
 70
0
 10
317.747775
 20
121.558501
 30
0.0
 10
315.800836
 20
104.170748
 30
0.0
 10
301.841983
 20
106.068361
 30
0.0
  0
SPLINE
  5
11b
100
AcDbEntity
  8
BottomGlasses
 62
7
100
AcDbSpline
 70
8
 71
3
 72
8
 73
4
 74
0
 40
0
 40
0
 40
0
 40
0
 40
1
 40
1
 40
1
 40
1
 10
185.143389
 20
100.773148
 30
0.0
 10
185.143389
 20
100.773148
 30
0.0
 10
183.862939
 20
107.577141
 30
0.0
 10
184.709081
 20
110.821399
 30
0.0
  0
SPLINE
  5
11c
100
AcDbEntity
  8
BottomGlasses
 62
7
100
AcDbSpline
 70
8
 71
3
 72
8
 73
4
 74
0
 40
0
 40
0
 40
0
 40
0
 40
1
 40
1
 40
1
 40
1
 10
184.709081
 20
110.821399
 30
0.0
 10
185.492076
 20
113.823681
 30
0.0
 10
186.425285
 20
116.084235
 30
0.0
 10
189.602073
 20
118.742394
 30
0.0
  0
SPLINE
  5
11d
100
AcDbEntity
  8
BottomGlasses
 62
7
100
AcDbSpline
 70
8
 71
3
 72
8
 73
4
 74
0
 40
0
 40
0
 40
0
 40
0
 40
1
 40
1
 40
1
 40
1
 10
189.602073
 20
118.742394
 30
0.0
 10
194.980387
 20
123.242741
 30
0.0
 10
200.821273
 20
125.028892
 30
0.0
 10
207.702843
 20
126.394955
 30
0.0
  0
SPLINE
  5
11e
100
AcDbEntity
  8
BottomGlasses
 62
7
100
AcDbSpline
 70
8
 71
3
 72
8
 73
4
 74
0
 40
0
 40
0
 40
0
 40
0
 40
1
 40
1
 40
1
 40
1
 10
207.702843
 20
126.394955
 30
0.0
 10
219.231849
 20
128.683583
 30
0.0
 10
230.051692
 20
129.463017
 30
0.0
 10
243.466145
 20
129.887911
 30
0.0
  0
SPLINE
  5
11f
100
AcDbEntity
  8
BottomGlasses
 62
7
100
AcDbSpline
 70
8
 71
3
 72
8
 73
4
 74
0
 40
0
 40
0
 40
0
 40
0
 40
1
 40
1
 40
1
 40
1
 10
243.466145
 20
129.887911
 30
0.0
 10
254.412213
 20
130.234616
 30
0.0
 10
264.423210
 20
130.347062
 30
0.0
 10
275.370313
 20
130.035820
 30
0.0
  0
SPLINE
  5
120
100
AcDbEntity
  8
BottomGlasses
 62
7
100
AcDbSpline
 70
8
 71
3
 72
8
 73
4
 74
0
 40
0
 40
0
 40
0
 40
0
 40
1
 40
1
 40
1
 40
1
 10
275.370313
 20
130.035820
 30
0.0
 10
281.593390
 20
129.858853
 30
0.0
 10
295.148613
 20
128.435581
 30
0.0
 10
300.549194
 20
127.212531
 30
0.0
  0
SPLINE
  5
121
100
AcDbEntity
  8
BottomGlasses
 62
7
100
AcDbSpline
 70
8
 71
3
 72
8
 73
4
 74
0
 40
0
 40
0
 40
0
 40
0
 40
1
 40
1
 40
1
 40
1
 10
300.549194
 20
127.212531
 30
0.0
 10
307.140742
 20
125.630822
 30
0.0
 10
313.132878
 20
123.556985
 30
0.0
 10
317.747775
 20
121.558501
 30
0.0
  0
LWPOLYLINE
  5
122
100
AcDbEntity
  8
BottomGlasses
 62
7
100
AcDbPolyline
 90
2
 70
0
 10
190.342395
 20
100.595767
 30
0.0
 10
185.143389
 20
100.773148
 30
0.0
  0
SPLINE
  5
123
100
AcDbEntity
  8
BottomGlasses
 62
7
100
AcDbSpline
 70
8
 71
3
 72
8
 73
4
 74
0
 40
0
 40
0
 40
0
 40
0
 40
1
 40
1
 40
1
 40
1
 10
37.560835
 20
113.028505
 30
0.0
 10
37.560835
 20
113.028505
 30
0.0
 10
36.879731
 20
96.562807
 30
0.0
 10
36.600671
 20
88.792965
 30
0.0
  0
SPLINE
  5
124
100
AcDbEntity
  8
BottomGlasses
 62
7
100
AcDbSpline
 70
8
 71
3
 72
8
 73
4
 74
0
 40
0
 40
0
 40
0
 40
0
 40
1
 40
1
 40
1
 40
1
 10
36.600671
 20
88.792965
 30
0.0
 10
36.176015
 20
76.966756
 30
0.0
 10
37.891392
 20
65.477241
 30
0.0
 10
42.413844
 20
55.524765
 30
0.0
  0
SPLINE
  5
125
100
AcDbEntity
  8
BottomGlasses
 62
7
100
AcDbSpline
 70
8
 71
3
 72
8
 73
4
 74
0
 40
0
 40
0
 40
0
 40
0
 40
1
 40
1
 40
1
 40
1
 10
42.413844
 20
55.524765
 30
0.0
 10
46.171846
 20
47.254587
 30
0.0
 10
56.525532
 20
39.481950
 30
0.0
 10
62.079293
 20
37.096816
 30
0.0
  0
SPLINE
  5
126
100
AcDbEntity
  8
BottomGlasses
 62
7
100
AcDbSpline
 70
8
 71
3
 72
8
 73
4
 74
0
 40
0
 40
0
 40
0
 40
0
 40
1
 40
1
 40
1
 40
1
 10
62.079293
 20
37.096816
 30
0.0
 10
72.865081
 20
32.464735
 30
0.0
 10
93.432097
 20
32.906857
 30
0.0
 10
96.662243
 20
32.712455
 30
0.0
  0
SPLINE
  5
127
100
AcDbEntity
  8
BottomGlasses
 62
7
100
AcDbSpline
 70
8
 71
3
 72
8
 73
4
 74
0
 40
0
 40
0
 40
0
 40
0
 40
1
 40
1
 40
1
 40
1
 10
96.662243
 20
32.712455
 30
0.0
 10
98.846603
 20
32.581003
 30
0.0
 10
118.366111
 20
33.579381
 30
0.0
 10
126.372262
 20
39.697629
 30
0.0
  0
SPLINE
  5
128
100
AcDbEntity
  8
BottomGlasses
 62
7
100
AcDbSpline
 70
8
 71
3
 72
8
 73
4
 74
0
 40
0
 40
0
 40
0
 40
0
 40
1
 40
1
 40
1
 40
1
 10
126.372262
 20
39.697629
 30
0.0
 10
133.099204
 20
44.838343
 30
0.0
 10
138.629388
 20
51.792601
 30
0.0
 10
142.476871
 20
59.329569
 30
0.0
  0
SPLINE
  5
129
100
AcDbEntity
  8
BottomGlasses
 62
7
100
AcDbSpline
 70
8
 71
3
 72
8
 73
4
 74
0
 40
0
 40
0
 40
0
 40
0
 40
1
 40
1
 40
1
 40
1
 10
142.476871
 20
59.329569
 30
0.0
 10
149.668798
 20
73.417949
 30
0.0
 10
153.514488
 20
100.650669
 30
0.0
 10
154.532216
 20
105.218449
 30
0.0
  0
SPLINE
  5
12a
100
AcDbEntity
  8
BottomGlasses
 62
7
100
AcDbSpline
 70
8
 71
3
 72
8
 73
4
 74
0
 40
0
 40
0
 40
0
 40
0
 40
1
 40
1
 40
1
 40
1
 10
305.332575
 20
113.028505
 30
0.0
 10
305.332575
 20
113.028505
 30
0.0
 10
306.013680
 20
96.562807
 30
0.0
 10
306.292739
 20
88.792965
 30
0.0
  0
SPLINE
  5
12b
100
AcDbEntity
  8
BottomGlasses
 62
7
100
AcDbSpline
 70
8
 71
3
 72
8
 73
4
 74
0
 40
0
 40
0
 40
0
 40
0
 40
1
 40
1
 40
1
 40
1
 10
306.292739
 20
88.792965
 30
0.0
 10
306.717396
 20
76.966756
 30
0.0
 10
305.002019
 20
65.477241
 30
0.0
 10
300.479567
 20
55.524765
 30
0.0
  0
SPLINE
  5
12c
100
AcDbEntity
  8
BottomGlasses
 62
7
100
AcDbSpline
 70
8
 71
3
 72
8
 73
4
 74
0
 40
0
 40
0
 40
0
 40
0
 40
1
 40
1
 40
1
 40
1
 10
300.479567
 20
55.524765
 30
0.0
 10
296.721565
 20
47.254587
 30
0.0
 10
286.367878
 20
39.481950
 30
0.0
 10
280.814118
 20
37.096816
 30
0.0
  0
SPLINE
  5
12d
100
AcDbEntity
  8
BottomGlasses
 62
7
100
AcDbSpline
 70
8
 71
3
 72
8
 73
4
 74
0
 40
0
 40
0
 40
0
 40
0
 40
1
 40
1
 40
1
 40
1
 10
280.814118
 20
37.096816
 30
0.0
 10
270.028329
 20
32.464735
 30
0.0
 10
249.461313
 20
32.906857
 30
0.0
 10
246.231167
 20
32.712455
 30
0.0
  0
SPLINE
  5
12e
100
AcDbEntity
  8
BottomGlasses
 62
7
100
AcDbSpline
 70
8
 71
3
 72
8
 73
4
 74
0
 40
0
 40
0
 40
0
 40
0
 40
1
 40
1
 40
1
 40
1
 10
246.231167
 20
32.712455
 30
0.0
 10
244.046807
 20
32.581003
 30
0.0
 10
224.527299
 20
33.579381
 30
0.0
 10
216.521149
 20
39.697629
 30
0.0
  0
SPLINE
  5
12f
100
AcDbEntity
  8
BottomGlasses
 62
7
100
AcDbSpline
 70
8
 71
3
 72
8
 73
4
 74
0
 40
0
 40
0
 40
0
 40
0
 40
1
 40
1
 40
1
 40
1
 10
216.521149
 20
39.697629
 30
0.0
 10
209.794206
 20
44.838343
 30
0.0
 10
204.264023
 20
51.792601
 30
0.0
 10
200.416540
 20
59.329569
 30
0.0
  0
SPLINE
  5
130
100
AcDbEntity
  8
BottomGlasses
 62
7
100
AcDbSpline
 70
8
 71
3
 72
8
 73
4
 74
0
 40
0
 40
0
 40
0
 40
0
 40
1
 40
1
 40
1
 40
1
 10
200.416540
 20
59.329569
 30
0.0
 10
193.224612
 20
73.417949
 30
0.0
 10
189.378922
 20
100.650669
 30
0.0
 10
188.361194
 20
105.218449
 30
0.0
  0
LWPOLYLINE
  5
131
100
AcDbEntity
  8
BottomGlasses
 62
7
100
AcDbPolyline
 90
1
 70
1
 10
317.747775
 20
121.558501
 30
0.0
  0
SPLINE
  5
132
100
AcDbEntity
  8
BottomGlasses
 62
7
100
AcDbSpline
 70
8
 71
3
 72
8
 73
4
 74
0
 40
0
 40
0
 40
0
 40
0
 40
1
 40
1
 40
1
 40
1
 10
151.715352
 20
99.873982
 30
0.0
 10
151.715352
 20
99.873982
 30
0.0
 10
164.901276
 20
101.859569
 30
0.0
 10
171.544045
 20
101.859569
 30
0.0
  0
SPLINE
  5
133
100
AcDbEntity
  8
BottomGlasses
 62
7
100
AcDbSpline
 70
8
 71
3
 72
8
 73
4
 74
0
 40
0
 40
0
 40
0
 40
0
 40
1
 40
1
 40
1
 40
1
 10
171.544045
 20
101.859569
 30
0.0
 10
178.186746
 20
101.859569
 30
0.0
 10
191.275261
 20
99.873982
 30
0.0
 10
191.275261
 20
99.873982
 30
0.0
  0
LWPOLYLINE
  5
134
100
AcDbEntity
  8
BottomGlasses
 62
7
100
AcDbPolyline
 90
2
 70
0
 10
151.030800
 20
103.901579
 30
0.0
 10
151.715352
 20
99.873982
 30
0.0
  0
SPLINE
  5
135
100
AcDbEntity
  8
BottomGlasses
 62
7
100
AcDbSpline
 70
8
 71
3
 72
8
 73
4
 74
0
 40
0
 40
0
 40
0
 40
0
 40
1
 40
1
 40
1
 40
1
 10
191.959812
 20
103.901579
 30
0.0
 10
191.959812
 20
103.901579
 30
0.0
 10
178.147382
 20
105.545019
 30
0.0
 10
171.214454
 20
105.431822
 30
0.0
  0
SPLINE
  5
136
100
AcDbEntity
  8
BottomGlasses
 62
7
100
AcDbSpline
 70
8
 71
3
 72
8
 73
4
 74
0
 40
0
 40
0
 40
0
 40
0
 40
1
 40
1
 40
1
 40
1
 10
171.214454
 20
105.431822
 30
0.0
 10
164.212933
 20
105.330875
 30
0.0
 10
151.030869
 20
103.901579
 30
0.0
 10
151.030869
 20
103.901579
 30
0.0
  0
LWPOLYLINE
  5
137
100
AcDbEntity
  8
BottomGlasses
 62
7
100
AcDbPolyline
 90
2
 70
0
 10
191.275261
 20
99.873982
 30
0.0
 10
191.959812
 20
103.901579
 30
0.0
  0
LWPOLYLINE
  5
138
100
AcDbEntity
  8
BottomGlasses
 62
7
100
AcDbPolyline
 90
1
 70
1
 10
151.030869
 20
103.901579
 30
0.0
  0
ENDSEC
  0
SECTION
  2
OBJECTS
  0
DICTIONARY
  5
C
330
0
100
AcDbDictionary
  3
ACAD_GROUP
350
D
  3
ACAD_MLINESTYLE
350
17
  0
DICTIONARY
  5
D
330
C
100
AcDbDictionary
  0
DICTIONARY
  5
1A
330
C
100
AcDbDictionary
  0
DICTIONARY
  5
17
330
C
100
AcDbDictionary
  3
STANDARD
350
18
  0
DICTIONARY
  5
19
330
C
100
AcDbDictionary
  0
ENDSEC
  0
EOF
