  0
SECTION
  2
HEADER
  9
$ACADVER
  1
AC1014
  9
$HANDSEED
  5
FFFF
  9
$MEASUREMENT
 70
     1
  0
ENDSEC
  0
SECTION
  2
TABLES
  0
TABLE
  2
VPORT
  5
8
330
0
100
AcDbSymbolTable
 70
     4
  0
VPORT
  5
2E
330
8
100
AcDbSymbolTableRecord
100
AcDbViewportTableRecord
  2
*ACTIVE
 70
     0
 10
0.0
 20
0.0
 11
1.0
 21
1.0
 12
210.0
 22
148.5
 13
0.0
 23
0.0
 14
10.0
 24
10.0
 15
10.0
 25
10.0
 16
0.0
 26
0.0
 36
1.0
 17
0.0
 27
0.0
 37
0.0
 40
341.0
 41
1.24
 42
50.0
 43
0.0
 44
0.0
 50
0.0
 51
0.0
 71
     0
 72
   100
 73
     1
 74
     3
 75
     0
 76
     0
 77
     0
 78
     0
  0
ENDTAB
  0
TABLE
  2
LTYPE
  5
5
330
0
100
AcDbSymbolTable
 70
     1
  0
LTYPE
  5
14
330
5
100
AcDbSymbolTableRecord
100
AcDbLinetypeTableRecord
  2
BYBLOCK
 70
     0
  3

 72
    65
 73
     0
 40
0.0
  0
LTYPE
  5
15
330
5
100
AcDbSymbolTableRecord
100
AcDbLinetypeTableRecord
  2
BYLAYER
 70
     0
  3

 72
    65
 73
     0
 40
0.0
  0
LTYPE
  5
16
330
5
100
AcDbSymbolTableRecord
100
AcDbLinetypeTableRecord
  2
CONTINUOUS
 70
     0
  3
Solid line
 72
    65
 73
     0
 40
0.0
  0
ENDTAB
  0
TABLE
  2
LAYER
  5
2
100
AcDbSymbolTable
 70
2
  0
LAYER
  5
50
100
AcDbSymbolTableRecord
100
AcDbLayerTableRecord
  2
0
 70
0
  6
CONTINUOUS
  0
LAYER
  5
51
100
AcDbSymbolTableRecord
100
AcDbLayerTableRecord
  2
PCB
 70
0
  6
CONTINUOUS
  0
ENDTAB
  0
TABLE
  2
STYLE
  5
3
330
0
100
AcDbSymbolTable
 70
     1
  0
STYLE
  5
11
330
3
100
AcDbSymbolTableRecord
100
AcDbTextStyleTableRecord
  2
STANDARD
 70
     0
 40
0.0
 41
1.0
 50
0.0
 71
     0
 42
2.5
  3
txt
  4

  0
ENDTAB
  0
TABLE
  2
VIEW
  5
6
330
0
100
AcDbSymbolTable
 70
     0
  0
ENDTAB
  0
TABLE
  2
UCS
  5
7
330
0
100
AcDbSymbolTable
 70
     0
  0
ENDTAB
  0
TABLE
  2
APPID
  5
9
330
0
100
AcDbSymbolTable
 70
     2
  0
APPID
  5
12
330
9
100
AcDbSymbolTableRecord
100
AcDbRegAppTableRecord
  2
ACAD
 70
     0
  0
ENDTAB
  0
TABLE
  2
DIMSTYLE
  5
A
330
0
100
AcDbSymbolTable
 70
     1
  0
DIMSTYLE
105
27
330
A
100
AcDbSymbolTableRecord
100
AcDbDimStyleTableRecord
  2
ISO-25
 70
     0
  3

  4

  5

  6

  7

 40
1.0
 41
2.5
 42
0.625
 43
3.75
 44
1.25
 45
0.0
 46
0.0
 47
0.0
 48
0.0
140
2.5
141
2.5
142
0.0
143
0.03937007874016
144
1.0
145
0.0
146
1.0
147
0.625
 71
     0
 72
     0
 73
     0
 74
     0
 75
     0
 76
     0
 77
     1
 78
     8
170
     0
171
     3
172
     1
173
     0
174
     0
175
     0
176
     0
177
     0
178
     0
270
     2
271
     2
272
     2
273
     2
274
     3
340
11
275
     0
280
     0
281
     0
282
     0
283
     0
284
     8
285
     0
286
     0
287
     3
288
     0
  0
ENDTAB
  0
TABLE
  2
BLOCK_RECORD
  5
1
330
0
100
AcDbSymbolTable
 70
     1
  0
BLOCK_RECORD
  5
1F
330
1
100
AcDbSymbolTableRecord
100
AcDbBlockTableRecord
  2
*MODEL_SPACE
  0
BLOCK_RECORD
  5
1B
330
1
100
AcDbSymbolTableRecord
100
AcDbBlockTableRecord
  2
*PAPER_SPACE
  0
ENDTAB
  0
ENDSEC
  0
SECTION
  2
BLOCKS
  0
BLOCK
  5
20
330
1F
100
AcDbEntity
  8
0
100
AcDbBlockBegin
  2
*MODEL_SPACE
 70
     0
 10
0.0
 20
0.0
 30
0.0
  3
*MODEL_SPACE
  1

  0
ENDBLK
  5
21
330
1F
100
AcDbEntity
  8
0
100
AcDbBlockEnd
  0
BLOCK
  5
1C
330
1B
100
AcDbEntity
 67
     1
  8
0
100
AcDbBlockBegin
  2
*PAPER_SPACE
  1

  0
ENDBLK
  5
1D
330
1B
100
AcDbEntity
 67
     1
  8
0
100
AcDbBlockEnd
  0
ENDSEC
  0
SECTION
  2
ENTITIES
  0
SPLINE
  5
100
100
AcDbEntity
  8
PCB
 62
7
100
AcDbSpline
 70
8
 71
3
 72
8
 73
4
 74
0
 40
0
 40
0
 40
0
 40
0
 40
1
 40
1
 40
1
 40
1
 10
18.256250
 20
18.374999
 30
0.0
 10
18.998166
 20
18.374999
 30
0.0
 10
19.649820
 20
18.038240
 30
0.0
 10
20.122736
 20
17.538360
 30
0.0
  0
SPLINE
  5
101
100
AcDbEntity
  8
PCB
 62
7
100
AcDbSpline
 70
8
 71
3
 72
8
 73
4
 74
0
 40
0
 40
0
 40
0
 40
0
 40
1
 40
1
 40
1
 40
1
 10
20.122736
 20
17.538360
 30
0.0
 10
20.560542
 20
17.075590
 30
0.0
 10
21.197188
 20
16.812496
 30
0.0
 10
21.884197
 20
16.812496
 30
0.0
  0
LWPOLYLINE
  5
102
100
AcDbEntity
  8
PCB
 62
7
100
AcDbPolyline
 90
2
 70
0
 10
17.335386
 20
18.374999
 30
0.0
 10
18.256250
 20
18.374999
 30
0.0
  0
SPLINE
  5
103
100
AcDbEntity
  8
PCB
 62
7
100
AcDbSpline
 70
8
 71
3
 72
8
 73
4
 74
0
 40
0
 40
0
 40
0
 40
0
 40
1
 40
1
 40
1
 40
1
 10
116.228304
 20
16.812496
 30
0.0
 10
116.915311
 20
16.812496
 30
0.0
 10
117.551959
 20
17.075590
 30
0.0
 10
117.989763
 20
17.538360
 30
0.0
  0
SPLINE
  5
104
100
AcDbEntity
  8
PCB
 62
7
100
AcDbSpline
 70
8
 71
3
 72
8
 73
4
 74
0
 40
0
 40
0
 40
0
 40
0
 40
1
 40
1
 40
1
 40
1
 10
117.989763
 20
17.538360
 30
0.0
 10
118.462679
 20
18.038240
 30
0.0
 10
119.114335
 20
18.374999
 30
0.0
 10
119.856250
 20
18.374999
 30
0.0
  0
SPLINE
  5
105
100
AcDbEntity
  8
PCB
 62
7
100
AcDbSpline
 70
8
 71
3
 72
8
 73
4
 74
0
 40
0
 40
0
 40
0
 40
0
 40
1
 40
1
 40
1
 40
1
 10
119.856250
 20
18.374999
 30
0.0
 10
120.598165
 20
18.374999
 30
0.0
 10
121.249821
 20
18.038240
 30
0.0
 10
121.722737
 20
17.538360
 30
0.0
  0
SPLINE
  5
106
100
AcDbEntity
  8
PCB
 62
7
100
AcDbSpline
 70
8
 71
3
 72
8
 73
4
 74
0
 40
0
 40
0
 40
0
 40
0
 40
1
 40
1
 40
1
 40
1
 10
121.722737
 20
17.538360
 30
0.0
 10
122.160541
 20
17.075590
 30
0.0
 10
122.797189
 20
16.812496
 30
0.0
 10
123.484196
 20
16.812496
 30
0.0
  0
LWPOLYLINE
  5
107
100
AcDbEntity
  8
PCB
 62
7
100
AcDbPolyline
 90
2
 70
0
 10
21.884197
 20
16.812496
 30
0.0
 10
116.228304
 20
16.812496
 30
0.0
  0
SPLINE
  5
108
100
AcDbEntity
  8
PCB
 62
7
100
AcDbSpline
 70
8
 71
3
 72
8
 73
4
 74
0
 40
0
 40
0
 40
0
 40
0
 40
1
 40
1
 40
1
 40
1
 10
219.415805
 20
16.812496
 30
0.0
 10
220.102811
 20
16.812496
 30
0.0
 10
220.739459
 20
17.075590
 30
0.0
 10
221.177263
 20
17.538360
 30
0.0
  0
SPLINE
  5
109
100
AcDbEntity
  8
PCB
 62
7
100
AcDbSpline
 70
8
 71
3
 72
8
 73
4
 74
0
 40
0
 40
0
 40
0
 40
0
 40
1
 40
1
 40
1
 40
1
 10
221.177263
 20
17.538360
 30
0.0
 10
221.650179
 20
18.038240
 30
0.0
 10
222.301835
 20
18.374999
 30
0.0
 10
223.043750
 20
18.374999
 30
0.0
  0
SPLINE
  5
10a
100
AcDbEntity
  8
PCB
 62
7
100
AcDbSpline
 70
8
 71
3
 72
8
 73
4
 74
0
 40
0
 40
0
 40
0
 40
0
 40
1
 40
1
 40
1
 40
1
 10
223.043750
 20
18.374999
 30
0.0
 10
223.785665
 20
18.374999
 30
0.0
 10
224.437321
 20
18.038240
 30
0.0
 10
224.910237
 20
17.538360
 30
0.0
  0
SPLINE
  5
10b
100
AcDbEntity
  8
PCB
 62
7
100
AcDbSpline
 70
8
 71
3
 72
8
 73
4
 74
0
 40
0
 40
0
 40
0
 40
0
 40
1
 40
1
 40
1
 40
1
 10
224.910237
 20
17.538360
 30
0.0
 10
225.348041
 20
17.075590
 30
0.0
 10
225.984689
 20
16.812496
 30
0.0
 10
226.671695
 20
16.812496
 30
0.0
  0
LWPOLYLINE
  5
10c
100
AcDbEntity
  8
PCB
 62
7
100
AcDbPolyline
 90
2
 70
0
 10
123.484196
 20
16.812496
 30
0.0
 10
219.415805
 20
16.812496
 30
0.0
  0
SPLINE
  5
10d
100
AcDbEntity
  8
PCB
 62
7
100
AcDbSpline
 70
8
 71
3
 72
8
 73
4
 74
0
 40
0
 40
0
 40
0
 40
0
 40
1
 40
1
 40
1
 40
1
 10
321.014672
 20
16.812496
 30
0.0
 10
321.701663
 20
16.812496
 30
0.0
 10
322.338330
 20
17.075590
 30
0.0
 10
322.776136
 20
17.538360
 30
0.0
  0
SPLINE
  5
10e
100
AcDbEntity
  8
PCB
 62
7
100
AcDbSpline
 70
8
 71
3
 72
8
 73
4
 74
0
 40
0
 40
0
 40
0
 40
0
 40
1
 40
1
 40
1
 40
1
 10
322.776136
 20
17.538360
 30
0.0
 10
323.249052
 20
18.038240
 30
0.0
 10
323.900694
 20
18.374999
 30
0.0
 10
324.642612
 20
18.374999
 30
0.0
  0
LWPOLYLINE
  5
10f
100
AcDbEntity
  8
PCB
 62
7
100
AcDbPolyline
 90
2
 70
0
 10
226.671695
 20
16.812496
 30
0.0
 10
321.014672
 20
16.812496
 30
0.0
  0
SPLINE
  5
110
100
AcDbEntity
  8
PCB
 62
7
100
AcDbSpline
 70
8
 71
3
 72
8
 73
4
 74
0
 40
0
 40
0
 40
0
 40
0
 40
1
 40
1
 40
1
 40
1
 10
325.610379
 20
18.374999
 30
0.0
 10
326.991080
 20
18.374999
 30
0.0
 10
328.110374
 20
19.494287
 30
0.0
 10
328.110374
 20
20.874999
 30
0.0
  0
LWPOLYLINE
  5
111
100
AcDbEntity
  8
PCB
 62
7
100
AcDbPolyline
 90
2
 70
0
 10
324.642612
 20
18.374999
 30
0.0
 10
325.610379
 20
18.374999
 30
0.0
  0
SPLINE
  5
112
100
AcDbEntity
  8
PCB
 62
7
100
AcDbSpline
 70
8
 71
3
 72
8
 73
4
 74
0
 40
0
 40
0
 40
0
 40
0
 40
1
 40
1
 40
1
 40
1
 10
328.110374
 20
141.847776
 30
0.0
 10
328.110374
 20
143.224462
 30
0.0
 10
326.991107
 20
144.343750
 30
0.0
 10
325.610379
 20
144.343750
 30
0.0
  0
LWPOLYLINE
  5
113
100
AcDbEntity
  8
PCB
 62
7
100
AcDbPolyline
 90
2
 70
0
 10
328.110374
 20
20.874999
 30
0.0
 10
328.110374
 20
141.847776
 30
0.0
  0
SPLINE
  5
114
100
AcDbEntity
  8
PCB
 62
7
100
AcDbSpline
 70
8
 71
3
 72
8
 73
4
 74
0
 40
0
 40
0
 40
0
 40
0
 40
1
 40
1
 40
1
 40
1
 10
324.643274
 20
144.343750
 30
0.0
 10
323.442806
 20
144.343750
 30
0.0
 10
322.407174
 20
145.183359
 30
0.0
 10
322.198497
 20
146.318238
 30
0.0
  0
SPLINE
  5
115
100
AcDbEntity
  8
PCB
 62
7
100
AcDbSpline
 70
8
 71
3
 72
8
 73
4
 74
0
 40
0
 40
0
 40
0
 40
0
 40
1
 40
1
 40
1
 40
1
 10
322.198497
 20
146.318238
 30
0.0
 10
321.979475
 20
147.509565
 30
0.0
 10
320.977313
 20
148.431250
 30
0.0
 10
319.728189
 20
148.431250
 30
0.0
  0
LWPOLYLINE
  5
116
100
AcDbEntity
  8
PCB
 62
7
100
AcDbPolyline
 90
2
 70
0
 10
325.610379
 20
144.343750
 30
0.0
 10
324.643274
 20
144.343750
 30
0.0
  0
SPLINE
  5
117
100
AcDbEntity
  8
PCB
 62
7
100
AcDbSpline
 70
8
 71
3
 72
8
 73
4
 74
0
 40
0
 40
0
 40
0
 40
0
 40
1
 40
1
 40
1
 40
1
 10
227.958520
 20
148.431250
 30
0.0
 10
226.709724
 20
148.431250
 30
0.0
 10
225.707546
 20
147.509565
 30
0.0
 10
225.488516
 20
146.318238
 30
0.0
  0
SPLINE
  5
118
100
AcDbEntity
  8
PCB
 62
7
100
AcDbSpline
 70
8
 71
3
 72
8
 73
4
 74
0
 40
0
 40
0
 40
0
 40
0
 40
1
 40
1
 40
1
 40
1
 10
225.488516
 20
146.318238
 30
0.0
 10
225.279865
 20
145.183359
 30
0.0
 10
224.244220
 20
144.343750
 30
0.0
 10
223.043750
 20
144.343750
 30
0.0
  0
SPLINE
  5
119
100
AcDbEntity
  8
PCB
 62
7
100
AcDbSpline
 70
8
 71
3
 72
8
 73
4
 74
0
 40
0
 40
0
 40
0
 40
0
 40
1
 40
1
 40
1
 40
1
 10
223.043750
 20
144.343750
 30
0.0
 10
221.843280
 20
144.343750
 30
0.0
 10
220.807635
 20
145.183359
 30
0.0
 10
220.598984
 20
146.318238
 30
0.0
  0
SPLINE
  5
11a
100
AcDbEntity
  8
PCB
 62
7
100
AcDbSpline
 70
8
 71
3
 72
8
 73
4
 74
0
 40
0
 40
0
 40
0
 40
0
 40
1
 40
1
 40
1
 40
1
 10
220.598984
 20
146.318238
 30
0.0
 10
220.379954
 20
147.509565
 30
0.0
 10
219.377776
 20
148.431250
 30
0.0
 10
218.128980
 20
148.431250
 30
0.0
  0
LWPOLYLINE
  5
11b
100
AcDbEntity
  8
PCB
 62
7
100
AcDbPolyline
 90
2
 70
0
 10
319.728189
 20
148.431250
 30
0.0
 10
227.958520
 20
148.431250
 30
0.0
  0
SPLINE
  5
11c
100
AcDbEntity
  8
PCB
 62
7
100
AcDbSpline
 70
8
 71
3
 72
8
 73
4
 74
0
 40
0
 40
0
 40
0
 40
0
 40
1
 40
1
 40
1
 40
1
 10
124.771020
 20
148.431250
 30
0.0
 10
123.522224
 20
148.431250
 30
0.0
 10
122.520046
 20
147.509565
 30
0.0
 10
122.301016
 20
146.318238
 30
0.0
  0
SPLINE
  5
11d
100
AcDbEntity
  8
PCB
 62
7
100
AcDbSpline
 70
8
 71
3
 72
8
 73
4
 74
0
 40
0
 40
0
 40
0
 40
0
 40
1
 40
1
 40
1
 40
1
 10
122.301016
 20
146.318238
 30
0.0
 10
122.092365
 20
145.183359
 30
0.0
 10
121.056720
 20
144.343750
 30
0.0
 10
119.856250
 20
144.343750
 30
0.0
  0
SPLINE
  5
11e
100
AcDbEntity
  8
PCB
 62
7
100
AcDbSpline
 70
8
 71
3
 72
8
 73
4
 74
0
 40
0
 40
0
 40
0
 40
0
 40
1
 40
1
 40
1
 40
1
 10
119.856250
 20
144.343750
 30
0.0
 10
118.655780
 20
144.343750
 30
0.0
 10
117.620135
 20
145.183359
 30
0.0
 10
117.411484
 20
146.318238
 30
0.0
  0
SPLINE
  5
11f
100
AcDbEntity
  8
PCB
 62
7
100
AcDbSpline
 70
8
 71
3
 72
8
 73
4
 74
0
 40
0
 40
0
 40
0
 40
0
 40
1
 40
1
 40
1
 40
1
 10
117.411484
 20
146.318238
 30
0.0
 10
117.192454
 20
147.509565
 30
0.0
 10
116.190276
 20
148.431250
 30
0.0
 10
114.941480
 20
148.431250
 30
0.0
  0
LWPOLYLINE
  5
120
100
AcDbEntity
  8
PCB
 62
7
100
AcDbPolyline
 90
2
 70
0
 10
218.128980
 20
148.431250
 30
0.0
 10
124.771020
 20
148.431250
 30
0.0
  0
SPLINE
  5
121
100
AcDbEntity
  8
PCB
 62
7
100
AcDbSpline
 70
8
 71
3
 72
8
 73
4
 74
0
 40
0
 40
0
 40
0
 40
0
 40
1
 40
1
 40
1
 40
1
 10
23.171335
 20
148.431250
 30
0.0
 10
21.922211
 20
148.431250
 30
0.0
 10
20.920049
 20
147.509565
 30
0.0
 10
20.701026
 20
146.318238
 30
0.0
  0
SPLINE
  5
122
100
AcDbEntity
  8
PCB
 62
7
100
AcDbSpline
 70
8
 71
3
 72
8
 73
4
 74
0
 40
0
 40
0
 40
0
 40
0
 40
1
 40
1
 40
1
 40
1
 10
20.701026
 20
146.318238
 30
0.0
 10
20.492376
 20
145.183359
 30
0.0
 10
19.456718
 20
144.343750
 30
0.0
 10
18.256250
 20
144.343750
 30
0.0
  0
LWPOLYLINE
  5
123
100
AcDbEntity
  8
PCB
 62
7
100
AcDbPolyline
 90
2
 70
0
 10
114.941480
 20
148.431250
 30
0.0
 10
23.171335
 20
148.431250
 30
0.0
  0
SPLINE
  5
124
100
AcDbEntity
  8
PCB
 62
7
100
AcDbSpline
 70
8
 71
3
 72
8
 73
4
 74
0
 40
0
 40
0
 40
0
 40
0
 40
1
 40
1
 40
1
 40
1
 10
17.335394
 20
144.343750
 30
0.0
 10
15.954666
 20
144.343750
 30
0.0
 10
14.835399
 20
143.224462
 30
0.0
 10
14.835399
 20
141.843750
 30
0.0
  0
LWPOLYLINE
  5
125
100
AcDbEntity
  8
PCB
 62
7
100
AcDbPolyline
 90
2
 70
0
 10
18.256250
 20
144.343750
 30
0.0
 10
17.335394
 20
144.343750
 30
0.0
  0
SPLINE
  5
126
100
AcDbEntity
  8
PCB
 62
7
100
AcDbSpline
 70
8
 71
3
 72
8
 73
4
 74
0
 40
0
 40
0
 40
0
 40
0
 40
1
 40
1
 40
1
 40
1
 10
14.835393
 20
20.874999
 30
0.0
 10
14.835386
 20
19.494287
 30
0.0
 10
15.954675
 20
18.374999
 30
0.0
 10
17.335386
 20
18.374999
 30
0.0
  0
LWPOLYLINE
  5
127
100
AcDbEntity
  8
PCB
 62
7
100
AcDbPolyline
 90
2
 70
0
 10
14.835399
 20
141.843750
 30
0.0
 10
14.835393
 20
20.874999
 30
0.0
  0
LWPOLYLINE
  5
128
100
AcDbEntity
  8
PCB
 62
7
100
AcDbPolyline
 90
1
 70
1
 10
17.335386
 20
18.374999
 30
0.0
  0
ENDSEC
  0
SECTION
  2
OBJECTS
  0
DICTIONARY
  5
C
330
0
100
AcDbDictionary
  3
ACAD_GROUP
350
D
  3
ACAD_MLINESTYLE
350
17
  0
DICTIONARY
  5
D
330
C
100
AcDbDictionary
  0
DICTIONARY
  5
1A
330
C
100
AcDbDictionary
  0
DICTIONARY
  5
17
330
C
100
AcDbDictionary
  3
STANDARD
350
18
  0
DICTIONARY
  5
19
330
C
100
AcDbDictionary
  0
ENDSEC
  0
EOF
