  0
SECTION
  2
HEADER
  9
$ACADVER
  1
AC1014
  9
$HANDSEED
  5
FFFF
  9
$MEASUREMENT
 70
     1
  0
ENDSEC
  0
SECTION
  2
TABLES
  0
TABLE
  2
VPORT
  5
8
330
0
100
AcDbSymbolTable
 70
     4
  0
VPORT
  5
2E
330
8
100
AcDbSymbolTableRecord
100
AcDbViewportTableRecord
  2
*ACTIVE
 70
     0
 10
0.0
 20
0.0
 11
1.0
 21
1.0
 12
210.0
 22
148.5
 13
0.0
 23
0.0
 14
10.0
 24
10.0
 15
10.0
 25
10.0
 16
0.0
 26
0.0
 36
1.0
 17
0.0
 27
0.0
 37
0.0
 40
341.0
 41
1.24
 42
50.0
 43
0.0
 44
0.0
 50
0.0
 51
0.0
 71
     0
 72
   100
 73
     1
 74
     3
 75
     0
 76
     0
 77
     0
 78
     0
  0
ENDTAB
  0
TABLE
  2
LTYPE
  5
5
330
0
100
AcDbSymbolTable
 70
     1
  0
LTYPE
  5
14
330
5
100
AcDbSymbolTableRecord
100
AcDbLinetypeTableRecord
  2
BYBLOCK
 70
     0
  3

 72
    65
 73
     0
 40
0.0
  0
LTYPE
  5
15
330
5
100
AcDbSymbolTableRecord
100
AcDbLinetypeTableRecord
  2
BYLAYER
 70
     0
  3

 72
    65
 73
     0
 40
0.0
  0
LTYPE
  5
16
330
5
100
AcDbSymbolTableRecord
100
AcDbLinetypeTableRecord
  2
CONTINUOUS
 70
     0
  3
Solid line
 72
    65
 73
     0
 40
0.0
  0
ENDTAB
  0
TABLE
  2
LAYER
  5
2
100
AcDbSymbolTable
 70
2
  0
LAYER
  5
50
100
AcDbSymbolTableRecord
100
AcDbLayerTableRecord
  2
0
 70
0
  6
CONTINUOUS
  0
LAYER
  5
51
100
AcDbSymbolTableRecord
100
AcDbLayerTableRecord
  2
PCBGlasses
 70
0
  6
CONTINUOUS
  0
ENDTAB
  0
TABLE
  2
STYLE
  5
3
330
0
100
AcDbSymbolTable
 70
     1
  0
STYLE
  5
11
330
3
100
AcDbSymbolTableRecord
100
AcDbTextStyleTableRecord
  2
STANDARD
 70
     0
 40
0.0
 41
1.0
 50
0.0
 71
     0
 42
2.5
  3
txt
  4

  0
ENDTAB
  0
TABLE
  2
VIEW
  5
6
330
0
100
AcDbSymbolTable
 70
     0
  0
ENDTAB
  0
TABLE
  2
UCS
  5
7
330
0
100
AcDbSymbolTable
 70
     0
  0
ENDTAB
  0
TABLE
  2
APPID
  5
9
330
0
100
AcDbSymbolTable
 70
     2
  0
APPID
  5
12
330
9
100
AcDbSymbolTableRecord
100
AcDbRegAppTableRecord
  2
ACAD
 70
     0
  0
ENDTAB
  0
TABLE
  2
DIMSTYLE
  5
A
330
0
100
AcDbSymbolTable
 70
     1
  0
DIMSTYLE
105
27
330
A
100
AcDbSymbolTableRecord
100
AcDbDimStyleTableRecord
  2
ISO-25
 70
     0
  3

  4

  5

  6

  7

 40
1.0
 41
2.5
 42
0.625
 43
3.75
 44
1.25
 45
0.0
 46
0.0
 47
0.0
 48
0.0
140
2.5
141
2.5
142
0.0
143
0.03937007874016
144
1.0
145
0.0
146
1.0
147
0.625
 71
     0
 72
     0
 73
     0
 74
     0
 75
     0
 76
     0
 77
     1
 78
     8
170
     0
171
     3
172
     1
173
     0
174
     0
175
     0
176
     0
177
     0
178
     0
270
     2
271
     2
272
     2
273
     2
274
     3
340
11
275
     0
280
     0
281
     0
282
     0
283
     0
284
     8
285
     0
286
     0
287
     3
288
     0
  0
ENDTAB
  0
TABLE
  2
BLOCK_RECORD
  5
1
330
0
100
AcDbSymbolTable
 70
     1
  0
BLOCK_RECORD
  5
1F
330
1
100
AcDbSymbolTableRecord
100
AcDbBlockTableRecord
  2
*MODEL_SPACE
  0
BLOCK_RECORD
  5
1B
330
1
100
AcDbSymbolTableRecord
100
AcDbBlockTableRecord
  2
*PAPER_SPACE
  0
ENDTAB
  0
ENDSEC
  0
SECTION
  2
BLOCKS
  0
BLOCK
  5
20
330
1F
100
AcDbEntity
  8
0
100
AcDbBlockBegin
  2
*MODEL_SPACE
 70
     0
 10
0.0
 20
0.0
 30
0.0
  3
*MODEL_SPACE
  1

  0
ENDBLK
  5
21
330
1F
100
AcDbEntity
  8
0
100
AcDbBlockEnd
  0
BLOCK
  5
1C
330
1B
100
AcDbEntity
 67
     1
  8
0
100
AcDbBlockBegin
  2
*PAPER_SPACE
  1

  0
ENDBLK
  5
1D
330
1B
100
AcDbEntity
 67
     1
  8
0
100
AcDbBlockEnd
  0
ENDSEC
  0
SECTION
  2
ENTITIES
  0
SPLINE
  5
100
100
AcDbEntity
  8
PCBGlasses
 62
7
100
AcDbSpline
 70
8
 71
3
 72
8
 73
4
 74
0
 40
0
 40
0
 40
0
 40
0
 40
1
 40
1
 40
1
 40
1
 10
294.855969
 20
136.924375
 30
0.0
 10
294.855969
 20
136.924375
 30
0.0
 10
294.831262
 20
137.655706
 30
0.0
 10
294.945611
 20
137.875292
 30
0.0
  0
SPLINE
  5
101
100
AcDbEntity
  8
PCBGlasses
 62
7
100
AcDbSpline
 70
8
 71
3
 72
8
 73
4
 74
0
 40
0
 40
0
 40
0
 40
0
 40
1
 40
1
 40
1
 40
1
 10
294.945611
 20
137.875292
 30
0.0
 10
295.108402
 20
138.188369
 30
0.0
 10
295.285286
 20
138.372327
 30
0.0
 10
295.579443
 20
138.496544
 30
0.0
  0
SPLINE
  5
102
100
AcDbEntity
  8
PCBGlasses
 62
7
100
AcDbSpline
 70
8
 71
3
 72
8
 73
4
 74
0
 40
0
 40
0
 40
0
 40
0
 40
1
 40
1
 40
1
 40
1
 10
295.579443
 20
138.496544
 30
0.0
 10
296.611272
 20
138.932275
 30
0.0
 10
298.081988
 20
138.868840
 30
0.0
 10
299.068230
 20
138.931481
 30
0.0
  0
SPLINE
  5
103
100
AcDbEntity
  8
PCBGlasses
 62
7
100
AcDbSpline
 70
8
 71
3
 72
8
 73
4
 74
0
 40
0
 40
0
 40
0
 40
0
 40
1
 40
1
 40
1
 40
1
 10
299.068230
 20
138.931481
 30
0.0
 10
300.525896
 20
138.998548
 30
0.0
 10
301.168601
 20
138.975596
 30
0.0
 10
302.575356
 20
138.863477
 30
0.0
  0
SPLINE
  5
104
100
AcDbEntity
  8
PCBGlasses
 62
7
100
AcDbSpline
 70
8
 71
3
 72
8
 73
4
 74
0
 40
0
 40
0
 40
0
 40
0
 40
1
 40
1
 40
1
 40
1
 10
302.575356
 20
138.863477
 30
0.0
 10
303.401244
 20
138.797652
 30
0.0
 10
305.086287
 20
138.700163
 30
0.0
 10
305.878594
 20
138.457632
 30
0.0
  0
SPLINE
  5
105
100
AcDbEntity
  8
PCBGlasses
 62
7
100
AcDbSpline
 70
8
 71
3
 72
8
 73
4
 74
0
 40
0
 40
0
 40
0
 40
0
 40
1
 40
1
 40
1
 40
1
 10
305.878594
 20
138.457632
 30
0.0
 10
306.276105
 20
138.335943
 30
0.0
 10
306.563685
 20
138.162164
 30
0.0
 10
306.873780
 20
137.885112
 30
0.0
  0
SPLINE
  5
106
100
AcDbEntity
  8
PCBGlasses
 62
7
100
AcDbSpline
 70
8
 71
3
 72
8
 73
4
 74
0
 40
0
 40
0
 40
0
 40
0
 40
1
 40
1
 40
1
 40
1
 10
306.873780
 20
137.885112
 30
0.0
 10
306.963109
 20
137.805296
 30
0.0
 10
307.097225
 20
137.706336
 30
0.0
 10
307.146918
 20
137.597289
 30
0.0
  0
SPLINE
  5
107
100
AcDbEntity
  8
PCBGlasses
 62
7
100
AcDbSpline
 70
8
 71
3
 72
8
 73
4
 74
0
 40
0
 40
0
 40
0
 40
0
 40
1
 40
1
 40
1
 40
1
 10
307.146918
 20
137.597289
 30
0.0
 10
307.332989
 20
137.188797
 30
0.0
 10
307.431366
 20
136.305961
 30
0.0
 10
307.431366
 20
136.305961
 30
0.0
  0
LWPOLYLINE
  5
108
100
AcDbEntity
  8
PCBGlasses
 62
7
100
AcDbPolyline
 90
3
 70
0
 10
293.062039
 20
138.674665
 30
0.0
 10
293.281621
 20
136.709954
 30
0.0
 10
294.855969
 20
136.924375
 30
0.0
  0
SPLINE
  5
109
100
AcDbEntity
  8
PCBGlasses
 62
7
100
AcDbSpline
 70
8
 71
3
 72
8
 73
4
 74
0
 40
0
 40
0
 40
0
 40
0
 40
1
 40
1
 40
1
 40
1
 10
308.017732
 20
136.326020
 30
0.0
 10
308.017732
 20
136.326020
 30
0.0
 10
308.162148
 20
137.094832
 30
0.0
 10
308.066694
 20
137.461413
 30
0.0
  0
SPLINE
  5
10a
100
AcDbEntity
  8
PCBGlasses
 62
7
100
AcDbSpline
 70
8
 71
3
 72
8
 73
4
 74
0
 40
0
 40
0
 40
0
 40
0
 40
1
 40
1
 40
1
 40
1
 10
308.066694
 20
137.461413
 30
0.0
 10
307.978409
 20
137.800650
 30
0.0
 10
307.873141
 20
138.056080
 30
0.0
 10
307.514849
 20
138.356437
 30
0.0
  0
SPLINE
  5
10b
100
AcDbEntity
  8
PCBGlasses
 62
7
100
AcDbSpline
 70
8
 71
3
 72
8
 73
4
 74
0
 40
0
 40
0
 40
0
 40
0
 40
1
 40
1
 40
1
 40
1
 10
307.514849
 20
138.356437
 30
0.0
 10
306.908266
 20
138.864946
 30
0.0
 10
306.249518
 20
139.066768
 30
0.0
 10
305.473393
 20
139.221129
 30
0.0
  0
SPLINE
  5
10c
100
AcDbEntity
  8
PCBGlasses
 62
7
100
AcDbSpline
 70
8
 71
3
 72
8
 73
4
 74
0
 40
0
 40
0
 40
0
 40
0
 40
1
 40
1
 40
1
 40
1
 10
305.473393
 20
139.221129
 30
0.0
 10
304.173089
 20
139.479725
 30
0.0
 10
302.952787
 20
139.567801
 30
0.0
 10
301.439826
 20
139.615809
 30
0.0
  0
SPLINE
  5
10d
100
AcDbEntity
  8
PCBGlasses
 62
7
100
AcDbSpline
 70
8
 71
3
 72
8
 73
4
 74
0
 40
0
 40
0
 40
0
 40
0
 40
1
 40
1
 40
1
 40
1
 10
301.439826
 20
139.615809
 30
0.0
 10
300.205292
 20
139.654945
 30
0.0
 10
299.076234
 20
139.667704
 30
0.0
 10
297.841560
 20
139.632525
 30
0.0
  0
SPLINE
  5
10e
100
AcDbEntity
  8
PCBGlasses
 62
7
100
AcDbSpline
 70
8
 71
3
 72
8
 73
4
 74
0
 40
0
 40
0
 40
0
 40
0
 40
1
 40
1
 40
1
 40
1
 10
297.841560
 20
139.632525
 30
0.0
 10
297.139697
 20
139.612536
 30
0.0
 10
295.610866
 20
139.451712
 30
0.0
 10
295.001777
 20
139.313513
 30
0.0
  0
SPLINE
  5
10f
100
AcDbEntity
  8
PCBGlasses
 62
7
100
AcDbSpline
 70
8
 71
3
 72
8
 73
4
 74
0
 40
0
 40
0
 40
0
 40
0
 40
1
 40
1
 40
1
 40
1
 10
295.001777
 20
139.313513
 30
0.0
 10
294.258363
 20
139.134790
 30
0.0
 10
293.582529
 20
138.900463
 30
0.0
 10
293.062039
 20
138.674644
 30
0.0
  0
LWPOLYLINE
  5
110
100
AcDbEntity
  8
PCBGlasses
 62
7
100
AcDbPolyline
 90
2
 70
0
 10
307.431366
 20
136.305961
 30
0.0
 10
308.017732
 20
136.326020
 30
0.0
  0
LWPOLYLINE
  5
111
100
AcDbEntity
  8
PCBGlasses
 62
7
100
AcDbPolyline
 90
1
 70
1
 10
293.062039
 20
138.674644
 30
0.0
  0
SPLINE
  5
112
100
AcDbEntity
  8
PCBGlasses
 62
7
100
AcDbSpline
 70
8
 71
3
 72
8
 73
4
 74
0
 40
0
 40
0
 40
0
 40
0
 40
1
 40
1
 40
1
 40
1
 10
324.269031
 20
136.924375
 30
0.0
 10
324.269031
 20
136.924375
 30
0.0
 10
324.293738
 20
137.655706
 30
0.0
 10
324.179388
 20
137.875292
 30
0.0
  0
SPLINE
  5
113
100
AcDbEntity
  8
PCBGlasses
 62
7
100
AcDbSpline
 70
8
 71
3
 72
8
 73
4
 74
0
 40
0
 40
0
 40
0
 40
0
 40
1
 40
1
 40
1
 40
1
 10
324.179388
 20
137.875292
 30
0.0
 10
324.016598
 20
138.188369
 30
0.0
 10
323.839714
 20
138.372327
 30
0.0
 10
323.545557
 20
138.496544
 30
0.0
  0
SPLINE
  5
114
100
AcDbEntity
  8
PCBGlasses
 62
7
100
AcDbSpline
 70
8
 71
3
 72
8
 73
4
 74
0
 40
0
 40
0
 40
0
 40
0
 40
1
 40
1
 40
1
 40
1
 10
323.545557
 20
138.496544
 30
0.0
 10
322.513728
 20
138.932275
 30
0.0
 10
321.043012
 20
138.868840
 30
0.0
 10
320.056770
 20
138.931488
 30
0.0
  0
SPLINE
  5
115
100
AcDbEntity
  8
PCBGlasses
 62
7
100
AcDbSpline
 70
8
 71
3
 72
8
 73
4
 74
0
 40
0
 40
0
 40
0
 40
0
 40
1
 40
1
 40
1
 40
1
 10
320.056770
 20
138.931488
 30
0.0
 10
318.599104
 20
138.998559
 30
0.0
 10
317.956399
 20
138.975603
 30
0.0
 10
316.549644
 20
138.863484
 30
0.0
  0
SPLINE
  5
116
100
AcDbEntity
  8
PCBGlasses
 62
7
100
AcDbSpline
 70
8
 71
3
 72
8
 73
4
 74
0
 40
0
 40
0
 40
0
 40
0
 40
1
 40
1
 40
1
 40
1
 10
316.549644
 20
138.863484
 30
0.0
 10
315.723756
 20
138.797663
 30
0.0
 10
314.038712
 20
138.700163
 30
0.0
 10
313.246406
 20
138.457632
 30
0.0
  0
SPLINE
  5
117
100
AcDbEntity
  8
PCBGlasses
 62
7
100
AcDbSpline
 70
8
 71
3
 72
8
 73
4
 74
0
 40
0
 40
0
 40
0
 40
0
 40
1
 40
1
 40
1
 40
1
 10
313.246406
 20
138.457632
 30
0.0
 10
312.848895
 20
138.335943
 30
0.0
 10
312.561315
 20
138.162164
 30
0.0
 10
312.251220
 20
137.885112
 30
0.0
  0
SPLINE
  5
118
100
AcDbEntity
  8
PCBGlasses
 62
7
100
AcDbSpline
 70
8
 71
3
 72
8
 73
4
 74
0
 40
0
 40
0
 40
0
 40
0
 40
1
 40
1
 40
1
 40
1
 10
312.251220
 20
137.885112
 30
0.0
 10
312.161891
 20
137.805296
 30
0.0
 10
312.027775
 20
137.706336
 30
0.0
 10
311.978082
 20
137.597296
 30
0.0
  0
SPLINE
  5
119
100
AcDbEntity
  8
PCBGlasses
 62
7
100
AcDbSpline
 70
8
 71
3
 72
8
 73
4
 74
0
 40
0
 40
0
 40
0
 40
0
 40
1
 40
1
 40
1
 40
1
 10
311.978082
 20
137.597296
 30
0.0
 10
311.792011
 20
137.188797
 30
0.0
 10
311.693634
 20
136.305968
 30
0.0
 10
311.693634
 20
136.305968
 30
0.0
  0
LWPOLYLINE
  5
11a
100
AcDbEntity
  8
PCBGlasses
 62
7
100
AcDbPolyline
 90
3
 70
0
 10
326.062961
 20
138.674665
 30
0.0
 10
325.843378
 20
136.709954
 30
0.0
 10
324.269031
 20
136.924375
 30
0.0
  0
SPLINE
  5
11b
100
AcDbEntity
  8
PCBGlasses
 62
7
100
AcDbSpline
 70
8
 71
3
 72
8
 73
4
 74
0
 40
0
 40
0
 40
0
 40
0
 40
1
 40
1
 40
1
 40
1
 10
311.107268
 20
136.326027
 30
0.0
 10
311.107268
 20
136.326027
 30
0.0
 10
310.962852
 20
137.094832
 30
0.0
 10
311.058271
 20
137.461413
 30
0.0
  0
SPLINE
  5
11c
100
AcDbEntity
  8
PCBGlasses
 62
7
100
AcDbSpline
 70
8
 71
3
 72
8
 73
4
 74
0
 40
0
 40
0
 40
0
 40
0
 40
1
 40
1
 40
1
 40
1
 10
311.058271
 20
137.461413
 30
0.0
 10
311.146591
 20
137.800650
 30
0.0
 10
311.251859
 20
138.056080
 30
0.0
 10
311.610150
 20
138.356437
 30
0.0
  0
SPLINE
  5
11d
100
AcDbEntity
  8
PCBGlasses
 62
7
100
AcDbSpline
 70
8
 71
3
 72
8
 73
4
 74
0
 40
0
 40
0
 40
0
 40
0
 40
1
 40
1
 40
1
 40
1
 10
311.610150
 20
138.356437
 30
0.0
 10
312.216734
 20
138.864946
 30
0.0
 10
312.875482
 20
139.066775
 30
0.0
 10
313.651607
 20
139.221129
 30
0.0
  0
SPLINE
  5
11e
100
AcDbEntity
  8
PCBGlasses
 62
7
100
AcDbSpline
 70
8
 71
3
 72
8
 73
4
 74
0
 40
0
 40
0
 40
0
 40
0
 40
1
 40
1
 40
1
 40
1
 10
313.651607
 20
139.221129
 30
0.0
 10
314.951911
 20
139.479731
 30
0.0
 10
316.172212
 20
139.567801
 30
0.0
 10
317.685139
 20
139.615809
 30
0.0
  0
SPLINE
  5
11f
100
AcDbEntity
  8
PCBGlasses
 62
7
100
AcDbSpline
 70
8
 71
3
 72
8
 73
4
 74
0
 40
0
 40
0
 40
0
 40
0
 40
1
 40
1
 40
1
 40
1
 10
317.685139
 20
139.615809
 30
0.0
 10
318.919708
 20
139.654945
 30
0.0
 10
320.048766
 20
139.667704
 30
0.0
 10
321.283439
 20
139.632525
 30
0.0
  0
SPLINE
  5
120
100
AcDbEntity
  8
PCBGlasses
 62
7
100
AcDbSpline
 70
8
 71
3
 72
8
 73
4
 74
0
 40
0
 40
0
 40
0
 40
0
 40
1
 40
1
 40
1
 40
1
 10
321.283439
 20
139.632525
 30
0.0
 10
321.985303
 20
139.612536
 30
0.0
 10
323.514133
 20
139.451712
 30
0.0
 10
324.123222
 20
139.313513
 30
0.0
  0
SPLINE
  5
121
100
AcDbEntity
  8
PCBGlasses
 62
7
100
AcDbSpline
 70
8
 71
3
 72
8
 73
4
 74
0
 40
0
 40
0
 40
0
 40
0
 40
1
 40
1
 40
1
 40
1
 10
324.123222
 20
139.313513
 30
0.0
 10
324.866636
 20
139.134790
 30
0.0
 10
325.542470
 20
138.900463
 30
0.0
 10
326.062961
 20
138.674644
 30
0.0
  0
LWPOLYLINE
  5
122
100
AcDbEntity
  8
PCBGlasses
 62
7
100
AcDbPolyline
 90
2
 70
0
 10
311.693634
 20
136.305968
 30
0.0
 10
311.107268
 20
136.326027
 30
0.0
  0
SPLINE
  5
123
100
AcDbEntity
  8
PCBGlasses
 62
7
100
AcDbSpline
 70
8
 71
3
 72
8
 73
4
 74
0
 40
0
 40
0
 40
0
 40
0
 40
1
 40
1
 40
1
 40
1
 10
294.462286
 20
137.710825
 30
0.0
 10
294.462286
 20
137.710825
 30
0.0
 10
294.385485
 20
135.850304
 30
0.0
 10
294.353991
 20
134.972361
 30
0.0
  0
SPLINE
  5
124
100
AcDbEntity
  8
PCBGlasses
 62
7
100
AcDbSpline
 70
8
 71
3
 72
8
 73
4
 74
0
 40
0
 40
0
 40
0
 40
0
 40
1
 40
1
 40
1
 40
1
 10
294.353991
 20
134.972361
 30
0.0
 10
294.306108
 20
133.636069
 30
0.0
 10
294.499556
 20
132.337826
 30
0.0
 10
295.009642
 20
131.213260
 30
0.0
  0
SPLINE
  5
125
100
AcDbEntity
  8
PCBGlasses
 62
7
100
AcDbSpline
 70
8
 71
3
 72
8
 73
4
 74
0
 40
0
 40
0
 40
0
 40
0
 40
1
 40
1
 40
1
 40
1
 10
295.009642
 20
131.213260
 30
0.0
 10
295.433460
 20
130.278784
 30
0.0
 10
296.601215
 20
129.400524
 30
0.0
 10
297.227565
 20
129.131019
 30
0.0
  0
SPLINE
  5
126
100
AcDbEntity
  8
PCBGlasses
 62
7
100
AcDbSpline
 70
8
 71
3
 72
8
 73
4
 74
0
 40
0
 40
0
 40
0
 40
0
 40
1
 40
1
 40
1
 40
1
 10
297.227565
 20
129.131019
 30
0.0
 10
298.444038
 20
128.607622
 30
0.0
 10
300.763678
 20
128.657573
 30
0.0
 10
301.127991
 20
128.635610
 30
0.0
  0
SPLINE
  5
127
100
AcDbEntity
  8
PCBGlasses
 62
7
100
AcDbSpline
 70
8
 71
3
 72
8
 73
4
 74
0
 40
0
 40
0
 40
0
 40
0
 40
1
 40
1
 40
1
 40
1
 10
301.127991
 20
128.635610
 30
0.0
 10
301.374368
 20
128.620740
 30
0.0
 10
303.575831
 20
128.733566
 30
0.0
 10
304.478799
 20
129.424891
 30
0.0
  0
SPLINE
  5
128
100
AcDbEntity
  8
PCBGlasses
 62
7
100
AcDbSpline
 70
8
 71
3
 72
8
 73
4
 74
0
 40
0
 40
0
 40
0
 40
0
 40
1
 40
1
 40
1
 40
1
 10
304.478799
 20
129.424891
 30
0.0
 10
305.237490
 20
130.005761
 30
0.0
 10
305.861229
 20
130.791553
 30
0.0
 10
306.295175
 20
131.643179
 30
0.0
  0
SPLINE
  5
129
100
AcDbEntity
  8
PCBGlasses
 62
7
100
AcDbSpline
 70
8
 71
3
 72
8
 73
4
 74
0
 40
0
 40
0
 40
0
 40
0
 40
1
 40
1
 40
1
 40
1
 10
306.295175
 20
131.643179
 30
0.0
 10
307.106307
 20
133.235082
 30
0.0
 10
307.540044
 20
136.312209
 30
0.0
 10
307.654811
 20
136.828338
 30
0.0
  0
SPLINE
  5
12a
100
AcDbEntity
  8
PCBGlasses
 62
7
100
AcDbSpline
 70
8
 71
3
 72
8
 73
4
 74
0
 40
0
 40
0
 40
0
 40
0
 40
1
 40
1
 40
1
 40
1
 10
324.662713
 20
137.710825
 30
0.0
 10
324.662713
 20
137.710825
 30
0.0
 10
324.739515
 20
135.850304
 30
0.0
 10
324.771008
 20
134.972361
 30
0.0
  0
SPLINE
  5
12b
100
AcDbEntity
  8
PCBGlasses
 62
7
100
AcDbSpline
 70
8
 71
3
 72
8
 73
4
 74
0
 40
0
 40
0
 40
0
 40
0
 40
1
 40
1
 40
1
 40
1
 10
324.771008
 20
134.972361
 30
0.0
 10
324.818892
 20
133.636069
 30
0.0
 10
324.625444
 20
132.337826
 30
0.0
 10
324.115358
 20
131.213260
 30
0.0
  0
SPLINE
  5
12c
100
AcDbEntity
  8
PCBGlasses
 62
7
100
AcDbSpline
 70
8
 71
3
 72
8
 73
4
 74
0
 40
0
 40
0
 40
0
 40
0
 40
1
 40
1
 40
1
 40
1
 10
324.115358
 20
131.213260
 30
0.0
 10
323.691539
 20
130.278784
 30
0.0
 10
322.523785
 20
129.400524
 30
0.0
 10
321.897400
 20
129.131019
 30
0.0
  0
SPLINE
  5
12d
100
AcDbEntity
  8
PCBGlasses
 62
7
100
AcDbSpline
 70
8
 71
3
 72
8
 73
4
 74
0
 40
0
 40
0
 40
0
 40
0
 40
1
 40
1
 40
1
 40
1
 10
321.897400
 20
129.131019
 30
0.0
 10
320.680962
 20
128.607622
 30
0.0
 10
318.361321
 20
128.657573
 30
0.0
 10
317.997009
 20
128.635610
 30
0.0
  0
SPLINE
  5
12e
100
AcDbEntity
  8
PCBGlasses
 62
7
100
AcDbSpline
 70
8
 71
3
 72
8
 73
4
 74
0
 40
0
 40
0
 40
0
 40
0
 40
1
 40
1
 40
1
 40
1
 10
317.997009
 20
128.635610
 30
0.0
 10
317.750631
 20
128.620740
 30
0.0
 10
315.549134
 20
128.733566
 30
0.0
 10
314.646166
 20
129.424891
 30
0.0
  0
SPLINE
  5
12f
100
AcDbEntity
  8
PCBGlasses
 62
7
100
AcDbSpline
 70
8
 71
3
 72
8
 73
4
 74
0
 40
0
 40
0
 40
0
 40
0
 40
1
 40
1
 40
1
 40
1
 10
314.646166
 20
129.424891
 30
0.0
 10
313.887475
 20
130.005761
 30
0.0
 10
313.263770
 20
130.791553
 30
0.0
 10
312.829825
 20
131.643179
 30
0.0
  0
SPLINE
  5
130
100
AcDbEntity
  8
PCBGlasses
 62
7
100
AcDbSpline
 70
8
 71
3
 72
8
 73
4
 74
0
 40
0
 40
0
 40
0
 40
0
 40
1
 40
1
 40
1
 40
1
 10
312.829825
 20
131.643179
 30
0.0
 10
312.018692
 20
133.235082
 30
0.0
 10
311.584956
 20
136.312209
 30
0.0
 10
311.470188
 20
136.828338
 30
0.0
  0
LWPOLYLINE
  5
131
100
AcDbEntity
  8
PCBGlasses
 62
7
100
AcDbPolyline
 90
1
 70
1
 10
326.062961
 20
138.674644
 30
0.0
  0
SPLINE
  5
132
100
AcDbEntity
  8
PCBGlasses
 62
7
100
AcDbSpline
 70
8
 71
3
 72
8
 73
4
 74
0
 40
0
 40
0
 40
0
 40
0
 40
1
 40
1
 40
1
 40
1
 10
307.337130
 20
136.224446
 30
0.0
 10
307.337130
 20
136.224446
 30
0.0
 10
308.824271
 20
136.448806
 30
0.0
 10
309.573462
 20
136.448806
 30
0.0
  0
SPLINE
  5
133
100
AcDbEntity
  8
PCBGlasses
 62
7
100
AcDbSpline
 70
8
 71
3
 72
8
 73
4
 74
0
 40
0
 40
0
 40
0
 40
0
 40
1
 40
1
 40
1
 40
1
 10
309.573462
 20
136.448806
 30
0.0
 10
310.322652
 20
136.448806
 30
0.0
 10
311.798831
 20
136.224446
 30
0.0
 10
311.798831
 20
136.224446
 30
0.0
  0
LWPOLYLINE
  5
134
100
AcDbEntity
  8
PCBGlasses
 62
7
100
AcDbPolyline
 90
2
 70
0
 10
307.259911
 20
136.679542
 30
0.0
 10
307.337130
 20
136.224446
 30
0.0
  0
SPLINE
  5
135
100
AcDbEntity
  8
PCBGlasses
 62
7
100
AcDbSpline
 70
8
 71
3
 72
8
 73
4
 74
0
 40
0
 40
0
 40
0
 40
0
 40
1
 40
1
 40
1
 40
1
 10
311.876051
 20
136.679542
 30
0.0
 10
311.876051
 20
136.679542
 30
0.0
 10
310.318233
 20
136.865241
 30
0.0
 10
309.536296
 20
136.852450
 30
0.0
  0
SPLINE
  5
136
100
AcDbEntity
  8
PCBGlasses
 62
7
100
AcDbSpline
 70
8
 71
3
 72
8
 73
4
 74
0
 40
0
 40
0
 40
0
 40
0
 40
1
 40
1
 40
1
 40
1
 10
309.536296
 20
136.852450
 30
0.0
 10
308.746634
 20
136.841028
 30
0.0
 10
307.259911
 20
136.679542
 30
0.0
 10
307.259911
 20
136.679542
 30
0.0
  0
LWPOLYLINE
  5
137
100
AcDbEntity
  8
PCBGlasses
 62
7
100
AcDbPolyline
 90
2
 70
0
 10
311.798831
 20
136.224446
 30
0.0
 10
311.876051
 20
136.679542
 30
0.0
  0
LWPOLYLINE
  5
138
100
AcDbEntity
  8
PCBGlasses
 62
7
100
AcDbPolyline
 90
1
 70
1
 10
307.259911
 20
136.679542
 30
0.0
  0
ENDSEC
  0
SECTION
  2
OBJECTS
  0
DICTIONARY
  5
C
330
0
100
AcDbDictionary
  3
ACAD_GROUP
350
D
  3
ACAD_MLINESTYLE
350
17
  0
DICTIONARY
  5
D
330
C
100
AcDbDictionary
  0
DICTIONARY
  5
1A
330
C
100
AcDbDictionary
  0
DICTIONARY
  5
17
330
C
100
AcDbDictionary
  3
STANDARD
350
18
  0
DICTIONARY
  5
19
330
C
100
AcDbDictionary
  0
ENDSEC
  0
EOF
