  0
SECTION
  2
HEADER
  9
$ACADVER
  1
AC1014
  9
$HANDSEED
  5
FFFF
  9
$MEASUREMENT
 70
     1
  0
ENDSEC
  0
SECTION
  2
TABLES
  0
TABLE
  2
VPORT
  5
8
330
0
100
AcDbSymbolTable
 70
     4
  0
VPORT
  5
2E
330
8
100
AcDbSymbolTableRecord
100
AcDbViewportTableRecord
  2
*ACTIVE
 70
     0
 10
0.0
 20
0.0
 11
1.0
 21
1.0
 12
210.0
 22
148.5
 13
0.0
 23
0.0
 14
10.0
 24
10.0
 15
10.0
 25
10.0
 16
0.0
 26
0.0
 36
1.0
 17
0.0
 27
0.0
 37
0.0
 40
341.0
 41
1.24
 42
50.0
 43
0.0
 44
0.0
 50
0.0
 51
0.0
 71
     0
 72
   100
 73
     1
 74
     3
 75
     0
 76
     0
 77
     0
 78
     0
  0
ENDTAB
  0
TABLE
  2
LTYPE
  5
5
330
0
100
AcDbSymbolTable
 70
     1
  0
LTYPE
  5
14
330
5
100
AcDbSymbolTableRecord
100
AcDbLinetypeTableRecord
  2
BYBLOCK
 70
     0
  3

 72
    65
 73
     0
 40
0.0
  0
LTYPE
  5
15
330
5
100
AcDbSymbolTableRecord
100
AcDbLinetypeTableRecord
  2
BYLAYER
 70
     0
  3

 72
    65
 73
     0
 40
0.0
  0
LTYPE
  5
16
330
5
100
AcDbSymbolTableRecord
100
AcDbLinetypeTableRecord
  2
CONTINUOUS
 70
     0
  3
Solid line
 72
    65
 73
     0
 40
0.0
  0
ENDTAB
  0
TABLE
  2
LAYER
  5
2
100
AcDbSymbolTable
 70
2
  0
LAYER
  5
50
100
AcDbSymbolTableRecord
100
AcDbLayerTableRecord
  2
0
 70
0
  6
CONTINUOUS
  0
LAYER
  5
51
100
AcDbSymbolTableRecord
100
AcDbLayerTableRecord
  2
Plate
 70
0
  6
CONTINUOUS
  0
ENDTAB
  0
TABLE
  2
STYLE
  5
3
330
0
100
AcDbSymbolTable
 70
     1
  0
STYLE
  5
11
330
3
100
AcDbSymbolTableRecord
100
AcDbTextStyleTableRecord
  2
STANDARD
 70
     0
 40
0.0
 41
1.0
 50
0.0
 71
     0
 42
2.5
  3
txt
  4

  0
ENDTAB
  0
TABLE
  2
VIEW
  5
6
330
0
100
AcDbSymbolTable
 70
     0
  0
ENDTAB
  0
TABLE
  2
UCS
  5
7
330
0
100
AcDbSymbolTable
 70
     0
  0
ENDTAB
  0
TABLE
  2
APPID
  5
9
330
0
100
AcDbSymbolTable
 70
     2
  0
APPID
  5
12
330
9
100
AcDbSymbolTableRecord
100
AcDbRegAppTableRecord
  2
ACAD
 70
     0
  0
ENDTAB
  0
TABLE
  2
DIMSTYLE
  5
A
330
0
100
AcDbSymbolTable
 70
     1
  0
DIMSTYLE
105
27
330
A
100
AcDbSymbolTableRecord
100
AcDbDimStyleTableRecord
  2
ISO-25
 70
     0
  3

  4

  5

  6

  7

 40
1.0
 41
2.5
 42
0.625
 43
3.75
 44
1.25
 45
0.0
 46
0.0
 47
0.0
 48
0.0
140
2.5
141
2.5
142
0.0
143
0.03937007874016
144
1.0
145
0.0
146
1.0
147
0.625
 71
     0
 72
     0
 73
     0
 74
     0
 75
     0
 76
     0
 77
     1
 78
     8
170
     0
171
     3
172
     1
173
     0
174
     0
175
     0
176
     0
177
     0
178
     0
270
     2
271
     2
272
     2
273
     2
274
     3
340
11
275
     0
280
     0
281
     0
282
     0
283
     0
284
     8
285
     0
286
     0
287
     3
288
     0
  0
ENDTAB
  0
TABLE
  2
BLOCK_RECORD
  5
1
330
0
100
AcDbSymbolTable
 70
     1
  0
BLOCK_RECORD
  5
1F
330
1
100
AcDbSymbolTableRecord
100
AcDbBlockTableRecord
  2
*MODEL_SPACE
  0
BLOCK_RECORD
  5
1B
330
1
100
AcDbSymbolTableRecord
100
AcDbBlockTableRecord
  2
*PAPER_SPACE
  0
ENDTAB
  0
ENDSEC
  0
SECTION
  2
BLOCKS
  0
BLOCK
  5
20
330
1F
100
AcDbEntity
  8
0
100
AcDbBlockBegin
  2
*MODEL_SPACE
 70
     0
 10
0.0
 20
0.0
 30
0.0
  3
*MODEL_SPACE
  1

  0
ENDBLK
  5
21
330
1F
100
AcDbEntity
  8
0
100
AcDbBlockEnd
  0
BLOCK
  5
1C
330
1B
100
AcDbEntity
 67
     1
  8
0
100
AcDbBlockBegin
  2
*PAPER_SPACE
  1

  0
ENDBLK
  5
1D
330
1B
100
AcDbEntity
 67
     1
  8
0
100
AcDbBlockEnd
  0
ENDSEC
  0
SECTION
  2
ENTITIES
  0
SPLINE
  5
100
100
AcDbEntity
  8
Plate
 62
7
100
AcDbSpline
 70
8
 71
3
 72
8
 73
4
 74
0
 40
0
 40
0
 40
0
 40
0
 40
1
 40
1
 40
1
 40
1
 10
30.312500
 20
97.775001
 30
0.0
 10
30.588646
 20
97.775001
 30
0.0
 10
30.812505
 20
97.998865
 30
0.0
 10
30.812499
 20
98.275010
 30
0.0
  0
LWPOLYLINE
  5
101
100
AcDbEntity
  8
Plate
 62
7
100
AcDbPolyline
 90
2
 70
0
 10
17.312500
 20
97.775001
 30
0.0
 10
30.312500
 20
97.775001
 30
0.0
  0
SPLINE
  5
102
100
AcDbEntity
  8
Plate
 62
7
100
AcDbSpline
 70
8
 71
3
 72
8
 73
4
 74
0
 40
0
 40
0
 40
0
 40
0
 40
1
 40
1
 40
1
 40
1
 10
30.812499
 20
111.274995
 30
0.0
 10
30.812505
 20
111.551140
 30
0.0
 10
30.588646
 20
111.775004
 30
0.0
 10
30.312500
 20
111.775004
 30
0.0
  0
LWPOLYLINE
  5
103
100
AcDbEntity
  8
Plate
 62
7
100
AcDbPolyline
 90
2
 70
0
 10
30.812499
 20
98.275010
 30
0.0
 10
30.812499
 20
111.274995
 30
0.0
  0
SPLINE
  5
104
100
AcDbEntity
  8
Plate
 62
7
100
AcDbSpline
 70
8
 71
3
 72
8
 73
4
 74
0
 40
0
 40
0
 40
0
 40
0
 40
1
 40
1
 40
1
 40
1
 10
17.312500
 20
111.775004
 30
0.0
 10
17.036354
 20
111.775004
 30
0.0
 10
16.812495
 20
111.551140
 30
0.0
 10
16.812500
 20
111.274995
 30
0.0
  0
LWPOLYLINE
  5
105
100
AcDbEntity
  8
Plate
 62
7
100
AcDbPolyline
 90
2
 70
0
 10
30.312500
 20
111.775004
 30
0.0
 10
17.312500
 20
111.775004
 30
0.0
  0
SPLINE
  5
106
100
AcDbEntity
  8
Plate
 62
7
100
AcDbSpline
 70
8
 71
3
 72
8
 73
4
 74
0
 40
0
 40
0
 40
0
 40
0
 40
1
 40
1
 40
1
 40
1
 10
16.812500
 20
98.275010
 30
0.0
 10
16.812495
 20
97.998865
 30
0.0
 10
17.036354
 20
97.775001
 30
0.0
 10
17.312500
 20
97.775001
 30
0.0
  0
LWPOLYLINE
  5
107
100
AcDbEntity
  8
Plate
 62
7
100
AcDbPolyline
 90
2
 70
0
 10
16.812500
 20
111.274995
 30
0.0
 10
16.812500
 20
98.275010
 30
0.0
  0
LWPOLYLINE
  5
108
100
AcDbEntity
  8
Plate
 62
7
100
AcDbPolyline
 90
1
 70
1
 10
17.312500
 20
97.775001
 30
0.0
  0
SPLINE
  5
109
100
AcDbEntity
  8
Plate
 62
7
100
AcDbSpline
 70
8
 71
3
 72
8
 73
4
 74
0
 40
0
 40
0
 40
0
 40
0
 40
1
 40
1
 40
1
 40
1
 10
40.674999
 20
78.725001
 30
0.0
 10
40.951145
 20
78.725001
 30
0.0
 10
41.175006
 20
78.948865
 30
0.0
 10
41.175001
 20
79.225010
 30
0.0
  0
LWPOLYLINE
  5
10a
100
AcDbEntity
  8
Plate
 62
7
100
AcDbPolyline
 90
2
 70
0
 10
39.675001
 20
78.725001
 30
0.0
 10
40.674999
 20
78.725001
 30
0.0
  0
SPLINE
  5
10b
100
AcDbEntity
  8
Plate
 62
7
100
AcDbSpline
 70
8
 71
3
 72
8
 73
4
 74
0
 40
0
 40
0
 40
0
 40
0
 40
1
 40
1
 40
1
 40
1
 10
41.175001
 20
92.224995
 30
0.0
 10
41.175006
 20
92.501140
 30
0.0
 10
40.951145
 20
92.725004
 30
0.0
 10
40.674999
 20
92.725004
 30
0.0
  0
LWPOLYLINE
  5
10c
100
AcDbEntity
  8
Plate
 62
7
100
AcDbPolyline
 90
2
 70
0
 10
41.175001
 20
79.225010
 30
0.0
 10
41.175001
 20
92.224995
 30
0.0
  0
SPLINE
  5
10d
100
AcDbEntity
  8
Plate
 62
7
100
AcDbSpline
 70
8
 71
3
 72
8
 73
4
 74
0
 40
0
 40
0
 40
0
 40
0
 40
1
 40
1
 40
1
 40
1
 10
39.675001
 20
92.725004
 30
0.0
 10
39.398855
 20
92.725004
 30
0.0
 10
39.174994
 20
92.501140
 30
0.0
 10
39.174999
 20
92.224995
 30
0.0
  0
LWPOLYLINE
  5
10e
100
AcDbEntity
  8
Plate
 62
7
100
AcDbPolyline
 90
2
 70
0
 10
40.674999
 20
92.725004
 30
0.0
 10
39.675001
 20
92.725004
 30
0.0
  0
SPLINE
  5
10f
100
AcDbEntity
  8
Plate
 62
7
100
AcDbSpline
 70
8
 71
3
 72
8
 73
4
 74
0
 40
0
 40
0
 40
0
 40
0
 40
1
 40
1
 40
1
 40
1
 10
39.174999
 20
79.225010
 30
0.0
 10
39.174994
 20
78.948865
 30
0.0
 10
39.398855
 20
78.725001
 30
0.0
 10
39.675001
 20
78.725001
 30
0.0
  0
LWPOLYLINE
  5
110
100
AcDbEntity
  8
Plate
 62
7
100
AcDbPolyline
 90
2
 70
0
 10
39.174999
 20
92.224995
 30
0.0
 10
39.174999
 20
79.225010
 30
0.0
  0
LWPOLYLINE
  5
111
100
AcDbEntity
  8
Plate
 62
7
100
AcDbPolyline
 90
1
 70
1
 10
39.675001
 20
78.725001
 30
0.0
  0
SPLINE
  5
112
100
AcDbEntity
  8
Plate
 62
7
100
AcDbSpline
 70
8
 71
3
 72
8
 73
4
 74
0
 40
0
 40
0
 40
0
 40
0
 40
1
 40
1
 40
1
 40
1
 10
17.475000
 20
78.725001
 30
0.0
 10
17.751146
 20
78.725001
 30
0.0
 10
17.975005
 20
78.948865
 30
0.0
 10
17.975000
 20
79.225010
 30
0.0
  0
LWPOLYLINE
  5
113
100
AcDbEntity
  8
Plate
 62
7
100
AcDbPolyline
 90
2
 70
0
 10
16.475000
 20
78.725001
 30
0.0
 10
17.475000
 20
78.725001
 30
0.0
  0
SPLINE
  5
114
100
AcDbEntity
  8
Plate
 62
7
100
AcDbSpline
 70
8
 71
3
 72
8
 73
4
 74
0
 40
0
 40
0
 40
0
 40
0
 40
1
 40
1
 40
1
 40
1
 10
17.975000
 20
92.224995
 30
0.0
 10
17.975005
 20
92.501140
 30
0.0
 10
17.751146
 20
92.725004
 30
0.0
 10
17.475000
 20
92.725004
 30
0.0
  0
LWPOLYLINE
  5
115
100
AcDbEntity
  8
Plate
 62
7
100
AcDbPolyline
 90
2
 70
0
 10
17.975000
 20
79.225010
 30
0.0
 10
17.975000
 20
92.224995
 30
0.0
  0
SPLINE
  5
116
100
AcDbEntity
  8
Plate
 62
7
100
AcDbSpline
 70
8
 71
3
 72
8
 73
4
 74
0
 40
0
 40
0
 40
0
 40
0
 40
1
 40
1
 40
1
 40
1
 10
16.475000
 20
92.725004
 30
0.0
 10
16.198854
 20
92.725004
 30
0.0
 10
15.974995
 20
92.501140
 30
0.0
 10
15.975000
 20
92.224995
 30
0.0
  0
LWPOLYLINE
  5
117
100
AcDbEntity
  8
Plate
 62
7
100
AcDbPolyline
 90
2
 70
0
 10
17.475000
 20
92.725004
 30
0.0
 10
16.475000
 20
92.725004
 30
0.0
  0
SPLINE
  5
118
100
AcDbEntity
  8
Plate
 62
7
100
AcDbSpline
 70
8
 71
3
 72
8
 73
4
 74
0
 40
0
 40
0
 40
0
 40
0
 40
1
 40
1
 40
1
 40
1
 10
15.975000
 20
79.225010
 30
0.0
 10
15.974995
 20
78.948865
 30
0.0
 10
16.198854
 20
78.725001
 30
0.0
 10
16.475000
 20
78.725001
 30
0.0
  0
LWPOLYLINE
  5
119
100
AcDbEntity
  8
Plate
 62
7
100
AcDbPolyline
 90
2
 70
0
 10
15.975000
 20
92.224995
 30
0.0
 10
15.975000
 20
79.225010
 30
0.0
  0
LWPOLYLINE
  5
11a
100
AcDbEntity
  8
Plate
 62
7
100
AcDbPolyline
 90
1
 70
1
 10
16.475000
 20
78.725001
 30
0.0
  0
LWPOLYLINE
  5
11b
100
AcDbEntity
  8
Plate
 62
7
100
AcDbPolyline
 90
2
 70
0
 10
296.850012
 20
92.725004
 30
0.0
 10
297.850004
 20
92.725004
 30
0.0
  0
LWPOLYLINE
  5
11c
100
AcDbEntity
  8
Plate
 62
7
100
AcDbPolyline
 90
2
 70
0
 10
296.850012
 20
78.725001
 30
0.0
 10
297.850004
 20
78.725001
 30
0.0
  0
LWPOLYLINE
  5
11d
100
AcDbEntity
  8
Plate
 62
7
100
AcDbPolyline
 90
2
 70
0
 10
296.350002
 20
92.224995
 30
0.0
 10
296.350002
 20
79.225010
 30
0.0
  0
SPLINE
  5
11e
100
AcDbEntity
  8
Plate
 62
7
100
AcDbSpline
 70
8
 71
3
 72
8
 73
4
 74
0
 40
0
 40
0
 40
0
 40
0
 40
1
 40
1
 40
1
 40
1
 10
296.850012
 20
92.725004
 30
0.0
 10
296.717400
 20
92.725007
 30
0.0
 10
296.590219
 20
92.672328
 30
0.0
 10
296.496449
 20
92.578558
 30
0.0
  0
SPLINE
  5
11f
100
AcDbEntity
  8
Plate
 62
7
100
AcDbSpline
 70
8
 71
3
 72
8
 73
4
 74
0
 40
0
 40
0
 40
0
 40
0
 40
1
 40
1
 40
1
 40
1
 10
296.496449
 20
92.578558
 30
0.0
 10
296.402678
 20
92.484787
 30
0.0
 10
296.350000
 20
92.357606
 30
0.0
 10
296.350002
 20
92.224995
 30
0.0
  0
SPLINE
  5
120
100
AcDbEntity
  8
Plate
 62
7
100
AcDbSpline
 70
8
 71
3
 72
8
 73
4
 74
0
 40
0
 40
0
 40
0
 40
0
 40
1
 40
1
 40
1
 40
1
 10
298.349987
 20
92.224995
 30
0.0
 10
298.349993
 20
92.501134
 30
0.0
 10
298.126144
 20
92.724995
 30
0.0
 10
297.850004
 20
92.725004
 30
0.0
  0
SPLINE
  5
121
100
AcDbEntity
  8
Plate
 62
7
100
AcDbSpline
 70
8
 71
3
 72
8
 73
4
 74
0
 40
0
 40
0
 40
0
 40
0
 40
1
 40
1
 40
1
 40
1
 10
296.350002
 20
79.225010
 30
0.0
 10
296.350000
 20
79.092399
 30
0.0
 10
296.402678
 20
78.965218
 30
0.0
 10
296.496449
 20
78.871447
 30
0.0
  0
SPLINE
  5
122
100
AcDbEntity
  8
Plate
 62
7
100
AcDbSpline
 70
8
 71
3
 72
8
 73
4
 74
0
 40
0
 40
0
 40
0
 40
0
 40
1
 40
1
 40
1
 40
1
 10
296.496449
 20
78.871447
 30
0.0
 10
296.590219
 20
78.777677
 30
0.0
 10
296.717400
 20
78.724998
 30
0.0
 10
296.850012
 20
78.725001
 30
0.0
  0
SPLINE
  5
123
100
AcDbEntity
  8
Plate
 62
7
100
AcDbSpline
 70
8
 71
3
 72
8
 73
4
 74
0
 40
0
 40
0
 40
0
 40
0
 40
1
 40
1
 40
1
 40
1
 10
297.850004
 20
78.725001
 30
0.0
 10
298.126144
 20
78.725010
 30
0.0
 10
298.349993
 20
78.948871
 30
0.0
 10
298.349987
 20
79.225010
 30
0.0
  0
LWPOLYLINE
  5
124
100
AcDbEntity
  8
Plate
 62
7
100
AcDbPolyline
 90
2
 70
0
 10
298.349987
 20
92.224995
 30
0.0
 10
298.349987
 20
79.225010
 30
0.0
  0
LWPOLYLINE
  5
125
100
AcDbEntity
  8
Plate
 62
7
100
AcDbPolyline
 90
2
 70
0
 10
273.649996
 20
92.725004
 30
0.0
 10
274.649988
 20
92.725004
 30
0.0
  0
LWPOLYLINE
  5
126
100
AcDbEntity
  8
Plate
 62
7
100
AcDbPolyline
 90
2
 70
0
 10
273.649996
 20
78.725001
 30
0.0
 10
274.649988
 20
78.725001
 30
0.0
  0
LWPOLYLINE
  5
127
100
AcDbEntity
  8
Plate
 62
7
100
AcDbPolyline
 90
2
 70
0
 10
273.150013
 20
92.224995
 30
0.0
 10
273.150013
 20
79.225010
 30
0.0
  0
SPLINE
  5
128
100
AcDbEntity
  8
Plate
 62
7
100
AcDbSpline
 70
8
 71
3
 72
8
 73
4
 74
0
 40
0
 40
0
 40
0
 40
0
 40
1
 40
1
 40
1
 40
1
 10
273.649996
 20
92.725004
 30
0.0
 10
273.373856
 20
92.724995
 30
0.0
 10
273.150007
 20
92.501134
 30
0.0
 10
273.150013
 20
92.224995
 30
0.0
  0
SPLINE
  5
129
100
AcDbEntity
  8
Plate
 62
7
100
AcDbSpline
 70
8
 71
3
 72
8
 73
4
 74
0
 40
0
 40
0
 40
0
 40
0
 40
1
 40
1
 40
1
 40
1
 10
275.149998
 20
92.224995
 30
0.0
 10
275.150000
 20
92.357606
 30
0.0
 10
275.097322
 20
92.484787
 30
0.0
 10
275.003551
 20
92.578558
 30
0.0
  0
SPLINE
  5
12a
100
AcDbEntity
  8
Plate
 62
7
100
AcDbSpline
 70
8
 71
3
 72
8
 73
4
 74
0
 40
0
 40
0
 40
0
 40
0
 40
1
 40
1
 40
1
 40
1
 10
275.003551
 20
92.578558
 30
0.0
 10
274.909781
 20
92.672328
 30
0.0
 10
274.782600
 20
92.725007
 30
0.0
 10
274.649988
 20
92.725004
 30
0.0
  0
SPLINE
  5
12b
100
AcDbEntity
  8
Plate
 62
7
100
AcDbSpline
 70
8
 71
3
 72
8
 73
4
 74
0
 40
0
 40
0
 40
0
 40
0
 40
1
 40
1
 40
1
 40
1
 10
273.150013
 20
79.225010
 30
0.0
 10
273.150007
 20
78.948871
 30
0.0
 10
273.373856
 20
78.725010
 30
0.0
 10
273.649996
 20
78.725001
 30
0.0
  0
SPLINE
  5
12c
100
AcDbEntity
  8
Plate
 62
7
100
AcDbSpline
 70
8
 71
3
 72
8
 73
4
 74
0
 40
0
 40
0
 40
0
 40
0
 40
1
 40
1
 40
1
 40
1
 10
274.649988
 20
78.725001
 30
0.0
 10
274.782600
 20
78.724998
 30
0.0
 10
274.909781
 20
78.777677
 30
0.0
 10
275.003551
 20
78.871447
 30
0.0
  0
SPLINE
  5
12d
100
AcDbEntity
  8
Plate
 62
7
100
AcDbSpline
 70
8
 71
3
 72
8
 73
4
 74
0
 40
0
 40
0
 40
0
 40
0
 40
1
 40
1
 40
1
 40
1
 10
275.003551
 20
78.871447
 30
0.0
 10
275.097322
 20
78.965218
 30
0.0
 10
275.150000
 20
79.092399
 30
0.0
 10
275.149998
 20
79.225010
 30
0.0
  0
LWPOLYLINE
  5
12e
100
AcDbEntity
  8
Plate
 62
7
100
AcDbPolyline
 90
2
 70
0
 10
275.149998
 20
92.224995
 30
0.0
 10
275.149998
 20
79.225010
 30
0.0
  0
SPLINE
  5
12f
100
AcDbEntity
  8
Plate
 62
7
100
AcDbSpline
 70
8
 71
3
 72
8
 73
4
 74
0
 40
0
 40
0
 40
0
 40
0
 40
1
 40
1
 40
1
 40
1
 10
37.956249
 20
73.174995
 30
0.0
 10
37.956252
 20
73.307605
 30
0.0
 10
37.903575
 20
73.434784
 30
0.0
 10
37.809806
 20
73.528554
 30
0.0
  0
SPLINE
  5
130
100
AcDbEntity
  8
Plate
 62
7
100
AcDbSpline
 70
8
 71
3
 72
8
 73
4
 74
0
 40
0
 40
0
 40
0
 40
0
 40
1
 40
1
 40
1
 40
1
 10
37.809806
 20
73.528554
 30
0.0
 10
37.716038
 20
73.622324
 30
0.0
 10
37.588860
 20
73.675004
 30
0.0
 10
37.456250
 20
73.675004
 30
0.0
  0
SPLINE
  5
131
100
AcDbEntity
  8
Plate
 62
7
100
AcDbSpline
 70
8
 71
3
 72
8
 73
4
 74
0
 40
0
 40
0
 40
0
 40
0
 40
1
 40
1
 40
1
 40
1
 10
37.456250
 20
59.675001
 30
0.0
 10
37.588860
 20
59.675001
 30
0.0
 10
37.716038
 20
59.727681
 30
0.0
 10
37.809806
 20
59.821451
 30
0.0
  0
SPLINE
  5
132
100
AcDbEntity
  8
Plate
 62
7
100
AcDbSpline
 70
8
 71
3
 72
8
 73
4
 74
0
 40
0
 40
0
 40
0
 40
0
 40
1
 40
1
 40
1
 40
1
 10
37.809806
 20
59.821451
 30
0.0
 10
37.903575
 20
59.915221
 30
0.0
 10
37.956252
 20
60.042400
 30
0.0
 10
37.956249
 20
60.175010
 30
0.0
  0
LWPOLYLINE
  5
133
100
AcDbEntity
  8
Plate
 62
7
100
AcDbPolyline
 90
2
 70
0
 10
37.956249
 20
73.174995
 30
0.0
 10
37.956249
 20
60.175010
 30
0.0
  0
LWPOLYLINE
  5
134
100
AcDbEntity
  8
Plate
 62
7
100
AcDbPolyline
 90
2
 70
0
 10
42.056251
 20
73.675004
 30
0.0
 10
43.056249
 20
73.675004
 30
0.0
  0
LWPOLYLINE
  5
135
100
AcDbEntity
  8
Plate
 62
7
100
AcDbPolyline
 90
2
 70
0
 10
42.056251
 20
59.675001
 30
0.0
 10
43.056249
 20
59.675001
 30
0.0
  0
LWPOLYLINE
  5
136
100
AcDbEntity
  8
Plate
 62
7
100
AcDbPolyline
 90
2
 70
0
 10
41.556249
 20
73.174995
 30
0.0
 10
41.556249
 20
60.175010
 30
0.0
  0
SPLINE
  5
137
100
AcDbEntity
  8
Plate
 62
7
100
AcDbSpline
 70
8
 71
3
 72
8
 73
4
 74
0
 40
0
 40
0
 40
0
 40
0
 40
1
 40
1
 40
1
 40
1
 10
42.056251
 20
73.675004
 30
0.0
 10
41.923641
 20
73.675005
 30
0.0
 10
41.796462
 20
73.622325
 30
0.0
 10
41.702693
 20
73.528555
 30
0.0
  0
SPLINE
  5
138
100
AcDbEntity
  8
Plate
 62
7
100
AcDbSpline
 70
8
 71
3
 72
8
 73
4
 74
0
 40
0
 40
0
 40
0
 40
0
 40
1
 40
1
 40
1
 40
1
 10
41.702693
 20
73.528555
 30
0.0
 10
41.608924
 20
73.434785
 30
0.0
 10
41.556247
 20
73.307605
 30
0.0
 10
41.556249
 20
73.174995
 30
0.0
  0
SPLINE
  5
139
100
AcDbEntity
  8
Plate
 62
7
100
AcDbSpline
 70
8
 71
3
 72
8
 73
4
 74
0
 40
0
 40
0
 40
0
 40
0
 40
1
 40
1
 40
1
 40
1
 10
43.556251
 20
73.174995
 30
0.0
 10
43.556253
 20
73.307605
 30
0.0
 10
43.503576
 20
73.434785
 30
0.0
 10
43.409807
 20
73.528555
 30
0.0
  0
SPLINE
  5
13a
100
AcDbEntity
  8
Plate
 62
7
100
AcDbSpline
 70
8
 71
3
 72
8
 73
4
 74
0
 40
0
 40
0
 40
0
 40
0
 40
1
 40
1
 40
1
 40
1
 10
43.409807
 20
73.528555
 30
0.0
 10
43.316038
 20
73.622325
 30
0.0
 10
43.188859
 20
73.675005
 30
0.0
 10
43.056249
 20
73.675004
 30
0.0
  0
SPLINE
  5
13b
100
AcDbEntity
  8
Plate
 62
7
100
AcDbSpline
 70
8
 71
3
 72
8
 73
4
 74
0
 40
0
 40
0
 40
0
 40
0
 40
1
 40
1
 40
1
 40
1
 10
41.556249
 20
60.175010
 30
0.0
 10
41.556247
 20
60.042400
 30
0.0
 10
41.608924
 20
59.915220
 30
0.0
 10
41.702693
 20
59.821450
 30
0.0
  0
SPLINE
  5
13c
100
AcDbEntity
  8
Plate
 62
7
100
AcDbSpline
 70
8
 71
3
 72
8
 73
4
 74
0
 40
0
 40
0
 40
0
 40
0
 40
1
 40
1
 40
1
 40
1
 10
41.702693
 20
59.821450
 30
0.0
 10
41.796462
 20
59.727680
 30
0.0
 10
41.923641
 20
59.675000
 30
0.0
 10
42.056251
 20
59.675001
 30
0.0
  0
SPLINE
  5
13d
100
AcDbEntity
  8
Plate
 62
7
100
AcDbSpline
 70
8
 71
3
 72
8
 73
4
 74
0
 40
0
 40
0
 40
0
 40
0
 40
1
 40
1
 40
1
 40
1
 10
43.056249
 20
59.675001
 30
0.0
 10
43.188859
 20
59.675000
 30
0.0
 10
43.316038
 20
59.727680
 30
0.0
 10
43.409807
 20
59.821450
 30
0.0
  0
SPLINE
  5
13e
100
AcDbEntity
  8
Plate
 62
7
100
AcDbSpline
 70
8
 71
3
 72
8
 73
4
 74
0
 40
0
 40
0
 40
0
 40
0
 40
1
 40
1
 40
1
 40
1
 10
43.409807
 20
59.821450
 30
0.0
 10
43.503576
 20
59.915220
 30
0.0
 10
43.556253
 20
60.042400
 30
0.0
 10
43.556251
 20
60.175010
 30
0.0
  0
LWPOLYLINE
  5
13f
100
AcDbEntity
  8
Plate
 62
7
100
AcDbPolyline
 90
2
 70
0
 10
43.556251
 20
73.174995
 30
0.0
 10
43.556251
 20
60.175010
 30
0.0
  0
SPLINE
  5
140
100
AcDbEntity
  8
Plate
 62
7
100
AcDbSpline
 70
8
 71
3
 72
8
 73
4
 74
0
 40
0
 40
0
 40
0
 40
0
 40
1
 40
1
 40
1
 40
1
 10
18.856250
 20
73.675004
 30
0.0
 10
18.723640
 20
73.675004
 30
0.0
 10
18.596462
 20
73.622325
 30
0.0
 10
18.502693
 20
73.528554
 30
0.0
  0
SPLINE
  5
141
100
AcDbEntity
  8
Plate
 62
7
100
AcDbSpline
 70
8
 71
3
 72
8
 73
4
 74
0
 40
0
 40
0
 40
0
 40
0
 40
1
 40
1
 40
1
 40
1
 10
18.502693
 20
73.528554
 30
0.0
 10
18.408925
 20
73.434784
 30
0.0
 10
18.356248
 20
73.307605
 30
0.0
 10
18.356250
 20
73.174995
 30
0.0
  0
SPLINE
  5
142
100
AcDbEntity
  8
Plate
 62
7
100
AcDbSpline
 70
8
 71
3
 72
8
 73
4
 74
0
 40
0
 40
0
 40
0
 40
0
 40
1
 40
1
 40
1
 40
1
 10
18.356250
 20
60.175010
 30
0.0
 10
18.356248
 20
60.042400
 30
0.0
 10
18.408925
 20
59.915221
 30
0.0
 10
18.502693
 20
59.821451
 30
0.0
  0
SPLINE
  5
143
100
AcDbEntity
  8
Plate
 62
7
100
AcDbSpline
 70
8
 71
3
 72
8
 73
4
 74
0
 40
0
 40
0
 40
0
 40
0
 40
1
 40
1
 40
1
 40
1
 10
18.502693
 20
59.821451
 30
0.0
 10
18.596462
 20
59.727680
 30
0.0
 10
18.723640
 20
59.675001
 30
0.0
 10
18.856250
 20
59.675001
 30
0.0
  0
LWPOLYLINE
  5
144
100
AcDbEntity
  8
Plate
 62
7
100
AcDbPolyline
 90
2
 70
0
 10
18.356250
 20
73.174995
 30
0.0
 10
18.356250
 20
60.175010
 30
0.0
  0
LWPOLYLINE
  5
145
100
AcDbEntity
  8
Plate
 62
7
100
AcDbPolyline
 90
2
 70
0
 10
18.856250
 20
73.675004
 30
0.0
 10
37.456250
 20
73.675004
 30
0.0
  0
LWPOLYLINE
  5
146
100
AcDbEntity
  8
Plate
 62
7
100
AcDbPolyline
 90
2
 70
0
 10
18.856250
 20
59.675001
 30
0.0
 10
37.456250
 20
59.675001
 30
0.0
  0
LWPOLYLINE
  5
147
100
AcDbEntity
  8
Plate
 62
7
100
AcDbPolyline
 90
2
 70
0
 10
275.418762
 20
54.625004
 30
0.0
 10
276.418754
 20
54.625004
 30
0.0
  0
LWPOLYLINE
  5
148
100
AcDbEntity
  8
Plate
 62
7
100
AcDbPolyline
 90
2
 70
0
 10
275.418762
 20
40.625001
 30
0.0
 10
276.418754
 20
40.625001
 30
0.0
  0
LWPOLYLINE
  5
149
100
AcDbEntity
  8
Plate
 62
7
100
AcDbPolyline
 90
2
 70
0
 10
274.918752
 20
54.124995
 30
0.0
 10
274.918752
 20
41.125010
 30
0.0
  0
SPLINE
  5
14a
100
AcDbEntity
  8
Plate
 62
7
100
AcDbSpline
 70
8
 71
3
 72
8
 73
4
 74
0
 40
0
 40
0
 40
0
 40
0
 40
1
 40
1
 40
1
 40
1
 10
275.418762
 20
54.625004
 30
0.0
 10
275.286150
 20
54.625007
 30
0.0
 10
275.158969
 20
54.572328
 30
0.0
 10
275.065199
 20
54.478558
 30
0.0
  0
SPLINE
  5
14b
100
AcDbEntity
  8
Plate
 62
7
100
AcDbSpline
 70
8
 71
3
 72
8
 73
4
 74
0
 40
0
 40
0
 40
0
 40
0
 40
1
 40
1
 40
1
 40
1
 10
275.065199
 20
54.478558
 30
0.0
 10
274.971428
 20
54.384787
 30
0.0
 10
274.918750
 20
54.257606
 30
0.0
 10
274.918752
 20
54.124995
 30
0.0
  0
SPLINE
  5
14c
100
AcDbEntity
  8
Plate
 62
7
100
AcDbSpline
 70
8
 71
3
 72
8
 73
4
 74
0
 40
0
 40
0
 40
0
 40
0
 40
1
 40
1
 40
1
 40
1
 10
276.918764
 20
54.124995
 30
0.0
 10
276.918766
 20
54.257606
 30
0.0
 10
276.866088
 20
54.384787
 30
0.0
 10
276.772317
 20
54.478558
 30
0.0
  0
SPLINE
  5
14d
100
AcDbEntity
  8
Plate
 62
7
100
AcDbSpline
 70
8
 71
3
 72
8
 73
4
 74
0
 40
0
 40
0
 40
0
 40
0
 40
1
 40
1
 40
1
 40
1
 10
276.772317
 20
54.478558
 30
0.0
 10
276.678547
 20
54.572328
 30
0.0
 10
276.551366
 20
54.625007
 30
0.0
 10
276.418754
 20
54.625004
 30
0.0
  0
SPLINE
  5
14e
100
AcDbEntity
  8
Plate
 62
7
100
AcDbSpline
 70
8
 71
3
 72
8
 73
4
 74
0
 40
0
 40
0
 40
0
 40
0
 40
1
 40
1
 40
1
 40
1
 10
274.918752
 20
41.125010
 30
0.0
 10
274.918750
 20
40.992399
 30
0.0
 10
274.971428
 20
40.865218
 30
0.0
 10
275.065199
 20
40.771447
 30
0.0
  0
SPLINE
  5
14f
100
AcDbEntity
  8
Plate
 62
7
100
AcDbSpline
 70
8
 71
3
 72
8
 73
4
 74
0
 40
0
 40
0
 40
0
 40
0
 40
1
 40
1
 40
1
 40
1
 10
275.065199
 20
40.771447
 30
0.0
 10
275.158969
 20
40.677677
 30
0.0
 10
275.286150
 20
40.624998
 30
0.0
 10
275.418762
 20
40.625001
 30
0.0
  0
SPLINE
  5
150
100
AcDbEntity
  8
Plate
 62
7
100
AcDbSpline
 70
8
 71
3
 72
8
 73
4
 74
0
 40
0
 40
0
 40
0
 40
0
 40
1
 40
1
 40
1
 40
1
 10
276.418754
 20
40.625001
 30
0.0
 10
276.551366
 20
40.624998
 30
0.0
 10
276.678547
 20
40.677677
 30
0.0
 10
276.772317
 20
40.771447
 30
0.0
  0
SPLINE
  5
151
100
AcDbEntity
  8
Plate
 62
7
100
AcDbSpline
 70
8
 71
3
 72
8
 73
4
 74
0
 40
0
 40
0
 40
0
 40
0
 40
1
 40
1
 40
1
 40
1
 10
276.772317
 20
40.771447
 30
0.0
 10
276.866088
 20
40.865218
 30
0.0
 10
276.918766
 20
40.992399
 30
0.0
 10
276.918764
 20
41.125010
 30
0.0
  0
LWPOLYLINE
  5
152
100
AcDbEntity
  8
Plate
 62
7
100
AcDbPolyline
 90
2
 70
0
 10
276.918764
 20
54.124995
 30
0.0
 10
276.918764
 20
41.125010
 30
0.0
  0
LWPOLYLINE
  5
153
100
AcDbEntity
  8
Plate
 62
7
100
AcDbPolyline
 90
2
 70
0
 10
252.218751
 20
54.625004
 30
0.0
 10
253.218749
 20
54.625004
 30
0.0
  0
LWPOLYLINE
  5
154
100
AcDbEntity
  8
Plate
 62
7
100
AcDbPolyline
 90
2
 70
0
 10
252.218751
 20
40.625001
 30
0.0
 10
253.218749
 20
40.625001
 30
0.0
  0
LWPOLYLINE
  5
155
100
AcDbEntity
  8
Plate
 62
7
100
AcDbPolyline
 90
2
 70
0
 10
251.718749
 20
54.124995
 30
0.0
 10
251.718749
 20
41.125010
 30
0.0
  0
SPLINE
  5
156
100
AcDbEntity
  8
Plate
 62
7
100
AcDbSpline
 70
8
 71
3
 72
8
 73
4
 74
0
 40
0
 40
0
 40
0
 40
0
 40
1
 40
1
 40
1
 40
1
 10
252.218751
 20
54.625004
 30
0.0
 10
252.086141
 20
54.625005
 30
0.0
 10
251.958962
 20
54.572325
 30
0.0
 10
251.865193
 20
54.478555
 30
0.0
  0
SPLINE
  5
157
100
AcDbEntity
  8
Plate
 62
7
100
AcDbSpline
 70
8
 71
3
 72
8
 73
4
 74
0
 40
0
 40
0
 40
0
 40
0
 40
1
 40
1
 40
1
 40
1
 10
251.865193
 20
54.478555
 30
0.0
 10
251.771424
 20
54.384785
 30
0.0
 10
251.718747
 20
54.257605
 30
0.0
 10
251.718749
 20
54.124995
 30
0.0
  0
SPLINE
  5
158
100
AcDbEntity
  8
Plate
 62
7
100
AcDbSpline
 70
8
 71
3
 72
8
 73
4
 74
0
 40
0
 40
0
 40
0
 40
0
 40
1
 40
1
 40
1
 40
1
 10
253.718751
 20
54.124995
 30
0.0
 10
253.718753
 20
54.257605
 30
0.0
 10
253.666076
 20
54.384785
 30
0.0
 10
253.572307
 20
54.478555
 30
0.0
  0
SPLINE
  5
159
100
AcDbEntity
  8
Plate
 62
7
100
AcDbSpline
 70
8
 71
3
 72
8
 73
4
 74
0
 40
0
 40
0
 40
0
 40
0
 40
1
 40
1
 40
1
 40
1
 10
253.572307
 20
54.478555
 30
0.0
 10
253.478538
 20
54.572325
 30
0.0
 10
253.351359
 20
54.625005
 30
0.0
 10
253.218749
 20
54.625004
 30
0.0
  0
SPLINE
  5
15a
100
AcDbEntity
  8
Plate
 62
7
100
AcDbSpline
 70
8
 71
3
 72
8
 73
4
 74
0
 40
0
 40
0
 40
0
 40
0
 40
1
 40
1
 40
1
 40
1
 10
251.718749
 20
41.125010
 30
0.0
 10
251.718747
 20
40.992400
 30
0.0
 10
251.771424
 20
40.865220
 30
0.0
 10
251.865193
 20
40.771450
 30
0.0
  0
SPLINE
  5
15b
100
AcDbEntity
  8
Plate
 62
7
100
AcDbSpline
 70
8
 71
3
 72
8
 73
4
 74
0
 40
0
 40
0
 40
0
 40
0
 40
1
 40
1
 40
1
 40
1
 10
251.865193
 20
40.771450
 30
0.0
 10
251.958962
 20
40.677680
 30
0.0
 10
252.086141
 20
40.625000
 30
0.0
 10
252.218751
 20
40.625001
 30
0.0
  0
SPLINE
  5
15c
100
AcDbEntity
  8
Plate
 62
7
100
AcDbSpline
 70
8
 71
3
 72
8
 73
4
 74
0
 40
0
 40
0
 40
0
 40
0
 40
1
 40
1
 40
1
 40
1
 10
253.218749
 20
40.625001
 30
0.0
 10
253.351359
 20
40.625000
 30
0.0
 10
253.478538
 20
40.677680
 30
0.0
 10
253.572307
 20
40.771450
 30
0.0
  0
SPLINE
  5
15d
100
AcDbEntity
  8
Plate
 62
7
100
AcDbSpline
 70
8
 71
3
 72
8
 73
4
 74
0
 40
0
 40
0
 40
0
 40
0
 40
1
 40
1
 40
1
 40
1
 10
253.572307
 20
40.771450
 30
0.0
 10
253.666076
 20
40.865220
 30
0.0
 10
253.718753
 20
40.992400
 30
0.0
 10
253.718751
 20
41.125010
 30
0.0
  0
LWPOLYLINE
  5
15e
100
AcDbEntity
  8
Plate
 62
7
100
AcDbPolyline
 90
2
 70
0
 10
253.718751
 20
54.124995
 30
0.0
 10
253.718751
 20
41.125010
 30
0.0
  0
SPLINE
  5
15f
100
AcDbEntity
  8
Plate
 62
7
100
AcDbSpline
 70
8
 71
3
 72
8
 73
4
 74
0
 40
0
 40
0
 40
0
 40
0
 40
1
 40
1
 40
1
 40
1
 10
138.756250
 20
35.575004
 30
0.0
 10
138.623640
 20
35.575004
 30
0.0
 10
138.496462
 20
35.522324
 30
0.0
 10
138.402694
 20
35.428554
 30
0.0
  0
SPLINE
  5
160
100
AcDbEntity
  8
Plate
 62
7
100
AcDbSpline
 70
8
 71
3
 72
8
 73
4
 74
0
 40
0
 40
0
 40
0
 40
0
 40
1
 40
1
 40
1
 40
1
 10
138.402694
 20
35.428554
 30
0.0
 10
138.308925
 20
35.334784
 30
0.0
 10
138.256248
 20
35.207605
 30
0.0
 10
138.256251
 20
35.074995
 30
0.0
  0
SPLINE
  5
161
100
AcDbEntity
  8
Plate
 62
7
100
AcDbSpline
 70
8
 71
3
 72
8
 73
4
 74
0
 40
0
 40
0
 40
0
 40
0
 40
1
 40
1
 40
1
 40
1
 10
138.256251
 20
22.075010
 30
0.0
 10
138.256248
 20
21.942400
 30
0.0
 10
138.308925
 20
21.815221
 30
0.0
 10
138.402694
 20
21.721451
 30
0.0
  0
SPLINE
  5
162
100
AcDbEntity
  8
Plate
 62
7
100
AcDbSpline
 70
8
 71
3
 72
8
 73
4
 74
0
 40
0
 40
0
 40
0
 40
0
 40
1
 40
1
 40
1
 40
1
 10
138.402694
 20
21.721451
 30
0.0
 10
138.496462
 20
21.627681
 30
0.0
 10
138.623640
 20
21.575001
 30
0.0
 10
138.756250
 20
21.575001
 30
0.0
  0
LWPOLYLINE
  5
163
100
AcDbEntity
  8
Plate
 62
7
100
AcDbPolyline
 90
2
 70
0
 10
138.256251
 20
35.074995
 30
0.0
 10
138.256251
 20
22.075010
 30
0.0
  0
SPLINE
  5
164
100
AcDbEntity
  8
Plate
 62
7
100
AcDbSpline
 70
8
 71
3
 72
8
 73
4
 74
0
 40
0
 40
0
 40
0
 40
0
 40
1
 40
1
 40
1
 40
1
 10
198.756249
 20
34.075002
 30
0.0
 10
198.756251
 20
34.207612
 30
0.0
 10
198.703574
 20
34.334791
 30
0.0
 10
198.609806
 20
34.428561
 30
0.0
  0
SPLINE
  5
165
100
AcDbEntity
  8
Plate
 62
7
100
AcDbSpline
 70
8
 71
3
 72
8
 73
4
 74
0
 40
0
 40
0
 40
0
 40
0
 40
1
 40
1
 40
1
 40
1
 10
198.609806
 20
34.428561
 30
0.0
 10
198.516038
 20
34.522332
 30
0.0
 10
198.388860
 20
34.575011
 30
0.0
 10
198.256250
 20
34.575012
 30
0.0
  0
SPLINE
  5
166
100
AcDbEntity
  8
Plate
 62
7
100
AcDbSpline
 70
8
 71
3
 72
8
 73
4
 74
0
 40
0
 40
0
 40
0
 40
0
 40
1
 40
1
 40
1
 40
1
 10
198.256250
 20
19.575015
 30
0.0
 10
198.532385
 20
19.575016
 30
0.0
 10
198.756239
 20
19.798863
 30
0.0
 10
198.756249
 20
20.074998
 30
0.0
  0
LWPOLYLINE
  5
167
100
AcDbEntity
  8
Plate
 62
7
100
AcDbPolyline
 90
2
 70
0
 10
198.756249
 20
34.075002
 30
0.0
 10
198.756249
 20
20.074998
 30
0.0
  0
LWPOLYLINE
  5
168
100
AcDbEntity
  8
Plate
 62
7
100
AcDbPolyline
 90
2
 70
0
 10
92.256250
 20
34.575012
 30
0.0
 10
98.256251
 20
34.575012
 30
0.0
  0
LWPOLYLINE
  5
169
100
AcDbEntity
  8
Plate
 62
7
100
AcDbPolyline
 90
2
 70
0
 10
92.256250
 20
19.575015
 30
0.0
 10
98.256251
 20
19.575015
 30
0.0
  0
LWPOLYLINE
  5
16a
100
AcDbEntity
  8
Plate
 62
7
100
AcDbPolyline
 90
2
 70
0
 10
91.756251
 20
34.075002
 30
0.0
 10
91.756251
 20
20.074998
 30
0.0
  0
SPLINE
  5
16b
100
AcDbEntity
  8
Plate
 62
7
100
AcDbSpline
 70
8
 71
3
 72
8
 73
4
 74
0
 40
0
 40
0
 40
0
 40
0
 40
1
 40
1
 40
1
 40
1
 10
92.256250
 20
34.575012
 30
0.0
 10
92.123640
 20
34.575011
 30
0.0
 10
91.996462
 20
34.522332
 30
0.0
 10
91.902694
 20
34.428561
 30
0.0
  0
SPLINE
  5
16c
100
AcDbEntity
  8
Plate
 62
7
100
AcDbSpline
 70
8
 71
3
 72
8
 73
4
 74
0
 40
0
 40
0
 40
0
 40
0
 40
1
 40
1
 40
1
 40
1
 10
91.902694
 20
34.428561
 30
0.0
 10
91.808926
 20
34.334791
 30
0.0
 10
91.756249
 20
34.207612
 30
0.0
 10
91.756251
 20
34.075002
 30
0.0
  0
SPLINE
  5
16d
100
AcDbEntity
  8
Plate
 62
7
100
AcDbSpline
 70
8
 71
3
 72
8
 73
4
 74
0
 40
0
 40
0
 40
0
 40
0
 40
1
 40
1
 40
1
 40
1
 10
98.756250
 20
34.075002
 30
0.0
 10
98.756253
 20
34.207612
 30
0.0
 10
98.703576
 20
34.334791
 30
0.0
 10
98.609808
 20
34.428561
 30
0.0
  0
SPLINE
  5
16e
100
AcDbEntity
  8
Plate
 62
7
100
AcDbSpline
 70
8
 71
3
 72
8
 73
4
 74
0
 40
0
 40
0
 40
0
 40
0
 40
1
 40
1
 40
1
 40
1
 10
98.609808
 20
34.428561
 30
0.0
 10
98.516039
 20
34.522332
 30
0.0
 10
98.388861
 20
34.575011
 30
0.0
 10
98.256251
 20
34.575012
 30
0.0
  0
SPLINE
  5
16f
100
AcDbEntity
  8
Plate
 62
7
100
AcDbSpline
 70
8
 71
3
 72
8
 73
4
 74
0
 40
0
 40
0
 40
0
 40
0
 40
1
 40
1
 40
1
 40
1
 10
91.756251
 20
20.074998
 30
0.0
 10
91.756261
 20
19.798863
 30
0.0
 10
91.980115
 20
19.575016
 30
0.0
 10
92.256250
 20
19.575015
 30
0.0
  0
SPLINE
  5
170
100
AcDbEntity
  8
Plate
 62
7
100
AcDbSpline
 70
8
 71
3
 72
8
 73
4
 74
0
 40
0
 40
0
 40
0
 40
0
 40
1
 40
1
 40
1
 40
1
 10
98.256251
 20
19.575015
 30
0.0
 10
98.532387
 20
19.575016
 30
0.0
 10
98.756241
 20
19.798863
 30
0.0
 10
98.756250
 20
20.074998
 30
0.0
  0
LWPOLYLINE
  5
171
100
AcDbEntity
  8
Plate
 62
7
100
AcDbPolyline
 90
2
 70
0
 10
98.756250
 20
34.075002
 30
0.0
 10
98.756250
 20
20.074998
 30
0.0
  0
LWPOLYLINE
  5
172
100
AcDbEntity
  8
Plate
 62
7
100
AcDbPolyline
 90
2
 70
0
 10
138.756250
 20
35.575004
 30
0.0
 10
158.900000
 20
35.575004
 30
0.0
  0
LWPOLYLINE
  5
173
100
AcDbEntity
  8
Plate
 62
7
100
AcDbPolyline
 90
2
 70
0
 10
138.756250
 20
21.575001
 30
0.0
 10
158.900000
 20
21.575001
 30
0.0
  0
SPLINE
  5
174
100
AcDbEntity
  8
Plate
 62
7
100
AcDbSpline
 70
8
 71
3
 72
8
 73
4
 74
0
 40
0
 40
0
 40
0
 40
0
 40
1
 40
1
 40
1
 40
1
 10
159.399999
 20
35.074995
 30
0.0
 10
159.400002
 20
35.207605
 30
0.0
 10
159.347325
 20
35.334784
 30
0.0
 10
159.253556
 20
35.428554
 30
0.0
  0
SPLINE
  5
175
100
AcDbEntity
  8
Plate
 62
7
100
AcDbSpline
 70
8
 71
3
 72
8
 73
4
 74
0
 40
0
 40
0
 40
0
 40
0
 40
1
 40
1
 40
1
 40
1
 10
159.253556
 20
35.428554
 30
0.0
 10
159.159788
 20
35.522324
 30
0.0
 10
159.032610
 20
35.575004
 30
0.0
 10
158.900000
 20
35.575004
 30
0.0
  0
SPLINE
  5
176
100
AcDbEntity
  8
Plate
 62
7
100
AcDbSpline
 70
8
 71
3
 72
8
 73
4
 74
0
 40
0
 40
0
 40
0
 40
0
 40
1
 40
1
 40
1
 40
1
 10
158.900000
 20
21.575001
 30
0.0
 10
159.032610
 20
21.575001
 30
0.0
 10
159.159788
 20
21.627681
 30
0.0
 10
159.253556
 20
21.721451
 30
0.0
  0
SPLINE
  5
177
100
AcDbEntity
  8
Plate
 62
7
100
AcDbSpline
 70
8
 71
3
 72
8
 73
4
 74
0
 40
0
 40
0
 40
0
 40
0
 40
1
 40
1
 40
1
 40
1
 10
159.253556
 20
21.721451
 30
0.0
 10
159.347325
 20
21.815221
 30
0.0
 10
159.400002
 20
21.942400
 30
0.0
 10
159.399999
 20
22.075010
 30
0.0
  0
LWPOLYLINE
  5
178
100
AcDbEntity
  8
Plate
 62
7
100
AcDbPolyline
 90
2
 70
0
 10
159.399999
 20
35.074995
 30
0.0
 10
159.399999
 20
22.075010
 30
0.0
  0
LWPOLYLINE
  5
179
100
AcDbEntity
  8
Plate
 62
7
100
AcDbPolyline
 90
2
 70
0
 10
187.500001
 20
34.575012
 30
0.0
 10
198.256250
 20
34.575012
 30
0.0
  0
LWPOLYLINE
  5
17a
100
AcDbEntity
  8
Plate
 62
7
100
AcDbPolyline
 90
2
 70
0
 10
187.500001
 20
19.575015
 30
0.0
 10
198.256250
 20
19.575015
 30
0.0
  0
SPLINE
  5
17b
100
AcDbEntity
  8
Plate
 62
7
100
AcDbSpline
 70
8
 71
3
 72
8
 73
4
 74
0
 40
0
 40
0
 40
0
 40
0
 40
1
 40
1
 40
1
 40
1
 10
187.500001
 20
34.575012
 30
0.0
 10
187.367391
 20
34.575012
 30
0.0
 10
187.240212
 20
34.522333
 30
0.0
 10
187.146443
 20
34.428562
 30
0.0
  0
SPLINE
  5
17c
100
AcDbEntity
  8
Plate
 62
7
100
AcDbSpline
 70
8
 71
3
 72
8
 73
4
 74
0
 40
0
 40
0
 40
0
 40
0
 40
1
 40
1
 40
1
 40
1
 10
187.146443
 20
34.428562
 30
0.0
 10
187.052674
 20
34.334792
 30
0.0
 10
186.999997
 20
34.207612
 30
0.0
 10
186.999999
 20
34.075002
 30
0.0
  0
SPLINE
  5
17d
100
AcDbEntity
  8
Plate
 62
7
100
AcDbSpline
 70
8
 71
3
 72
8
 73
4
 74
0
 40
0
 40
0
 40
0
 40
0
 40
1
 40
1
 40
1
 40
1
 10
186.999999
 20
20.074998
 30
0.0
 10
187.000008
 20
19.798862
 30
0.0
 10
187.223864
 20
19.575014
 30
0.0
 10
187.500001
 20
19.575015
 30
0.0
  0
LWPOLYLINE
  5
17e
100
AcDbEntity
  8
Plate
 62
7
100
AcDbPolyline
 90
2
 70
0
 10
186.999999
 20
34.075002
 30
0.0
 10
186.999999
 20
20.074998
 30
0.0
  0
SPLINE
  5
17f
100
AcDbEntity
  8
Plate
 62
7
100
AcDbSpline
 70
8
 71
3
 72
8
 73
4
 74
0
 40
0
 40
0
 40
0
 40
0
 40
1
 40
1
 40
1
 40
1
 10
205.431250
 20
35.575004
 30
0.0
 10
205.298640
 20
35.575004
 30
0.0
 10
205.171462
 20
35.522324
 30
0.0
 10
205.077694
 20
35.428554
 30
0.0
  0
SPLINE
  5
180
100
AcDbEntity
  8
Plate
 62
7
100
AcDbSpline
 70
8
 71
3
 72
8
 73
4
 74
0
 40
0
 40
0
 40
0
 40
0
 40
1
 40
1
 40
1
 40
1
 10
205.077694
 20
35.428554
 30
0.0
 10
204.983925
 20
35.334784
 30
0.0
 10
204.931248
 20
35.207605
 30
0.0
 10
204.931251
 20
35.074995
 30
0.0
  0
SPLINE
  5
181
100
AcDbEntity
  8
Plate
 62
7
100
AcDbSpline
 70
8
 71
3
 72
8
 73
4
 74
0
 40
0
 40
0
 40
0
 40
0
 40
1
 40
1
 40
1
 40
1
 10
204.931251
 20
22.075010
 30
0.0
 10
204.931248
 20
21.942400
 30
0.0
 10
204.983925
 20
21.815221
 30
0.0
 10
205.077694
 20
21.721451
 30
0.0
  0
SPLINE
  5
182
100
AcDbEntity
  8
Plate
 62
7
100
AcDbSpline
 70
8
 71
3
 72
8
 73
4
 74
0
 40
0
 40
0
 40
0
 40
0
 40
1
 40
1
 40
1
 40
1
 10
205.077694
 20
21.721451
 30
0.0
 10
205.171462
 20
21.627681
 30
0.0
 10
205.298640
 20
21.575001
 30
0.0
 10
205.431250
 20
21.575001
 30
0.0
  0
LWPOLYLINE
  5
183
100
AcDbEntity
  8
Plate
 62
7
100
AcDbPolyline
 90
2
 70
0
 10
204.931251
 20
35.074995
 30
0.0
 10
204.931251
 20
22.075010
 30
0.0
  0
LWPOLYLINE
  5
184
100
AcDbEntity
  8
Plate
 62
7
100
AcDbPolyline
 90
2
 70
0
 10
205.431250
 20
35.575004
 30
0.0
 10
223.193750
 20
35.575004
 30
0.0
  0
LWPOLYLINE
  5
185
100
AcDbEntity
  8
Plate
 62
7
100
AcDbPolyline
 90
2
 70
0
 10
205.431250
 20
21.575001
 30
0.0
 10
223.193750
 20
21.575001
 30
0.0
  0
SPLINE
  5
186
100
AcDbEntity
  8
Plate
 62
7
100
AcDbSpline
 70
8
 71
3
 72
8
 73
4
 74
0
 40
0
 40
0
 40
0
 40
0
 40
1
 40
1
 40
1
 40
1
 10
223.693749
 20
35.074995
 30
0.0
 10
223.693752
 20
35.207605
 30
0.0
 10
223.641075
 20
35.334784
 30
0.0
 10
223.547306
 20
35.428554
 30
0.0
  0
SPLINE
  5
187
100
AcDbEntity
  8
Plate
 62
7
100
AcDbSpline
 70
8
 71
3
 72
8
 73
4
 74
0
 40
0
 40
0
 40
0
 40
0
 40
1
 40
1
 40
1
 40
1
 10
223.547306
 20
35.428554
 30
0.0
 10
223.453538
 20
35.522324
 30
0.0
 10
223.326360
 20
35.575004
 30
0.0
 10
223.193750
 20
35.575004
 30
0.0
  0
SPLINE
  5
188
100
AcDbEntity
  8
Plate
 62
7
100
AcDbSpline
 70
8
 71
3
 72
8
 73
4
 74
0
 40
0
 40
0
 40
0
 40
0
 40
1
 40
1
 40
1
 40
1
 10
223.193750
 20
21.575001
 30
0.0
 10
223.326360
 20
21.575001
 30
0.0
 10
223.453538
 20
21.627681
 30
0.0
 10
223.547306
 20
21.721451
 30
0.0
  0
SPLINE
  5
189
100
AcDbEntity
  8
Plate
 62
7
100
AcDbSpline
 70
8
 71
3
 72
8
 73
4
 74
0
 40
0
 40
0
 40
0
 40
0
 40
1
 40
1
 40
1
 40
1
 10
223.547306
 20
21.721451
 30
0.0
 10
223.641075
 20
21.815221
 30
0.0
 10
223.693752
 20
21.942400
 30
0.0
 10
223.693749
 20
22.075010
 30
0.0
  0
LWPOLYLINE
  5
18a
100
AcDbEntity
  8
Plate
 62
7
100
AcDbPolyline
 90
2
 70
0
 10
223.693749
 20
35.074995
 30
0.0
 10
223.693749
 20
22.075010
 30
0.0
  0
SPLINE
  5
18b
100
AcDbEntity
  8
Plate
 62
7
100
AcDbSpline
 70
8
 71
3
 72
8
 73
4
 74
0
 40
0
 40
0
 40
0
 40
0
 40
1
 40
1
 40
1
 40
1
 10
226.862500
 20
35.575004
 30
0.0
 10
226.729890
 20
35.575004
 30
0.0
 10
226.602712
 20
35.522324
 30
0.0
 10
226.508944
 20
35.428554
 30
0.0
  0
SPLINE
  5
18c
100
AcDbEntity
  8
Plate
 62
7
100
AcDbSpline
 70
8
 71
3
 72
8
 73
4
 74
0
 40
0
 40
0
 40
0
 40
0
 40
1
 40
1
 40
1
 40
1
 10
226.508944
 20
35.428554
 30
0.0
 10
226.415175
 20
35.334784
 30
0.0
 10
226.362498
 20
35.207605
 30
0.0
 10
226.362501
 20
35.074995
 30
0.0
  0
SPLINE
  5
18d
100
AcDbEntity
  8
Plate
 62
7
100
AcDbSpline
 70
8
 71
3
 72
8
 73
4
 74
0
 40
0
 40
0
 40
0
 40
0
 40
1
 40
1
 40
1
 40
1
 10
226.362501
 20
22.075010
 30
0.0
 10
226.362498
 20
21.942400
 30
0.0
 10
226.415175
 20
21.815221
 30
0.0
 10
226.508944
 20
21.721451
 30
0.0
  0
SPLINE
  5
18e
100
AcDbEntity
  8
Plate
 62
7
100
AcDbSpline
 70
8
 71
3
 72
8
 73
4
 74
0
 40
0
 40
0
 40
0
 40
0
 40
1
 40
1
 40
1
 40
1
 10
226.508944
 20
21.721451
 30
0.0
 10
226.602712
 20
21.627681
 30
0.0
 10
226.729890
 20
21.575001
 30
0.0
 10
226.862500
 20
21.575001
 30
0.0
  0
LWPOLYLINE
  5
18f
100
AcDbEntity
  8
Plate
 62
7
100
AcDbPolyline
 90
2
 70
0
 10
226.362501
 20
35.074995
 30
0.0
 10
226.362501
 20
22.075010
 30
0.0
  0
LWPOLYLINE
  5
190
100
AcDbEntity
  8
Plate
 62
7
100
AcDbPolyline
 90
2
 70
0
 10
226.862500
 20
35.575004
 30
0.0
 10
258.912500
 20
35.575004
 30
0.0
  0
LWPOLYLINE
  5
191
100
AcDbEntity
  8
Plate
 62
7
100
AcDbPolyline
 90
2
 70
0
 10
226.862500
 20
21.575001
 30
0.0
 10
258.912500
 20
21.575001
 30
0.0
  0
SPLINE
  5
192
100
AcDbEntity
  8
Plate
 62
7
100
AcDbSpline
 70
8
 71
3
 72
8
 73
4
 74
0
 40
0
 40
0
 40
0
 40
0
 40
1
 40
1
 40
1
 40
1
 10
259.412499
 20
35.074995
 30
0.0
 10
259.412502
 20
35.207605
 30
0.0
 10
259.359825
 20
35.334784
 30
0.0
 10
259.266056
 20
35.428554
 30
0.0
  0
SPLINE
  5
193
100
AcDbEntity
  8
Plate
 62
7
100
AcDbSpline
 70
8
 71
3
 72
8
 73
4
 74
0
 40
0
 40
0
 40
0
 40
0
 40
1
 40
1
 40
1
 40
1
 10
259.266056
 20
35.428554
 30
0.0
 10
259.172288
 20
35.522324
 30
0.0
 10
259.045110
 20
35.575004
 30
0.0
 10
258.912500
 20
35.575004
 30
0.0
  0
SPLINE
  5
194
100
AcDbEntity
  8
Plate
 62
7
100
AcDbSpline
 70
8
 71
3
 72
8
 73
4
 74
0
 40
0
 40
0
 40
0
 40
0
 40
1
 40
1
 40
1
 40
1
 10
258.912500
 20
21.575001
 30
0.0
 10
259.045110
 20
21.575001
 30
0.0
 10
259.172288
 20
21.627681
 30
0.0
 10
259.266056
 20
21.721451
 30
0.0
  0
SPLINE
  5
195
100
AcDbEntity
  8
Plate
 62
7
100
AcDbSpline
 70
8
 71
3
 72
8
 73
4
 74
0
 40
0
 40
0
 40
0
 40
0
 40
1
 40
1
 40
1
 40
1
 10
259.266056
 20
21.721451
 30
0.0
 10
259.359825
 20
21.815221
 30
0.0
 10
259.412502
 20
21.942400
 30
0.0
 10
259.412499
 20
22.075010
 30
0.0
  0
SPLINE
  5
196
100
AcDbEntity
  8
Plate
 62
7
100
AcDbSpline
 70
8
 71
3
 72
8
 73
4
 74
0
 40
0
 40
0
 40
0
 40
0
 40
1
 40
1
 40
1
 40
1
 10
273.049497
 20
97.775001
 30
0.0
 10
272.773352
 20
97.775006
 30
0.0
 10
272.549488
 20
97.551142
 30
0.0
 10
272.549514
 20
97.277568
 30
0.0
  0
LWPOLYLINE
  5
197
100
AcDbEntity
  8
Plate
 62
7
100
AcDbPolyline
 90
2
 70
0
 10
259.412499
 20
35.074995
 30
0.0
 10
259.412499
 20
22.075010
 30
0.0
  0
SPLINE
  5
198
100
AcDbEntity
  8
Plate
 62
7
100
AcDbSpline
 70
8
 71
3
 72
8
 73
4
 74
0
 40
0
 40
0
 40
0
 40
0
 40
1
 40
1
 40
1
 40
1
 10
265.549512
 20
97.274991
 30
0.0
 10
265.549512
 20
97.551142
 30
0.0
 10
265.325648
 20
97.775006
 30
0.0
 10
265.049503
 20
97.775001
 30
0.0
  0
SPLINE
  5
199
100
AcDbEntity
  8
Plate
 62
7
100
AcDbSpline
 70
8
 71
3
 72
8
 73
4
 74
0
 40
0
 40
0
 40
0
 40
0
 40
1
 40
1
 40
1
 40
1
 10
296.925497
 20
97.775001
 30
0.0
 10
296.649352
 20
97.775006
 30
0.0
 10
296.425488
 20
97.551142
 30
0.0
 10
296.425488
 20
97.274991
 30
0.0
  0
SPLINE
  5
19a
100
AcDbEntity
  8
Plate
 62
7
100
AcDbSpline
 70
8
 71
3
 72
8
 73
4
 74
0
 40
0
 40
0
 40
0
 40
0
 40
1
 40
1
 40
1
 40
1
 10
289.425512
 20
97.274991
 30
0.0
 10
289.425512
 20
97.551142
 30
0.0
 10
289.201648
 20
97.775006
 30
0.0
 10
288.925503
 20
97.775001
 30
0.0
  0
SPLINE
  5
19b
100
AcDbEntity
  8
Plate
 62
7
100
AcDbSpline
 70
8
 71
3
 72
8
 73
4
 74
0
 40
0
 40
0
 40
0
 40
0
 40
1
 40
1
 40
1
 40
1
 10
297.012492
 20
97.775001
 30
0.0
 10
297.288638
 20
97.774995
 30
0.0
 10
297.512502
 20
97.998859
 30
0.0
 10
297.512502
 20
98.275010
 30
0.0
  0
SPLINE
  5
19c
100
AcDbEntity
  8
Plate
 62
7
100
AcDbSpline
 70
8
 71
3
 72
8
 73
4
 74
0
 40
0
 40
0
 40
0
 40
0
 40
1
 40
1
 40
1
 40
1
 10
297.512502
 20
111.274995
 30
0.0
 10
297.512502
 20
111.551146
 30
0.0
 10
297.288638
 20
111.775010
 30
0.0
 10
297.012492
 20
111.775004
 30
0.0
  0
LWPOLYLINE
  5
19d
100
AcDbEntity
  8
Plate
 62
7
100
AcDbPolyline
 90
2
 70
0
 10
272.549514
 20
97.277568
 30
0.0
 10
272.549514
 20
96.274998
 30
0.0
  0
LWPOLYLINE
  5
19e
100
AcDbEntity
  8
Plate
 62
7
100
AcDbPolyline
 90
2
 70
0
 10
297.512502
 20
111.274995
 30
0.0
 10
297.512502
 20
98.275010
 30
0.0
  0
SPLINE
  5
19f
100
AcDbEntity
  8
Plate
 62
7
100
AcDbSpline
 70
8
 71
3
 72
8
 73
4
 74
0
 40
0
 40
0
 40
0
 40
0
 40
1
 40
1
 40
1
 40
1
 10
264.462501
 20
98.275010
 30
0.0
 10
264.462495
 20
97.998862
 30
0.0
 10
264.686362
 20
97.774998
 30
0.0
 10
264.962508
 20
97.775001
 30
0.0
  0
SPLINE
  5
1a0
100
AcDbEntity
  8
Plate
 62
7
100
AcDbSpline
 70
8
 71
3
 72
8
 73
4
 74
0
 40
0
 40
0
 40
0
 40
0
 40
1
 40
1
 40
1
 40
1
 10
264.962508
 20
111.775004
 30
0.0
 10
264.686362
 20
111.775007
 30
0.0
 10
264.462495
 20
111.551143
 30
0.0
 10
264.462501
 20
111.274995
 30
0.0
  0
LWPOLYLINE
  5
1a1
100
AcDbEntity
  8
Plate
 62
7
100
AcDbPolyline
 90
2
 70
0
 10
296.925497
 20
97.775001
 30
0.0
 10
297.012492
 20
97.775001
 30
0.0
  0
LWPOLYLINE
  5
1a2
100
AcDbEntity
  8
Plate
 62
7
100
AcDbPolyline
 90
2
 70
0
 10
264.462501
 20
111.274995
 30
0.0
 10
264.462501
 20
98.275010
 30
0.0
  0
LWPOLYLINE
  5
1a3
100
AcDbEntity
  8
Plate
 62
7
100
AcDbPolyline
 90
2
 70
0
 10
264.962508
 20
97.775001
 30
0.0
 10
265.049503
 20
97.775001
 30
0.0
  0
SPLINE
  5
1a4
100
AcDbEntity
  8
Plate
 62
7
100
AcDbSpline
 70
8
 71
3
 72
8
 73
4
 74
0
 40
0
 40
0
 40
0
 40
0
 40
1
 40
1
 40
1
 40
1
 10
272.049505
 20
95.775015
 30
0.0
 10
272.325650
 20
95.775010
 30
0.0
 10
272.549514
 20
95.998858
 30
0.0
 10
272.549514
 20
96.274998
 30
0.0
  0
SPLINE
  5
1a5
100
AcDbEntity
  8
Plate
 62
7
100
AcDbSpline
 70
8
 71
3
 72
8
 73
4
 74
0
 40
0
 40
0
 40
0
 40
0
 40
1
 40
1
 40
1
 40
1
 10
265.549512
 20
96.274998
 30
0.0
 10
265.549512
 20
95.998869
 30
0.0
 10
265.773376
 20
95.775026
 30
0.0
 10
266.049495
 20
95.775015
 30
0.0
  0
LWPOLYLINE
  5
1a6
100
AcDbEntity
  8
Plate
 62
7
100
AcDbPolyline
 90
2
 70
0
 10
264.962508
 20
111.775004
 30
0.0
 10
297.012492
 20
111.775004
 30
0.0
  0
LWPOLYLINE
  5
1a7
100
AcDbEntity
  8
Plate
 62
7
100
AcDbPolyline
 90
2
 70
0
 10
265.549512
 20
97.274991
 30
0.0
 10
265.549512
 20
96.274998
 30
0.0
  0
SPLINE
  5
1a8
100
AcDbEntity
  8
Plate
 62
7
100
AcDbSpline
 70
8
 71
3
 72
8
 73
4
 74
0
 40
0
 40
0
 40
0
 40
0
 40
1
 40
1
 40
1
 40
1
 10
295.925505
 20
95.775015
 30
0.0
 10
296.201624
 20
95.775026
 30
0.0
 10
296.425488
 20
95.998869
 30
0.0
 10
296.425488
 20
96.274998
 30
0.0
  0
SPLINE
  5
1a9
100
AcDbEntity
  8
Plate
 62
7
100
AcDbSpline
 70
8
 71
3
 72
8
 73
4
 74
0
 40
0
 40
0
 40
0
 40
0
 40
1
 40
1
 40
1
 40
1
 10
289.425512
 20
96.274998
 30
0.0
 10
289.425512
 20
95.998869
 30
0.0
 10
289.649376
 20
95.775026
 30
0.0
 10
289.925495
 20
95.775015
 30
0.0
  0
LWPOLYLINE
  5
1aa
100
AcDbEntity
  8
Plate
 62
7
100
AcDbPolyline
 90
2
 70
0
 10
266.049495
 20
95.775015
 30
0.0
 10
272.049505
 20
95.775015
 30
0.0
  0
LWPOLYLINE
  5
1ab
100
AcDbEntity
  8
Plate
 62
7
100
AcDbPolyline
 90
2
 70
0
 10
296.425488
 20
97.274991
 30
0.0
 10
296.425488
 20
96.274998
 30
0.0
  0
LWPOLYLINE
  5
1ac
100
AcDbEntity
  8
Plate
 62
7
100
AcDbPolyline
 90
2
 70
0
 10
289.425512
 20
97.274991
 30
0.0
 10
289.425512
 20
96.274998
 30
0.0
  0
LWPOLYLINE
  5
1ad
100
AcDbEntity
  8
Plate
 62
7
100
AcDbPolyline
 90
2
 70
0
 10
289.925495
 20
95.775015
 30
0.0
 10
295.925505
 20
95.775015
 30
0.0
  0
SPLINE
  5
1ae
100
AcDbEntity
  8
Plate
 62
7
100
AcDbSpline
 70
8
 71
3
 72
8
 73
4
 74
0
 40
0
 40
0
 40
0
 40
0
 40
1
 40
1
 40
1
 40
1
 10
281.131248
 20
78.224991
 30
0.0
 10
281.131248
 20
78.501142
 30
0.0
 10
280.907384
 20
78.725006
 30
0.0
 10
280.631239
 20
78.725001
 30
0.0
  0
SPLINE
  5
1af
100
AcDbEntity
  8
Plate
 62
7
100
AcDbSpline
 70
8
 71
3
 72
8
 73
4
 74
0
 40
0
 40
0
 40
0
 40
0
 40
1
 40
1
 40
1
 40
1
 10
280.631239
 20
73.675004
 30
0.0
 10
280.907384
 20
73.674999
 30
0.0
 10
281.131248
 20
73.898863
 30
0.0
 10
281.131248
 20
74.175014
 30
0.0
  0
SPLINE
  5
1b0
100
AcDbEntity
  8
Plate
 62
7
100
AcDbSpline
 70
8
 71
3
 72
8
 73
4
 74
0
 40
0
 40
0
 40
0
 40
0
 40
1
 40
1
 40
1
 40
1
 10
270.668247
 20
59.675001
 30
0.0
 10
270.392102
 20
59.675006
 30
0.0
 10
270.168238
 20
59.451142
 30
0.0
 10
270.168238
 20
59.174991
 30
0.0
  0
SPLINE
  5
1b1
100
AcDbEntity
  8
Plate
 62
7
100
AcDbSpline
 70
8
 71
3
 72
8
 73
4
 74
0
 40
0
 40
0
 40
0
 40
0
 40
1
 40
1
 40
1
 40
1
 10
262.668239
 20
59.675001
 30
0.0
 10
262.944390
 20
59.675006
 30
0.0
 10
263.168254
 20
59.451142
 30
0.0
 10
263.168249
 20
59.174991
 30
0.0
  0
SPLINE
  5
1b2
100
AcDbEntity
  8
Plate
 62
7
100
AcDbSpline
 70
8
 71
3
 72
8
 73
4
 74
0
 40
0
 40
0
 40
0
 40
0
 40
1
 40
1
 40
1
 40
1
 10
294.631242
 20
69.200001
 30
0.0
 10
294.355097
 20
69.200006
 30
0.0
 10
294.131259
 20
68.976142
 30
0.0
 10
294.131259
 20
68.699991
 30
0.0
  0
SPLINE
  5
1b3
100
AcDbEntity
  8
Plate
 62
7
100
AcDbSpline
 70
8
 71
3
 72
8
 73
4
 74
0
 40
0
 40
0
 40
0
 40
0
 40
1
 40
1
 40
1
 40
1
 10
269.668255
 20
57.675015
 30
0.0
 10
269.944374
 20
57.675026
 30
0.0
 10
270.168238
 20
57.898869
 30
0.0
 10
270.168238
 20
58.174998
 30
0.0
  0
SPLINE
  5
1b4
100
AcDbEntity
  8
Plate
 62
7
100
AcDbSpline
 70
8
 71
3
 72
8
 73
4
 74
0
 40
0
 40
0
 40
0
 40
0
 40
1
 40
1
 40
1
 40
1
 10
263.168249
 20
58.174998
 30
0.0
 10
263.168260
 20
57.898861
 30
0.0
 10
263.392113
 20
57.675015
 30
0.0
 10
263.668251
 20
57.675015
 30
0.0
  0
LWPOLYLINE
  5
1b5
100
AcDbEntity
  8
Plate
 62
7
100
AcDbPolyline
 90
2
 70
0
 10
273.049497
 20
97.775001
 30
0.0
 10
288.925503
 20
97.775001
 30
0.0
  0
LWPOLYLINE
  5
1b6
100
AcDbEntity
  8
Plate
 62
7
100
AcDbPolyline
 90
2
 70
0
 10
270.168238
 20
59.174991
 30
0.0
 10
270.168238
 20
58.174998
 30
0.0
  0
LWPOLYLINE
  5
1b7
100
AcDbEntity
  8
Plate
 62
7
100
AcDbPolyline
 90
2
 70
0
 10
263.168249
 20
59.174991
 30
0.0
 10
263.168249
 20
58.174998
 30
0.0
  0
SPLINE
  5
1b8
100
AcDbEntity
  8
Plate
 62
7
100
AcDbSpline
 70
8
 71
3
 72
8
 73
4
 74
0
 40
0
 40
0
 40
0
 40
0
 40
1
 40
1
 40
1
 40
1
 10
293.631276
 20
57.675015
 30
0.0
 10
293.907395
 20
57.675026
 30
0.0
 10
294.131259
 20
57.898869
 30
0.0
 10
294.131259
 20
58.174998
 30
0.0
  0
SPLINE
  5
1b9
100
AcDbEntity
  8
Plate
 62
7
100
AcDbSpline
 70
8
 71
3
 72
8
 73
4
 74
0
 40
0
 40
0
 40
0
 40
0
 40
1
 40
1
 40
1
 40
1
 10
287.044262
 20
58.174998
 30
0.0
 10
287.044262
 20
57.898869
 30
0.0
 10
287.268126
 20
57.675026
 30
0.0
 10
287.544245
 20
57.675015
 30
0.0
  0
LWPOLYLINE
  5
1ba
100
AcDbEntity
  8
Plate
 62
7
100
AcDbPolyline
 90
2
 70
0
 10
263.668251
 20
57.675015
 30
0.0
 10
269.668255
 20
57.675015
 30
0.0
  0
LWPOLYLINE
  5
1bb
100
AcDbEntity
  8
Plate
 62
7
100
AcDbPolyline
 90
2
 70
0
 10
294.131259
 20
68.699991
 30
0.0
 10
294.131259
 20
58.174998
 30
0.0
  0
LWPOLYLINE
  5
1bc
100
AcDbEntity
  8
Plate
 62
7
100
AcDbPolyline
 90
2
 70
0
 10
287.044262
 20
59.174991
 30
0.0
 10
287.044262
 20
58.174998
 30
0.0
  0
SPLINE
  5
1bd
100
AcDbEntity
  8
Plate
 62
7
100
AcDbSpline
 70
8
 71
3
 72
8
 73
4
 74
0
 40
0
 40
0
 40
0
 40
0
 40
1
 40
1
 40
1
 40
1
 10
286.544253
 20
59.675001
 30
0.0
 10
286.820398
 20
59.675006
 30
0.0
 10
287.044262
 20
59.451142
 30
0.0
 10
287.044262
 20
59.174991
 30
0.0
  0
LWPOLYLINE
  5
1be
100
AcDbEntity
  8
Plate
 62
7
100
AcDbPolyline
 90
2
 70
0
 10
287.544245
 20
57.675015
 30
0.0
 10
293.631276
 20
57.675015
 30
0.0
  0
SPLINE
  5
1bf
100
AcDbEntity
  8
Plate
 62
7
100
AcDbSpline
 70
8
 71
3
 72
8
 73
4
 74
0
 40
0
 40
0
 40
0
 40
0
 40
1
 40
1
 40
1
 40
1
 10
259.700001
 20
60.175010
 30
0.0
 10
259.699995
 20
59.898865
 30
0.0
 10
259.923854
 20
59.675001
 30
0.0
 10
260.200000
 20
59.675001
 30
0.0
  0
SPLINE
  5
1c0
100
AcDbEntity
  8
Plate
 62
7
100
AcDbSpline
 70
8
 71
3
 72
8
 73
4
 74
0
 40
0
 40
0
 40
0
 40
0
 40
1
 40
1
 40
1
 40
1
 10
260.200000
 20
73.675004
 30
0.0
 10
259.923854
 20
73.675004
 30
0.0
 10
259.699995
 20
73.451140
 30
0.0
 10
259.700001
 20
73.174995
 30
0.0
  0
LWPOLYLINE
  5
1c1
100
AcDbEntity
  8
Plate
 62
7
100
AcDbPolyline
 90
2
 70
0
 10
270.668247
 20
59.675001
 30
0.0
 10
286.544253
 20
59.675001
 30
0.0
  0
LWPOLYLINE
  5
1c2
100
AcDbEntity
  8
Plate
 62
7
100
AcDbPolyline
 90
2
 70
0
 10
259.700001
 20
73.174995
 30
0.0
 10
259.700001
 20
60.175010
 30
0.0
  0
LWPOLYLINE
  5
1c3
100
AcDbEntity
  8
Plate
 62
7
100
AcDbPolyline
 90
2
 70
0
 10
260.200000
 20
59.675001
 30
0.0
 10
262.668239
 20
59.675001
 30
0.0
  0
SPLINE
  5
1c4
100
AcDbEntity
  8
Plate
 62
7
100
AcDbSpline
 70
8
 71
3
 72
8
 73
4
 74
0
 40
0
 40
0
 40
0
 40
0
 40
1
 40
1
 40
1
 40
1
 10
294.631242
 20
69.200001
 30
0.0
 10
294.907388
 20
69.199995
 30
0.0
 10
295.131252
 20
69.423859
 30
0.0
 10
295.131252
 20
69.700010
 30
0.0
  0
LWPOLYLINE
  5
1c5
100
AcDbEntity
  8
Plate
 62
7
100
AcDbPolyline
 90
2
 70
0
 10
260.200000
 20
73.675004
 30
0.0
 10
280.631239
 20
73.675004
 30
0.0
  0
LWPOLYLINE
  5
1c6
100
AcDbEntity
  8
Plate
 62
7
100
AcDbPolyline
 90
2
 70
0
 10
281.131248
 20
78.224991
 30
0.0
 10
281.131248
 20
74.175014
 30
0.0
  0
SPLINE
  5
1c7
100
AcDbEntity
  8
Plate
 62
7
100
AcDbSpline
 70
8
 71
3
 72
8
 73
4
 74
0
 40
0
 40
0
 40
0
 40
0
 40
1
 40
1
 40
1
 40
1
 10
278.749998
 20
79.225010
 30
0.0
 10
278.749998
 20
78.948859
 30
0.0
 10
278.973862
 20
78.724995
 30
0.0
 10
279.250008
 20
78.725001
 30
0.0
  0
SPLINE
  5
1c8
100
AcDbEntity
  8
Plate
 62
7
100
AcDbSpline
 70
8
 71
3
 72
8
 73
4
 74
0
 40
0
 40
0
 40
0
 40
0
 40
1
 40
1
 40
1
 40
1
 10
295.131252
 20
92.224995
 30
0.0
 10
295.131252
 20
92.501146
 30
0.0
 10
294.907388
 20
92.725010
 30
0.0
 10
294.631242
 20
92.725004
 30
0.0
  0
SPLINE
  5
1c9
100
AcDbEntity
  8
Plate
 62
7
100
AcDbSpline
 70
8
 71
3
 72
8
 73
4
 74
0
 40
0
 40
0
 40
0
 40
0
 40
1
 40
1
 40
1
 40
1
 10
279.250008
 20
92.725004
 30
0.0
 10
278.973862
 20
92.725010
 30
0.0
 10
278.749998
 20
92.501146
 30
0.0
 10
278.749998
 20
92.224995
 30
0.0
  0
LWPOLYLINE
  5
1ca
100
AcDbEntity
  8
Plate
 62
7
100
AcDbPolyline
 90
2
 70
0
 10
295.131252
 20
92.224995
 30
0.0
 10
295.131252
 20
69.700010
 30
0.0
  0
LWPOLYLINE
  5
1cb
100
AcDbEntity
  8
Plate
 62
7
100
AcDbPolyline
 90
2
 70
0
 10
278.749998
 20
92.224995
 30
0.0
 10
278.749998
 20
79.225010
 30
0.0
  0
LWPOLYLINE
  5
1cc
100
AcDbEntity
  8
Plate
 62
7
100
AcDbPolyline
 90
2
 70
0
 10
279.250008
 20
78.725001
 30
0.0
 10
280.631239
 20
78.725001
 30
0.0
  0
SPLINE
  5
1cd
100
AcDbEntity
  8
Plate
 62
7
100
AcDbSpline
 70
8
 71
3
 72
8
 73
4
 74
0
 40
0
 40
0
 40
0
 40
0
 40
1
 40
1
 40
1
 40
1
 10
44.156749
 20
40.124991
 30
0.0
 10
44.156754
 20
40.401142
 30
0.0
 10
43.932890
 20
40.625006
 30
0.0
 10
43.656739
 20
40.625001
 30
0.0
  0
SPLINE
  5
1ce
100
AcDbEntity
  8
Plate
 62
7
100
AcDbSpline
 70
8
 71
3
 72
8
 73
4
 74
0
 40
0
 40
0
 40
0
 40
0
 40
1
 40
1
 40
1
 40
1
 10
51.656761
 20
40.625001
 30
0.0
 10
51.380610
 20
40.625006
 30
0.0
 10
51.156746
 20
40.401142
 30
0.0
 10
51.156751
 20
40.124991
 30
0.0
  0
SPLINE
  5
1cf
100
AcDbEntity
  8
Plate
 62
7
100
AcDbSpline
 70
8
 71
3
 72
8
 73
4
 74
0
 40
0
 40
0
 40
0
 40
0
 40
1
 40
1
 40
1
 40
1
 10
20.280750
 20
40.124991
 30
0.0
 10
20.280755
 20
40.401142
 30
0.0
 10
20.056890
 20
40.625006
 30
0.0
 10
19.780741
 20
40.625001
 30
0.0
  0
SPLINE
  5
1d0
100
AcDbEntity
  8
Plate
 62
7
100
AcDbSpline
 70
8
 71
3
 72
8
 73
4
 74
0
 40
0
 40
0
 40
0
 40
0
 40
1
 40
1
 40
1
 40
1
 10
27.780761
 20
40.625001
 30
0.0
 10
27.504610
 20
40.625006
 30
0.0
 10
27.280746
 20
40.401142
 30
0.0
 10
27.280751
 20
40.124991
 30
0.0
  0
SPLINE
  5
1d1
100
AcDbEntity
  8
Plate
 62
7
100
AcDbSpline
 70
8
 71
3
 72
8
 73
4
 74
0
 40
0
 40
0
 40
0
 40
0
 40
1
 40
1
 40
1
 40
1
 10
54.125000
 20
40.625001
 30
0.0
 10
54.401146
 20
40.625001
 30
0.0
 10
54.625005
 20
40.848865
 30
0.0
 10
54.624999
 20
41.125010
 30
0.0
  0
SPLINE
  5
1d2
100
AcDbEntity
  8
Plate
 62
7
100
AcDbSpline
 70
8
 71
3
 72
8
 73
4
 74
0
 40
0
 40
0
 40
0
 40
0
 40
1
 40
1
 40
1
 40
1
 10
54.624999
 20
54.124995
 30
0.0
 10
54.625005
 20
54.401140
 30
0.0
 10
54.401146
 20
54.625004
 30
0.0
 10
54.125000
 20
54.625004
 30
0.0
  0
LWPOLYLINE
  5
1d3
100
AcDbEntity
  8
Plate
 62
7
100
AcDbPolyline
 90
2
 70
0
 10
279.250008
 20
92.725004
 30
0.0
 10
294.631242
 20
92.725004
 30
0.0
  0
LWPOLYLINE
  5
1d4
100
AcDbEntity
  8
Plate
 62
7
100
AcDbPolyline
 90
2
 70
0
 10
54.624999
 20
54.124995
 30
0.0
 10
54.624999
 20
41.125010
 30
0.0
  0
LWPOLYLINE
  5
1d5
100
AcDbEntity
  8
Plate
 62
7
100
AcDbPolyline
 90
2
 70
0
 10
27.780761
 20
40.625001
 30
0.0
 10
43.656739
 20
40.625001
 30
0.0
  0
LWPOLYLINE
  5
1d6
100
AcDbEntity
  8
Plate
 62
7
100
AcDbPolyline
 90
2
 70
0
 10
51.656761
 20
40.625001
 30
0.0
 10
54.125000
 20
40.625001
 30
0.0
  0
LWPOLYLINE
  5
1d7
100
AcDbEntity
  8
Plate
 62
7
100
AcDbPolyline
 90
2
 70
0
 10
19.693750
 20
40.625001
 30
0.0
 10
19.780741
 20
40.625001
 30
0.0
  0
SPLINE
  5
1d8
100
AcDbEntity
  8
Plate
 62
7
100
AcDbSpline
 70
8
 71
3
 72
8
 73
4
 74
0
 40
0
 40
0
 40
0
 40
0
 40
1
 40
1
 40
1
 40
1
 10
26.780749
 20
38.625015
 30
0.0
 10
27.056887
 20
38.625015
 30
0.0
 10
27.280740
 20
38.848861
 30
0.0
 10
27.280751
 20
39.124998
 30
0.0
  0
SPLINE
  5
1d9
100
AcDbEntity
  8
Plate
 62
7
100
AcDbSpline
 70
8
 71
3
 72
8
 73
4
 74
0
 40
0
 40
0
 40
0
 40
0
 40
1
 40
1
 40
1
 40
1
 10
20.280750
 20
39.124998
 30
0.0
 10
20.280759
 20
38.848863
 30
0.0
 10
20.504614
 20
38.625015
 30
0.0
 10
20.780750
 20
38.625015
 30
0.0
  0
LWPOLYLINE
  5
1da
100
AcDbEntity
  8
Plate
 62
7
100
AcDbPolyline
 90
2
 70
0
 10
19.693750
 20
54.625004
 30
0.0
 10
54.125000
 20
54.625004
 30
0.0
  0
LWPOLYLINE
  5
1db
100
AcDbEntity
  8
Plate
 62
7
100
AcDbPolyline
 90
2
 70
0
 10
27.280751
 20
40.125010
 30
0.0
 10
27.280751
 20
39.124998
 30
0.0
  0
LWPOLYLINE
  5
1dc
100
AcDbEntity
  8
Plate
 62
7
100
AcDbPolyline
 90
2
 70
0
 10
20.280750
 20
40.124991
 30
0.0
 10
20.280750
 20
39.124998
 30
0.0
  0
SPLINE
  5
1dd
100
AcDbEntity
  8
Plate
 62
7
100
AcDbSpline
 70
8
 71
3
 72
8
 73
4
 74
0
 40
0
 40
0
 40
0
 40
0
 40
1
 40
1
 40
1
 40
1
 10
50.656749
 20
38.625015
 30
0.0
 10
50.932887
 20
38.625015
 30
0.0
 10
51.156740
 20
38.848861
 30
0.0
 10
51.156751
 20
39.124998
 30
0.0
  0
SPLINE
  5
1de
100
AcDbEntity
  8
Plate
 62
7
100
AcDbSpline
 70
8
 71
3
 72
8
 73
4
 74
0
 40
0
 40
0
 40
0
 40
0
 40
1
 40
1
 40
1
 40
1
 10
44.156749
 20
39.124998
 30
0.0
 10
44.156760
 20
38.848861
 30
0.0
 10
44.380613
 20
38.625015
 30
0.0
 10
44.656751
 20
38.625015
 30
0.0
  0
LWPOLYLINE
  5
1df
100
AcDbEntity
  8
Plate
 62
7
100
AcDbPolyline
 90
2
 70
0
 10
20.780750
 20
38.625015
 30
0.0
 10
26.780749
 20
38.625015
 30
0.0
  0
LWPOLYLINE
  5
1e0
100
AcDbEntity
  8
Plate
 62
7
100
AcDbPolyline
 90
2
 70
0
 10
51.156751
 20
40.124991
 30
0.0
 10
51.156751
 20
39.124998
 30
0.0
  0
LWPOLYLINE
  5
1e1
100
AcDbEntity
  8
Plate
 62
7
100
AcDbPolyline
 90
2
 70
0
 10
44.156749
 20
40.124991
 30
0.0
 10
44.156749
 20
39.124998
 30
0.0
  0
SPLINE
  5
1e2
100
AcDbEntity
  8
Plate
 62
7
100
AcDbSpline
 70
8
 71
3
 72
8
 73
4
 74
0
 40
0
 40
0
 40
0
 40
0
 40
1
 40
1
 40
1
 40
1
 10
19.193750
 20
41.125010
 30
0.0
 10
19.193745
 20
40.848865
 30
0.0
 10
19.417604
 20
40.625001
 30
0.0
 10
19.693750
 20
40.625001
 30
0.0
  0
SPLINE
  5
1e3
100
AcDbEntity
  8
Plate
 62
7
100
AcDbSpline
 70
8
 71
3
 72
8
 73
4
 74
0
 40
0
 40
0
 40
0
 40
0
 40
1
 40
1
 40
1
 40
1
 10
19.693750
 20
54.625004
 30
0.0
 10
19.417604
 20
54.625004
 30
0.0
 10
19.193745
 20
54.401140
 30
0.0
 10
19.193750
 20
54.124995
 30
0.0
  0
LWPOLYLINE
  5
1e4
100
AcDbEntity
  8
Plate
 62
7
100
AcDbPolyline
 90
2
 70
0
 10
44.656751
 20
38.625015
 30
0.0
 10
50.656749
 20
38.625015
 30
0.0
  0
LWPOLYLINE
  5
1e5
100
AcDbEntity
  8
Plate
 62
7
100
AcDbPolyline
 90
2
 70
0
 10
19.193750
 20
54.124995
 30
0.0
 10
19.193750
 20
41.125010
 30
0.0
  0
SPLINE
  5
1e6
100
AcDbEntity
  8
Plate
 62
7
100
AcDbSpline
 70
8
 71
3
 72
8
 73
4
 74
0
 40
0
 40
0
 40
0
 40
0
 40
1
 40
1
 40
1
 40
1
 10
328.612500
 20
15.874995
 30
0.0
 10
328.612500
 20
13.683115
 30
0.0
 10
326.835638
 20
11.906245
 30
0.0
 10
324.646078
 20
11.906245
 30
0.0
  0
LWPOLYLINE
  5
1e7
100
AcDbEntity
  8
Plate
 62
7
100
AcDbPolyline
 90
2
 70
0
 10
328.612500
 20
116.681245
 30
0.0
 10
328.612500
 20
15.874995
 30
0.0
  0
SPLINE
  5
1e8
100
AcDbEntity
  8
Plate
 62
7
100
AcDbSpline
 70
8
 71
3
 72
8
 73
4
 74
0
 40
0
 40
0
 40
0
 40
0
 40
1
 40
1
 40
1
 40
1
 10
18.256250
 20
11.906242
 30
0.0
 10
16.064363
 20
11.906242
 30
0.0
 10
14.287500
 20
13.683112
 30
0.0
 10
14.287500
 20
15.874992
 30
0.0
  0
LWPOLYLINE
  5
1e9
100
AcDbEntity
  8
Plate
 62
7
100
AcDbPolyline
 90
2
 70
0
 10
324.646078
 20
11.906245
 30
0.0
 10
18.256250
 20
11.906242
 30
0.0
  0
SPLINE
  5
1ea
100
AcDbEntity
  8
Plate
 62
7
100
AcDbSpline
 70
8
 71
3
 72
8
 73
4
 74
0
 40
0
 40
0
 40
0
 40
0
 40
1
 40
1
 40
1
 40
1
 10
14.287500
 20
116.681245
 30
0.0
 10
14.287500
 20
118.873124
 30
0.0
 10
16.064370
 20
120.649995
 30
0.0
 10
18.256250
 20
120.649995
 30
0.0
  0
LWPOLYLINE
  5
1eb
100
AcDbEntity
  8
Plate
 62
7
100
AcDbPolyline
 90
2
 70
0
 10
14.287500
 20
15.874992
 30
0.0
 10
14.287500
 20
116.681245
 30
0.0
  0
SPLINE
  5
1ec
100
AcDbEntity
  8
Plate
 62
7
100
AcDbSpline
 70
8
 71
3
 72
8
 73
4
 74
0
 40
0
 40
0
 40
0
 40
0
 40
1
 40
1
 40
1
 40
1
 10
324.643750
 20
120.649995
 30
0.0
 10
326.835638
 20
120.649995
 30
0.0
 10
328.612500
 20
118.873124
 30
0.0
 10
328.612500
 20
116.681245
 30
0.0
  0
LWPOLYLINE
  5
1ed
100
AcDbEntity
  8
Plate
 62
7
100
AcDbPolyline
 90
2
 70
0
 10
18.256250
 20
120.649995
 30
0.0
 10
324.643750
 20
120.649995
 30
0.0
  0
LWPOLYLINE
  5
1ee
100
AcDbEntity
  8
Plate
 62
7
100
AcDbPolyline
 90
1
 70
1
 10
328.612500
 20
116.681245
 30
0.0
  0
SPLINE
  5
1ef
100
AcDbEntity
  8
Plate
 62
7
100
AcDbSpline
 70
8
 71
3
 72
8
 73
4
 74
0
 40
0
 40
0
 40
0
 40
0
 40
1
 40
1
 40
1
 40
1
 10
49.362500
 20
97.775001
 30
0.0
 10
49.638646
 20
97.775001
 30
0.0
 10
49.862505
 20
97.998865
 30
0.0
 10
49.862499
 20
98.275010
 30
0.0
  0
LWPOLYLINE
  5
1f0
100
AcDbEntity
  8
Plate
 62
7
100
AcDbPolyline
 90
2
 70
0
 10
36.362500
 20
97.775001
 30
0.0
 10
49.362500
 20
97.775001
 30
0.0
  0
SPLINE
  5
1f1
100
AcDbEntity
  8
Plate
 62
7
100
AcDbSpline
 70
8
 71
3
 72
8
 73
4
 74
0
 40
0
 40
0
 40
0
 40
0
 40
1
 40
1
 40
1
 40
1
 10
49.862499
 20
111.274995
 30
0.0
 10
49.862505
 20
111.551140
 30
0.0
 10
49.638646
 20
111.775004
 30
0.0
 10
49.362500
 20
111.775004
 30
0.0
  0
LWPOLYLINE
  5
1f2
100
AcDbEntity
  8
Plate
 62
7
100
AcDbPolyline
 90
2
 70
0
 10
49.862499
 20
98.275010
 30
0.0
 10
49.862499
 20
111.274995
 30
0.0
  0
SPLINE
  5
1f3
100
AcDbEntity
  8
Plate
 62
7
100
AcDbSpline
 70
8
 71
3
 72
8
 73
4
 74
0
 40
0
 40
0
 40
0
 40
0
 40
1
 40
1
 40
1
 40
1
 10
36.362500
 20
111.775004
 30
0.0
 10
36.086354
 20
111.775004
 30
0.0
 10
35.862495
 20
111.551140
 30
0.0
 10
35.862501
 20
111.274995
 30
0.0
  0
LWPOLYLINE
  5
1f4
100
AcDbEntity
  8
Plate
 62
7
100
AcDbPolyline
 90
2
 70
0
 10
49.362500
 20
111.775004
 30
0.0
 10
36.362500
 20
111.775004
 30
0.0
  0
SPLINE
  5
1f5
100
AcDbEntity
  8
Plate
 62
7
100
AcDbSpline
 70
8
 71
3
 72
8
 73
4
 74
0
 40
0
 40
0
 40
0
 40
0
 40
1
 40
1
 40
1
 40
1
 10
35.862501
 20
98.275010
 30
0.0
 10
35.862495
 20
97.998865
 30
0.0
 10
36.086354
 20
97.775001
 30
0.0
 10
36.362500
 20
97.775001
 30
0.0
  0
LWPOLYLINE
  5
1f6
100
AcDbEntity
  8
Plate
 62
7
100
AcDbPolyline
 90
2
 70
0
 10
35.862501
 20
111.274995
 30
0.0
 10
35.862501
 20
98.275010
 30
0.0
  0
LWPOLYLINE
  5
1f7
100
AcDbEntity
  8
Plate
 62
7
100
AcDbPolyline
 90
1
 70
1
 10
36.362500
 20
97.775001
 30
0.0
  0
SPLINE
  5
1f8
100
AcDbEntity
  8
Plate
 62
7
100
AcDbSpline
 70
8
 71
3
 72
8
 73
4
 74
0
 40
0
 40
0
 40
0
 40
0
 40
1
 40
1
 40
1
 40
1
 10
68.412500
 20
97.775001
 30
0.0
 10
68.688646
 20
97.775001
 30
0.0
 10
68.912505
 20
97.998865
 30
0.0
 10
68.912499
 20
98.275010
 30
0.0
  0
LWPOLYLINE
  5
1f9
100
AcDbEntity
  8
Plate
 62
7
100
AcDbPolyline
 90
2
 70
0
 10
55.412500
 20
97.775001
 30
0.0
 10
68.412500
 20
97.775001
 30
0.0
  0
SPLINE
  5
1fa
100
AcDbEntity
  8
Plate
 62
7
100
AcDbSpline
 70
8
 71
3
 72
8
 73
4
 74
0
 40
0
 40
0
 40
0
 40
0
 40
1
 40
1
 40
1
 40
1
 10
68.912499
 20
111.274995
 30
0.0
 10
68.912505
 20
111.551140
 30
0.0
 10
68.688646
 20
111.775004
 30
0.0
 10
68.412500
 20
111.775004
 30
0.0
  0
LWPOLYLINE
  5
1fb
100
AcDbEntity
  8
Plate
 62
7
100
AcDbPolyline
 90
2
 70
0
 10
68.912499
 20
98.275010
 30
0.0
 10
68.912499
 20
111.274995
 30
0.0
  0
SPLINE
  5
1fc
100
AcDbEntity
  8
Plate
 62
7
100
AcDbSpline
 70
8
 71
3
 72
8
 73
4
 74
0
 40
0
 40
0
 40
0
 40
0
 40
1
 40
1
 40
1
 40
1
 10
55.412500
 20
111.775004
 30
0.0
 10
55.136354
 20
111.775004
 30
0.0
 10
54.912495
 20
111.551140
 30
0.0
 10
54.912501
 20
111.274995
 30
0.0
  0
LWPOLYLINE
  5
1fd
100
AcDbEntity
  8
Plate
 62
7
100
AcDbPolyline
 90
2
 70
0
 10
68.412500
 20
111.775004
 30
0.0
 10
55.412500
 20
111.775004
 30
0.0
  0
SPLINE
  5
1fe
100
AcDbEntity
  8
Plate
 62
7
100
AcDbSpline
 70
8
 71
3
 72
8
 73
4
 74
0
 40
0
 40
0
 40
0
 40
0
 40
1
 40
1
 40
1
 40
1
 10
54.912501
 20
98.275010
 30
0.0
 10
54.912495
 20
97.998865
 30
0.0
 10
55.136354
 20
97.775001
 30
0.0
 10
55.412500
 20
97.775001
 30
0.0
  0
LWPOLYLINE
  5
1ff
100
AcDbEntity
  8
Plate
 62
7
100
AcDbPolyline
 90
2
 70
0
 10
54.912501
 20
111.274995
 30
0.0
 10
54.912501
 20
98.275010
 30
0.0
  0
LWPOLYLINE
  5
200
100
AcDbEntity
  8
Plate
 62
7
100
AcDbPolyline
 90
1
 70
1
 10
55.412500
 20
97.775001
 30
0.0
  0
SPLINE
  5
201
100
AcDbEntity
  8
Plate
 62
7
100
AcDbSpline
 70
8
 71
3
 72
8
 73
4
 74
0
 40
0
 40
0
 40
0
 40
0
 40
1
 40
1
 40
1
 40
1
 10
87.462500
 20
97.775001
 30
0.0
 10
87.738646
 20
97.775001
 30
0.0
 10
87.962505
 20
97.998865
 30
0.0
 10
87.962499
 20
98.275010
 30
0.0
  0
LWPOLYLINE
  5
202
100
AcDbEntity
  8
Plate
 62
7
100
AcDbPolyline
 90
2
 70
0
 10
74.462500
 20
97.775001
 30
0.0
 10
87.462500
 20
97.775001
 30
0.0
  0
SPLINE
  5
203
100
AcDbEntity
  8
Plate
 62
7
100
AcDbSpline
 70
8
 71
3
 72
8
 73
4
 74
0
 40
0
 40
0
 40
0
 40
0
 40
1
 40
1
 40
1
 40
1
 10
87.962499
 20
111.274995
 30
0.0
 10
87.962505
 20
111.551140
 30
0.0
 10
87.738646
 20
111.775004
 30
0.0
 10
87.462500
 20
111.775004
 30
0.0
  0
LWPOLYLINE
  5
204
100
AcDbEntity
  8
Plate
 62
7
100
AcDbPolyline
 90
2
 70
0
 10
87.962499
 20
98.275010
 30
0.0
 10
87.962499
 20
111.274995
 30
0.0
  0
SPLINE
  5
205
100
AcDbEntity
  8
Plate
 62
7
100
AcDbSpline
 70
8
 71
3
 72
8
 73
4
 74
0
 40
0
 40
0
 40
0
 40
0
 40
1
 40
1
 40
1
 40
1
 10
74.462500
 20
111.775004
 30
0.0
 10
74.186354
 20
111.775004
 30
0.0
 10
73.962495
 20
111.551140
 30
0.0
 10
73.962501
 20
111.274995
 30
0.0
  0
LWPOLYLINE
  5
206
100
AcDbEntity
  8
Plate
 62
7
100
AcDbPolyline
 90
2
 70
0
 10
87.462500
 20
111.775004
 30
0.0
 10
74.462500
 20
111.775004
 30
0.0
  0
SPLINE
  5
207
100
AcDbEntity
  8
Plate
 62
7
100
AcDbSpline
 70
8
 71
3
 72
8
 73
4
 74
0
 40
0
 40
0
 40
0
 40
0
 40
1
 40
1
 40
1
 40
1
 10
73.962501
 20
98.275010
 30
0.0
 10
73.962495
 20
97.998865
 30
0.0
 10
74.186354
 20
97.775001
 30
0.0
 10
74.462500
 20
97.775001
 30
0.0
  0
LWPOLYLINE
  5
208
100
AcDbEntity
  8
Plate
 62
7
100
AcDbPolyline
 90
2
 70
0
 10
73.962501
 20
111.274995
 30
0.0
 10
73.962501
 20
98.275010
 30
0.0
  0
LWPOLYLINE
  5
209
100
AcDbEntity
  8
Plate
 62
7
100
AcDbPolyline
 90
1
 70
1
 10
74.462500
 20
97.775001
 30
0.0
  0
SPLINE
  5
20a
100
AcDbEntity
  8
Plate
 62
7
100
AcDbSpline
 70
8
 71
3
 72
8
 73
4
 74
0
 40
0
 40
0
 40
0
 40
0
 40
1
 40
1
 40
1
 40
1
 10
106.512500
 20
97.775001
 30
0.0
 10
106.788646
 20
97.775001
 30
0.0
 10
107.012505
 20
97.998865
 30
0.0
 10
107.012499
 20
98.275010
 30
0.0
  0
LWPOLYLINE
  5
20b
100
AcDbEntity
  8
Plate
 62
7
100
AcDbPolyline
 90
2
 70
0
 10
93.512500
 20
97.775001
 30
0.0
 10
106.512500
 20
97.775001
 30
0.0
  0
SPLINE
  5
20c
100
AcDbEntity
  8
Plate
 62
7
100
AcDbSpline
 70
8
 71
3
 72
8
 73
4
 74
0
 40
0
 40
0
 40
0
 40
0
 40
1
 40
1
 40
1
 40
1
 10
107.012499
 20
111.274995
 30
0.0
 10
107.012505
 20
111.551140
 30
0.0
 10
106.788646
 20
111.775004
 30
0.0
 10
106.512500
 20
111.775004
 30
0.0
  0
LWPOLYLINE
  5
20d
100
AcDbEntity
  8
Plate
 62
7
100
AcDbPolyline
 90
2
 70
0
 10
107.012499
 20
98.275010
 30
0.0
 10
107.012499
 20
111.274995
 30
0.0
  0
SPLINE
  5
20e
100
AcDbEntity
  8
Plate
 62
7
100
AcDbSpline
 70
8
 71
3
 72
8
 73
4
 74
0
 40
0
 40
0
 40
0
 40
0
 40
1
 40
1
 40
1
 40
1
 10
93.512500
 20
111.775004
 30
0.0
 10
93.236354
 20
111.775004
 30
0.0
 10
93.012495
 20
111.551140
 30
0.0
 10
93.012501
 20
111.274995
 30
0.0
  0
LWPOLYLINE
  5
20f
100
AcDbEntity
  8
Plate
 62
7
100
AcDbPolyline
 90
2
 70
0
 10
106.512500
 20
111.775004
 30
0.0
 10
93.512500
 20
111.775004
 30
0.0
  0
SPLINE
  5
210
100
AcDbEntity
  8
Plate
 62
7
100
AcDbSpline
 70
8
 71
3
 72
8
 73
4
 74
0
 40
0
 40
0
 40
0
 40
0
 40
1
 40
1
 40
1
 40
1
 10
93.012501
 20
98.275010
 30
0.0
 10
93.012495
 20
97.998865
 30
0.0
 10
93.236354
 20
97.775001
 30
0.0
 10
93.512500
 20
97.775001
 30
0.0
  0
LWPOLYLINE
  5
211
100
AcDbEntity
  8
Plate
 62
7
100
AcDbPolyline
 90
2
 70
0
 10
93.012501
 20
111.274995
 30
0.0
 10
93.012501
 20
98.275010
 30
0.0
  0
LWPOLYLINE
  5
212
100
AcDbEntity
  8
Plate
 62
7
100
AcDbPolyline
 90
1
 70
1
 10
93.512500
 20
97.775001
 30
0.0
  0
SPLINE
  5
213
100
AcDbEntity
  8
Plate
 62
7
100
AcDbSpline
 70
8
 71
3
 72
8
 73
4
 74
0
 40
0
 40
0
 40
0
 40
0
 40
1
 40
1
 40
1
 40
1
 10
125.562500
 20
97.775001
 30
0.0
 10
125.838646
 20
97.775001
 30
0.0
 10
126.062505
 20
97.998865
 30
0.0
 10
126.062499
 20
98.275010
 30
0.0
  0
LWPOLYLINE
  5
214
100
AcDbEntity
  8
Plate
 62
7
100
AcDbPolyline
 90
2
 70
0
 10
112.562500
 20
97.775001
 30
0.0
 10
125.562500
 20
97.775001
 30
0.0
  0
SPLINE
  5
215
100
AcDbEntity
  8
Plate
 62
7
100
AcDbSpline
 70
8
 71
3
 72
8
 73
4
 74
0
 40
0
 40
0
 40
0
 40
0
 40
1
 40
1
 40
1
 40
1
 10
126.062499
 20
111.274995
 30
0.0
 10
126.062505
 20
111.551140
 30
0.0
 10
125.838646
 20
111.775004
 30
0.0
 10
125.562500
 20
111.775004
 30
0.0
  0
LWPOLYLINE
  5
216
100
AcDbEntity
  8
Plate
 62
7
100
AcDbPolyline
 90
2
 70
0
 10
126.062499
 20
98.275010
 30
0.0
 10
126.062499
 20
111.274995
 30
0.0
  0
SPLINE
  5
217
100
AcDbEntity
  8
Plate
 62
7
100
AcDbSpline
 70
8
 71
3
 72
8
 73
4
 74
0
 40
0
 40
0
 40
0
 40
0
 40
1
 40
1
 40
1
 40
1
 10
112.562500
 20
111.775004
 30
0.0
 10
112.286354
 20
111.775004
 30
0.0
 10
112.062495
 20
111.551140
 30
0.0
 10
112.062501
 20
111.274995
 30
0.0
  0
LWPOLYLINE
  5
218
100
AcDbEntity
  8
Plate
 62
7
100
AcDbPolyline
 90
2
 70
0
 10
125.562500
 20
111.775004
 30
0.0
 10
112.562500
 20
111.775004
 30
0.0
  0
SPLINE
  5
219
100
AcDbEntity
  8
Plate
 62
7
100
AcDbSpline
 70
8
 71
3
 72
8
 73
4
 74
0
 40
0
 40
0
 40
0
 40
0
 40
1
 40
1
 40
1
 40
1
 10
112.062501
 20
98.275010
 30
0.0
 10
112.062495
 20
97.998865
 30
0.0
 10
112.286354
 20
97.775001
 30
0.0
 10
112.562500
 20
97.775001
 30
0.0
  0
LWPOLYLINE
  5
21a
100
AcDbEntity
  8
Plate
 62
7
100
AcDbPolyline
 90
2
 70
0
 10
112.062501
 20
111.274995
 30
0.0
 10
112.062501
 20
98.275010
 30
0.0
  0
LWPOLYLINE
  5
21b
100
AcDbEntity
  8
Plate
 62
7
100
AcDbPolyline
 90
1
 70
1
 10
112.562500
 20
97.775001
 30
0.0
  0
SPLINE
  5
21c
100
AcDbEntity
  8
Plate
 62
7
100
AcDbSpline
 70
8
 71
3
 72
8
 73
4
 74
0
 40
0
 40
0
 40
0
 40
0
 40
1
 40
1
 40
1
 40
1
 10
144.612500
 20
97.775001
 30
0.0
 10
144.888646
 20
97.775001
 30
0.0
 10
145.112505
 20
97.998865
 30
0.0
 10
145.112499
 20
98.275010
 30
0.0
  0
LWPOLYLINE
  5
21d
100
AcDbEntity
  8
Plate
 62
7
100
AcDbPolyline
 90
2
 70
0
 10
131.612500
 20
97.775001
 30
0.0
 10
144.612500
 20
97.775001
 30
0.0
  0
SPLINE
  5
21e
100
AcDbEntity
  8
Plate
 62
7
100
AcDbSpline
 70
8
 71
3
 72
8
 73
4
 74
0
 40
0
 40
0
 40
0
 40
0
 40
1
 40
1
 40
1
 40
1
 10
145.112499
 20
111.274995
 30
0.0
 10
145.112505
 20
111.551140
 30
0.0
 10
144.888646
 20
111.775004
 30
0.0
 10
144.612500
 20
111.775004
 30
0.0
  0
LWPOLYLINE
  5
21f
100
AcDbEntity
  8
Plate
 62
7
100
AcDbPolyline
 90
2
 70
0
 10
145.112499
 20
98.275010
 30
0.0
 10
145.112499
 20
111.274995
 30
0.0
  0
SPLINE
  5
220
100
AcDbEntity
  8
Plate
 62
7
100
AcDbSpline
 70
8
 71
3
 72
8
 73
4
 74
0
 40
0
 40
0
 40
0
 40
0
 40
1
 40
1
 40
1
 40
1
 10
131.612500
 20
111.775004
 30
0.0
 10
131.336354
 20
111.775004
 30
0.0
 10
131.112495
 20
111.551140
 30
0.0
 10
131.112501
 20
111.274995
 30
0.0
  0
LWPOLYLINE
  5
221
100
AcDbEntity
  8
Plate
 62
7
100
AcDbPolyline
 90
2
 70
0
 10
144.612500
 20
111.775004
 30
0.0
 10
131.612500
 20
111.775004
 30
0.0
  0
SPLINE
  5
222
100
AcDbEntity
  8
Plate
 62
7
100
AcDbSpline
 70
8
 71
3
 72
8
 73
4
 74
0
 40
0
 40
0
 40
0
 40
0
 40
1
 40
1
 40
1
 40
1
 10
131.112501
 20
98.275010
 30
0.0
 10
131.112495
 20
97.998865
 30
0.0
 10
131.336354
 20
97.775001
 30
0.0
 10
131.612500
 20
97.775001
 30
0.0
  0
LWPOLYLINE
  5
223
100
AcDbEntity
  8
Plate
 62
7
100
AcDbPolyline
 90
2
 70
0
 10
131.112501
 20
111.274995
 30
0.0
 10
131.112501
 20
98.275010
 30
0.0
  0
LWPOLYLINE
  5
224
100
AcDbEntity
  8
Plate
 62
7
100
AcDbPolyline
 90
1
 70
1
 10
131.612500
 20
97.775001
 30
0.0
  0
SPLINE
  5
225
100
AcDbEntity
  8
Plate
 62
7
100
AcDbSpline
 70
8
 71
3
 72
8
 73
4
 74
0
 40
0
 40
0
 40
0
 40
0
 40
1
 40
1
 40
1
 40
1
 10
163.662500
 20
97.775001
 30
0.0
 10
163.938646
 20
97.775001
 30
0.0
 10
164.162505
 20
97.998865
 30
0.0
 10
164.162499
 20
98.275010
 30
0.0
  0
LWPOLYLINE
  5
226
100
AcDbEntity
  8
Plate
 62
7
100
AcDbPolyline
 90
2
 70
0
 10
150.662500
 20
97.775001
 30
0.0
 10
163.662500
 20
97.775001
 30
0.0
  0
SPLINE
  5
227
100
AcDbEntity
  8
Plate
 62
7
100
AcDbSpline
 70
8
 71
3
 72
8
 73
4
 74
0
 40
0
 40
0
 40
0
 40
0
 40
1
 40
1
 40
1
 40
1
 10
164.162499
 20
111.274995
 30
0.0
 10
164.162505
 20
111.551140
 30
0.0
 10
163.938646
 20
111.775004
 30
0.0
 10
163.662500
 20
111.775004
 30
0.0
  0
LWPOLYLINE
  5
228
100
AcDbEntity
  8
Plate
 62
7
100
AcDbPolyline
 90
2
 70
0
 10
164.162499
 20
98.275010
 30
0.0
 10
164.162499
 20
111.274995
 30
0.0
  0
SPLINE
  5
229
100
AcDbEntity
  8
Plate
 62
7
100
AcDbSpline
 70
8
 71
3
 72
8
 73
4
 74
0
 40
0
 40
0
 40
0
 40
0
 40
1
 40
1
 40
1
 40
1
 10
150.662500
 20
111.775004
 30
0.0
 10
150.386354
 20
111.775004
 30
0.0
 10
150.162495
 20
111.551140
 30
0.0
 10
150.162501
 20
111.274995
 30
0.0
  0
LWPOLYLINE
  5
22a
100
AcDbEntity
  8
Plate
 62
7
100
AcDbPolyline
 90
2
 70
0
 10
163.662500
 20
111.775004
 30
0.0
 10
150.662500
 20
111.775004
 30
0.0
  0
SPLINE
  5
22b
100
AcDbEntity
  8
Plate
 62
7
100
AcDbSpline
 70
8
 71
3
 72
8
 73
4
 74
0
 40
0
 40
0
 40
0
 40
0
 40
1
 40
1
 40
1
 40
1
 10
150.162501
 20
98.275010
 30
0.0
 10
150.162495
 20
97.998865
 30
0.0
 10
150.386354
 20
97.775001
 30
0.0
 10
150.662500
 20
97.775001
 30
0.0
  0
LWPOLYLINE
  5
22c
100
AcDbEntity
  8
Plate
 62
7
100
AcDbPolyline
 90
2
 70
0
 10
150.162501
 20
111.274995
 30
0.0
 10
150.162501
 20
98.275010
 30
0.0
  0
LWPOLYLINE
  5
22d
100
AcDbEntity
  8
Plate
 62
7
100
AcDbPolyline
 90
1
 70
1
 10
150.662500
 20
97.775001
 30
0.0
  0
SPLINE
  5
22e
100
AcDbEntity
  8
Plate
 62
7
100
AcDbSpline
 70
8
 71
3
 72
8
 73
4
 74
0
 40
0
 40
0
 40
0
 40
0
 40
1
 40
1
 40
1
 40
1
 10
182.712500
 20
97.775001
 30
0.0
 10
182.988646
 20
97.775001
 30
0.0
 10
183.212505
 20
97.998865
 30
0.0
 10
183.212499
 20
98.275010
 30
0.0
  0
LWPOLYLINE
  5
22f
100
AcDbEntity
  8
Plate
 62
7
100
AcDbPolyline
 90
2
 70
0
 10
169.712500
 20
97.775001
 30
0.0
 10
182.712500
 20
97.775001
 30
0.0
  0
SPLINE
  5
230
100
AcDbEntity
  8
Plate
 62
7
100
AcDbSpline
 70
8
 71
3
 72
8
 73
4
 74
0
 40
0
 40
0
 40
0
 40
0
 40
1
 40
1
 40
1
 40
1
 10
183.212499
 20
111.274995
 30
0.0
 10
183.212505
 20
111.551140
 30
0.0
 10
182.988646
 20
111.775004
 30
0.0
 10
182.712500
 20
111.775004
 30
0.0
  0
LWPOLYLINE
  5
231
100
AcDbEntity
  8
Plate
 62
7
100
AcDbPolyline
 90
2
 70
0
 10
183.212499
 20
98.275010
 30
0.0
 10
183.212499
 20
111.274995
 30
0.0
  0
SPLINE
  5
232
100
AcDbEntity
  8
Plate
 62
7
100
AcDbSpline
 70
8
 71
3
 72
8
 73
4
 74
0
 40
0
 40
0
 40
0
 40
0
 40
1
 40
1
 40
1
 40
1
 10
169.712500
 20
111.775004
 30
0.0
 10
169.436354
 20
111.775004
 30
0.0
 10
169.212495
 20
111.551140
 30
0.0
 10
169.212501
 20
111.274995
 30
0.0
  0
LWPOLYLINE
  5
233
100
AcDbEntity
  8
Plate
 62
7
100
AcDbPolyline
 90
2
 70
0
 10
182.712500
 20
111.775004
 30
0.0
 10
169.712500
 20
111.775004
 30
0.0
  0
SPLINE
  5
234
100
AcDbEntity
  8
Plate
 62
7
100
AcDbSpline
 70
8
 71
3
 72
8
 73
4
 74
0
 40
0
 40
0
 40
0
 40
0
 40
1
 40
1
 40
1
 40
1
 10
169.212501
 20
98.275010
 30
0.0
 10
169.212495
 20
97.998865
 30
0.0
 10
169.436354
 20
97.775001
 30
0.0
 10
169.712500
 20
97.775001
 30
0.0
  0
LWPOLYLINE
  5
235
100
AcDbEntity
  8
Plate
 62
7
100
AcDbPolyline
 90
2
 70
0
 10
169.212501
 20
111.274995
 30
0.0
 10
169.212501
 20
98.275010
 30
0.0
  0
LWPOLYLINE
  5
236
100
AcDbEntity
  8
Plate
 62
7
100
AcDbPolyline
 90
1
 70
1
 10
169.712500
 20
97.775001
 30
0.0
  0
SPLINE
  5
237
100
AcDbEntity
  8
Plate
 62
7
100
AcDbSpline
 70
8
 71
3
 72
8
 73
4
 74
0
 40
0
 40
0
 40
0
 40
0
 40
1
 40
1
 40
1
 40
1
 10
201.762500
 20
97.775001
 30
0.0
 10
202.038646
 20
97.775001
 30
0.0
 10
202.262505
 20
97.998865
 30
0.0
 10
202.262499
 20
98.275010
 30
0.0
  0
LWPOLYLINE
  5
238
100
AcDbEntity
  8
Plate
 62
7
100
AcDbPolyline
 90
2
 70
0
 10
188.762500
 20
97.775001
 30
0.0
 10
201.762500
 20
97.775001
 30
0.0
  0
SPLINE
  5
239
100
AcDbEntity
  8
Plate
 62
7
100
AcDbSpline
 70
8
 71
3
 72
8
 73
4
 74
0
 40
0
 40
0
 40
0
 40
0
 40
1
 40
1
 40
1
 40
1
 10
202.262499
 20
111.274995
 30
0.0
 10
202.262505
 20
111.551140
 30
0.0
 10
202.038646
 20
111.775004
 30
0.0
 10
201.762500
 20
111.775004
 30
0.0
  0
LWPOLYLINE
  5
23a
100
AcDbEntity
  8
Plate
 62
7
100
AcDbPolyline
 90
2
 70
0
 10
202.262499
 20
98.275010
 30
0.0
 10
202.262499
 20
111.274995
 30
0.0
  0
SPLINE
  5
23b
100
AcDbEntity
  8
Plate
 62
7
100
AcDbSpline
 70
8
 71
3
 72
8
 73
4
 74
0
 40
0
 40
0
 40
0
 40
0
 40
1
 40
1
 40
1
 40
1
 10
188.762500
 20
111.775004
 30
0.0
 10
188.486354
 20
111.775004
 30
0.0
 10
188.262495
 20
111.551140
 30
0.0
 10
188.262501
 20
111.274995
 30
0.0
  0
LWPOLYLINE
  5
23c
100
AcDbEntity
  8
Plate
 62
7
100
AcDbPolyline
 90
2
 70
0
 10
201.762500
 20
111.775004
 30
0.0
 10
188.762500
 20
111.775004
 30
0.0
  0
SPLINE
  5
23d
100
AcDbEntity
  8
Plate
 62
7
100
AcDbSpline
 70
8
 71
3
 72
8
 73
4
 74
0
 40
0
 40
0
 40
0
 40
0
 40
1
 40
1
 40
1
 40
1
 10
188.262501
 20
98.275010
 30
0.0
 10
188.262495
 20
97.998865
 30
0.0
 10
188.486354
 20
97.775001
 30
0.0
 10
188.762500
 20
97.775001
 30
0.0
  0
LWPOLYLINE
  5
23e
100
AcDbEntity
  8
Plate
 62
7
100
AcDbPolyline
 90
2
 70
0
 10
188.262501
 20
111.274995
 30
0.0
 10
188.262501
 20
98.275010
 30
0.0
  0
LWPOLYLINE
  5
23f
100
AcDbEntity
  8
Plate
 62
7
100
AcDbPolyline
 90
1
 70
1
 10
188.762500
 20
97.775001
 30
0.0
  0
SPLINE
  5
240
100
AcDbEntity
  8
Plate
 62
7
100
AcDbSpline
 70
8
 71
3
 72
8
 73
4
 74
0
 40
0
 40
0
 40
0
 40
0
 40
1
 40
1
 40
1
 40
1
 10
220.812500
 20
97.775001
 30
0.0
 10
221.088646
 20
97.775001
 30
0.0
 10
221.312505
 20
97.998865
 30
0.0
 10
221.312499
 20
98.275010
 30
0.0
  0
LWPOLYLINE
  5
241
100
AcDbEntity
  8
Plate
 62
7
100
AcDbPolyline
 90
2
 70
0
 10
207.812500
 20
97.775001
 30
0.0
 10
220.812500
 20
97.775001
 30
0.0
  0
SPLINE
  5
242
100
AcDbEntity
  8
Plate
 62
7
100
AcDbSpline
 70
8
 71
3
 72
8
 73
4
 74
0
 40
0
 40
0
 40
0
 40
0
 40
1
 40
1
 40
1
 40
1
 10
221.312499
 20
111.274995
 30
0.0
 10
221.312505
 20
111.551140
 30
0.0
 10
221.088646
 20
111.775004
 30
0.0
 10
220.812500
 20
111.775004
 30
0.0
  0
LWPOLYLINE
  5
243
100
AcDbEntity
  8
Plate
 62
7
100
AcDbPolyline
 90
2
 70
0
 10
221.312499
 20
98.275010
 30
0.0
 10
221.312499
 20
111.274995
 30
0.0
  0
SPLINE
  5
244
100
AcDbEntity
  8
Plate
 62
7
100
AcDbSpline
 70
8
 71
3
 72
8
 73
4
 74
0
 40
0
 40
0
 40
0
 40
0
 40
1
 40
1
 40
1
 40
1
 10
207.812500
 20
111.775004
 30
0.0
 10
207.536354
 20
111.775004
 30
0.0
 10
207.312495
 20
111.551140
 30
0.0
 10
207.312501
 20
111.274995
 30
0.0
  0
LWPOLYLINE
  5
245
100
AcDbEntity
  8
Plate
 62
7
100
AcDbPolyline
 90
2
 70
0
 10
220.812500
 20
111.775004
 30
0.0
 10
207.812500
 20
111.775004
 30
0.0
  0
SPLINE
  5
246
100
AcDbEntity
  8
Plate
 62
7
100
AcDbSpline
 70
8
 71
3
 72
8
 73
4
 74
0
 40
0
 40
0
 40
0
 40
0
 40
1
 40
1
 40
1
 40
1
 10
207.312501
 20
98.275010
 30
0.0
 10
207.312495
 20
97.998865
 30
0.0
 10
207.536354
 20
97.775001
 30
0.0
 10
207.812500
 20
97.775001
 30
0.0
  0
LWPOLYLINE
  5
247
100
AcDbEntity
  8
Plate
 62
7
100
AcDbPolyline
 90
2
 70
0
 10
207.312501
 20
111.274995
 30
0.0
 10
207.312501
 20
98.275010
 30
0.0
  0
LWPOLYLINE
  5
248
100
AcDbEntity
  8
Plate
 62
7
100
AcDbPolyline
 90
1
 70
1
 10
207.812500
 20
97.775001
 30
0.0
  0
SPLINE
  5
249
100
AcDbEntity
  8
Plate
 62
7
100
AcDbSpline
 70
8
 71
3
 72
8
 73
4
 74
0
 40
0
 40
0
 40
0
 40
0
 40
1
 40
1
 40
1
 40
1
 10
239.862500
 20
97.775001
 30
0.0
 10
240.138646
 20
97.775001
 30
0.0
 10
240.362505
 20
97.998865
 30
0.0
 10
240.362499
 20
98.275010
 30
0.0
  0
LWPOLYLINE
  5
24a
100
AcDbEntity
  8
Plate
 62
7
100
AcDbPolyline
 90
2
 70
0
 10
226.862500
 20
97.775001
 30
0.0
 10
239.862500
 20
97.775001
 30
0.0
  0
SPLINE
  5
24b
100
AcDbEntity
  8
Plate
 62
7
100
AcDbSpline
 70
8
 71
3
 72
8
 73
4
 74
0
 40
0
 40
0
 40
0
 40
0
 40
1
 40
1
 40
1
 40
1
 10
240.362499
 20
111.274995
 30
0.0
 10
240.362505
 20
111.551140
 30
0.0
 10
240.138646
 20
111.775004
 30
0.0
 10
239.862500
 20
111.775004
 30
0.0
  0
LWPOLYLINE
  5
24c
100
AcDbEntity
  8
Plate
 62
7
100
AcDbPolyline
 90
2
 70
0
 10
240.362499
 20
98.275010
 30
0.0
 10
240.362499
 20
111.274995
 30
0.0
  0
SPLINE
  5
24d
100
AcDbEntity
  8
Plate
 62
7
100
AcDbSpline
 70
8
 71
3
 72
8
 73
4
 74
0
 40
0
 40
0
 40
0
 40
0
 40
1
 40
1
 40
1
 40
1
 10
226.862500
 20
111.775004
 30
0.0
 10
226.586354
 20
111.775004
 30
0.0
 10
226.362495
 20
111.551140
 30
0.0
 10
226.362501
 20
111.274995
 30
0.0
  0
LWPOLYLINE
  5
24e
100
AcDbEntity
  8
Plate
 62
7
100
AcDbPolyline
 90
2
 70
0
 10
239.862500
 20
111.775004
 30
0.0
 10
226.862500
 20
111.775004
 30
0.0
  0
SPLINE
  5
24f
100
AcDbEntity
  8
Plate
 62
7
100
AcDbSpline
 70
8
 71
3
 72
8
 73
4
 74
0
 40
0
 40
0
 40
0
 40
0
 40
1
 40
1
 40
1
 40
1
 10
226.362501
 20
98.275010
 30
0.0
 10
226.362495
 20
97.998865
 30
0.0
 10
226.586354
 20
97.775001
 30
0.0
 10
226.862500
 20
97.775001
 30
0.0
  0
LWPOLYLINE
  5
250
100
AcDbEntity
  8
Plate
 62
7
100
AcDbPolyline
 90
2
 70
0
 10
226.362501
 20
111.274995
 30
0.0
 10
226.362501
 20
98.275010
 30
0.0
  0
LWPOLYLINE
  5
251
100
AcDbEntity
  8
Plate
 62
7
100
AcDbPolyline
 90
1
 70
1
 10
226.862500
 20
97.775001
 30
0.0
  0
SPLINE
  5
252
100
AcDbEntity
  8
Plate
 62
7
100
AcDbSpline
 70
8
 71
3
 72
8
 73
4
 74
0
 40
0
 40
0
 40
0
 40
0
 40
1
 40
1
 40
1
 40
1
 10
258.912500
 20
97.775001
 30
0.0
 10
259.188646
 20
97.775001
 30
0.0
 10
259.412505
 20
97.998865
 30
0.0
 10
259.412499
 20
98.275010
 30
0.0
  0
LWPOLYLINE
  5
253
100
AcDbEntity
  8
Plate
 62
7
100
AcDbPolyline
 90
2
 70
0
 10
245.912500
 20
97.775001
 30
0.0
 10
258.912500
 20
97.775001
 30
0.0
  0
SPLINE
  5
254
100
AcDbEntity
  8
Plate
 62
7
100
AcDbSpline
 70
8
 71
3
 72
8
 73
4
 74
0
 40
0
 40
0
 40
0
 40
0
 40
1
 40
1
 40
1
 40
1
 10
259.412499
 20
111.274995
 30
0.0
 10
259.412505
 20
111.551140
 30
0.0
 10
259.188646
 20
111.775004
 30
0.0
 10
258.912500
 20
111.775004
 30
0.0
  0
LWPOLYLINE
  5
255
100
AcDbEntity
  8
Plate
 62
7
100
AcDbPolyline
 90
2
 70
0
 10
259.412499
 20
98.275010
 30
0.0
 10
259.412499
 20
111.274995
 30
0.0
  0
SPLINE
  5
256
100
AcDbEntity
  8
Plate
 62
7
100
AcDbSpline
 70
8
 71
3
 72
8
 73
4
 74
0
 40
0
 40
0
 40
0
 40
0
 40
1
 40
1
 40
1
 40
1
 10
245.912500
 20
111.775004
 30
0.0
 10
245.636354
 20
111.775004
 30
0.0
 10
245.412495
 20
111.551140
 30
0.0
 10
245.412501
 20
111.274995
 30
0.0
  0
LWPOLYLINE
  5
257
100
AcDbEntity
  8
Plate
 62
7
100
AcDbPolyline
 90
2
 70
0
 10
258.912500
 20
111.775004
 30
0.0
 10
245.912500
 20
111.775004
 30
0.0
  0
SPLINE
  5
258
100
AcDbEntity
  8
Plate
 62
7
100
AcDbSpline
 70
8
 71
3
 72
8
 73
4
 74
0
 40
0
 40
0
 40
0
 40
0
 40
1
 40
1
 40
1
 40
1
 10
245.412501
 20
98.275010
 30
0.0
 10
245.412495
 20
97.998865
 30
0.0
 10
245.636354
 20
97.775001
 30
0.0
 10
245.912500
 20
97.775001
 30
0.0
  0
LWPOLYLINE
  5
259
100
AcDbEntity
  8
Plate
 62
7
100
AcDbPolyline
 90
2
 70
0
 10
245.412501
 20
111.274995
 30
0.0
 10
245.412501
 20
98.275010
 30
0.0
  0
LWPOLYLINE
  5
25a
100
AcDbEntity
  8
Plate
 62
7
100
AcDbPolyline
 90
1
 70
1
 10
245.912500
 20
97.775001
 30
0.0
  0
SPLINE
  5
25b
100
AcDbEntity
  8
Plate
 62
7
100
AcDbSpline
 70
8
 71
3
 72
8
 73
4
 74
0
 40
0
 40
0
 40
0
 40
0
 40
1
 40
1
 40
1
 40
1
 10
325.587492
 20
97.775001
 30
0.0
 10
325.863638
 20
97.775001
 30
0.0
 10
326.087502
 20
97.998865
 30
0.0
 10
326.087502
 20
98.275010
 30
0.0
  0
LWPOLYLINE
  5
25c
100
AcDbEntity
  8
Plate
 62
7
100
AcDbPolyline
 90
2
 70
0
 10
312.587508
 20
97.775001
 30
0.0
 10
325.587492
 20
97.775001
 30
0.0
  0
SPLINE
  5
25d
100
AcDbEntity
  8
Plate
 62
7
100
AcDbSpline
 70
8
 71
3
 72
8
 73
4
 74
0
 40
0
 40
0
 40
0
 40
0
 40
1
 40
1
 40
1
 40
1
 10
326.087502
 20
111.274995
 30
0.0
 10
326.087502
 20
111.551140
 30
0.0
 10
325.863638
 20
111.775004
 30
0.0
 10
325.587492
 20
111.775004
 30
0.0
  0
LWPOLYLINE
  5
25e
100
AcDbEntity
  8
Plate
 62
7
100
AcDbPolyline
 90
2
 70
0
 10
326.087502
 20
98.275010
 30
0.0
 10
326.087502
 20
111.274995
 30
0.0
  0
SPLINE
  5
25f
100
AcDbEntity
  8
Plate
 62
7
100
AcDbSpline
 70
8
 71
3
 72
8
 73
4
 74
0
 40
0
 40
0
 40
0
 40
0
 40
1
 40
1
 40
1
 40
1
 10
312.587508
 20
111.775004
 30
0.0
 10
312.311362
 20
111.775004
 30
0.0
 10
312.087498
 20
111.551140
 30
0.0
 10
312.087498
 20
111.274995
 30
0.0
  0
LWPOLYLINE
  5
260
100
AcDbEntity
  8
Plate
 62
7
100
AcDbPolyline
 90
2
 70
0
 10
325.587492
 20
111.775004
 30
0.0
 10
312.587508
 20
111.775004
 30
0.0
  0
SPLINE
  5
261
100
AcDbEntity
  8
Plate
 62
7
100
AcDbSpline
 70
8
 71
3
 72
8
 73
4
 74
0
 40
0
 40
0
 40
0
 40
0
 40
1
 40
1
 40
1
 40
1
 10
312.087498
 20
98.275010
 30
0.0
 10
312.087498
 20
97.998865
 30
0.0
 10
312.311362
 20
97.775001
 30
0.0
 10
312.587508
 20
97.775001
 30
0.0
  0
LWPOLYLINE
  5
262
100
AcDbEntity
  8
Plate
 62
7
100
AcDbPolyline
 90
2
 70
0
 10
312.087498
 20
111.274995
 30
0.0
 10
312.087498
 20
98.275010
 30
0.0
  0
LWPOLYLINE
  5
263
100
AcDbEntity
  8
Plate
 62
7
100
AcDbPolyline
 90
1
 70
1
 10
312.587508
 20
97.775001
 30
0.0
  0
SPLINE
  5
264
100
AcDbEntity
  8
Plate
 62
7
100
AcDbSpline
 70
8
 71
3
 72
8
 73
4
 74
0
 40
0
 40
0
 40
0
 40
0
 40
1
 40
1
 40
1
 40
1
 10
35.075000
 20
78.725001
 30
0.0
 10
35.351146
 20
78.725001
 30
0.0
 10
35.575005
 20
78.948865
 30
0.0
 10
35.574999
 20
79.225010
 30
0.0
  0
LWPOLYLINE
  5
265
100
AcDbEntity
  8
Plate
 62
7
100
AcDbPolyline
 90
2
 70
0
 10
22.075000
 20
78.725001
 30
0.0
 10
35.075000
 20
78.725001
 30
0.0
  0
SPLINE
  5
266
100
AcDbEntity
  8
Plate
 62
7
100
AcDbSpline
 70
8
 71
3
 72
8
 73
4
 74
0
 40
0
 40
0
 40
0
 40
0
 40
1
 40
1
 40
1
 40
1
 10
35.574999
 20
92.224995
 30
0.0
 10
35.575005
 20
92.501140
 30
0.0
 10
35.351146
 20
92.725004
 30
0.0
 10
35.075000
 20
92.725004
 30
0.0
  0
LWPOLYLINE
  5
267
100
AcDbEntity
  8
Plate
 62
7
100
AcDbPolyline
 90
2
 70
0
 10
35.574999
 20
79.225010
 30
0.0
 10
35.574999
 20
92.224995
 30
0.0
  0
SPLINE
  5
268
100
AcDbEntity
  8
Plate
 62
7
100
AcDbSpline
 70
8
 71
3
 72
8
 73
4
 74
0
 40
0
 40
0
 40
0
 40
0
 40
1
 40
1
 40
1
 40
1
 10
22.075000
 20
92.725004
 30
0.0
 10
21.798854
 20
92.725004
 30
0.0
 10
21.574995
 20
92.501140
 30
0.0
 10
21.575000
 20
92.224995
 30
0.0
  0
LWPOLYLINE
  5
269
100
AcDbEntity
  8
Plate
 62
7
100
AcDbPolyline
 90
2
 70
0
 10
35.075000
 20
92.725004
 30
0.0
 10
22.075000
 20
92.725004
 30
0.0
  0
SPLINE
  5
26a
100
AcDbEntity
  8
Plate
 62
7
100
AcDbSpline
 70
8
 71
3
 72
8
 73
4
 74
0
 40
0
 40
0
 40
0
 40
0
 40
1
 40
1
 40
1
 40
1
 10
21.575000
 20
79.225010
 30
0.0
 10
21.574995
 20
78.948865
 30
0.0
 10
21.798854
 20
78.725001
 30
0.0
 10
22.075000
 20
78.725001
 30
0.0
  0
LWPOLYLINE
  5
26b
100
AcDbEntity
  8
Plate
 62
7
100
AcDbPolyline
 90
2
 70
0
 10
21.575000
 20
92.224995
 30
0.0
 10
21.575000
 20
79.225010
 30
0.0
  0
LWPOLYLINE
  5
26c
100
AcDbEntity
  8
Plate
 62
7
100
AcDbPolyline
 90
1
 70
1
 10
22.075000
 20
78.725001
 30
0.0
  0
SPLINE
  5
26d
100
AcDbEntity
  8
Plate
 62
7
100
AcDbSpline
 70
8
 71
3
 72
8
 73
4
 74
0
 40
0
 40
0
 40
0
 40
0
 40
1
 40
1
 40
1
 40
1
 10
58.887500
 20
78.725001
 30
0.0
 10
59.163646
 20
78.725001
 30
0.0
 10
59.387505
 20
78.948865
 30
0.0
 10
59.387499
 20
79.225010
 30
0.0
  0
LWPOLYLINE
  5
26e
100
AcDbEntity
  8
Plate
 62
7
100
AcDbPolyline
 90
2
 70
0
 10
45.887500
 20
78.725001
 30
0.0
 10
58.887500
 20
78.725001
 30
0.0
  0
SPLINE
  5
26f
100
AcDbEntity
  8
Plate
 62
7
100
AcDbSpline
 70
8
 71
3
 72
8
 73
4
 74
0
 40
0
 40
0
 40
0
 40
0
 40
1
 40
1
 40
1
 40
1
 10
59.387499
 20
92.224995
 30
0.0
 10
59.387505
 20
92.501140
 30
0.0
 10
59.163646
 20
92.725004
 30
0.0
 10
58.887500
 20
92.725004
 30
0.0
  0
LWPOLYLINE
  5
270
100
AcDbEntity
  8
Plate
 62
7
100
AcDbPolyline
 90
2
 70
0
 10
59.387499
 20
79.225010
 30
0.0
 10
59.387499
 20
92.224995
 30
0.0
  0
SPLINE
  5
271
100
AcDbEntity
  8
Plate
 62
7
100
AcDbSpline
 70
8
 71
3
 72
8
 73
4
 74
0
 40
0
 40
0
 40
0
 40
0
 40
1
 40
1
 40
1
 40
1
 10
45.887500
 20
92.725004
 30
0.0
 10
45.611354
 20
92.725004
 30
0.0
 10
45.387495
 20
92.501140
 30
0.0
 10
45.387501
 20
92.224995
 30
0.0
  0
LWPOLYLINE
  5
272
100
AcDbEntity
  8
Plate
 62
7
100
AcDbPolyline
 90
2
 70
0
 10
58.887500
 20
92.725004
 30
0.0
 10
45.887500
 20
92.725004
 30
0.0
  0
SPLINE
  5
273
100
AcDbEntity
  8
Plate
 62
7
100
AcDbSpline
 70
8
 71
3
 72
8
 73
4
 74
0
 40
0
 40
0
 40
0
 40
0
 40
1
 40
1
 40
1
 40
1
 10
45.387501
 20
79.225010
 30
0.0
 10
45.387495
 20
78.948865
 30
0.0
 10
45.611354
 20
78.725001
 30
0.0
 10
45.887500
 20
78.725001
 30
0.0
  0
LWPOLYLINE
  5
274
100
AcDbEntity
  8
Plate
 62
7
100
AcDbPolyline
 90
2
 70
0
 10
45.387501
 20
92.224995
 30
0.0
 10
45.387501
 20
79.225010
 30
0.0
  0
LWPOLYLINE
  5
275
100
AcDbEntity
  8
Plate
 62
7
100
AcDbPolyline
 90
1
 70
1
 10
45.887500
 20
78.725001
 30
0.0
  0
SPLINE
  5
276
100
AcDbEntity
  8
Plate
 62
7
100
AcDbSpline
 70
8
 71
3
 72
8
 73
4
 74
0
 40
0
 40
0
 40
0
 40
0
 40
1
 40
1
 40
1
 40
1
 10
77.937500
 20
78.725001
 30
0.0
 10
78.213646
 20
78.725001
 30
0.0
 10
78.437505
 20
78.948865
 30
0.0
 10
78.437499
 20
79.225010
 30
0.0
  0
LWPOLYLINE
  5
277
100
AcDbEntity
  8
Plate
 62
7
100
AcDbPolyline
 90
2
 70
0
 10
64.937500
 20
78.725001
 30
0.0
 10
77.937500
 20
78.725001
 30
0.0
  0
SPLINE
  5
278
100
AcDbEntity
  8
Plate
 62
7
100
AcDbSpline
 70
8
 71
3
 72
8
 73
4
 74
0
 40
0
 40
0
 40
0
 40
0
 40
1
 40
1
 40
1
 40
1
 10
78.437499
 20
92.224995
 30
0.0
 10
78.437505
 20
92.501140
 30
0.0
 10
78.213646
 20
92.725004
 30
0.0
 10
77.937500
 20
92.725004
 30
0.0
  0
LWPOLYLINE
  5
279
100
AcDbEntity
  8
Plate
 62
7
100
AcDbPolyline
 90
2
 70
0
 10
78.437499
 20
79.225010
 30
0.0
 10
78.437499
 20
92.224995
 30
0.0
  0
SPLINE
  5
27a
100
AcDbEntity
  8
Plate
 62
7
100
AcDbSpline
 70
8
 71
3
 72
8
 73
4
 74
0
 40
0
 40
0
 40
0
 40
0
 40
1
 40
1
 40
1
 40
1
 10
64.937500
 20
92.725004
 30
0.0
 10
64.661354
 20
92.725004
 30
0.0
 10
64.437495
 20
92.501140
 30
0.0
 10
64.437501
 20
92.224995
 30
0.0
  0
LWPOLYLINE
  5
27b
100
AcDbEntity
  8
Plate
 62
7
100
AcDbPolyline
 90
2
 70
0
 10
77.937500
 20
92.725004
 30
0.0
 10
64.937500
 20
92.725004
 30
0.0
  0
SPLINE
  5
27c
100
AcDbEntity
  8
Plate
 62
7
100
AcDbSpline
 70
8
 71
3
 72
8
 73
4
 74
0
 40
0
 40
0
 40
0
 40
0
 40
1
 40
1
 40
1
 40
1
 10
64.437501
 20
79.225010
 30
0.0
 10
64.437495
 20
78.948865
 30
0.0
 10
64.661354
 20
78.725001
 30
0.0
 10
64.937500
 20
78.725001
 30
0.0
  0
LWPOLYLINE
  5
27d
100
AcDbEntity
  8
Plate
 62
7
100
AcDbPolyline
 90
2
 70
0
 10
64.437501
 20
92.224995
 30
0.0
 10
64.437501
 20
79.225010
 30
0.0
  0
LWPOLYLINE
  5
27e
100
AcDbEntity
  8
Plate
 62
7
100
AcDbPolyline
 90
1
 70
1
 10
64.937500
 20
78.725001
 30
0.0
  0
SPLINE
  5
27f
100
AcDbEntity
  8
Plate
 62
7
100
AcDbSpline
 70
8
 71
3
 72
8
 73
4
 74
0
 40
0
 40
0
 40
0
 40
0
 40
1
 40
1
 40
1
 40
1
 10
96.987500
 20
78.725001
 30
0.0
 10
97.263646
 20
78.725001
 30
0.0
 10
97.487505
 20
78.948865
 30
0.0
 10
97.487499
 20
79.225010
 30
0.0
  0
LWPOLYLINE
  5
280
100
AcDbEntity
  8
Plate
 62
7
100
AcDbPolyline
 90
2
 70
0
 10
83.987500
 20
78.725001
 30
0.0
 10
96.987500
 20
78.725001
 30
0.0
  0
SPLINE
  5
281
100
AcDbEntity
  8
Plate
 62
7
100
AcDbSpline
 70
8
 71
3
 72
8
 73
4
 74
0
 40
0
 40
0
 40
0
 40
0
 40
1
 40
1
 40
1
 40
1
 10
97.487499
 20
92.224995
 30
0.0
 10
97.487505
 20
92.501140
 30
0.0
 10
97.263646
 20
92.725004
 30
0.0
 10
96.987500
 20
92.725004
 30
0.0
  0
LWPOLYLINE
  5
282
100
AcDbEntity
  8
Plate
 62
7
100
AcDbPolyline
 90
2
 70
0
 10
97.487499
 20
79.225010
 30
0.0
 10
97.487499
 20
92.224995
 30
0.0
  0
SPLINE
  5
283
100
AcDbEntity
  8
Plate
 62
7
100
AcDbSpline
 70
8
 71
3
 72
8
 73
4
 74
0
 40
0
 40
0
 40
0
 40
0
 40
1
 40
1
 40
1
 40
1
 10
83.987500
 20
92.725004
 30
0.0
 10
83.711354
 20
92.725004
 30
0.0
 10
83.487495
 20
92.501140
 30
0.0
 10
83.487501
 20
92.224995
 30
0.0
  0
LWPOLYLINE
  5
284
100
AcDbEntity
  8
Plate
 62
7
100
AcDbPolyline
 90
2
 70
0
 10
96.987500
 20
92.725004
 30
0.0
 10
83.987500
 20
92.725004
 30
0.0
  0
SPLINE
  5
285
100
AcDbEntity
  8
Plate
 62
7
100
AcDbSpline
 70
8
 71
3
 72
8
 73
4
 74
0
 40
0
 40
0
 40
0
 40
0
 40
1
 40
1
 40
1
 40
1
 10
83.487501
 20
79.225010
 30
0.0
 10
83.487495
 20
78.948865
 30
0.0
 10
83.711354
 20
78.725001
 30
0.0
 10
83.987500
 20
78.725001
 30
0.0
  0
LWPOLYLINE
  5
286
100
AcDbEntity
  8
Plate
 62
7
100
AcDbPolyline
 90
2
 70
0
 10
83.487501
 20
92.224995
 30
0.0
 10
83.487501
 20
79.225010
 30
0.0
  0
LWPOLYLINE
  5
287
100
AcDbEntity
  8
Plate
 62
7
100
AcDbPolyline
 90
1
 70
1
 10
83.987500
 20
78.725001
 30
0.0
  0
SPLINE
  5
288
100
AcDbEntity
  8
Plate
 62
7
100
AcDbSpline
 70
8
 71
3
 72
8
 73
4
 74
0
 40
0
 40
0
 40
0
 40
0
 40
1
 40
1
 40
1
 40
1
 10
116.037500
 20
78.725001
 30
0.0
 10
116.313646
 20
78.725001
 30
0.0
 10
116.537505
 20
78.948865
 30
0.0
 10
116.537499
 20
79.225010
 30
0.0
  0
LWPOLYLINE
  5
289
100
AcDbEntity
  8
Plate
 62
7
100
AcDbPolyline
 90
2
 70
0
 10
103.037500
 20
78.725001
 30
0.0
 10
116.037500
 20
78.725001
 30
0.0
  0
SPLINE
  5
28a
100
AcDbEntity
  8
Plate
 62
7
100
AcDbSpline
 70
8
 71
3
 72
8
 73
4
 74
0
 40
0
 40
0
 40
0
 40
0
 40
1
 40
1
 40
1
 40
1
 10
116.537499
 20
92.224995
 30
0.0
 10
116.537505
 20
92.501140
 30
0.0
 10
116.313646
 20
92.725004
 30
0.0
 10
116.037500
 20
92.725004
 30
0.0
  0
LWPOLYLINE
  5
28b
100
AcDbEntity
  8
Plate
 62
7
100
AcDbPolyline
 90
2
 70
0
 10
116.537499
 20
79.225010
 30
0.0
 10
116.537499
 20
92.224995
 30
0.0
  0
SPLINE
  5
28c
100
AcDbEntity
  8
Plate
 62
7
100
AcDbSpline
 70
8
 71
3
 72
8
 73
4
 74
0
 40
0
 40
0
 40
0
 40
0
 40
1
 40
1
 40
1
 40
1
 10
103.037500
 20
92.725004
 30
0.0
 10
102.761354
 20
92.725004
 30
0.0
 10
102.537495
 20
92.501140
 30
0.0
 10
102.537501
 20
92.224995
 30
0.0
  0
LWPOLYLINE
  5
28d
100
AcDbEntity
  8
Plate
 62
7
100
AcDbPolyline
 90
2
 70
0
 10
116.037500
 20
92.725004
 30
0.0
 10
103.037500
 20
92.725004
 30
0.0
  0
SPLINE
  5
28e
100
AcDbEntity
  8
Plate
 62
7
100
AcDbSpline
 70
8
 71
3
 72
8
 73
4
 74
0
 40
0
 40
0
 40
0
 40
0
 40
1
 40
1
 40
1
 40
1
 10
102.537501
 20
79.225010
 30
0.0
 10
102.537495
 20
78.948865
 30
0.0
 10
102.761354
 20
78.725001
 30
0.0
 10
103.037500
 20
78.725001
 30
0.0
  0
LWPOLYLINE
  5
28f
100
AcDbEntity
  8
Plate
 62
7
100
AcDbPolyline
 90
2
 70
0
 10
102.537501
 20
92.224995
 30
0.0
 10
102.537501
 20
79.225010
 30
0.0
  0
LWPOLYLINE
  5
290
100
AcDbEntity
  8
Plate
 62
7
100
AcDbPolyline
 90
1
 70
1
 10
103.037500
 20
78.725001
 30
0.0
  0
SPLINE
  5
291
100
AcDbEntity
  8
Plate
 62
7
100
AcDbSpline
 70
8
 71
3
 72
8
 73
4
 74
0
 40
0
 40
0
 40
0
 40
0
 40
1
 40
1
 40
1
 40
1
 10
135.087500
 20
78.725001
 30
0.0
 10
135.363646
 20
78.725001
 30
0.0
 10
135.587505
 20
78.948865
 30
0.0
 10
135.587499
 20
79.225010
 30
0.0
  0
LWPOLYLINE
  5
292
100
AcDbEntity
  8
Plate
 62
7
100
AcDbPolyline
 90
2
 70
0
 10
122.087500
 20
78.725001
 30
0.0
 10
135.087500
 20
78.725001
 30
0.0
  0
SPLINE
  5
293
100
AcDbEntity
  8
Plate
 62
7
100
AcDbSpline
 70
8
 71
3
 72
8
 73
4
 74
0
 40
0
 40
0
 40
0
 40
0
 40
1
 40
1
 40
1
 40
1
 10
135.587499
 20
92.224995
 30
0.0
 10
135.587505
 20
92.501140
 30
0.0
 10
135.363646
 20
92.725004
 30
0.0
 10
135.087500
 20
92.725004
 30
0.0
  0
LWPOLYLINE
  5
294
100
AcDbEntity
  8
Plate
 62
7
100
AcDbPolyline
 90
2
 70
0
 10
135.587499
 20
79.225010
 30
0.0
 10
135.587499
 20
92.224995
 30
0.0
  0
SPLINE
  5
295
100
AcDbEntity
  8
Plate
 62
7
100
AcDbSpline
 70
8
 71
3
 72
8
 73
4
 74
0
 40
0
 40
0
 40
0
 40
0
 40
1
 40
1
 40
1
 40
1
 10
122.087500
 20
92.725004
 30
0.0
 10
121.811354
 20
92.725004
 30
0.0
 10
121.587495
 20
92.501140
 30
0.0
 10
121.587501
 20
92.224995
 30
0.0
  0
LWPOLYLINE
  5
296
100
AcDbEntity
  8
Plate
 62
7
100
AcDbPolyline
 90
2
 70
0
 10
135.087500
 20
92.725004
 30
0.0
 10
122.087500
 20
92.725004
 30
0.0
  0
SPLINE
  5
297
100
AcDbEntity
  8
Plate
 62
7
100
AcDbSpline
 70
8
 71
3
 72
8
 73
4
 74
0
 40
0
 40
0
 40
0
 40
0
 40
1
 40
1
 40
1
 40
1
 10
121.587501
 20
79.225010
 30
0.0
 10
121.587495
 20
78.948865
 30
0.0
 10
121.811354
 20
78.725001
 30
0.0
 10
122.087500
 20
78.725001
 30
0.0
  0
LWPOLYLINE
  5
298
100
AcDbEntity
  8
Plate
 62
7
100
AcDbPolyline
 90
2
 70
0
 10
121.587501
 20
92.224995
 30
0.0
 10
121.587501
 20
79.225010
 30
0.0
  0
LWPOLYLINE
  5
299
100
AcDbEntity
  8
Plate
 62
7
100
AcDbPolyline
 90
1
 70
1
 10
122.087500
 20
78.725001
 30
0.0
  0
SPLINE
  5
29a
100
AcDbEntity
  8
Plate
 62
7
100
AcDbSpline
 70
8
 71
3
 72
8
 73
4
 74
0
 40
0
 40
0
 40
0
 40
0
 40
1
 40
1
 40
1
 40
1
 10
154.137500
 20
78.725001
 30
0.0
 10
154.413646
 20
78.725001
 30
0.0
 10
154.637505
 20
78.948865
 30
0.0
 10
154.637499
 20
79.225010
 30
0.0
  0
LWPOLYLINE
  5
29b
100
AcDbEntity
  8
Plate
 62
7
100
AcDbPolyline
 90
2
 70
0
 10
141.137500
 20
78.725001
 30
0.0
 10
154.137500
 20
78.725001
 30
0.0
  0
SPLINE
  5
29c
100
AcDbEntity
  8
Plate
 62
7
100
AcDbSpline
 70
8
 71
3
 72
8
 73
4
 74
0
 40
0
 40
0
 40
0
 40
0
 40
1
 40
1
 40
1
 40
1
 10
154.637499
 20
92.224995
 30
0.0
 10
154.637505
 20
92.501140
 30
0.0
 10
154.413646
 20
92.725004
 30
0.0
 10
154.137500
 20
92.725004
 30
0.0
  0
LWPOLYLINE
  5
29d
100
AcDbEntity
  8
Plate
 62
7
100
AcDbPolyline
 90
2
 70
0
 10
154.637499
 20
79.225010
 30
0.0
 10
154.637499
 20
92.224995
 30
0.0
  0
SPLINE
  5
29e
100
AcDbEntity
  8
Plate
 62
7
100
AcDbSpline
 70
8
 71
3
 72
8
 73
4
 74
0
 40
0
 40
0
 40
0
 40
0
 40
1
 40
1
 40
1
 40
1
 10
141.137500
 20
92.725004
 30
0.0
 10
140.861354
 20
92.725004
 30
0.0
 10
140.637495
 20
92.501140
 30
0.0
 10
140.637501
 20
92.224995
 30
0.0
  0
LWPOLYLINE
  5
29f
100
AcDbEntity
  8
Plate
 62
7
100
AcDbPolyline
 90
2
 70
0
 10
154.137500
 20
92.725004
 30
0.0
 10
141.137500
 20
92.725004
 30
0.0
  0
SPLINE
  5
2a0
100
AcDbEntity
  8
Plate
 62
7
100
AcDbSpline
 70
8
 71
3
 72
8
 73
4
 74
0
 40
0
 40
0
 40
0
 40
0
 40
1
 40
1
 40
1
 40
1
 10
140.637501
 20
79.225010
 30
0.0
 10
140.637495
 20
78.948865
 30
0.0
 10
140.861354
 20
78.725001
 30
0.0
 10
141.137500
 20
78.725001
 30
0.0
  0
LWPOLYLINE
  5
2a1
100
AcDbEntity
  8
Plate
 62
7
100
AcDbPolyline
 90
2
 70
0
 10
140.637501
 20
92.224995
 30
0.0
 10
140.637501
 20
79.225010
 30
0.0
  0
LWPOLYLINE
  5
2a2
100
AcDbEntity
  8
Plate
 62
7
100
AcDbPolyline
 90
1
 70
1
 10
141.137500
 20
78.725001
 30
0.0
  0
SPLINE
  5
2a3
100
AcDbEntity
  8
Plate
 62
7
100
AcDbSpline
 70
8
 71
3
 72
8
 73
4
 74
0
 40
0
 40
0
 40
0
 40
0
 40
1
 40
1
 40
1
 40
1
 10
173.187500
 20
78.725001
 30
0.0
 10
173.463646
 20
78.725001
 30
0.0
 10
173.687505
 20
78.948865
 30
0.0
 10
173.687499
 20
79.225010
 30
0.0
  0
LWPOLYLINE
  5
2a4
100
AcDbEntity
  8
Plate
 62
7
100
AcDbPolyline
 90
2
 70
0
 10
160.187500
 20
78.725001
 30
0.0
 10
173.187500
 20
78.725001
 30
0.0
  0
SPLINE
  5
2a5
100
AcDbEntity
  8
Plate
 62
7
100
AcDbSpline
 70
8
 71
3
 72
8
 73
4
 74
0
 40
0
 40
0
 40
0
 40
0
 40
1
 40
1
 40
1
 40
1
 10
173.687499
 20
92.224995
 30
0.0
 10
173.687505
 20
92.501140
 30
0.0
 10
173.463646
 20
92.725004
 30
0.0
 10
173.187500
 20
92.725004
 30
0.0
  0
LWPOLYLINE
  5
2a6
100
AcDbEntity
  8
Plate
 62
7
100
AcDbPolyline
 90
2
 70
0
 10
173.687499
 20
79.225010
 30
0.0
 10
173.687499
 20
92.224995
 30
0.0
  0
SPLINE
  5
2a7
100
AcDbEntity
  8
Plate
 62
7
100
AcDbSpline
 70
8
 71
3
 72
8
 73
4
 74
0
 40
0
 40
0
 40
0
 40
0
 40
1
 40
1
 40
1
 40
1
 10
160.187500
 20
92.725004
 30
0.0
 10
159.911354
 20
92.725004
 30
0.0
 10
159.687495
 20
92.501140
 30
0.0
 10
159.687501
 20
92.224995
 30
0.0
  0
LWPOLYLINE
  5
2a8
100
AcDbEntity
  8
Plate
 62
7
100
AcDbPolyline
 90
2
 70
0
 10
173.187500
 20
92.725004
 30
0.0
 10
160.187500
 20
92.725004
 30
0.0
  0
SPLINE
  5
2a9
100
AcDbEntity
  8
Plate
 62
7
100
AcDbSpline
 70
8
 71
3
 72
8
 73
4
 74
0
 40
0
 40
0
 40
0
 40
0
 40
1
 40
1
 40
1
 40
1
 10
159.687501
 20
79.225010
 30
0.0
 10
159.687495
 20
78.948865
 30
0.0
 10
159.911354
 20
78.725001
 30
0.0
 10
160.187500
 20
78.725001
 30
0.0
  0
LWPOLYLINE
  5
2aa
100
AcDbEntity
  8
Plate
 62
7
100
AcDbPolyline
 90
2
 70
0
 10
159.687501
 20
92.224995
 30
0.0
 10
159.687501
 20
79.225010
 30
0.0
  0
LWPOLYLINE
  5
2ab
100
AcDbEntity
  8
Plate
 62
7
100
AcDbPolyline
 90
1
 70
1
 10
160.187500
 20
78.725001
 30
0.0
  0
SPLINE
  5
2ac
100
AcDbEntity
  8
Plate
 62
7
100
AcDbSpline
 70
8
 71
3
 72
8
 73
4
 74
0
 40
0
 40
0
 40
0
 40
0
 40
1
 40
1
 40
1
 40
1
 10
192.237500
 20
78.725001
 30
0.0
 10
192.513646
 20
78.725001
 30
0.0
 10
192.737505
 20
78.948865
 30
0.0
 10
192.737499
 20
79.225010
 30
0.0
  0
LWPOLYLINE
  5
2ad
100
AcDbEntity
  8
Plate
 62
7
100
AcDbPolyline
 90
2
 70
0
 10
179.237500
 20
78.725001
 30
0.0
 10
192.237500
 20
78.725001
 30
0.0
  0
SPLINE
  5
2ae
100
AcDbEntity
  8
Plate
 62
7
100
AcDbSpline
 70
8
 71
3
 72
8
 73
4
 74
0
 40
0
 40
0
 40
0
 40
0
 40
1
 40
1
 40
1
 40
1
 10
192.737499
 20
92.224995
 30
0.0
 10
192.737505
 20
92.501140
 30
0.0
 10
192.513646
 20
92.725004
 30
0.0
 10
192.237500
 20
92.725004
 30
0.0
  0
LWPOLYLINE
  5
2af
100
AcDbEntity
  8
Plate
 62
7
100
AcDbPolyline
 90
2
 70
0
 10
192.737499
 20
79.225010
 30
0.0
 10
192.737499
 20
92.224995
 30
0.0
  0
SPLINE
  5
2b0
100
AcDbEntity
  8
Plate
 62
7
100
AcDbSpline
 70
8
 71
3
 72
8
 73
4
 74
0
 40
0
 40
0
 40
0
 40
0
 40
1
 40
1
 40
1
 40
1
 10
179.237500
 20
92.725004
 30
0.0
 10
178.961354
 20
92.725004
 30
0.0
 10
178.737495
 20
92.501140
 30
0.0
 10
178.737501
 20
92.224995
 30
0.0
  0
LWPOLYLINE
  5
2b1
100
AcDbEntity
  8
Plate
 62
7
100
AcDbPolyline
 90
2
 70
0
 10
192.237500
 20
92.725004
 30
0.0
 10
179.237500
 20
92.725004
 30
0.0
  0
SPLINE
  5
2b2
100
AcDbEntity
  8
Plate
 62
7
100
AcDbSpline
 70
8
 71
3
 72
8
 73
4
 74
0
 40
0
 40
0
 40
0
 40
0
 40
1
 40
1
 40
1
 40
1
 10
178.737501
 20
79.225010
 30
0.0
 10
178.737495
 20
78.948865
 30
0.0
 10
178.961354
 20
78.725001
 30
0.0
 10
179.237500
 20
78.725001
 30
0.0
  0
LWPOLYLINE
  5
2b3
100
AcDbEntity
  8
Plate
 62
7
100
AcDbPolyline
 90
2
 70
0
 10
178.737501
 20
92.224995
 30
0.0
 10
178.737501
 20
79.225010
 30
0.0
  0
LWPOLYLINE
  5
2b4
100
AcDbEntity
  8
Plate
 62
7
100
AcDbPolyline
 90
1
 70
1
 10
179.237500
 20
78.725001
 30
0.0
  0
SPLINE
  5
2b5
100
AcDbEntity
  8
Plate
 62
7
100
AcDbSpline
 70
8
 71
3
 72
8
 73
4
 74
0
 40
0
 40
0
 40
0
 40
0
 40
1
 40
1
 40
1
 40
1
 10
211.287500
 20
78.725001
 30
0.0
 10
211.563646
 20
78.725001
 30
0.0
 10
211.787505
 20
78.948865
 30
0.0
 10
211.787499
 20
79.225010
 30
0.0
  0
LWPOLYLINE
  5
2b6
100
AcDbEntity
  8
Plate
 62
7
100
AcDbPolyline
 90
2
 70
0
 10
198.287500
 20
78.725001
 30
0.0
 10
211.287500
 20
78.725001
 30
0.0
  0
SPLINE
  5
2b7
100
AcDbEntity
  8
Plate
 62
7
100
AcDbSpline
 70
8
 71
3
 72
8
 73
4
 74
0
 40
0
 40
0
 40
0
 40
0
 40
1
 40
1
 40
1
 40
1
 10
211.787499
 20
92.224995
 30
0.0
 10
211.787505
 20
92.501140
 30
0.0
 10
211.563646
 20
92.725004
 30
0.0
 10
211.287500
 20
92.725004
 30
0.0
  0
LWPOLYLINE
  5
2b8
100
AcDbEntity
  8
Plate
 62
7
100
AcDbPolyline
 90
2
 70
0
 10
211.787499
 20
79.225010
 30
0.0
 10
211.787499
 20
92.224995
 30
0.0
  0
SPLINE
  5
2b9
100
AcDbEntity
  8
Plate
 62
7
100
AcDbSpline
 70
8
 71
3
 72
8
 73
4
 74
0
 40
0
 40
0
 40
0
 40
0
 40
1
 40
1
 40
1
 40
1
 10
198.287500
 20
92.725004
 30
0.0
 10
198.011354
 20
92.725004
 30
0.0
 10
197.787495
 20
92.501140
 30
0.0
 10
197.787501
 20
92.224995
 30
0.0
  0
LWPOLYLINE
  5
2ba
100
AcDbEntity
  8
Plate
 62
7
100
AcDbPolyline
 90
2
 70
0
 10
211.287500
 20
92.725004
 30
0.0
 10
198.287500
 20
92.725004
 30
0.0
  0
SPLINE
  5
2bb
100
AcDbEntity
  8
Plate
 62
7
100
AcDbSpline
 70
8
 71
3
 72
8
 73
4
 74
0
 40
0
 40
0
 40
0
 40
0
 40
1
 40
1
 40
1
 40
1
 10
197.787501
 20
79.225010
 30
0.0
 10
197.787495
 20
78.948865
 30
0.0
 10
198.011354
 20
78.725001
 30
0.0
 10
198.287500
 20
78.725001
 30
0.0
  0
LWPOLYLINE
  5
2bc
100
AcDbEntity
  8
Plate
 62
7
100
AcDbPolyline
 90
2
 70
0
 10
197.787501
 20
92.224995
 30
0.0
 10
197.787501
 20
79.225010
 30
0.0
  0
LWPOLYLINE
  5
2bd
100
AcDbEntity
  8
Plate
 62
7
100
AcDbPolyline
 90
1
 70
1
 10
198.287500
 20
78.725001
 30
0.0
  0
SPLINE
  5
2be
100
AcDbEntity
  8
Plate
 62
7
100
AcDbSpline
 70
8
 71
3
 72
8
 73
4
 74
0
 40
0
 40
0
 40
0
 40
0
 40
1
 40
1
 40
1
 40
1
 10
230.337500
 20
78.725001
 30
0.0
 10
230.613646
 20
78.725001
 30
0.0
 10
230.837505
 20
78.948865
 30
0.0
 10
230.837499
 20
79.225010
 30
0.0
  0
LWPOLYLINE
  5
2bf
100
AcDbEntity
  8
Plate
 62
7
100
AcDbPolyline
 90
2
 70
0
 10
217.337500
 20
78.725001
 30
0.0
 10
230.337500
 20
78.725001
 30
0.0
  0
SPLINE
  5
2c0
100
AcDbEntity
  8
Plate
 62
7
100
AcDbSpline
 70
8
 71
3
 72
8
 73
4
 74
0
 40
0
 40
0
 40
0
 40
0
 40
1
 40
1
 40
1
 40
1
 10
230.837499
 20
92.224995
 30
0.0
 10
230.837505
 20
92.501140
 30
0.0
 10
230.613646
 20
92.725004
 30
0.0
 10
230.337500
 20
92.725004
 30
0.0
  0
LWPOLYLINE
  5
2c1
100
AcDbEntity
  8
Plate
 62
7
100
AcDbPolyline
 90
2
 70
0
 10
230.837499
 20
79.225010
 30
0.0
 10
230.837499
 20
92.224995
 30
0.0
  0
SPLINE
  5
2c2
100
AcDbEntity
  8
Plate
 62
7
100
AcDbSpline
 70
8
 71
3
 72
8
 73
4
 74
0
 40
0
 40
0
 40
0
 40
0
 40
1
 40
1
 40
1
 40
1
 10
217.337500
 20
92.725004
 30
0.0
 10
217.061354
 20
92.725004
 30
0.0
 10
216.837495
 20
92.501140
 30
0.0
 10
216.837501
 20
92.224995
 30
0.0
  0
LWPOLYLINE
  5
2c3
100
AcDbEntity
  8
Plate
 62
7
100
AcDbPolyline
 90
2
 70
0
 10
230.337500
 20
92.725004
 30
0.0
 10
217.337500
 20
92.725004
 30
0.0
  0
SPLINE
  5
2c4
100
AcDbEntity
  8
Plate
 62
7
100
AcDbSpline
 70
8
 71
3
 72
8
 73
4
 74
0
 40
0
 40
0
 40
0
 40
0
 40
1
 40
1
 40
1
 40
1
 10
216.837501
 20
79.225010
 30
0.0
 10
216.837495
 20
78.948865
 30
0.0
 10
217.061354
 20
78.725001
 30
0.0
 10
217.337500
 20
78.725001
 30
0.0
  0
LWPOLYLINE
  5
2c5
100
AcDbEntity
  8
Plate
 62
7
100
AcDbPolyline
 90
2
 70
0
 10
216.837501
 20
92.224995
 30
0.0
 10
216.837501
 20
79.225010
 30
0.0
  0
LWPOLYLINE
  5
2c6
100
AcDbEntity
  8
Plate
 62
7
100
AcDbPolyline
 90
1
 70
1
 10
217.337500
 20
78.725001
 30
0.0
  0
SPLINE
  5
2c7
100
AcDbEntity
  8
Plate
 62
7
100
AcDbSpline
 70
8
 71
3
 72
8
 73
4
 74
0
 40
0
 40
0
 40
0
 40
0
 40
1
 40
1
 40
1
 40
1
 10
249.387500
 20
78.725001
 30
0.0
 10
249.663646
 20
78.725001
 30
0.0
 10
249.887505
 20
78.948865
 30
0.0
 10
249.887499
 20
79.225010
 30
0.0
  0
LWPOLYLINE
  5
2c8
100
AcDbEntity
  8
Plate
 62
7
100
AcDbPolyline
 90
2
 70
0
 10
236.387500
 20
78.725001
 30
0.0
 10
249.387500
 20
78.725001
 30
0.0
  0
SPLINE
  5
2c9
100
AcDbEntity
  8
Plate
 62
7
100
AcDbSpline
 70
8
 71
3
 72
8
 73
4
 74
0
 40
0
 40
0
 40
0
 40
0
 40
1
 40
1
 40
1
 40
1
 10
249.887499
 20
92.224995
 30
0.0
 10
249.887505
 20
92.501140
 30
0.0
 10
249.663646
 20
92.725004
 30
0.0
 10
249.387500
 20
92.725004
 30
0.0
  0
LWPOLYLINE
  5
2ca
100
AcDbEntity
  8
Plate
 62
7
100
AcDbPolyline
 90
2
 70
0
 10
249.887499
 20
79.225010
 30
0.0
 10
249.887499
 20
92.224995
 30
0.0
  0
SPLINE
  5
2cb
100
AcDbEntity
  8
Plate
 62
7
100
AcDbSpline
 70
8
 71
3
 72
8
 73
4
 74
0
 40
0
 40
0
 40
0
 40
0
 40
1
 40
1
 40
1
 40
1
 10
236.387500
 20
92.725004
 30
0.0
 10
236.111354
 20
92.725004
 30
0.0
 10
235.887495
 20
92.501140
 30
0.0
 10
235.887501
 20
92.224995
 30
0.0
  0
LWPOLYLINE
  5
2cc
100
AcDbEntity
  8
Plate
 62
7
100
AcDbPolyline
 90
2
 70
0
 10
249.387500
 20
92.725004
 30
0.0
 10
236.387500
 20
92.725004
 30
0.0
  0
SPLINE
  5
2cd
100
AcDbEntity
  8
Plate
 62
7
100
AcDbSpline
 70
8
 71
3
 72
8
 73
4
 74
0
 40
0
 40
0
 40
0
 40
0
 40
1
 40
1
 40
1
 40
1
 10
235.887501
 20
79.225010
 30
0.0
 10
235.887495
 20
78.948865
 30
0.0
 10
236.111354
 20
78.725001
 30
0.0
 10
236.387500
 20
78.725001
 30
0.0
  0
LWPOLYLINE
  5
2ce
100
AcDbEntity
  8
Plate
 62
7
100
AcDbPolyline
 90
2
 70
0
 10
235.887501
 20
92.224995
 30
0.0
 10
235.887501
 20
79.225010
 30
0.0
  0
LWPOLYLINE
  5
2cf
100
AcDbEntity
  8
Plate
 62
7
100
AcDbPolyline
 90
1
 70
1
 10
236.387500
 20
78.725001
 30
0.0
  0
SPLINE
  5
2d0
100
AcDbEntity
  8
Plate
 62
7
100
AcDbSpline
 70
8
 71
3
 72
8
 73
4
 74
0
 40
0
 40
0
 40
0
 40
0
 40
1
 40
1
 40
1
 40
1
 10
268.437492
 20
78.725001
 30
0.0
 10
268.713638
 20
78.725001
 30
0.0
 10
268.937502
 20
78.948865
 30
0.0
 10
268.937502
 20
79.225010
 30
0.0
  0
LWPOLYLINE
  5
2d1
100
AcDbEntity
  8
Plate
 62
7
100
AcDbPolyline
 90
2
 70
0
 10
255.437500
 20
78.725001
 30
0.0
 10
268.437492
 20
78.725001
 30
0.0
  0
SPLINE
  5
2d2
100
AcDbEntity
  8
Plate
 62
7
100
AcDbSpline
 70
8
 71
3
 72
8
 73
4
 74
0
 40
0
 40
0
 40
0
 40
0
 40
1
 40
1
 40
1
 40
1
 10
268.937502
 20
92.224995
 30
0.0
 10
268.937502
 20
92.501140
 30
0.0
 10
268.713638
 20
92.725004
 30
0.0
 10
268.437492
 20
92.725004
 30
0.0
  0
LWPOLYLINE
  5
2d3
100
AcDbEntity
  8
Plate
 62
7
100
AcDbPolyline
 90
2
 70
0
 10
268.937502
 20
79.225010
 30
0.0
 10
268.937502
 20
92.224995
 30
0.0
  0
SPLINE
  5
2d4
100
AcDbEntity
  8
Plate
 62
7
100
AcDbSpline
 70
8
 71
3
 72
8
 73
4
 74
0
 40
0
 40
0
 40
0
 40
0
 40
1
 40
1
 40
1
 40
1
 10
255.437500
 20
92.725004
 30
0.0
 10
255.161354
 20
92.725004
 30
0.0
 10
254.937495
 20
92.501140
 30
0.0
 10
254.937501
 20
92.224995
 30
0.0
  0
LWPOLYLINE
  5
2d5
100
AcDbEntity
  8
Plate
 62
7
100
AcDbPolyline
 90
2
 70
0
 10
268.437492
 20
92.725004
 30
0.0
 10
255.437500
 20
92.725004
 30
0.0
  0
SPLINE
  5
2d6
100
AcDbEntity
  8
Plate
 62
7
100
AcDbSpline
 70
8
 71
3
 72
8
 73
4
 74
0
 40
0
 40
0
 40
0
 40
0
 40
1
 40
1
 40
1
 40
1
 10
254.937501
 20
79.225010
 30
0.0
 10
254.937495
 20
78.948865
 30
0.0
 10
255.161354
 20
78.725001
 30
0.0
 10
255.437500
 20
78.725001
 30
0.0
  0
LWPOLYLINE
  5
2d7
100
AcDbEntity
  8
Plate
 62
7
100
AcDbPolyline
 90
2
 70
0
 10
254.937501
 20
92.224995
 30
0.0
 10
254.937501
 20
79.225010
 30
0.0
  0
LWPOLYLINE
  5
2d8
100
AcDbEntity
  8
Plate
 62
7
100
AcDbPolyline
 90
1
 70
1
 10
255.437500
 20
78.725001
 30
0.0
  0
SPLINE
  5
2d9
100
AcDbEntity
  8
Plate
 62
7
100
AcDbSpline
 70
8
 71
3
 72
8
 73
4
 74
0
 40
0
 40
0
 40
0
 40
0
 40
1
 40
1
 40
1
 40
1
 10
325.587492
 20
78.725001
 30
0.0
 10
325.863638
 20
78.725001
 30
0.0
 10
326.087502
 20
78.948865
 30
0.0
 10
326.087502
 20
79.225010
 30
0.0
  0
LWPOLYLINE
  5
2da
100
AcDbEntity
  8
Plate
 62
7
100
AcDbPolyline
 90
2
 70
0
 10
312.587508
 20
78.725001
 30
0.0
 10
325.587492
 20
78.725001
 30
0.0
  0
SPLINE
  5
2db
100
AcDbEntity
  8
Plate
 62
7
100
AcDbSpline
 70
8
 71
3
 72
8
 73
4
 74
0
 40
0
 40
0
 40
0
 40
0
 40
1
 40
1
 40
1
 40
1
 10
326.087502
 20
92.224995
 30
0.0
 10
326.087502
 20
92.501140
 30
0.0
 10
325.863638
 20
92.725004
 30
0.0
 10
325.587492
 20
92.725004
 30
0.0
  0
LWPOLYLINE
  5
2dc
100
AcDbEntity
  8
Plate
 62
7
100
AcDbPolyline
 90
2
 70
0
 10
326.087502
 20
79.225010
 30
0.0
 10
326.087502
 20
92.224995
 30
0.0
  0
SPLINE
  5
2dd
100
AcDbEntity
  8
Plate
 62
7
100
AcDbSpline
 70
8
 71
3
 72
8
 73
4
 74
0
 40
0
 40
0
 40
0
 40
0
 40
1
 40
1
 40
1
 40
1
 10
312.587508
 20
92.725004
 30
0.0
 10
312.311362
 20
92.725004
 30
0.0
 10
312.087498
 20
92.501140
 30
0.0
 10
312.087498
 20
92.224995
 30
0.0
  0
LWPOLYLINE
  5
2de
100
AcDbEntity
  8
Plate
 62
7
100
AcDbPolyline
 90
2
 70
0
 10
325.587492
 20
92.725004
 30
0.0
 10
312.587508
 20
92.725004
 30
0.0
  0
SPLINE
  5
2df
100
AcDbEntity
  8
Plate
 62
7
100
AcDbSpline
 70
8
 71
3
 72
8
 73
4
 74
0
 40
0
 40
0
 40
0
 40
0
 40
1
 40
1
 40
1
 40
1
 10
312.087498
 20
79.225010
 30
0.0
 10
312.087498
 20
78.948865
 30
0.0
 10
312.311362
 20
78.725001
 30
0.0
 10
312.587508
 20
78.725001
 30
0.0
  0
LWPOLYLINE
  5
2e0
100
AcDbEntity
  8
Plate
 62
7
100
AcDbPolyline
 90
2
 70
0
 10
312.087498
 20
92.224995
 30
0.0
 10
312.087498
 20
79.225010
 30
0.0
  0
LWPOLYLINE
  5
2e1
100
AcDbEntity
  8
Plate
 62
7
100
AcDbPolyline
 90
1
 70
1
 10
312.587508
 20
78.725001
 30
0.0
  0
SPLINE
  5
2e2
100
AcDbEntity
  8
Plate
 62
7
100
AcDbSpline
 70
8
 71
3
 72
8
 73
4
 74
0
 40
0
 40
0
 40
0
 40
0
 40
1
 40
1
 40
1
 40
1
 10
63.650000
 20
59.675001
 30
0.0
 10
63.926146
 20
59.675001
 30
0.0
 10
64.150005
 20
59.898865
 30
0.0
 10
64.149999
 20
60.175010
 30
0.0
  0
LWPOLYLINE
  5
2e3
100
AcDbEntity
  8
Plate
 62
7
100
AcDbPolyline
 90
2
 70
0
 10
50.650000
 20
59.675001
 30
0.0
 10
63.650000
 20
59.675001
 30
0.0
  0
SPLINE
  5
2e4
100
AcDbEntity
  8
Plate
 62
7
100
AcDbSpline
 70
8
 71
3
 72
8
 73
4
 74
0
 40
0
 40
0
 40
0
 40
0
 40
1
 40
1
 40
1
 40
1
 10
64.149999
 20
73.174995
 30
0.0
 10
64.150005
 20
73.451140
 30
0.0
 10
63.926146
 20
73.675004
 30
0.0
 10
63.650000
 20
73.675004
 30
0.0
  0
LWPOLYLINE
  5
2e5
100
AcDbEntity
  8
Plate
 62
7
100
AcDbPolyline
 90
2
 70
0
 10
64.149999
 20
60.175010
 30
0.0
 10
64.149999
 20
73.174995
 30
0.0
  0
SPLINE
  5
2e6
100
AcDbEntity
  8
Plate
 62
7
100
AcDbSpline
 70
8
 71
3
 72
8
 73
4
 74
0
 40
0
 40
0
 40
0
 40
0
 40
1
 40
1
 40
1
 40
1
 10
50.650000
 20
73.675004
 30
0.0
 10
50.373854
 20
73.675004
 30
0.0
 10
50.149995
 20
73.451140
 30
0.0
 10
50.150001
 20
73.174995
 30
0.0
  0
LWPOLYLINE
  5
2e7
100
AcDbEntity
  8
Plate
 62
7
100
AcDbPolyline
 90
2
 70
0
 10
63.650000
 20
73.675004
 30
0.0
 10
50.650000
 20
73.675004
 30
0.0
  0
SPLINE
  5
2e8
100
AcDbEntity
  8
Plate
 62
7
100
AcDbSpline
 70
8
 71
3
 72
8
 73
4
 74
0
 40
0
 40
0
 40
0
 40
0
 40
1
 40
1
 40
1
 40
1
 10
50.150001
 20
60.175010
 30
0.0
 10
50.149995
 20
59.898865
 30
0.0
 10
50.373854
 20
59.675001
 30
0.0
 10
50.650000
 20
59.675001
 30
0.0
  0
LWPOLYLINE
  5
2e9
100
AcDbEntity
  8
Plate
 62
7
100
AcDbPolyline
 90
2
 70
0
 10
50.150001
 20
73.174995
 30
0.0
 10
50.150001
 20
60.175010
 30
0.0
  0
LWPOLYLINE
  5
2ea
100
AcDbEntity
  8
Plate
 62
7
100
AcDbPolyline
 90
1
 70
1
 10
50.650000
 20
59.675001
 30
0.0
  0
SPLINE
  5
2eb
100
AcDbEntity
  8
Plate
 62
7
100
AcDbSpline
 70
8
 71
3
 72
8
 73
4
 74
0
 40
0
 40
0
 40
0
 40
0
 40
1
 40
1
 40
1
 40
1
 10
82.700000
 20
59.675001
 30
0.0
 10
82.976146
 20
59.675001
 30
0.0
 10
83.200005
 20
59.898865
 30
0.0
 10
83.199999
 20
60.175010
 30
0.0
  0
LWPOLYLINE
  5
2ec
100
AcDbEntity
  8
Plate
 62
7
100
AcDbPolyline
 90
2
 70
0
 10
69.700000
 20
59.675001
 30
0.0
 10
82.700000
 20
59.675001
 30
0.0
  0
SPLINE
  5
2ed
100
AcDbEntity
  8
Plate
 62
7
100
AcDbSpline
 70
8
 71
3
 72
8
 73
4
 74
0
 40
0
 40
0
 40
0
 40
0
 40
1
 40
1
 40
1
 40
1
 10
83.199999
 20
73.174995
 30
0.0
 10
83.200005
 20
73.451140
 30
0.0
 10
82.976146
 20
73.675004
 30
0.0
 10
82.700000
 20
73.675004
 30
0.0
  0
LWPOLYLINE
  5
2ee
100
AcDbEntity
  8
Plate
 62
7
100
AcDbPolyline
 90
2
 70
0
 10
83.199999
 20
60.175010
 30
0.0
 10
83.199999
 20
73.174995
 30
0.0
  0
SPLINE
  5
2ef
100
AcDbEntity
  8
Plate
 62
7
100
AcDbSpline
 70
8
 71
3
 72
8
 73
4
 74
0
 40
0
 40
0
 40
0
 40
0
 40
1
 40
1
 40
1
 40
1
 10
69.700000
 20
73.675004
 30
0.0
 10
69.423854
 20
73.675004
 30
0.0
 10
69.199995
 20
73.451140
 30
0.0
 10
69.200001
 20
73.174995
 30
0.0
  0
LWPOLYLINE
  5
2f0
100
AcDbEntity
  8
Plate
 62
7
100
AcDbPolyline
 90
2
 70
0
 10
82.700000
 20
73.675004
 30
0.0
 10
69.700000
 20
73.675004
 30
0.0
  0
SPLINE
  5
2f1
100
AcDbEntity
  8
Plate
 62
7
100
AcDbSpline
 70
8
 71
3
 72
8
 73
4
 74
0
 40
0
 40
0
 40
0
 40
0
 40
1
 40
1
 40
1
 40
1
 10
69.200001
 20
60.175010
 30
0.0
 10
69.199995
 20
59.898865
 30
0.0
 10
69.423854
 20
59.675001
 30
0.0
 10
69.700000
 20
59.675001
 30
0.0
  0
LWPOLYLINE
  5
2f2
100
AcDbEntity
  8
Plate
 62
7
100
AcDbPolyline
 90
2
 70
0
 10
69.200001
 20
73.174995
 30
0.0
 10
69.200001
 20
60.175010
 30
0.0
  0
LWPOLYLINE
  5
2f3
100
AcDbEntity
  8
Plate
 62
7
100
AcDbPolyline
 90
1
 70
1
 10
69.700000
 20
59.675001
 30
0.0
  0
SPLINE
  5
2f4
100
AcDbEntity
  8
Plate
 62
7
100
AcDbSpline
 70
8
 71
3
 72
8
 73
4
 74
0
 40
0
 40
0
 40
0
 40
0
 40
1
 40
1
 40
1
 40
1
 10
101.750000
 20
59.675001
 30
0.0
 10
102.026146
 20
59.675001
 30
0.0
 10
102.250005
 20
59.898865
 30
0.0
 10
102.249999
 20
60.175010
 30
0.0
  0
LWPOLYLINE
  5
2f5
100
AcDbEntity
  8
Plate
 62
7
100
AcDbPolyline
 90
2
 70
0
 10
88.750000
 20
59.675001
 30
0.0
 10
101.750000
 20
59.675001
 30
0.0
  0
SPLINE
  5
2f6
100
AcDbEntity
  8
Plate
 62
7
100
AcDbSpline
 70
8
 71
3
 72
8
 73
4
 74
0
 40
0
 40
0
 40
0
 40
0
 40
1
 40
1
 40
1
 40
1
 10
102.249999
 20
73.174995
 30
0.0
 10
102.250005
 20
73.451140
 30
0.0
 10
102.026146
 20
73.675004
 30
0.0
 10
101.750000
 20
73.675004
 30
0.0
  0
LWPOLYLINE
  5
2f7
100
AcDbEntity
  8
Plate
 62
7
100
AcDbPolyline
 90
2
 70
0
 10
102.249999
 20
60.175010
 30
0.0
 10
102.249999
 20
73.174995
 30
0.0
  0
SPLINE
  5
2f8
100
AcDbEntity
  8
Plate
 62
7
100
AcDbSpline
 70
8
 71
3
 72
8
 73
4
 74
0
 40
0
 40
0
 40
0
 40
0
 40
1
 40
1
 40
1
 40
1
 10
88.750000
 20
73.675004
 30
0.0
 10
88.473854
 20
73.675004
 30
0.0
 10
88.249995
 20
73.451140
 30
0.0
 10
88.250001
 20
73.174995
 30
0.0
  0
LWPOLYLINE
  5
2f9
100
AcDbEntity
  8
Plate
 62
7
100
AcDbPolyline
 90
2
 70
0
 10
101.750000
 20
73.675004
 30
0.0
 10
88.750000
 20
73.675004
 30
0.0
  0
SPLINE
  5
2fa
100
AcDbEntity
  8
Plate
 62
7
100
AcDbSpline
 70
8
 71
3
 72
8
 73
4
 74
0
 40
0
 40
0
 40
0
 40
0
 40
1
 40
1
 40
1
 40
1
 10
88.250001
 20
60.175010
 30
0.0
 10
88.249995
 20
59.898865
 30
0.0
 10
88.473854
 20
59.675001
 30
0.0
 10
88.750000
 20
59.675001
 30
0.0
  0
LWPOLYLINE
  5
2fb
100
AcDbEntity
  8
Plate
 62
7
100
AcDbPolyline
 90
2
 70
0
 10
88.250001
 20
73.174995
 30
0.0
 10
88.250001
 20
60.175010
 30
0.0
  0
LWPOLYLINE
  5
2fc
100
AcDbEntity
  8
Plate
 62
7
100
AcDbPolyline
 90
1
 70
1
 10
88.750000
 20
59.675001
 30
0.0
  0
SPLINE
  5
2fd
100
AcDbEntity
  8
Plate
 62
7
100
AcDbSpline
 70
8
 71
3
 72
8
 73
4
 74
0
 40
0
 40
0
 40
0
 40
0
 40
1
 40
1
 40
1
 40
1
 10
120.800000
 20
59.675001
 30
0.0
 10
121.076146
 20
59.675001
 30
0.0
 10
121.300005
 20
59.898865
 30
0.0
 10
121.299999
 20
60.175010
 30
0.0
  0
LWPOLYLINE
  5
2fe
100
AcDbEntity
  8
Plate
 62
7
100
AcDbPolyline
 90
2
 70
0
 10
107.800000
 20
59.675001
 30
0.0
 10
120.800000
 20
59.675001
 30
0.0
  0
SPLINE
  5
2ff
100
AcDbEntity
  8
Plate
 62
7
100
AcDbSpline
 70
8
 71
3
 72
8
 73
4
 74
0
 40
0
 40
0
 40
0
 40
0
 40
1
 40
1
 40
1
 40
1
 10
121.299999
 20
73.174995
 30
0.0
 10
121.300005
 20
73.451140
 30
0.0
 10
121.076146
 20
73.675004
 30
0.0
 10
120.800000
 20
73.675004
 30
0.0
  0
LWPOLYLINE
  5
300
100
AcDbEntity
  8
Plate
 62
7
100
AcDbPolyline
 90
2
 70
0
 10
121.299999
 20
60.175010
 30
0.0
 10
121.299999
 20
73.174995
 30
0.0
  0
SPLINE
  5
301
100
AcDbEntity
  8
Plate
 62
7
100
AcDbSpline
 70
8
 71
3
 72
8
 73
4
 74
0
 40
0
 40
0
 40
0
 40
0
 40
1
 40
1
 40
1
 40
1
 10
107.800000
 20
73.675004
 30
0.0
 10
107.523854
 20
73.675004
 30
0.0
 10
107.299995
 20
73.451140
 30
0.0
 10
107.300001
 20
73.174995
 30
0.0
  0
LWPOLYLINE
  5
302
100
AcDbEntity
  8
Plate
 62
7
100
AcDbPolyline
 90
2
 70
0
 10
120.800000
 20
73.675004
 30
0.0
 10
107.800000
 20
73.675004
 30
0.0
  0
SPLINE
  5
303
100
AcDbEntity
  8
Plate
 62
7
100
AcDbSpline
 70
8
 71
3
 72
8
 73
4
 74
0
 40
0
 40
0
 40
0
 40
0
 40
1
 40
1
 40
1
 40
1
 10
107.300001
 20
60.175010
 30
0.0
 10
107.299995
 20
59.898865
 30
0.0
 10
107.523854
 20
59.675001
 30
0.0
 10
107.800000
 20
59.675001
 30
0.0
  0
LWPOLYLINE
  5
304
100
AcDbEntity
  8
Plate
 62
7
100
AcDbPolyline
 90
2
 70
0
 10
107.300001
 20
73.174995
 30
0.0
 10
107.300001
 20
60.175010
 30
0.0
  0
LWPOLYLINE
  5
305
100
AcDbEntity
  8
Plate
 62
7
100
AcDbPolyline
 90
1
 70
1
 10
107.800000
 20
59.675001
 30
0.0
  0
SPLINE
  5
306
100
AcDbEntity
  8
Plate
 62
7
100
AcDbSpline
 70
8
 71
3
 72
8
 73
4
 74
0
 40
0
 40
0
 40
0
 40
0
 40
1
 40
1
 40
1
 40
1
 10
139.850000
 20
59.675001
 30
0.0
 10
140.126146
 20
59.675001
 30
0.0
 10
140.350005
 20
59.898865
 30
0.0
 10
140.349999
 20
60.175010
 30
0.0
  0
LWPOLYLINE
  5
307
100
AcDbEntity
  8
Plate
 62
7
100
AcDbPolyline
 90
2
 70
0
 10
126.850000
 20
59.675001
 30
0.0
 10
139.850000
 20
59.675001
 30
0.0
  0
SPLINE
  5
308
100
AcDbEntity
  8
Plate
 62
7
100
AcDbSpline
 70
8
 71
3
 72
8
 73
4
 74
0
 40
0
 40
0
 40
0
 40
0
 40
1
 40
1
 40
1
 40
1
 10
140.349999
 20
73.174995
 30
0.0
 10
140.350005
 20
73.451140
 30
0.0
 10
140.126146
 20
73.675004
 30
0.0
 10
139.850000
 20
73.675004
 30
0.0
  0
LWPOLYLINE
  5
309
100
AcDbEntity
  8
Plate
 62
7
100
AcDbPolyline
 90
2
 70
0
 10
140.349999
 20
60.175010
 30
0.0
 10
140.349999
 20
73.174995
 30
0.0
  0
SPLINE
  5
30a
100
AcDbEntity
  8
Plate
 62
7
100
AcDbSpline
 70
8
 71
3
 72
8
 73
4
 74
0
 40
0
 40
0
 40
0
 40
0
 40
1
 40
1
 40
1
 40
1
 10
126.850000
 20
73.675004
 30
0.0
 10
126.573854
 20
73.675004
 30
0.0
 10
126.349995
 20
73.451140
 30
0.0
 10
126.350001
 20
73.174995
 30
0.0
  0
LWPOLYLINE
  5
30b
100
AcDbEntity
  8
Plate
 62
7
100
AcDbPolyline
 90
2
 70
0
 10
139.850000
 20
73.675004
 30
0.0
 10
126.850000
 20
73.675004
 30
0.0
  0
SPLINE
  5
30c
100
AcDbEntity
  8
Plate
 62
7
100
AcDbSpline
 70
8
 71
3
 72
8
 73
4
 74
0
 40
0
 40
0
 40
0
 40
0
 40
1
 40
1
 40
1
 40
1
 10
126.350001
 20
60.175010
 30
0.0
 10
126.349995
 20
59.898865
 30
0.0
 10
126.573854
 20
59.675001
 30
0.0
 10
126.850000
 20
59.675001
 30
0.0
  0
LWPOLYLINE
  5
30d
100
AcDbEntity
  8
Plate
 62
7
100
AcDbPolyline
 90
2
 70
0
 10
126.350001
 20
73.174995
 30
0.0
 10
126.350001
 20
60.175010
 30
0.0
  0
LWPOLYLINE
  5
30e
100
AcDbEntity
  8
Plate
 62
7
100
AcDbPolyline
 90
1
 70
1
 10
126.850000
 20
59.675001
 30
0.0
  0
SPLINE
  5
30f
100
AcDbEntity
  8
Plate
 62
7
100
AcDbSpline
 70
8
 71
3
 72
8
 73
4
 74
0
 40
0
 40
0
 40
0
 40
0
 40
1
 40
1
 40
1
 40
1
 10
158.900000
 20
59.675001
 30
0.0
 10
159.176146
 20
59.675001
 30
0.0
 10
159.400005
 20
59.898865
 30
0.0
 10
159.399999
 20
60.175010
 30
0.0
  0
LWPOLYLINE
  5
310
100
AcDbEntity
  8
Plate
 62
7
100
AcDbPolyline
 90
2
 70
0
 10
145.900000
 20
59.675001
 30
0.0
 10
158.900000
 20
59.675001
 30
0.0
  0
SPLINE
  5
311
100
AcDbEntity
  8
Plate
 62
7
100
AcDbSpline
 70
8
 71
3
 72
8
 73
4
 74
0
 40
0
 40
0
 40
0
 40
0
 40
1
 40
1
 40
1
 40
1
 10
159.399999
 20
73.174995
 30
0.0
 10
159.400005
 20
73.451140
 30
0.0
 10
159.176146
 20
73.675004
 30
0.0
 10
158.900000
 20
73.675004
 30
0.0
  0
LWPOLYLINE
  5
312
100
AcDbEntity
  8
Plate
 62
7
100
AcDbPolyline
 90
2
 70
0
 10
159.399999
 20
60.175010
 30
0.0
 10
159.399999
 20
73.174995
 30
0.0
  0
SPLINE
  5
313
100
AcDbEntity
  8
Plate
 62
7
100
AcDbSpline
 70
8
 71
3
 72
8
 73
4
 74
0
 40
0
 40
0
 40
0
 40
0
 40
1
 40
1
 40
1
 40
1
 10
145.900000
 20
73.675004
 30
0.0
 10
145.623854
 20
73.675004
 30
0.0
 10
145.399995
 20
73.451140
 30
0.0
 10
145.400001
 20
73.174995
 30
0.0
  0
LWPOLYLINE
  5
314
100
AcDbEntity
  8
Plate
 62
7
100
AcDbPolyline
 90
2
 70
0
 10
158.900000
 20
73.675004
 30
0.0
 10
145.900000
 20
73.675004
 30
0.0
  0
SPLINE
  5
315
100
AcDbEntity
  8
Plate
 62
7
100
AcDbSpline
 70
8
 71
3
 72
8
 73
4
 74
0
 40
0
 40
0
 40
0
 40
0
 40
1
 40
1
 40
1
 40
1
 10
145.400001
 20
60.175010
 30
0.0
 10
145.399995
 20
59.898865
 30
0.0
 10
145.623854
 20
59.675001
 30
0.0
 10
145.900000
 20
59.675001
 30
0.0
  0
LWPOLYLINE
  5
316
100
AcDbEntity
  8
Plate
 62
7
100
AcDbPolyline
 90
2
 70
0
 10
145.400001
 20
73.174995
 30
0.0
 10
145.400001
 20
60.175010
 30
0.0
  0
LWPOLYLINE
  5
317
100
AcDbEntity
  8
Plate
 62
7
100
AcDbPolyline
 90
1
 70
1
 10
145.900000
 20
59.675001
 30
0.0
  0
SPLINE
  5
318
100
AcDbEntity
  8
Plate
 62
7
100
AcDbSpline
 70
8
 71
3
 72
8
 73
4
 74
0
 40
0
 40
0
 40
0
 40
0
 40
1
 40
1
 40
1
 40
1
 10
177.950000
 20
59.675001
 30
0.0
 10
178.226146
 20
59.675001
 30
0.0
 10
178.450005
 20
59.898865
 30
0.0
 10
178.449999
 20
60.175010
 30
0.0
  0
LWPOLYLINE
  5
319
100
AcDbEntity
  8
Plate
 62
7
100
AcDbPolyline
 90
2
 70
0
 10
164.950000
 20
59.675001
 30
0.0
 10
177.950000
 20
59.675001
 30
0.0
  0
SPLINE
  5
31a
100
AcDbEntity
  8
Plate
 62
7
100
AcDbSpline
 70
8
 71
3
 72
8
 73
4
 74
0
 40
0
 40
0
 40
0
 40
0
 40
1
 40
1
 40
1
 40
1
 10
178.449999
 20
73.174995
 30
0.0
 10
178.450005
 20
73.451140
 30
0.0
 10
178.226146
 20
73.675004
 30
0.0
 10
177.950000
 20
73.675004
 30
0.0
  0
LWPOLYLINE
  5
31b
100
AcDbEntity
  8
Plate
 62
7
100
AcDbPolyline
 90
2
 70
0
 10
178.449999
 20
60.175010
 30
0.0
 10
178.449999
 20
73.174995
 30
0.0
  0
SPLINE
  5
31c
100
AcDbEntity
  8
Plate
 62
7
100
AcDbSpline
 70
8
 71
3
 72
8
 73
4
 74
0
 40
0
 40
0
 40
0
 40
0
 40
1
 40
1
 40
1
 40
1
 10
164.950000
 20
73.675004
 30
0.0
 10
164.673854
 20
73.675004
 30
0.0
 10
164.449995
 20
73.451140
 30
0.0
 10
164.450001
 20
73.174995
 30
0.0
  0
LWPOLYLINE
  5
31d
100
AcDbEntity
  8
Plate
 62
7
100
AcDbPolyline
 90
2
 70
0
 10
177.950000
 20
73.675004
 30
0.0
 10
164.950000
 20
73.675004
 30
0.0
  0
SPLINE
  5
31e
100
AcDbEntity
  8
Plate
 62
7
100
AcDbSpline
 70
8
 71
3
 72
8
 73
4
 74
0
 40
0
 40
0
 40
0
 40
0
 40
1
 40
1
 40
1
 40
1
 10
164.450001
 20
60.175010
 30
0.0
 10
164.449995
 20
59.898865
 30
0.0
 10
164.673854
 20
59.675001
 30
0.0
 10
164.950000
 20
59.675001
 30
0.0
  0
LWPOLYLINE
  5
31f
100
AcDbEntity
  8
Plate
 62
7
100
AcDbPolyline
 90
2
 70
0
 10
164.450001
 20
73.174995
 30
0.0
 10
164.450001
 20
60.175010
 30
0.0
  0
LWPOLYLINE
  5
320
100
AcDbEntity
  8
Plate
 62
7
100
AcDbPolyline
 90
1
 70
1
 10
164.950000
 20
59.675001
 30
0.0
  0
SPLINE
  5
321
100
AcDbEntity
  8
Plate
 62
7
100
AcDbSpline
 70
8
 71
3
 72
8
 73
4
 74
0
 40
0
 40
0
 40
0
 40
0
 40
1
 40
1
 40
1
 40
1
 10
197.000000
 20
59.675001
 30
0.0
 10
197.276146
 20
59.675001
 30
0.0
 10
197.500005
 20
59.898865
 30
0.0
 10
197.499999
 20
60.175010
 30
0.0
  0
LWPOLYLINE
  5
322
100
AcDbEntity
  8
Plate
 62
7
100
AcDbPolyline
 90
2
 70
0
 10
184.000000
 20
59.675001
 30
0.0
 10
197.000000
 20
59.675001
 30
0.0
  0
SPLINE
  5
323
100
AcDbEntity
  8
Plate
 62
7
100
AcDbSpline
 70
8
 71
3
 72
8
 73
4
 74
0
 40
0
 40
0
 40
0
 40
0
 40
1
 40
1
 40
1
 40
1
 10
197.499999
 20
73.174995
 30
0.0
 10
197.500005
 20
73.451140
 30
0.0
 10
197.276146
 20
73.675004
 30
0.0
 10
197.000000
 20
73.675004
 30
0.0
  0
LWPOLYLINE
  5
324
100
AcDbEntity
  8
Plate
 62
7
100
AcDbPolyline
 90
2
 70
0
 10
197.499999
 20
60.175010
 30
0.0
 10
197.499999
 20
73.174995
 30
0.0
  0
SPLINE
  5
325
100
AcDbEntity
  8
Plate
 62
7
100
AcDbSpline
 70
8
 71
3
 72
8
 73
4
 74
0
 40
0
 40
0
 40
0
 40
0
 40
1
 40
1
 40
1
 40
1
 10
184.000000
 20
73.675004
 30
0.0
 10
183.723854
 20
73.675004
 30
0.0
 10
183.499995
 20
73.451140
 30
0.0
 10
183.500001
 20
73.174995
 30
0.0
  0
LWPOLYLINE
  5
326
100
AcDbEntity
  8
Plate
 62
7
100
AcDbPolyline
 90
2
 70
0
 10
197.000000
 20
73.675004
 30
0.0
 10
184.000000
 20
73.675004
 30
0.0
  0
SPLINE
  5
327
100
AcDbEntity
  8
Plate
 62
7
100
AcDbSpline
 70
8
 71
3
 72
8
 73
4
 74
0
 40
0
 40
0
 40
0
 40
0
 40
1
 40
1
 40
1
 40
1
 10
183.500001
 20
60.175010
 30
0.0
 10
183.499995
 20
59.898865
 30
0.0
 10
183.723854
 20
59.675001
 30
0.0
 10
184.000000
 20
59.675001
 30
0.0
  0
LWPOLYLINE
  5
328
100
AcDbEntity
  8
Plate
 62
7
100
AcDbPolyline
 90
2
 70
0
 10
183.500001
 20
73.174995
 30
0.0
 10
183.500001
 20
60.175010
 30
0.0
  0
LWPOLYLINE
  5
329
100
AcDbEntity
  8
Plate
 62
7
100
AcDbPolyline
 90
1
 70
1
 10
184.000000
 20
59.675001
 30
0.0
  0
SPLINE
  5
32a
100
AcDbEntity
  8
Plate
 62
7
100
AcDbSpline
 70
8
 71
3
 72
8
 73
4
 74
0
 40
0
 40
0
 40
0
 40
0
 40
1
 40
1
 40
1
 40
1
 10
216.050000
 20
59.675001
 30
0.0
 10
216.326146
 20
59.675001
 30
0.0
 10
216.550005
 20
59.898865
 30
0.0
 10
216.549999
 20
60.175010
 30
0.0
  0
LWPOLYLINE
  5
32b
100
AcDbEntity
  8
Plate
 62
7
100
AcDbPolyline
 90
2
 70
0
 10
203.050000
 20
59.675001
 30
0.0
 10
216.050000
 20
59.675001
 30
0.0
  0
SPLINE
  5
32c
100
AcDbEntity
  8
Plate
 62
7
100
AcDbSpline
 70
8
 71
3
 72
8
 73
4
 74
0
 40
0
 40
0
 40
0
 40
0
 40
1
 40
1
 40
1
 40
1
 10
216.549999
 20
73.174995
 30
0.0
 10
216.550005
 20
73.451140
 30
0.0
 10
216.326146
 20
73.675004
 30
0.0
 10
216.050000
 20
73.675004
 30
0.0
  0
LWPOLYLINE
  5
32d
100
AcDbEntity
  8
Plate
 62
7
100
AcDbPolyline
 90
2
 70
0
 10
216.549999
 20
60.175010
 30
0.0
 10
216.549999
 20
73.174995
 30
0.0
  0
SPLINE
  5
32e
100
AcDbEntity
  8
Plate
 62
7
100
AcDbSpline
 70
8
 71
3
 72
8
 73
4
 74
0
 40
0
 40
0
 40
0
 40
0
 40
1
 40
1
 40
1
 40
1
 10
203.050000
 20
73.675004
 30
0.0
 10
202.773854
 20
73.675004
 30
0.0
 10
202.549995
 20
73.451140
 30
0.0
 10
202.550001
 20
73.174995
 30
0.0
  0
LWPOLYLINE
  5
32f
100
AcDbEntity
  8
Plate
 62
7
100
AcDbPolyline
 90
2
 70
0
 10
216.050000
 20
73.675004
 30
0.0
 10
203.050000
 20
73.675004
 30
0.0
  0
SPLINE
  5
330
100
AcDbEntity
  8
Plate
 62
7
100
AcDbSpline
 70
8
 71
3
 72
8
 73
4
 74
0
 40
0
 40
0
 40
0
 40
0
 40
1
 40
1
 40
1
 40
1
 10
202.550001
 20
60.175010
 30
0.0
 10
202.549995
 20
59.898865
 30
0.0
 10
202.773854
 20
59.675001
 30
0.0
 10
203.050000
 20
59.675001
 30
0.0
  0
LWPOLYLINE
  5
331
100
AcDbEntity
  8
Plate
 62
7
100
AcDbPolyline
 90
2
 70
0
 10
202.550001
 20
73.174995
 30
0.0
 10
202.550001
 20
60.175010
 30
0.0
  0
LWPOLYLINE
  5
332
100
AcDbEntity
  8
Plate
 62
7
100
AcDbPolyline
 90
1
 70
1
 10
203.050000
 20
59.675001
 30
0.0
  0
SPLINE
  5
333
100
AcDbEntity
  8
Plate
 62
7
100
AcDbSpline
 70
8
 71
3
 72
8
 73
4
 74
0
 40
0
 40
0
 40
0
 40
0
 40
1
 40
1
 40
1
 40
1
 10
235.100000
 20
59.675001
 30
0.0
 10
235.376146
 20
59.675001
 30
0.0
 10
235.600005
 20
59.898865
 30
0.0
 10
235.599999
 20
60.175010
 30
0.0
  0
LWPOLYLINE
  5
334
100
AcDbEntity
  8
Plate
 62
7
100
AcDbPolyline
 90
2
 70
0
 10
222.100000
 20
59.675001
 30
0.0
 10
235.100000
 20
59.675001
 30
0.0
  0
SPLINE
  5
335
100
AcDbEntity
  8
Plate
 62
7
100
AcDbSpline
 70
8
 71
3
 72
8
 73
4
 74
0
 40
0
 40
0
 40
0
 40
0
 40
1
 40
1
 40
1
 40
1
 10
235.599999
 20
73.174995
 30
0.0
 10
235.600005
 20
73.451140
 30
0.0
 10
235.376146
 20
73.675004
 30
0.0
 10
235.100000
 20
73.675004
 30
0.0
  0
LWPOLYLINE
  5
336
100
AcDbEntity
  8
Plate
 62
7
100
AcDbPolyline
 90
2
 70
0
 10
235.599999
 20
60.175010
 30
0.0
 10
235.599999
 20
73.174995
 30
0.0
  0
SPLINE
  5
337
100
AcDbEntity
  8
Plate
 62
7
100
AcDbSpline
 70
8
 71
3
 72
8
 73
4
 74
0
 40
0
 40
0
 40
0
 40
0
 40
1
 40
1
 40
1
 40
1
 10
222.100000
 20
73.675004
 30
0.0
 10
221.823854
 20
73.675004
 30
0.0
 10
221.599995
 20
73.451140
 30
0.0
 10
221.600001
 20
73.174995
 30
0.0
  0
LWPOLYLINE
  5
338
100
AcDbEntity
  8
Plate
 62
7
100
AcDbPolyline
 90
2
 70
0
 10
235.100000
 20
73.675004
 30
0.0
 10
222.100000
 20
73.675004
 30
0.0
  0
SPLINE
  5
339
100
AcDbEntity
  8
Plate
 62
7
100
AcDbSpline
 70
8
 71
3
 72
8
 73
4
 74
0
 40
0
 40
0
 40
0
 40
0
 40
1
 40
1
 40
1
 40
1
 10
221.600001
 20
60.175010
 30
0.0
 10
221.599995
 20
59.898865
 30
0.0
 10
221.823854
 20
59.675001
 30
0.0
 10
222.100000
 20
59.675001
 30
0.0
  0
LWPOLYLINE
  5
33a
100
AcDbEntity
  8
Plate
 62
7
100
AcDbPolyline
 90
2
 70
0
 10
221.600001
 20
73.174995
 30
0.0
 10
221.600001
 20
60.175010
 30
0.0
  0
LWPOLYLINE
  5
33b
100
AcDbEntity
  8
Plate
 62
7
100
AcDbPolyline
 90
1
 70
1
 10
222.100000
 20
59.675001
 30
0.0
  0
SPLINE
  5
33c
100
AcDbEntity
  8
Plate
 62
7
100
AcDbSpline
 70
8
 71
3
 72
8
 73
4
 74
0
 40
0
 40
0
 40
0
 40
0
 40
1
 40
1
 40
1
 40
1
 10
254.150000
 20
59.675001
 30
0.0
 10
254.426146
 20
59.675001
 30
0.0
 10
254.650005
 20
59.898865
 30
0.0
 10
254.649999
 20
60.175010
 30
0.0
  0
LWPOLYLINE
  5
33d
100
AcDbEntity
  8
Plate
 62
7
100
AcDbPolyline
 90
2
 70
0
 10
241.150000
 20
59.675001
 30
0.0
 10
254.150000
 20
59.675001
 30
0.0
  0
SPLINE
  5
33e
100
AcDbEntity
  8
Plate
 62
7
100
AcDbSpline
 70
8
 71
3
 72
8
 73
4
 74
0
 40
0
 40
0
 40
0
 40
0
 40
1
 40
1
 40
1
 40
1
 10
254.649999
 20
73.174995
 30
0.0
 10
254.650005
 20
73.451140
 30
0.0
 10
254.426146
 20
73.675004
 30
0.0
 10
254.150000
 20
73.675004
 30
0.0
  0
LWPOLYLINE
  5
33f
100
AcDbEntity
  8
Plate
 62
7
100
AcDbPolyline
 90
2
 70
0
 10
254.649999
 20
60.175010
 30
0.0
 10
254.649999
 20
73.174995
 30
0.0
  0
SPLINE
  5
340
100
AcDbEntity
  8
Plate
 62
7
100
AcDbSpline
 70
8
 71
3
 72
8
 73
4
 74
0
 40
0
 40
0
 40
0
 40
0
 40
1
 40
1
 40
1
 40
1
 10
241.150000
 20
73.675004
 30
0.0
 10
240.873854
 20
73.675004
 30
0.0
 10
240.649995
 20
73.451140
 30
0.0
 10
240.650001
 20
73.174995
 30
0.0
  0
LWPOLYLINE
  5
341
100
AcDbEntity
  8
Plate
 62
7
100
AcDbPolyline
 90
2
 70
0
 10
254.150000
 20
73.675004
 30
0.0
 10
241.150000
 20
73.675004
 30
0.0
  0
SPLINE
  5
342
100
AcDbEntity
  8
Plate
 62
7
100
AcDbSpline
 70
8
 71
3
 72
8
 73
4
 74
0
 40
0
 40
0
 40
0
 40
0
 40
1
 40
1
 40
1
 40
1
 10
240.650001
 20
60.175010
 30
0.0
 10
240.649995
 20
59.898865
 30
0.0
 10
240.873854
 20
59.675001
 30
0.0
 10
241.150000
 20
59.675001
 30
0.0
  0
LWPOLYLINE
  5
343
100
AcDbEntity
  8
Plate
 62
7
100
AcDbPolyline
 90
2
 70
0
 10
240.650001
 20
73.174995
 30
0.0
 10
240.650001
 20
60.175010
 30
0.0
  0
LWPOLYLINE
  5
344
100
AcDbEntity
  8
Plate
 62
7
100
AcDbPolyline
 90
1
 70
1
 10
241.150000
 20
59.675001
 30
0.0
  0
SPLINE
  5
345
100
AcDbEntity
  8
Plate
 62
7
100
AcDbSpline
 70
8
 71
3
 72
8
 73
4
 74
0
 40
0
 40
0
 40
0
 40
0
 40
1
 40
1
 40
1
 40
1
 10
73.175000
 20
40.625001
 30
0.0
 10
73.451146
 20
40.625001
 30
0.0
 10
73.675005
 20
40.848865
 30
0.0
 10
73.674999
 20
41.125010
 30
0.0
  0
LWPOLYLINE
  5
346
100
AcDbEntity
  8
Plate
 62
7
100
AcDbPolyline
 90
2
 70
0
 10
60.175000
 20
40.625001
 30
0.0
 10
73.175000
 20
40.625001
 30
0.0
  0
SPLINE
  5
347
100
AcDbEntity
  8
Plate
 62
7
100
AcDbSpline
 70
8
 71
3
 72
8
 73
4
 74
0
 40
0
 40
0
 40
0
 40
0
 40
1
 40
1
 40
1
 40
1
 10
73.674999
 20
54.124995
 30
0.0
 10
73.675005
 20
54.401140
 30
0.0
 10
73.451146
 20
54.625004
 30
0.0
 10
73.175000
 20
54.625004
 30
0.0
  0
LWPOLYLINE
  5
348
100
AcDbEntity
  8
Plate
 62
7
100
AcDbPolyline
 90
2
 70
0
 10
73.674999
 20
41.125010
 30
0.0
 10
73.674999
 20
54.124995
 30
0.0
  0
SPLINE
  5
349
100
AcDbEntity
  8
Plate
 62
7
100
AcDbSpline
 70
8
 71
3
 72
8
 73
4
 74
0
 40
0
 40
0
 40
0
 40
0
 40
1
 40
1
 40
1
 40
1
 10
60.175000
 20
54.625004
 30
0.0
 10
59.898854
 20
54.625004
 30
0.0
 10
59.674995
 20
54.401140
 30
0.0
 10
59.675001
 20
54.124995
 30
0.0
  0
LWPOLYLINE
  5
34a
100
AcDbEntity
  8
Plate
 62
7
100
AcDbPolyline
 90
2
 70
0
 10
73.175000
 20
54.625004
 30
0.0
 10
60.175000
 20
54.625004
 30
0.0
  0
SPLINE
  5
34b
100
AcDbEntity
  8
Plate
 62
7
100
AcDbSpline
 70
8
 71
3
 72
8
 73
4
 74
0
 40
0
 40
0
 40
0
 40
0
 40
1
 40
1
 40
1
 40
1
 10
59.675001
 20
41.125010
 30
0.0
 10
59.674995
 20
40.848865
 30
0.0
 10
59.898854
 20
40.625001
 30
0.0
 10
60.175000
 20
40.625001
 30
0.0
  0
LWPOLYLINE
  5
34c
100
AcDbEntity
  8
Plate
 62
7
100
AcDbPolyline
 90
2
 70
0
 10
59.675001
 20
54.124995
 30
0.0
 10
59.675001
 20
41.125010
 30
0.0
  0
LWPOLYLINE
  5
34d
100
AcDbEntity
  8
Plate
 62
7
100
AcDbPolyline
 90
1
 70
1
 10
60.175000
 20
40.625001
 30
0.0
  0
SPLINE
  5
34e
100
AcDbEntity
  8
Plate
 62
7
100
AcDbSpline
 70
8
 71
3
 72
8
 73
4
 74
0
 40
0
 40
0
 40
0
 40
0
 40
1
 40
1
 40
1
 40
1
 10
92.225000
 20
40.625001
 30
0.0
 10
92.501146
 20
40.625001
 30
0.0
 10
92.725005
 20
40.848865
 30
0.0
 10
92.724999
 20
41.125010
 30
0.0
  0
LWPOLYLINE
  5
34f
100
AcDbEntity
  8
Plate
 62
7
100
AcDbPolyline
 90
2
 70
0
 10
79.225000
 20
40.625001
 30
0.0
 10
92.225000
 20
40.625001
 30
0.0
  0
SPLINE
  5
350
100
AcDbEntity
  8
Plate
 62
7
100
AcDbSpline
 70
8
 71
3
 72
8
 73
4
 74
0
 40
0
 40
0
 40
0
 40
0
 40
1
 40
1
 40
1
 40
1
 10
92.724999
 20
54.124995
 30
0.0
 10
92.725005
 20
54.401140
 30
0.0
 10
92.501146
 20
54.625004
 30
0.0
 10
92.225000
 20
54.625004
 30
0.0
  0
LWPOLYLINE
  5
351
100
AcDbEntity
  8
Plate
 62
7
100
AcDbPolyline
 90
2
 70
0
 10
92.724999
 20
41.125010
 30
0.0
 10
92.724999
 20
54.124995
 30
0.0
  0
SPLINE
  5
352
100
AcDbEntity
  8
Plate
 62
7
100
AcDbSpline
 70
8
 71
3
 72
8
 73
4
 74
0
 40
0
 40
0
 40
0
 40
0
 40
1
 40
1
 40
1
 40
1
 10
79.225000
 20
54.625004
 30
0.0
 10
78.948854
 20
54.625004
 30
0.0
 10
78.724995
 20
54.401140
 30
0.0
 10
78.725001
 20
54.124995
 30
0.0
  0
LWPOLYLINE
  5
353
100
AcDbEntity
  8
Plate
 62
7
100
AcDbPolyline
 90
2
 70
0
 10
92.225000
 20
54.625004
 30
0.0
 10
79.225000
 20
54.625004
 30
0.0
  0
SPLINE
  5
354
100
AcDbEntity
  8
Plate
 62
7
100
AcDbSpline
 70
8
 71
3
 72
8
 73
4
 74
0
 40
0
 40
0
 40
0
 40
0
 40
1
 40
1
 40
1
 40
1
 10
78.725001
 20
41.125010
 30
0.0
 10
78.724995
 20
40.848865
 30
0.0
 10
78.948854
 20
40.625001
 30
0.0
 10
79.225000
 20
40.625001
 30
0.0
  0
LWPOLYLINE
  5
355
100
AcDbEntity
  8
Plate
 62
7
100
AcDbPolyline
 90
2
 70
0
 10
78.725001
 20
54.124995
 30
0.0
 10
78.725001
 20
41.125010
 30
0.0
  0
LWPOLYLINE
  5
356
100
AcDbEntity
  8
Plate
 62
7
100
AcDbPolyline
 90
1
 70
1
 10
79.225000
 20
40.625001
 30
0.0
  0
SPLINE
  5
357
100
AcDbEntity
  8
Plate
 62
7
100
AcDbSpline
 70
8
 71
3
 72
8
 73
4
 74
0
 40
0
 40
0
 40
0
 40
0
 40
1
 40
1
 40
1
 40
1
 10
111.275000
 20
40.625001
 30
0.0
 10
111.551146
 20
40.625001
 30
0.0
 10
111.775005
 20
40.848865
 30
0.0
 10
111.774999
 20
41.125010
 30
0.0
  0
LWPOLYLINE
  5
358
100
AcDbEntity
  8
Plate
 62
7
100
AcDbPolyline
 90
2
 70
0
 10
98.275000
 20
40.625001
 30
0.0
 10
111.275000
 20
40.625001
 30
0.0
  0
SPLINE
  5
359
100
AcDbEntity
  8
Plate
 62
7
100
AcDbSpline
 70
8
 71
3
 72
8
 73
4
 74
0
 40
0
 40
0
 40
0
 40
0
 40
1
 40
1
 40
1
 40
1
 10
111.774999
 20
54.124995
 30
0.0
 10
111.775005
 20
54.401140
 30
0.0
 10
111.551146
 20
54.625004
 30
0.0
 10
111.275000
 20
54.625004
 30
0.0
  0
LWPOLYLINE
  5
35a
100
AcDbEntity
  8
Plate
 62
7
100
AcDbPolyline
 90
2
 70
0
 10
111.774999
 20
41.125010
 30
0.0
 10
111.774999
 20
54.124995
 30
0.0
  0
SPLINE
  5
35b
100
AcDbEntity
  8
Plate
 62
7
100
AcDbSpline
 70
8
 71
3
 72
8
 73
4
 74
0
 40
0
 40
0
 40
0
 40
0
 40
1
 40
1
 40
1
 40
1
 10
98.275000
 20
54.625004
 30
0.0
 10
97.998854
 20
54.625004
 30
0.0
 10
97.774995
 20
54.401140
 30
0.0
 10
97.775001
 20
54.124995
 30
0.0
  0
LWPOLYLINE
  5
35c
100
AcDbEntity
  8
Plate
 62
7
100
AcDbPolyline
 90
2
 70
0
 10
111.275000
 20
54.625004
 30
0.0
 10
98.275000
 20
54.625004
 30
0.0
  0
SPLINE
  5
35d
100
AcDbEntity
  8
Plate
 62
7
100
AcDbSpline
 70
8
 71
3
 72
8
 73
4
 74
0
 40
0
 40
0
 40
0
 40
0
 40
1
 40
1
 40
1
 40
1
 10
97.775001
 20
41.125010
 30
0.0
 10
97.774995
 20
40.848865
 30
0.0
 10
97.998854
 20
40.625001
 30
0.0
 10
98.275000
 20
40.625001
 30
0.0
  0
LWPOLYLINE
  5
35e
100
AcDbEntity
  8
Plate
 62
7
100
AcDbPolyline
 90
2
 70
0
 10
97.775001
 20
54.124995
 30
0.0
 10
97.775001
 20
41.125010
 30
0.0
  0
LWPOLYLINE
  5
35f
100
AcDbEntity
  8
Plate
 62
7
100
AcDbPolyline
 90
1
 70
1
 10
98.275000
 20
40.625001
 30
0.0
  0
SPLINE
  5
360
100
AcDbEntity
  8
Plate
 62
7
100
AcDbSpline
 70
8
 71
3
 72
8
 73
4
 74
0
 40
0
 40
0
 40
0
 40
0
 40
1
 40
1
 40
1
 40
1
 10
130.325000
 20
40.625001
 30
0.0
 10
130.601146
 20
40.625001
 30
0.0
 10
130.825005
 20
40.848865
 30
0.0
 10
130.824999
 20
41.125010
 30
0.0
  0
LWPOLYLINE
  5
361
100
AcDbEntity
  8
Plate
 62
7
100
AcDbPolyline
 90
2
 70
0
 10
117.325000
 20
40.625001
 30
0.0
 10
130.325000
 20
40.625001
 30
0.0
  0
SPLINE
  5
362
100
AcDbEntity
  8
Plate
 62
7
100
AcDbSpline
 70
8
 71
3
 72
8
 73
4
 74
0
 40
0
 40
0
 40
0
 40
0
 40
1
 40
1
 40
1
 40
1
 10
130.824999
 20
54.124995
 30
0.0
 10
130.825005
 20
54.401140
 30
0.0
 10
130.601146
 20
54.625004
 30
0.0
 10
130.325000
 20
54.625004
 30
0.0
  0
LWPOLYLINE
  5
363
100
AcDbEntity
  8
Plate
 62
7
100
AcDbPolyline
 90
2
 70
0
 10
130.824999
 20
41.125010
 30
0.0
 10
130.824999
 20
54.124995
 30
0.0
  0
SPLINE
  5
364
100
AcDbEntity
  8
Plate
 62
7
100
AcDbSpline
 70
8
 71
3
 72
8
 73
4
 74
0
 40
0
 40
0
 40
0
 40
0
 40
1
 40
1
 40
1
 40
1
 10
117.325000
 20
54.625004
 30
0.0
 10
117.048854
 20
54.625004
 30
0.0
 10
116.824995
 20
54.401140
 30
0.0
 10
116.825001
 20
54.124995
 30
0.0
  0
LWPOLYLINE
  5
365
100
AcDbEntity
  8
Plate
 62
7
100
AcDbPolyline
 90
2
 70
0
 10
130.325000
 20
54.625004
 30
0.0
 10
117.325000
 20
54.625004
 30
0.0
  0
SPLINE
  5
366
100
AcDbEntity
  8
Plate
 62
7
100
AcDbSpline
 70
8
 71
3
 72
8
 73
4
 74
0
 40
0
 40
0
 40
0
 40
0
 40
1
 40
1
 40
1
 40
1
 10
116.825001
 20
41.125010
 30
0.0
 10
116.824995
 20
40.848865
 30
0.0
 10
117.048854
 20
40.625001
 30
0.0
 10
117.325000
 20
40.625001
 30
0.0
  0
LWPOLYLINE
  5
367
100
AcDbEntity
  8
Plate
 62
7
100
AcDbPolyline
 90
2
 70
0
 10
116.825001
 20
54.124995
 30
0.0
 10
116.825001
 20
41.125010
 30
0.0
  0
LWPOLYLINE
  5
368
100
AcDbEntity
  8
Plate
 62
7
100
AcDbPolyline
 90
1
 70
1
 10
117.325000
 20
40.625001
 30
0.0
  0
SPLINE
  5
369
100
AcDbEntity
  8
Plate
 62
7
100
AcDbSpline
 70
8
 71
3
 72
8
 73
4
 74
0
 40
0
 40
0
 40
0
 40
0
 40
1
 40
1
 40
1
 40
1
 10
149.375000
 20
40.625001
 30
0.0
 10
149.651146
 20
40.625001
 30
0.0
 10
149.875005
 20
40.848865
 30
0.0
 10
149.874999
 20
41.125010
 30
0.0
  0
LWPOLYLINE
  5
36a
100
AcDbEntity
  8
Plate
 62
7
100
AcDbPolyline
 90
2
 70
0
 10
136.375000
 20
40.625001
 30
0.0
 10
149.375000
 20
40.625001
 30
0.0
  0
SPLINE
  5
36b
100
AcDbEntity
  8
Plate
 62
7
100
AcDbSpline
 70
8
 71
3
 72
8
 73
4
 74
0
 40
0
 40
0
 40
0
 40
0
 40
1
 40
1
 40
1
 40
1
 10
149.874999
 20
54.124995
 30
0.0
 10
149.875005
 20
54.401140
 30
0.0
 10
149.651146
 20
54.625004
 30
0.0
 10
149.375000
 20
54.625004
 30
0.0
  0
LWPOLYLINE
  5
36c
100
AcDbEntity
  8
Plate
 62
7
100
AcDbPolyline
 90
2
 70
0
 10
149.874999
 20
41.125010
 30
0.0
 10
149.874999
 20
54.124995
 30
0.0
  0
SPLINE
  5
36d
100
AcDbEntity
  8
Plate
 62
7
100
AcDbSpline
 70
8
 71
3
 72
8
 73
4
 74
0
 40
0
 40
0
 40
0
 40
0
 40
1
 40
1
 40
1
 40
1
 10
136.375000
 20
54.625004
 30
0.0
 10
136.098854
 20
54.625004
 30
0.0
 10
135.874995
 20
54.401140
 30
0.0
 10
135.875001
 20
54.124995
 30
0.0
  0
LWPOLYLINE
  5
36e
100
AcDbEntity
  8
Plate
 62
7
100
AcDbPolyline
 90
2
 70
0
 10
149.375000
 20
54.625004
 30
0.0
 10
136.375000
 20
54.625004
 30
0.0
  0
SPLINE
  5
36f
100
AcDbEntity
  8
Plate
 62
7
100
AcDbSpline
 70
8
 71
3
 72
8
 73
4
 74
0
 40
0
 40
0
 40
0
 40
0
 40
1
 40
1
 40
1
 40
1
 10
135.875001
 20
41.125010
 30
0.0
 10
135.874995
 20
40.848865
 30
0.0
 10
136.098854
 20
40.625001
 30
0.0
 10
136.375000
 20
40.625001
 30
0.0
  0
LWPOLYLINE
  5
370
100
AcDbEntity
  8
Plate
 62
7
100
AcDbPolyline
 90
2
 70
0
 10
135.875001
 20
54.124995
 30
0.0
 10
135.875001
 20
41.125010
 30
0.0
  0
LWPOLYLINE
  5
371
100
AcDbEntity
  8
Plate
 62
7
100
AcDbPolyline
 90
1
 70
1
 10
136.375000
 20
40.625001
 30
0.0
  0
SPLINE
  5
372
100
AcDbEntity
  8
Plate
 62
7
100
AcDbSpline
 70
8
 71
3
 72
8
 73
4
 74
0
 40
0
 40
0
 40
0
 40
0
 40
1
 40
1
 40
1
 40
1
 10
168.425000
 20
40.625001
 30
0.0
 10
168.701146
 20
40.625001
 30
0.0
 10
168.925005
 20
40.848865
 30
0.0
 10
168.924999
 20
41.125010
 30
0.0
  0
LWPOLYLINE
  5
373
100
AcDbEntity
  8
Plate
 62
7
100
AcDbPolyline
 90
2
 70
0
 10
155.425000
 20
40.625001
 30
0.0
 10
168.425000
 20
40.625001
 30
0.0
  0
SPLINE
  5
374
100
AcDbEntity
  8
Plate
 62
7
100
AcDbSpline
 70
8
 71
3
 72
8
 73
4
 74
0
 40
0
 40
0
 40
0
 40
0
 40
1
 40
1
 40
1
 40
1
 10
168.924999
 20
54.124995
 30
0.0
 10
168.925005
 20
54.401140
 30
0.0
 10
168.701146
 20
54.625004
 30
0.0
 10
168.425000
 20
54.625004
 30
0.0
  0
LWPOLYLINE
  5
375
100
AcDbEntity
  8
Plate
 62
7
100
AcDbPolyline
 90
2
 70
0
 10
168.924999
 20
41.125010
 30
0.0
 10
168.924999
 20
54.124995
 30
0.0
  0
SPLINE
  5
376
100
AcDbEntity
  8
Plate
 62
7
100
AcDbSpline
 70
8
 71
3
 72
8
 73
4
 74
0
 40
0
 40
0
 40
0
 40
0
 40
1
 40
1
 40
1
 40
1
 10
155.425000
 20
54.625004
 30
0.0
 10
155.148854
 20
54.625004
 30
0.0
 10
154.924995
 20
54.401140
 30
0.0
 10
154.925001
 20
54.124995
 30
0.0
  0
LWPOLYLINE
  5
377
100
AcDbEntity
  8
Plate
 62
7
100
AcDbPolyline
 90
2
 70
0
 10
168.425000
 20
54.625004
 30
0.0
 10
155.425000
 20
54.625004
 30
0.0
  0
SPLINE
  5
378
100
AcDbEntity
  8
Plate
 62
7
100
AcDbSpline
 70
8
 71
3
 72
8
 73
4
 74
0
 40
0
 40
0
 40
0
 40
0
 40
1
 40
1
 40
1
 40
1
 10
154.925001
 20
41.125010
 30
0.0
 10
154.924995
 20
40.848865
 30
0.0
 10
155.148854
 20
40.625001
 30
0.0
 10
155.425000
 20
40.625001
 30
0.0
  0
LWPOLYLINE
  5
379
100
AcDbEntity
  8
Plate
 62
7
100
AcDbPolyline
 90
2
 70
0
 10
154.925001
 20
54.124995
 30
0.0
 10
154.925001
 20
41.125010
 30
0.0
  0
LWPOLYLINE
  5
37a
100
AcDbEntity
  8
Plate
 62
7
100
AcDbPolyline
 90
1
 70
1
 10
155.425000
 20
40.625001
 30
0.0
  0
SPLINE
  5
37b
100
AcDbEntity
  8
Plate
 62
7
100
AcDbSpline
 70
8
 71
3
 72
8
 73
4
 74
0
 40
0
 40
0
 40
0
 40
0
 40
1
 40
1
 40
1
 40
1
 10
187.475000
 20
40.625001
 30
0.0
 10
187.751146
 20
40.625001
 30
0.0
 10
187.975005
 20
40.848865
 30
0.0
 10
187.974999
 20
41.125010
 30
0.0
  0
LWPOLYLINE
  5
37c
100
AcDbEntity
  8
Plate
 62
7
100
AcDbPolyline
 90
2
 70
0
 10
174.475000
 20
40.625001
 30
0.0
 10
187.475000
 20
40.625001
 30
0.0
  0
SPLINE
  5
37d
100
AcDbEntity
  8
Plate
 62
7
100
AcDbSpline
 70
8
 71
3
 72
8
 73
4
 74
0
 40
0
 40
0
 40
0
 40
0
 40
1
 40
1
 40
1
 40
1
 10
187.974999
 20
54.124995
 30
0.0
 10
187.975005
 20
54.401140
 30
0.0
 10
187.751146
 20
54.625004
 30
0.0
 10
187.475000
 20
54.625004
 30
0.0
  0
LWPOLYLINE
  5
37e
100
AcDbEntity
  8
Plate
 62
7
100
AcDbPolyline
 90
2
 70
0
 10
187.974999
 20
41.125010
 30
0.0
 10
187.974999
 20
54.124995
 30
0.0
  0
SPLINE
  5
37f
100
AcDbEntity
  8
Plate
 62
7
100
AcDbSpline
 70
8
 71
3
 72
8
 73
4
 74
0
 40
0
 40
0
 40
0
 40
0
 40
1
 40
1
 40
1
 40
1
 10
174.475000
 20
54.625004
 30
0.0
 10
174.198854
 20
54.625004
 30
0.0
 10
173.974995
 20
54.401140
 30
0.0
 10
173.975001
 20
54.124995
 30
0.0
  0
LWPOLYLINE
  5
380
100
AcDbEntity
  8
Plate
 62
7
100
AcDbPolyline
 90
2
 70
0
 10
187.475000
 20
54.625004
 30
0.0
 10
174.475000
 20
54.625004
 30
0.0
  0
SPLINE
  5
381
100
AcDbEntity
  8
Plate
 62
7
100
AcDbSpline
 70
8
 71
3
 72
8
 73
4
 74
0
 40
0
 40
0
 40
0
 40
0
 40
1
 40
1
 40
1
 40
1
 10
173.975001
 20
41.125010
 30
0.0
 10
173.974995
 20
40.848865
 30
0.0
 10
174.198854
 20
40.625001
 30
0.0
 10
174.475000
 20
40.625001
 30
0.0
  0
LWPOLYLINE
  5
382
100
AcDbEntity
  8
Plate
 62
7
100
AcDbPolyline
 90
2
 70
0
 10
173.975001
 20
54.124995
 30
0.0
 10
173.975001
 20
41.125010
 30
0.0
  0
LWPOLYLINE
  5
383
100
AcDbEntity
  8
Plate
 62
7
100
AcDbPolyline
 90
1
 70
1
 10
174.475000
 20
40.625001
 30
0.0
  0
SPLINE
  5
384
100
AcDbEntity
  8
Plate
 62
7
100
AcDbSpline
 70
8
 71
3
 72
8
 73
4
 74
0
 40
0
 40
0
 40
0
 40
0
 40
1
 40
1
 40
1
 40
1
 10
206.525000
 20
40.625001
 30
0.0
 10
206.801146
 20
40.625001
 30
0.0
 10
207.025005
 20
40.848865
 30
0.0
 10
207.024999
 20
41.125010
 30
0.0
  0
LWPOLYLINE
  5
385
100
AcDbEntity
  8
Plate
 62
7
100
AcDbPolyline
 90
2
 70
0
 10
193.525000
 20
40.625001
 30
0.0
 10
206.525000
 20
40.625001
 30
0.0
  0
SPLINE
  5
386
100
AcDbEntity
  8
Plate
 62
7
100
AcDbSpline
 70
8
 71
3
 72
8
 73
4
 74
0
 40
0
 40
0
 40
0
 40
0
 40
1
 40
1
 40
1
 40
1
 10
207.024999
 20
54.124995
 30
0.0
 10
207.025005
 20
54.401140
 30
0.0
 10
206.801146
 20
54.625004
 30
0.0
 10
206.525000
 20
54.625004
 30
0.0
  0
LWPOLYLINE
  5
387
100
AcDbEntity
  8
Plate
 62
7
100
AcDbPolyline
 90
2
 70
0
 10
207.024999
 20
41.125010
 30
0.0
 10
207.024999
 20
54.124995
 30
0.0
  0
SPLINE
  5
388
100
AcDbEntity
  8
Plate
 62
7
100
AcDbSpline
 70
8
 71
3
 72
8
 73
4
 74
0
 40
0
 40
0
 40
0
 40
0
 40
1
 40
1
 40
1
 40
1
 10
193.525000
 20
54.625004
 30
0.0
 10
193.248854
 20
54.625004
 30
0.0
 10
193.024995
 20
54.401140
 30
0.0
 10
193.025001
 20
54.124995
 30
0.0
  0
LWPOLYLINE
  5
389
100
AcDbEntity
  8
Plate
 62
7
100
AcDbPolyline
 90
2
 70
0
 10
206.525000
 20
54.625004
 30
0.0
 10
193.525000
 20
54.625004
 30
0.0
  0
SPLINE
  5
38a
100
AcDbEntity
  8
Plate
 62
7
100
AcDbSpline
 70
8
 71
3
 72
8
 73
4
 74
0
 40
0
 40
0
 40
0
 40
0
 40
1
 40
1
 40
1
 40
1
 10
193.025001
 20
41.125010
 30
0.0
 10
193.024995
 20
40.848865
 30
0.0
 10
193.248854
 20
40.625001
 30
0.0
 10
193.525000
 20
40.625001
 30
0.0
  0
LWPOLYLINE
  5
38b
100
AcDbEntity
  8
Plate
 62
7
100
AcDbPolyline
 90
2
 70
0
 10
193.025001
 20
54.124995
 30
0.0
 10
193.025001
 20
41.125010
 30
0.0
  0
LWPOLYLINE
  5
38c
100
AcDbEntity
  8
Plate
 62
7
100
AcDbPolyline
 90
1
 70
1
 10
193.525000
 20
40.625001
 30
0.0
  0
SPLINE
  5
38d
100
AcDbEntity
  8
Plate
 62
7
100
AcDbSpline
 70
8
 71
3
 72
8
 73
4
 74
0
 40
0
 40
0
 40
0
 40
0
 40
1
 40
1
 40
1
 40
1
 10
225.575000
 20
40.625001
 30
0.0
 10
225.851146
 20
40.625001
 30
0.0
 10
226.075005
 20
40.848865
 30
0.0
 10
226.074999
 20
41.125010
 30
0.0
  0
LWPOLYLINE
  5
38e
100
AcDbEntity
  8
Plate
 62
7
100
AcDbPolyline
 90
2
 70
0
 10
212.575000
 20
40.625001
 30
0.0
 10
225.575000
 20
40.625001
 30
0.0
  0
SPLINE
  5
38f
100
AcDbEntity
  8
Plate
 62
7
100
AcDbSpline
 70
8
 71
3
 72
8
 73
4
 74
0
 40
0
 40
0
 40
0
 40
0
 40
1
 40
1
 40
1
 40
1
 10
226.074999
 20
54.124995
 30
0.0
 10
226.075005
 20
54.401140
 30
0.0
 10
225.851146
 20
54.625004
 30
0.0
 10
225.575000
 20
54.625004
 30
0.0
  0
LWPOLYLINE
  5
390
100
AcDbEntity
  8
Plate
 62
7
100
AcDbPolyline
 90
2
 70
0
 10
226.074999
 20
41.125010
 30
0.0
 10
226.074999
 20
54.124995
 30
0.0
  0
SPLINE
  5
391
100
AcDbEntity
  8
Plate
 62
7
100
AcDbSpline
 70
8
 71
3
 72
8
 73
4
 74
0
 40
0
 40
0
 40
0
 40
0
 40
1
 40
1
 40
1
 40
1
 10
212.575000
 20
54.625004
 30
0.0
 10
212.298854
 20
54.625004
 30
0.0
 10
212.074995
 20
54.401140
 30
0.0
 10
212.075001
 20
54.124995
 30
0.0
  0
LWPOLYLINE
  5
392
100
AcDbEntity
  8
Plate
 62
7
100
AcDbPolyline
 90
2
 70
0
 10
225.575000
 20
54.625004
 30
0.0
 10
212.575000
 20
54.625004
 30
0.0
  0
SPLINE
  5
393
100
AcDbEntity
  8
Plate
 62
7
100
AcDbSpline
 70
8
 71
3
 72
8
 73
4
 74
0
 40
0
 40
0
 40
0
 40
0
 40
1
 40
1
 40
1
 40
1
 10
212.075001
 20
41.125010
 30
0.0
 10
212.074995
 20
40.848865
 30
0.0
 10
212.298854
 20
40.625001
 30
0.0
 10
212.575000
 20
40.625001
 30
0.0
  0
LWPOLYLINE
  5
394
100
AcDbEntity
  8
Plate
 62
7
100
AcDbPolyline
 90
2
 70
0
 10
212.075001
 20
54.124995
 30
0.0
 10
212.075001
 20
41.125010
 30
0.0
  0
LWPOLYLINE
  5
395
100
AcDbEntity
  8
Plate
 62
7
100
AcDbPolyline
 90
1
 70
1
 10
212.575000
 20
40.625001
 30
0.0
  0
SPLINE
  5
396
100
AcDbEntity
  8
Plate
 62
7
100
AcDbSpline
 70
8
 71
3
 72
8
 73
4
 74
0
 40
0
 40
0
 40
0
 40
0
 40
1
 40
1
 40
1
 40
1
 10
244.625000
 20
40.625001
 30
0.0
 10
244.901146
 20
40.625001
 30
0.0
 10
245.125005
 20
40.848865
 30
0.0
 10
245.124999
 20
41.125010
 30
0.0
  0
LWPOLYLINE
  5
397
100
AcDbEntity
  8
Plate
 62
7
100
AcDbPolyline
 90
2
 70
0
 10
231.625000
 20
40.625001
 30
0.0
 10
244.625000
 20
40.625001
 30
0.0
  0
SPLINE
  5
398
100
AcDbEntity
  8
Plate
 62
7
100
AcDbSpline
 70
8
 71
3
 72
8
 73
4
 74
0
 40
0
 40
0
 40
0
 40
0
 40
1
 40
1
 40
1
 40
1
 10
245.124999
 20
54.124995
 30
0.0
 10
245.125005
 20
54.401140
 30
0.0
 10
244.901146
 20
54.625004
 30
0.0
 10
244.625000
 20
54.625004
 30
0.0
  0
LWPOLYLINE
  5
399
100
AcDbEntity
  8
Plate
 62
7
100
AcDbPolyline
 90
2
 70
0
 10
245.124999
 20
41.125010
 30
0.0
 10
245.124999
 20
54.124995
 30
0.0
  0
SPLINE
  5
39a
100
AcDbEntity
  8
Plate
 62
7
100
AcDbSpline
 70
8
 71
3
 72
8
 73
4
 74
0
 40
0
 40
0
 40
0
 40
0
 40
1
 40
1
 40
1
 40
1
 10
231.625000
 20
54.625004
 30
0.0
 10
231.348854
 20
54.625004
 30
0.0
 10
231.124995
 20
54.401140
 30
0.0
 10
231.125001
 20
54.124995
 30
0.0
  0
LWPOLYLINE
  5
39b
100
AcDbEntity
  8
Plate
 62
7
100
AcDbPolyline
 90
2
 70
0
 10
244.625000
 20
54.625004
 30
0.0
 10
231.625000
 20
54.625004
 30
0.0
  0
SPLINE
  5
39c
100
AcDbEntity
  8
Plate
 62
7
100
AcDbSpline
 70
8
 71
3
 72
8
 73
4
 74
0
 40
0
 40
0
 40
0
 40
0
 40
1
 40
1
 40
1
 40
1
 10
231.125001
 20
41.125010
 30
0.0
 10
231.124995
 20
40.848865
 30
0.0
 10
231.348854
 20
40.625001
 30
0.0
 10
231.625000
 20
40.625001
 30
0.0
  0
LWPOLYLINE
  5
39d
100
AcDbEntity
  8
Plate
 62
7
100
AcDbPolyline
 90
2
 70
0
 10
231.125001
 20
54.124995
 30
0.0
 10
231.125001
 20
41.125010
 30
0.0
  0
LWPOLYLINE
  5
39e
100
AcDbEntity
  8
Plate
 62
7
100
AcDbPolyline
 90
1
 70
1
 10
231.625000
 20
40.625001
 30
0.0
  0
SPLINE
  5
39f
100
AcDbEntity
  8
Plate
 62
7
100
AcDbSpline
 70
8
 71
3
 72
8
 73
4
 74
0
 40
0
 40
0
 40
0
 40
0
 40
1
 40
1
 40
1
 40
1
 10
32.693750
 20
21.575001
 30
0.0
 10
32.969896
 20
21.575001
 30
0.0
 10
33.193755
 20
21.798865
 30
0.0
 10
33.193749
 20
22.075010
 30
0.0
  0
LWPOLYLINE
  5
3a0
100
AcDbEntity
  8
Plate
 62
7
100
AcDbPolyline
 90
2
 70
0
 10
19.693750
 20
21.575001
 30
0.0
 10
32.693750
 20
21.575001
 30
0.0
  0
SPLINE
  5
3a1
100
AcDbEntity
  8
Plate
 62
7
100
AcDbSpline
 70
8
 71
3
 72
8
 73
4
 74
0
 40
0
 40
0
 40
0
 40
0
 40
1
 40
1
 40
1
 40
1
 10
33.193749
 20
35.074995
 30
0.0
 10
33.193755
 20
35.351140
 30
0.0
 10
32.969896
 20
35.575004
 30
0.0
 10
32.693750
 20
35.575004
 30
0.0
  0
LWPOLYLINE
  5
3a2
100
AcDbEntity
  8
Plate
 62
7
100
AcDbPolyline
 90
2
 70
0
 10
33.193749
 20
22.075010
 30
0.0
 10
33.193749
 20
35.074995
 30
0.0
  0
SPLINE
  5
3a3
100
AcDbEntity
  8
Plate
 62
7
100
AcDbSpline
 70
8
 71
3
 72
8
 73
4
 74
0
 40
0
 40
0
 40
0
 40
0
 40
1
 40
1
 40
1
 40
1
 10
19.693750
 20
35.575004
 30
0.0
 10
19.417604
 20
35.575004
 30
0.0
 10
19.193745
 20
35.351140
 30
0.0
 10
19.193750
 20
35.074995
 30
0.0
  0
LWPOLYLINE
  5
3a4
100
AcDbEntity
  8
Plate
 62
7
100
AcDbPolyline
 90
2
 70
0
 10
32.693750
 20
35.575004
 30
0.0
 10
19.693750
 20
35.575004
 30
0.0
  0
SPLINE
  5
3a5
100
AcDbEntity
  8
Plate
 62
7
100
AcDbSpline
 70
8
 71
3
 72
8
 73
4
 74
0
 40
0
 40
0
 40
0
 40
0
 40
1
 40
1
 40
1
 40
1
 10
19.193750
 20
22.075010
 30
0.0
 10
19.193745
 20
21.798865
 30
0.0
 10
19.417604
 20
21.575001
 30
0.0
 10
19.693750
 20
21.575001
 30
0.0
  0
LWPOLYLINE
  5
3a6
100
AcDbEntity
  8
Plate
 62
7
100
AcDbPolyline
 90
2
 70
0
 10
19.193750
 20
35.074995
 30
0.0
 10
19.193750
 20
22.075010
 30
0.0
  0
LWPOLYLINE
  5
3a7
100
AcDbEntity
  8
Plate
 62
7
100
AcDbPolyline
 90
1
 70
1
 10
19.693750
 20
21.575001
 30
0.0
  0
SPLINE
  5
3a8
100
AcDbEntity
  8
Plate
 62
7
100
AcDbSpline
 70
8
 71
3
 72
8
 73
4
 74
0
 40
0
 40
0
 40
0
 40
0
 40
1
 40
1
 40
1
 40
1
 10
56.506250
 20
21.575001
 30
0.0
 10
56.782396
 20
21.575001
 30
0.0
 10
57.006255
 20
21.798865
 30
0.0
 10
57.006249
 20
22.075010
 30
0.0
  0
LWPOLYLINE
  5
3a9
100
AcDbEntity
  8
Plate
 62
7
100
AcDbPolyline
 90
2
 70
0
 10
43.506250
 20
21.575001
 30
0.0
 10
56.506250
 20
21.575001
 30
0.0
  0
SPLINE
  5
3aa
100
AcDbEntity
  8
Plate
 62
7
100
AcDbSpline
 70
8
 71
3
 72
8
 73
4
 74
0
 40
0
 40
0
 40
0
 40
0
 40
1
 40
1
 40
1
 40
1
 10
57.006249
 20
35.074995
 30
0.0
 10
57.006255
 20
35.351140
 30
0.0
 10
56.782396
 20
35.575004
 30
0.0
 10
56.506250
 20
35.575004
 30
0.0
  0
LWPOLYLINE
  5
3ab
100
AcDbEntity
  8
Plate
 62
7
100
AcDbPolyline
 90
2
 70
0
 10
57.006249
 20
22.075010
 30
0.0
 10
57.006249
 20
35.074995
 30
0.0
  0
SPLINE
  5
3ac
100
AcDbEntity
  8
Plate
 62
7
100
AcDbSpline
 70
8
 71
3
 72
8
 73
4
 74
0
 40
0
 40
0
 40
0
 40
0
 40
1
 40
1
 40
1
 40
1
 10
43.506250
 20
35.575004
 30
0.0
 10
43.230104
 20
35.575004
 30
0.0
 10
43.006245
 20
35.351140
 30
0.0
 10
43.006251
 20
35.074995
 30
0.0
  0
LWPOLYLINE
  5
3ad
100
AcDbEntity
  8
Plate
 62
7
100
AcDbPolyline
 90
2
 70
0
 10
56.506250
 20
35.575004
 30
0.0
 10
43.506250
 20
35.575004
 30
0.0
  0
SPLINE
  5
3ae
100
AcDbEntity
  8
Plate
 62
7
100
AcDbSpline
 70
8
 71
3
 72
8
 73
4
 74
0
 40
0
 40
0
 40
0
 40
0
 40
1
 40
1
 40
1
 40
1
 10
43.006251
 20
22.075010
 30
0.0
 10
43.006245
 20
21.798865
 30
0.0
 10
43.230104
 20
21.575001
 30
0.0
 10
43.506250
 20
21.575001
 30
0.0
  0
LWPOLYLINE
  5
3af
100
AcDbEntity
  8
Plate
 62
7
100
AcDbPolyline
 90
2
 70
0
 10
43.006251
 20
35.074995
 30
0.0
 10
43.006251
 20
22.075010
 30
0.0
  0
LWPOLYLINE
  5
3b0
100
AcDbEntity
  8
Plate
 62
7
100
AcDbPolyline
 90
1
 70
1
 10
43.506250
 20
21.575001
 30
0.0
  0
SPLINE
  5
3b1
100
AcDbEntity
  8
Plate
 62
7
100
AcDbSpline
 70
8
 71
3
 72
8
 73
4
 74
0
 40
0
 40
0
 40
0
 40
0
 40
1
 40
1
 40
1
 40
1
 10
80.318750
 20
21.575001
 30
0.0
 10
80.594896
 20
21.575001
 30
0.0
 10
80.818755
 20
21.798865
 30
0.0
 10
80.818749
 20
22.075010
 30
0.0
  0
LWPOLYLINE
  5
3b2
100
AcDbEntity
  8
Plate
 62
7
100
AcDbPolyline
 90
2
 70
0
 10
67.318750
 20
21.575001
 30
0.0
 10
80.318750
 20
21.575001
 30
0.0
  0
SPLINE
  5
3b3
100
AcDbEntity
  8
Plate
 62
7
100
AcDbSpline
 70
8
 71
3
 72
8
 73
4
 74
0
 40
0
 40
0
 40
0
 40
0
 40
1
 40
1
 40
1
 40
1
 10
80.818749
 20
35.074995
 30
0.0
 10
80.818755
 20
35.351140
 30
0.0
 10
80.594896
 20
35.575004
 30
0.0
 10
80.318750
 20
35.575004
 30
0.0
  0
LWPOLYLINE
  5
3b4
100
AcDbEntity
  8
Plate
 62
7
100
AcDbPolyline
 90
2
 70
0
 10
80.818749
 20
22.075010
 30
0.0
 10
80.818749
 20
35.074995
 30
0.0
  0
SPLINE
  5
3b5
100
AcDbEntity
  8
Plate
 62
7
100
AcDbSpline
 70
8
 71
3
 72
8
 73
4
 74
0
 40
0
 40
0
 40
0
 40
0
 40
1
 40
1
 40
1
 40
1
 10
67.318750
 20
35.575004
 30
0.0
 10
67.042604
 20
35.575004
 30
0.0
 10
66.818745
 20
35.351140
 30
0.0
 10
66.818751
 20
35.074995
 30
0.0
  0
LWPOLYLINE
  5
3b6
100
AcDbEntity
  8
Plate
 62
7
100
AcDbPolyline
 90
2
 70
0
 10
80.318750
 20
35.575004
 30
0.0
 10
67.318750
 20
35.575004
 30
0.0
  0
SPLINE
  5
3b7
100
AcDbEntity
  8
Plate
 62
7
100
AcDbSpline
 70
8
 71
3
 72
8
 73
4
 74
0
 40
0
 40
0
 40
0
 40
0
 40
1
 40
1
 40
1
 40
1
 10
66.818751
 20
22.075010
 30
0.0
 10
66.818745
 20
21.798865
 30
0.0
 10
67.042604
 20
21.575001
 30
0.0
 10
67.318750
 20
21.575001
 30
0.0
  0
LWPOLYLINE
  5
3b8
100
AcDbEntity
  8
Plate
 62
7
100
AcDbPolyline
 90
2
 70
0
 10
66.818751
 20
35.074995
 30
0.0
 10
66.818751
 20
22.075010
 30
0.0
  0
LWPOLYLINE
  5
3b9
100
AcDbEntity
  8
Plate
 62
7
100
AcDbPolyline
 90
1
 70
1
 10
67.318750
 20
21.575001
 30
0.0
  0
SPLINE
  5
3ba
100
AcDbEntity
  8
Plate
 62
7
100
AcDbSpline
 70
8
 71
3
 72
8
 73
4
 74
0
 40
0
 40
0
 40
0
 40
0
 40
1
 40
1
 40
1
 40
1
 10
270.818742
 20
40.625001
 30
0.0
 10
271.094888
 20
40.625001
 30
0.0
 10
271.318752
 20
40.848865
 30
0.0
 10
271.318752
 20
41.125010
 30
0.0
  0
LWPOLYLINE
  5
3bb
100
AcDbEntity
  8
Plate
 62
7
100
AcDbPolyline
 90
2
 70
0
 10
257.818744
 20
40.625001
 30
0.0
 10
270.818742
 20
40.625001
 30
0.0
  0
SPLINE
  5
3bc
100
AcDbEntity
  8
Plate
 62
7
100
AcDbSpline
 70
8
 71
3
 72
8
 73
4
 74
0
 40
0
 40
0
 40
0
 40
0
 40
1
 40
1
 40
1
 40
1
 10
271.318752
 20
54.124995
 30
0.0
 10
271.318752
 20
54.401140
 30
0.0
 10
271.094888
 20
54.625004
 30
0.0
 10
270.818742
 20
54.625004
 30
0.0
  0
LWPOLYLINE
  5
3bd
100
AcDbEntity
  8
Plate
 62
7
100
AcDbPolyline
 90
2
 70
0
 10
271.318752
 20
41.125010
 30
0.0
 10
271.318752
 20
54.124995
 30
0.0
  0
SPLINE
  5
3be
100
AcDbEntity
  8
Plate
 62
7
100
AcDbSpline
 70
8
 71
3
 72
8
 73
4
 74
0
 40
0
 40
0
 40
0
 40
0
 40
1
 40
1
 40
1
 40
1
 10
257.818744
 20
54.625004
 30
0.0
 10
257.542599
 20
54.625004
 30
0.0
 10
257.318740
 20
54.401140
 30
0.0
 10
257.318745
 20
54.124995
 30
0.0
  0
LWPOLYLINE
  5
3bf
100
AcDbEntity
  8
Plate
 62
7
100
AcDbPolyline
 90
2
 70
0
 10
270.818742
 20
54.625004
 30
0.0
 10
257.818744
 20
54.625004
 30
0.0
  0
SPLINE
  5
3c0
100
AcDbEntity
  8
Plate
 62
7
100
AcDbSpline
 70
8
 71
3
 72
8
 73
4
 74
0
 40
0
 40
0
 40
0
 40
0
 40
1
 40
1
 40
1
 40
1
 10
257.318745
 20
41.125010
 30
0.0
 10
257.318740
 20
40.848865
 30
0.0
 10
257.542599
 20
40.625001
 30
0.0
 10
257.818744
 20
40.625001
 30
0.0
  0
LWPOLYLINE
  5
3c1
100
AcDbEntity
  8
Plate
 62
7
100
AcDbPolyline
 90
2
 70
0
 10
257.318745
 20
54.124995
 30
0.0
 10
257.318745
 20
41.125010
 30
0.0
  0
LWPOLYLINE
  5
3c2
100
AcDbEntity
  8
Plate
 62
7
100
AcDbPolyline
 90
1
 70
1
 10
257.818744
 20
40.625001
 30
0.0
  0
SPLINE
  5
3c3
100
AcDbEntity
  8
Plate
 62
7
100
AcDbSpline
 70
8
 71
3
 72
8
 73
4
 74
0
 40
0
 40
0
 40
0
 40
0
 40
1
 40
1
 40
1
 40
1
 10
301.775019
 20
35.862501
 30
0.0
 10
302.051164
 20
35.862501
 30
0.0
 10
302.275002
 20
36.086365
 30
0.0
 10
302.275002
 20
36.362510
 30
0.0
  0
LWPOLYLINE
  5
3c4
100
AcDbEntity
  8
Plate
 62
7
100
AcDbPolyline
 90
2
 70
0
 10
288.775008
 20
35.862501
 30
0.0
 10
301.775019
 20
35.862501
 30
0.0
  0
SPLINE
  5
3c5
100
AcDbEntity
  8
Plate
 62
7
100
AcDbSpline
 70
8
 71
3
 72
8
 73
4
 74
0
 40
0
 40
0
 40
0
 40
0
 40
1
 40
1
 40
1
 40
1
 10
302.275002
 20
49.362495
 30
0.0
 10
302.275002
 20
49.638640
 30
0.0
 10
302.051164
 20
49.862504
 30
0.0
 10
301.775019
 20
49.862504
 30
0.0
  0
LWPOLYLINE
  5
3c6
100
AcDbEntity
  8
Plate
 62
7
100
AcDbPolyline
 90
2
 70
0
 10
302.275002
 20
36.362510
 30
0.0
 10
302.275002
 20
49.362495
 30
0.0
  0
SPLINE
  5
3c7
100
AcDbEntity
  8
Plate
 62
7
100
AcDbSpline
 70
8
 71
3
 72
8
 73
4
 74
0
 40
0
 40
0
 40
0
 40
0
 40
1
 40
1
 40
1
 40
1
 10
288.775008
 20
49.862504
 30
0.0
 10
288.498862
 20
49.862504
 30
0.0
 10
288.274998
 20
49.638640
 30
0.0
 10
288.274998
 20
49.362495
 30
0.0
  0
LWPOLYLINE
  5
3c8
100
AcDbEntity
  8
Plate
 62
7
100
AcDbPolyline
 90
2
 70
0
 10
301.775019
 20
49.862504
 30
0.0
 10
288.775008
 20
49.862504
 30
0.0
  0
SPLINE
  5
3c9
100
AcDbEntity
  8
Plate
 62
7
100
AcDbSpline
 70
8
 71
3
 72
8
 73
4
 74
0
 40
0
 40
0
 40
0
 40
0
 40
1
 40
1
 40
1
 40
1
 10
288.274998
 20
36.362510
 30
0.0
 10
288.274998
 20
36.086365
 30
0.0
 10
288.498862
 20
35.862501
 30
0.0
 10
288.775008
 20
35.862501
 30
0.0
  0
LWPOLYLINE
  5
3ca
100
AcDbEntity
  8
Plate
 62
7
100
AcDbPolyline
 90
2
 70
0
 10
288.274998
 20
49.362495
 30
0.0
 10
288.274998
 20
36.362510
 30
0.0
  0
LWPOLYLINE
  5
3cb
100
AcDbEntity
  8
Plate
 62
7
100
AcDbPolyline
 90
1
 70
1
 10
288.775008
 20
35.862501
 30
0.0
  0
SPLINE
  5
3cc
100
AcDbEntity
  8
Plate
 62
7
100
AcDbSpline
 70
8
 71
3
 72
8
 73
4
 74
0
 40
0
 40
0
 40
0
 40
0
 40
1
 40
1
 40
1
 40
1
 10
282.724992
 20
16.812501
 30
0.0
 10
283.001138
 20
16.812501
 30
0.0
 10
283.225002
 20
17.036365
 30
0.0
 10
283.225002
 20
17.312510
 30
0.0
  0
LWPOLYLINE
  5
3cd
100
AcDbEntity
  8
Plate
 62
7
100
AcDbPolyline
 90
2
 70
0
 10
269.725008
 20
16.812501
 30
0.0
 10
282.724992
 20
16.812501
 30
0.0
  0
SPLINE
  5
3ce
100
AcDbEntity
  8
Plate
 62
7
100
AcDbSpline
 70
8
 71
3
 72
8
 73
4
 74
0
 40
0
 40
0
 40
0
 40
0
 40
1
 40
1
 40
1
 40
1
 10
283.225002
 20
30.312495
 30
0.0
 10
283.225002
 20
30.588640
 30
0.0
 10
283.001138
 20
30.812504
 30
0.0
 10
282.724992
 20
30.812504
 30
0.0
  0
LWPOLYLINE
  5
3cf
100
AcDbEntity
  8
Plate
 62
7
100
AcDbPolyline
 90
2
 70
0
 10
283.225002
 20
17.312510
 30
0.0
 10
283.225002
 20
30.312495
 30
0.0
  0
SPLINE
  5
3d0
100
AcDbEntity
  8
Plate
 62
7
100
AcDbSpline
 70
8
 71
3
 72
8
 73
4
 74
0
 40
0
 40
0
 40
0
 40
0
 40
1
 40
1
 40
1
 40
1
 10
269.725008
 20
30.812504
 30
0.0
 10
269.448862
 20
30.812504
 30
0.0
 10
269.224998
 20
30.588640
 30
0.0
 10
269.224998
 20
30.312495
 30
0.0
  0
LWPOLYLINE
  5
3d1
100
AcDbEntity
  8
Plate
 62
7
100
AcDbPolyline
 90
2
 70
0
 10
282.724992
 20
30.812504
 30
0.0
 10
269.725008
 20
30.812504
 30
0.0
  0
SPLINE
  5
3d2
100
AcDbEntity
  8
Plate
 62
7
100
AcDbSpline
 70
8
 71
3
 72
8
 73
4
 74
0
 40
0
 40
0
 40
0
 40
0
 40
1
 40
1
 40
1
 40
1
 10
269.224998
 20
17.312510
 30
0.0
 10
269.224998
 20
17.036365
 30
0.0
 10
269.448862
 20
16.812501
 30
0.0
 10
269.725008
 20
16.812501
 30
0.0
  0
LWPOLYLINE
  5
3d3
100
AcDbEntity
  8
Plate
 62
7
100
AcDbPolyline
 90
2
 70
0
 10
269.224998
 20
30.312495
 30
0.0
 10
269.224998
 20
17.312510
 30
0.0
  0
LWPOLYLINE
  5
3d4
100
AcDbEntity
  8
Plate
 62
7
100
AcDbPolyline
 90
1
 70
1
 10
269.725008
 20
16.812501
 30
0.0
  0
SPLINE
  5
3d5
100
AcDbEntity
  8
Plate
 62
7
100
AcDbSpline
 70
8
 71
3
 72
8
 73
4
 74
0
 40
0
 40
0
 40
0
 40
0
 40
1
 40
1
 40
1
 40
1
 10
301.774992
 20
16.812501
 30
0.0
 10
302.051138
 20
16.812501
 30
0.0
 10
302.274975
 20
17.036365
 30
0.0
 10
302.274975
 20
17.312510
 30
0.0
  0
LWPOLYLINE
  5
3d6
100
AcDbEntity
  8
Plate
 62
7
100
AcDbPolyline
 90
2
 70
0
 10
288.774981
 20
16.812501
 30
0.0
 10
301.774992
 20
16.812501
 30
0.0
  0
SPLINE
  5
3d7
100
AcDbEntity
  8
Plate
 62
7
100
AcDbSpline
 70
8
 71
3
 72
8
 73
4
 74
0
 40
0
 40
0
 40
0
 40
0
 40
1
 40
1
 40
1
 40
1
 10
302.274975
 20
30.312495
 30
0.0
 10
302.274975
 20
30.588640
 30
0.0
 10
302.051138
 20
30.812504
 30
0.0
 10
301.774992
 20
30.812504
 30
0.0
  0
LWPOLYLINE
  5
3d8
100
AcDbEntity
  8
Plate
 62
7
100
AcDbPolyline
 90
2
 70
0
 10
302.274975
 20
17.312510
 30
0.0
 10
302.274975
 20
30.312495
 30
0.0
  0
SPLINE
  5
3d9
100
AcDbEntity
  8
Plate
 62
7
100
AcDbSpline
 70
8
 71
3
 72
8
 73
4
 74
0
 40
0
 40
0
 40
0
 40
0
 40
1
 40
1
 40
1
 40
1
 10
288.774981
 20
30.812504
 30
0.0
 10
288.498836
 20
30.812504
 30
0.0
 10
288.274972
 20
30.588640
 30
0.0
 10
288.274972
 20
30.312495
 30
0.0
  0
LWPOLYLINE
  5
3da
100
AcDbEntity
  8
Plate
 62
7
100
AcDbPolyline
 90
2
 70
0
 10
301.774992
 20
30.812504
 30
0.0
 10
288.774981
 20
30.812504
 30
0.0
  0
SPLINE
  5
3db
100
AcDbEntity
  8
Plate
 62
7
100
AcDbSpline
 70
8
 71
3
 72
8
 73
4
 74
0
 40
0
 40
0
 40
0
 40
0
 40
1
 40
1
 40
1
 40
1
 10
288.274972
 20
17.312510
 30
0.0
 10
288.274972
 20
17.036365
 30
0.0
 10
288.498836
 20
16.812501
 30
0.0
 10
288.774981
 20
16.812501
 30
0.0
  0
LWPOLYLINE
  5
3dc
100
AcDbEntity
  8
Plate
 62
7
100
AcDbPolyline
 90
2
 70
0
 10
288.274972
 20
30.312495
 30
0.0
 10
288.274972
 20
17.312510
 30
0.0
  0
LWPOLYLINE
  5
3dd
100
AcDbEntity
  8
Plate
 62
7
100
AcDbPolyline
 90
1
 70
1
 10
288.774981
 20
16.812501
 30
0.0
  0
SPLINE
  5
3de
100
AcDbEntity
  8
Plate
 62
7
100
AcDbSpline
 70
8
 71
3
 72
8
 73
4
 74
0
 40
0
 40
0
 40
0
 40
0
 40
1
 40
1
 40
1
 40
1
 10
320.824992
 20
16.812501
 30
0.0
 10
321.101138
 20
16.812501
 30
0.0
 10
321.325002
 20
17.036365
 30
0.0
 10
321.325002
 20
17.312510
 30
0.0
  0
LWPOLYLINE
  5
3df
100
AcDbEntity
  8
Plate
 62
7
100
AcDbPolyline
 90
2
 70
0
 10
307.825008
 20
16.812501
 30
0.0
 10
320.824992
 20
16.812501
 30
0.0
  0
SPLINE
  5
3e0
100
AcDbEntity
  8
Plate
 62
7
100
AcDbSpline
 70
8
 71
3
 72
8
 73
4
 74
0
 40
0
 40
0
 40
0
 40
0
 40
1
 40
1
 40
1
 40
1
 10
321.325002
 20
30.312495
 30
0.0
 10
321.325002
 20
30.588640
 30
0.0
 10
321.101138
 20
30.812504
 30
0.0
 10
320.824992
 20
30.812504
 30
0.0
  0
LWPOLYLINE
  5
3e1
100
AcDbEntity
  8
Plate
 62
7
100
AcDbPolyline
 90
2
 70
0
 10
321.325002
 20
17.312510
 30
0.0
 10
321.325002
 20
30.312495
 30
0.0
  0
SPLINE
  5
3e2
100
AcDbEntity
  8
Plate
 62
7
100
AcDbSpline
 70
8
 71
3
 72
8
 73
4
 74
0
 40
0
 40
0
 40
0
 40
0
 40
1
 40
1
 40
1
 40
1
 10
307.825008
 20
30.812504
 30
0.0
 10
307.548862
 20
30.812504
 30
0.0
 10
307.324998
 20
30.588640
 30
0.0
 10
307.324998
 20
30.312495
 30
0.0
  0
LWPOLYLINE
  5
3e3
100
AcDbEntity
  8
Plate
 62
7
100
AcDbPolyline
 90
2
 70
0
 10
320.824992
 20
30.812504
 30
0.0
 10
307.825008
 20
30.812504
 30
0.0
  0
SPLINE
  5
3e4
100
AcDbEntity
  8
Plate
 62
7
100
AcDbSpline
 70
8
 71
3
 72
8
 73
4
 74
0
 40
0
 40
0
 40
0
 40
0
 40
1
 40
1
 40
1
 40
1
 10
307.324998
 20
17.312510
 30
0.0
 10
307.324998
 20
17.036365
 30
0.0
 10
307.548862
 20
16.812501
 30
0.0
 10
307.825008
 20
16.812501
 30
0.0
  0
LWPOLYLINE
  5
3e5
100
AcDbEntity
  8
Plate
 62
7
100
AcDbPolyline
 90
2
 70
0
 10
307.324998
 20
30.312495
 30
0.0
 10
307.324998
 20
17.312510
 30
0.0
  0
LWPOLYLINE
  5
3e6
100
AcDbEntity
  8
Plate
 62
7
100
AcDbPolyline
 90
1
 70
1
 10
307.825008
 20
16.812501
 30
0.0
  0
SPLINE
  5
3e7
100
AcDbEntity
  8
Plate
 62
7
100
AcDbSpline
 70
8
 71
3
 72
8
 73
4
 74
0
 40
0
 40
0
 40
0
 40
0
 40
1
 40
1
 40
1
 40
1
 10
325.587492
 20
40.625001
 30
0.0
 10
325.863638
 20
40.625001
 30
0.0
 10
326.087502
 20
40.848865
 30
0.0
 10
326.087502
 20
41.125010
 30
0.0
  0
LWPOLYLINE
  5
3e8
100
AcDbEntity
  8
Plate
 62
7
100
AcDbPolyline
 90
2
 70
0
 10
312.587508
 20
40.625001
 30
0.0
 10
325.587492
 20
40.625001
 30
0.0
  0
SPLINE
  5
3e9
100
AcDbEntity
  8
Plate
 62
7
100
AcDbSpline
 70
8
 71
3
 72
8
 73
4
 74
0
 40
0
 40
0
 40
0
 40
0
 40
1
 40
1
 40
1
 40
1
 10
326.087502
 20
54.124995
 30
0.0
 10
326.087502
 20
54.401140
 30
0.0
 10
325.863638
 20
54.625004
 30
0.0
 10
325.587492
 20
54.625004
 30
0.0
  0
LWPOLYLINE
  5
3ea
100
AcDbEntity
  8
Plate
 62
7
100
AcDbPolyline
 90
2
 70
0
 10
326.087502
 20
41.125010
 30
0.0
 10
326.087502
 20
54.124995
 30
0.0
  0
SPLINE
  5
3eb
100
AcDbEntity
  8
Plate
 62
7
100
AcDbSpline
 70
8
 71
3
 72
8
 73
4
 74
0
 40
0
 40
0
 40
0
 40
0
 40
1
 40
1
 40
1
 40
1
 10
312.587508
 20
54.625004
 30
0.0
 10
312.311362
 20
54.625004
 30
0.0
 10
312.087498
 20
54.401140
 30
0.0
 10
312.087498
 20
54.124995
 30
0.0
  0
LWPOLYLINE
  5
3ec
100
AcDbEntity
  8
Plate
 62
7
100
AcDbPolyline
 90
2
 70
0
 10
325.587492
 20
54.625004
 30
0.0
 10
312.587508
 20
54.625004
 30
0.0
  0
SPLINE
  5
3ed
100
AcDbEntity
  8
Plate
 62
7
100
AcDbSpline
 70
8
 71
3
 72
8
 73
4
 74
0
 40
0
 40
0
 40
0
 40
0
 40
1
 40
1
 40
1
 40
1
 10
312.087498
 20
41.125010
 30
0.0
 10
312.087498
 20
40.848865
 30
0.0
 10
312.311362
 20
40.625001
 30
0.0
 10
312.587508
 20
40.625001
 30
0.0
  0
LWPOLYLINE
  5
3ee
100
AcDbEntity
  8
Plate
 62
7
100
AcDbPolyline
 90
2
 70
0
 10
312.087498
 20
54.124995
 30
0.0
 10
312.087498
 20
41.125010
 30
0.0
  0
LWPOLYLINE
  5
3ef
100
AcDbEntity
  8
Plate
 62
7
100
AcDbPolyline
 90
1
 70
1
 10
312.587508
 20
40.625001
 30
0.0
  0
SPLINE
  5
3f0
100
AcDbEntity
  8
Plate
 62
7
100
AcDbSpline
 70
8
 71
3
 72
8
 73
4
 74
0
 40
0
 40
0
 40
0
 40
0
 40
1
 40
1
 40
1
 40
1
 10
325.587492
 20
59.675001
 30
0.0
 10
325.863638
 20
59.675001
 30
0.0
 10
326.087502
 20
59.898865
 30
0.0
 10
326.087502
 20
60.175010
 30
0.0
  0
LWPOLYLINE
  5
3f1
100
AcDbEntity
  8
Plate
 62
7
100
AcDbPolyline
 90
2
 70
0
 10
312.587508
 20
59.675001
 30
0.0
 10
325.587492
 20
59.675001
 30
0.0
  0
SPLINE
  5
3f2
100
AcDbEntity
  8
Plate
 62
7
100
AcDbSpline
 70
8
 71
3
 72
8
 73
4
 74
0
 40
0
 40
0
 40
0
 40
0
 40
1
 40
1
 40
1
 40
1
 10
326.087502
 20
73.174995
 30
0.0
 10
326.087502
 20
73.451140
 30
0.0
 10
325.863638
 20
73.675004
 30
0.0
 10
325.587492
 20
73.675004
 30
0.0
  0
LWPOLYLINE
  5
3f3
100
AcDbEntity
  8
Plate
 62
7
100
AcDbPolyline
 90
2
 70
0
 10
326.087502
 20
60.175010
 30
0.0
 10
326.087502
 20
73.174995
 30
0.0
  0
SPLINE
  5
3f4
100
AcDbEntity
  8
Plate
 62
7
100
AcDbSpline
 70
8
 71
3
 72
8
 73
4
 74
0
 40
0
 40
0
 40
0
 40
0
 40
1
 40
1
 40
1
 40
1
 10
312.587508
 20
73.675004
 30
0.0
 10
312.311362
 20
73.675004
 30
0.0
 10
312.087498
 20
73.451140
 30
0.0
 10
312.087498
 20
73.174995
 30
0.0
  0
LWPOLYLINE
  5
3f5
100
AcDbEntity
  8
Plate
 62
7
100
AcDbPolyline
 90
2
 70
0
 10
325.587492
 20
73.675004
 30
0.0
 10
312.587508
 20
73.675004
 30
0.0
  0
SPLINE
  5
3f6
100
AcDbEntity
  8
Plate
 62
7
100
AcDbSpline
 70
8
 71
3
 72
8
 73
4
 74
0
 40
0
 40
0
 40
0
 40
0
 40
1
 40
1
 40
1
 40
1
 10
312.087498
 20
60.175010
 30
0.0
 10
312.087498
 20
59.898865
 30
0.0
 10
312.311362
 20
59.675001
 30
0.0
 10
312.587508
 20
59.675001
 30
0.0
  0
LWPOLYLINE
  5
3f7
100
AcDbEntity
  8
Plate
 62
7
100
AcDbPolyline
 90
2
 70
0
 10
312.087498
 20
73.174995
 30
0.0
 10
312.087498
 20
60.175010
 30
0.0
  0
LWPOLYLINE
  5
3f8
100
AcDbEntity
  8
Plate
 62
7
100
AcDbPolyline
 90
1
 70
1
 10
312.587508
 20
59.675001
 30
0.0
  0
ENDSEC
  0
SECTION
  2
OBJECTS
  0
DICTIONARY
  5
C
330
0
100
AcDbDictionary
  3
ACAD_GROUP
350
D
  3
ACAD_MLINESTYLE
350
17
  0
DICTIONARY
  5
D
330
C
100
AcDbDictionary
  0
DICTIONARY
  5
1A
330
C
100
AcDbDictionary
  0
DICTIONARY
  5
17
330
C
100
AcDbDictionary
  3
STANDARD
350
18
  0
DICTIONARY
  5
19
330
C
100
AcDbDictionary
  0
ENDSEC
  0
EOF
