  0
SECTION
  2
HEADER
  9
$ACADVER
  1
AC1014
  9
$HANDSEED
  5
FFFF
  9
$MEASUREMENT
 70
     1
  0
ENDSEC
  0
SECTION
  2
TABLES
  0
TABLE
  2
VPORT
  5
8
330
0
100
AcDbSymbolTable
 70
     4
  0
VPORT
  5
2E
330
8
100
AcDbSymbolTableRecord
100
AcDbViewportTableRecord
  2
*ACTIVE
 70
     0
 10
0.0
 20
0.0
 11
1.0
 21
1.0
 12
210.0
 22
148.5
 13
0.0
 23
0.0
 14
10.0
 24
10.0
 15
10.0
 25
10.0
 16
0.0
 26
0.0
 36
1.0
 17
0.0
 27
0.0
 37
0.0
 40
341.0
 41
1.24
 42
50.0
 43
0.0
 44
0.0
 50
0.0
 51
0.0
 71
     0
 72
   100
 73
     1
 74
     3
 75
     0
 76
     0
 77
     0
 78
     0
  0
ENDTAB
  0
TABLE
  2
LTYPE
  5
5
330
0
100
AcDbSymbolTable
 70
     1
  0
LTYPE
  5
14
330
5
100
AcDbSymbolTableRecord
100
AcDbLinetypeTableRecord
  2
BYBLOCK
 70
     0
  3

 72
    65
 73
     0
 40
0.0
  0
LTYPE
  5
15
330
5
100
AcDbSymbolTableRecord
100
AcDbLinetypeTableRecord
  2
BYLAYER
 70
     0
  3

 72
    65
 73
     0
 40
0.0
  0
LTYPE
  5
16
330
5
100
AcDbSymbolTableRecord
100
AcDbLinetypeTableRecord
  2
CONTINUOUS
 70
     0
  3
Solid line
 72
    65
 73
     0
 40
0.0
  0
ENDTAB
  0
TABLE
  2
LAYER
  5
2
100
AcDbSymbolTable
 70
2
  0
LAYER
  5
50
100
AcDbSymbolTableRecord
100
AcDbLayerTableRecord
  2
0
 70
0
  6
CONTINUOUS
  0
LAYER
  5
51
100
AcDbSymbolTableRecord
100
AcDbLayerTableRecord
  2
WindowLarge
 70
0
  6
CONTINUOUS
  0
ENDTAB
  0
TABLE
  2
STYLE
  5
3
330
0
100
AcDbSymbolTable
 70
     1
  0
STYLE
  5
11
330
3
100
AcDbSymbolTableRecord
100
AcDbTextStyleTableRecord
  2
STANDARD
 70
     0
 40
0.0
 41
1.0
 50
0.0
 71
     0
 42
2.5
  3
txt
  4

  0
ENDTAB
  0
TABLE
  2
VIEW
  5
6
330
0
100
AcDbSymbolTable
 70
     0
  0
ENDTAB
  0
TABLE
  2
UCS
  5
7
330
0
100
AcDbSymbolTable
 70
     0
  0
ENDTAB
  0
TABLE
  2
APPID
  5
9
330
0
100
AcDbSymbolTable
 70
     2
  0
APPID
  5
12
330
9
100
AcDbSymbolTableRecord
100
AcDbRegAppTableRecord
  2
ACAD
 70
     0
  0
ENDTAB
  0
TABLE
  2
DIMSTYLE
  5
A
330
0
100
AcDbSymbolTable
 70
     1
  0
DIMSTYLE
105
27
330
A
100
AcDbSymbolTableRecord
100
AcDbDimStyleTableRecord
  2
ISO-25
 70
     0
  3

  4

  5

  6

  7

 40
1.0
 41
2.5
 42
0.625
 43
3.75
 44
1.25
 45
0.0
 46
0.0
 47
0.0
 48
0.0
140
2.5
141
2.5
142
0.0
143
0.03937007874016
144
1.0
145
0.0
146
1.0
147
0.625
 71
     0
 72
     0
 73
     0
 74
     0
 75
     0
 76
     0
 77
     1
 78
     8
170
     0
171
     3
172
     1
173
     0
174
     0
175
     0
176
     0
177
     0
178
     0
270
     2
271
     2
272
     2
273
     2
274
     3
340
11
275
     0
280
     0
281
     0
282
     0
283
     0
284
     8
285
     0
286
     0
287
     3
288
     0
  0
ENDTAB
  0
TABLE
  2
BLOCK_RECORD
  5
1
330
0
100
AcDbSymbolTable
 70
     1
  0
BLOCK_RECORD
  5
1F
330
1
100
AcDbSymbolTableRecord
100
AcDbBlockTableRecord
  2
*MODEL_SPACE
  0
BLOCK_RECORD
  5
1B
330
1
100
AcDbSymbolTableRecord
100
AcDbBlockTableRecord
  2
*PAPER_SPACE
  0
ENDTAB
  0
ENDSEC
  0
SECTION
  2
BLOCKS
  0
BLOCK
  5
20
330
1F
100
AcDbEntity
  8
0
100
AcDbBlockBegin
  2
*MODEL_SPACE
 70
     0
 10
0.0
 20
0.0
 30
0.0
  3
*MODEL_SPACE
  1

  0
ENDBLK
  5
21
330
1F
100
AcDbEntity
  8
0
100
AcDbBlockEnd
  0
BLOCK
  5
1C
330
1B
100
AcDbEntity
 67
     1
  8
0
100
AcDbBlockBegin
  2
*PAPER_SPACE
  1

  0
ENDBLK
  5
1D
330
1B
100
AcDbEntity
 67
     1
  8
0
100
AcDbBlockEnd
  0
ENDSEC
  0
SECTION
  2
ENTITIES
  0
SPLINE
  5
100
100
AcDbEntity
  8
WindowLarge
 62
7
100
AcDbSpline
 70
8
 71
3
 72
8
 73
4
 74
0
 40
0
 40
0
 40
0
 40
0
 40
1
 40
1
 40
1
 40
1
 10
16.668750
 20
114.299998
 30
0.0
 10
15.353622
 20
114.299998
 30
0.0
 10
14.287500
 20
115.366121
 30
0.0
 10
14.287500
 20
116.680687
 30
0.0
  0
SPLINE
  5
101
100
AcDbEntity
  8
WindowLarge
 62
7
100
AcDbSpline
 70
8
 71
3
 72
8
 73
4
 74
0
 40
0
 40
0
 40
0
 40
0
 40
1
 40
1
 40
1
 40
1
 10
14.287494
 20
146.843756
 30
0.0
 10
14.287500
 20
149.035643
 30
0.0
 10
16.064370
 20
150.812513
 30
0.0
 10
18.256250
 20
150.812513
 30
0.0
  0
LWPOLYLINE
  5
102
100
AcDbEntity
  8
WindowLarge
 62
7
100
AcDbPolyline
 90
2
 70
0
 10
14.287500
 20
116.680687
 30
0.0
 10
14.287494
 20
146.843756
 30
0.0
  0
SPLINE
  5
103
100
AcDbEntity
  8
WindowLarge
 62
7
100
AcDbSpline
 70
8
 71
3
 72
8
 73
4
 74
0
 40
0
 40
0
 40
0
 40
0
 40
1
 40
1
 40
1
 40
1
 10
324.643750
 20
150.812500
 30
0.0
 10
326.835638
 20
150.812500
 30
0.0
 10
328.612500
 20
149.035630
 30
0.0
 10
328.612500
 20
146.843750
 30
0.0
  0
LWPOLYLINE
  5
104
100
AcDbEntity
  8
WindowLarge
 62
7
100
AcDbPolyline
 90
2
 70
0
 10
18.256250
 20
150.812513
 30
0.0
 10
324.643750
 20
150.812500
 30
0.0
  0
SPLINE
  5
105
100
AcDbEntity
  8
WindowLarge
 62
7
100
AcDbSpline
 70
8
 71
3
 72
8
 73
4
 74
0
 40
0
 40
0
 40
0
 40
0
 40
1
 40
1
 40
1
 40
1
 10
328.612500
 20
116.681251
 30
0.0
 10
328.612500
 20
115.366124
 30
0.0
 10
327.546388
 20
114.300001
 30
0.0
 10
326.231250
 20
114.300001
 30
0.0
  0
LWPOLYLINE
  5
106
100
AcDbEntity
  8
WindowLarge
 62
7
100
AcDbPolyline
 90
2
 70
0
 10
328.612500
 20
146.843750
 30
0.0
 10
328.612500
 20
116.681251
 30
0.0
  0
SPLINE
  5
107
100
AcDbEntity
  8
WindowLarge
 62
7
100
AcDbSpline
 70
8
 71
3
 72
8
 73
4
 74
0
 40
0
 40
0
 40
0
 40
0
 40
1
 40
1
 40
1
 40
1
 10
324.643750
 20
117.781251
 30
0.0
 10
324.198842
 20
117.781251
 30
0.0
 10
323.797742
 20
117.513244
 30
0.0
 10
323.627483
 20
117.102203
 30
0.0
  0
SPLINE
  5
108
100
AcDbEntity
  8
WindowLarge
 62
7
100
AcDbSpline
 70
8
 71
3
 72
8
 73
4
 74
0
 40
0
 40
0
 40
0
 40
0
 40
1
 40
1
 40
1
 40
1
 10
323.627483
 20
117.102203
 30
0.0
 10
323.457223
 20
116.691161
 30
0.0
 10
323.551335
 20
116.218031
 30
0.0
 10
323.865933
 20
115.903433
 30
0.0
  0
SPLINE
  5
109
100
AcDbEntity
  8
WindowLarge
 62
7
100
AcDbSpline
 70
8
 71
3
 72
8
 73
4
 74
0
 40
0
 40
0
 40
0
 40
0
 40
1
 40
1
 40
1
 40
1
 10
323.865933
 20
115.903433
 30
0.0
 10
324.180530
 20
115.588836
 30
0.0
 10
324.653660
 20
115.494724
 30
0.0
 10
325.064702
 20
115.664983
 30
0.0
  0
SPLINE
  5
10a
100
AcDbEntity
  8
WindowLarge
 62
7
100
AcDbSpline
 70
8
 71
3
 72
8
 73
4
 74
0
 40
0
 40
0
 40
0
 40
0
 40
1
 40
1
 40
1
 40
1
 10
325.064702
 20
115.664983
 30
0.0
 10
325.475744
 20
115.835243
 30
0.0
 10
325.743750
 20
116.236342
 30
0.0
 10
325.743750
 20
116.681251
 30
0.0
  0
SPLINE
  5
10b
100
AcDbEntity
  8
WindowLarge
 62
7
100
AcDbSpline
 70
8
 71
3
 72
8
 73
4
 74
0
 40
0
 40
0
 40
0
 40
0
 40
1
 40
1
 40
1
 40
1
 10
325.743750
 20
116.681251
 30
0.0
 10
325.743750
 20
116.972989
 30
0.0
 10
325.627857
 20
117.252778
 30
0.0
 10
325.421567
 20
117.459068
 30
0.0
  0
SPLINE
  5
10c
100
AcDbEntity
  8
WindowLarge
 62
7
100
AcDbSpline
 70
8
 71
3
 72
8
 73
4
 74
0
 40
0
 40
0
 40
0
 40
0
 40
1
 40
1
 40
1
 40
1
 10
325.421567
 20
117.459068
 30
0.0
 10
325.215277
 20
117.665358
 30
0.0
 10
324.935488
 20
117.781251
 30
0.0
 10
324.643750
 20
117.781251
 30
0.0
  0
LWPOLYLINE
  5
10d
100
AcDbEntity
  8
WindowLarge
 62
7
100
AcDbPolyline
 90
2
 70
0
 10
326.231250
 20
114.300001
 30
0.0
 10
16.668750
 20
114.299998
 30
0.0
  0
SPLINE
  5
10e
100
AcDbEntity
  8
WindowLarge
 62
7
100
AcDbSpline
 70
8
 71
3
 72
8
 73
4
 74
0
 40
0
 40
0
 40
0
 40
0
 40
1
 40
1
 40
1
 40
1
 10
18.286701
 20
117.781251
 30
0.0
 10
17.841792
 20
117.781251
 30
0.0
 10
17.440692
 20
117.513244
 30
0.0
 10
17.270433
 20
117.102203
 30
0.0
  0
SPLINE
  5
10f
100
AcDbEntity
  8
WindowLarge
 62
7
100
AcDbSpline
 70
8
 71
3
 72
8
 73
4
 74
0
 40
0
 40
0
 40
0
 40
0
 40
1
 40
1
 40
1
 40
1
 10
17.270433
 20
117.102203
 30
0.0
 10
17.100174
 20
116.691161
 30
0.0
 10
17.194285
 20
116.218031
 30
0.0
 10
17.508883
 20
115.903433
 30
0.0
  0
SPLINE
  5
110
100
AcDbEntity
  8
WindowLarge
 62
7
100
AcDbSpline
 70
8
 71
3
 72
8
 73
4
 74
0
 40
0
 40
0
 40
0
 40
0
 40
1
 40
1
 40
1
 40
1
 10
17.508883
 20
115.903433
 30
0.0
 10
17.823481
 20
115.588836
 30
0.0
 10
18.296611
 20
115.494724
 30
0.0
 10
18.707652
 20
115.664983
 30
0.0
  0
SPLINE
  5
111
100
AcDbEntity
  8
WindowLarge
 62
7
100
AcDbSpline
 70
8
 71
3
 72
8
 73
4
 74
0
 40
0
 40
0
 40
0
 40
0
 40
1
 40
1
 40
1
 40
1
 10
18.707652
 20
115.664983
 30
0.0
 10
19.118694
 20
115.835243
 30
0.0
 10
19.386701
 20
116.236342
 30
0.0
 10
19.386701
 20
116.681251
 30
0.0
  0
SPLINE
  5
112
100
AcDbEntity
  8
WindowLarge
 62
7
100
AcDbSpline
 70
8
 71
3
 72
8
 73
4
 74
0
 40
0
 40
0
 40
0
 40
0
 40
1
 40
1
 40
1
 40
1
 10
19.386701
 20
116.681251
 30
0.0
 10
19.386701
 20
117.288764
 30
0.0
 10
18.894214
 20
117.781251
 30
0.0
 10
18.286701
 20
117.781251
 30
0.0
  0
LWPOLYLINE
  5
113
100
AcDbEntity
  8
WindowLarge
 62
7
100
AcDbPolyline
 90
1
 70
1
 10
324.643750
 20
117.781251
 30
0.0
  0
SPLINE
  5
114
100
AcDbEntity
  8
WindowLarge
 62
7
100
AcDbSpline
 70
8
 71
3
 72
8
 73
4
 74
0
 40
0
 40
0
 40
0
 40
0
 40
1
 40
1
 40
1
 40
1
 10
223.043750
 20
147.943750
 30
0.0
 10
222.598842
 20
147.943750
 30
0.0
 10
222.197742
 20
147.675744
 30
0.0
 10
222.027483
 20
147.264702
 30
0.0
  0
SPLINE
  5
115
100
AcDbEntity
  8
WindowLarge
 62
7
100
AcDbSpline
 70
8
 71
3
 72
8
 73
4
 74
0
 40
0
 40
0
 40
0
 40
0
 40
1
 40
1
 40
1
 40
1
 10
222.027483
 20
147.264702
 30
0.0
 10
221.857223
 20
146.853660
 30
0.0
 10
221.951335
 20
146.380530
 30
0.0
 10
222.265933
 20
146.065933
 30
0.0
  0
SPLINE
  5
116
100
AcDbEntity
  8
WindowLarge
 62
7
100
AcDbSpline
 70
8
 71
3
 72
8
 73
4
 74
0
 40
0
 40
0
 40
0
 40
0
 40
1
 40
1
 40
1
 40
1
 10
222.265933
 20
146.065933
 30
0.0
 10
222.580530
 20
145.751335
 30
0.0
 10
223.053660
 20
145.657224
 30
0.0
 10
223.464702
 20
145.827483
 30
0.0
  0
SPLINE
  5
117
100
AcDbEntity
  8
WindowLarge
 62
7
100
AcDbSpline
 70
8
 71
3
 72
8
 73
4
 74
0
 40
0
 40
0
 40
0
 40
0
 40
1
 40
1
 40
1
 40
1
 10
223.464702
 20
145.827483
 30
0.0
 10
223.875744
 20
145.997742
 30
0.0
 10
224.143750
 20
146.398842
 30
0.0
 10
224.143750
 20
146.843750
 30
0.0
  0
SPLINE
  5
118
100
AcDbEntity
  8
WindowLarge
 62
7
100
AcDbSpline
 70
8
 71
3
 72
8
 73
4
 74
0
 40
0
 40
0
 40
0
 40
0
 40
1
 40
1
 40
1
 40
1
 10
224.143750
 20
146.843750
 30
0.0
 10
224.143750
 20
147.135488
 30
0.0
 10
224.027857
 20
147.415278
 30
0.0
 10
223.821567
 20
147.621568
 30
0.0
  0
SPLINE
  5
119
100
AcDbEntity
  8
WindowLarge
 62
7
100
AcDbSpline
 70
8
 71
3
 72
8
 73
4
 74
0
 40
0
 40
0
 40
0
 40
0
 40
1
 40
1
 40
1
 40
1
 10
223.821567
 20
147.621568
 30
0.0
 10
223.615277
 20
147.827858
 30
0.0
 10
223.335488
 20
147.943750
 30
0.0
 10
223.043750
 20
147.943750
 30
0.0
  0
LWPOLYLINE
  5
11a
100
AcDbEntity
  8
WindowLarge
 62
7
100
AcDbPolyline
 90
1
 70
1
 10
18.286701
 20
117.781251
 30
0.0
  0
SPLINE
  5
11b
100
AcDbEntity
  8
WindowLarge
 62
7
100
AcDbSpline
 70
8
 71
3
 72
8
 73
4
 74
0
 40
0
 40
0
 40
0
 40
0
 40
1
 40
1
 40
1
 40
1
 10
119.856250
 20
147.943750
 30
0.0
 10
119.411342
 20
147.943750
 30
0.0
 10
119.010242
 20
147.675744
 30
0.0
 10
118.839983
 20
147.264702
 30
0.0
  0
SPLINE
  5
11c
100
AcDbEntity
  8
WindowLarge
 62
7
100
AcDbSpline
 70
8
 71
3
 72
8
 73
4
 74
0
 40
0
 40
0
 40
0
 40
0
 40
1
 40
1
 40
1
 40
1
 10
118.839983
 20
147.264702
 30
0.0
 10
118.669723
 20
146.853660
 30
0.0
 10
118.763835
 20
146.380530
 30
0.0
 10
119.078433
 20
146.065933
 30
0.0
  0
SPLINE
  5
11d
100
AcDbEntity
  8
WindowLarge
 62
7
100
AcDbSpline
 70
8
 71
3
 72
8
 73
4
 74
0
 40
0
 40
0
 40
0
 40
0
 40
1
 40
1
 40
1
 40
1
 10
119.078433
 20
146.065933
 30
0.0
 10
119.393030
 20
145.751335
 30
0.0
 10
119.866160
 20
145.657224
 30
0.0
 10
120.277202
 20
145.827483
 30
0.0
  0
SPLINE
  5
11e
100
AcDbEntity
  8
WindowLarge
 62
7
100
AcDbSpline
 70
8
 71
3
 72
8
 73
4
 74
0
 40
0
 40
0
 40
0
 40
0
 40
1
 40
1
 40
1
 40
1
 10
120.277202
 20
145.827483
 30
0.0
 10
120.688244
 20
145.997742
 30
0.0
 10
120.956250
 20
146.398842
 30
0.0
 10
120.956250
 20
146.843750
 30
0.0
  0
SPLINE
  5
11f
100
AcDbEntity
  8
WindowLarge
 62
7
100
AcDbSpline
 70
8
 71
3
 72
8
 73
4
 74
0
 40
0
 40
0
 40
0
 40
0
 40
1
 40
1
 40
1
 40
1
 10
120.956250
 20
146.843750
 30
0.0
 10
120.956250
 20
147.135488
 30
0.0
 10
120.840357
 20
147.415278
 30
0.0
 10
120.634067
 20
147.621568
 30
0.0
  0
SPLINE
  5
120
100
AcDbEntity
  8
WindowLarge
 62
7
100
AcDbSpline
 70
8
 71
3
 72
8
 73
4
 74
0
 40
0
 40
0
 40
0
 40
0
 40
1
 40
1
 40
1
 40
1
 10
120.634067
 20
147.621568
 30
0.0
 10
120.427777
 20
147.827858
 30
0.0
 10
120.147988
 20
147.943750
 30
0.0
 10
119.856250
 20
147.943750
 30
0.0
  0
LWPOLYLINE
  5
121
100
AcDbEntity
  8
WindowLarge
 62
7
100
AcDbPolyline
 90
1
 70
1
 10
223.043750
 20
147.943750
 30
0.0
  0
SPLINE
  5
122
100
AcDbEntity
  8
WindowLarge
 62
7
100
AcDbSpline
 70
8
 71
3
 72
8
 73
4
 74
0
 40
0
 40
0
 40
0
 40
0
 40
1
 40
1
 40
1
 40
1
 10
324.643750
 20
147.943750
 30
0.0
 10
324.198842
 20
147.943750
 30
0.0
 10
323.797742
 20
147.675744
 30
0.0
 10
323.627483
 20
147.264702
 30
0.0
  0
SPLINE
  5
123
100
AcDbEntity
  8
WindowLarge
 62
7
100
AcDbSpline
 70
8
 71
3
 72
8
 73
4
 74
0
 40
0
 40
0
 40
0
 40
0
 40
1
 40
1
 40
1
 40
1
 10
323.627483
 20
147.264702
 30
0.0
 10
323.457223
 20
146.853660
 30
0.0
 10
323.551335
 20
146.380530
 30
0.0
 10
323.865933
 20
146.065933
 30
0.0
  0
SPLINE
  5
124
100
AcDbEntity
  8
WindowLarge
 62
7
100
AcDbSpline
 70
8
 71
3
 72
8
 73
4
 74
0
 40
0
 40
0
 40
0
 40
0
 40
1
 40
1
 40
1
 40
1
 10
323.865933
 20
146.065933
 30
0.0
 10
324.180530
 20
145.751335
 30
0.0
 10
324.653660
 20
145.657224
 30
0.0
 10
325.064702
 20
145.827483
 30
0.0
  0
SPLINE
  5
125
100
AcDbEntity
  8
WindowLarge
 62
7
100
AcDbSpline
 70
8
 71
3
 72
8
 73
4
 74
0
 40
0
 40
0
 40
0
 40
0
 40
1
 40
1
 40
1
 40
1
 10
325.064702
 20
145.827483
 30
0.0
 10
325.475744
 20
145.997742
 30
0.0
 10
325.743750
 20
146.398842
 30
0.0
 10
325.743750
 20
146.843750
 30
0.0
  0
SPLINE
  5
126
100
AcDbEntity
  8
WindowLarge
 62
7
100
AcDbSpline
 70
8
 71
3
 72
8
 73
4
 74
0
 40
0
 40
0
 40
0
 40
0
 40
1
 40
1
 40
1
 40
1
 10
325.743750
 20
146.843750
 30
0.0
 10
325.743750
 20
147.135488
 30
0.0
 10
325.627857
 20
147.415278
 30
0.0
 10
325.421567
 20
147.621568
 30
0.0
  0
SPLINE
  5
127
100
AcDbEntity
  8
WindowLarge
 62
7
100
AcDbSpline
 70
8
 71
3
 72
8
 73
4
 74
0
 40
0
 40
0
 40
0
 40
0
 40
1
 40
1
 40
1
 40
1
 10
325.421567
 20
147.621568
 30
0.0
 10
325.215277
 20
147.827858
 30
0.0
 10
324.935488
 20
147.943750
 30
0.0
 10
324.643750
 20
147.943750
 30
0.0
  0
LWPOLYLINE
  5
128
100
AcDbEntity
  8
WindowLarge
 62
7
100
AcDbPolyline
 90
1
 70
1
 10
119.856250
 20
147.943750
 30
0.0
  0
SPLINE
  5
129
100
AcDbEntity
  8
WindowLarge
 62
7
100
AcDbSpline
 70
8
 71
3
 72
8
 73
4
 74
0
 40
0
 40
0
 40
0
 40
0
 40
1
 40
1
 40
1
 40
1
 10
18.256250
 20
147.943750
 30
0.0
 10
17.811342
 20
147.943750
 30
0.0
 10
17.410242
 20
147.675744
 30
0.0
 10
17.239983
 20
147.264702
 30
0.0
  0
SPLINE
  5
12a
100
AcDbEntity
  8
WindowLarge
 62
7
100
AcDbSpline
 70
8
 71
3
 72
8
 73
4
 74
0
 40
0
 40
0
 40
0
 40
0
 40
1
 40
1
 40
1
 40
1
 10
17.239983
 20
147.264702
 30
0.0
 10
17.069723
 20
146.853660
 30
0.0
 10
17.163835
 20
146.380530
 30
0.0
 10
17.478433
 20
146.065933
 30
0.0
  0
SPLINE
  5
12b
100
AcDbEntity
  8
WindowLarge
 62
7
100
AcDbSpline
 70
8
 71
3
 72
8
 73
4
 74
0
 40
0
 40
0
 40
0
 40
0
 40
1
 40
1
 40
1
 40
1
 10
17.478433
 20
146.065933
 30
0.0
 10
17.793030
 20
145.751335
 30
0.0
 10
18.266160
 20
145.657224
 30
0.0
 10
18.677202
 20
145.827483
 30
0.0
  0
SPLINE
  5
12c
100
AcDbEntity
  8
WindowLarge
 62
7
100
AcDbSpline
 70
8
 71
3
 72
8
 73
4
 74
0
 40
0
 40
0
 40
0
 40
0
 40
1
 40
1
 40
1
 40
1
 10
18.677202
 20
145.827483
 30
0.0
 10
19.088244
 20
145.997742
 30
0.0
 10
19.356250
 20
146.398842
 30
0.0
 10
19.356250
 20
146.843750
 30
0.0
  0
SPLINE
  5
12d
100
AcDbEntity
  8
WindowLarge
 62
7
100
AcDbSpline
 70
8
 71
3
 72
8
 73
4
 74
0
 40
0
 40
0
 40
0
 40
0
 40
1
 40
1
 40
1
 40
1
 10
19.356250
 20
146.843750
 30
0.0
 10
19.356250
 20
147.135488
 30
0.0
 10
19.240357
 20
147.415278
 30
0.0
 10
19.034067
 20
147.621568
 30
0.0
  0
SPLINE
  5
12e
100
AcDbEntity
  8
WindowLarge
 62
7
100
AcDbSpline
 70
8
 71
3
 72
8
 73
4
 74
0
 40
0
 40
0
 40
0
 40
0
 40
1
 40
1
 40
1
 40
1
 10
19.034067
 20
147.621568
 30
0.0
 10
18.827777
 20
147.827858
 30
0.0
 10
18.547988
 20
147.943750
 30
0.0
 10
18.256250
 20
147.943750
 30
0.0
  0
LWPOLYLINE
  5
12f
100
AcDbEntity
  8
WindowLarge
 62
7
100
AcDbPolyline
 90
1
 70
1
 10
324.643750
 20
147.943750
 30
0.0
  0
SPLINE
  5
130
100
AcDbEntity
  8
WindowLarge
 62
7
100
AcDbSpline
 70
8
 71
3
 72
8
 73
4
 74
0
 40
0
 40
0
 40
0
 40
0
 40
1
 40
1
 40
1
 40
1
 10
119.856726
 20
117.781251
 30
0.0
 10
119.411818
 20
117.781251
 30
0.0
 10
119.010718
 20
117.513244
 30
0.0
 10
118.840459
 20
117.102203
 30
0.0
  0
SPLINE
  5
131
100
AcDbEntity
  8
WindowLarge
 62
7
100
AcDbSpline
 70
8
 71
3
 72
8
 73
4
 74
0
 40
0
 40
0
 40
0
 40
0
 40
1
 40
1
 40
1
 40
1
 10
118.840459
 20
117.102203
 30
0.0
 10
118.670200
 20
116.691161
 30
0.0
 10
118.764311
 20
116.218031
 30
0.0
 10
119.078909
 20
115.903433
 30
0.0
  0
SPLINE
  5
132
100
AcDbEntity
  8
WindowLarge
 62
7
100
AcDbSpline
 70
8
 71
3
 72
8
 73
4
 74
0
 40
0
 40
0
 40
0
 40
0
 40
1
 40
1
 40
1
 40
1
 10
119.078909
 20
115.903433
 30
0.0
 10
119.393507
 20
115.588836
 30
0.0
 10
119.866636
 20
115.494724
 30
0.0
 10
120.277678
 20
115.664983
 30
0.0
  0
SPLINE
  5
133
100
AcDbEntity
  8
WindowLarge
 62
7
100
AcDbSpline
 70
8
 71
3
 72
8
 73
4
 74
0
 40
0
 40
0
 40
0
 40
0
 40
1
 40
1
 40
1
 40
1
 10
120.277678
 20
115.664983
 30
0.0
 10
120.688720
 20
115.835243
 30
0.0
 10
120.956726
 20
116.236342
 30
0.0
 10
120.956726
 20
116.681251
 30
0.0
  0
SPLINE
  5
134
100
AcDbEntity
  8
WindowLarge
 62
7
100
AcDbSpline
 70
8
 71
3
 72
8
 73
4
 74
0
 40
0
 40
0
 40
0
 40
0
 40
1
 40
1
 40
1
 40
1
 10
120.956726
 20
116.681251
 30
0.0
 10
120.956726
 20
116.972989
 30
0.0
 10
120.840834
 20
117.252778
 30
0.0
 10
120.634544
 20
117.459068
 30
0.0
  0
SPLINE
  5
135
100
AcDbEntity
  8
WindowLarge
 62
7
100
AcDbSpline
 70
8
 71
3
 72
8
 73
4
 74
0
 40
0
 40
0
 40
0
 40
0
 40
1
 40
1
 40
1
 40
1
 10
120.634544
 20
117.459068
 30
0.0
 10
120.428254
 20
117.665358
 30
0.0
 10
120.148464
 20
117.781251
 30
0.0
 10
119.856726
 20
117.781251
 30
0.0
  0
LWPOLYLINE
  5
136
100
AcDbEntity
  8
WindowLarge
 62
7
100
AcDbPolyline
 90
1
 70
1
 10
18.256250
 20
147.943750
 30
0.0
  0
SPLINE
  5
137
100
AcDbEntity
  8
WindowLarge
 62
7
100
AcDbSpline
 70
8
 71
3
 72
8
 73
4
 74
0
 40
0
 40
0
 40
0
 40
0
 40
1
 40
1
 40
1
 40
1
 10
223.043750
 20
117.781251
 30
0.0
 10
222.598842
 20
117.781251
 30
0.0
 10
222.197742
 20
117.513244
 30
0.0
 10
222.027483
 20
117.102203
 30
0.0
  0
SPLINE
  5
138
100
AcDbEntity
  8
WindowLarge
 62
7
100
AcDbSpline
 70
8
 71
3
 72
8
 73
4
 74
0
 40
0
 40
0
 40
0
 40
0
 40
1
 40
1
 40
1
 40
1
 10
222.027483
 20
117.102203
 30
0.0
 10
221.857223
 20
116.691161
 30
0.0
 10
221.951335
 20
116.218031
 30
0.0
 10
222.265933
 20
115.903433
 30
0.0
  0
SPLINE
  5
139
100
AcDbEntity
  8
WindowLarge
 62
7
100
AcDbSpline
 70
8
 71
3
 72
8
 73
4
 74
0
 40
0
 40
0
 40
0
 40
0
 40
1
 40
1
 40
1
 40
1
 10
222.265933
 20
115.903433
 30
0.0
 10
222.580530
 20
115.588836
 30
0.0
 10
223.053660
 20
115.494724
 30
0.0
 10
223.464702
 20
115.664983
 30
0.0
  0
SPLINE
  5
13a
100
AcDbEntity
  8
WindowLarge
 62
7
100
AcDbSpline
 70
8
 71
3
 72
8
 73
4
 74
0
 40
0
 40
0
 40
0
 40
0
 40
1
 40
1
 40
1
 40
1
 10
223.464702
 20
115.664983
 30
0.0
 10
223.875744
 20
115.835243
 30
0.0
 10
224.143750
 20
116.236342
 30
0.0
 10
224.143750
 20
116.681251
 30
0.0
  0
SPLINE
  5
13b
100
AcDbEntity
  8
WindowLarge
 62
7
100
AcDbSpline
 70
8
 71
3
 72
8
 73
4
 74
0
 40
0
 40
0
 40
0
 40
0
 40
1
 40
1
 40
1
 40
1
 10
224.143750
 20
116.681251
 30
0.0
 10
224.143750
 20
116.972989
 30
0.0
 10
224.027857
 20
117.252778
 30
0.0
 10
223.821567
 20
117.459068
 30
0.0
  0
SPLINE
  5
13c
100
AcDbEntity
  8
WindowLarge
 62
7
100
AcDbSpline
 70
8
 71
3
 72
8
 73
4
 74
0
 40
0
 40
0
 40
0
 40
0
 40
1
 40
1
 40
1
 40
1
 10
223.821567
 20
117.459068
 30
0.0
 10
223.615277
 20
117.665358
 30
0.0
 10
223.335488
 20
117.781251
 30
0.0
 10
223.043750
 20
117.781251
 30
0.0
  0
LWPOLYLINE
  5
13d
100
AcDbEntity
  8
WindowLarge
 62
7
100
AcDbPolyline
 90
1
 70
1
 10
119.856726
 20
117.781251
 30
0.0
  0
LWPOLYLINE
  5
13e
100
AcDbEntity
  8
WindowLarge
 62
7
100
AcDbPolyline
 90
1
 70
1
 10
223.043750
 20
117.781251
 30
0.0
  0
ENDSEC
  0
SECTION
  2
OBJECTS
  0
DICTIONARY
  5
C
330
0
100
AcDbDictionary
  3
ACAD_GROUP
350
D
  3
ACAD_MLINESTYLE
350
17
  0
DICTIONARY
  5
D
330
C
100
AcDbDictionary
  0
DICTIONARY
  5
1A
330
C
100
AcDbDictionary
  0
DICTIONARY
  5
17
330
C
100
AcDbDictionary
  3
STANDARD
350
18
  0
DICTIONARY
  5
19
330
C
100
AcDbDictionary
  0
ENDSEC
  0
EOF
