  0
SECTION
  2
HEADER
  9
$ACADVER
  1
AC1014
  9
$HANDSEED
  5
FFFF
  9
$MEASUREMENT
 70
     1
  0
ENDSEC
  0
SECTION
  2
TABLES
  0
TABLE
  2
VPORT
  5
8
330
0
100
AcDbSymbolTable
 70
     4
  0
VPORT
  5
2E
330
8
100
AcDbSymbolTableRecord
100
AcDbViewportTableRecord
  2
*ACTIVE
 70
     0
 10
0.0
 20
0.0
 11
1.0
 21
1.0
 12
210.0
 22
148.5
 13
0.0
 23
0.0
 14
10.0
 24
10.0
 15
10.0
 25
10.0
 16
0.0
 26
0.0
 36
1.0
 17
0.0
 27
0.0
 37
0.0
 40
341.0
 41
1.24
 42
50.0
 43
0.0
 44
0.0
 50
0.0
 51
0.0
 71
     0
 72
   100
 73
     1
 74
     3
 75
     0
 76
     0
 77
     0
 78
     0
  0
ENDTAB
  0
TABLE
  2
LTYPE
  5
5
330
0
100
AcDbSymbolTable
 70
     1
  0
LTYPE
  5
14
330
5
100
AcDbSymbolTableRecord
100
AcDbLinetypeTableRecord
  2
BYBLOCK
 70
     0
  3

 72
    65
 73
     0
 40
0.0
  0
LTYPE
  5
15
330
5
100
AcDbSymbolTableRecord
100
AcDbLinetypeTableRecord
  2
BYLAYER
 70
     0
  3

 72
    65
 73
     0
 40
0.0
  0
LTYPE
  5
16
330
5
100
AcDbSymbolTableRecord
100
AcDbLinetypeTableRecord
  2
CONTINUOUS
 70
     0
  3
Solid line
 72
    65
 73
     0
 40
0.0
  0
ENDTAB
  0
TABLE
  2
LAYER
  5
2
100
AcDbSymbolTable
 70
2
  0
LAYER
  5
50
100
AcDbSymbolTableRecord
100
AcDbLayerTableRecord
  2
0
 70
0
  6
CONTINUOUS
  0
LAYER
  5
51
100
AcDbSymbolTableRecord
100
AcDbLayerTableRecord
  2
Layer_1
 70
0
  6
CONTINUOUS
  0
ENDTAB
  0
TABLE
  2
STYLE
  5
3
330
0
100
AcDbSymbolTable
 70
     1
  0
STYLE
  5
11
330
3
100
AcDbSymbolTableRecord
100
AcDbTextStyleTableRecord
  2
STANDARD
 70
     0
 40
0.0
 41
1.0
 50
0.0
 71
     0
 42
2.5
  3
txt
  4

  0
ENDTAB
  0
TABLE
  2
VIEW
  5
6
330
0
100
AcDbSymbolTable
 70
     0
  0
ENDTAB
  0
TABLE
  2
UCS
  5
7
330
0
100
AcDbSymbolTable
 70
     0
  0
ENDTAB
  0
TABLE
  2
APPID
  5
9
330
0
100
AcDbSymbolTable
 70
     2
  0
APPID
  5
12
330
9
100
AcDbSymbolTableRecord
100
AcDbRegAppTableRecord
  2
ACAD
 70
     0
  0
ENDTAB
  0
TABLE
  2
DIMSTYLE
  5
A
330
0
100
AcDbSymbolTable
 70
     1
  0
DIMSTYLE
105
27
330
A
100
AcDbSymbolTableRecord
100
AcDbDimStyleTableRecord
  2
ISO-25
 70
     0
  3

  4

  5

  6

  7

 40
1.0
 41
2.5
 42
0.625
 43
3.75
 44
1.25
 45
0.0
 46
0.0
 47
0.0
 48
0.0
140
2.5
141
2.5
142
0.0
143
0.03937007874016
144
1.0
145
0.0
146
1.0
147
0.625
 71
     0
 72
     0
 73
     0
 74
     0
 75
     0
 76
     0
 77
     1
 78
     8
170
     0
171
     3
172
     1
173
     0
174
     0
175
     0
176
     0
177
     0
178
     0
270
     2
271
     2
272
     2
273
     2
274
     3
340
11
275
     0
280
     0
281
     0
282
     0
283
     0
284
     8
285
     0
286
     0
287
     3
288
     0
  0
ENDTAB
  0
TABLE
  2
BLOCK_RECORD
  5
1
330
0
100
AcDbSymbolTable
 70
     1
  0
BLOCK_RECORD
  5
1F
330
1
100
AcDbSymbolTableRecord
100
AcDbBlockTableRecord
  2
*MODEL_SPACE
  0
BLOCK_RECORD
  5
1B
330
1
100
AcDbSymbolTableRecord
100
AcDbBlockTableRecord
  2
*PAPER_SPACE
  0
ENDTAB
  0
ENDSEC
  0
SECTION
  2
BLOCKS
  0
BLOCK
  5
20
330
1F
100
AcDbEntity
  8
0
100
AcDbBlockBegin
  2
*MODEL_SPACE
 70
     0
 10
0.0
 20
0.0
 30
0.0
  3
*MODEL_SPACE
  1

  0
ENDBLK
  5
21
330
1F
100
AcDbEntity
  8
0
100
AcDbBlockEnd
  0
BLOCK
  5
1C
330
1B
100
AcDbEntity
 67
     1
  8
0
100
AcDbBlockBegin
  2
*PAPER_SPACE
  1

  0
ENDBLK
  5
1D
330
1B
100
AcDbEntity
 67
     1
  8
0
100
AcDbBlockEnd
  0
ENDSEC
  0
SECTION
  2
ENTITIES
  0
SPLINE
  5
100
100
AcDbEntity
  8
Layer_1
 62
7
100
AcDbSpline
 70
8
 71
3
 72
8
 73
4
 74
0
 40
0
 40
0
 40
0
 40
0
 40
1
 40
1
 40
1
 40
1
 10
2.550727
 20
32.714067
 30
0.0
 10
1.235602
 20
32.714067
 30
0.0
 10
0.169482
 20
33.780188
 30
0.0
 10
0.169482
 20
35.094752
 30
0.0
  0
SPLINE
  5
101
100
AcDbEntity
  8
Layer_1
 62
7
100
AcDbSpline
 70
8
 71
3
 72
8
 73
4
 74
0
 40
0
 40
0
 40
0
 40
0
 40
1
 40
1
 40
1
 40
1
 10
0.169476
 20
65.257764
 30
0.0
 10
0.169482
 20
67.449648
 30
0.0
 10
1.946349
 20
69.226512
 30
0.0
 10
4.138224
 20
69.226512
 30
0.0
  0
SPLINE
  5
102
100
AcDbEntity
  8
Layer_1
 62
7
100
AcDbSpline
 70
8
 71
3
 72
8
 73
4
 74
0
 40
0
 40
0
 40
0
 40
0
 40
1
 40
1
 40
1
 40
1
 10
310.525153
 20
69.226502
 30
0.0
 10
312.717037
 20
69.226502
 30
0.0
 10
314.493896
 20
67.449635
 30
0.0
 10
314.493896
 20
65.257759
 30
0.0
  0
LWPOLYLINE
  5
103
100
AcDbEntity
  8
Layer_1
 62
7
100
AcDbPolyline
 90
2
 70
0
 10
0.169482
 20
35.094752
 30
0.0
 10
0.169476
 20
65.257764
 30
0.0
  0
SPLINE
  5
104
100
AcDbEntity
  8
Layer_1
 62
7
100
AcDbSpline
 70
8
 71
3
 72
8
 73
4
 74
0
 40
0
 40
0
 40
0
 40
0
 40
1
 40
1
 40
1
 40
1
 10
314.493896
 20
35.095315
 30
0.0
 10
314.493896
 20
33.780190
 30
0.0
 10
313.427785
 20
32.714070
 30
0.0
 10
312.112650
 20
32.714070
 30
0.0
  0
LWPOLYLINE
  5
105
100
AcDbEntity
  8
Layer_1
 62
7
100
AcDbPolyline
 90
2
 70
0
 10
4.138224
 20
69.226512
 30
0.0
 10
310.525153
 20
69.226502
 30
0.0
  0
SPLINE
  5
106
100
AcDbEntity
  8
Layer_1
 62
7
100
AcDbSpline
 70
8
 71
3
 72
8
 73
4
 74
0
 40
0
 40
0
 40
0
 40
0
 40
1
 40
1
 40
1
 40
1
 10
310.525153
 20
36.195313
 30
0.0
 10
310.080257
 20
36.195313
 30
0.0
 10
309.679149
 20
35.927307
 30
0.0
 10
309.508890
 20
35.516267
 30
0.0
  0
SPLINE
  5
107
100
AcDbEntity
  8
Layer_1
 62
7
100
AcDbSpline
 70
8
 71
3
 72
8
 73
4
 74
0
 40
0
 40
0
 40
0
 40
0
 40
1
 40
1
 40
1
 40
1
 10
309.508890
 20
35.516267
 30
0.0
 10
309.338631
 20
35.105224
 30
0.0
 10
309.432743
 20
34.632097
 30
0.0
 10
309.747332
 20
34.317497
 30
0.0
  0
SPLINE
  5
108
100
AcDbEntity
  8
Layer_1
 62
7
100
AcDbSpline
 70
8
 71
3
 72
8
 73
4
 74
0
 40
0
 40
0
 40
0
 40
0
 40
1
 40
1
 40
1
 40
1
 10
309.747332
 20
34.317497
 30
0.0
 10
310.061921
 20
34.002903
 30
0.0
 10
310.535075
 20
33.908791
 30
0.0
 10
310.946104
 20
34.079050
 30
0.0
  0
SPLINE
  5
109
100
AcDbEntity
  8
Layer_1
 62
7
100
AcDbSpline
 70
8
 71
3
 72
8
 73
4
 74
0
 40
0
 40
0
 40
0
 40
0
 40
1
 40
1
 40
1
 40
1
 10
310.946104
 20
34.079050
 30
0.0
 10
311.357134
 20
34.249309
 30
0.0
 10
311.625156
 20
34.650406
 30
0.0
 10
311.625156
 20
35.095315
 30
0.0
  0
SPLINE
  5
10a
100
AcDbEntity
  8
Layer_1
 62
7
100
AcDbSpline
 70
8
 71
3
 72
8
 73
4
 74
0
 40
0
 40
0
 40
0
 40
0
 40
1
 40
1
 40
1
 40
1
 10
311.625156
 20
35.095315
 30
0.0
 10
311.625156
 20
35.387052
 30
0.0
 10
311.509269
 20
35.666841
 30
0.0
 10
311.302974
 20
35.873131
 30
0.0
  0
SPLINE
  5
10b
100
AcDbEntity
  8
Layer_1
 62
7
100
AcDbSpline
 70
8
 71
3
 72
8
 73
4
 74
0
 40
0
 40
0
 40
0
 40
0
 40
1
 40
1
 40
1
 40
1
 10
311.302974
 20
35.873131
 30
0.0
 10
311.096678
 20
36.079421
 30
0.0
 10
310.816882
 20
36.195313
 30
0.0
 10
310.525153
 20
36.195313
 30
0.0
  0
LWPOLYLINE
  5
10c
100
AcDbEntity
  8
Layer_1
 62
7
100
AcDbPolyline
 90
2
 70
0
 10
314.493896
 20
65.257759
 30
0.0
 10
314.493896
 20
35.095315
 30
0.0
  0
SPLINE
  5
10d
100
AcDbEntity
  8
Layer_1
 62
7
100
AcDbSpline
 70
8
 71
3
 72
8
 73
4
 74
0
 40
0
 40
0
 40
0
 40
0
 40
1
 40
1
 40
1
 40
1
 10
4.168675
 20
36.195313
 30
0.0
 10
3.723767
 20
36.195313
 30
0.0
 10
3.322668
 20
35.927307
 30
0.0
 10
3.152409
 20
35.516267
 30
0.0
  0
SPLINE
  5
10e
100
AcDbEntity
  8
Layer_1
 62
7
100
AcDbSpline
 70
8
 71
3
 72
8
 73
4
 74
0
 40
0
 40
0
 40
0
 40
0
 40
1
 40
1
 40
1
 40
1
 10
3.152409
 20
35.516267
 30
0.0
 10
2.982151
 20
35.105224
 30
0.0
 10
3.076261
 20
34.632097
 30
0.0
 10
3.390859
 20
34.317497
 30
0.0
  0
SPLINE
  5
10f
100
AcDbEntity
  8
Layer_1
 62
7
100
AcDbSpline
 70
8
 71
3
 72
8
 73
4
 74
0
 40
0
 40
0
 40
0
 40
0
 40
1
 40
1
 40
1
 40
1
 10
3.390859
 20
34.317497
 30
0.0
 10
3.705456
 20
34.002903
 30
0.0
 10
4.178586
 20
33.908791
 30
0.0
 10
4.589626
 20
34.079050
 30
0.0
  0
SPLINE
  5
110
100
AcDbEntity
  8
Layer_1
 62
7
100
AcDbSpline
 70
8
 71
3
 72
8
 73
4
 74
0
 40
0
 40
0
 40
0
 40
0
 40
1
 40
1
 40
1
 40
1
 10
4.589626
 20
34.079050
 30
0.0
 10
5.000667
 20
34.249309
 30
0.0
 10
5.268673
 20
34.650406
 30
0.0
 10
5.268673
 20
35.095315
 30
0.0
  0
SPLINE
  5
111
100
AcDbEntity
  8
Layer_1
 62
7
100
AcDbSpline
 70
8
 71
3
 72
8
 73
4
 74
0
 40
0
 40
0
 40
0
 40
0
 40
1
 40
1
 40
1
 40
1
 10
5.268673
 20
35.095315
 30
0.0
 10
5.268673
 20
35.702827
 30
0.0
 10
4.776187
 20
36.195313
 30
0.0
 10
4.168675
 20
36.195313
 30
0.0
  0
SPLINE
  5
112
100
AcDbEntity
  8
Layer_1
 62
7
100
AcDbSpline
 70
8
 71
3
 72
8
 73
4
 74
0
 40
0
 40
0
 40
0
 40
0
 40
1
 40
1
 40
1
 40
1
 10
208.925342
 20
66.357754
 30
0.0
 10
208.480436
 20
66.357754
 30
0.0
 10
208.079336
 20
66.089750
 30
0.0
 10
207.909077
 20
65.678710
 30
0.0
  0
SPLINE
  5
113
100
AcDbEntity
  8
Layer_1
 62
7
100
AcDbSpline
 70
8
 71
3
 72
8
 73
4
 74
0
 40
0
 40
0
 40
0
 40
0
 40
1
 40
1
 40
1
 40
1
 10
207.909077
 20
65.678710
 30
0.0
 10
207.738818
 20
65.267668
 30
0.0
 10
207.832930
 20
64.794538
 30
0.0
 10
208.147527
 20
64.479941
 30
0.0
  0
SPLINE
  5
114
100
AcDbEntity
  8
Layer_1
 62
7
100
AcDbSpline
 70
8
 71
3
 72
8
 73
4
 74
0
 40
0
 40
0
 40
0
 40
0
 40
1
 40
1
 40
1
 40
1
 10
208.147527
 20
64.479941
 30
0.0
 10
208.462124
 20
64.165344
 30
0.0
 10
208.935254
 20
64.071235
 30
0.0
 10
209.346294
 20
64.241494
 30
0.0
  0
SPLINE
  5
115
100
AcDbEntity
  8
Layer_1
 62
7
100
AcDbSpline
 70
8
 71
3
 72
8
 73
4
 74
0
 40
0
 40
0
 40
0
 40
0
 40
1
 40
1
 40
1
 40
1
 10
209.346294
 20
64.241494
 30
0.0
 10
209.757334
 20
64.411750
 30
0.0
 10
210.025340
 20
64.812850
 30
0.0
 10
210.025340
 20
65.257759
 30
0.0
  0
SPLINE
  5
116
100
AcDbEntity
  8
Layer_1
 62
7
100
AcDbSpline
 70
8
 71
3
 72
8
 73
4
 74
0
 40
0
 40
0
 40
0
 40
0
 40
1
 40
1
 40
1
 40
1
 10
210.025340
 20
65.257759
 30
0.0
 10
210.025340
 20
65.549496
 30
0.0
 10
209.909448
 20
65.829284
 30
0.0
 10
209.703158
 20
66.035574
 30
0.0
  0
SPLINE
  5
117
100
AcDbEntity
  8
Layer_1
 62
7
100
AcDbSpline
 70
8
 71
3
 72
8
 73
4
 74
0
 40
0
 40
0
 40
0
 40
0
 40
1
 40
1
 40
1
 40
1
 10
209.703158
 20
66.035574
 30
0.0
 10
209.496868
 20
66.241864
 30
0.0
 10
209.217079
 20
66.357754
 30
0.0
 10
208.925342
 20
66.357754
 30
0.0
  0
SPLINE
  5
118
100
AcDbEntity
  8
Layer_1
 62
7
100
AcDbSpline
 70
8
 71
3
 72
8
 73
4
 74
0
 40
0
 40
0
 40
0
 40
0
 40
1
 40
1
 40
1
 40
1
 10
105.738035
 20
66.357754
 30
0.0
 10
105.293128
 20
66.357754
 30
0.0
 10
104.892029
 20
66.089750
 30
0.0
 10
104.721770
 20
65.678710
 30
0.0
  0
SPLINE
  5
119
100
AcDbEntity
  8
Layer_1
 62
7
100
AcDbSpline
 70
8
 71
3
 72
8
 73
4
 74
0
 40
0
 40
0
 40
0
 40
0
 40
1
 40
1
 40
1
 40
1
 10
104.721770
 20
65.678710
 30
0.0
 10
104.551511
 20
65.267668
 30
0.0
 10
104.645623
 20
64.794538
 30
0.0
 10
104.960220
 20
64.479941
 30
0.0
  0
SPLINE
  5
11a
100
AcDbEntity
  8
Layer_1
 62
7
100
AcDbSpline
 70
8
 71
3
 72
8
 73
4
 74
0
 40
0
 40
0
 40
0
 40
0
 40
1
 40
1
 40
1
 40
1
 10
104.960220
 20
64.479941
 30
0.0
 10
105.274817
 20
64.165344
 30
0.0
 10
105.747946
 20
64.071235
 30
0.0
 10
106.158986
 20
64.241494
 30
0.0
  0
SPLINE
  5
11b
100
AcDbEntity
  8
Layer_1
 62
7
100
AcDbSpline
 70
8
 71
3
 72
8
 73
4
 74
0
 40
0
 40
0
 40
0
 40
0
 40
1
 40
1
 40
1
 40
1
 10
106.158986
 20
64.241494
 30
0.0
 10
106.570026
 20
64.411750
 30
0.0
 10
106.838033
 20
64.812850
 30
0.0
 10
106.838033
 20
65.257759
 30
0.0
  0
SPLINE
  5
11c
100
AcDbEntity
  8
Layer_1
 62
7
100
AcDbSpline
 70
8
 71
3
 72
8
 73
4
 74
0
 40
0
 40
0
 40
0
 40
0
 40
1
 40
1
 40
1
 40
1
 10
106.838033
 20
65.257759
 30
0.0
 10
106.838033
 20
65.549496
 30
0.0
 10
106.722140
 20
65.829284
 30
0.0
 10
106.515850
 20
66.035574
 30
0.0
  0
SPLINE
  5
11d
100
AcDbEntity
  8
Layer_1
 62
7
100
AcDbSpline
 70
8
 71
3
 72
8
 73
4
 74
0
 40
0
 40
0
 40
0
 40
0
 40
1
 40
1
 40
1
 40
1
 10
106.515850
 20
66.035574
 30
0.0
 10
106.309560
 20
66.241864
 30
0.0
 10
106.029772
 20
66.357754
 30
0.0
 10
105.738035
 20
66.357754
 30
0.0
  0
SPLINE
  5
11e
100
AcDbEntity
  8
Layer_1
 62
7
100
AcDbSpline
 70
8
 71
3
 72
8
 73
4
 74
0
 40
0
 40
0
 40
0
 40
0
 40
1
 40
1
 40
1
 40
1
 10
310.525153
 20
66.357754
 30
0.0
 10
310.080257
 20
66.357754
 30
0.0
 10
309.679149
 20
66.089750
 30
0.0
 10
309.508890
 20
65.678710
 30
0.0
  0
SPLINE
  5
11f
100
AcDbEntity
  8
Layer_1
 62
7
100
AcDbSpline
 70
8
 71
3
 72
8
 73
4
 74
0
 40
0
 40
0
 40
0
 40
0
 40
1
 40
1
 40
1
 40
1
 10
309.508890
 20
65.678710
 30
0.0
 10
309.338631
 20
65.267668
 30
0.0
 10
309.432743
 20
64.794538
 30
0.0
 10
309.747332
 20
64.479941
 30
0.0
  0
SPLINE
  5
120
100
AcDbEntity
  8
Layer_1
 62
7
100
AcDbSpline
 70
8
 71
3
 72
8
 73
4
 74
0
 40
0
 40
0
 40
0
 40
0
 40
1
 40
1
 40
1
 40
1
 10
309.747332
 20
64.479941
 30
0.0
 10
310.061921
 20
64.165344
 30
0.0
 10
310.535075
 20
64.071235
 30
0.0
 10
310.946104
 20
64.241494
 30
0.0
  0
SPLINE
  5
121
100
AcDbEntity
  8
Layer_1
 62
7
100
AcDbSpline
 70
8
 71
3
 72
8
 73
4
 74
0
 40
0
 40
0
 40
0
 40
0
 40
1
 40
1
 40
1
 40
1
 10
310.946104
 20
64.241494
 30
0.0
 10
311.357134
 20
64.411750
 30
0.0
 10
311.625156
 20
64.812850
 30
0.0
 10
311.625156
 20
65.257759
 30
0.0
  0
SPLINE
  5
122
100
AcDbEntity
  8
Layer_1
 62
7
100
AcDbSpline
 70
8
 71
3
 72
8
 73
4
 74
0
 40
0
 40
0
 40
0
 40
0
 40
1
 40
1
 40
1
 40
1
 10
311.625156
 20
65.257759
 30
0.0
 10
311.625156
 20
65.549496
 30
0.0
 10
311.509269
 20
65.829284
 30
0.0
 10
311.302974
 20
66.035574
 30
0.0
  0
SPLINE
  5
123
100
AcDbEntity
  8
Layer_1
 62
7
100
AcDbSpline
 70
8
 71
3
 72
8
 73
4
 74
0
 40
0
 40
0
 40
0
 40
0
 40
1
 40
1
 40
1
 40
1
 10
311.302974
 20
66.035574
 30
0.0
 10
311.096678
 20
66.241864
 30
0.0
 10
310.816882
 20
66.357754
 30
0.0
 10
310.525153
 20
66.357754
 30
0.0
  0
SPLINE
  5
124
100
AcDbEntity
  8
Layer_1
 62
7
100
AcDbSpline
 70
8
 71
3
 72
8
 73
4
 74
0
 40
0
 40
0
 40
0
 40
0
 40
1
 40
1
 40
1
 40
1
 10
4.138224
 20
66.357754
 30
0.0
 10
3.693317
 20
66.357754
 30
0.0
 10
3.292218
 20
66.089750
 30
0.0
 10
3.121959
 20
65.678710
 30
0.0
  0
SPLINE
  5
125
100
AcDbEntity
  8
Layer_1
 62
7
100
AcDbSpline
 70
8
 71
3
 72
8
 73
4
 74
0
 40
0
 40
0
 40
0
 40
0
 40
1
 40
1
 40
1
 40
1
 10
3.121959
 20
65.678710
 30
0.0
 10
2.951700
 20
65.267668
 30
0.0
 10
3.045811
 20
64.794538
 30
0.0
 10
3.360409
 20
64.479941
 30
0.0
  0
SPLINE
  5
126
100
AcDbEntity
  8
Layer_1
 62
7
100
AcDbSpline
 70
8
 71
3
 72
8
 73
4
 74
0
 40
0
 40
0
 40
0
 40
0
 40
1
 40
1
 40
1
 40
1
 10
3.360409
 20
64.479941
 30
0.0
 10
3.675005
 20
64.165344
 30
0.0
 10
4.148134
 20
64.071235
 30
0.0
 10
4.559176
 20
64.241494
 30
0.0
  0
SPLINE
  5
127
100
AcDbEntity
  8
Layer_1
 62
7
100
AcDbSpline
 70
8
 71
3
 72
8
 73
4
 74
0
 40
0
 40
0
 40
0
 40
0
 40
1
 40
1
 40
1
 40
1
 10
4.559176
 20
64.241494
 30
0.0
 10
4.970217
 20
64.411750
 30
0.0
 10
5.238222
 20
64.812850
 30
0.0
 10
5.238222
 20
65.257759
 30
0.0
  0
SPLINE
  5
128
100
AcDbEntity
  8
Layer_1
 62
7
100
AcDbSpline
 70
8
 71
3
 72
8
 73
4
 74
0
 40
0
 40
0
 40
0
 40
0
 40
1
 40
1
 40
1
 40
1
 10
5.238222
 20
65.257759
 30
0.0
 10
5.238222
 20
65.549496
 30
0.0
 10
5.122330
 20
65.829284
 30
0.0
 10
4.916040
 20
66.035574
 30
0.0
  0
SPLINE
  5
129
100
AcDbEntity
  8
Layer_1
 62
7
100
AcDbSpline
 70
8
 71
3
 72
8
 73
4
 74
0
 40
0
 40
0
 40
0
 40
0
 40
1
 40
1
 40
1
 40
1
 10
4.916040
 20
66.035574
 30
0.0
 10
4.709750
 20
66.241864
 30
0.0
 10
4.429962
 20
66.357754
 30
0.0
 10
4.138224
 20
66.357754
 30
0.0
  0
SPLINE
  5
12a
100
AcDbEntity
  8
Layer_1
 62
7
100
AcDbSpline
 70
8
 71
3
 72
8
 73
4
 74
0
 40
0
 40
0
 40
0
 40
0
 40
1
 40
1
 40
1
 40
1
 10
105.738511
 20
36.195313
 30
0.0
 10
105.293605
 20
36.195313
 30
0.0
 10
104.892505
 20
35.927307
 30
0.0
 10
104.722246
 20
35.516267
 30
0.0
  0
SPLINE
  5
12b
100
AcDbEntity
  8
Layer_1
 62
7
100
AcDbSpline
 70
8
 71
3
 72
8
 73
4
 74
0
 40
0
 40
0
 40
0
 40
0
 40
1
 40
1
 40
1
 40
1
 10
104.722246
 20
35.516267
 30
0.0
 10
104.551987
 20
35.105224
 30
0.0
 10
104.646099
 20
34.632097
 30
0.0
 10
104.960696
 20
34.317497
 30
0.0
  0
SPLINE
  5
12c
100
AcDbEntity
  8
Layer_1
 62
7
100
AcDbSpline
 70
8
 71
3
 72
8
 73
4
 74
0
 40
0
 40
0
 40
0
 40
0
 40
1
 40
1
 40
1
 40
1
 10
104.960696
 20
34.317497
 30
0.0
 10
105.275293
 20
34.002903
 30
0.0
 10
105.748420
 20
33.908791
 30
0.0
 10
106.159463
 20
34.079050
 30
0.0
  0
SPLINE
  5
12d
100
AcDbEntity
  8
Layer_1
 62
7
100
AcDbSpline
 70
8
 71
3
 72
8
 73
4
 74
0
 40
0
 40
0
 40
0
 40
0
 40
1
 40
1
 40
1
 40
1
 10
106.159463
 20
34.079050
 30
0.0
 10
106.570503
 20
34.249309
 30
0.0
 10
106.838509
 20
34.650406
 30
0.0
 10
106.838509
 20
35.095315
 30
0.0
  0
SPLINE
  5
12e
100
AcDbEntity
  8
Layer_1
 62
7
100
AcDbSpline
 70
8
 71
3
 72
8
 73
4
 74
0
 40
0
 40
0
 40
0
 40
0
 40
1
 40
1
 40
1
 40
1
 10
106.838509
 20
35.095315
 30
0.0
 10
106.838509
 20
35.387052
 30
0.0
 10
106.722617
 20
35.666841
 30
0.0
 10
106.516327
 20
35.873131
 30
0.0
  0
SPLINE
  5
12f
100
AcDbEntity
  8
Layer_1
 62
7
100
AcDbSpline
 70
8
 71
3
 72
8
 73
4
 74
0
 40
0
 40
0
 40
0
 40
0
 40
1
 40
1
 40
1
 40
1
 10
106.516327
 20
35.873131
 30
0.0
 10
106.310037
 20
36.079421
 30
0.0
 10
106.030248
 20
36.195313
 30
0.0
 10
105.738511
 20
36.195313
 30
0.0
  0
SPLINE
  5
130
100
AcDbEntity
  8
Layer_1
 62
7
100
AcDbSpline
 70
8
 71
3
 72
8
 73
4
 74
0
 40
0
 40
0
 40
0
 40
0
 40
1
 40
1
 40
1
 40
1
 10
208.925342
 20
36.195313
 30
0.0
 10
208.480436
 20
36.195313
 30
0.0
 10
208.079336
 20
35.927307
 30
0.0
 10
207.909077
 20
35.516267
 30
0.0
  0
SPLINE
  5
131
100
AcDbEntity
  8
Layer_1
 62
7
100
AcDbSpline
 70
8
 71
3
 72
8
 73
4
 74
0
 40
0
 40
0
 40
0
 40
0
 40
1
 40
1
 40
1
 40
1
 10
207.909077
 20
35.516267
 30
0.0
 10
207.738818
 20
35.105224
 30
0.0
 10
207.832930
 20
34.632097
 30
0.0
 10
208.147527
 20
34.317497
 30
0.0
  0
SPLINE
  5
132
100
AcDbEntity
  8
Layer_1
 62
7
100
AcDbSpline
 70
8
 71
3
 72
8
 73
4
 74
0
 40
0
 40
0
 40
0
 40
0
 40
1
 40
1
 40
1
 40
1
 10
208.147527
 20
34.317497
 30
0.0
 10
208.462124
 20
34.002903
 30
0.0
 10
208.935254
 20
33.908791
 30
0.0
 10
209.346294
 20
34.079050
 30
0.0
  0
SPLINE
  5
133
100
AcDbEntity
  8
Layer_1
 62
7
100
AcDbSpline
 70
8
 71
3
 72
8
 73
4
 74
0
 40
0
 40
0
 40
0
 40
0
 40
1
 40
1
 40
1
 40
1
 10
209.346294
 20
34.079050
 30
0.0
 10
209.757334
 20
34.249309
 30
0.0
 10
210.025340
 20
34.650406
 30
0.0
 10
210.025340
 20
35.095315
 30
0.0
  0
SPLINE
  5
134
100
AcDbEntity
  8
Layer_1
 62
7
100
AcDbSpline
 70
8
 71
3
 72
8
 73
4
 74
0
 40
0
 40
0
 40
0
 40
0
 40
1
 40
1
 40
1
 40
1
 10
210.025340
 20
35.095315
 30
0.0
 10
210.025340
 20
35.387052
 30
0.0
 10
209.909448
 20
35.666841
 30
0.0
 10
209.703158
 20
35.873131
 30
0.0
  0
SPLINE
  5
135
100
AcDbEntity
  8
Layer_1
 62
7
100
AcDbSpline
 70
8
 71
3
 72
8
 73
4
 74
0
 40
0
 40
0
 40
0
 40
0
 40
1
 40
1
 40
1
 40
1
 10
209.703158
 20
35.873131
 30
0.0
 10
209.496868
 20
36.079421
 30
0.0
 10
209.217079
 20
36.195313
 30
0.0
 10
208.925342
 20
36.195313
 30
0.0
  0
SPLINE
  5
136
100
AcDbEntity
  8
Layer_1
 62
7
100
AcDbSpline
 70
8
 71
3
 72
8
 73
4
 74
0
 40
0
 40
0
 40
0
 40
0
 40
1
 40
1
 40
1
 40
1
 10
0.132476
 20
26.326188
 30
0.0
 10
0.132482
 20
28.518071
 30
0.0
 10
1.909349
 20
30.294936
 30
0.0
 10
4.101225
 20
30.294936
 30
0.0
  0
SPLINE
  5
137
100
AcDbEntity
  8
Layer_1
 62
7
100
AcDbSpline
 70
8
 71
3
 72
8
 73
4
 74
0
 40
0
 40
0
 40
0
 40
0
 40
1
 40
1
 40
1
 40
1
 10
310.488153
 20
30.294925
 30
0.0
 10
312.680037
 20
30.294925
 30
0.0
 10
314.456896
 20
28.518058
 30
0.0
 10
314.456896
 20
26.326183
 30
0.0
  0
LWPOLYLINE
  5
138
100
AcDbEntity
  8
Layer_1
 62
7
100
AcDbPolyline
 90
2
 70
0
 10
312.112650
 20
32.714070
 30
0.0
 10
2.550727
 20
32.714067
 30
0.0
  0
SPLINE
  5
139
100
AcDbEntity
  8
Layer_1
 62
7
100
AcDbSpline
 70
8
 71
3
 72
8
 73
4
 74
0
 40
0
 40
0
 40
0
 40
0
 40
1
 40
1
 40
1
 40
1
 10
314.456896
 20
4.101224
 30
0.0
 10
314.456896
 20
1.909346
 30
0.0
 10
312.680037
 20
0.132476
 30
0.0
 10
310.488153
 20
0.132473
 30
0.0
  0
LWPOLYLINE
  5
13a
100
AcDbEntity
  8
Layer_1
 62
7
100
AcDbPolyline
 90
2
 70
0
 10
4.101225
 20
30.294936
 30
0.0
 10
310.488153
 20
30.294925
 30
0.0
  0
SPLINE
  5
13b
100
AcDbEntity
  8
Layer_1
 62
7
100
AcDbSpline
 70
8
 71
3
 72
8
 73
4
 74
0
 40
0
 40
0
 40
0
 40
0
 40
1
 40
1
 40
1
 40
1
 10
4.101225
 20
0.132479
 30
0.0
 10
1.909342
 20
0.132481
 30
0.0
 10
0.132470
 20
1.909354
 30
0.0
 10
0.132476
 20
4.101227
 30
0.0
  0
LWPOLYLINE
  5
13c
100
AcDbEntity
  8
Layer_1
 62
7
100
AcDbPolyline
 90
2
 70
0
 10
314.456896
 20
26.326183
 30
0.0
 10
314.456896
 20
4.101224
 30
0.0
  0
SPLINE
  5
13d
100
AcDbEntity
  8
Layer_1
 62
7
100
AcDbSpline
 70
8
 71
3
 72
8
 73
4
 74
0
 40
0
 40
0
 40
0
 40
0
 40
1
 40
1
 40
1
 40
1
 10
208.888343
 20
27.426178
 30
0.0
 10
208.443436
 20
27.426178
 30
0.0
 10
208.042336
 20
27.158174
 30
0.0
 10
207.872077
 20
26.747134
 30
0.0
  0
SPLINE
  5
13e
100
AcDbEntity
  8
Layer_1
 62
7
100
AcDbSpline
 70
8
 71
3
 72
8
 73
4
 74
0
 40
0
 40
0
 40
0
 40
0
 40
1
 40
1
 40
1
 40
1
 10
207.872077
 20
26.747134
 30
0.0
 10
207.701818
 20
26.336091
 30
0.0
 10
207.795930
 20
25.862962
 30
0.0
 10
208.110527
 20
25.548365
 30
0.0
  0
SPLINE
  5
13f
100
AcDbEntity
  8
Layer_1
 62
7
100
AcDbSpline
 70
8
 71
3
 72
8
 73
4
 74
0
 40
0
 40
0
 40
0
 40
0
 40
1
 40
1
 40
1
 40
1
 10
208.110527
 20
25.548365
 30
0.0
 10
208.425124
 20
25.233768
 30
0.0
 10
208.898254
 20
25.139658
 30
0.0
 10
209.309294
 20
25.309917
 30
0.0
  0
SPLINE
  5
140
100
AcDbEntity
  8
Layer_1
 62
7
100
AcDbSpline
 70
8
 71
3
 72
8
 73
4
 74
0
 40
0
 40
0
 40
0
 40
0
 40
1
 40
1
 40
1
 40
1
 10
209.309294
 20
25.309917
 30
0.0
 10
209.720334
 20
25.480174
 30
0.0
 10
209.988340
 20
25.881273
 30
0.0
 10
209.988340
 20
26.326183
 30
0.0
  0
SPLINE
  5
141
100
AcDbEntity
  8
Layer_1
 62
7
100
AcDbSpline
 70
8
 71
3
 72
8
 73
4
 74
0
 40
0
 40
0
 40
0
 40
0
 40
1
 40
1
 40
1
 40
1
 10
209.988340
 20
26.326183
 30
0.0
 10
209.988340
 20
26.617920
 30
0.0
 10
209.872448
 20
26.897708
 30
0.0
 10
209.666158
 20
27.103998
 30
0.0
  0
SPLINE
  5
142
100
AcDbEntity
  8
Layer_1
 62
7
100
AcDbSpline
 70
8
 71
3
 72
8
 73
4
 74
0
 40
0
 40
0
 40
0
 40
0
 40
1
 40
1
 40
1
 40
1
 10
209.666158
 20
27.103998
 30
0.0
 10
209.459868
 20
27.310288
 30
0.0
 10
209.180079
 20
27.426178
 30
0.0
 10
208.888343
 20
27.426178
 30
0.0
  0
LWPOLYLINE
  5
143
100
AcDbEntity
  8
Layer_1
 62
7
100
AcDbPolyline
 90
2
 70
0
 10
310.488153
 20
0.132473
 30
0.0
 10
4.101225
 20
0.132479
 30
0.0
  0
SPLINE
  5
144
100
AcDbEntity
  8
Layer_1
 62
7
100
AcDbSpline
 70
8
 71
3
 72
8
 73
4
 74
0
 40
0
 40
0
 40
0
 40
0
 40
1
 40
1
 40
1
 40
1
 10
105.701035
 20
27.426178
 30
0.0
 10
105.256128
 20
27.426178
 30
0.0
 10
104.855029
 20
27.158174
 30
0.0
 10
104.684770
 20
26.747134
 30
0.0
  0
SPLINE
  5
145
100
AcDbEntity
  8
Layer_1
 62
7
100
AcDbSpline
 70
8
 71
3
 72
8
 73
4
 74
0
 40
0
 40
0
 40
0
 40
0
 40
1
 40
1
 40
1
 40
1
 10
104.684770
 20
26.747134
 30
0.0
 10
104.514511
 20
26.336091
 30
0.0
 10
104.608623
 20
25.862962
 30
0.0
 10
104.923220
 20
25.548365
 30
0.0
  0
SPLINE
  5
146
100
AcDbEntity
  8
Layer_1
 62
7
100
AcDbSpline
 70
8
 71
3
 72
8
 73
4
 74
0
 40
0
 40
0
 40
0
 40
0
 40
1
 40
1
 40
1
 40
1
 10
104.923220
 20
25.548365
 30
0.0
 10
105.237817
 20
25.233768
 30
0.0
 10
105.710946
 20
25.139658
 30
0.0
 10
106.121986
 20
25.309917
 30
0.0
  0
SPLINE
  5
147
100
AcDbEntity
  8
Layer_1
 62
7
100
AcDbSpline
 70
8
 71
3
 72
8
 73
4
 74
0
 40
0
 40
0
 40
0
 40
0
 40
1
 40
1
 40
1
 40
1
 10
106.121986
 20
25.309917
 30
0.0
 10
106.533026
 20
25.480174
 30
0.0
 10
106.801033
 20
25.881273
 30
0.0
 10
106.801033
 20
26.326183
 30
0.0
  0
SPLINE
  5
148
100
AcDbEntity
  8
Layer_1
 62
7
100
AcDbSpline
 70
8
 71
3
 72
8
 73
4
 74
0
 40
0
 40
0
 40
0
 40
0
 40
1
 40
1
 40
1
 40
1
 10
106.801033
 20
26.326183
 30
0.0
 10
106.801033
 20
26.617920
 30
0.0
 10
106.685140
 20
26.897708
 30
0.0
 10
106.478850
 20
27.103998
 30
0.0
  0
SPLINE
  5
149
100
AcDbEntity
  8
Layer_1
 62
7
100
AcDbSpline
 70
8
 71
3
 72
8
 73
4
 74
0
 40
0
 40
0
 40
0
 40
0
 40
1
 40
1
 40
1
 40
1
 10
106.478850
 20
27.103998
 30
0.0
 10
106.272560
 20
27.310288
 30
0.0
 10
105.992772
 20
27.426178
 30
0.0
 10
105.701035
 20
27.426178
 30
0.0
  0
SPLINE
  5
14a
100
AcDbEntity
  8
Layer_1
 62
7
100
AcDbSpline
 70
8
 71
3
 72
8
 73
4
 74
0
 40
0
 40
0
 40
0
 40
0
 40
1
 40
1
 40
1
 40
1
 10
310.488153
 20
27.426178
 30
0.0
 10
310.043257
 20
27.426178
 30
0.0
 10
309.642149
 20
27.158174
 30
0.0
 10
309.471890
 20
26.747134
 30
0.0
  0
SPLINE
  5
14b
100
AcDbEntity
  8
Layer_1
 62
7
100
AcDbSpline
 70
8
 71
3
 72
8
 73
4
 74
0
 40
0
 40
0
 40
0
 40
0
 40
1
 40
1
 40
1
 40
1
 10
309.471890
 20
26.747134
 30
0.0
 10
309.301631
 20
26.336091
 30
0.0
 10
309.395743
 20
25.862962
 30
0.0
 10
309.710332
 20
25.548365
 30
0.0
  0
SPLINE
  5
14c
100
AcDbEntity
  8
Layer_1
 62
7
100
AcDbSpline
 70
8
 71
3
 72
8
 73
4
 74
0
 40
0
 40
0
 40
0
 40
0
 40
1
 40
1
 40
1
 40
1
 10
309.710332
 20
25.548365
 30
0.0
 10
310.024921
 20
25.233768
 30
0.0
 10
310.498075
 20
25.139658
 30
0.0
 10
310.909104
 20
25.309917
 30
0.0
  0
SPLINE
  5
14d
100
AcDbEntity
  8
Layer_1
 62
7
100
AcDbSpline
 70
8
 71
3
 72
8
 73
4
 74
0
 40
0
 40
0
 40
0
 40
0
 40
1
 40
1
 40
1
 40
1
 10
310.909104
 20
25.309917
 30
0.0
 10
311.320134
 20
25.480174
 30
0.0
 10
311.588156
 20
25.881273
 30
0.0
 10
311.588156
 20
26.326183
 30
0.0
  0
SPLINE
  5
14e
100
AcDbEntity
  8
Layer_1
 62
7
100
AcDbSpline
 70
8
 71
3
 72
8
 73
4
 74
0
 40
0
 40
0
 40
0
 40
0
 40
1
 40
1
 40
1
 40
1
 10
311.588156
 20
26.326183
 30
0.0
 10
311.588156
 20
26.617920
 30
0.0
 10
311.472269
 20
26.897708
 30
0.0
 10
311.265974
 20
27.103998
 30
0.0
  0
SPLINE
  5
14f
100
AcDbEntity
  8
Layer_1
 62
7
100
AcDbSpline
 70
8
 71
3
 72
8
 73
4
 74
0
 40
0
 40
0
 40
0
 40
0
 40
1
 40
1
 40
1
 40
1
 10
311.265974
 20
27.103998
 30
0.0
 10
311.059678
 20
27.310288
 30
0.0
 10
310.779882
 20
27.426178
 30
0.0
 10
310.488153
 20
27.426178
 30
0.0
  0
SPLINE
  5
150
100
AcDbEntity
  8
Layer_1
 62
7
100
AcDbSpline
 70
8
 71
3
 72
8
 73
4
 74
0
 40
0
 40
0
 40
0
 40
0
 40
1
 40
1
 40
1
 40
1
 10
4.101225
 20
27.426178
 30
0.0
 10
3.656317
 20
27.426178
 30
0.0
 10
3.255218
 20
27.158174
 30
0.0
 10
3.084959
 20
26.747134
 30
0.0
  0
SPLINE
  5
151
100
AcDbEntity
  8
Layer_1
 62
7
100
AcDbSpline
 70
8
 71
3
 72
8
 73
4
 74
0
 40
0
 40
0
 40
0
 40
0
 40
1
 40
1
 40
1
 40
1
 10
3.084959
 20
26.747134
 30
0.0
 10
2.914700
 20
26.336091
 30
0.0
 10
3.008811
 20
25.862962
 30
0.0
 10
3.323409
 20
25.548365
 30
0.0
  0
SPLINE
  5
152
100
AcDbEntity
  8
Layer_1
 62
7
100
AcDbSpline
 70
8
 71
3
 72
8
 73
4
 74
0
 40
0
 40
0
 40
0
 40
0
 40
1
 40
1
 40
1
 40
1
 10
3.323409
 20
25.548365
 30
0.0
 10
3.638005
 20
25.233768
 30
0.0
 10
4.111134
 20
25.139658
 30
0.0
 10
4.522176
 20
25.309917
 30
0.0
  0
SPLINE
  5
153
100
AcDbEntity
  8
Layer_1
 62
7
100
AcDbSpline
 70
8
 71
3
 72
8
 73
4
 74
0
 40
0
 40
0
 40
0
 40
0
 40
1
 40
1
 40
1
 40
1
 10
4.522176
 20
25.309917
 30
0.0
 10
4.933217
 20
25.480174
 30
0.0
 10
5.201222
 20
25.881273
 30
0.0
 10
5.201222
 20
26.326183
 30
0.0
  0
SPLINE
  5
154
100
AcDbEntity
  8
Layer_1
 62
7
100
AcDbSpline
 70
8
 71
3
 72
8
 73
4
 74
0
 40
0
 40
0
 40
0
 40
0
 40
1
 40
1
 40
1
 40
1
 10
5.201222
 20
26.326183
 30
0.0
 10
5.201222
 20
26.617920
 30
0.0
 10
5.085330
 20
26.897708
 30
0.0
 10
4.879040
 20
27.103998
 30
0.0
  0
SPLINE
  5
155
100
AcDbEntity
  8
Layer_1
 62
7
100
AcDbSpline
 70
8
 71
3
 72
8
 73
4
 74
0
 40
0
 40
0
 40
0
 40
0
 40
1
 40
1
 40
1
 40
1
 10
4.879040
 20
27.103998
 30
0.0
 10
4.672750
 20
27.310288
 30
0.0
 10
4.392962
 20
27.426178
 30
0.0
 10
4.101225
 20
27.426178
 30
0.0
  0
LWPOLYLINE
  5
156
100
AcDbEntity
  8
Layer_1
 62
7
100
AcDbPolyline
 90
2
 70
0
 10
0.132476
 20
4.101227
 30
0.0
 10
0.132476
 20
26.326188
 30
0.0
  0
ENDSEC
  0
SECTION
  2
OBJECTS
  0
DICTIONARY
  5
C
330
0
100
AcDbDictionary
  3
ACAD_GROUP
350
D
  3
ACAD_MLINESTYLE
350
17
  0
DICTIONARY
  5
D
330
C
100
AcDbDictionary
  0
DICTIONARY
  5
1A
330
C
100
AcDbDictionary
  0
DICTIONARY
  5
17
330
C
100
AcDbDictionary
  3
STANDARD
350
18
  0
DICTIONARY
  5
19
330
C
100
AcDbDictionary
  0
ENDSEC
  0
EOF
