<?xml version="1.0" encoding="UTF-8" standalone="no"?>
<svg
   xmlns:dc="http://purl.org/dc/elements/1.1/"
   xmlns:cc="http://creativecommons.org/ns#"
   xmlns:rdf="http://www.w3.org/1999/02/22-rdf-syntax-ns#"
   xmlns:svg="http://www.w3.org/2000/svg"
   xmlns="http://www.w3.org/2000/svg"
   xmlns:sodipodi="http://sodipodi.sourceforge.net/DTD/sodipodi-0.dtd"
   xmlns:inkscape="http://www.inkscape.org/namespaces/inkscape"
   width="314.62738mm"
   height="69.358658mm"
   viewBox="0 0 314.62738 69.358658"
   version="1.1"
   id="svg4692"
   inkscape:version="1.0.2-2 (e86c870879, 2021-01-15)"
   sodipodi:docname="windows_combined.svg">
  <defs
     id="defs4686">
    <marker
       id="DistanceX"
       orient="auto"
       refX="0"
       refY="0"
       style="overflow:visible">
      <path
         d="M 3,-3 -3,3 M 0,-5 V 5"
         style="stroke:#000000;stroke-width:0.5"
         id="path5255" />
    </marker>
    <pattern
       id="Hatch"
       patternUnits="userSpaceOnUse"
       width="8"
       height="8"
       x="0"
       y="0">
      <path
         d="M8 4 l-4,4"
         stroke="#000000"
         stroke-width="0.25"
         linecap="square"
         id="path5258" />
      <path
         d="M6 2 l-4,4"
         stroke="#000000"
         stroke-width="0.25"
         linecap="square"
         id="path5260" />
      <path
         d="M4 0 l-4,4"
         stroke="#000000"
         stroke-width="0.25"
         linecap="square"
         id="path5262" />
    </pattern>
    <symbol
       id="*MODEL_SPACE" />
    <symbol
       id="*PAPER_SPACE" />
    <marker
       id="DistanceX-2"
       orient="auto"
       refX="0"
       refY="0"
       style="overflow:visible">
      <path
         d="M 3,-3 -3,3 M 0,-5 V 5"
         style="stroke:#000000;stroke-width:0.5"
         id="path5464" />
    </marker>
    <pattern
       id="Hatch-4"
       patternUnits="userSpaceOnUse"
       width="8"
       height="8"
       x="0"
       y="0">
      <path
         d="M8 4 l-4,4"
         stroke="#000000"
         stroke-width="0.25"
         linecap="square"
         id="path5467" />
      <path
         d="M6 2 l-4,4"
         stroke="#000000"
         stroke-width="0.25"
         linecap="square"
         id="path5469" />
      <path
         d="M4 0 l-4,4"
         stroke="#000000"
         stroke-width="0.25"
         linecap="square"
         id="path5471" />
    </pattern>
    <symbol
       id="*MODEL_SPACE-4" />
    <symbol
       id="*PAPER_SPACE-8" />
  </defs>
  <sodipodi:namedview
     id="base"
     pagecolor="#ffffff"
     bordercolor="#666666"
     borderopacity="1.0"
     inkscape:pageopacity="0.0"
     inkscape:pageshadow="2"
     inkscape:zoom="0.98994949"
     inkscape:cx="63.18655"
     inkscape:cy="-36.142799"
     inkscape:document-units="mm"
     inkscape:current-layer="layer1"
     inkscape:document-rotation="0"
     showgrid="true"
     fit-margin-top="0"
     fit-margin-left="0"
     fit-margin-right="0"
     fit-margin-bottom="0"
     inkscape:window-width="3693"
     inkscape:window-height="2120"
     inkscape:window-x="-12"
     inkscape:window-y="-12"
     inkscape:window-maximized="1">
    <inkscape:grid
       type="xygrid"
       id="grid5610"
       originx="353.88023"
       originy="-56.450741" />
  </sodipodi:namedview>
  <metadata
     id="metadata4689">
    <rdf:RDF>
      <cc:Work
         rdf:about="">
        <dc:format>image/svg+xml</dc:format>
        <dc:type
           rdf:resource="http://purl.org/dc/dcmitype/StillImage" />
        <dc:title></dc:title>
      </cc:Work>
    </rdf:RDF>
  </metadata>
  <g
     inkscape:label="Layer 1"
     inkscape:groupmode="layer"
     id="layer1"
     transform="translate(353.88022,-56.450738)">
    <g
       id="g5456"
       transform="matrix(0.26458333,0,0,0.26458333,-367.99761,-89.604457)">
      <g
         inkscape:label="0"
         id="g5269" />
      <g
         inkscape:label="WindowLarge"
         id="g5381">
        <path
           d="m 63,690.51969 c -4.970563,0 -9,-4.02944 -9,-8.99788"
           style="fill:none;stroke:#000000"
           id="path5271" />
        <path
           d="M 53.999977,567.51966 C 54,559.23536 60.715729,552.51964 69,552.51964"
           style="fill:none;stroke:#000000"
           id="path5273" />
        <path
           d="m 54,681.52181 -2.3e-5,-114.00215"
           style="fill:none;stroke:#000000"
           id="path5275" />
        <path
           d="m 1227,552.51968 c 8.2843,0 15,6.71573 15,15"
           style="fill:none;stroke:#000000"
           id="path5277" />
        <path
           d="m 69,552.51964 1158,4e-5"
           style="fill:none;stroke:#000000"
           id="path5279" />
        <path
           d="m 1242,681.51968 c 0,4.97056 -4.0294,9 -9,9"
           style="fill:none;stroke:#000000"
           id="path5281" />
        <path
           d="m 1242,567.51968 v 114"
           style="fill:none;stroke:#000000"
           id="path5283" />
        <path
           d="m 1227,677.3622 c -1.6815,0 -3.1975,1.01294 -3.841,2.56648"
           style="fill:none;stroke:#000000"
           id="path5285" />
        <path
           d="m 1223.159,679.92868 c -0.6435,1.55355 -0.2878,3.34175 0.9012,4.53079"
           style="fill:none;stroke:#000000"
           id="path5287" />
        <path
           d="m 1224.0602,684.45947 c 1.189,1.18902 2.9773,1.54472 4.5308,0.90122"
           style="fill:none;stroke:#000000"
           id="path5289" />
        <path
           d="m 1228.591,685.36069 c 1.5535,-0.6435 2.5665,-2.15946 2.5665,-3.84101"
           style="fill:none;stroke:#000000"
           id="path5291" />
        <path
           d="m 1231.1575,681.51968 c 0,-1.10263 -0.438,-2.1601 -1.2177,-2.93978"
           style="fill:none;stroke:#000000"
           id="path5293" />
        <path
           d="m 1229.9398,678.5799 c -0.7797,-0.77968 -1.8372,-1.2177 -2.9398,-1.2177"
           style="fill:none;stroke:#000000"
           id="path5295" />
        <path
           d="m 1233,690.51968 -1170,10e-6"
           style="fill:none;stroke:#000000"
           id="path5297" />
        <path
           d="m 69.11509,677.3622 c -1.681545,0 -3.197514,1.01294 -3.841013,2.56648"
           style="fill:none;stroke:#000000"
           id="path5299" />
        <path
           d="m 65.274077,679.92868 c -0.643498,1.55355 -0.287803,3.34175 0.901229,4.53079"
           style="fill:none;stroke:#000000"
           id="path5301" />
        <path
           d="m 66.175306,684.45947 c 1.189032,1.18902 2.97724,1.54472 4.53078,0.90122"
           style="fill:none;stroke:#000000"
           id="path5303" />
        <path
           d="m 70.706086,685.36069 c 1.553545,-0.6435 2.566485,-2.15946 2.566485,-3.84101"
           style="fill:none;stroke:#000000"
           id="path5305" />
        <path
           d="m 73.272571,681.51968 c 0,-2.29611 -1.861368,-4.15748 -4.157481,-4.15748"
           style="fill:none;stroke:#000000"
           id="path5307" />
        <path
           d="m 843,563.36221 c -1.68154,0 -3.19751,1.01293 -3.84101,2.56647"
           style="fill:none;stroke:#000000"
           id="path5309" />
        <path
           d="m 839.15899,565.92868 c -0.6435,1.55355 -0.2878,3.34176 0.90123,4.53079"
           style="fill:none;stroke:#000000"
           id="path5311" />
        <path
           d="m 840.06022,570.45947 c 1.18903,1.18903 2.97724,1.54472 4.53078,0.90122"
           style="fill:none;stroke:#000000"
           id="path5313" />
        <path
           d="m 844.591,571.36069 c 1.55354,-0.64349 2.56648,-2.15946 2.56648,-3.84101"
           style="fill:none;stroke:#000000"
           id="path5315" />
        <path
           d="m 847.15748,567.51968 c 0,-1.10263 -0.43802,-2.1601 -1.2177,-2.93978"
           style="fill:none;stroke:#000000"
           id="path5317" />
        <path
           d="M 845.93978,564.5799 C 845.1601,563.80022 844.10263,563.36221 843,563.36221"
           style="fill:none;stroke:#000000"
           id="path5319" />
        <path
           d="m 453,563.36221 c -1.68154,0 -3.19751,1.01293 -3.84101,2.56647"
           style="fill:none;stroke:#000000"
           id="path5321" />
        <path
           d="m 449.15899,565.92868 c -0.6435,1.55355 -0.2878,3.34176 0.90123,4.53079"
           style="fill:none;stroke:#000000"
           id="path5323" />
        <path
           d="m 450.06022,570.45947 c 1.18903,1.18903 2.97724,1.54472 4.53078,0.90122"
           style="fill:none;stroke:#000000"
           id="path5325" />
        <path
           d="m 454.591,571.36069 c 1.55354,-0.64349 2.56648,-2.15946 2.56648,-3.84101"
           style="fill:none;stroke:#000000"
           id="path5327" />
        <path
           d="m 457.15748,567.51968 c 0,-1.10263 -0.43802,-2.1601 -1.2177,-2.93978"
           style="fill:none;stroke:#000000"
           id="path5329" />
        <path
           d="M 455.93978,564.5799 C 455.1601,563.80022 454.10263,563.36221 453,563.36221"
           style="fill:none;stroke:#000000"
           id="path5331" />
        <path
           d="m 1227,563.36221 c -1.6815,0 -3.1975,1.01293 -3.841,2.56647"
           style="fill:none;stroke:#000000"
           id="path5333" />
        <path
           d="m 1223.159,565.92868 c -0.6435,1.55355 -0.2878,3.34176 0.9012,4.53079"
           style="fill:none;stroke:#000000"
           id="path5335" />
        <path
           d="m 1224.0602,570.45947 c 1.189,1.18903 2.9773,1.54472 4.5308,0.90122"
           style="fill:none;stroke:#000000"
           id="path5337" />
        <path
           d="m 1228.591,571.36069 c 1.5535,-0.64349 2.5665,-2.15946 2.5665,-3.84101"
           style="fill:none;stroke:#000000"
           id="path5339" />
        <path
           d="m 1231.1575,567.51968 c 0,-1.10263 -0.438,-2.1601 -1.2177,-2.93978"
           style="fill:none;stroke:#000000"
           id="path5341" />
        <path
           d="m 1229.9398,564.5799 c -0.7797,-0.77968 -1.8372,-1.21769 -2.9398,-1.21769"
           style="fill:none;stroke:#000000"
           id="path5343" />
        <path
           d="m 69,563.36221 c -1.681542,0 -3.197511,1.01293 -3.841009,2.56647"
           style="fill:none;stroke:#000000"
           id="path5345" />
        <path
           d="m 65.158991,565.92868 c -0.643502,1.55355 -0.287804,3.34176 0.901228,4.53079"
           style="fill:none;stroke:#000000"
           id="path5347" />
        <path
           d="m 66.060219,570.45947 c 1.189028,1.18903 2.977236,1.54472 4.530781,0.90122"
           style="fill:none;stroke:#000000"
           id="path5349" />
        <path
           d="m 70.591,571.36069 c 1.553544,-0.64349 2.56648,-2.15946 2.56648,-3.84101"
           style="fill:none;stroke:#000000"
           id="path5351" />
        <path
           d="m 73.15748,567.51968 c 0,-1.10263 -0.43802,-2.1601 -1.217699,-2.93978"
           style="fill:none;stroke:#000000"
           id="path5353" />
        <path
           d="M 71.939781,564.5799 C 71.160102,563.80022 70.102632,563.36221 69,563.36221"
           style="fill:none;stroke:#000000"
           id="path5355" />
        <path
           d="m 453.0018,677.3622 c -1.68154,0 -3.19751,1.01294 -3.84101,2.56648"
           style="fill:none;stroke:#000000"
           id="path5357" />
        <path
           d="m 449.16079,679.92868 c -0.6435,1.55355 -0.2878,3.34175 0.90123,4.53079"
           style="fill:none;stroke:#000000"
           id="path5359" />
        <path
           d="m 450.06202,684.45947 c 1.18903,1.18902 2.97723,1.54472 4.53078,0.90122"
           style="fill:none;stroke:#000000"
           id="path5361" />
        <path
           d="m 454.5928,685.36069 c 1.55354,-0.6435 2.56648,-2.15946 2.56648,-3.84101"
           style="fill:none;stroke:#000000"
           id="path5363" />
        <path
           d="m 457.15928,681.51968 c 0,-1.10263 -0.43802,-2.1601 -1.2177,-2.93978"
           style="fill:none;stroke:#000000"
           id="path5365" />
        <path
           d="m 455.94158,678.5799 c -0.77968,-0.77968 -1.83715,-1.2177 -2.93978,-1.2177"
           style="fill:none;stroke:#000000"
           id="path5367" />
        <path
           d="m 843,677.3622 c -1.68154,0 -3.19751,1.01294 -3.84101,2.56648"
           style="fill:none;stroke:#000000"
           id="path5369" />
        <path
           d="m 839.15899,679.92868 c -0.6435,1.55355 -0.2878,3.34175 0.90123,4.53079"
           style="fill:none;stroke:#000000"
           id="path5371" />
        <path
           d="m 840.06022,684.45947 c 1.18903,1.18902 2.97724,1.54472 4.53078,0.90122"
           style="fill:none;stroke:#000000"
           id="path5373" />
        <path
           d="m 844.591,685.36069 c 1.55354,-0.6435 2.56648,-2.15946 2.56648,-3.84101"
           style="fill:none;stroke:#000000"
           id="path5375" />
        <path
           d="m 847.15748,681.51968 c 0,-1.10263 -0.43802,-2.1601 -1.2177,-2.93978"
           style="fill:none;stroke:#000000"
           id="path5377" />
        <path
           d="M 845.93978,678.5799 C 845.1601,677.80022 844.10263,677.3622 843,677.3622"
           style="fill:none;stroke:#000000"
           id="path5379" />
      </g>
    </g>
    <g
       id="g5596"
       transform="matrix(0.26458333,0,0,0.26458333,-368.03542,-50.672903)">
      <g
         inkscape:label="0"
         id="g5478" />
      <g
         inkscape:label="WindowSmall"
         id="g5544">
        <path
           d="M 53.999977,567.51966 C 54,559.23536 60.715729,552.51964 69,552.51964"
           style="fill:none;stroke:#000000"
           id="path5480" />
        <path
           d="m 1227,552.51968 c 8.2843,0 15,6.71573 15,15"
           style="fill:none;stroke:#000000"
           id="path5482" />
        <path
           d="m 69,552.51964 1158,4e-5"
           style="fill:none;stroke:#000000"
           id="path5484" />
        <path
           d="m 1242,651.51968 c 0,8.28428 -6.7157,15.00002 -15,15.00003"
           style="fill:none;stroke:#000000"
           id="path5486" />
        <path
           d="m 1242,567.51968 v 84"
           style="fill:none;stroke:#000000"
           id="path5488" />
        <path
           d="m 69,666.51969 c -8.284294,-10e-6 -15.000045,-6.71576 -15.000023,-15.00002"
           style="fill:none;stroke:#000000"
           id="path5490" />
        <path
           d="m 1227,666.51971 -1158,-2e-5"
           style="fill:none;stroke:#000000"
           id="path5492" />
        <path
           d="m 843,563.36221 c -1.68154,0 -3.19751,1.01293 -3.84101,2.56647"
           style="fill:none;stroke:#000000"
           id="path5494" />
        <path
           d="m 839.15899,565.92868 c -0.6435,1.55355 -0.2878,3.34176 0.90123,4.53079"
           style="fill:none;stroke:#000000"
           id="path5496" />
        <path
           d="m 840.06022,570.45947 c 1.18903,1.18903 2.97724,1.54472 4.53078,0.90122"
           style="fill:none;stroke:#000000"
           id="path5498" />
        <path
           d="m 844.591,571.36069 c 1.55354,-0.64349 2.56648,-2.15946 2.56648,-3.84101"
           style="fill:none;stroke:#000000"
           id="path5500" />
        <path
           d="m 847.15748,567.51968 c 0,-1.10263 -0.43802,-2.1601 -1.2177,-2.93978"
           style="fill:none;stroke:#000000"
           id="path5502" />
        <path
           d="M 845.93978,564.5799 C 845.1601,563.80022 844.10263,563.36221 843,563.36221"
           style="fill:none;stroke:#000000"
           id="path5504" />
        <path
           d="M 53.999977,651.51967 V 567.51966"
           style="fill:none;stroke:#000000"
           id="path5506" />
        <path
           d="m 453,563.36221 c -1.68154,0 -3.19751,1.01293 -3.84101,2.56647"
           style="fill:none;stroke:#000000"
           id="path5508" />
        <path
           d="m 449.15899,565.92868 c -0.6435,1.55355 -0.2878,3.34176 0.90123,4.53079"
           style="fill:none;stroke:#000000"
           id="path5510" />
        <path
           d="m 450.06022,570.45947 c 1.18903,1.18903 2.97724,1.54472 4.53078,0.90122"
           style="fill:none;stroke:#000000"
           id="path5512" />
        <path
           d="m 454.591,571.36069 c 1.55354,-0.64349 2.56648,-2.15946 2.56648,-3.84101"
           style="fill:none;stroke:#000000"
           id="path5514" />
        <path
           d="m 457.15748,567.51968 c 0,-1.10263 -0.43802,-2.1601 -1.2177,-2.93978"
           style="fill:none;stroke:#000000"
           id="path5516" />
        <path
           d="M 455.93978,564.5799 C 455.1601,563.80022 454.10263,563.36221 453,563.36221"
           style="fill:none;stroke:#000000"
           id="path5518" />
        <path
           d="m 1227,563.36221 c -1.6815,0 -3.1975,1.01293 -3.841,2.56647"
           style="fill:none;stroke:#000000"
           id="path5520" />
        <path
           d="m 1223.159,565.92868 c -0.6435,1.55355 -0.2878,3.34176 0.9012,4.53079"
           style="fill:none;stroke:#000000"
           id="path5522" />
        <path
           d="m 1224.0602,570.45947 c 1.189,1.18903 2.9773,1.54472 4.5308,0.90122"
           style="fill:none;stroke:#000000"
           id="path5524" />
        <path
           d="m 1228.591,571.36069 c 1.5535,-0.64349 2.5665,-2.15946 2.5665,-3.84101"
           style="fill:none;stroke:#000000"
           id="path5526" />
        <path
           d="m 1231.1575,567.51968 c 0,-1.10263 -0.438,-2.1601 -1.2177,-2.93978"
           style="fill:none;stroke:#000000"
           id="path5528" />
        <path
           d="m 1229.9398,564.5799 c -0.7797,-0.77968 -1.8372,-1.21769 -2.9398,-1.21769"
           style="fill:none;stroke:#000000"
           id="path5530" />
        <path
           d="m 69,563.36221 c -1.681542,0 -3.197511,1.01293 -3.841009,2.56647"
           style="fill:none;stroke:#000000"
           id="path5532" />
        <path
           d="m 65.158991,565.92868 c -0.643502,1.55355 -0.287804,3.34176 0.901228,4.53079"
           style="fill:none;stroke:#000000"
           id="path5534" />
        <path
           d="m 66.060219,570.45947 c 1.189028,1.18903 2.977236,1.54472 4.530781,0.90122"
           style="fill:none;stroke:#000000"
           id="path5536" />
        <path
           d="m 70.591,571.36069 c 1.553544,-0.64349 2.56648,-2.15946 2.56648,-3.84101"
           style="fill:none;stroke:#000000"
           id="path5538" />
        <path
           d="m 73.15748,567.51968 c 0,-1.10263 -0.43802,-2.1601 -1.217699,-2.93978"
           style="fill:none;stroke:#000000"
           id="path5540" />
        <path
           d="M 71.939781,564.5799 C 71.160102,563.80022 70.102632,563.36221 69,563.36221"
           style="fill:none;stroke:#000000"
           id="path5542" />
      </g>
    </g>
  </g>
</svg>
