%TF.GenerationSoftware,KiCad,Pcbnew,(5.1.7)-1*%
%TF.CreationDate,2021-02-21T21:25:05+01:00*%
%TF.ProjectId,kbic65-plate,6b626963-3635-42d7-906c-6174652e6b69,rev?*%
%TF.SameCoordinates,Original*%
%TF.FileFunction,Profile,NP*%
%FSLAX46Y46*%
G04 Gerber Fmt 4.6, Leading zero omitted, Abs format (unit mm)*
G04 Created by KiCad (PCBNEW (5.1.7)-1) date 2021-02-21 21:25:05*
%MOMM*%
%LPD*%
G01*
G04 APERTURE LIST*
%TA.AperFunction,Profile*%
%ADD10C,0.200000*%
%TD*%
G04 APERTURE END LIST*
D10*
X312587508Y59675001D02*
X312587508Y59675001D01*
X312087498Y73174995D02*
X312087498Y60175010D01*
X312087498Y60175010D02*
X312136804Y59958236D01*
X312136804Y59958236D02*
X312269455Y59789179D01*
X312269455Y59789179D02*
X312462548Y59690742D01*
X312462548Y59690742D02*
X312587508Y59675001D01*
X325587492Y73675004D02*
X312587508Y73675004D01*
X312587508Y73675004D02*
X312370733Y73625697D01*
X312370733Y73625697D02*
X312201676Y73493046D01*
X312201676Y73493046D02*
X312103239Y73299954D01*
X312103239Y73299954D02*
X312087498Y73174995D01*
X326087502Y60175010D02*
X326087502Y73174995D01*
X326087502Y73174995D02*
X326038195Y73391768D01*
X326038195Y73391768D02*
X325905544Y73560825D01*
X325905544Y73560825D02*
X325712451Y73659262D01*
X325712451Y73659262D02*
X325587492Y73675004D01*
X312587508Y59675001D02*
X325587492Y59675001D01*
X325587492Y59675001D02*
X325804266Y59724307D01*
X325804266Y59724307D02*
X325973323Y59856958D01*
X325973323Y59856958D02*
X326071760Y60050050D01*
X326071760Y60050050D02*
X326087502Y60175010D01*
X312587508Y40625001D02*
X312587508Y40625001D01*
X312087498Y54124995D02*
X312087498Y41125010D01*
X312087498Y41125010D02*
X312136804Y40908236D01*
X312136804Y40908236D02*
X312269455Y40739179D01*
X312269455Y40739179D02*
X312462548Y40640742D01*
X312462548Y40640742D02*
X312587508Y40625001D01*
X325587492Y54625004D02*
X312587508Y54625004D01*
X312587508Y54625004D02*
X312370733Y54575697D01*
X312370733Y54575697D02*
X312201676Y54443046D01*
X312201676Y54443046D02*
X312103239Y54249954D01*
X312103239Y54249954D02*
X312087498Y54124995D01*
X326087502Y41125010D02*
X326087502Y54124995D01*
X326087502Y54124995D02*
X326038195Y54341768D01*
X326038195Y54341768D02*
X325905544Y54510825D01*
X325905544Y54510825D02*
X325712451Y54609262D01*
X325712451Y54609262D02*
X325587492Y54625004D01*
X312587508Y40625001D02*
X325587492Y40625001D01*
X325587492Y40625001D02*
X325804266Y40674307D01*
X325804266Y40674307D02*
X325973323Y40806958D01*
X325973323Y40806958D02*
X326071760Y41000050D01*
X326071760Y41000050D02*
X326087502Y41125010D01*
X307825008Y16812501D02*
X307825008Y16812501D01*
X307324998Y30312495D02*
X307324998Y17312510D01*
X307324998Y17312510D02*
X307374304Y17095736D01*
X307374304Y17095736D02*
X307506955Y16926679D01*
X307506955Y16926679D02*
X307700048Y16828242D01*
X307700048Y16828242D02*
X307825008Y16812501D01*
X320824992Y30812504D02*
X307825008Y30812504D01*
X307825008Y30812504D02*
X307608233Y30763197D01*
X307608233Y30763197D02*
X307439176Y30630546D01*
X307439176Y30630546D02*
X307340739Y30437454D01*
X307340739Y30437454D02*
X307324998Y30312495D01*
X321325002Y17312510D02*
X321325002Y30312495D01*
X321325002Y30312495D02*
X321275695Y30529268D01*
X321275695Y30529268D02*
X321143044Y30698325D01*
X321143044Y30698325D02*
X320949951Y30796762D01*
X320949951Y30796762D02*
X320824992Y30812504D01*
X307825008Y16812501D02*
X320824992Y16812501D01*
X320824992Y16812501D02*
X321041766Y16861807D01*
X321041766Y16861807D02*
X321210823Y16994458D01*
X321210823Y16994458D02*
X321309260Y17187550D01*
X321309260Y17187550D02*
X321325002Y17312510D01*
X288774981Y16812501D02*
X288774981Y16812501D01*
X288274972Y30312495D02*
X288274972Y17312510D01*
X288274972Y17312510D02*
X288324278Y17095736D01*
X288324278Y17095736D02*
X288456929Y16926679D01*
X288456929Y16926679D02*
X288650021Y16828242D01*
X288650021Y16828242D02*
X288774981Y16812501D01*
X301774992Y30812504D02*
X288774981Y30812504D01*
X288774981Y30812504D02*
X288558207Y30763197D01*
X288558207Y30763197D02*
X288389150Y30630546D01*
X288389150Y30630546D02*
X288290713Y30437454D01*
X288290713Y30437454D02*
X288274972Y30312495D01*
X302274975Y17312510D02*
X302274975Y30312495D01*
X302274975Y30312495D02*
X302225673Y30529268D01*
X302225673Y30529268D02*
X302093033Y30698325D01*
X302093033Y30698325D02*
X301899949Y30796762D01*
X301899949Y30796762D02*
X301774992Y30812504D01*
X288774981Y16812501D02*
X301774992Y16812501D01*
X301774992Y16812501D02*
X301991760Y16861807D01*
X301991760Y16861807D02*
X302160807Y16994458D01*
X302160807Y16994458D02*
X302259235Y17187550D01*
X302259235Y17187550D02*
X302274975Y17312510D01*
X269725008Y16812501D02*
X269725008Y16812501D01*
X269224998Y30312495D02*
X269224998Y17312510D01*
X269224998Y17312510D02*
X269274304Y17095736D01*
X269274304Y17095736D02*
X269406955Y16926679D01*
X269406955Y16926679D02*
X269600048Y16828242D01*
X269600048Y16828242D02*
X269725008Y16812501D01*
X282724992Y30812504D02*
X269725008Y30812504D01*
X269725008Y30812504D02*
X269508233Y30763197D01*
X269508233Y30763197D02*
X269339176Y30630546D01*
X269339176Y30630546D02*
X269240739Y30437454D01*
X269240739Y30437454D02*
X269224998Y30312495D01*
X283225002Y17312510D02*
X283225002Y30312495D01*
X283225002Y30312495D02*
X283175695Y30529268D01*
X283175695Y30529268D02*
X283043044Y30698325D01*
X283043044Y30698325D02*
X282849951Y30796762D01*
X282849951Y30796762D02*
X282724992Y30812504D01*
X269725008Y16812501D02*
X282724992Y16812501D01*
X282724992Y16812501D02*
X282941766Y16861807D01*
X282941766Y16861807D02*
X283110823Y16994458D01*
X283110823Y16994458D02*
X283209260Y17187550D01*
X283209260Y17187550D02*
X283225002Y17312510D01*
X288775008Y35862501D02*
X288775008Y35862501D01*
X288274998Y49362495D02*
X288274998Y36362510D01*
X288274998Y36362510D02*
X288324304Y36145736D01*
X288324304Y36145736D02*
X288456955Y35976679D01*
X288456955Y35976679D02*
X288650048Y35878242D01*
X288650048Y35878242D02*
X288775008Y35862501D01*
X301775019Y49862504D02*
X288775008Y49862504D01*
X288775008Y49862504D02*
X288558233Y49813197D01*
X288558233Y49813197D02*
X288389176Y49680546D01*
X288389176Y49680546D02*
X288290739Y49487454D01*
X288290739Y49487454D02*
X288274998Y49362495D01*
X302275002Y36362510D02*
X302275002Y49362495D01*
X302275002Y49362495D02*
X302225700Y49579268D01*
X302225700Y49579268D02*
X302093059Y49748325D01*
X302093059Y49748325D02*
X301899976Y49846762D01*
X301899976Y49846762D02*
X301775019Y49862504D01*
X288775008Y35862501D02*
X301775019Y35862501D01*
X301775019Y35862501D02*
X301991787Y35911807D01*
X301991787Y35911807D02*
X302160834Y36044458D01*
X302160834Y36044458D02*
X302259261Y36237550D01*
X302259261Y36237550D02*
X302275002Y36362510D01*
X257818743Y40625001D02*
X257818743Y40625001D01*
X257318744Y54124995D02*
X257318744Y41125010D01*
X257318744Y41125010D02*
X257368047Y40908236D01*
X257368047Y40908236D02*
X257500695Y40739179D01*
X257500695Y40739179D02*
X257693784Y40640742D01*
X257693784Y40640742D02*
X257818743Y40625001D01*
X270818742Y54625004D02*
X257818743Y54625004D01*
X257818743Y54625004D02*
X257601971Y54575697D01*
X257601971Y54575697D02*
X257432917Y54443046D01*
X257432917Y54443046D02*
X257334483Y54249954D01*
X257334483Y54249954D02*
X257318744Y54124995D01*
X271318752Y41125010D02*
X271318752Y54124995D01*
X271318752Y54124995D02*
X271269445Y54341768D01*
X271269445Y54341768D02*
X271136794Y54510825D01*
X271136794Y54510825D02*
X270943701Y54609262D01*
X270943701Y54609262D02*
X270818742Y54625004D01*
X257818743Y40625001D02*
X270818742Y40625001D01*
X270818742Y40625001D02*
X271035516Y40674307D01*
X271035516Y40674307D02*
X271204573Y40806958D01*
X271204573Y40806958D02*
X271303010Y41000050D01*
X271303010Y41000050D02*
X271318752Y41125010D01*
X67318750Y21575001D02*
X67318750Y21575001D01*
X66818751Y35074995D02*
X66818751Y22075010D01*
X66818751Y22075010D02*
X66868053Y21858236D01*
X66868053Y21858236D02*
X67000700Y21689179D01*
X67000700Y21689179D02*
X67193790Y21590742D01*
X67193790Y21590742D02*
X67318750Y21575001D01*
X80318750Y35575004D02*
X67318750Y35575004D01*
X67318750Y35575004D02*
X67101976Y35525697D01*
X67101976Y35525697D02*
X66932922Y35393046D01*
X66932922Y35393046D02*
X66834490Y35199954D01*
X66834490Y35199954D02*
X66818751Y35074995D01*
X80818749Y22075010D02*
X80818749Y35074995D01*
X80818749Y35074995D02*
X80769446Y35291768D01*
X80769446Y35291768D02*
X80636799Y35460825D01*
X80636799Y35460825D02*
X80443709Y35559262D01*
X80443709Y35559262D02*
X80318750Y35575004D01*
X67318750Y21575001D02*
X80318750Y21575001D01*
X80318750Y21575001D02*
X80535523Y21624307D01*
X80535523Y21624307D02*
X80704577Y21756958D01*
X80704577Y21756958D02*
X80803009Y21950050D01*
X80803009Y21950050D02*
X80818749Y22075010D01*
X43506250Y21575001D02*
X43506250Y21575001D01*
X43006251Y35074995D02*
X43006251Y22075010D01*
X43006251Y22075010D02*
X43055553Y21858236D01*
X43055553Y21858236D02*
X43188200Y21689179D01*
X43188200Y21689179D02*
X43381290Y21590742D01*
X43381290Y21590742D02*
X43506250Y21575001D01*
X56506250Y35575004D02*
X43506250Y35575004D01*
X43506250Y35575004D02*
X43289476Y35525697D01*
X43289476Y35525697D02*
X43120422Y35393046D01*
X43120422Y35393046D02*
X43021990Y35199954D01*
X43021990Y35199954D02*
X43006251Y35074995D01*
X57006249Y22075010D02*
X57006249Y35074995D01*
X57006249Y35074995D02*
X56956946Y35291768D01*
X56956946Y35291768D02*
X56824299Y35460825D01*
X56824299Y35460825D02*
X56631209Y35559262D01*
X56631209Y35559262D02*
X56506250Y35575004D01*
X43506250Y21575001D02*
X56506250Y21575001D01*
X56506250Y21575001D02*
X56723023Y21624307D01*
X56723023Y21624307D02*
X56892077Y21756958D01*
X56892077Y21756958D02*
X56990509Y21950050D01*
X56990509Y21950050D02*
X57006249Y22075010D01*
X19693750Y21575001D02*
X19693750Y21575001D01*
X19193750Y35074995D02*
X19193750Y22075010D01*
X19193750Y22075010D02*
X19243052Y21858236D01*
X19243052Y21858236D02*
X19375700Y21689179D01*
X19375700Y21689179D02*
X19568790Y21590742D01*
X19568790Y21590742D02*
X19693750Y21575001D01*
X32693750Y35575004D02*
X19693750Y35575004D01*
X19693750Y35575004D02*
X19476976Y35525697D01*
X19476976Y35525697D02*
X19307922Y35393046D01*
X19307922Y35393046D02*
X19209489Y35199954D01*
X19209489Y35199954D02*
X19193750Y35074995D01*
X33193748Y22075010D02*
X33193748Y35074995D01*
X33193748Y35074995D02*
X33144446Y35291768D01*
X33144446Y35291768D02*
X33011799Y35460825D01*
X33011799Y35460825D02*
X32818709Y35559262D01*
X32818709Y35559262D02*
X32693750Y35575004D01*
X19693750Y21575001D02*
X32693750Y21575001D01*
X32693750Y21575001D02*
X32910523Y21624307D01*
X32910523Y21624307D02*
X33079577Y21756958D01*
X33079577Y21756958D02*
X33178009Y21950050D01*
X33178009Y21950050D02*
X33193748Y22075010D01*
X231625000Y40625001D02*
X231625000Y40625001D01*
X231125001Y54124995D02*
X231125001Y41125010D01*
X231125001Y41125010D02*
X231174303Y40908236D01*
X231174303Y40908236D02*
X231306950Y40739179D01*
X231306950Y40739179D02*
X231500040Y40640742D01*
X231500040Y40640742D02*
X231625000Y40625001D01*
X244625000Y54625004D02*
X231625000Y54625004D01*
X231625000Y54625004D02*
X231408226Y54575697D01*
X231408226Y54575697D02*
X231239172Y54443046D01*
X231239172Y54443046D02*
X231140740Y54249954D01*
X231140740Y54249954D02*
X231125001Y54124995D01*
X245124999Y41125010D02*
X245124999Y54124995D01*
X245124999Y54124995D02*
X245075696Y54341768D01*
X245075696Y54341768D02*
X244943049Y54510825D01*
X244943049Y54510825D02*
X244749959Y54609262D01*
X244749959Y54609262D02*
X244625000Y54625004D01*
X231625000Y40625001D02*
X244625000Y40625001D01*
X244625000Y40625001D02*
X244841773Y40674307D01*
X244841773Y40674307D02*
X245010827Y40806958D01*
X245010827Y40806958D02*
X245109259Y41000050D01*
X245109259Y41000050D02*
X245124999Y41125010D01*
X212575000Y40625001D02*
X212575000Y40625001D01*
X212075001Y54124995D02*
X212075001Y41125010D01*
X212075001Y41125010D02*
X212124303Y40908236D01*
X212124303Y40908236D02*
X212256950Y40739179D01*
X212256950Y40739179D02*
X212450040Y40640742D01*
X212450040Y40640742D02*
X212575000Y40625001D01*
X225575000Y54625004D02*
X212575000Y54625004D01*
X212575000Y54625004D02*
X212358226Y54575697D01*
X212358226Y54575697D02*
X212189172Y54443046D01*
X212189172Y54443046D02*
X212090740Y54249954D01*
X212090740Y54249954D02*
X212075001Y54124995D01*
X226074999Y41125010D02*
X226074999Y54124995D01*
X226074999Y54124995D02*
X226025696Y54341768D01*
X226025696Y54341768D02*
X225893049Y54510825D01*
X225893049Y54510825D02*
X225699959Y54609262D01*
X225699959Y54609262D02*
X225575000Y54625004D01*
X212575000Y40625001D02*
X225575000Y40625001D01*
X225575000Y40625001D02*
X225791773Y40674307D01*
X225791773Y40674307D02*
X225960827Y40806958D01*
X225960827Y40806958D02*
X226059259Y41000050D01*
X226059259Y41000050D02*
X226074999Y41125010D01*
X193525000Y40625001D02*
X193525000Y40625001D01*
X193025001Y54124995D02*
X193025001Y41125010D01*
X193025001Y41125010D02*
X193074303Y40908236D01*
X193074303Y40908236D02*
X193206950Y40739179D01*
X193206950Y40739179D02*
X193400040Y40640742D01*
X193400040Y40640742D02*
X193525000Y40625001D01*
X206525000Y54625004D02*
X193525000Y54625004D01*
X193525000Y54625004D02*
X193308226Y54575697D01*
X193308226Y54575697D02*
X193139172Y54443046D01*
X193139172Y54443046D02*
X193040740Y54249954D01*
X193040740Y54249954D02*
X193025001Y54124995D01*
X207024999Y41125010D02*
X207024999Y54124995D01*
X207024999Y54124995D02*
X206975696Y54341768D01*
X206975696Y54341768D02*
X206843049Y54510825D01*
X206843049Y54510825D02*
X206649959Y54609262D01*
X206649959Y54609262D02*
X206525000Y54625004D01*
X193525000Y40625001D02*
X206525000Y40625001D01*
X206525000Y40625001D02*
X206741773Y40674307D01*
X206741773Y40674307D02*
X206910827Y40806958D01*
X206910827Y40806958D02*
X207009259Y41000050D01*
X207009259Y41000050D02*
X207024999Y41125010D01*
X174475000Y40625001D02*
X174475000Y40625001D01*
X173975001Y54124995D02*
X173975001Y41125010D01*
X173975001Y41125010D02*
X174024303Y40908236D01*
X174024303Y40908236D02*
X174156950Y40739179D01*
X174156950Y40739179D02*
X174350040Y40640742D01*
X174350040Y40640742D02*
X174475000Y40625001D01*
X187475000Y54625004D02*
X174475000Y54625004D01*
X174475000Y54625004D02*
X174258226Y54575697D01*
X174258226Y54575697D02*
X174089172Y54443046D01*
X174089172Y54443046D02*
X173990740Y54249954D01*
X173990740Y54249954D02*
X173975001Y54124995D01*
X187974999Y41125010D02*
X187974999Y54124995D01*
X187974999Y54124995D02*
X187925696Y54341768D01*
X187925696Y54341768D02*
X187793049Y54510825D01*
X187793049Y54510825D02*
X187599959Y54609262D01*
X187599959Y54609262D02*
X187475000Y54625004D01*
X174475000Y40625001D02*
X187475000Y40625001D01*
X187475000Y40625001D02*
X187691773Y40674307D01*
X187691773Y40674307D02*
X187860827Y40806958D01*
X187860827Y40806958D02*
X187959259Y41000050D01*
X187959259Y41000050D02*
X187974999Y41125010D01*
X155425000Y40625001D02*
X155425000Y40625001D01*
X154925001Y54124995D02*
X154925001Y41125010D01*
X154925001Y41125010D02*
X154974303Y40908236D01*
X154974303Y40908236D02*
X155106950Y40739179D01*
X155106950Y40739179D02*
X155300040Y40640742D01*
X155300040Y40640742D02*
X155425000Y40625001D01*
X168425000Y54625004D02*
X155425000Y54625004D01*
X155425000Y54625004D02*
X155208226Y54575697D01*
X155208226Y54575697D02*
X155039172Y54443046D01*
X155039172Y54443046D02*
X154940740Y54249954D01*
X154940740Y54249954D02*
X154925001Y54124995D01*
X168924999Y41125010D02*
X168924999Y54124995D01*
X168924999Y54124995D02*
X168875696Y54341768D01*
X168875696Y54341768D02*
X168743049Y54510825D01*
X168743049Y54510825D02*
X168549959Y54609262D01*
X168549959Y54609262D02*
X168425000Y54625004D01*
X155425000Y40625001D02*
X168425000Y40625001D01*
X168425000Y40625001D02*
X168641773Y40674307D01*
X168641773Y40674307D02*
X168810827Y40806958D01*
X168810827Y40806958D02*
X168909259Y41000050D01*
X168909259Y41000050D02*
X168924999Y41125010D01*
X136375000Y40625001D02*
X136375000Y40625001D01*
X135875001Y54124995D02*
X135875001Y41125010D01*
X135875001Y41125010D02*
X135924303Y40908236D01*
X135924303Y40908236D02*
X136056950Y40739179D01*
X136056950Y40739179D02*
X136250040Y40640742D01*
X136250040Y40640742D02*
X136375000Y40625001D01*
X149375000Y54625004D02*
X136375000Y54625004D01*
X136375000Y54625004D02*
X136158226Y54575697D01*
X136158226Y54575697D02*
X135989172Y54443046D01*
X135989172Y54443046D02*
X135890740Y54249954D01*
X135890740Y54249954D02*
X135875001Y54124995D01*
X149874999Y41125010D02*
X149874999Y54124995D01*
X149874999Y54124995D02*
X149825696Y54341768D01*
X149825696Y54341768D02*
X149693049Y54510825D01*
X149693049Y54510825D02*
X149499959Y54609262D01*
X149499959Y54609262D02*
X149375000Y54625004D01*
X136375000Y40625001D02*
X149375000Y40625001D01*
X149375000Y40625001D02*
X149591773Y40674307D01*
X149591773Y40674307D02*
X149760827Y40806958D01*
X149760827Y40806958D02*
X149859259Y41000050D01*
X149859259Y41000050D02*
X149874999Y41125010D01*
X117325000Y40625001D02*
X117325000Y40625001D01*
X116825001Y54124995D02*
X116825001Y41125010D01*
X116825001Y41125010D02*
X116874303Y40908236D01*
X116874303Y40908236D02*
X117006950Y40739179D01*
X117006950Y40739179D02*
X117200040Y40640742D01*
X117200040Y40640742D02*
X117325000Y40625001D01*
X130324999Y54625004D02*
X117325000Y54625004D01*
X117325000Y54625004D02*
X117108226Y54575697D01*
X117108226Y54575697D02*
X116939172Y54443046D01*
X116939172Y54443046D02*
X116840740Y54249954D01*
X116840740Y54249954D02*
X116825001Y54124995D01*
X130824998Y41125010D02*
X130824998Y54124995D01*
X130824998Y54124995D02*
X130775696Y54341768D01*
X130775696Y54341768D02*
X130643049Y54510825D01*
X130643049Y54510825D02*
X130449958Y54609262D01*
X130449958Y54609262D02*
X130324999Y54625004D01*
X117325000Y40625001D02*
X130324999Y40625001D01*
X130324999Y40625001D02*
X130541772Y40674307D01*
X130541772Y40674307D02*
X130710827Y40806958D01*
X130710827Y40806958D02*
X130809259Y41000050D01*
X130809259Y41000050D02*
X130824998Y41125010D01*
X98275000Y40625001D02*
X98275000Y40625001D01*
X97775001Y54124995D02*
X97775001Y41125010D01*
X97775001Y41125010D02*
X97824303Y40908236D01*
X97824303Y40908236D02*
X97956950Y40739179D01*
X97956950Y40739179D02*
X98150040Y40640742D01*
X98150040Y40640742D02*
X98275000Y40625001D01*
X111275000Y54625004D02*
X98275000Y54625004D01*
X98275000Y54625004D02*
X98058226Y54575697D01*
X98058226Y54575697D02*
X97889172Y54443046D01*
X97889172Y54443046D02*
X97790740Y54249954D01*
X97790740Y54249954D02*
X97775001Y54124995D01*
X111774999Y41125010D02*
X111774999Y54124995D01*
X111774999Y54124995D02*
X111725696Y54341768D01*
X111725696Y54341768D02*
X111593049Y54510825D01*
X111593049Y54510825D02*
X111399959Y54609262D01*
X111399959Y54609262D02*
X111275000Y54625004D01*
X98275000Y40625001D02*
X111275000Y40625001D01*
X111275000Y40625001D02*
X111491773Y40674307D01*
X111491773Y40674307D02*
X111660827Y40806958D01*
X111660827Y40806958D02*
X111759259Y41000050D01*
X111759259Y41000050D02*
X111774999Y41125010D01*
X79225000Y40625001D02*
X79225000Y40625001D01*
X78725001Y54124995D02*
X78725001Y41125010D01*
X78725001Y41125010D02*
X78774303Y40908236D01*
X78774303Y40908236D02*
X78906950Y40739179D01*
X78906950Y40739179D02*
X79100040Y40640742D01*
X79100040Y40640742D02*
X79225000Y40625001D01*
X92225000Y54625004D02*
X79225000Y54625004D01*
X79225000Y54625004D02*
X79008226Y54575697D01*
X79008226Y54575697D02*
X78839172Y54443046D01*
X78839172Y54443046D02*
X78740740Y54249954D01*
X78740740Y54249954D02*
X78725001Y54124995D01*
X92724999Y41125010D02*
X92724999Y54124995D01*
X92724999Y54124995D02*
X92675696Y54341768D01*
X92675696Y54341768D02*
X92543049Y54510825D01*
X92543049Y54510825D02*
X92349959Y54609262D01*
X92349959Y54609262D02*
X92225000Y54625004D01*
X79225000Y40625001D02*
X92225000Y40625001D01*
X92225000Y40625001D02*
X92441773Y40674307D01*
X92441773Y40674307D02*
X92610827Y40806958D01*
X92610827Y40806958D02*
X92709259Y41000050D01*
X92709259Y41000050D02*
X92724999Y41125010D01*
X60175000Y40625001D02*
X60175000Y40625001D01*
X59675001Y54124995D02*
X59675001Y41125010D01*
X59675001Y41125010D02*
X59724303Y40908236D01*
X59724303Y40908236D02*
X59856950Y40739179D01*
X59856950Y40739179D02*
X60050040Y40640742D01*
X60050040Y40640742D02*
X60175000Y40625001D01*
X73175000Y54625004D02*
X60175000Y54625004D01*
X60175000Y54625004D02*
X59958226Y54575697D01*
X59958226Y54575697D02*
X59789172Y54443046D01*
X59789172Y54443046D02*
X59690740Y54249954D01*
X59690740Y54249954D02*
X59675001Y54124995D01*
X73674999Y41125010D02*
X73674999Y54124995D01*
X73674999Y54124995D02*
X73625696Y54341768D01*
X73625696Y54341768D02*
X73493049Y54510825D01*
X73493049Y54510825D02*
X73299959Y54609262D01*
X73299959Y54609262D02*
X73175000Y54625004D01*
X60175000Y40625001D02*
X73175000Y40625001D01*
X73175000Y40625001D02*
X73391773Y40674307D01*
X73391773Y40674307D02*
X73560827Y40806958D01*
X73560827Y40806958D02*
X73659259Y41000050D01*
X73659259Y41000050D02*
X73674999Y41125010D01*
X241150000Y59675001D02*
X241150000Y59675001D01*
X240650001Y73174995D02*
X240650001Y60175010D01*
X240650001Y60175010D02*
X240699303Y59958236D01*
X240699303Y59958236D02*
X240831950Y59789179D01*
X240831950Y59789179D02*
X241025040Y59690742D01*
X241025040Y59690742D02*
X241150000Y59675001D01*
X254150000Y73675004D02*
X241150000Y73675004D01*
X241150000Y73675004D02*
X240933226Y73625697D01*
X240933226Y73625697D02*
X240764172Y73493046D01*
X240764172Y73493046D02*
X240665740Y73299954D01*
X240665740Y73299954D02*
X240650001Y73174995D01*
X254649999Y60175010D02*
X254649999Y73174995D01*
X254649999Y73174995D02*
X254600696Y73391768D01*
X254600696Y73391768D02*
X254468049Y73560825D01*
X254468049Y73560825D02*
X254274959Y73659262D01*
X254274959Y73659262D02*
X254150000Y73675004D01*
X241150000Y59675001D02*
X254150000Y59675001D01*
X254150000Y59675001D02*
X254366773Y59724307D01*
X254366773Y59724307D02*
X254535827Y59856958D01*
X254535827Y59856958D02*
X254634259Y60050050D01*
X254634259Y60050050D02*
X254649999Y60175010D01*
X222100000Y59675001D02*
X222100000Y59675001D01*
X221600001Y73174995D02*
X221600001Y60175010D01*
X221600001Y60175010D02*
X221649303Y59958236D01*
X221649303Y59958236D02*
X221781950Y59789179D01*
X221781950Y59789179D02*
X221975040Y59690742D01*
X221975040Y59690742D02*
X222100000Y59675001D01*
X235100000Y73675004D02*
X222100000Y73675004D01*
X222100000Y73675004D02*
X221883226Y73625697D01*
X221883226Y73625697D02*
X221714172Y73493046D01*
X221714172Y73493046D02*
X221615740Y73299954D01*
X221615740Y73299954D02*
X221600001Y73174995D01*
X235599999Y60175010D02*
X235599999Y73174995D01*
X235599999Y73174995D02*
X235550696Y73391768D01*
X235550696Y73391768D02*
X235418049Y73560825D01*
X235418049Y73560825D02*
X235224959Y73659262D01*
X235224959Y73659262D02*
X235100000Y73675004D01*
X222100000Y59675001D02*
X235100000Y59675001D01*
X235100000Y59675001D02*
X235316773Y59724307D01*
X235316773Y59724307D02*
X235485827Y59856958D01*
X235485827Y59856958D02*
X235584259Y60050050D01*
X235584259Y60050050D02*
X235599999Y60175010D01*
X203050000Y59675001D02*
X203050000Y59675001D01*
X202550001Y73174995D02*
X202550001Y60175010D01*
X202550001Y60175010D02*
X202599303Y59958236D01*
X202599303Y59958236D02*
X202731950Y59789179D01*
X202731950Y59789179D02*
X202925040Y59690742D01*
X202925040Y59690742D02*
X203050000Y59675001D01*
X216050000Y73675004D02*
X203050000Y73675004D01*
X203050000Y73675004D02*
X202833226Y73625697D01*
X202833226Y73625697D02*
X202664172Y73493046D01*
X202664172Y73493046D02*
X202565740Y73299954D01*
X202565740Y73299954D02*
X202550001Y73174995D01*
X216549999Y60175010D02*
X216549999Y73174995D01*
X216549999Y73174995D02*
X216500696Y73391768D01*
X216500696Y73391768D02*
X216368049Y73560825D01*
X216368049Y73560825D02*
X216174959Y73659262D01*
X216174959Y73659262D02*
X216050000Y73675004D01*
X203050000Y59675001D02*
X216050000Y59675001D01*
X216050000Y59675001D02*
X216266773Y59724307D01*
X216266773Y59724307D02*
X216435827Y59856958D01*
X216435827Y59856958D02*
X216534259Y60050050D01*
X216534259Y60050050D02*
X216549999Y60175010D01*
X184000000Y59675001D02*
X184000000Y59675001D01*
X183500001Y73174995D02*
X183500001Y60175010D01*
X183500001Y60175010D02*
X183549303Y59958236D01*
X183549303Y59958236D02*
X183681950Y59789179D01*
X183681950Y59789179D02*
X183875040Y59690742D01*
X183875040Y59690742D02*
X184000000Y59675001D01*
X197000000Y73675004D02*
X184000000Y73675004D01*
X184000000Y73675004D02*
X183783226Y73625697D01*
X183783226Y73625697D02*
X183614172Y73493046D01*
X183614172Y73493046D02*
X183515740Y73299954D01*
X183515740Y73299954D02*
X183500001Y73174995D01*
X197499999Y60175010D02*
X197499999Y73174995D01*
X197499999Y73174995D02*
X197450696Y73391768D01*
X197450696Y73391768D02*
X197318049Y73560825D01*
X197318049Y73560825D02*
X197124959Y73659262D01*
X197124959Y73659262D02*
X197000000Y73675004D01*
X184000000Y59675001D02*
X197000000Y59675001D01*
X197000000Y59675001D02*
X197216773Y59724307D01*
X197216773Y59724307D02*
X197385827Y59856958D01*
X197385827Y59856958D02*
X197484259Y60050050D01*
X197484259Y60050050D02*
X197499999Y60175010D01*
X164950000Y59675001D02*
X164950000Y59675001D01*
X164450001Y73174995D02*
X164450001Y60175010D01*
X164450001Y60175010D02*
X164499303Y59958236D01*
X164499303Y59958236D02*
X164631950Y59789179D01*
X164631950Y59789179D02*
X164825040Y59690742D01*
X164825040Y59690742D02*
X164950000Y59675001D01*
X177950000Y73675004D02*
X164950000Y73675004D01*
X164950000Y73675004D02*
X164733226Y73625697D01*
X164733226Y73625697D02*
X164564172Y73493046D01*
X164564172Y73493046D02*
X164465740Y73299954D01*
X164465740Y73299954D02*
X164450001Y73174995D01*
X178449999Y60175010D02*
X178449999Y73174995D01*
X178449999Y73174995D02*
X178400696Y73391768D01*
X178400696Y73391768D02*
X178268049Y73560825D01*
X178268049Y73560825D02*
X178074959Y73659262D01*
X178074959Y73659262D02*
X177950000Y73675004D01*
X164950000Y59675001D02*
X177950000Y59675001D01*
X177950000Y59675001D02*
X178166773Y59724307D01*
X178166773Y59724307D02*
X178335827Y59856958D01*
X178335827Y59856958D02*
X178434259Y60050050D01*
X178434259Y60050050D02*
X178449999Y60175010D01*
X145900000Y59675001D02*
X145900000Y59675001D01*
X145400001Y73174995D02*
X145400001Y60175010D01*
X145400001Y60175010D02*
X145449303Y59958236D01*
X145449303Y59958236D02*
X145581950Y59789179D01*
X145581950Y59789179D02*
X145775040Y59690742D01*
X145775040Y59690742D02*
X145900000Y59675001D01*
X158900000Y73675004D02*
X145900000Y73675004D01*
X145900000Y73675004D02*
X145683226Y73625697D01*
X145683226Y73625697D02*
X145514172Y73493046D01*
X145514172Y73493046D02*
X145415740Y73299954D01*
X145415740Y73299954D02*
X145400001Y73174995D01*
X159399999Y60175010D02*
X159399999Y73174995D01*
X159399999Y73174995D02*
X159350696Y73391768D01*
X159350696Y73391768D02*
X159218049Y73560825D01*
X159218049Y73560825D02*
X159024959Y73659262D01*
X159024959Y73659262D02*
X158900000Y73675004D01*
X145900000Y59675001D02*
X158900000Y59675001D01*
X158900000Y59675001D02*
X159116773Y59724307D01*
X159116773Y59724307D02*
X159285827Y59856958D01*
X159285827Y59856958D02*
X159384259Y60050050D01*
X159384259Y60050050D02*
X159399999Y60175010D01*
X126850000Y59675001D02*
X126850000Y59675001D01*
X126350001Y73174995D02*
X126350001Y60175010D01*
X126350001Y60175010D02*
X126399303Y59958236D01*
X126399303Y59958236D02*
X126531950Y59789179D01*
X126531950Y59789179D02*
X126725040Y59690742D01*
X126725040Y59690742D02*
X126850000Y59675001D01*
X139850000Y73675004D02*
X126850000Y73675004D01*
X126850000Y73675004D02*
X126633226Y73625697D01*
X126633226Y73625697D02*
X126464172Y73493046D01*
X126464172Y73493046D02*
X126365740Y73299954D01*
X126365740Y73299954D02*
X126350001Y73174995D01*
X140349999Y60175010D02*
X140349999Y73174995D01*
X140349999Y73174995D02*
X140300696Y73391768D01*
X140300696Y73391768D02*
X140168049Y73560825D01*
X140168049Y73560825D02*
X139974959Y73659262D01*
X139974959Y73659262D02*
X139850000Y73675004D01*
X126850000Y59675001D02*
X139850000Y59675001D01*
X139850000Y59675001D02*
X140066773Y59724307D01*
X140066773Y59724307D02*
X140235827Y59856958D01*
X140235827Y59856958D02*
X140334259Y60050050D01*
X140334259Y60050050D02*
X140349999Y60175010D01*
X107800000Y59675001D02*
X107800000Y59675001D01*
X107300001Y73174995D02*
X107300001Y60175010D01*
X107300001Y60175010D02*
X107349303Y59958236D01*
X107349303Y59958236D02*
X107481950Y59789179D01*
X107481950Y59789179D02*
X107675040Y59690742D01*
X107675040Y59690742D02*
X107800000Y59675001D01*
X120800000Y73675004D02*
X107800000Y73675004D01*
X107800000Y73675004D02*
X107583226Y73625697D01*
X107583226Y73625697D02*
X107414172Y73493046D01*
X107414172Y73493046D02*
X107315740Y73299954D01*
X107315740Y73299954D02*
X107300001Y73174995D01*
X121299999Y60175010D02*
X121299999Y73174995D01*
X121299999Y73174995D02*
X121250696Y73391768D01*
X121250696Y73391768D02*
X121118049Y73560825D01*
X121118049Y73560825D02*
X120924959Y73659262D01*
X120924959Y73659262D02*
X120800000Y73675004D01*
X107800000Y59675001D02*
X120800000Y59675001D01*
X120800000Y59675001D02*
X121016773Y59724307D01*
X121016773Y59724307D02*
X121185827Y59856958D01*
X121185827Y59856958D02*
X121284259Y60050050D01*
X121284259Y60050050D02*
X121299999Y60175010D01*
X88750000Y59675001D02*
X88750000Y59675001D01*
X88250001Y73174995D02*
X88250001Y60175010D01*
X88250001Y60175010D02*
X88299303Y59958236D01*
X88299303Y59958236D02*
X88431950Y59789179D01*
X88431950Y59789179D02*
X88625040Y59690742D01*
X88625040Y59690742D02*
X88750000Y59675001D01*
X101750000Y73675004D02*
X88750000Y73675004D01*
X88750000Y73675004D02*
X88533226Y73625697D01*
X88533226Y73625697D02*
X88364172Y73493046D01*
X88364172Y73493046D02*
X88265740Y73299954D01*
X88265740Y73299954D02*
X88250001Y73174995D01*
X102249999Y60175010D02*
X102249999Y73174995D01*
X102249999Y73174995D02*
X102200696Y73391768D01*
X102200696Y73391768D02*
X102068049Y73560825D01*
X102068049Y73560825D02*
X101874959Y73659262D01*
X101874959Y73659262D02*
X101750000Y73675004D01*
X88750000Y59675001D02*
X101750000Y59675001D01*
X101750000Y59675001D02*
X101966773Y59724307D01*
X101966773Y59724307D02*
X102135827Y59856958D01*
X102135827Y59856958D02*
X102234259Y60050050D01*
X102234259Y60050050D02*
X102249999Y60175010D01*
X69700000Y59675001D02*
X69700000Y59675001D01*
X69200001Y73174995D02*
X69200001Y60175010D01*
X69200001Y60175010D02*
X69249303Y59958236D01*
X69249303Y59958236D02*
X69381950Y59789179D01*
X69381950Y59789179D02*
X69575040Y59690742D01*
X69575040Y59690742D02*
X69700000Y59675001D01*
X82700000Y73675004D02*
X69700000Y73675004D01*
X69700000Y73675004D02*
X69483226Y73625697D01*
X69483226Y73625697D02*
X69314172Y73493046D01*
X69314172Y73493046D02*
X69215740Y73299954D01*
X69215740Y73299954D02*
X69200001Y73174995D01*
X83199999Y60175010D02*
X83199999Y73174995D01*
X83199999Y73174995D02*
X83150696Y73391768D01*
X83150696Y73391768D02*
X83018049Y73560825D01*
X83018049Y73560825D02*
X82824959Y73659262D01*
X82824959Y73659262D02*
X82700000Y73675004D01*
X69700000Y59675001D02*
X82700000Y59675001D01*
X82700000Y59675001D02*
X82916773Y59724307D01*
X82916773Y59724307D02*
X83085827Y59856958D01*
X83085827Y59856958D02*
X83184259Y60050050D01*
X83184259Y60050050D02*
X83199999Y60175010D01*
X50650000Y59675001D02*
X50650000Y59675001D01*
X50150001Y73174995D02*
X50150001Y60175010D01*
X50150001Y60175010D02*
X50199303Y59958236D01*
X50199303Y59958236D02*
X50331950Y59789179D01*
X50331950Y59789179D02*
X50525040Y59690742D01*
X50525040Y59690742D02*
X50650000Y59675001D01*
X63650000Y73675004D02*
X50650000Y73675004D01*
X50650000Y73675004D02*
X50433226Y73625697D01*
X50433226Y73625697D02*
X50264172Y73493046D01*
X50264172Y73493046D02*
X50165740Y73299954D01*
X50165740Y73299954D02*
X50150001Y73174995D01*
X64149998Y60175010D02*
X64149998Y73174995D01*
X64149998Y73174995D02*
X64100696Y73391768D01*
X64100696Y73391768D02*
X63968049Y73560825D01*
X63968049Y73560825D02*
X63774959Y73659262D01*
X63774959Y73659262D02*
X63650000Y73675004D01*
X50650000Y59675001D02*
X63650000Y59675001D01*
X63650000Y59675001D02*
X63866772Y59724307D01*
X63866772Y59724307D02*
X64035826Y59856958D01*
X64035826Y59856958D02*
X64134259Y60050050D01*
X64134259Y60050050D02*
X64149998Y60175010D01*
X312587508Y78725001D02*
X312587508Y78725001D01*
X312087498Y92224995D02*
X312087498Y79225010D01*
X312087498Y79225010D02*
X312136804Y79008236D01*
X312136804Y79008236D02*
X312269455Y78839179D01*
X312269455Y78839179D02*
X312462548Y78740742D01*
X312462548Y78740742D02*
X312587508Y78725001D01*
X325587492Y92725004D02*
X312587508Y92725004D01*
X312587508Y92725004D02*
X312370733Y92675697D01*
X312370733Y92675697D02*
X312201676Y92543046D01*
X312201676Y92543046D02*
X312103239Y92349954D01*
X312103239Y92349954D02*
X312087498Y92224995D01*
X326087502Y79225010D02*
X326087502Y92224995D01*
X326087502Y92224995D02*
X326038195Y92441768D01*
X326038195Y92441768D02*
X325905544Y92610825D01*
X325905544Y92610825D02*
X325712451Y92709262D01*
X325712451Y92709262D02*
X325587492Y92725004D01*
X312587508Y78725001D02*
X325587492Y78725001D01*
X325587492Y78725001D02*
X325804266Y78774307D01*
X325804266Y78774307D02*
X325973323Y78906958D01*
X325973323Y78906958D02*
X326071760Y79100050D01*
X326071760Y79100050D02*
X326087502Y79225010D01*
X255437500Y78725001D02*
X255437500Y78725001D01*
X254937501Y92224995D02*
X254937501Y79225010D01*
X254937501Y79225010D02*
X254986803Y79008236D01*
X254986803Y79008236D02*
X255119450Y78839179D01*
X255119450Y78839179D02*
X255312540Y78740742D01*
X255312540Y78740742D02*
X255437500Y78725001D01*
X268437492Y92725004D02*
X255437500Y92725004D01*
X255437500Y92725004D02*
X255220726Y92675697D01*
X255220726Y92675697D02*
X255051672Y92543046D01*
X255051672Y92543046D02*
X254953240Y92349954D01*
X254953240Y92349954D02*
X254937501Y92224995D01*
X268937502Y79225010D02*
X268937502Y92224995D01*
X268937502Y92224995D02*
X268888195Y92441768D01*
X268888195Y92441768D02*
X268755544Y92610825D01*
X268755544Y92610825D02*
X268562451Y92709262D01*
X268562451Y92709262D02*
X268437492Y92725004D01*
X255437500Y78725001D02*
X268437492Y78725001D01*
X268437492Y78725001D02*
X268654266Y78774307D01*
X268654266Y78774307D02*
X268823323Y78906958D01*
X268823323Y78906958D02*
X268921760Y79100050D01*
X268921760Y79100050D02*
X268937502Y79225010D01*
X236387500Y78725001D02*
X236387500Y78725001D01*
X235887501Y92224995D02*
X235887501Y79225010D01*
X235887501Y79225010D02*
X235936803Y79008236D01*
X235936803Y79008236D02*
X236069450Y78839179D01*
X236069450Y78839179D02*
X236262540Y78740742D01*
X236262540Y78740742D02*
X236387500Y78725001D01*
X249387500Y92725004D02*
X236387500Y92725004D01*
X236387500Y92725004D02*
X236170726Y92675697D01*
X236170726Y92675697D02*
X236001672Y92543046D01*
X236001672Y92543046D02*
X235903240Y92349954D01*
X235903240Y92349954D02*
X235887501Y92224995D01*
X249887499Y79225010D02*
X249887499Y92224995D01*
X249887499Y92224995D02*
X249838196Y92441768D01*
X249838196Y92441768D02*
X249705549Y92610825D01*
X249705549Y92610825D02*
X249512459Y92709262D01*
X249512459Y92709262D02*
X249387500Y92725004D01*
X236387500Y78725001D02*
X249387500Y78725001D01*
X249387500Y78725001D02*
X249604273Y78774307D01*
X249604273Y78774307D02*
X249773327Y78906958D01*
X249773327Y78906958D02*
X249871759Y79100050D01*
X249871759Y79100050D02*
X249887499Y79225010D01*
X217337500Y78725001D02*
X217337500Y78725001D01*
X216837501Y92224995D02*
X216837501Y79225010D01*
X216837501Y79225010D02*
X216886803Y79008236D01*
X216886803Y79008236D02*
X217019450Y78839179D01*
X217019450Y78839179D02*
X217212540Y78740742D01*
X217212540Y78740742D02*
X217337500Y78725001D01*
X230337500Y92725004D02*
X217337500Y92725004D01*
X217337500Y92725004D02*
X217120726Y92675697D01*
X217120726Y92675697D02*
X216951672Y92543046D01*
X216951672Y92543046D02*
X216853240Y92349954D01*
X216853240Y92349954D02*
X216837501Y92224995D01*
X230837499Y79225010D02*
X230837499Y92224995D01*
X230837499Y92224995D02*
X230788196Y92441768D01*
X230788196Y92441768D02*
X230655549Y92610825D01*
X230655549Y92610825D02*
X230462459Y92709262D01*
X230462459Y92709262D02*
X230337500Y92725004D01*
X217337500Y78725001D02*
X230337500Y78725001D01*
X230337500Y78725001D02*
X230554273Y78774307D01*
X230554273Y78774307D02*
X230723327Y78906958D01*
X230723327Y78906958D02*
X230821759Y79100050D01*
X230821759Y79100050D02*
X230837499Y79225010D01*
X198287500Y78725001D02*
X198287500Y78725001D01*
X197787501Y92224995D02*
X197787501Y79225010D01*
X197787501Y79225010D02*
X197836803Y79008236D01*
X197836803Y79008236D02*
X197969450Y78839179D01*
X197969450Y78839179D02*
X198162540Y78740742D01*
X198162540Y78740742D02*
X198287500Y78725001D01*
X211287500Y92725004D02*
X198287500Y92725004D01*
X198287500Y92725004D02*
X198070726Y92675697D01*
X198070726Y92675697D02*
X197901672Y92543046D01*
X197901672Y92543046D02*
X197803240Y92349954D01*
X197803240Y92349954D02*
X197787501Y92224995D01*
X211787499Y79225010D02*
X211787499Y92224995D01*
X211787499Y92224995D02*
X211738196Y92441768D01*
X211738196Y92441768D02*
X211605549Y92610825D01*
X211605549Y92610825D02*
X211412459Y92709262D01*
X211412459Y92709262D02*
X211287500Y92725004D01*
X198287500Y78725001D02*
X211287500Y78725001D01*
X211287500Y78725001D02*
X211504273Y78774307D01*
X211504273Y78774307D02*
X211673327Y78906958D01*
X211673327Y78906958D02*
X211771759Y79100050D01*
X211771759Y79100050D02*
X211787499Y79225010D01*
X179237500Y78725001D02*
X179237500Y78725001D01*
X178737501Y92224995D02*
X178737501Y79225010D01*
X178737501Y79225010D02*
X178786803Y79008236D01*
X178786803Y79008236D02*
X178919450Y78839179D01*
X178919450Y78839179D02*
X179112540Y78740742D01*
X179112540Y78740742D02*
X179237500Y78725001D01*
X192237500Y92725004D02*
X179237500Y92725004D01*
X179237500Y92725004D02*
X179020726Y92675697D01*
X179020726Y92675697D02*
X178851672Y92543046D01*
X178851672Y92543046D02*
X178753240Y92349954D01*
X178753240Y92349954D02*
X178737501Y92224995D01*
X192737499Y79225010D02*
X192737499Y92224995D01*
X192737499Y92224995D02*
X192688196Y92441768D01*
X192688196Y92441768D02*
X192555549Y92610825D01*
X192555549Y92610825D02*
X192362459Y92709262D01*
X192362459Y92709262D02*
X192237500Y92725004D01*
X179237500Y78725001D02*
X192237500Y78725001D01*
X192237500Y78725001D02*
X192454273Y78774307D01*
X192454273Y78774307D02*
X192623327Y78906958D01*
X192623327Y78906958D02*
X192721759Y79100050D01*
X192721759Y79100050D02*
X192737499Y79225010D01*
X160187500Y78725001D02*
X160187500Y78725001D01*
X159687501Y92224995D02*
X159687501Y79225010D01*
X159687501Y79225010D02*
X159736803Y79008236D01*
X159736803Y79008236D02*
X159869450Y78839179D01*
X159869450Y78839179D02*
X160062540Y78740742D01*
X160062540Y78740742D02*
X160187500Y78725001D01*
X173187500Y92725004D02*
X160187500Y92725004D01*
X160187500Y92725004D02*
X159970726Y92675697D01*
X159970726Y92675697D02*
X159801672Y92543046D01*
X159801672Y92543046D02*
X159703240Y92349954D01*
X159703240Y92349954D02*
X159687501Y92224995D01*
X173687499Y79225010D02*
X173687499Y92224995D01*
X173687499Y92224995D02*
X173638196Y92441768D01*
X173638196Y92441768D02*
X173505549Y92610825D01*
X173505549Y92610825D02*
X173312459Y92709262D01*
X173312459Y92709262D02*
X173187500Y92725004D01*
X160187500Y78725001D02*
X173187500Y78725001D01*
X173187500Y78725001D02*
X173404273Y78774307D01*
X173404273Y78774307D02*
X173573327Y78906958D01*
X173573327Y78906958D02*
X173671759Y79100050D01*
X173671759Y79100050D02*
X173687499Y79225010D01*
X141137500Y78725001D02*
X141137500Y78725001D01*
X140637501Y92224995D02*
X140637501Y79225010D01*
X140637501Y79225010D02*
X140686803Y79008236D01*
X140686803Y79008236D02*
X140819450Y78839179D01*
X140819450Y78839179D02*
X141012540Y78740742D01*
X141012540Y78740742D02*
X141137500Y78725001D01*
X154137500Y92725004D02*
X141137500Y92725004D01*
X141137500Y92725004D02*
X140920726Y92675697D01*
X140920726Y92675697D02*
X140751672Y92543046D01*
X140751672Y92543046D02*
X140653240Y92349954D01*
X140653240Y92349954D02*
X140637501Y92224995D01*
X154637499Y79225010D02*
X154637499Y92224995D01*
X154637499Y92224995D02*
X154588196Y92441768D01*
X154588196Y92441768D02*
X154455549Y92610825D01*
X154455549Y92610825D02*
X154262459Y92709262D01*
X154262459Y92709262D02*
X154137500Y92725004D01*
X141137500Y78725001D02*
X154137500Y78725001D01*
X154137500Y78725001D02*
X154354273Y78774307D01*
X154354273Y78774307D02*
X154523327Y78906958D01*
X154523327Y78906958D02*
X154621759Y79100050D01*
X154621759Y79100050D02*
X154637499Y79225010D01*
X122087500Y78725001D02*
X122087500Y78725001D01*
X121587501Y92224995D02*
X121587501Y79225010D01*
X121587501Y79225010D02*
X121636803Y79008236D01*
X121636803Y79008236D02*
X121769450Y78839179D01*
X121769450Y78839179D02*
X121962540Y78740742D01*
X121962540Y78740742D02*
X122087500Y78725001D01*
X135087500Y92725004D02*
X122087500Y92725004D01*
X122087500Y92725004D02*
X121870726Y92675697D01*
X121870726Y92675697D02*
X121701672Y92543046D01*
X121701672Y92543046D02*
X121603240Y92349954D01*
X121603240Y92349954D02*
X121587501Y92224995D01*
X135587499Y79225010D02*
X135587499Y92224995D01*
X135587499Y92224995D02*
X135538196Y92441768D01*
X135538196Y92441768D02*
X135405549Y92610825D01*
X135405549Y92610825D02*
X135212459Y92709262D01*
X135212459Y92709262D02*
X135087500Y92725004D01*
X122087500Y78725001D02*
X135087500Y78725001D01*
X135087500Y78725001D02*
X135304273Y78774307D01*
X135304273Y78774307D02*
X135473327Y78906958D01*
X135473327Y78906958D02*
X135571759Y79100050D01*
X135571759Y79100050D02*
X135587499Y79225010D01*
X103037500Y78725001D02*
X103037500Y78725001D01*
X102537501Y92224995D02*
X102537501Y79225010D01*
X102537501Y79225010D02*
X102586803Y79008236D01*
X102586803Y79008236D02*
X102719450Y78839179D01*
X102719450Y78839179D02*
X102912540Y78740742D01*
X102912540Y78740742D02*
X103037500Y78725001D01*
X116037500Y92725004D02*
X103037500Y92725004D01*
X103037500Y92725004D02*
X102820726Y92675697D01*
X102820726Y92675697D02*
X102651672Y92543046D01*
X102651672Y92543046D02*
X102553240Y92349954D01*
X102553240Y92349954D02*
X102537501Y92224995D01*
X116537499Y79225010D02*
X116537499Y92224995D01*
X116537499Y92224995D02*
X116488196Y92441768D01*
X116488196Y92441768D02*
X116355549Y92610825D01*
X116355549Y92610825D02*
X116162459Y92709262D01*
X116162459Y92709262D02*
X116037500Y92725004D01*
X103037500Y78725001D02*
X116037500Y78725001D01*
X116037500Y78725001D02*
X116254273Y78774307D01*
X116254273Y78774307D02*
X116423327Y78906958D01*
X116423327Y78906958D02*
X116521759Y79100050D01*
X116521759Y79100050D02*
X116537499Y79225010D01*
X83987500Y78725001D02*
X83987500Y78725001D01*
X83487501Y92224995D02*
X83487501Y79225010D01*
X83487501Y79225010D02*
X83536803Y79008236D01*
X83536803Y79008236D02*
X83669450Y78839179D01*
X83669450Y78839179D02*
X83862540Y78740742D01*
X83862540Y78740742D02*
X83987500Y78725001D01*
X96987500Y92725004D02*
X83987500Y92725004D01*
X83987500Y92725004D02*
X83770726Y92675697D01*
X83770726Y92675697D02*
X83601672Y92543046D01*
X83601672Y92543046D02*
X83503240Y92349954D01*
X83503240Y92349954D02*
X83487501Y92224995D01*
X97487499Y79225010D02*
X97487499Y92224995D01*
X97487499Y92224995D02*
X97438196Y92441768D01*
X97438196Y92441768D02*
X97305549Y92610825D01*
X97305549Y92610825D02*
X97112459Y92709262D01*
X97112459Y92709262D02*
X96987500Y92725004D01*
X83987500Y78725001D02*
X96987500Y78725001D01*
X96987500Y78725001D02*
X97204273Y78774307D01*
X97204273Y78774307D02*
X97373327Y78906958D01*
X97373327Y78906958D02*
X97471759Y79100050D01*
X97471759Y79100050D02*
X97487499Y79225010D01*
X64937500Y78725001D02*
X64937500Y78725001D01*
X64437501Y92224995D02*
X64437501Y79225010D01*
X64437501Y79225010D02*
X64486803Y79008236D01*
X64486803Y79008236D02*
X64619450Y78839179D01*
X64619450Y78839179D02*
X64812540Y78740742D01*
X64812540Y78740742D02*
X64937500Y78725001D01*
X77937500Y92725004D02*
X64937500Y92725004D01*
X64937500Y92725004D02*
X64720726Y92675697D01*
X64720726Y92675697D02*
X64551672Y92543046D01*
X64551672Y92543046D02*
X64453240Y92349954D01*
X64453240Y92349954D02*
X64437501Y92224995D01*
X78437499Y79225010D02*
X78437499Y92224995D01*
X78437499Y92224995D02*
X78388196Y92441768D01*
X78388196Y92441768D02*
X78255549Y92610825D01*
X78255549Y92610825D02*
X78062459Y92709262D01*
X78062459Y92709262D02*
X77937500Y92725004D01*
X64937500Y78725001D02*
X77937500Y78725001D01*
X77937500Y78725001D02*
X78154273Y78774307D01*
X78154273Y78774307D02*
X78323327Y78906958D01*
X78323327Y78906958D02*
X78421759Y79100050D01*
X78421759Y79100050D02*
X78437499Y79225010D01*
X45887500Y78725001D02*
X45887500Y78725001D01*
X45387501Y92224995D02*
X45387501Y79225010D01*
X45387501Y79225010D02*
X45436803Y79008236D01*
X45436803Y79008236D02*
X45569450Y78839179D01*
X45569450Y78839179D02*
X45762540Y78740742D01*
X45762540Y78740742D02*
X45887500Y78725001D01*
X58887500Y92725004D02*
X45887500Y92725004D01*
X45887500Y92725004D02*
X45670726Y92675697D01*
X45670726Y92675697D02*
X45501672Y92543046D01*
X45501672Y92543046D02*
X45403240Y92349954D01*
X45403240Y92349954D02*
X45387501Y92224995D01*
X59387499Y79225010D02*
X59387499Y92224995D01*
X59387499Y92224995D02*
X59338196Y92441768D01*
X59338196Y92441768D02*
X59205549Y92610825D01*
X59205549Y92610825D02*
X59012459Y92709262D01*
X59012459Y92709262D02*
X58887500Y92725004D01*
X45887500Y78725001D02*
X58887500Y78725001D01*
X58887500Y78725001D02*
X59104273Y78774307D01*
X59104273Y78774307D02*
X59273327Y78906958D01*
X59273327Y78906958D02*
X59371759Y79100050D01*
X59371759Y79100050D02*
X59387499Y79225010D01*
X22075000Y78725001D02*
X22075000Y78725001D01*
X21575000Y92224995D02*
X21575000Y79225010D01*
X21575000Y79225010D02*
X21624302Y79008236D01*
X21624302Y79008236D02*
X21756950Y78839179D01*
X21756950Y78839179D02*
X21950040Y78740742D01*
X21950040Y78740742D02*
X22075000Y78725001D01*
X35075000Y92725004D02*
X22075000Y92725004D01*
X22075000Y92725004D02*
X21858226Y92675697D01*
X21858226Y92675697D02*
X21689172Y92543046D01*
X21689172Y92543046D02*
X21590739Y92349954D01*
X21590739Y92349954D02*
X21575000Y92224995D01*
X35574999Y79225010D02*
X35574999Y92224995D01*
X35574999Y92224995D02*
X35525696Y92441768D01*
X35525696Y92441768D02*
X35393049Y92610825D01*
X35393049Y92610825D02*
X35199959Y92709262D01*
X35199959Y92709262D02*
X35075000Y92725004D01*
X22075000Y78725001D02*
X35075000Y78725001D01*
X35075000Y78725001D02*
X35291773Y78774307D01*
X35291773Y78774307D02*
X35460827Y78906958D01*
X35460827Y78906958D02*
X35559259Y79100050D01*
X35559259Y79100050D02*
X35574999Y79225010D01*
X312587508Y97775001D02*
X312587508Y97775001D01*
X312087498Y111274995D02*
X312087498Y98275010D01*
X312087498Y98275010D02*
X312136804Y98058236D01*
X312136804Y98058236D02*
X312269455Y97889179D01*
X312269455Y97889179D02*
X312462548Y97790742D01*
X312462548Y97790742D02*
X312587508Y97775001D01*
X325587492Y111775004D02*
X312587508Y111775004D01*
X312587508Y111775004D02*
X312370733Y111725697D01*
X312370733Y111725697D02*
X312201676Y111593046D01*
X312201676Y111593046D02*
X312103239Y111399954D01*
X312103239Y111399954D02*
X312087498Y111274995D01*
X326087502Y98275010D02*
X326087502Y111274995D01*
X326087502Y111274995D02*
X326038195Y111491768D01*
X326038195Y111491768D02*
X325905544Y111660825D01*
X325905544Y111660825D02*
X325712451Y111759262D01*
X325712451Y111759262D02*
X325587492Y111775004D01*
X312587508Y97775001D02*
X325587492Y97775001D01*
X325587492Y97775001D02*
X325804266Y97824307D01*
X325804266Y97824307D02*
X325973323Y97956958D01*
X325973323Y97956958D02*
X326071760Y98150050D01*
X326071760Y98150050D02*
X326087502Y98275010D01*
X245912500Y97775001D02*
X245912500Y97775001D01*
X245412501Y111274995D02*
X245412501Y98275010D01*
X245412501Y98275010D02*
X245461803Y98058236D01*
X245461803Y98058236D02*
X245594450Y97889179D01*
X245594450Y97889179D02*
X245787540Y97790742D01*
X245787540Y97790742D02*
X245912500Y97775001D01*
X258912500Y111775004D02*
X245912500Y111775004D01*
X245912500Y111775004D02*
X245695726Y111725697D01*
X245695726Y111725697D02*
X245526672Y111593046D01*
X245526672Y111593046D02*
X245428240Y111399954D01*
X245428240Y111399954D02*
X245412501Y111274995D01*
X259412499Y98275010D02*
X259412499Y111274995D01*
X259412499Y111274995D02*
X259363196Y111491768D01*
X259363196Y111491768D02*
X259230549Y111660825D01*
X259230549Y111660825D02*
X259037459Y111759262D01*
X259037459Y111759262D02*
X258912500Y111775004D01*
X245912500Y97775001D02*
X258912500Y97775001D01*
X258912500Y97775001D02*
X259129273Y97824307D01*
X259129273Y97824307D02*
X259298327Y97956958D01*
X259298327Y97956958D02*
X259396759Y98150050D01*
X259396759Y98150050D02*
X259412499Y98275010D01*
X226862500Y97775001D02*
X226862500Y97775001D01*
X226362501Y111274995D02*
X226362501Y98275010D01*
X226362501Y98275010D02*
X226411803Y98058236D01*
X226411803Y98058236D02*
X226544450Y97889179D01*
X226544450Y97889179D02*
X226737540Y97790742D01*
X226737540Y97790742D02*
X226862500Y97775001D01*
X239862500Y111775004D02*
X226862500Y111775004D01*
X226862500Y111775004D02*
X226645726Y111725697D01*
X226645726Y111725697D02*
X226476672Y111593046D01*
X226476672Y111593046D02*
X226378240Y111399954D01*
X226378240Y111399954D02*
X226362501Y111274995D01*
X240362499Y98275010D02*
X240362499Y111274995D01*
X240362499Y111274995D02*
X240313196Y111491768D01*
X240313196Y111491768D02*
X240180549Y111660825D01*
X240180549Y111660825D02*
X239987459Y111759262D01*
X239987459Y111759262D02*
X239862500Y111775004D01*
X226862500Y97775001D02*
X239862500Y97775001D01*
X239862500Y97775001D02*
X240079273Y97824307D01*
X240079273Y97824307D02*
X240248327Y97956958D01*
X240248327Y97956958D02*
X240346759Y98150050D01*
X240346759Y98150050D02*
X240362499Y98275010D01*
X207812500Y97775001D02*
X207812500Y97775001D01*
X207312501Y111274995D02*
X207312501Y98275010D01*
X207312501Y98275010D02*
X207361803Y98058236D01*
X207361803Y98058236D02*
X207494450Y97889179D01*
X207494450Y97889179D02*
X207687540Y97790742D01*
X207687540Y97790742D02*
X207812500Y97775001D01*
X220812500Y111775004D02*
X207812500Y111775004D01*
X207812500Y111775004D02*
X207595726Y111725697D01*
X207595726Y111725697D02*
X207426672Y111593046D01*
X207426672Y111593046D02*
X207328240Y111399954D01*
X207328240Y111399954D02*
X207312501Y111274995D01*
X221312499Y98275010D02*
X221312499Y111274995D01*
X221312499Y111274995D02*
X221263196Y111491768D01*
X221263196Y111491768D02*
X221130549Y111660825D01*
X221130549Y111660825D02*
X220937459Y111759262D01*
X220937459Y111759262D02*
X220812500Y111775004D01*
X207812500Y97775001D02*
X220812500Y97775001D01*
X220812500Y97775001D02*
X221029273Y97824307D01*
X221029273Y97824307D02*
X221198327Y97956958D01*
X221198327Y97956958D02*
X221296759Y98150050D01*
X221296759Y98150050D02*
X221312499Y98275010D01*
X188762500Y97775001D02*
X188762500Y97775001D01*
X188262501Y111274995D02*
X188262501Y98275010D01*
X188262501Y98275010D02*
X188311803Y98058236D01*
X188311803Y98058236D02*
X188444450Y97889179D01*
X188444450Y97889179D02*
X188637540Y97790742D01*
X188637540Y97790742D02*
X188762500Y97775001D01*
X201762500Y111775004D02*
X188762500Y111775004D01*
X188762500Y111775004D02*
X188545726Y111725697D01*
X188545726Y111725697D02*
X188376672Y111593046D01*
X188376672Y111593046D02*
X188278240Y111399954D01*
X188278240Y111399954D02*
X188262501Y111274995D01*
X202262499Y98275010D02*
X202262499Y111274995D01*
X202262499Y111274995D02*
X202213196Y111491768D01*
X202213196Y111491768D02*
X202080549Y111660825D01*
X202080549Y111660825D02*
X201887459Y111759262D01*
X201887459Y111759262D02*
X201762500Y111775004D01*
X188762500Y97775001D02*
X201762500Y97775001D01*
X201762500Y97775001D02*
X201979273Y97824307D01*
X201979273Y97824307D02*
X202148327Y97956958D01*
X202148327Y97956958D02*
X202246759Y98150050D01*
X202246759Y98150050D02*
X202262499Y98275010D01*
X169712500Y97775001D02*
X169712500Y97775001D01*
X169212501Y111274995D02*
X169212501Y98275010D01*
X169212501Y98275010D02*
X169261803Y98058236D01*
X169261803Y98058236D02*
X169394450Y97889179D01*
X169394450Y97889179D02*
X169587540Y97790742D01*
X169587540Y97790742D02*
X169712500Y97775001D01*
X182712500Y111775004D02*
X169712500Y111775004D01*
X169712500Y111775004D02*
X169495726Y111725697D01*
X169495726Y111725697D02*
X169326672Y111593046D01*
X169326672Y111593046D02*
X169228240Y111399954D01*
X169228240Y111399954D02*
X169212501Y111274995D01*
X183212499Y98275010D02*
X183212499Y111274995D01*
X183212499Y111274995D02*
X183163196Y111491768D01*
X183163196Y111491768D02*
X183030549Y111660825D01*
X183030549Y111660825D02*
X182837459Y111759262D01*
X182837459Y111759262D02*
X182712500Y111775004D01*
X169712500Y97775001D02*
X182712500Y97775001D01*
X182712500Y97775001D02*
X182929273Y97824307D01*
X182929273Y97824307D02*
X183098327Y97956958D01*
X183098327Y97956958D02*
X183196759Y98150050D01*
X183196759Y98150050D02*
X183212499Y98275010D01*
X150662500Y97775001D02*
X150662500Y97775001D01*
X150162501Y111274995D02*
X150162501Y98275010D01*
X150162501Y98275010D02*
X150211803Y98058236D01*
X150211803Y98058236D02*
X150344450Y97889179D01*
X150344450Y97889179D02*
X150537540Y97790742D01*
X150537540Y97790742D02*
X150662500Y97775001D01*
X163662500Y111775004D02*
X150662500Y111775004D01*
X150662500Y111775004D02*
X150445726Y111725697D01*
X150445726Y111725697D02*
X150276672Y111593046D01*
X150276672Y111593046D02*
X150178240Y111399954D01*
X150178240Y111399954D02*
X150162501Y111274995D01*
X164162499Y98275010D02*
X164162499Y111274995D01*
X164162499Y111274995D02*
X164113196Y111491768D01*
X164113196Y111491768D02*
X163980549Y111660825D01*
X163980549Y111660825D02*
X163787459Y111759262D01*
X163787459Y111759262D02*
X163662500Y111775004D01*
X150662500Y97775001D02*
X163662500Y97775001D01*
X163662500Y97775001D02*
X163879273Y97824307D01*
X163879273Y97824307D02*
X164048327Y97956958D01*
X164048327Y97956958D02*
X164146759Y98150050D01*
X164146759Y98150050D02*
X164162499Y98275010D01*
X131612500Y97775001D02*
X131612500Y97775001D01*
X131112501Y111274995D02*
X131112501Y98275010D01*
X131112501Y98275010D02*
X131161803Y98058236D01*
X131161803Y98058236D02*
X131294450Y97889179D01*
X131294450Y97889179D02*
X131487540Y97790742D01*
X131487540Y97790742D02*
X131612500Y97775001D01*
X144612500Y111775004D02*
X131612500Y111775004D01*
X131612500Y111775004D02*
X131395726Y111725697D01*
X131395726Y111725697D02*
X131226672Y111593046D01*
X131226672Y111593046D02*
X131128240Y111399954D01*
X131128240Y111399954D02*
X131112501Y111274995D01*
X145112499Y98275010D02*
X145112499Y111274995D01*
X145112499Y111274995D02*
X145063196Y111491768D01*
X145063196Y111491768D02*
X144930549Y111660825D01*
X144930549Y111660825D02*
X144737459Y111759262D01*
X144737459Y111759262D02*
X144612500Y111775004D01*
X131612500Y97775001D02*
X144612500Y97775001D01*
X144612500Y97775001D02*
X144829273Y97824307D01*
X144829273Y97824307D02*
X144998327Y97956958D01*
X144998327Y97956958D02*
X145096759Y98150050D01*
X145096759Y98150050D02*
X145112499Y98275010D01*
X112562500Y97775001D02*
X112562500Y97775001D01*
X112062501Y111274995D02*
X112062501Y98275010D01*
X112062501Y98275010D02*
X112111803Y98058236D01*
X112111803Y98058236D02*
X112244450Y97889179D01*
X112244450Y97889179D02*
X112437540Y97790742D01*
X112437540Y97790742D02*
X112562500Y97775001D01*
X125562500Y111775004D02*
X112562500Y111775004D01*
X112562500Y111775004D02*
X112345726Y111725697D01*
X112345726Y111725697D02*
X112176672Y111593046D01*
X112176672Y111593046D02*
X112078240Y111399954D01*
X112078240Y111399954D02*
X112062501Y111274995D01*
X126062499Y98275010D02*
X126062499Y111274995D01*
X126062499Y111274995D02*
X126013196Y111491768D01*
X126013196Y111491768D02*
X125880549Y111660825D01*
X125880549Y111660825D02*
X125687459Y111759262D01*
X125687459Y111759262D02*
X125562500Y111775004D01*
X112562500Y97775001D02*
X125562500Y97775001D01*
X125562500Y97775001D02*
X125779273Y97824307D01*
X125779273Y97824307D02*
X125948327Y97956958D01*
X125948327Y97956958D02*
X126046759Y98150050D01*
X126046759Y98150050D02*
X126062499Y98275010D01*
X93512500Y97775001D02*
X93512500Y97775001D01*
X93012501Y111274995D02*
X93012501Y98275010D01*
X93012501Y98275010D02*
X93061803Y98058236D01*
X93061803Y98058236D02*
X93194450Y97889179D01*
X93194450Y97889179D02*
X93387540Y97790742D01*
X93387540Y97790742D02*
X93512500Y97775001D01*
X106512500Y111775004D02*
X93512500Y111775004D01*
X93512500Y111775004D02*
X93295726Y111725697D01*
X93295726Y111725697D02*
X93126672Y111593046D01*
X93126672Y111593046D02*
X93028240Y111399954D01*
X93028240Y111399954D02*
X93012501Y111274995D01*
X107012499Y98275010D02*
X107012499Y111274995D01*
X107012499Y111274995D02*
X106963196Y111491768D01*
X106963196Y111491768D02*
X106830549Y111660825D01*
X106830549Y111660825D02*
X106637459Y111759262D01*
X106637459Y111759262D02*
X106512500Y111775004D01*
X93512500Y97775001D02*
X106512500Y97775001D01*
X106512500Y97775001D02*
X106729273Y97824307D01*
X106729273Y97824307D02*
X106898327Y97956958D01*
X106898327Y97956958D02*
X106996759Y98150050D01*
X106996759Y98150050D02*
X107012499Y98275010D01*
X74462500Y97775001D02*
X74462500Y97775001D01*
X73962501Y111274995D02*
X73962501Y98275010D01*
X73962501Y98275010D02*
X74011803Y98058236D01*
X74011803Y98058236D02*
X74144450Y97889179D01*
X74144450Y97889179D02*
X74337540Y97790742D01*
X74337540Y97790742D02*
X74462500Y97775001D01*
X87462500Y111775004D02*
X74462500Y111775004D01*
X74462500Y111775004D02*
X74245726Y111725697D01*
X74245726Y111725697D02*
X74076672Y111593046D01*
X74076672Y111593046D02*
X73978240Y111399954D01*
X73978240Y111399954D02*
X73962501Y111274995D01*
X87962499Y98275010D02*
X87962499Y111274995D01*
X87962499Y111274995D02*
X87913196Y111491768D01*
X87913196Y111491768D02*
X87780549Y111660825D01*
X87780549Y111660825D02*
X87587459Y111759262D01*
X87587459Y111759262D02*
X87462500Y111775004D01*
X74462500Y97775001D02*
X87462500Y97775001D01*
X87462500Y97775001D02*
X87679273Y97824307D01*
X87679273Y97824307D02*
X87848327Y97956958D01*
X87848327Y97956958D02*
X87946759Y98150050D01*
X87946759Y98150050D02*
X87962499Y98275010D01*
X55412500Y97775001D02*
X55412500Y97775001D01*
X54912501Y111274995D02*
X54912501Y98275010D01*
X54912501Y98275010D02*
X54961803Y98058236D01*
X54961803Y98058236D02*
X55094450Y97889179D01*
X55094450Y97889179D02*
X55287540Y97790742D01*
X55287540Y97790742D02*
X55412500Y97775001D01*
X68412500Y111775004D02*
X55412500Y111775004D01*
X55412500Y111775004D02*
X55195726Y111725697D01*
X55195726Y111725697D02*
X55026672Y111593046D01*
X55026672Y111593046D02*
X54928240Y111399954D01*
X54928240Y111399954D02*
X54912501Y111274995D01*
X68912499Y98275010D02*
X68912499Y111274995D01*
X68912499Y111274995D02*
X68863196Y111491768D01*
X68863196Y111491768D02*
X68730549Y111660825D01*
X68730549Y111660825D02*
X68537459Y111759262D01*
X68537459Y111759262D02*
X68412500Y111775004D01*
X55412500Y97775001D02*
X68412500Y97775001D01*
X68412500Y97775001D02*
X68629273Y97824307D01*
X68629273Y97824307D02*
X68798327Y97956958D01*
X68798327Y97956958D02*
X68896759Y98150050D01*
X68896759Y98150050D02*
X68912499Y98275010D01*
X36362500Y97775001D02*
X36362500Y97775001D01*
X35862501Y111274995D02*
X35862501Y98275010D01*
X35862501Y98275010D02*
X35911803Y98058236D01*
X35911803Y98058236D02*
X36044450Y97889179D01*
X36044450Y97889179D02*
X36237540Y97790742D01*
X36237540Y97790742D02*
X36362500Y97775001D01*
X49362500Y111775004D02*
X36362500Y111775004D01*
X36362500Y111775004D02*
X36145726Y111725697D01*
X36145726Y111725697D02*
X35976672Y111593046D01*
X35976672Y111593046D02*
X35878240Y111399954D01*
X35878240Y111399954D02*
X35862501Y111274995D01*
X49862499Y98275010D02*
X49862499Y111274995D01*
X49862499Y111274995D02*
X49813196Y111491768D01*
X49813196Y111491768D02*
X49680549Y111660825D01*
X49680549Y111660825D02*
X49487459Y111759262D01*
X49487459Y111759262D02*
X49362500Y111775004D01*
X36362500Y97775001D02*
X49362500Y97775001D01*
X49362500Y97775001D02*
X49579273Y97824307D01*
X49579273Y97824307D02*
X49748327Y97956958D01*
X49748327Y97956958D02*
X49846759Y98150050D01*
X49846759Y98150050D02*
X49862499Y98275010D01*
X328612500Y116681245D02*
X328612500Y116681245D01*
X18256250Y120649995D02*
X324643750Y120649995D01*
X324643750Y120649995D02*
X324847982Y120644830D01*
X324847982Y120644830D02*
X325049532Y120629504D01*
X325049532Y120629504D02*
X325248153Y120604266D01*
X325248153Y120604266D02*
X325635605Y120525048D01*
X325635605Y120525048D02*
X326008342Y120409172D01*
X326008342Y120409172D02*
X326364370Y120258632D01*
X326364370Y120258632D02*
X326701694Y120075425D01*
X326701694Y120075425D02*
X327018319Y119861544D01*
X327018319Y119861544D02*
X327312251Y119618985D01*
X327312251Y119618985D02*
X327581493Y119349742D01*
X327581493Y119349742D02*
X327824052Y119055810D01*
X327824052Y119055810D02*
X328037932Y118739185D01*
X328037932Y118739185D02*
X328221139Y118401861D01*
X328221139Y118401861D02*
X328371678Y118045833D01*
X328371678Y118045833D02*
X328487553Y117673097D01*
X328487553Y117673097D02*
X328566771Y117285646D01*
X328566771Y117285646D02*
X328592009Y117087026D01*
X328592009Y117087026D02*
X328607335Y116885476D01*
X328607335Y116885476D02*
X328612500Y116681245D01*
X14287500Y15874992D02*
X14287500Y116681245D01*
X14287500Y116681245D02*
X14292664Y116885476D01*
X14292664Y116885476D02*
X14307990Y117087026D01*
X14307990Y117087026D02*
X14333228Y117285646D01*
X14333228Y117285646D02*
X14412446Y117673097D01*
X14412446Y117673097D02*
X14528322Y118045833D01*
X14528322Y118045833D02*
X14678861Y118401861D01*
X14678861Y118401861D02*
X14862069Y118739185D01*
X14862069Y118739185D02*
X15075950Y119055810D01*
X15075950Y119055810D02*
X15318509Y119349742D01*
X15318509Y119349742D02*
X15587752Y119618985D01*
X15587752Y119618985D02*
X15881683Y119861544D01*
X15881683Y119861544D02*
X16198308Y120075425D01*
X16198308Y120075425D02*
X16535632Y120258632D01*
X16535632Y120258632D02*
X16891660Y120409172D01*
X16891660Y120409172D02*
X17264397Y120525048D01*
X17264397Y120525048D02*
X17651848Y120604266D01*
X17651848Y120604266D02*
X17850468Y120629504D01*
X17850468Y120629504D02*
X18052018Y120644830D01*
X18052018Y120644830D02*
X18256250Y120649995D01*
X324646078Y11906245D02*
X18256250Y11906242D01*
X18256250Y11906242D02*
X18052018Y11911406D01*
X18052018Y11911406D02*
X17850467Y11926732D01*
X17850467Y11926732D02*
X17651846Y11951970D01*
X17651846Y11951970D02*
X17264395Y12031188D01*
X17264395Y12031188D02*
X16891657Y12147064D01*
X16891657Y12147064D02*
X16535629Y12297603D01*
X16535629Y12297603D02*
X16198305Y12480811D01*
X16198305Y12480811D02*
X15881680Y12694692D01*
X15881680Y12694692D02*
X15587749Y12937251D01*
X15587749Y12937251D02*
X15318506Y13206494D01*
X15318506Y13206494D02*
X15075948Y13500425D01*
X15075948Y13500425D02*
X14862067Y13817050D01*
X14862067Y13817050D02*
X14678860Y14154374D01*
X14678860Y14154374D02*
X14528321Y14510402D01*
X14528321Y14510402D02*
X14412446Y14883139D01*
X14412446Y14883139D02*
X14333228Y15270590D01*
X14333228Y15270590D02*
X14307990Y15469210D01*
X14307990Y15469210D02*
X14292664Y15670760D01*
X14292664Y15670760D02*
X14287500Y15874992D01*
X328612500Y116681245D02*
X328612500Y15874995D01*
X328612500Y15874995D02*
X328607335Y15670763D01*
X328607335Y15670763D02*
X328592010Y15469213D01*
X328592010Y15469213D02*
X328566773Y15270593D01*
X328566773Y15270593D02*
X328487562Y14883142D01*
X328487562Y14883142D02*
X328371702Y14510405D01*
X328371702Y14510405D02*
X328221191Y14154377D01*
X328221191Y14154377D02*
X328038027Y13817053D01*
X328038027Y13817053D02*
X327824208Y13500428D01*
X327824208Y13500428D02*
X327581733Y13206497D01*
X327581733Y13206497D02*
X327312600Y12937254D01*
X327312600Y12937254D02*
X327018807Y12694695D01*
X327018807Y12694695D02*
X326702352Y12480814D01*
X326702352Y12480814D02*
X326365235Y12297606D01*
X326365235Y12297606D02*
X326009452Y12147067D01*
X326009452Y12147067D02*
X325637003Y12031191D01*
X325637003Y12031191D02*
X325249886Y11951973D01*
X325249886Y11951973D02*
X325051451Y11926735D01*
X325051451Y11926735D02*
X324850098Y11911409D01*
X324850098Y11911409D02*
X324646078Y11906245D01*
X19193750Y54124995D02*
X19193750Y41125010D01*
X44656751Y38625015D02*
X50656749Y38625015D01*
X19693750Y54625004D02*
X19476976Y54575697D01*
X19476976Y54575697D02*
X19307922Y54443046D01*
X19307922Y54443046D02*
X19209489Y54249954D01*
X19209489Y54249954D02*
X19193750Y54124995D01*
X19193750Y41125010D02*
X19243052Y40908236D01*
X19243052Y40908236D02*
X19375700Y40739179D01*
X19375700Y40739179D02*
X19568790Y40640742D01*
X19568790Y40640742D02*
X19693750Y40625001D01*
X44156749Y40124991D02*
X44156749Y39124998D01*
X51156751Y40124991D02*
X51156751Y39124998D01*
X20780750Y38625015D02*
X26780749Y38625015D01*
X44156749Y39124998D02*
X44206060Y38908232D01*
X44206060Y38908232D02*
X44338709Y38739185D01*
X44338709Y38739185D02*
X44531795Y38640755D01*
X44531795Y38640755D02*
X44656751Y38625015D01*
X50656749Y38625015D02*
X50873516Y38674318D01*
X50873516Y38674318D02*
X51042568Y38806960D01*
X51042568Y38806960D02*
X51141005Y39000043D01*
X51141005Y39000043D02*
X51156751Y39124998D01*
X20280750Y40124991D02*
X20280750Y39124998D01*
X27280751Y40125010D02*
X27280751Y39124998D01*
X19693750Y54625004D02*
X54125000Y54625004D01*
X20280750Y39124998D02*
X20330060Y38908233D01*
X20330060Y38908233D02*
X20462709Y38739186D01*
X20462709Y38739186D02*
X20655794Y38640755D01*
X20655794Y38640755D02*
X20780750Y38625015D01*
X26780749Y38625015D02*
X26997516Y38674318D01*
X26997516Y38674318D02*
X27166568Y38806960D01*
X27166568Y38806960D02*
X27265005Y39000043D01*
X27265005Y39000043D02*
X27280751Y39124998D01*
X19693750Y40625001D02*
X19780741Y40625001D01*
X51656761Y40625001D02*
X54125000Y40625001D01*
X27780761Y40625001D02*
X43656739Y40625001D01*
X54624999Y54124995D02*
X54624999Y41125010D01*
X279250008Y92725004D02*
X294631242Y92725004D01*
X54624999Y54124995D02*
X54575696Y54341768D01*
X54575696Y54341768D02*
X54443049Y54510825D01*
X54443049Y54510825D02*
X54249959Y54609262D01*
X54249959Y54609262D02*
X54125000Y54625004D01*
X54125000Y40625001D02*
X54341773Y40674307D01*
X54341773Y40674307D02*
X54510827Y40806958D01*
X54510827Y40806958D02*
X54609259Y41000050D01*
X54609259Y41000050D02*
X54624999Y41125010D01*
X27780761Y40625001D02*
X27563983Y40575697D01*
X27563983Y40575697D02*
X27394925Y40443046D01*
X27394925Y40443046D02*
X27296490Y40249952D01*
X27296490Y40249952D02*
X27280751Y40124991D01*
X20280750Y40124991D02*
X20231446Y40341768D01*
X20231446Y40341768D02*
X20098795Y40510826D01*
X20098795Y40510826D02*
X19905701Y40609261D01*
X19905701Y40609261D02*
X19780741Y40625001D01*
X51656761Y40625001D02*
X51439983Y40575697D01*
X51439983Y40575697D02*
X51270925Y40443046D01*
X51270925Y40443046D02*
X51172490Y40249952D01*
X51172490Y40249952D02*
X51156751Y40124991D01*
X44156749Y40124991D02*
X44107445Y40341768D01*
X44107445Y40341768D02*
X43974794Y40510826D01*
X43974794Y40510826D02*
X43781700Y40609261D01*
X43781700Y40609261D02*
X43656739Y40625001D01*
X279250008Y78725001D02*
X280631239Y78725001D01*
X278749998Y92224995D02*
X278749998Y79225010D01*
X295131252Y92224995D02*
X295131252Y69700010D01*
X279250008Y92725004D02*
X279033233Y92675700D01*
X279033233Y92675700D02*
X278864176Y92543050D01*
X278864176Y92543050D02*
X278765739Y92349956D01*
X278765739Y92349956D02*
X278749998Y92224995D01*
X295131252Y92224995D02*
X295081945Y92441772D01*
X295081945Y92441772D02*
X294949294Y92610829D01*
X294949294Y92610829D02*
X294756201Y92709264D01*
X294756201Y92709264D02*
X294631242Y92725004D01*
X278749998Y79225010D02*
X278799304Y79008232D01*
X278799304Y79008232D02*
X278931955Y78839175D01*
X278931955Y78839175D02*
X279125048Y78740740D01*
X279125048Y78740740D02*
X279250008Y78725001D01*
X281131248Y78224991D02*
X281131248Y74175014D01*
X260200000Y73675004D02*
X280631239Y73675004D01*
X294631242Y69200001D02*
X294848016Y69249304D01*
X294848016Y69249304D02*
X295017073Y69381954D01*
X295017073Y69381954D02*
X295115510Y69575048D01*
X295115510Y69575048D02*
X295131252Y69700010D01*
X260200000Y59675001D02*
X262668239Y59675001D01*
X259700001Y73174995D02*
X259700001Y60175010D01*
X270668247Y59675001D02*
X286544253Y59675001D01*
X260200000Y73675004D02*
X259983226Y73625697D01*
X259983226Y73625697D02*
X259814172Y73493046D01*
X259814172Y73493046D02*
X259715740Y73299954D01*
X259715740Y73299954D02*
X259700001Y73174995D01*
X259700001Y60175010D02*
X259749303Y59958236D01*
X259749303Y59958236D02*
X259881950Y59789179D01*
X259881950Y59789179D02*
X260075040Y59690742D01*
X260075040Y59690742D02*
X260200000Y59675001D01*
X287544245Y57675015D02*
X293631276Y57675015D01*
X286544253Y59675001D02*
X286761026Y59625697D01*
X286761026Y59625697D02*
X286930083Y59493046D01*
X286930083Y59493046D02*
X287028520Y59299952D01*
X287028520Y59299952D02*
X287044262Y59174991D01*
X287044262Y59174991D02*
X287044262Y58174998D01*
X294131259Y68699991D02*
X294131259Y58174998D01*
X263668251Y57675015D02*
X269668255Y57675015D01*
X287044262Y58174998D02*
X287093568Y57958238D01*
X287093568Y57958238D02*
X287226215Y57789192D01*
X287226215Y57789192D02*
X287419296Y57690759D01*
X287419296Y57690759D02*
X287544245Y57675015D01*
X293631276Y57675015D02*
X293848033Y57724324D01*
X293848033Y57724324D02*
X294017082Y57856967D01*
X294017082Y57856967D02*
X294115517Y58050046D01*
X294115517Y58050046D02*
X294131259Y58174998D01*
X263168249Y59174991D02*
X263168249Y58174998D01*
X270168238Y59174991D02*
X270168238Y58174998D01*
X273049497Y97775001D02*
X288925503Y97775001D01*
X263168249Y58174998D02*
X263217559Y57958232D01*
X263217559Y57958232D02*
X263350208Y57789185D01*
X263350208Y57789185D02*
X263543295Y57690755D01*
X263543295Y57690755D02*
X263668251Y57675015D01*
X269668255Y57675015D02*
X269885012Y57724324D01*
X269885012Y57724324D02*
X270054061Y57856967D01*
X270054061Y57856967D02*
X270152496Y58050046D01*
X270152496Y58050046D02*
X270168238Y58174998D01*
X294631242Y69200001D02*
X294414473Y69150697D01*
X294414473Y69150697D02*
X294245426Y69018046D01*
X294245426Y69018046D02*
X294146999Y68824952D01*
X294146999Y68824952D02*
X294131259Y68699991D01*
X262668239Y59675001D02*
X262885016Y59625697D01*
X262885016Y59625697D02*
X263054074Y59493046D01*
X263054074Y59493046D02*
X263152509Y59299952D01*
X263152509Y59299952D02*
X263168249Y59174991D01*
X270668247Y59675001D02*
X270451473Y59625697D01*
X270451473Y59625697D02*
X270282416Y59493046D01*
X270282416Y59493046D02*
X270183979Y59299952D01*
X270183979Y59299952D02*
X270168238Y59174991D01*
X280631239Y73675004D02*
X280848012Y73724307D01*
X280848012Y73724307D02*
X281017069Y73856958D01*
X281017069Y73856958D02*
X281115506Y74050052D01*
X281115506Y74050052D02*
X281131248Y74175014D01*
X281131248Y78224991D02*
X281081941Y78441768D01*
X281081941Y78441768D02*
X280949290Y78610826D01*
X280949290Y78610826D02*
X280756198Y78709261D01*
X280756198Y78709261D02*
X280631239Y78725001D01*
X289925495Y95775015D02*
X295925505Y95775015D01*
X289425512Y97274991D02*
X289425512Y96274998D01*
X296425488Y97274991D02*
X296425488Y96274998D01*
X266049494Y95775015D02*
X272049505Y95775015D01*
X289425512Y96274998D02*
X289474818Y96058238D01*
X289474818Y96058238D02*
X289607465Y95889192D01*
X289607465Y95889192D02*
X289800546Y95790759D01*
X289800546Y95790759D02*
X289925495Y95775015D01*
X295925505Y95775015D02*
X296142262Y95824324D01*
X296142262Y95824324D02*
X296311311Y95956967D01*
X296311311Y95956967D02*
X296409746Y96150046D01*
X296409746Y96150046D02*
X296425488Y96274998D01*
X265549512Y97274991D02*
X265549512Y96274998D01*
X264962508Y111775004D02*
X297012492Y111775004D01*
X265549512Y96274998D02*
X265598817Y96058238D01*
X265598817Y96058238D02*
X265731464Y95889192D01*
X265731464Y95889192D02*
X265924545Y95790759D01*
X265924545Y95790759D02*
X266049494Y95775015D01*
X272049505Y95775015D02*
X272266278Y95824315D01*
X272266278Y95824315D02*
X272435335Y95956957D01*
X272435335Y95956957D02*
X272533772Y96150041D01*
X272533772Y96150041D02*
X272549514Y96274998D01*
X264962508Y97775001D02*
X265049503Y97775001D01*
X264462500Y111274995D02*
X264462500Y98275010D01*
X296925497Y97775001D02*
X297012492Y97775001D01*
X264962508Y111775004D02*
X264745732Y111725699D01*
X264745732Y111725699D02*
X264576675Y111593048D01*
X264576675Y111593048D02*
X264478239Y111399955D01*
X264478239Y111399955D02*
X264462500Y111274995D01*
X264462500Y98275010D02*
X264511804Y98058234D01*
X264511804Y98058234D02*
X264644454Y97889177D01*
X264644454Y97889177D02*
X264837547Y97790741D01*
X264837547Y97790741D02*
X264962508Y97775001D01*
X297512502Y111274995D02*
X297512502Y98275010D01*
X272549514Y97277568D02*
X272549514Y96274998D01*
X297512502Y111274995D02*
X297463195Y111491772D01*
X297463195Y111491772D02*
X297330544Y111660829D01*
X297330544Y111660829D02*
X297137451Y111759264D01*
X297137451Y111759264D02*
X297012492Y111775004D01*
X297012492Y97775001D02*
X297229266Y97824304D01*
X297229266Y97824304D02*
X297398323Y97956954D01*
X297398323Y97956954D02*
X297496760Y98150048D01*
X297496760Y98150048D02*
X297512502Y98275010D01*
X289425512Y97274991D02*
X289376205Y97491768D01*
X289376205Y97491768D02*
X289243554Y97660826D01*
X289243554Y97660826D02*
X289050462Y97759261D01*
X289050462Y97759261D02*
X288925503Y97775001D01*
X296925497Y97775001D02*
X296708723Y97725697D01*
X296708723Y97725697D02*
X296539666Y97593046D01*
X296539666Y97593046D02*
X296441229Y97399952D01*
X296441229Y97399952D02*
X296425488Y97274991D01*
X265549512Y97274991D02*
X265500205Y97491768D01*
X265500205Y97491768D02*
X265367554Y97660826D01*
X265367554Y97660826D02*
X265174462Y97759261D01*
X265174462Y97759261D02*
X265049503Y97775001D01*
X259412499Y35074995D02*
X259412499Y22075010D01*
X273049497Y97775001D02*
X272832724Y97725754D01*
X272832724Y97725754D02*
X272663671Y97593505D01*
X272663671Y97593505D02*
X272565245Y97401500D01*
X272565245Y97401500D02*
X272549514Y97277568D01*
X259266056Y21721451D02*
X259378971Y21894988D01*
X259378971Y21894988D02*
X259412499Y22075010D01*
X258912500Y21575001D02*
X259115052Y21617866D01*
X259115052Y21617866D02*
X259266056Y21721451D01*
X259266056Y35428554D02*
X259092520Y35541472D01*
X259092520Y35541472D02*
X258912500Y35575004D01*
X259412499Y35074995D02*
X259369638Y35277549D01*
X259369638Y35277549D02*
X259266056Y35428554D01*
X226862500Y21575001D02*
X258912500Y21575001D01*
X226862500Y35575004D02*
X258912500Y35575004D01*
X226362501Y35074995D02*
X226362501Y22075010D01*
X226508944Y21721451D02*
X226682479Y21608532D01*
X226682479Y21608532D02*
X226862500Y21575001D01*
X226362501Y22075010D02*
X226405361Y21872455D01*
X226405361Y21872455D02*
X226508944Y21721451D01*
X226508944Y35428554D02*
X226396028Y35255016D01*
X226396028Y35255016D02*
X226362501Y35074995D01*
X226862500Y35575004D02*
X226659946Y35532138D01*
X226659946Y35532138D02*
X226508944Y35428554D01*
X223693749Y35074995D02*
X223693749Y22075010D01*
X223547306Y21721451D02*
X223660221Y21894988D01*
X223660221Y21894988D02*
X223693749Y22075010D01*
X223193750Y21575001D02*
X223396303Y21617866D01*
X223396303Y21617866D02*
X223547306Y21721451D01*
X223547306Y35428554D02*
X223373770Y35541472D01*
X223373770Y35541472D02*
X223193750Y35575004D01*
X223693749Y35074995D02*
X223650888Y35277549D01*
X223650888Y35277549D02*
X223547306Y35428554D01*
X205431250Y21575001D02*
X223193750Y21575001D01*
X205431250Y35575004D02*
X223193750Y35575004D01*
X204931251Y35074995D02*
X204931251Y22075010D01*
X205077694Y21721451D02*
X205251229Y21608532D01*
X205251229Y21608532D02*
X205431250Y21575001D01*
X204931251Y22075010D02*
X204974111Y21872455D01*
X204974111Y21872455D02*
X205077694Y21721451D01*
X205077694Y35428554D02*
X204964778Y35255016D01*
X204964778Y35255016D02*
X204931251Y35074995D01*
X205431250Y35575004D02*
X205228696Y35532138D01*
X205228696Y35532138D02*
X205077694Y35428554D01*
X186999999Y34075002D02*
X186999999Y20074998D01*
X186999999Y20074998D02*
X187049309Y19858233D01*
X187049309Y19858233D02*
X187181958Y19689185D01*
X187181958Y19689185D02*
X187375045Y19590755D01*
X187375045Y19590755D02*
X187500001Y19575015D01*
X187146443Y34428562D02*
X187033527Y34255023D01*
X187033527Y34255023D02*
X186999999Y34075002D01*
X187500001Y34575012D02*
X187297447Y34532147D01*
X187297447Y34532147D02*
X187146443Y34428562D01*
X187500001Y19575015D02*
X198256250Y19575015D01*
X187500001Y34575012D02*
X198256250Y34575012D01*
X159399999Y35074995D02*
X159399999Y22075010D01*
X159253556Y21721451D02*
X159366471Y21894988D01*
X159366471Y21894988D02*
X159399999Y22075010D01*
X158900000Y21575001D02*
X159102553Y21617866D01*
X159102553Y21617866D02*
X159253556Y21721451D01*
X159253556Y35428554D02*
X159080020Y35541472D01*
X159080020Y35541472D02*
X158900000Y35575004D01*
X159399999Y35074995D02*
X159357138Y35277549D01*
X159357138Y35277549D02*
X159253556Y35428554D01*
X138756250Y21575001D02*
X158900000Y21575001D01*
X138756250Y35575004D02*
X158900000Y35575004D01*
X98756250Y34075002D02*
X98756250Y20074998D01*
X98256251Y19575015D02*
X98473017Y19624318D01*
X98473017Y19624318D02*
X98642068Y19756961D01*
X98642068Y19756961D02*
X98740505Y19950043D01*
X98740505Y19950043D02*
X98756250Y20074998D01*
X91756251Y20074998D02*
X91805561Y19858233D01*
X91805561Y19858233D02*
X91938210Y19689186D01*
X91938210Y19689186D02*
X92131295Y19590755D01*
X92131295Y19590755D02*
X92256250Y19575015D01*
X98609808Y34428561D02*
X98436271Y34541479D01*
X98436271Y34541479D02*
X98256251Y34575012D01*
X98756250Y34075002D02*
X98713389Y34277556D01*
X98713389Y34277556D02*
X98609808Y34428561D01*
X91902694Y34428561D02*
X91789779Y34255023D01*
X91789779Y34255023D02*
X91756251Y34075002D01*
X92256250Y34575012D02*
X92053696Y34532146D01*
X92053696Y34532146D02*
X91902694Y34428561D01*
X91756251Y34075002D02*
X91756251Y20074998D01*
X92256250Y19575015D02*
X98256251Y19575015D01*
X92256250Y34575012D02*
X98256251Y34575012D01*
X198756249Y34075002D02*
X198756249Y20074998D01*
X198256250Y19575015D02*
X198473015Y19624318D01*
X198473015Y19624318D02*
X198642067Y19756961D01*
X198642067Y19756961D02*
X198740503Y19950043D01*
X198740503Y19950043D02*
X198756249Y20074998D01*
X198609806Y34428561D02*
X198436270Y34541479D01*
X198436270Y34541479D02*
X198256250Y34575012D01*
X198756249Y34075002D02*
X198713387Y34277556D01*
X198713387Y34277556D02*
X198609806Y34428561D01*
X138256251Y35074995D02*
X138256251Y22075010D01*
X138402694Y21721451D02*
X138576229Y21608532D01*
X138576229Y21608532D02*
X138756250Y21575001D01*
X138256251Y22075010D02*
X138299111Y21872455D01*
X138299111Y21872455D02*
X138402694Y21721451D01*
X138402694Y35428554D02*
X138289778Y35255016D01*
X138289778Y35255016D02*
X138256251Y35074995D01*
X138756250Y35575004D02*
X138553696Y35532138D01*
X138553696Y35532138D02*
X138402694Y35428554D01*
X253718751Y54124995D02*
X253718751Y41125010D01*
X253572307Y40771450D02*
X253685222Y40944988D01*
X253685222Y40944988D02*
X253718751Y41125010D01*
X253218749Y40625001D02*
X253421302Y40667865D01*
X253421302Y40667865D02*
X253572307Y40771450D01*
X251865193Y40771450D02*
X252038729Y40658532D01*
X252038729Y40658532D02*
X252218751Y40625001D01*
X251718749Y41125010D02*
X251761610Y40922455D01*
X251761610Y40922455D02*
X251865193Y40771450D01*
X253572307Y54478555D02*
X253398770Y54591472D01*
X253398770Y54591472D02*
X253218749Y54625004D01*
X253718751Y54124995D02*
X253675889Y54327549D01*
X253675889Y54327549D02*
X253572307Y54478555D01*
X251865193Y54478555D02*
X251752277Y54305016D01*
X251752277Y54305016D02*
X251718749Y54124995D01*
X252218751Y54625004D02*
X252016197Y54582139D01*
X252016197Y54582139D02*
X251865193Y54478555D01*
X251718749Y54124995D02*
X251718749Y41125010D01*
X252218751Y40625001D02*
X253218749Y40625001D01*
X252218751Y54625004D02*
X253218749Y54625004D01*
X276918764Y54124995D02*
X276918764Y41125010D01*
X276772317Y40771447D02*
X276885234Y40944986D01*
X276885234Y40944986D02*
X276918764Y41125010D01*
X276418754Y40625001D02*
X276621310Y40667863D01*
X276621310Y40667863D02*
X276772317Y40771447D01*
X275065199Y40771447D02*
X275238738Y40658529D01*
X275238738Y40658529D02*
X275418762Y40625001D01*
X274918752Y41125010D02*
X274961614Y40922453D01*
X274961614Y40922453D02*
X275065199Y40771447D01*
X276772317Y54478558D02*
X276598777Y54591475D01*
X276598777Y54591475D02*
X276418754Y54625004D01*
X276918764Y54124995D02*
X276875901Y54327551D01*
X276875901Y54327551D02*
X276772317Y54478558D01*
X275065199Y54478558D02*
X274952281Y54305018D01*
X274952281Y54305018D02*
X274918752Y54124995D01*
X275418762Y54625004D02*
X275216205Y54582141D01*
X275216205Y54582141D02*
X275065199Y54478558D01*
X274918752Y54124995D02*
X274918752Y41125010D01*
X275418762Y40625001D02*
X276418754Y40625001D01*
X275418762Y54625004D02*
X276418754Y54625004D01*
X18856250Y59675001D02*
X37456250Y59675001D01*
X18856250Y73675004D02*
X37456250Y73675004D01*
X18356250Y73174995D02*
X18356250Y60175010D01*
X18502693Y59821451D02*
X18676229Y59708532D01*
X18676229Y59708532D02*
X18856250Y59675001D01*
X18356250Y60175010D02*
X18399111Y59972455D01*
X18399111Y59972455D02*
X18502693Y59821451D01*
X18502693Y73528554D02*
X18389778Y73355016D01*
X18389778Y73355016D02*
X18356250Y73174995D01*
X18856250Y73675004D02*
X18653696Y73632139D01*
X18653696Y73632139D02*
X18502693Y73528554D01*
X43556251Y73174995D02*
X43556251Y60175010D01*
X43409807Y59821450D02*
X43522722Y59994988D01*
X43522722Y59994988D02*
X43556251Y60175010D01*
X43056249Y59675001D02*
X43258802Y59717865D01*
X43258802Y59717865D02*
X43409807Y59821450D01*
X41702693Y59821450D02*
X41876229Y59708532D01*
X41876229Y59708532D02*
X42056251Y59675001D01*
X41556249Y60175010D02*
X41599110Y59972455D01*
X41599110Y59972455D02*
X41702693Y59821450D01*
X43409807Y73528555D02*
X43236270Y73641472D01*
X43236270Y73641472D02*
X43056249Y73675004D01*
X43556251Y73174995D02*
X43513389Y73377549D01*
X43513389Y73377549D02*
X43409807Y73528555D01*
X41702693Y73528555D02*
X41589777Y73355016D01*
X41589777Y73355016D02*
X41556249Y73174995D01*
X42056251Y73675004D02*
X41853697Y73632139D01*
X41853697Y73632139D02*
X41702693Y73528555D01*
X41556249Y73174995D02*
X41556249Y60175010D01*
X42056251Y59675001D02*
X43056249Y59675001D01*
X42056251Y73675004D02*
X43056249Y73675004D01*
X37956249Y73174995D02*
X37956249Y60175010D01*
X37809806Y59821451D02*
X37922721Y59994988D01*
X37922721Y59994988D02*
X37956249Y60175010D01*
X37456250Y59675001D02*
X37658803Y59717866D01*
X37658803Y59717866D02*
X37809806Y59821451D01*
X37809806Y73528554D02*
X37636270Y73641472D01*
X37636270Y73641472D02*
X37456250Y73675004D01*
X37956249Y73174995D02*
X37913388Y73377549D01*
X37913388Y73377549D02*
X37809806Y73528554D01*
X275149998Y92224995D02*
X275149998Y79225010D01*
X275003551Y78871447D02*
X275116468Y79044986D01*
X275116468Y79044986D02*
X275149998Y79225010D01*
X274649988Y78725001D02*
X274852544Y78767863D01*
X274852544Y78767863D02*
X275003551Y78871447D01*
X273150013Y79225010D02*
X273199312Y79008240D01*
X273199312Y79008240D02*
X273331955Y78839185D01*
X273331955Y78839185D02*
X273525039Y78740746D01*
X273525039Y78740746D02*
X273649996Y78725001D01*
X275003551Y92578558D02*
X274830011Y92691475D01*
X274830011Y92691475D02*
X274649988Y92725004D01*
X275149998Y92224995D02*
X275107135Y92427551D01*
X275107135Y92427551D02*
X275003551Y92578558D01*
X273649996Y92725004D02*
X273433228Y92675692D01*
X273433228Y92675692D02*
X273264180Y92543040D01*
X273264180Y92543040D02*
X273165751Y92349951D01*
X273165751Y92349951D02*
X273150013Y92224995D01*
X273150013Y92224995D02*
X273150013Y79225010D01*
X273649996Y78725001D02*
X274649988Y78725001D01*
X273649996Y92725004D02*
X274649988Y92725004D01*
X298349987Y92224995D02*
X298349987Y79225010D01*
X297850004Y78725001D02*
X298066771Y78774312D01*
X298066771Y78774312D02*
X298235819Y78906964D01*
X298235819Y78906964D02*
X298334248Y79100053D01*
X298334248Y79100053D02*
X298349987Y79225010D01*
X296496449Y78871447D02*
X296669988Y78758529D01*
X296669988Y78758529D02*
X296850012Y78725001D01*
X296350002Y79225010D02*
X296392864Y79022453D01*
X296392864Y79022453D02*
X296496449Y78871447D01*
X298349987Y92224995D02*
X298300687Y92441764D01*
X298300687Y92441764D02*
X298168044Y92610819D01*
X298168044Y92610819D02*
X297974960Y92709258D01*
X297974960Y92709258D02*
X297850004Y92725004D01*
X296496449Y92578558D02*
X296383531Y92405018D01*
X296383531Y92405018D02*
X296350002Y92224995D01*
X296850012Y92725004D02*
X296647455Y92682141D01*
X296647455Y92682141D02*
X296496449Y92578558D01*
X296350002Y92224995D02*
X296350002Y79225010D01*
X296850012Y78725001D02*
X297850004Y78725001D01*
X296850012Y92725004D02*
X297850004Y92725004D01*
X16475000Y78725001D02*
X16475000Y78725001D01*
X15975000Y92224995D02*
X15975000Y79225010D01*
X15975000Y79225010D02*
X16024302Y79008236D01*
X16024302Y79008236D02*
X16156950Y78839179D01*
X16156950Y78839179D02*
X16350040Y78740742D01*
X16350040Y78740742D02*
X16475000Y78725001D01*
X17475000Y92725004D02*
X16475000Y92725004D01*
X16475000Y92725004D02*
X16258226Y92675697D01*
X16258226Y92675697D02*
X16089172Y92543046D01*
X16089172Y92543046D02*
X15990739Y92349954D01*
X15990739Y92349954D02*
X15975000Y92224995D01*
X17975000Y79225010D02*
X17975000Y92224995D01*
X17975000Y92224995D02*
X17925697Y92441768D01*
X17925697Y92441768D02*
X17793049Y92610825D01*
X17793049Y92610825D02*
X17599959Y92709262D01*
X17599959Y92709262D02*
X17475000Y92725004D01*
X16475000Y78725001D02*
X17475000Y78725001D01*
X17475000Y78725001D02*
X17691773Y78774307D01*
X17691773Y78774307D02*
X17860827Y78906958D01*
X17860827Y78906958D02*
X17959260Y79100050D01*
X17959260Y79100050D02*
X17975000Y79225010D01*
X39675001Y78725001D02*
X39675001Y78725001D01*
X39174999Y92224995D02*
X39174999Y79225010D01*
X39174999Y79225010D02*
X39224302Y79008236D01*
X39224302Y79008236D02*
X39356950Y78839179D01*
X39356950Y78839179D02*
X39550041Y78740742D01*
X39550041Y78740742D02*
X39675001Y78725001D01*
X40674999Y92725004D02*
X39675001Y92725004D01*
X39675001Y92725004D02*
X39458227Y92675697D01*
X39458227Y92675697D02*
X39289172Y92543046D01*
X39289172Y92543046D02*
X39190738Y92349954D01*
X39190738Y92349954D02*
X39174999Y92224995D01*
X41175001Y79225010D02*
X41175001Y92224995D01*
X41175001Y92224995D02*
X41125697Y92441768D01*
X41125697Y92441768D02*
X40993049Y92610825D01*
X40993049Y92610825D02*
X40799958Y92709262D01*
X40799958Y92709262D02*
X40674999Y92725004D01*
X39675001Y78725001D02*
X40674999Y78725001D01*
X40674999Y78725001D02*
X40891772Y78774307D01*
X40891772Y78774307D02*
X41060827Y78906958D01*
X41060827Y78906958D02*
X41159261Y79100050D01*
X41159261Y79100050D02*
X41175001Y79225010D01*
X17312500Y97775001D02*
X17312500Y97775001D01*
X16812500Y111274995D02*
X16812500Y98275010D01*
X16812500Y98275010D02*
X16861802Y98058236D01*
X16861802Y98058236D02*
X16994450Y97889179D01*
X16994450Y97889179D02*
X17187540Y97790742D01*
X17187540Y97790742D02*
X17312500Y97775001D01*
X30312500Y111775004D02*
X17312500Y111775004D01*
X17312500Y111775004D02*
X17095726Y111725697D01*
X17095726Y111725697D02*
X16926672Y111593046D01*
X16926672Y111593046D02*
X16828239Y111399954D01*
X16828239Y111399954D02*
X16812500Y111274995D01*
X30812499Y98275010D02*
X30812499Y111274995D01*
X30812499Y111274995D02*
X30763196Y111491768D01*
X30763196Y111491768D02*
X30630549Y111660825D01*
X30630549Y111660825D02*
X30437459Y111759262D01*
X30437459Y111759262D02*
X30312500Y111775004D01*
X17312500Y97775001D02*
X30312500Y97775001D01*
X30312500Y97775001D02*
X30529273Y97824307D01*
X30529273Y97824307D02*
X30698327Y97956958D01*
X30698327Y97956958D02*
X30796759Y98150050D01*
X30796759Y98150050D02*
X30812499Y98275010D01*
M02*
