%TF.GenerationSoftware,KiCad,Pcbnew,(5.1.7)-1*%
%TF.CreationDate,2021-02-21T21:30:35+01:00*%
%TF.ProjectId,kbic65,6b626963-3635-42e6-9b69-6361645f7063,rev?*%
%TF.SameCoordinates,Original*%
%TF.FileFunction,Other,Comment*%
%FSLAX46Y46*%
G04 Gerber Fmt 4.6, Leading zero omitted, Abs format (unit mm)*
G04 Created by KiCad (PCBNEW (5.1.7)-1) date 2021-02-21 21:30:35*
%MOMM*%
%LPD*%
G01*
G04 APERTURE LIST*
%ADD10C,0.200000*%
G04 APERTURE END LIST*
D10*
X80962500Y-50006250D02*
X341312500Y-50006250D01*
X358893750Y-67468749D02*
X358893750Y-67468749D01*
X257293750Y-67468749D02*
X257293750Y-67468749D01*
X357643750Y-65303686D02*
X357853318Y-65439017D01*
X357853318Y-65439017D02*
X358046337Y-65592783D01*
X358046337Y-65592783D02*
X358221919Y-65763448D01*
X358221919Y-65763448D02*
X358379176Y-65949475D01*
X358379176Y-65949475D02*
X358517221Y-66149325D01*
X358517221Y-66149325D02*
X358635167Y-66361464D01*
X358635167Y-66361464D02*
X358732126Y-66584352D01*
X358732126Y-66584352D02*
X358807211Y-66816454D01*
X358807211Y-66816454D02*
X358859535Y-67056233D01*
X358859535Y-67056233D02*
X358888209Y-67302151D01*
X358888209Y-67302151D02*
X358893750Y-67468749D01*
X355143750Y-65303686D02*
X355365734Y-65189859D01*
X355365734Y-65189859D02*
X355595409Y-65099584D01*
X355595409Y-65099584D02*
X355831000Y-65032858D01*
X355831000Y-65032858D02*
X356070732Y-64989683D01*
X356070732Y-64989683D02*
X356312831Y-64970057D01*
X356312831Y-64970057D02*
X356555521Y-64973982D01*
X356555521Y-64973982D02*
X356797028Y-65001458D01*
X356797028Y-65001458D02*
X357035577Y-65052483D01*
X357035577Y-65052483D02*
X357269393Y-65127059D01*
X357269393Y-65127059D02*
X357496702Y-65225185D01*
X357496702Y-65225185D02*
X357643750Y-65303686D01*
X353893750Y-67468749D02*
X353906165Y-67219591D01*
X353906165Y-67219591D02*
X353942822Y-66975549D01*
X353942822Y-66975549D02*
X354002831Y-66738158D01*
X354002831Y-66738158D02*
X354085306Y-66508956D01*
X354085306Y-66508956D02*
X354189360Y-66289480D01*
X354189360Y-66289480D02*
X354314104Y-66081267D01*
X354314104Y-66081267D02*
X354458652Y-65885854D01*
X354458652Y-65885854D02*
X354622115Y-65704777D01*
X354622115Y-65704777D02*
X354803608Y-65539574D01*
X354803608Y-65539574D02*
X355002242Y-65391782D01*
X355002242Y-65391782D02*
X355143750Y-65303686D01*
X355143750Y-69633813D02*
X354934181Y-69498481D01*
X354934181Y-69498481D02*
X354741162Y-69344715D01*
X354741162Y-69344715D02*
X354565580Y-69174050D01*
X354565580Y-69174050D02*
X354408323Y-68988023D01*
X354408323Y-68988023D02*
X354270278Y-68788172D01*
X354270278Y-68788172D02*
X354152332Y-68576034D01*
X354152332Y-68576034D02*
X354055373Y-68353145D01*
X354055373Y-68353145D02*
X353980288Y-68121043D01*
X353980288Y-68121043D02*
X353927964Y-67881264D01*
X353927964Y-67881264D02*
X353899290Y-67635346D01*
X353899290Y-67635346D02*
X353893750Y-67468749D01*
X357643750Y-69633813D02*
X357421765Y-69747639D01*
X357421765Y-69747639D02*
X357192090Y-69837914D01*
X357192090Y-69837914D02*
X356956499Y-69904640D01*
X356956499Y-69904640D02*
X356716767Y-69947815D01*
X356716767Y-69947815D02*
X356474668Y-69967441D01*
X356474668Y-69967441D02*
X356231978Y-69963516D01*
X356231978Y-69963516D02*
X355990471Y-69936040D01*
X355990471Y-69936040D02*
X355751922Y-69885015D01*
X355751922Y-69885015D02*
X355518106Y-69810439D01*
X355518106Y-69810439D02*
X355290797Y-69712313D01*
X355290797Y-69712313D02*
X355143750Y-69633813D01*
X358893750Y-67468749D02*
X358881334Y-67717906D01*
X358881334Y-67717906D02*
X358844677Y-67961948D01*
X358844677Y-67961948D02*
X358784668Y-68199339D01*
X358784668Y-68199339D02*
X358702193Y-68428541D01*
X358702193Y-68428541D02*
X358598139Y-68648017D01*
X358598139Y-68648017D02*
X358473395Y-68856230D01*
X358473395Y-68856230D02*
X358328847Y-69051644D01*
X358328847Y-69051644D02*
X358165384Y-69232721D01*
X358165384Y-69232721D02*
X357983891Y-69397924D01*
X357983891Y-69397924D02*
X357785257Y-69545716D01*
X357785257Y-69545716D02*
X357643750Y-69633813D01*
X154106250Y-67468749D02*
X154106250Y-67468749D01*
X256043750Y-65303686D02*
X256253318Y-65439017D01*
X256253318Y-65439017D02*
X256446337Y-65592783D01*
X256446337Y-65592783D02*
X256621919Y-65763448D01*
X256621919Y-65763448D02*
X256779176Y-65949475D01*
X256779176Y-65949475D02*
X256917221Y-66149325D01*
X256917221Y-66149325D02*
X257035167Y-66361464D01*
X257035167Y-66361464D02*
X257132126Y-66584352D01*
X257132126Y-66584352D02*
X257207211Y-66816454D01*
X257207211Y-66816454D02*
X257259535Y-67056233D01*
X257259535Y-67056233D02*
X257288209Y-67302151D01*
X257288209Y-67302151D02*
X257293750Y-67468749D01*
X253543750Y-65303686D02*
X253765734Y-65189859D01*
X253765734Y-65189859D02*
X253995409Y-65099584D01*
X253995409Y-65099584D02*
X254231000Y-65032858D01*
X254231000Y-65032858D02*
X254470732Y-64989683D01*
X254470732Y-64989683D02*
X254712831Y-64970057D01*
X254712831Y-64970057D02*
X254955521Y-64973982D01*
X254955521Y-64973982D02*
X255197028Y-65001458D01*
X255197028Y-65001458D02*
X255435577Y-65052483D01*
X255435577Y-65052483D02*
X255669393Y-65127059D01*
X255669393Y-65127059D02*
X255896702Y-65225185D01*
X255896702Y-65225185D02*
X256043750Y-65303686D01*
X252293750Y-67468749D02*
X252306165Y-67219591D01*
X252306165Y-67219591D02*
X252342822Y-66975549D01*
X252342822Y-66975549D02*
X252402831Y-66738158D01*
X252402831Y-66738158D02*
X252485306Y-66508956D01*
X252485306Y-66508956D02*
X252589360Y-66289480D01*
X252589360Y-66289480D02*
X252714104Y-66081267D01*
X252714104Y-66081267D02*
X252858652Y-65885854D01*
X252858652Y-65885854D02*
X253022115Y-65704777D01*
X253022115Y-65704777D02*
X253203608Y-65539574D01*
X253203608Y-65539574D02*
X253402242Y-65391782D01*
X253402242Y-65391782D02*
X253543750Y-65303686D01*
X253543750Y-69633813D02*
X253334181Y-69498481D01*
X253334181Y-69498481D02*
X253141162Y-69344715D01*
X253141162Y-69344715D02*
X252965580Y-69174050D01*
X252965580Y-69174050D02*
X252808323Y-68988023D01*
X252808323Y-68988023D02*
X252670278Y-68788172D01*
X252670278Y-68788172D02*
X252552332Y-68576034D01*
X252552332Y-68576034D02*
X252455373Y-68353145D01*
X252455373Y-68353145D02*
X252380288Y-68121043D01*
X252380288Y-68121043D02*
X252327964Y-67881264D01*
X252327964Y-67881264D02*
X252299290Y-67635346D01*
X252299290Y-67635346D02*
X252293750Y-67468749D01*
X256043750Y-69633813D02*
X255821765Y-69747639D01*
X255821765Y-69747639D02*
X255592090Y-69837914D01*
X255592090Y-69837914D02*
X255356499Y-69904640D01*
X255356499Y-69904640D02*
X255116767Y-69947815D01*
X255116767Y-69947815D02*
X254874668Y-69967441D01*
X254874668Y-69967441D02*
X254631978Y-69963516D01*
X254631978Y-69963516D02*
X254390471Y-69936040D01*
X254390471Y-69936040D02*
X254151922Y-69885015D01*
X254151922Y-69885015D02*
X253918106Y-69810439D01*
X253918106Y-69810439D02*
X253690797Y-69712313D01*
X253690797Y-69712313D02*
X253543750Y-69633813D01*
X257293750Y-67468749D02*
X257281334Y-67717906D01*
X257281334Y-67717906D02*
X257244677Y-67961948D01*
X257244677Y-67961948D02*
X257184668Y-68199339D01*
X257184668Y-68199339D02*
X257102193Y-68428541D01*
X257102193Y-68428541D02*
X256998139Y-68648017D01*
X256998139Y-68648017D02*
X256873395Y-68856230D01*
X256873395Y-68856230D02*
X256728847Y-69051644D01*
X256728847Y-69051644D02*
X256565384Y-69232721D01*
X256565384Y-69232721D02*
X256383891Y-69397924D01*
X256383891Y-69397924D02*
X256185257Y-69545716D01*
X256185257Y-69545716D02*
X256043750Y-69633813D01*
X52506250Y-67468749D02*
X52506250Y-67468749D01*
X152856250Y-65303686D02*
X153065818Y-65439017D01*
X153065818Y-65439017D02*
X153258837Y-65592783D01*
X153258837Y-65592783D02*
X153434419Y-65763448D01*
X153434419Y-65763448D02*
X153591676Y-65949475D01*
X153591676Y-65949475D02*
X153729721Y-66149325D01*
X153729721Y-66149325D02*
X153847667Y-66361464D01*
X153847667Y-66361464D02*
X153944626Y-66584352D01*
X153944626Y-66584352D02*
X154019711Y-66816454D01*
X154019711Y-66816454D02*
X154072035Y-67056233D01*
X154072035Y-67056233D02*
X154100709Y-67302151D01*
X154100709Y-67302151D02*
X154106250Y-67468749D01*
X150356250Y-65303686D02*
X150578234Y-65189859D01*
X150578234Y-65189859D02*
X150807909Y-65099584D01*
X150807909Y-65099584D02*
X151043500Y-65032858D01*
X151043500Y-65032858D02*
X151283232Y-64989683D01*
X151283232Y-64989683D02*
X151525331Y-64970057D01*
X151525331Y-64970057D02*
X151768021Y-64973982D01*
X151768021Y-64973982D02*
X152009528Y-65001458D01*
X152009528Y-65001458D02*
X152248077Y-65052483D01*
X152248077Y-65052483D02*
X152481893Y-65127059D01*
X152481893Y-65127059D02*
X152709202Y-65225185D01*
X152709202Y-65225185D02*
X152856250Y-65303686D01*
X149106250Y-67468749D02*
X149118665Y-67219591D01*
X149118665Y-67219591D02*
X149155322Y-66975549D01*
X149155322Y-66975549D02*
X149215331Y-66738158D01*
X149215331Y-66738158D02*
X149297806Y-66508956D01*
X149297806Y-66508956D02*
X149401860Y-66289480D01*
X149401860Y-66289480D02*
X149526604Y-66081267D01*
X149526604Y-66081267D02*
X149671152Y-65885854D01*
X149671152Y-65885854D02*
X149834615Y-65704777D01*
X149834615Y-65704777D02*
X150016108Y-65539574D01*
X150016108Y-65539574D02*
X150214742Y-65391782D01*
X150214742Y-65391782D02*
X150356250Y-65303686D01*
X150356250Y-69633813D02*
X150146681Y-69498481D01*
X150146681Y-69498481D02*
X149953662Y-69344715D01*
X149953662Y-69344715D02*
X149778080Y-69174050D01*
X149778080Y-69174050D02*
X149620823Y-68988023D01*
X149620823Y-68988023D02*
X149482778Y-68788172D01*
X149482778Y-68788172D02*
X149364832Y-68576034D01*
X149364832Y-68576034D02*
X149267873Y-68353145D01*
X149267873Y-68353145D02*
X149192788Y-68121043D01*
X149192788Y-68121043D02*
X149140464Y-67881264D01*
X149140464Y-67881264D02*
X149111790Y-67635346D01*
X149111790Y-67635346D02*
X149106250Y-67468749D01*
X152856250Y-69633813D02*
X152634265Y-69747639D01*
X152634265Y-69747639D02*
X152404590Y-69837914D01*
X152404590Y-69837914D02*
X152168999Y-69904640D01*
X152168999Y-69904640D02*
X151929267Y-69947815D01*
X151929267Y-69947815D02*
X151687168Y-69967441D01*
X151687168Y-69967441D02*
X151444478Y-69963516D01*
X151444478Y-69963516D02*
X151202971Y-69936040D01*
X151202971Y-69936040D02*
X150964422Y-69885015D01*
X150964422Y-69885015D02*
X150730606Y-69810439D01*
X150730606Y-69810439D02*
X150503297Y-69712313D01*
X150503297Y-69712313D02*
X150356250Y-69633813D01*
X154106250Y-67468749D02*
X154093834Y-67717906D01*
X154093834Y-67717906D02*
X154057177Y-67961948D01*
X154057177Y-67961948D02*
X153997168Y-68199339D01*
X153997168Y-68199339D02*
X153914693Y-68428541D01*
X153914693Y-68428541D02*
X153810639Y-68648017D01*
X153810639Y-68648017D02*
X153685895Y-68856230D01*
X153685895Y-68856230D02*
X153541347Y-69051644D01*
X153541347Y-69051644D02*
X153377884Y-69232721D01*
X153377884Y-69232721D02*
X153196391Y-69397924D01*
X153196391Y-69397924D02*
X152997757Y-69545716D01*
X152997757Y-69545716D02*
X152856250Y-69633813D01*
X51256250Y-65303686D02*
X51465818Y-65439017D01*
X51465818Y-65439017D02*
X51658837Y-65592783D01*
X51658837Y-65592783D02*
X51834419Y-65763448D01*
X51834419Y-65763448D02*
X51991676Y-65949475D01*
X51991676Y-65949475D02*
X52129721Y-66149325D01*
X52129721Y-66149325D02*
X52247667Y-66361464D01*
X52247667Y-66361464D02*
X52344626Y-66584352D01*
X52344626Y-66584352D02*
X52419711Y-66816454D01*
X52419711Y-66816454D02*
X52472035Y-67056233D01*
X52472035Y-67056233D02*
X52500709Y-67302151D01*
X52500709Y-67302151D02*
X52506250Y-67468749D01*
X48756250Y-65303686D02*
X48978234Y-65189859D01*
X48978234Y-65189859D02*
X49207909Y-65099584D01*
X49207909Y-65099584D02*
X49443500Y-65032858D01*
X49443500Y-65032858D02*
X49683232Y-64989683D01*
X49683232Y-64989683D02*
X49925331Y-64970057D01*
X49925331Y-64970057D02*
X50168021Y-64973982D01*
X50168021Y-64973982D02*
X50409528Y-65001458D01*
X50409528Y-65001458D02*
X50648077Y-65052483D01*
X50648077Y-65052483D02*
X50881893Y-65127059D01*
X50881893Y-65127059D02*
X51109202Y-65225185D01*
X51109202Y-65225185D02*
X51256250Y-65303686D01*
X47506250Y-67468749D02*
X47518665Y-67219591D01*
X47518665Y-67219591D02*
X47555322Y-66975549D01*
X47555322Y-66975549D02*
X47615331Y-66738158D01*
X47615331Y-66738158D02*
X47697806Y-66508956D01*
X47697806Y-66508956D02*
X47801860Y-66289480D01*
X47801860Y-66289480D02*
X47926604Y-66081267D01*
X47926604Y-66081267D02*
X48071152Y-65885854D01*
X48071152Y-65885854D02*
X48234615Y-65704777D01*
X48234615Y-65704777D02*
X48416108Y-65539574D01*
X48416108Y-65539574D02*
X48614742Y-65391782D01*
X48614742Y-65391782D02*
X48756250Y-65303686D01*
X48756250Y-69633813D02*
X48546681Y-69498481D01*
X48546681Y-69498481D02*
X48353662Y-69344715D01*
X48353662Y-69344715D02*
X48178080Y-69174050D01*
X48178080Y-69174050D02*
X48020823Y-68988023D01*
X48020823Y-68988023D02*
X47882778Y-68788172D01*
X47882778Y-68788172D02*
X47764832Y-68576034D01*
X47764832Y-68576034D02*
X47667873Y-68353145D01*
X47667873Y-68353145D02*
X47592788Y-68121043D01*
X47592788Y-68121043D02*
X47540464Y-67881264D01*
X47540464Y-67881264D02*
X47511790Y-67635346D01*
X47511790Y-67635346D02*
X47506250Y-67468749D01*
X51256250Y-69633813D02*
X51034265Y-69747639D01*
X51034265Y-69747639D02*
X50804590Y-69837914D01*
X50804590Y-69837914D02*
X50568999Y-69904640D01*
X50568999Y-69904640D02*
X50329267Y-69947815D01*
X50329267Y-69947815D02*
X50087168Y-69967441D01*
X50087168Y-69967441D02*
X49844478Y-69963516D01*
X49844478Y-69963516D02*
X49602971Y-69936040D01*
X49602971Y-69936040D02*
X49364422Y-69885015D01*
X49364422Y-69885015D02*
X49130606Y-69810439D01*
X49130606Y-69810439D02*
X48903297Y-69712313D01*
X48903297Y-69712313D02*
X48756250Y-69633813D01*
X52506250Y-67468749D02*
X52493834Y-67717906D01*
X52493834Y-67717906D02*
X52457177Y-67961948D01*
X52457177Y-67961948D02*
X52397168Y-68199339D01*
X52397168Y-68199339D02*
X52314693Y-68428541D01*
X52314693Y-68428541D02*
X52210639Y-68648017D01*
X52210639Y-68648017D02*
X52085895Y-68856230D01*
X52085895Y-68856230D02*
X51941347Y-69051644D01*
X51941347Y-69051644D02*
X51777884Y-69232721D01*
X51777884Y-69232721D02*
X51596391Y-69397924D01*
X51596391Y-69397924D02*
X51397757Y-69545716D01*
X51397757Y-69545716D02*
X51256250Y-69633813D01*
X47942499Y-41116251D02*
X47942499Y-58896249D01*
X80962500Y-41116251D02*
X47942499Y-41116251D01*
X80962500Y-58896249D02*
X80962500Y-41116251D01*
X47942499Y-58896249D02*
X80962500Y-58896249D01*
M02*
