%TF.GenerationSoftware,KiCad,Pcbnew,(5.1.7)-1*%
%TF.CreationDate,2021-02-21T21:30:35+01:00*%
%TF.ProjectId,kbic65,6b626963-3635-42e6-9b69-6361645f7063,rev?*%
%TF.SameCoordinates,Original*%
%TF.FileFunction,Profile,NP*%
%FSLAX46Y46*%
G04 Gerber Fmt 4.6, Leading zero omitted, Abs format (unit mm)*
G04 Created by KiCad (PCBNEW (5.1.7)-1) date 2021-02-21 21:30:35*
%MOMM*%
%LPD*%
G01*
G04 APERTURE LIST*
%TA.AperFunction,Profile*%
%ADD10C,0.200000*%
%TD*%
G04 APERTURE END LIST*
D10*
X49085386Y-165775001D02*
X49085386Y-165775001D01*
X46585405Y-163275001D02*
X46585399Y-42306250D01*
X46585393Y-163275001D02*
X46598298Y-163530611D01*
X46598298Y-163530611D02*
X46636181Y-163778838D01*
X46636181Y-163778838D02*
X46697784Y-164018424D01*
X46697784Y-164018424D02*
X46781851Y-164248113D01*
X46781851Y-164248113D02*
X46887124Y-164466649D01*
X46887124Y-164466649D02*
X47012348Y-164672774D01*
X47012348Y-164672774D02*
X47156265Y-164865233D01*
X47156265Y-164865233D02*
X47317620Y-165042768D01*
X47317620Y-165042768D02*
X47495154Y-165204122D01*
X47495154Y-165204122D02*
X47687612Y-165348040D01*
X47687612Y-165348040D02*
X47893738Y-165473264D01*
X47893738Y-165473264D02*
X48112273Y-165578538D01*
X48112273Y-165578538D02*
X48341962Y-165662605D01*
X48341962Y-165662605D02*
X48581549Y-165724209D01*
X48581549Y-165724209D02*
X48829775Y-165762093D01*
X48829775Y-165762093D02*
X49085386Y-165775001D01*
X50006250Y-39806250D02*
X49085394Y-39806250D01*
X49085394Y-39806250D02*
X48829780Y-39819157D01*
X48829780Y-39819157D02*
X48581552Y-39857041D01*
X48581552Y-39857041D02*
X48341964Y-39918645D01*
X48341964Y-39918645D02*
X48112275Y-40002712D01*
X48112275Y-40002712D02*
X47893739Y-40107986D01*
X47893739Y-40107986D02*
X47687614Y-40233210D01*
X47687614Y-40233210D02*
X47495157Y-40377128D01*
X47495157Y-40377128D02*
X47317623Y-40538483D01*
X47317623Y-40538483D02*
X47156270Y-40716017D01*
X47156270Y-40716017D02*
X47012353Y-40908476D01*
X47012353Y-40908476D02*
X46887131Y-41114601D01*
X46887131Y-41114601D02*
X46781858Y-41333137D01*
X46781858Y-41333137D02*
X46697792Y-41562826D01*
X46697792Y-41562826D02*
X46636189Y-41802412D01*
X46636189Y-41802412D02*
X46598305Y-42050639D01*
X46598305Y-42050639D02*
X46585399Y-42306250D01*
X146691480Y-35718750D02*
X54921335Y-35718750D01*
X52451026Y-37831762D02*
X52402374Y-38040958D01*
X52402374Y-38040958D02*
X52335309Y-38242437D01*
X52335309Y-38242437D02*
X52250801Y-38435401D01*
X52250801Y-38435401D02*
X52149821Y-38619052D01*
X52149821Y-38619052D02*
X52033337Y-38792594D01*
X52033337Y-38792594D02*
X51902321Y-38955228D01*
X51902321Y-38955228D02*
X51757741Y-39106158D01*
X51757741Y-39106158D02*
X51600569Y-39244585D01*
X51600569Y-39244585D02*
X51431774Y-39369713D01*
X51431774Y-39369713D02*
X51252326Y-39480745D01*
X51252326Y-39480745D02*
X51063195Y-39576882D01*
X51063195Y-39576882D02*
X50865352Y-39657328D01*
X50865352Y-39657328D02*
X50659765Y-39721285D01*
X50659765Y-39721285D02*
X50447406Y-39767956D01*
X50447406Y-39767956D02*
X50229244Y-39796543D01*
X50229244Y-39796543D02*
X50006250Y-39806250D01*
X54921335Y-35718750D02*
X54690149Y-35729391D01*
X54690149Y-35729391D02*
X54465537Y-35760680D01*
X54465537Y-35760680D02*
X54248283Y-35811660D01*
X54248283Y-35811660D02*
X54039175Y-35881377D01*
X54039175Y-35881377D02*
X53838996Y-35968876D01*
X53838996Y-35968876D02*
X53648532Y-36073200D01*
X53648532Y-36073200D02*
X53468569Y-36193396D01*
X53468569Y-36193396D02*
X53299892Y-36328508D01*
X53299892Y-36328508D02*
X53143287Y-36477581D01*
X53143287Y-36477581D02*
X52999538Y-36639659D01*
X52999538Y-36639659D02*
X52869432Y-36813788D01*
X52869432Y-36813788D02*
X52753754Y-36999012D01*
X52753754Y-36999012D02*
X52653288Y-37194377D01*
X52653288Y-37194377D02*
X52568822Y-37398927D01*
X52568822Y-37398927D02*
X52501139Y-37611707D01*
X52501139Y-37611707D02*
X52451026Y-37831762D01*
X249878980Y-35718750D02*
X156521020Y-35718750D01*
X149161484Y-37831762D02*
X149111369Y-37611707D01*
X149111369Y-37611707D02*
X149043685Y-37398927D01*
X149043685Y-37398927D02*
X148959218Y-37194377D01*
X148959218Y-37194377D02*
X148858754Y-36999012D01*
X148858754Y-36999012D02*
X148743079Y-36813788D01*
X148743079Y-36813788D02*
X148612978Y-36639659D01*
X148612978Y-36639659D02*
X148469238Y-36477581D01*
X148469238Y-36477581D02*
X148312644Y-36328508D01*
X148312644Y-36328508D02*
X148143982Y-36193396D01*
X148143982Y-36193396D02*
X147964039Y-36073200D01*
X147964039Y-36073200D02*
X147773601Y-35968876D01*
X147773601Y-35968876D02*
X147573452Y-35881377D01*
X147573452Y-35881377D02*
X147364380Y-35811660D01*
X147364380Y-35811660D02*
X147147170Y-35760680D01*
X147147170Y-35760680D02*
X146922608Y-35729391D01*
X146922608Y-35729391D02*
X146691480Y-35718750D01*
X151606250Y-39806250D02*
X151383255Y-39796543D01*
X151383255Y-39796543D02*
X151165093Y-39767956D01*
X151165093Y-39767956D02*
X150952734Y-39721285D01*
X150952734Y-39721285D02*
X150747148Y-39657328D01*
X150747148Y-39657328D02*
X150549305Y-39576882D01*
X150549305Y-39576882D02*
X150360175Y-39480745D01*
X150360175Y-39480745D02*
X150180728Y-39369713D01*
X150180728Y-39369713D02*
X150011934Y-39244585D01*
X150011934Y-39244585D02*
X149854763Y-39106158D01*
X149854763Y-39106158D02*
X149710185Y-38955228D01*
X149710185Y-38955228D02*
X149579169Y-38792594D01*
X149579169Y-38792594D02*
X149462687Y-38619052D01*
X149462687Y-38619052D02*
X149361707Y-38435401D01*
X149361707Y-38435401D02*
X149277200Y-38242437D01*
X149277200Y-38242437D02*
X149210135Y-38040958D01*
X149210135Y-38040958D02*
X149161484Y-37831762D01*
X154051016Y-37831762D02*
X154002364Y-38040958D01*
X154002364Y-38040958D02*
X153935299Y-38242437D01*
X153935299Y-38242437D02*
X153850792Y-38435401D01*
X153850792Y-38435401D02*
X153749812Y-38619052D01*
X153749812Y-38619052D02*
X153633330Y-38792594D01*
X153633330Y-38792594D02*
X153502314Y-38955228D01*
X153502314Y-38955228D02*
X153357736Y-39106158D01*
X153357736Y-39106158D02*
X153200565Y-39244585D01*
X153200565Y-39244585D02*
X153031771Y-39369713D01*
X153031771Y-39369713D02*
X152852324Y-39480745D01*
X152852324Y-39480745D02*
X152663194Y-39576882D01*
X152663194Y-39576882D02*
X152465351Y-39657328D01*
X152465351Y-39657328D02*
X152259765Y-39721285D01*
X152259765Y-39721285D02*
X152047406Y-39767956D01*
X152047406Y-39767956D02*
X151829244Y-39796543D01*
X151829244Y-39796543D02*
X151606250Y-39806250D01*
X156521020Y-35718750D02*
X156289891Y-35729391D01*
X156289891Y-35729391D02*
X156065329Y-35760680D01*
X156065329Y-35760680D02*
X155848119Y-35811660D01*
X155848119Y-35811660D02*
X155639047Y-35881377D01*
X155639047Y-35881377D02*
X155438898Y-35968876D01*
X155438898Y-35968876D02*
X155248460Y-36073200D01*
X155248460Y-36073200D02*
X155068517Y-36193396D01*
X155068517Y-36193396D02*
X154899855Y-36328508D01*
X154899855Y-36328508D02*
X154743261Y-36477581D01*
X154743261Y-36477581D02*
X154599521Y-36639659D01*
X154599521Y-36639659D02*
X154469420Y-36813788D01*
X154469420Y-36813788D02*
X154353745Y-36999012D01*
X154353745Y-36999012D02*
X154253281Y-37194377D01*
X154253281Y-37194377D02*
X154168814Y-37398927D01*
X154168814Y-37398927D02*
X154101130Y-37611707D01*
X154101130Y-37611707D02*
X154051016Y-37831762D01*
X351478189Y-35718750D02*
X259708520Y-35718750D01*
X252348984Y-37831762D02*
X252298869Y-37611707D01*
X252298869Y-37611707D02*
X252231185Y-37398927D01*
X252231185Y-37398927D02*
X252146718Y-37194377D01*
X252146718Y-37194377D02*
X252046254Y-36999012D01*
X252046254Y-36999012D02*
X251930579Y-36813788D01*
X251930579Y-36813788D02*
X251800478Y-36639659D01*
X251800478Y-36639659D02*
X251656738Y-36477581D01*
X251656738Y-36477581D02*
X251500144Y-36328508D01*
X251500144Y-36328508D02*
X251331482Y-36193396D01*
X251331482Y-36193396D02*
X251151539Y-36073200D01*
X251151539Y-36073200D02*
X250961101Y-35968876D01*
X250961101Y-35968876D02*
X250760952Y-35881377D01*
X250760952Y-35881377D02*
X250551880Y-35811660D01*
X250551880Y-35811660D02*
X250334670Y-35760680D01*
X250334670Y-35760680D02*
X250110108Y-35729391D01*
X250110108Y-35729391D02*
X249878980Y-35718750D01*
X254793750Y-39806250D02*
X254570755Y-39796543D01*
X254570755Y-39796543D02*
X254352593Y-39767956D01*
X254352593Y-39767956D02*
X254140234Y-39721285D01*
X254140234Y-39721285D02*
X253934648Y-39657328D01*
X253934648Y-39657328D02*
X253736805Y-39576882D01*
X253736805Y-39576882D02*
X253547675Y-39480745D01*
X253547675Y-39480745D02*
X253368228Y-39369713D01*
X253368228Y-39369713D02*
X253199434Y-39244585D01*
X253199434Y-39244585D02*
X253042263Y-39106158D01*
X253042263Y-39106158D02*
X252897685Y-38955228D01*
X252897685Y-38955228D02*
X252766669Y-38792594D01*
X252766669Y-38792594D02*
X252650187Y-38619052D01*
X252650187Y-38619052D02*
X252549207Y-38435401D01*
X252549207Y-38435401D02*
X252464700Y-38242437D01*
X252464700Y-38242437D02*
X252397635Y-38040958D01*
X252397635Y-38040958D02*
X252348984Y-37831762D01*
X257238516Y-37831762D02*
X257189864Y-38040958D01*
X257189864Y-38040958D02*
X257122799Y-38242437D01*
X257122799Y-38242437D02*
X257038292Y-38435401D01*
X257038292Y-38435401D02*
X256937312Y-38619052D01*
X256937312Y-38619052D02*
X256820830Y-38792594D01*
X256820830Y-38792594D02*
X256689814Y-38955228D01*
X256689814Y-38955228D02*
X256545236Y-39106158D01*
X256545236Y-39106158D02*
X256388065Y-39244585D01*
X256388065Y-39244585D02*
X256219271Y-39369713D01*
X256219271Y-39369713D02*
X256039824Y-39480745D01*
X256039824Y-39480745D02*
X255850694Y-39576882D01*
X255850694Y-39576882D02*
X255652851Y-39657328D01*
X255652851Y-39657328D02*
X255447265Y-39721285D01*
X255447265Y-39721285D02*
X255234906Y-39767956D01*
X255234906Y-39767956D02*
X255016744Y-39796543D01*
X255016744Y-39796543D02*
X254793750Y-39806250D01*
X259708520Y-35718750D02*
X259477391Y-35729391D01*
X259477391Y-35729391D02*
X259252829Y-35760680D01*
X259252829Y-35760680D02*
X259035619Y-35811660D01*
X259035619Y-35811660D02*
X258826547Y-35881377D01*
X258826547Y-35881377D02*
X258626398Y-35968876D01*
X258626398Y-35968876D02*
X258435960Y-36073200D01*
X258435960Y-36073200D02*
X258256017Y-36193396D01*
X258256017Y-36193396D02*
X258087355Y-36328508D01*
X258087355Y-36328508D02*
X257930761Y-36477581D01*
X257930761Y-36477581D02*
X257787021Y-36639659D01*
X257787021Y-36639659D02*
X257656920Y-36813788D01*
X257656920Y-36813788D02*
X257541245Y-36999012D01*
X257541245Y-36999012D02*
X257440781Y-37194377D01*
X257440781Y-37194377D02*
X257356314Y-37398927D01*
X257356314Y-37398927D02*
X257288630Y-37611707D01*
X257288630Y-37611707D02*
X257238516Y-37831762D01*
X357360379Y-39806250D02*
X356393274Y-39806250D01*
X353948497Y-37831762D02*
X353898383Y-37611707D01*
X353898383Y-37611707D02*
X353830701Y-37398927D01*
X353830701Y-37398927D02*
X353746234Y-37194377D01*
X353746234Y-37194377D02*
X353645769Y-36999012D01*
X353645769Y-36999012D02*
X353530091Y-36813788D01*
X353530091Y-36813788D02*
X353399985Y-36639659D01*
X353399985Y-36639659D02*
X353256236Y-36477581D01*
X353256236Y-36477581D02*
X353099631Y-36328508D01*
X353099631Y-36328508D02*
X352930954Y-36193396D01*
X352930954Y-36193396D02*
X352750991Y-36073200D01*
X352750991Y-36073200D02*
X352560527Y-35968876D01*
X352560527Y-35968876D02*
X352360348Y-35881377D01*
X352360348Y-35881377D02*
X352151240Y-35811660D01*
X352151240Y-35811660D02*
X351933986Y-35760680D01*
X351933986Y-35760680D02*
X351709374Y-35729391D01*
X351709374Y-35729391D02*
X351478189Y-35718750D01*
X356393274Y-39806250D02*
X356170279Y-39796543D01*
X356170279Y-39796543D02*
X355952118Y-39767956D01*
X355952118Y-39767956D02*
X355739760Y-39721285D01*
X355739760Y-39721285D02*
X355534175Y-39657328D01*
X355534175Y-39657328D02*
X355336333Y-39576882D01*
X355336333Y-39576882D02*
X355147204Y-39480745D01*
X355147204Y-39480745D02*
X354967757Y-39369713D01*
X354967757Y-39369713D02*
X354798963Y-39244585D01*
X354798963Y-39244585D02*
X354641792Y-39106158D01*
X354641792Y-39106158D02*
X354497213Y-38955228D01*
X354497213Y-38955228D02*
X354366197Y-38792594D01*
X354366197Y-38792594D02*
X354249713Y-38619052D01*
X354249713Y-38619052D02*
X354148731Y-38435401D01*
X354148731Y-38435401D02*
X354064221Y-38242437D01*
X354064221Y-38242437D02*
X353997153Y-38040958D01*
X353997153Y-38040958D02*
X353948497Y-37831762D01*
X359860374Y-163275001D02*
X359860374Y-42302224D01*
X359860374Y-42302224D02*
X359847467Y-42047322D01*
X359847467Y-42047322D02*
X359809583Y-41799715D01*
X359809583Y-41799715D02*
X359747980Y-41560666D01*
X359747980Y-41560666D02*
X359663914Y-41331438D01*
X359663914Y-41331438D02*
X359558641Y-41113293D01*
X359558641Y-41113293D02*
X359433419Y-40907493D01*
X359433419Y-40907493D02*
X359289502Y-40715301D01*
X359289502Y-40715301D02*
X359128149Y-40537979D01*
X359128149Y-40537979D02*
X358950615Y-40376791D01*
X358950615Y-40376791D02*
X358758158Y-40232998D01*
X358758158Y-40232998D02*
X358552033Y-40107863D01*
X358552033Y-40107863D02*
X358333497Y-40002649D01*
X358333497Y-40002649D02*
X358103808Y-39918618D01*
X358103808Y-39918618D02*
X357864220Y-39857033D01*
X357864220Y-39857033D02*
X357615992Y-39819156D01*
X357615992Y-39819156D02*
X357360379Y-39806250D01*
X356392612Y-165775001D02*
X357360379Y-165775001D01*
X357360379Y-165775001D02*
X357615987Y-165762093D01*
X357615987Y-165762093D02*
X357864212Y-165724209D01*
X357864212Y-165724209D02*
X358103798Y-165662605D01*
X358103798Y-165662605D02*
X358333486Y-165578538D01*
X358333486Y-165578538D02*
X358552021Y-165473264D01*
X358552021Y-165473264D02*
X358758146Y-165348040D01*
X358758146Y-165348040D02*
X358950604Y-165204122D01*
X358950604Y-165204122D02*
X359128139Y-165042768D01*
X359128139Y-165042768D02*
X359289494Y-164865233D01*
X359289494Y-164865233D02*
X359433411Y-164672774D01*
X359433411Y-164672774D02*
X359558636Y-164466649D01*
X359558636Y-164466649D02*
X359663910Y-164248113D01*
X359663910Y-164248113D02*
X359747978Y-164018424D01*
X359747978Y-164018424D02*
X359809582Y-163778838D01*
X359809582Y-163778838D02*
X359847466Y-163530611D01*
X359847466Y-163530611D02*
X359860374Y-163275001D01*
X258421695Y-167337504D02*
X352764672Y-167337504D01*
X354526136Y-166611640D02*
X354711684Y-166432170D01*
X354711684Y-166432170D02*
X354912952Y-166270028D01*
X354912952Y-166270028D02*
X355128902Y-166127248D01*
X355128902Y-166127248D02*
X355358498Y-166005865D01*
X355358498Y-166005865D02*
X355600703Y-165907914D01*
X355600703Y-165907914D02*
X355854482Y-165835430D01*
X355854482Y-165835430D02*
X356051787Y-165799003D01*
X356051787Y-165799003D02*
X356254581Y-165778905D01*
X356254581Y-165778905D02*
X356392612Y-165775001D01*
X352764672Y-167337504D02*
X353019644Y-167325295D01*
X353019644Y-167325295D02*
X353268158Y-167289164D01*
X353268158Y-167289164D02*
X353508473Y-167229855D01*
X353508473Y-167229855D02*
X353738848Y-167148110D01*
X353738848Y-167148110D02*
X353957542Y-167044673D01*
X353957542Y-167044673D02*
X354162815Y-166920287D01*
X354162815Y-166920287D02*
X354352927Y-166775695D01*
X354352927Y-166775695D02*
X354526136Y-166611640D01*
X155234196Y-167337504D02*
X251165805Y-167337504D01*
X256660237Y-166611640D02*
X256833444Y-166775695D01*
X256833444Y-166775695D02*
X257023553Y-166920287D01*
X257023553Y-166920287D02*
X257228823Y-167044673D01*
X257228823Y-167044673D02*
X257447515Y-167148110D01*
X257447515Y-167148110D02*
X257677888Y-167229855D01*
X257677888Y-167229855D02*
X257918202Y-167289164D01*
X257918202Y-167289164D02*
X258166718Y-167325295D01*
X258166718Y-167325295D02*
X258421695Y-167337504D01*
X254793750Y-165775001D02*
X254999960Y-165783737D01*
X254999960Y-165783737D02*
X255200974Y-165809373D01*
X255200974Y-165809373D02*
X255460152Y-165868361D01*
X255460152Y-165868361D02*
X255708275Y-165953833D01*
X255708275Y-165953833D02*
X255944308Y-166063755D01*
X255944308Y-166063755D02*
X256167213Y-166196090D01*
X256167213Y-166196090D02*
X256375953Y-166348806D01*
X256375953Y-166348806D02*
X256569492Y-166519866D01*
X256569492Y-166519866D02*
X256660237Y-166611640D01*
X252927263Y-166611640D02*
X253112812Y-166432170D01*
X253112812Y-166432170D02*
X253314081Y-166270028D01*
X253314081Y-166270028D02*
X253530033Y-166127248D01*
X253530033Y-166127248D02*
X253759631Y-166005865D01*
X253759631Y-166005865D02*
X254001839Y-165907914D01*
X254001839Y-165907914D02*
X254255619Y-165835430D01*
X254255619Y-165835430D02*
X254452925Y-165799003D01*
X254452925Y-165799003D02*
X254655720Y-165778905D01*
X254655720Y-165778905D02*
X254793750Y-165775001D01*
X251165805Y-167337504D02*
X251420781Y-167325295D01*
X251420781Y-167325295D02*
X251669297Y-167289164D01*
X251669297Y-167289164D02*
X251909611Y-167229855D01*
X251909611Y-167229855D02*
X252139984Y-167148110D01*
X252139984Y-167148110D02*
X252358676Y-167044673D01*
X252358676Y-167044673D02*
X252563946Y-166920287D01*
X252563946Y-166920287D02*
X252754055Y-166775695D01*
X252754055Y-166775695D02*
X252927263Y-166611640D01*
X53634197Y-167337504D02*
X147978304Y-167337504D01*
X153472737Y-166611640D02*
X153645944Y-166775695D01*
X153645944Y-166775695D02*
X153836053Y-166920287D01*
X153836053Y-166920287D02*
X154041323Y-167044673D01*
X154041323Y-167044673D02*
X154260015Y-167148110D01*
X154260015Y-167148110D02*
X154490388Y-167229855D01*
X154490388Y-167229855D02*
X154730703Y-167289164D01*
X154730703Y-167289164D02*
X154979218Y-167325295D01*
X154979218Y-167325295D02*
X155234196Y-167337504D01*
X151606250Y-165775001D02*
X151812460Y-165783737D01*
X151812460Y-165783737D02*
X152013474Y-165809373D01*
X152013474Y-165809373D02*
X152272652Y-165868361D01*
X152272652Y-165868361D02*
X152520775Y-165953833D01*
X152520775Y-165953833D02*
X152756808Y-166063755D01*
X152756808Y-166063755D02*
X152979713Y-166196090D01*
X152979713Y-166196090D02*
X153188453Y-166348806D01*
X153188453Y-166348806D02*
X153381992Y-166519866D01*
X153381992Y-166519866D02*
X153472737Y-166611640D01*
X149739763Y-166611640D02*
X149925312Y-166432170D01*
X149925312Y-166432170D02*
X150126581Y-166270028D01*
X150126581Y-166270028D02*
X150342533Y-166127248D01*
X150342533Y-166127248D02*
X150572131Y-166005865D01*
X150572131Y-166005865D02*
X150814339Y-165907914D01*
X150814339Y-165907914D02*
X151068119Y-165835430D01*
X151068119Y-165835430D02*
X151265425Y-165799003D01*
X151265425Y-165799003D02*
X151468220Y-165778905D01*
X151468220Y-165778905D02*
X151606250Y-165775001D01*
X147978304Y-167337504D02*
X148233281Y-167325295D01*
X148233281Y-167325295D02*
X148481796Y-167289164D01*
X148481796Y-167289164D02*
X148722111Y-167229855D01*
X148722111Y-167229855D02*
X148952484Y-167148110D01*
X148952484Y-167148110D02*
X149171176Y-167044673D01*
X149171176Y-167044673D02*
X149376446Y-166920287D01*
X149376446Y-166920287D02*
X149566555Y-166775695D01*
X149566555Y-166775695D02*
X149739763Y-166611640D01*
X49085386Y-165775001D02*
X50006250Y-165775001D01*
X51872736Y-166611640D02*
X52045943Y-166775695D01*
X52045943Y-166775695D02*
X52236053Y-166920287D01*
X52236053Y-166920287D02*
X52441323Y-167044673D01*
X52441323Y-167044673D02*
X52660015Y-167148110D01*
X52660015Y-167148110D02*
X52890388Y-167229855D01*
X52890388Y-167229855D02*
X53130703Y-167289164D01*
X53130703Y-167289164D02*
X53379219Y-167325295D01*
X53379219Y-167325295D02*
X53634197Y-167337504D01*
X50006250Y-165775001D02*
X50212461Y-165783737D01*
X50212461Y-165783737D02*
X50413474Y-165809373D01*
X50413474Y-165809373D02*
X50672652Y-165868361D01*
X50672652Y-165868361D02*
X50920775Y-165953833D01*
X50920775Y-165953833D02*
X51156808Y-166063755D01*
X51156808Y-166063755D02*
X51379712Y-166196090D01*
X51379712Y-166196090D02*
X51588452Y-166348806D01*
X51588452Y-166348806D02*
X51781991Y-166519866D01*
X51781991Y-166519866D02*
X51872736Y-166611640D01*
M02*
