%TF.GenerationSoftware,KiCad,Pcbnew,(5.1.7)-1*%
%TF.CreationDate,2021-02-21T21:30:35+01:00*%
%TF.ProjectId,kbic65,6b626963-3635-42e6-9b69-6361645f7063,rev?*%
%TF.SameCoordinates,Original*%
%TF.FileFunction,Soldermask,Top*%
%TF.FilePolarity,Negative*%
%FSLAX46Y46*%
G04 Gerber Fmt 4.6, Leading zero omitted, Abs format (unit mm)*
G04 Created by KiCad (PCBNEW (5.1.7)-1) date 2021-02-21 21:30:35*
%MOMM*%
%LPD*%
G01*
G04 APERTURE LIST*
%ADD10C,0.250000*%
%ADD11O,1.600000X1.600000*%
%ADD12R,1.600000X1.600000*%
%ADD13C,3.987800*%
%ADD14C,1.750000*%
%ADD15C,5.000000*%
%ADD16C,3.048000*%
%ADD17C,1.752600*%
%ADD18R,1.752600X1.752600*%
G04 APERTURE END LIST*
D10*
X319000000Y-56750000D02*
X86500000Y-56750000D01*
X319000000Y-55750000D02*
X86500000Y-55750000D01*
X319000000Y-56250000D02*
X86500000Y-56250000D01*
X319000000Y-44250000D02*
X86500000Y-44250000D01*
X319000000Y-43750000D02*
X86500000Y-43750000D01*
X319000000Y-43250000D02*
X86500000Y-43250000D01*
D11*
%TO.C,D_@1*%
X261136044Y-52645000D03*
D12*
X261136044Y-47565000D03*
%TD*%
D13*
%TO.C,MX_Esc1*%
X55562500Y-79375000D03*
D14*
X50482500Y-79375000D03*
X60642500Y-79375000D03*
%TD*%
%TO.C,MX_1*%
X79692500Y-79375000D03*
X69532500Y-79375000D03*
D13*
X74612500Y-79375000D03*
%TD*%
D15*
%TO.C,REF\u002A\u002A*%
X356393750Y-67468750D03*
%TD*%
%TO.C,REF\u002A\u002A*%
X254793750Y-67468750D03*
%TD*%
%TO.C,REF\u002A\u002A*%
X151606250Y-67468750D03*
%TD*%
%TO.C,REF\u002A\u002A*%
X50006250Y-67468750D03*
%TD*%
D11*
%TO.C,D_ISO_BKSLSH1*%
X97753041Y-52645000D03*
D12*
X97753041Y-47565000D03*
%TD*%
D13*
%TO.C,MX_BkSp3_2u1*%
X312737500Y-79375000D03*
D14*
X307657500Y-79375000D03*
X317817500Y-79375000D03*
D16*
X300831250Y-72390000D03*
X324643750Y-72390000D03*
D13*
X300831250Y-87630000D03*
X324643750Y-87630000D03*
%TD*%
%TO.C,MX_BkSp2*%
X322262500Y-79375000D03*
D14*
X317182500Y-79375000D03*
X327342500Y-79375000D03*
%TD*%
%TO.C,MX_5*%
X155892500Y-79375000D03*
X145732500Y-79375000D03*
D13*
X150812500Y-79375000D03*
%TD*%
D14*
%TO.C,MX_6*%
X174942500Y-79375000D03*
X164782500Y-79375000D03*
D13*
X169862500Y-79375000D03*
%TD*%
%TO.C,MX_Space2_6u1*%
X184150000Y-155575000D03*
D14*
X179070000Y-155575000D03*
X189230000Y-155575000D03*
D16*
X127000000Y-148590000D03*
X222250000Y-148590000D03*
D13*
X127000000Y-163830000D03*
X222250000Y-163830000D03*
%TD*%
%TO.C,MX_Right1*%
X346075000Y-160337500D03*
D14*
X340995000Y-160337500D03*
X351155000Y-160337500D03*
%TD*%
D13*
%TO.C,MX_RBKT1*%
X293687500Y-98425000D03*
D14*
X288607500Y-98425000D03*
X298767500Y-98425000D03*
%TD*%
D13*
%TO.C,MX_D1*%
X127000000Y-117475000D03*
D14*
X121920000Y-117475000D03*
X132080000Y-117475000D03*
%TD*%
D13*
%TO.C,MX_Q1*%
X84137500Y-98425000D03*
D14*
X79057500Y-98425000D03*
X89217500Y-98425000D03*
%TD*%
%TO.C,MX_2*%
X98742500Y-79375000D03*
X88582500Y-79375000D03*
D13*
X93662500Y-79375000D03*
%TD*%
%TO.C,MX_V1*%
X155575000Y-136525000D03*
D14*
X150495000Y-136525000D03*
X160655000Y-136525000D03*
%TD*%
D13*
%TO.C,MX_Space1_6.25u1*%
X177006250Y-155575000D03*
D14*
X171926250Y-155575000D03*
X182086250Y-155575000D03*
D16*
X127006350Y-148590000D03*
X227006150Y-148590000D03*
D13*
X127006350Y-163830000D03*
X227006150Y-163830000D03*
%TD*%
%TO.C,MX_RWin2_1.25u_RCtrl1*%
X272256250Y-155575000D03*
D14*
X267176250Y-155575000D03*
X277336250Y-155575000D03*
%TD*%
D13*
%TO.C,MX_RAlt3_1.25u_6.25u_space1*%
X248443750Y-155575000D03*
D14*
X243363750Y-155575000D03*
X253523750Y-155575000D03*
%TD*%
D13*
%TO.C,MX_RAlt2_1.25u_6u_space1*%
X243681250Y-155575000D03*
D14*
X238601250Y-155575000D03*
X248761250Y-155575000D03*
%TD*%
D13*
%TO.C,MX_RAlt1_1u1*%
X246062500Y-155575000D03*
D14*
X240982500Y-155575000D03*
X251142500Y-155575000D03*
%TD*%
D13*
%TO.C,MX_LShift_ISO1*%
X57943750Y-136525000D03*
D14*
X52863750Y-136525000D03*
X63023750Y-136525000D03*
%TD*%
D13*
%TO.C,MX_LShift_ANSI1*%
X67468750Y-136525000D03*
D14*
X62388750Y-136525000D03*
X72548750Y-136525000D03*
D16*
X55562500Y-129540000D03*
X79375000Y-129540000D03*
D13*
X55562500Y-144780000D03*
X79375000Y-144780000D03*
%TD*%
%TO.C,MX_Enter2_ISO_Hash1*%
X298450000Y-117475000D03*
D14*
X293370000Y-117475000D03*
X303530000Y-117475000D03*
%TD*%
D13*
%TO.C,MX_CpsLck2_Stepped1*%
X57943750Y-117475000D03*
D14*
X52863750Y-117475000D03*
X63023750Y-117475000D03*
%TD*%
D13*
%TO.C,MX_BkSlash2_ISO_Enter1*%
X311626250Y-96012000D03*
X311626250Y-119888000D03*
D16*
X326866250Y-96012000D03*
X326866250Y-119888000D03*
D14*
X319881250Y-113030000D03*
X319881250Y-102870000D03*
D13*
X319881250Y-107950000D03*
%TD*%
%TO.C,MX_Enter1*%
X310356250Y-117475000D03*
D14*
X305276250Y-117475000D03*
X315436250Y-117475000D03*
D16*
X298450000Y-110490000D03*
X322262500Y-110490000D03*
D13*
X298450000Y-125730000D03*
X322262500Y-125730000D03*
%TD*%
%TO.C,MX_BkSlsh1*%
X317500000Y-98425000D03*
D14*
X312420000Y-98425000D03*
X322580000Y-98425000D03*
%TD*%
D13*
%TO.C,MX_RShift1*%
X296068750Y-136525000D03*
D14*
X290988750Y-136525000D03*
X301148750Y-136525000D03*
%TD*%
D13*
%TO.C,MX_LAlt1*%
X105568750Y-155575000D03*
D14*
X100488750Y-155575000D03*
X110648750Y-155575000D03*
%TD*%
D13*
%TO.C,MX_LWin1*%
X81756250Y-155575000D03*
D14*
X76676250Y-155575000D03*
X86836250Y-155575000D03*
%TD*%
D13*
%TO.C,MX_LCtrl1*%
X57943750Y-155575000D03*
D14*
X52863750Y-155575000D03*
X63023750Y-155575000D03*
%TD*%
D13*
%TO.C,MX_CpsLck1*%
X62706250Y-117475000D03*
D14*
X57626250Y-117475000D03*
X67786250Y-117475000D03*
%TD*%
D13*
%TO.C,MX_Tab1*%
X60325000Y-98425000D03*
D14*
X55245000Y-98425000D03*
X65405000Y-98425000D03*
%TD*%
D13*
%TO.C,MX_Z1*%
X98425000Y-136525000D03*
D14*
X93345000Y-136525000D03*
X103505000Y-136525000D03*
%TD*%
D13*
%TO.C,MX_Y1*%
X179387500Y-98425000D03*
D14*
X174307500Y-98425000D03*
X184467500Y-98425000D03*
%TD*%
D13*
%TO.C,MX_X1*%
X117475000Y-136525000D03*
D14*
X112395000Y-136525000D03*
X122555000Y-136525000D03*
%TD*%
D13*
%TO.C,MX_W1*%
X103187500Y-98425000D03*
D14*
X98107500Y-98425000D03*
X108267500Y-98425000D03*
%TD*%
D13*
%TO.C,MX_Up1*%
X327025000Y-141287500D03*
D14*
X321945000Y-141287500D03*
X332105000Y-141287500D03*
%TD*%
D13*
%TO.C,MX_U1*%
X198437500Y-98425000D03*
D14*
X193357500Y-98425000D03*
X203517500Y-98425000D03*
%TD*%
D13*
%TO.C,MX_Tilde1*%
X350837500Y-79375000D03*
D14*
X345757500Y-79375000D03*
X355917500Y-79375000D03*
%TD*%
D13*
%TO.C,MX_T1*%
X160337500Y-98425000D03*
D14*
X155257500Y-98425000D03*
X165417500Y-98425000D03*
%TD*%
D13*
%TO.C,MX_SemiCol1*%
X260350000Y-117475000D03*
D14*
X255270000Y-117475000D03*
X265430000Y-117475000D03*
%TD*%
D13*
%TO.C,MX_S1*%
X107950000Y-117475000D03*
D14*
X102870000Y-117475000D03*
X113030000Y-117475000D03*
%TD*%
D13*
%TO.C,MX_RWin1*%
X265112500Y-155575000D03*
D14*
X260032500Y-155575000D03*
X270192500Y-155575000D03*
%TD*%
D13*
%TO.C,MX_RCtrl1*%
X284162500Y-155575000D03*
D14*
X279082500Y-155575000D03*
X289242500Y-155575000D03*
%TD*%
D13*
%TO.C,MX_R1*%
X141287500Y-98425000D03*
D14*
X136207500Y-98425000D03*
X146367500Y-98425000D03*
%TD*%
D13*
%TO.C,MX_PgUp1*%
X350837500Y-117475000D03*
D14*
X345757500Y-117475000D03*
X355917500Y-117475000D03*
%TD*%
D13*
%TO.C,MX_PgDn1*%
X350837500Y-136525000D03*
D14*
X345757500Y-136525000D03*
X355917500Y-136525000D03*
%TD*%
D13*
%TO.C,MX_P1*%
X255587500Y-98425000D03*
D14*
X250507500Y-98425000D03*
X260667500Y-98425000D03*
%TD*%
D13*
%TO.C,MX_O1*%
X236537500Y-98425000D03*
D14*
X231457500Y-98425000D03*
X241617500Y-98425000D03*
%TD*%
D13*
%TO.C,MX_N1*%
X193675000Y-136525000D03*
D14*
X188595000Y-136525000D03*
X198755000Y-136525000D03*
%TD*%
D13*
%TO.C,MX_M1*%
X212725000Y-136525000D03*
D14*
X207645000Y-136525000D03*
X217805000Y-136525000D03*
%TD*%
D13*
%TO.C,MX_Left1*%
X307975000Y-160337500D03*
D14*
X302895000Y-160337500D03*
X313055000Y-160337500D03*
%TD*%
D13*
%TO.C,MX_LBKT1*%
X274637500Y-98425000D03*
D14*
X269557500Y-98425000D03*
X279717500Y-98425000D03*
%TD*%
D13*
%TO.C,MX_L1*%
X241300000Y-117475000D03*
D14*
X236220000Y-117475000D03*
X246380000Y-117475000D03*
%TD*%
D13*
%TO.C,MX_K1*%
X222250000Y-117475000D03*
D14*
X217170000Y-117475000D03*
X227330000Y-117475000D03*
%TD*%
D13*
%TO.C,MX_J1*%
X203200000Y-117475000D03*
D14*
X198120000Y-117475000D03*
X208280000Y-117475000D03*
%TD*%
D13*
%TO.C,MX_ISO_BKSLSH1*%
X79375000Y-136525000D03*
D14*
X74295000Y-136525000D03*
X84455000Y-136525000D03*
%TD*%
D13*
%TO.C,MX_I1*%
X217487500Y-98425000D03*
D14*
X212407500Y-98425000D03*
X222567500Y-98425000D03*
%TD*%
%TO.C,MX_Hyphen1*%
X270192500Y-79375000D03*
X260032500Y-79375000D03*
D13*
X265112500Y-79375000D03*
%TD*%
%TO.C,MX_H1*%
X184150000Y-117475000D03*
D14*
X179070000Y-117475000D03*
X189230000Y-117475000D03*
%TD*%
D13*
%TO.C,MX_G1*%
X165100000Y-117475000D03*
D14*
X160020000Y-117475000D03*
X170180000Y-117475000D03*
%TD*%
D13*
%TO.C,MX_FwdSlsh1*%
X269875000Y-136525000D03*
D14*
X264795000Y-136525000D03*
X274955000Y-136525000D03*
%TD*%
D13*
%TO.C,MX_F1*%
X146050000Y-117475000D03*
D14*
X140970000Y-117475000D03*
X151130000Y-117475000D03*
%TD*%
%TO.C,MX_Equal1*%
X289242500Y-79375000D03*
X279082500Y-79375000D03*
D13*
X284162500Y-79375000D03*
%TD*%
%TO.C,MX_E1*%
X122237500Y-98425000D03*
D14*
X117157500Y-98425000D03*
X127317500Y-98425000D03*
%TD*%
D13*
%TO.C,MX_Down1*%
X327025000Y-160337500D03*
D14*
X321945000Y-160337500D03*
X332105000Y-160337500D03*
%TD*%
D13*
%TO.C,MX_Dot1*%
X250825000Y-136525000D03*
D14*
X245745000Y-136525000D03*
X255905000Y-136525000D03*
%TD*%
D13*
%TO.C,MX_Del1*%
X350837500Y-98425000D03*
D14*
X345757500Y-98425000D03*
X355917500Y-98425000D03*
%TD*%
D13*
%TO.C,MX_Comma1*%
X231775000Y-136525000D03*
D14*
X226695000Y-136525000D03*
X236855000Y-136525000D03*
%TD*%
D13*
%TO.C,MX_C1*%
X136525000Y-136525000D03*
D14*
X131445000Y-136525000D03*
X141605000Y-136525000D03*
%TD*%
%TO.C,MX_BkSp1*%
X308292500Y-79375000D03*
X298132500Y-79375000D03*
D13*
X303212500Y-79375000D03*
%TD*%
%TO.C,MX_B1*%
X174625000Y-136525000D03*
D14*
X169545000Y-136525000D03*
X179705000Y-136525000D03*
%TD*%
D13*
%TO.C,MX_A1*%
X88900000Y-117475000D03*
D14*
X83820000Y-117475000D03*
X93980000Y-117475000D03*
%TD*%
D13*
%TO.C,MX_@1*%
X279400000Y-117475000D03*
D14*
X274320000Y-117475000D03*
X284480000Y-117475000D03*
%TD*%
%TO.C,MX_9*%
X232092500Y-79375000D03*
X221932500Y-79375000D03*
D13*
X227012500Y-79375000D03*
%TD*%
D14*
%TO.C,MX_8*%
X213042500Y-79375000D03*
X202882500Y-79375000D03*
D13*
X207962500Y-79375000D03*
%TD*%
D14*
%TO.C,MX_7*%
X193992500Y-79375000D03*
X183832500Y-79375000D03*
D13*
X188912500Y-79375000D03*
%TD*%
D14*
%TO.C,MX_4*%
X136842500Y-79375000D03*
X126682500Y-79375000D03*
D13*
X131762500Y-79375000D03*
%TD*%
D14*
%TO.C,MX_3*%
X117792500Y-79375000D03*
X107632500Y-79375000D03*
D13*
X112712500Y-79375000D03*
%TD*%
D14*
%TO.C,MX_0*%
X251142500Y-79375000D03*
X240982500Y-79375000D03*
D13*
X246062500Y-79375000D03*
%TD*%
D17*
%TO.C,U1*%
X51911250Y-42157650D03*
X79851250Y-57397650D03*
X54451250Y-42614850D03*
X56991250Y-42157650D03*
X59531250Y-42614850D03*
X62071250Y-42157650D03*
X64611250Y-42614850D03*
X67151250Y-42157650D03*
X69691250Y-42614850D03*
X72231250Y-42157650D03*
X74771250Y-42614850D03*
X77311250Y-42157650D03*
X79851250Y-42614850D03*
X77311250Y-57854850D03*
X74771250Y-57397650D03*
X72231250Y-57854850D03*
X69691250Y-57397650D03*
X67151250Y-57854850D03*
X64611250Y-57397650D03*
X62071250Y-57854850D03*
X59531250Y-57397650D03*
X56991250Y-57854850D03*
X54451250Y-57397650D03*
D18*
X51911250Y-57854850D03*
%TD*%
D11*
%TO.C,D_Z1*%
X121093470Y-52645000D03*
D12*
X121093470Y-47565000D03*
%TD*%
D11*
%TO.C,D_Y1*%
X184446063Y-52645000D03*
D12*
X184446063Y-47565000D03*
%TD*%
D11*
%TO.C,D_X1*%
X144433899Y-52645000D03*
D12*
X144433899Y-47565000D03*
%TD*%
D11*
%TO.C,D_W1*%
X127762164Y-52645000D03*
D12*
X127762164Y-47565000D03*
%TD*%
D11*
%TO.C,D_V1*%
X167774328Y-52645000D03*
D12*
X167774328Y-47565000D03*
%TD*%
D11*
%TO.C,D_Up1*%
X277807779Y-52645000D03*
D12*
X277807779Y-47565000D03*
%TD*%
D11*
%TO.C,D_U1*%
X204452145Y-52645000D03*
D12*
X204452145Y-47565000D03*
%TD*%
D11*
%TO.C,D_Tilde1*%
X317820000Y-52645000D03*
D12*
X317820000Y-47565000D03*
%TD*%
D11*
%TO.C,D_Tab1*%
X107756082Y-52645000D03*
D12*
X107756082Y-47565000D03*
%TD*%
D11*
%TO.C,D_T1*%
X174443022Y-52645000D03*
D12*
X174443022Y-47565000D03*
%TD*%
D11*
%TO.C,D_Space1*%
X194449104Y-52645000D03*
D12*
X194449104Y-47565000D03*
%TD*%
D11*
%TO.C,D_SemiCol1*%
X247798656Y-52645000D03*
D12*
X247798656Y-47565000D03*
%TD*%
D11*
%TO.C,D_S1*%
X124427817Y-52645000D03*
D12*
X124427817Y-47565000D03*
%TD*%
D11*
%TO.C,D_RWin1*%
X254467350Y-52645000D03*
D12*
X254467350Y-47565000D03*
%TD*%
D11*
%TO.C,D_RShift1*%
X274473432Y-52645000D03*
D12*
X274473432Y-47565000D03*
%TD*%
D11*
%TO.C,D_Right1*%
X304482555Y-52645000D03*
D12*
X304482555Y-47565000D03*
%TD*%
D11*
%TO.C,D_RCtrl1*%
X271139085Y-52645000D03*
D12*
X271139085Y-47565000D03*
%TD*%
D11*
%TO.C,D_RBKT1*%
X284476473Y-52645000D03*
D12*
X284476473Y-47565000D03*
%TD*%
D11*
%TO.C,D_RAlt1*%
X227792574Y-52645000D03*
D12*
X227792574Y-47565000D03*
%TD*%
D11*
%TO.C,D_R1*%
X157771287Y-52645000D03*
D12*
X157771287Y-47565000D03*
%TD*%
D11*
%TO.C,D_Q1*%
X91084347Y-52645000D03*
D12*
X91084347Y-47565000D03*
%TD*%
D11*
%TO.C,D_PgUp1*%
X311151249Y-52645000D03*
D12*
X311151249Y-47565000D03*
%TD*%
D11*
%TO.C,D_PgDn1*%
X307816902Y-52645000D03*
D12*
X307816902Y-47565000D03*
%TD*%
D11*
%TO.C,D_P1*%
X244464309Y-52645000D03*
D12*
X244464309Y-47565000D03*
%TD*%
D11*
%TO.C,D_O1*%
X234461268Y-52645000D03*
D12*
X234461268Y-47565000D03*
%TD*%
D11*
%TO.C,D_N1*%
X197783451Y-52645000D03*
D12*
X197783451Y-47565000D03*
%TD*%
D11*
%TO.C,D_M1*%
X221123880Y-52645000D03*
D12*
X221123880Y-47565000D03*
%TD*%
D11*
%TO.C,D_LWin1*%
X117759123Y-52645000D03*
D12*
X117759123Y-47565000D03*
%TD*%
D11*
%TO.C,D_LShift1*%
X101087388Y-52645000D03*
D12*
X101087388Y-47565000D03*
%TD*%
D11*
%TO.C,D_Left1*%
X297813861Y-52645000D03*
D12*
X297813861Y-47565000D03*
%TD*%
D11*
%TO.C,D_LCtrl1*%
X114424776Y-52645000D03*
D12*
X114424776Y-47565000D03*
%TD*%
D11*
%TO.C,D_LBKT1*%
X264470391Y-52645000D03*
D12*
X264470391Y-47565000D03*
%TD*%
D11*
%TO.C,D_LAlt1*%
X147768246Y-52645000D03*
D12*
X147768246Y-47565000D03*
%TD*%
D11*
%TO.C,D_L1*%
X231126921Y-52645000D03*
D12*
X231126921Y-47565000D03*
%TD*%
D11*
%TO.C,D_K1*%
X217789533Y-52645000D03*
D12*
X217789533Y-47565000D03*
%TD*%
D11*
%TO.C,D_J1*%
X201117798Y-52645000D03*
D12*
X201117798Y-47565000D03*
%TD*%
D11*
%TO.C,D_I1*%
X214455186Y-52645000D03*
D12*
X214455186Y-47565000D03*
%TD*%
D11*
%TO.C,D_Hyphen1*%
X241129962Y-52645000D03*
D12*
X241129962Y-47565000D03*
%TD*%
D11*
%TO.C,D_H1*%
X187780410Y-52645000D03*
D12*
X187780410Y-47565000D03*
%TD*%
D11*
%TO.C,D_G1*%
X171108675Y-52645000D03*
D12*
X171108675Y-47565000D03*
%TD*%
D11*
%TO.C,D_FwdSlsh1*%
X257801697Y-52645000D03*
D12*
X257801697Y-47565000D03*
%TD*%
D11*
%TO.C,D_F1*%
X154436940Y-52645000D03*
D12*
X154436940Y-47565000D03*
%TD*%
D11*
%TO.C,D_Esc1*%
X111090429Y-52645000D03*
D12*
X111090429Y-47565000D03*
%TD*%
D11*
%TO.C,D_Equal1*%
X267804738Y-52645000D03*
D12*
X267804738Y-47565000D03*
%TD*%
D11*
%TO.C,D_Enter1*%
X281142126Y-52645000D03*
D12*
X281142126Y-47565000D03*
%TD*%
D11*
%TO.C,D_E1*%
X137765205Y-52645000D03*
D12*
X137765205Y-47565000D03*
%TD*%
D11*
%TO.C,D_Down1*%
X301148208Y-52645000D03*
D12*
X301148208Y-47565000D03*
%TD*%
D11*
%TO.C,D_Dot1*%
X251133003Y-52645000D03*
D12*
X251133003Y-47565000D03*
%TD*%
D11*
%TO.C,D_Del1*%
X314485596Y-52645000D03*
D12*
X314485596Y-47565000D03*
%TD*%
D11*
%TO.C,D_D1*%
X141099552Y-52645000D03*
D12*
X141099552Y-47565000D03*
%TD*%
D11*
%TO.C,D_CpsLck1*%
X104421735Y-52645000D03*
D12*
X104421735Y-47565000D03*
%TD*%
D11*
%TO.C,D_Comma1*%
X224458227Y-52645000D03*
D12*
X224458227Y-47565000D03*
%TD*%
D11*
%TO.C,D_C1*%
X151102593Y-52645000D03*
D12*
X151102593Y-47565000D03*
%TD*%
D11*
%TO.C,D_BkSp2*%
X294479514Y-52645000D03*
D12*
X294479514Y-47565000D03*
%TD*%
D11*
%TO.C,D_BkSp1*%
X291145167Y-52645000D03*
D12*
X291145167Y-47565000D03*
%TD*%
D11*
%TO.C,D_BKSLSH1*%
X287810820Y-52645000D03*
D12*
X287810820Y-47565000D03*
%TD*%
D11*
%TO.C,D_B1*%
X191114757Y-52645000D03*
D12*
X191114757Y-47565000D03*
%TD*%
D11*
%TO.C,D_A1*%
X94418694Y-52645000D03*
D12*
X94418694Y-47565000D03*
%TD*%
D11*
%TO.C,D_9*%
X211120839Y-52645000D03*
D12*
X211120839Y-47565000D03*
%TD*%
D11*
%TO.C,D_8*%
X207786492Y-52645000D03*
D12*
X207786492Y-47565000D03*
%TD*%
D11*
%TO.C,D_7*%
X181111716Y-52645000D03*
D12*
X181111716Y-47565000D03*
%TD*%
D11*
%TO.C,D_6*%
X177777369Y-52645000D03*
D12*
X177777369Y-47565000D03*
%TD*%
D11*
%TO.C,D_5*%
X164439981Y-52645000D03*
D12*
X164439981Y-47565000D03*
%TD*%
D11*
%TO.C,D_4*%
X161105634Y-52645000D03*
D12*
X161105634Y-47565000D03*
%TD*%
D11*
%TO.C,D_3*%
X134430858Y-52645000D03*
D12*
X134430858Y-47565000D03*
%TD*%
D11*
%TO.C,D_2*%
X131096511Y-52645000D03*
D12*
X131096511Y-47565000D03*
%TD*%
D11*
%TO.C,D_1*%
X87750000Y-52645000D03*
D12*
X87750000Y-47565000D03*
%TD*%
D11*
%TO.C,D_0*%
X237795615Y-52645000D03*
D12*
X237795615Y-47565000D03*
%TD*%
M02*
