M48
; DRILL file {KiCad (5.1.7)-1} date 02/21/21 21:30:32
; FORMAT={-:-/ absolute / inch / decimal}
; #@! TF.CreationDate,2021-02-21T21:30:32+01:00
; #@! TF.GenerationSoftware,Kicad,Pcbnew,(5.1.7)-1
FMAT,2
INCH
T1C0.0157
T2C0.0315
T3C0.0430
T4C0.0579
T5C0.0689
T6C0.1200
T7C0.1570
T8C0.1969
%
G90
G05
T1
X12.5984Y-1.9685
T2
X7.1304Y-1.8726
X7.1304Y-2.0726
X7.2617Y-1.8726
X7.2617Y-2.0726
X6.6053Y-1.8726
X6.6053Y-2.0726
X11.1999Y-1.8726
X11.1999Y-2.0726
X8.0493Y-1.8726
X8.0493Y-2.0726
X4.5049Y-1.8726
X4.5049Y-2.0726
X3.586Y-1.8726
X3.586Y-2.0726
X8.4431Y-1.8726
X8.4431Y-2.0726
X10.4122Y-1.8726
X10.4122Y-2.0726
X8.3118Y-1.8726
X8.3118Y-2.0726
X5.5551Y-1.8726
X5.5551Y-2.0726
X9.8871Y-1.8726
X9.8871Y-2.0726
X6.3427Y-1.8726
X6.3427Y-2.0726
X9.362Y-1.8726
X9.362Y-2.0726
X5.03Y-1.8726
X5.03Y-2.0726
X6.8678Y-1.8726
X6.8678Y-2.0726
X12.5126Y-1.8726
X12.5126Y-2.0726
X5.8176Y-1.8726
X5.8176Y-2.0726
X4.2424Y-1.8726
X4.2424Y-2.0726
X8.5744Y-1.8726
X8.5744Y-2.0726
X9.2308Y-1.8726
X9.2308Y-2.0726
X11.3311Y-1.8726
X11.3311Y-2.0726
X8.8369Y-1.8726
X8.8369Y-2.0726
X6.474Y-1.8726
X6.474Y-2.0726
X11.8562Y-1.8726
X11.8562Y-2.0726
X6.9991Y-1.8726
X6.9991Y-2.0726
X9.6246Y-1.8726
X9.6246Y-2.0726
X10.0184Y-1.8726
X10.0184Y-2.0726
X4.6362Y-1.8726
X4.6362Y-2.0726
X7.7868Y-1.8726
X7.7868Y-2.0726
X4.3736Y-1.8726
X4.3736Y-2.0726
X3.7173Y-1.8726
X3.7173Y-2.0726
X12.3813Y-1.8726
X12.3813Y-2.0726
X3.4547Y-1.8726
X3.4547Y-2.0726
X3.8485Y-1.8726
X3.8485Y-2.0726
X4.7675Y-1.8726
X4.7675Y-2.0726
X10.2809Y-1.8726
X10.2809Y-2.0726
X12.1188Y-1.8726
X12.1188Y-2.0726
X6.2115Y-1.8726
X6.2115Y-2.0726
X8.7057Y-1.8726
X8.7057Y-2.0726
X9.0995Y-1.8726
X9.0995Y-2.0726
X5.4238Y-1.8726
X5.4238Y-2.0726
X7.5242Y-1.8726
X7.5242Y-2.0726
X5.6864Y-1.8726
X5.6864Y-2.0726
X12.25Y-1.8726
X12.25Y-2.0726
X11.9875Y-1.8726
X11.9875Y-2.0726
X6.0802Y-1.8726
X6.0802Y-2.0726
X7.3929Y-1.8726
X7.3929Y-2.0726
X11.0686Y-1.8726
X11.0686Y-2.0726
X11.5937Y-1.8726
X11.5937Y-2.0726
X10.806Y-1.8726
X10.806Y-2.0726
X8.9682Y-1.8726
X8.9682Y-2.0726
X3.9798Y-1.8726
X3.9798Y-2.0726
X4.8987Y-1.8726
X4.8987Y-2.0726
X10.1497Y-1.8726
X10.1497Y-2.0726
X11.725Y-1.8726
X11.725Y-2.0726
X10.5435Y-1.8726
X10.5435Y-2.0726
X4.1111Y-1.8726
X4.1111Y-2.0726
X5.2926Y-1.8726
X5.2926Y-2.0726
X10.9373Y-1.8726
X10.9373Y-2.0726
X7.6555Y-1.8726
X7.6555Y-2.0726
X10.6748Y-1.8726
X10.6748Y-2.0726
X7.918Y-1.8726
X7.918Y-2.0726
X9.7559Y-1.8726
X9.7559Y-2.0726
X6.7366Y-1.8726
X6.7366Y-2.0726
X9.4933Y-1.8726
X9.4933Y-2.0726
X5.9489Y-1.8726
X5.9489Y-2.0726
X8.1806Y-1.8726
X8.1806Y-2.0726
X11.4624Y-1.8726
X11.4624Y-2.0726
X5.1613Y-1.8726
X5.1613Y-2.0726
T3
X2.0437Y-1.6598
X2.0437Y-2.2778
X2.1437Y-1.6777
X2.1437Y-2.2597
X2.2437Y-1.6598
X2.2437Y-2.2778
X2.3438Y-1.6777
X2.3438Y-2.2597
X2.4438Y-1.6598
X2.4438Y-2.2778
X2.5437Y-1.6777
X2.5437Y-2.2597
X2.6437Y-1.6598
X2.6437Y-2.2778
X2.7437Y-1.6777
X2.7437Y-2.2597
X2.8438Y-1.6598
X2.8438Y-2.2778
X2.9438Y-1.6777
X2.9438Y-2.2597
X3.0437Y-1.6598
X3.0437Y-2.2778
X3.1437Y-1.6777
X3.1437Y-2.2597
T4
X13.6625Y-5.275
X13.9125Y-5.175
X10.2875Y-6.025
X10.5375Y-5.925
X11.6Y-4.525
X11.85Y-4.425
X6.5375Y-3.025
X6.7875Y-2.925
X3.725Y-5.275
X3.975Y-5.175
X3.9125Y-3.775
X4.1625Y-3.675
X7.2875Y-3.025
X7.5375Y-2.925
X13.6625Y-3.775
X13.9125Y-3.675
X6.35Y-4.525
X6.6Y-4.425
X10.6625Y-3.775
X10.9125Y-3.675
X9.1625Y-3.775
X9.4125Y-3.675
X2.5063Y-5.275
X2.7563Y-5.175
X13.475Y-6.2125
X13.725Y-6.1125
X10.1Y-4.525
X10.35Y-4.425
X8.0375Y-3.025
X8.2875Y-2.925
X5.7875Y-3.025
X6.0375Y-2.925
X2.225Y-3.775
X2.475Y-3.675
X8.7875Y-3.025
X9.0375Y-2.925
X2.7875Y-3.025
X3.0375Y-2.925
X2.975Y-5.275
X3.225Y-5.175
X7.1Y-4.525
X7.35Y-4.425
X5.4125Y-3.775
X5.6625Y-3.675
X11.4125Y-3.775
X11.6625Y-3.675
X2.1313Y-5.275
X2.3813Y-5.175
X6.8187Y-6.025
X7.0687Y-5.925
X5.225Y-5.275
X5.475Y-5.175
X13.6625Y-3.025
X13.9125Y-2.925
X12.5375Y-3.025
X12.7875Y-2.925
X2.1313Y-6.025
X2.3813Y-5.925
X9.5375Y-3.025
X9.7875Y-2.925
X2.0375Y-3.025
X2.2875Y-2.925
X9.725Y-5.275
X9.975Y-5.175
X7.85Y-4.525
X8.1Y-4.425
X11.0375Y-6.025
X11.2875Y-5.925
X12.6937Y-4.1
X12.7937Y-4.35
X10.5687Y-6.025
X10.8187Y-5.925
X3.5375Y-3.025
X3.7875Y-2.925
X12.0687Y-4.525
X12.3187Y-4.425
X3.35Y-4.525
X3.6Y-4.425
X7.6625Y-3.775
X7.9125Y-3.675
X4.475Y-5.275
X4.725Y-5.175
X5.0375Y-3.025
X5.2875Y-2.925
X4.6625Y-3.775
X4.9125Y-3.675
X10.2875Y-3.025
X10.5375Y-2.925
X8.225Y-5.275
X8.475Y-5.175
X2.1313Y-4.525
X2.3813Y-4.425
X9.5375Y-6.025
X9.7875Y-5.925
X3.1625Y-3.775
X3.4125Y-3.675
X4.0062Y-6.025
X4.2562Y-5.925
X6.725Y-5.275
X6.975Y-5.175
X12.725Y-5.4625
X12.975Y-5.3625
X2.3188Y-4.525
X2.5688Y-4.425
X8.975Y-5.275
X9.225Y-5.175
X5.6Y-4.525
X5.85Y-4.425
X11.975Y-6.2125
X12.225Y-6.1125
X7.475Y-5.275
X7.725Y-5.175
X7.1Y-6.025
X7.35Y-5.925
X5.975Y-5.275
X6.225Y-5.175
X4.85Y-4.525
X5.1Y-4.425
X4.1Y-4.525
X4.35Y-4.425
X11.7875Y-3.025
X12.0375Y-2.925
X6.9125Y-3.775
X7.1625Y-3.675
X10.85Y-4.525
X11.1Y-4.425
X11.5062Y-5.275
X11.7562Y-5.175
X8.4125Y-3.775
X8.6625Y-3.675
X8.6Y-4.525
X8.85Y-4.425
X12.725Y-6.2125
X12.975Y-6.1125
X9.9125Y-3.775
X10.1625Y-3.675
X13.6625Y-4.525
X13.9125Y-4.425
X9.6312Y-6.025
X9.8812Y-5.925
X9.4437Y-6.025
X9.6937Y-5.925
X6.1625Y-3.775
X6.4125Y-3.675
X3.0688Y-6.025
X3.3188Y-5.925
X4.2875Y-3.025
X4.5375Y-2.925
X12.1625Y-3.025
X12.4125Y-2.925
X12.35Y-3.775
X12.6Y-3.675
X9.35Y-4.525
X9.6Y-4.425
X10.475Y-5.275
X10.725Y-5.175
X11.0375Y-3.025
X11.2875Y-2.925
T5
X5.3625Y-3.875
X5.7625Y-3.875
X11.3625Y-3.875
X11.7625Y-3.875
X2.0812Y-5.375
X2.4812Y-5.375
X6.7687Y-6.125
X7.1688Y-6.125
X5.175Y-5.375
X5.575Y-5.375
X13.6125Y-3.125
X14.0125Y-3.125
X12.4875Y-3.125
X12.8875Y-3.125
X2.0812Y-6.125
X2.4812Y-6.125
X9.4875Y-3.125
X9.8875Y-3.125
X1.9875Y-3.125
X2.3875Y-3.125
X9.675Y-5.375
X10.075Y-5.375
X7.8Y-4.625
X8.2Y-4.625
X10.9875Y-6.125
X11.3875Y-6.125
X12.5938Y-4.05
X12.5938Y-4.45
X10.5187Y-6.125
X10.9187Y-6.125
X3.4875Y-3.125
X3.8875Y-3.125
X12.0187Y-4.625
X12.4187Y-4.625
X3.3Y-4.625
X3.7Y-4.625
X7.6125Y-3.875
X8.0125Y-3.875
X4.425Y-5.375
X4.825Y-5.375
X4.9875Y-3.125
X5.3875Y-3.125
X4.6125Y-3.875
X5.0125Y-3.875
X10.2375Y-3.125
X10.6375Y-3.125
X8.175Y-5.375
X8.575Y-5.375
X2.0812Y-4.625
X2.4812Y-4.625
X9.4875Y-6.125
X9.8875Y-6.125
X3.1125Y-3.875
X3.5125Y-3.875
X3.9562Y-6.125
X4.3563Y-6.125
X6.675Y-5.375
X7.075Y-5.375
X12.675Y-5.5625
X13.075Y-5.5625
X2.2687Y-4.625
X2.6687Y-4.625
X8.925Y-5.375
X9.325Y-5.375
X5.55Y-4.625
X5.95Y-4.625
X11.925Y-6.3125
X12.325Y-6.3125
X7.425Y-5.375
X7.825Y-5.375
X7.05Y-6.125
X7.45Y-6.125
X5.925Y-5.375
X6.325Y-5.375
X4.8Y-4.625
X5.2Y-4.625
X4.05Y-4.625
X4.45Y-4.625
X11.7375Y-3.125
X12.1375Y-3.125
X6.8625Y-3.875
X7.2625Y-3.875
X10.8Y-4.625
X11.2Y-4.625
X11.4562Y-5.375
X11.8562Y-5.375
X8.3625Y-3.875
X8.7625Y-3.875
X8.55Y-4.625
X8.95Y-4.625
X12.675Y-6.3125
X13.075Y-6.3125
X9.8625Y-3.875
X10.2625Y-3.875
X13.6125Y-4.625
X14.0125Y-4.625
X9.5812Y-6.125
X9.9812Y-6.125
X9.3937Y-6.125
X9.7937Y-6.125
X6.1125Y-3.875
X6.5125Y-3.875
X3.0187Y-6.125
X3.4187Y-6.125
X4.2375Y-3.125
X4.6375Y-3.125
X12.1125Y-3.125
X12.5125Y-3.125
X12.3Y-3.875
X12.7Y-3.875
X9.3Y-4.625
X9.7Y-4.625
X10.425Y-5.375
X10.825Y-5.375
X10.9875Y-3.125
X11.3875Y-3.125
X13.6125Y-5.375
X14.0125Y-5.375
X10.2375Y-6.125
X10.6375Y-6.125
X11.55Y-4.625
X11.95Y-4.625
X6.4875Y-3.125
X6.8875Y-3.125
X3.675Y-5.375
X4.075Y-5.375
X3.8625Y-3.875
X4.2625Y-3.875
X7.2375Y-3.125
X7.6375Y-3.125
X13.6125Y-3.875
X14.0125Y-3.875
X6.3Y-4.625
X6.7Y-4.625
X10.6125Y-3.875
X11.0125Y-3.875
X9.1125Y-3.875
X9.5125Y-3.875
X2.4562Y-5.375
X2.8562Y-5.375
X13.425Y-6.3125
X13.825Y-6.3125
X10.05Y-4.625
X10.45Y-4.625
X7.9875Y-3.125
X8.3875Y-3.125
X5.7375Y-3.125
X6.1375Y-3.125
X2.175Y-3.875
X2.575Y-3.875
X8.7375Y-3.125
X9.1375Y-3.125
X2.7375Y-3.125
X3.1375Y-3.125
X2.925Y-5.375
X3.325Y-5.375
X7.05Y-4.625
X7.45Y-4.625
T6
X5.0Y-5.85
X8.75Y-5.85
X11.8438Y-2.85
X12.7812Y-2.85
X2.1875Y-5.1
X3.125Y-5.1
X5.0003Y-5.85
X8.9373Y-5.85
X12.8688Y-3.78
X12.8688Y-4.72
X11.75Y-4.35
X12.6875Y-4.35
T7
X11.75Y-4.625
X6.6875Y-3.125
X3.875Y-5.375
X4.0625Y-3.875
X7.4375Y-3.125
X13.8125Y-3.875
X6.5Y-4.625
X10.8125Y-3.875
X9.3125Y-3.875
X2.1875Y-5.7
X2.6562Y-5.375
X3.125Y-5.7
X13.625Y-6.3125
X10.25Y-4.625
X8.1875Y-3.125
X5.9375Y-3.125
X2.375Y-3.875
X8.9375Y-3.125
X2.9375Y-3.125
X3.125Y-5.375
X7.25Y-4.625
X5.5625Y-3.875
X11.5625Y-3.875
X2.2812Y-5.375
X5.0003Y-6.45
X6.9688Y-6.125
X8.9373Y-6.45
X5.375Y-5.375
X13.8125Y-3.125
X12.6875Y-3.125
X2.2812Y-6.125
X9.6875Y-3.125
X2.1875Y-3.125
X9.875Y-5.375
X8.0Y-4.625
X11.1875Y-6.125
X12.2687Y-3.78
X12.2687Y-4.72
X12.5938Y-4.25
X10.7188Y-6.125
X3.6875Y-3.125
X11.75Y-4.95
X12.2188Y-4.625
X12.6875Y-4.95
X3.5Y-4.625
X7.8125Y-3.875
X4.625Y-5.375
X5.1875Y-3.125
X4.8125Y-3.875
X10.4375Y-3.125
X8.375Y-5.375
X2.2812Y-4.625
X9.6875Y-6.125
X3.3125Y-3.875
X4.1562Y-6.125
X6.875Y-5.375
X12.875Y-5.5625
X2.4688Y-4.625
X9.125Y-5.375
X5.75Y-4.625
X12.125Y-6.3125
X7.625Y-5.375
X5.0Y-6.45
X7.25Y-6.125
X8.75Y-6.45
X6.125Y-5.375
X5.0Y-4.625
X4.25Y-4.625
X11.9375Y-3.125
X7.0625Y-3.875
X11.0Y-4.625
X11.6562Y-5.375
X8.5625Y-3.875
X8.75Y-4.625
X12.875Y-6.3125
X10.0625Y-3.875
X13.8125Y-4.625
X9.7812Y-6.125
X9.5938Y-6.125
X6.3125Y-3.875
X3.2188Y-6.125
X4.4375Y-3.125
X11.8438Y-3.45
X12.3125Y-3.125
X12.7812Y-3.45
X12.5Y-3.875
X9.5Y-4.625
X10.625Y-5.375
X11.1875Y-3.125
X13.8125Y-5.375
X10.4375Y-6.125
T8
X14.0312Y-2.6562
X10.0312Y-2.6562
X5.9688Y-2.6562
X1.9688Y-2.6562
T0
M30
